M48
; DRILL file {KiCad 7.0.9-7.0.9~ubuntu22.04.1} date Sun 10 Dec 2023 07:38:41 PM CET
; FORMAT={-:-/ absolute / inch / decimal}
; #@! TF.CreationDate,2023-12-10T19:38:41+01:00
; #@! TF.GenerationSoftware,Kicad,Pcbnew,7.0.9-7.0.9~ubuntu22.04.1
; #@! TF.FileFunction,Plated,1,2,PTH
FMAT,2
INCH
; #@! TA.AperFunction,Plated,PTH,ViaDrill
T1C0.0079
; #@! TA.AperFunction,Plated,PTH,ComponentDrill
T2C0.0079
; #@! TA.AperFunction,Plated,PTH,ViaDrill
T3C0.0098
; #@! TA.AperFunction,Plated,PTH,ViaDrill
T4C0.0157
; #@! TA.AperFunction,Plated,PTH,ComponentDrill
T5C0.0236
; #@! TA.AperFunction,Plated,PTH,ComponentDrill
T6C0.0315
; #@! TA.AperFunction,Plated,PTH,ComponentDrill
T7C0.0350
; #@! TA.AperFunction,Plated,PTH,ComponentDrill
T8C0.0394
; #@! TA.AperFunction,Plated,PTH,ComponentDrill
T9C0.0598
%
G90
G05
T1
X4.3865Y-1.9881
X4.3983Y-1.9022
X4.4105Y-1.882
X4.5557Y-2.0131
T2
X3.8829Y-1.7315
X3.8829Y-1.7728
X3.8829Y-1.8141
X3.9242Y-1.7315
X3.9242Y-1.7728
X3.9242Y-1.8141
X3.9656Y-1.7315
X3.9656Y-1.7728
X3.9656Y-1.8141
T3
X3.3485Y-1.492
X3.3485Y-1.517
X3.3735Y-1.492
X3.3735Y-1.517
X3.3985Y-1.492
X3.3985Y-1.517
X3.4825Y-1.849
X3.4865Y-1.8
X3.5225Y-1.789
X3.5258Y-1.8541
X3.6225Y-1.776
X3.6628Y-1.9093
X3.6654Y-2.0256
X3.6655Y-1.732
X3.7305Y-1.752
X3.7605Y-1.972
X3.7855Y-2.182
X3.8145Y-1.878
X3.8205Y-2.112
X3.8258Y-1.687
X3.9076Y-1.5731
X3.9205Y-1.342
X3.9382Y-1.909
X3.9405Y-1.622
X3.9475Y-2.0712
X3.9755Y-1.447
X3.9755Y-1.542
X3.9756Y-1.422
X3.9756Y-1.517
X3.9795Y-1.8938
X3.9953Y-1.8477
X3.9975Y-2.0712
X4.0005Y-1.422
X4.0005Y-1.447
X4.0005Y-1.517
X4.0005Y-1.542
X4.0085Y-1.6062
X4.0273Y-1.8219
X4.0367Y-1.852
X4.0493Y-2.0712
X4.0495Y-1.485
X4.0505Y-1.727
X4.0505Y-1.777
X4.0705Y-1.312
X4.0705Y-1.337
X4.0705Y-1.362
X4.0755Y-1.8995
X4.0755Y-1.927
X4.0755Y-1.957
X4.0776Y-1.7869
X4.0805Y-2.182
X4.0805Y-2.212
X4.0855Y-2.087
X4.0955Y-1.312
X4.0955Y-1.337
X4.0955Y-1.362
X4.0955Y-1.692
X4.1105Y-2.182
X4.1265Y-1.691
X4.1505Y-1.812
X4.1505Y-1.852
X4.1505Y-1.932
X4.1505Y-1.972
X4.1508Y-1.5683
X4.1555Y-2.052
X4.2279Y-1.612
X4.2555Y-1.557
X4.2729Y-2.0263
X4.2746Y-1.994
X4.2808Y-1.9646
X4.2905Y-1.2935
X4.2955Y-1.362
X4.3295Y-2.101
X4.3351Y-2.1531
X4.3439Y-2.127
X4.3555Y-1.727
X4.4265Y-1.832
X4.4295Y-2.257
X4.4295Y-2.282
X4.4295Y-2.307
X4.4335Y-1.339
X4.4335Y-1.364
X4.4658Y-1.737
X4.4658Y-1.7646
X4.4765Y-1.635
X4.4791Y-2.1419
X4.4855Y-1.8536
X4.4988Y-1.6572
X4.5067Y-2.142
X4.5104Y-1.8536
X4.5325Y-1.341
X4.5325Y-1.366
X4.5348Y-1.8536
X4.5455Y-2.165
X4.5893Y-2.1542
X4.5965Y-1.566
X4.6255Y-1.65
X4.6585Y-1.66
X4.6595Y-2.037
X4.6605Y-2.138
X4.6795Y-1.61
X4.6845Y-1.661
X4.6965Y-1.869
X4.7105Y-1.661
X4.7444Y-2.0494
X4.751Y-2.2079
X4.7543Y-2.0238
X4.7765Y-1.86
X4.7805Y-1.937
X4.8141Y-1.7982
X4.8525Y-1.657
X4.8525Y-1.679
X4.8525Y-1.703
X4.8595Y-1.327
X4.8595Y-1.352
X4.9395Y-2.129
X4.9395Y-2.151
X4.9555Y-1.967
X4.9655Y-2.129
X4.9655Y-2.151
X4.9695Y-2.235
X4.9855Y-1.752
X4.9905Y-1.677
X5.0236Y-1.9705
X5.0555Y-2.163
X5.0595Y-1.287
X5.1205Y-1.707
X5.1255Y-1.407
X5.1255Y-1.782
X5.1295Y-1.899
X5.1725Y-1.387
X5.1945Y-1.781
X5.1945Y-1.806
X5.1945Y-1.831
X5.2185Y-1.386
X5.2195Y-1.781
X5.2195Y-1.806
X5.2195Y-1.831
X5.248Y-1.5045
X5.2905Y-2.237
X5.2905Y-2.277
X5.2905Y-2.362
X5.3655Y-1.367
T4
X3.4891Y-1.7326
X3.4895Y-1.934
X3.5346Y-1.9309
X4.6685Y-1.521
X4.707Y-1.521
X5.0295Y-2.319
X5.0655Y-2.319
T6
X3.5681Y-2.3237
X3.6681Y-2.3237
X3.7681Y-2.3237
X3.8681Y-2.3237
T7
X4.3472Y-1.3543
X4.6149Y-1.3543
X4.7547Y-1.3576
X5.0224Y-1.3576
T8
X5.1905Y-1.982
X5.1905Y-2.082
X5.2905Y-1.982
X5.2905Y-2.082
T9
X5.4305Y-1.602
X5.4305Y-1.802
T5
G00X3.2145Y-1.6174
M15
G01X3.2617Y-1.6174
M16
G05
G00X3.2145Y-2.0599
M15
G01X3.2617Y-2.0599
M16
G05
G00X3.3799Y-1.6174
M15
G01X3.4113Y-1.6174
M16
G05
G00X3.3799Y-2.0599
M15
G01X3.4113Y-2.0599
M16
G05
T0
M30
