%TF.GenerationSoftware,KiCad,Pcbnew,7.0.9-7.0.9~ubuntu22.04.1*%
%TF.CreationDate,2023-11-29T16:30:29+01:00*%
%TF.ProjectId,PD-LabSupply,50442d4c-6162-4537-9570-706c792e6b69,3.1*%
%TF.SameCoordinates,Original*%
%TF.FileFunction,Legend,Bot*%
%TF.FilePolarity,Positive*%
%FSLAX46Y46*%
G04 Gerber Fmt 4.6, Leading zero omitted, Abs format (unit mm)*
G04 Created by KiCad (PCBNEW 7.0.9-7.0.9~ubuntu22.04.1) date 2023-11-29 16:30:29*
%MOMM*%
%LPD*%
G01*
G04 APERTURE LIST*
G04 Aperture macros list*
%AMRoundRect*
0 Rectangle with rounded corners*
0 $1 Rounding radius*
0 $2 $3 $4 $5 $6 $7 $8 $9 X,Y pos of 4 corners*
0 Add a 4 corners polygon primitive as box body*
4,1,4,$2,$3,$4,$5,$6,$7,$8,$9,$2,$3,0*
0 Add four circle primitives for the rounded corners*
1,1,$1+$1,$2,$3*
1,1,$1+$1,$4,$5*
1,1,$1+$1,$6,$7*
1,1,$1+$1,$8,$9*
0 Add four rect primitives between the rounded corners*
20,1,$1+$1,$2,$3,$4,$5,0*
20,1,$1+$1,$4,$5,$6,$7,0*
20,1,$1+$1,$6,$7,$8,$9,0*
20,1,$1+$1,$8,$9,$2,$3,0*%
G04 Aperture macros list end*
%ADD10C,0.200000*%
%ADD11C,0.150000*%
%ADD12C,0.120000*%
%ADD13C,2.640000*%
%ADD14C,1.740000*%
%ADD15C,3.140000*%
%ADD16O,1.840000X1.840000*%
%ADD17RoundRect,0.070000X-0.850000X-0.850000X0.850000X-0.850000X0.850000X0.850000X-0.850000X0.850000X0*%
%ADD18RoundRect,0.070000X-0.850000X0.850000X-0.850000X-0.850000X0.850000X-0.850000X0.850000X0.850000X0*%
%ADD19RoundRect,0.070000X0.850000X-0.850000X0.850000X0.850000X-0.850000X0.850000X-0.850000X-0.850000X0*%
%ADD20O,1.740000X1.740000*%
%ADD21RoundRect,0.070000X0.800000X-0.800000X0.800000X0.800000X-0.800000X0.800000X-0.800000X-0.800000X0*%
%ADD22C,1.040000*%
%ADD23RoundRect,0.070000X-1.500000X1.500000X-1.500000X-1.500000X1.500000X-1.500000X1.500000X1.500000X0*%
%ADD24O,2.440000X1.440000*%
%ADD25O,2.740000X1.440000*%
%ADD26RoundRect,0.070000X0.500000X-0.260000X0.500000X0.260000X-0.500000X0.260000X-0.500000X-0.260000X0*%
%ADD27RoundRect,0.070000X0.500000X-0.135000X0.500000X0.135000X-0.500000X0.135000X-0.500000X-0.135000X0*%
%ADD28O,0.740000X0.990000*%
%ADD29RoundRect,0.070000X1.000000X-0.500000X1.000000X0.500000X-1.000000X0.500000X-1.000000X-0.500000X0*%
%ADD30C,0.740000*%
G04 APERTURE END LIST*
D10*
G36*
X90992828Y-48155542D02*
G01*
X90939214Y-48262769D01*
X90890734Y-48311249D01*
X90783507Y-48364863D01*
X90616435Y-48364863D01*
X90509207Y-48311249D01*
X90465944Y-48267986D01*
X90407114Y-48091493D01*
X90407114Y-47707720D01*
X90992828Y-47707720D01*
X90992828Y-48155542D01*
G37*
G36*
X90207114Y-48084113D02*
G01*
X90153499Y-48191342D01*
X90105021Y-48239819D01*
X89997792Y-48293435D01*
X89902149Y-48293435D01*
X89794919Y-48239819D01*
X89746442Y-48191341D01*
X89692828Y-48084113D01*
X89692828Y-47707720D01*
X90207114Y-47707720D01*
X90207114Y-48084113D01*
G37*
G36*
X91407114Y-52135061D02*
G01*
X89278542Y-52135061D01*
X89278542Y-51536292D01*
X89492828Y-51536292D01*
X89497836Y-51551707D01*
X89497960Y-51567915D01*
X89569389Y-51782201D01*
X89583079Y-51800747D01*
X89593546Y-51821289D01*
X89664974Y-51892716D01*
X89720041Y-51920775D01*
X89781084Y-51911107D01*
X89824786Y-51867405D01*
X89834454Y-51806362D01*
X89806395Y-51751295D01*
X89751659Y-51696558D01*
X89692828Y-51520064D01*
X89692828Y-51409662D01*
X89751659Y-51233168D01*
X89866348Y-51118478D01*
X89984876Y-51059213D01*
X90247994Y-50993435D01*
X90437662Y-50993435D01*
X90700778Y-51059213D01*
X90819308Y-51118478D01*
X90933997Y-51233167D01*
X90992828Y-51409660D01*
X90992828Y-51520066D01*
X90933997Y-51696559D01*
X90879261Y-51751295D01*
X90851202Y-51806362D01*
X90860870Y-51867404D01*
X90904571Y-51911107D01*
X90965614Y-51920775D01*
X91020681Y-51892717D01*
X91092110Y-51821289D01*
X91102575Y-51800749D01*
X91116268Y-51782201D01*
X91187696Y-51567915D01*
X91187819Y-51551707D01*
X91192828Y-51536292D01*
X91192828Y-51393435D01*
X91187819Y-51378019D01*
X91187696Y-51361812D01*
X91116268Y-51147526D01*
X91102575Y-51128977D01*
X91092110Y-51108438D01*
X90949252Y-50965581D01*
X90934811Y-50958223D01*
X90923263Y-50946849D01*
X90780407Y-50875420D01*
X90769384Y-50873759D01*
X90759938Y-50867849D01*
X90474224Y-50796421D01*
X90461808Y-50797281D01*
X90449971Y-50793435D01*
X90235685Y-50793435D01*
X90223847Y-50797281D01*
X90211431Y-50796421D01*
X89925718Y-50867849D01*
X89916271Y-50873759D01*
X89905249Y-50875420D01*
X89762392Y-50946849D01*
X89750842Y-50958224D01*
X89736403Y-50965582D01*
X89593546Y-51108438D01*
X89583079Y-51128979D01*
X89569389Y-51147526D01*
X89497960Y-51361812D01*
X89497836Y-51378019D01*
X89492828Y-51393435D01*
X89492828Y-51536292D01*
X89278542Y-51536292D01*
X89278542Y-50250578D01*
X90421400Y-50250578D01*
X90440498Y-50309357D01*
X90490498Y-50345684D01*
X90552302Y-50345684D01*
X90602302Y-50309357D01*
X90621400Y-50250578D01*
X90621400Y-49107720D01*
X90602302Y-49048941D01*
X90552302Y-49012614D01*
X90490498Y-49012614D01*
X90440498Y-49048941D01*
X90421400Y-49107720D01*
X90421400Y-50250578D01*
X89278542Y-50250578D01*
X89278542Y-48107720D01*
X89492828Y-48107720D01*
X89499951Y-48129643D01*
X89503385Y-48152441D01*
X89574814Y-48295299D01*
X89586187Y-48306846D01*
X89593546Y-48321289D01*
X89664974Y-48392716D01*
X89679413Y-48400073D01*
X89690963Y-48411449D01*
X89833820Y-48482878D01*
X89856618Y-48486311D01*
X89878542Y-48493435D01*
X90021400Y-48493435D01*
X90043323Y-48486311D01*
X90066122Y-48482878D01*
X90208978Y-48411449D01*
X90220525Y-48400075D01*
X90234968Y-48392717D01*
X90281269Y-48346414D01*
X90283674Y-48353628D01*
X90297363Y-48372173D01*
X90307831Y-48392717D01*
X90379260Y-48464146D01*
X90393702Y-48471504D01*
X90405250Y-48482878D01*
X90548107Y-48554306D01*
X90570904Y-48557739D01*
X90592828Y-48564863D01*
X90807114Y-48564863D01*
X90829037Y-48557739D01*
X90851835Y-48554306D01*
X90994692Y-48482878D01*
X91006239Y-48471504D01*
X91020682Y-48464146D01*
X91092111Y-48392717D01*
X91099469Y-48378274D01*
X91110843Y-48366727D01*
X91182271Y-48223870D01*
X91185704Y-48201072D01*
X91192828Y-48179149D01*
X91192828Y-47607720D01*
X91187934Y-47592657D01*
X91187934Y-47576818D01*
X91178624Y-47564004D01*
X91173730Y-47548941D01*
X91160916Y-47539631D01*
X91151607Y-47526818D01*
X91136543Y-47521923D01*
X91123730Y-47512614D01*
X91107891Y-47512614D01*
X91092828Y-47507720D01*
X89592828Y-47507720D01*
X89577765Y-47512614D01*
X89561926Y-47512614D01*
X89549112Y-47521923D01*
X89534049Y-47526818D01*
X89524739Y-47539631D01*
X89511926Y-47548941D01*
X89507031Y-47564004D01*
X89497722Y-47576818D01*
X89497722Y-47592657D01*
X89492828Y-47607720D01*
X89492828Y-48107720D01*
X89278542Y-48107720D01*
X89278542Y-46750578D01*
X89492828Y-46750578D01*
X89497836Y-46765993D01*
X89497960Y-46782201D01*
X89569389Y-46996487D01*
X89606094Y-47046210D01*
X89665016Y-47064861D01*
X89723648Y-47045317D01*
X89759595Y-46995043D01*
X89759125Y-46933241D01*
X89692828Y-46734350D01*
X89692828Y-46417043D01*
X89746444Y-46309811D01*
X89794920Y-46261334D01*
X89902149Y-46207721D01*
X89997793Y-46207721D01*
X90105021Y-46261334D01*
X90153498Y-46309811D01*
X90212763Y-46428340D01*
X90281528Y-46703402D01*
X90287438Y-46712848D01*
X90289099Y-46723870D01*
X90360528Y-46866728D01*
X90371902Y-46878276D01*
X90379261Y-46892718D01*
X90450690Y-46964146D01*
X90465129Y-46971503D01*
X90476678Y-46982878D01*
X90619535Y-47054307D01*
X90642333Y-47057740D01*
X90664257Y-47064864D01*
X90807114Y-47064864D01*
X90829037Y-47057740D01*
X90851836Y-47054307D01*
X90994692Y-46982878D01*
X91006240Y-46971503D01*
X91020681Y-46964146D01*
X91092110Y-46892718D01*
X91099468Y-46878277D01*
X91110843Y-46866728D01*
X91182271Y-46723870D01*
X91185704Y-46701072D01*
X91192828Y-46679149D01*
X91192828Y-46322007D01*
X91187819Y-46306591D01*
X91187696Y-46290384D01*
X91116268Y-46076098D01*
X91079563Y-46026375D01*
X91020641Y-46007723D01*
X90962009Y-46027267D01*
X90926062Y-46077542D01*
X90926532Y-46139344D01*
X90992828Y-46338232D01*
X90992828Y-46655542D01*
X90939213Y-46762771D01*
X90890737Y-46811247D01*
X90783506Y-46864864D01*
X90687864Y-46864864D01*
X90580633Y-46811248D01*
X90532156Y-46762771D01*
X90472893Y-46644245D01*
X90404128Y-46369182D01*
X90398217Y-46359735D01*
X90396557Y-46348713D01*
X90325128Y-46205856D01*
X90313753Y-46194307D01*
X90306396Y-46179868D01*
X90234968Y-46108439D01*
X90220526Y-46101080D01*
X90208978Y-46089706D01*
X90066121Y-46018278D01*
X90043323Y-46014844D01*
X90021400Y-46007721D01*
X89878542Y-46007721D01*
X89856618Y-46014844D01*
X89833821Y-46018278D01*
X89690964Y-46089706D01*
X89679415Y-46101080D01*
X89664974Y-46108439D01*
X89593546Y-46179868D01*
X89586188Y-46194308D01*
X89574814Y-46205857D01*
X89503385Y-46348713D01*
X89499951Y-46371511D01*
X89492828Y-46393435D01*
X89492828Y-46750578D01*
X89278542Y-46750578D01*
X89278542Y-45495765D01*
X89497722Y-45495765D01*
X89534049Y-45545765D01*
X89592828Y-45564863D01*
X90807114Y-45564863D01*
X90829037Y-45557739D01*
X90851835Y-45554306D01*
X90994692Y-45482878D01*
X91006239Y-45471504D01*
X91020682Y-45464146D01*
X91092111Y-45392717D01*
X91099469Y-45378274D01*
X91110843Y-45366727D01*
X91182271Y-45223870D01*
X91185704Y-45201072D01*
X91192828Y-45179149D01*
X91192828Y-44893435D01*
X91185704Y-44871511D01*
X91182271Y-44848714D01*
X91110843Y-44705857D01*
X91099469Y-44694309D01*
X91092111Y-44679867D01*
X91020682Y-44608438D01*
X91006239Y-44601079D01*
X90994692Y-44589706D01*
X90851836Y-44518277D01*
X90829037Y-44514843D01*
X90807114Y-44507720D01*
X89592828Y-44507720D01*
X89534049Y-44526818D01*
X89497722Y-44576818D01*
X89497722Y-44638622D01*
X89534049Y-44688622D01*
X89592828Y-44707720D01*
X90783506Y-44707720D01*
X90890734Y-44761334D01*
X90939214Y-44809814D01*
X90992828Y-44917041D01*
X90992828Y-45155542D01*
X90939214Y-45262769D01*
X90890734Y-45311249D01*
X90783507Y-45364863D01*
X89592828Y-45364863D01*
X89534049Y-45383961D01*
X89497722Y-45433961D01*
X89497722Y-45495765D01*
X89278542Y-45495765D01*
X89278542Y-44293434D01*
X91407114Y-44293434D01*
X91407114Y-52135061D01*
G37*
X110406879Y-69541628D02*
X110406879Y-68041628D01*
X110406879Y-68755914D02*
X109549736Y-68755914D01*
X109549736Y-69541628D02*
X109549736Y-68041628D01*
X109049735Y-68041628D02*
X108192593Y-68041628D01*
X108621164Y-69541628D02*
X108621164Y-68041628D01*
X106978307Y-69541628D02*
X107692593Y-69541628D01*
X107692593Y-69541628D02*
X107692593Y-68041628D01*
X106478307Y-68970200D02*
X105335450Y-68970200D01*
X103764021Y-69541628D02*
X104264021Y-68827342D01*
X104621164Y-69541628D02*
X104621164Y-68041628D01*
X104621164Y-68041628D02*
X104049735Y-68041628D01*
X104049735Y-68041628D02*
X103906878Y-68113057D01*
X103906878Y-68113057D02*
X103835449Y-68184485D01*
X103835449Y-68184485D02*
X103764021Y-68327342D01*
X103764021Y-68327342D02*
X103764021Y-68541628D01*
X103764021Y-68541628D02*
X103835449Y-68684485D01*
X103835449Y-68684485D02*
X103906878Y-68755914D01*
X103906878Y-68755914D02*
X104049735Y-68827342D01*
X104049735Y-68827342D02*
X104621164Y-68827342D01*
X102478307Y-69541628D02*
X102478307Y-68755914D01*
X102478307Y-68755914D02*
X102549735Y-68613057D01*
X102549735Y-68613057D02*
X102692592Y-68541628D01*
X102692592Y-68541628D02*
X102978307Y-68541628D01*
X102978307Y-68541628D02*
X103121164Y-68613057D01*
X102478307Y-69470200D02*
X102621164Y-69541628D01*
X102621164Y-69541628D02*
X102978307Y-69541628D01*
X102978307Y-69541628D02*
X103121164Y-69470200D01*
X103121164Y-69470200D02*
X103192592Y-69327342D01*
X103192592Y-69327342D02*
X103192592Y-69184485D01*
X103192592Y-69184485D02*
X103121164Y-69041628D01*
X103121164Y-69041628D02*
X102978307Y-68970200D01*
X102978307Y-68970200D02*
X102621164Y-68970200D01*
X102621164Y-68970200D02*
X102478307Y-68898771D01*
X101764021Y-68541628D02*
X101764021Y-69541628D01*
X101764021Y-68684485D02*
X101692592Y-68613057D01*
X101692592Y-68613057D02*
X101549735Y-68541628D01*
X101549735Y-68541628D02*
X101335449Y-68541628D01*
X101335449Y-68541628D02*
X101192592Y-68613057D01*
X101192592Y-68613057D02*
X101121164Y-68755914D01*
X101121164Y-68755914D02*
X101121164Y-69541628D01*
X100406878Y-69541628D02*
X100406878Y-68041628D01*
X100264021Y-68970200D02*
X99835449Y-69541628D01*
X99835449Y-68541628D02*
X100406878Y-69113057D01*
X99335449Y-68541628D02*
X99049735Y-69541628D01*
X99049735Y-69541628D02*
X98764020Y-68827342D01*
X98764020Y-68827342D02*
X98478306Y-69541628D01*
X98478306Y-69541628D02*
X98192592Y-68541628D01*
X97049734Y-69470200D02*
X97192591Y-69541628D01*
X97192591Y-69541628D02*
X97478306Y-69541628D01*
X97478306Y-69541628D02*
X97621163Y-69470200D01*
X97621163Y-69470200D02*
X97692591Y-69327342D01*
X97692591Y-69327342D02*
X97692591Y-68755914D01*
X97692591Y-68755914D02*
X97621163Y-68613057D01*
X97621163Y-68613057D02*
X97478306Y-68541628D01*
X97478306Y-68541628D02*
X97192591Y-68541628D01*
X97192591Y-68541628D02*
X97049734Y-68613057D01*
X97049734Y-68613057D02*
X96978306Y-68755914D01*
X96978306Y-68755914D02*
X96978306Y-68898771D01*
X96978306Y-68898771D02*
X97692591Y-69041628D01*
X96335449Y-69541628D02*
X96335449Y-68541628D01*
X96335449Y-68041628D02*
X96406877Y-68113057D01*
X96406877Y-68113057D02*
X96335449Y-68184485D01*
X96335449Y-68184485D02*
X96264020Y-68113057D01*
X96264020Y-68113057D02*
X96335449Y-68041628D01*
X96335449Y-68041628D02*
X96335449Y-68184485D01*
X95406877Y-69541628D02*
X95549734Y-69470200D01*
X95549734Y-69470200D02*
X95621163Y-69327342D01*
X95621163Y-69327342D02*
X95621163Y-68041628D01*
X93049735Y-68541628D02*
X93049735Y-69541628D01*
X93406877Y-67970200D02*
X93764020Y-69041628D01*
X93764020Y-69041628D02*
X92835449Y-69041628D01*
X92335449Y-69113057D02*
X91621164Y-69113057D01*
X92478306Y-69541628D02*
X91978306Y-68041628D01*
X91978306Y-68041628D02*
X91478306Y-69541628D01*
X90978307Y-69541628D02*
X90978307Y-68041628D01*
X90978307Y-68755914D02*
X90121164Y-68755914D01*
X90121164Y-69541628D02*
X90121164Y-68041628D01*
X89406878Y-68755914D02*
X88906878Y-68755914D01*
X88692592Y-69541628D02*
X89406878Y-69541628D01*
X89406878Y-69541628D02*
X89406878Y-68041628D01*
X89406878Y-68041628D02*
X88692592Y-68041628D01*
X87335449Y-69541628D02*
X88049735Y-69541628D01*
X88049735Y-69541628D02*
X88049735Y-68041628D01*
X110406879Y-71956628D02*
X110406879Y-70456628D01*
X110406879Y-70456628D02*
X109906879Y-71528057D01*
X109906879Y-71528057D02*
X109406879Y-70456628D01*
X109406879Y-70456628D02*
X109406879Y-71956628D01*
X108049736Y-71956628D02*
X108049736Y-71170914D01*
X108049736Y-71170914D02*
X108121164Y-71028057D01*
X108121164Y-71028057D02*
X108264021Y-70956628D01*
X108264021Y-70956628D02*
X108549736Y-70956628D01*
X108549736Y-70956628D02*
X108692593Y-71028057D01*
X108049736Y-71885200D02*
X108192593Y-71956628D01*
X108192593Y-71956628D02*
X108549736Y-71956628D01*
X108549736Y-71956628D02*
X108692593Y-71885200D01*
X108692593Y-71885200D02*
X108764021Y-71742342D01*
X108764021Y-71742342D02*
X108764021Y-71599485D01*
X108764021Y-71599485D02*
X108692593Y-71456628D01*
X108692593Y-71456628D02*
X108549736Y-71385200D01*
X108549736Y-71385200D02*
X108192593Y-71385200D01*
X108192593Y-71385200D02*
X108049736Y-71313771D01*
X107335450Y-70956628D02*
X107335450Y-71956628D01*
X107335450Y-71099485D02*
X107264021Y-71028057D01*
X107264021Y-71028057D02*
X107121164Y-70956628D01*
X107121164Y-70956628D02*
X106906878Y-70956628D01*
X106906878Y-70956628D02*
X106764021Y-71028057D01*
X106764021Y-71028057D02*
X106692593Y-71170914D01*
X106692593Y-71170914D02*
X106692593Y-71956628D01*
X105335450Y-70956628D02*
X105335450Y-71956628D01*
X105978307Y-70956628D02*
X105978307Y-71742342D01*
X105978307Y-71742342D02*
X105906878Y-71885200D01*
X105906878Y-71885200D02*
X105764021Y-71956628D01*
X105764021Y-71956628D02*
X105549735Y-71956628D01*
X105549735Y-71956628D02*
X105406878Y-71885200D01*
X105406878Y-71885200D02*
X105335450Y-71813771D01*
X104049735Y-71885200D02*
X104192592Y-71956628D01*
X104192592Y-71956628D02*
X104478307Y-71956628D01*
X104478307Y-71956628D02*
X104621164Y-71885200D01*
X104621164Y-71885200D02*
X104692592Y-71742342D01*
X104692592Y-71742342D02*
X104692592Y-71170914D01*
X104692592Y-71170914D02*
X104621164Y-71028057D01*
X104621164Y-71028057D02*
X104478307Y-70956628D01*
X104478307Y-70956628D02*
X104192592Y-70956628D01*
X104192592Y-70956628D02*
X104049735Y-71028057D01*
X104049735Y-71028057D02*
X103978307Y-71170914D01*
X103978307Y-71170914D02*
X103978307Y-71313771D01*
X103978307Y-71313771D02*
X104692592Y-71456628D01*
X103121164Y-71956628D02*
X103264021Y-71885200D01*
X103264021Y-71885200D02*
X103335450Y-71742342D01*
X103335450Y-71742342D02*
X103335450Y-70456628D01*
X101406879Y-71956628D02*
X101406879Y-70456628D01*
X101406879Y-70456628D02*
X100906879Y-71528057D01*
X100906879Y-71528057D02*
X100406879Y-70456628D01*
X100406879Y-70456628D02*
X100406879Y-71956628D01*
X99049736Y-71956628D02*
X99049736Y-71170914D01*
X99049736Y-71170914D02*
X99121164Y-71028057D01*
X99121164Y-71028057D02*
X99264021Y-70956628D01*
X99264021Y-70956628D02*
X99549736Y-70956628D01*
X99549736Y-70956628D02*
X99692593Y-71028057D01*
X99049736Y-71885200D02*
X99192593Y-71956628D01*
X99192593Y-71956628D02*
X99549736Y-71956628D01*
X99549736Y-71956628D02*
X99692593Y-71885200D01*
X99692593Y-71885200D02*
X99764021Y-71742342D01*
X99764021Y-71742342D02*
X99764021Y-71599485D01*
X99764021Y-71599485D02*
X99692593Y-71456628D01*
X99692593Y-71456628D02*
X99549736Y-71385200D01*
X99549736Y-71385200D02*
X99192593Y-71385200D01*
X99192593Y-71385200D02*
X99049736Y-71313771D01*
X98478307Y-70956628D02*
X98121164Y-71956628D01*
X97764021Y-70956628D02*
X98121164Y-71956628D01*
X98121164Y-71956628D02*
X98264021Y-72313771D01*
X98264021Y-72313771D02*
X98335450Y-72385200D01*
X98335450Y-72385200D02*
X98478307Y-72456628D01*
X97192593Y-71956628D02*
X97192593Y-70956628D01*
X97192593Y-71242342D02*
X97121164Y-71099485D01*
X97121164Y-71099485D02*
X97049736Y-71028057D01*
X97049736Y-71028057D02*
X96906878Y-70956628D01*
X96906878Y-70956628D02*
X96764021Y-70956628D01*
X96264022Y-71956628D02*
X96264022Y-70456628D01*
X95621165Y-71956628D02*
X95621165Y-71170914D01*
X95621165Y-71170914D02*
X95692593Y-71028057D01*
X95692593Y-71028057D02*
X95835450Y-70956628D01*
X95835450Y-70956628D02*
X96049736Y-70956628D01*
X96049736Y-70956628D02*
X96192593Y-71028057D01*
X96192593Y-71028057D02*
X96264022Y-71099485D01*
X94692593Y-71956628D02*
X94835450Y-71885200D01*
X94835450Y-71885200D02*
X94906879Y-71813771D01*
X94906879Y-71813771D02*
X94978307Y-71670914D01*
X94978307Y-71670914D02*
X94978307Y-71242342D01*
X94978307Y-71242342D02*
X94906879Y-71099485D01*
X94906879Y-71099485D02*
X94835450Y-71028057D01*
X94835450Y-71028057D02*
X94692593Y-70956628D01*
X94692593Y-70956628D02*
X94478307Y-70956628D01*
X94478307Y-70956628D02*
X94335450Y-71028057D01*
X94335450Y-71028057D02*
X94264022Y-71099485D01*
X94264022Y-71099485D02*
X94192593Y-71242342D01*
X94192593Y-71242342D02*
X94192593Y-71670914D01*
X94192593Y-71670914D02*
X94264022Y-71813771D01*
X94264022Y-71813771D02*
X94335450Y-71885200D01*
X94335450Y-71885200D02*
X94478307Y-71956628D01*
X94478307Y-71956628D02*
X94692593Y-71956628D01*
X93764021Y-70956628D02*
X93192593Y-70956628D01*
X93549736Y-71956628D02*
X93549736Y-70670914D01*
X93549736Y-70670914D02*
X93478307Y-70528057D01*
X93478307Y-70528057D02*
X93335450Y-70456628D01*
X93335450Y-70456628D02*
X93192593Y-70456628D01*
X92121164Y-71885200D02*
X92264021Y-71956628D01*
X92264021Y-71956628D02*
X92549736Y-71956628D01*
X92549736Y-71956628D02*
X92692593Y-71885200D01*
X92692593Y-71885200D02*
X92764021Y-71742342D01*
X92764021Y-71742342D02*
X92764021Y-71170914D01*
X92764021Y-71170914D02*
X92692593Y-71028057D01*
X92692593Y-71028057D02*
X92549736Y-70956628D01*
X92549736Y-70956628D02*
X92264021Y-70956628D01*
X92264021Y-70956628D02*
X92121164Y-71028057D01*
X92121164Y-71028057D02*
X92049736Y-71170914D01*
X92049736Y-71170914D02*
X92049736Y-71313771D01*
X92049736Y-71313771D02*
X92764021Y-71456628D01*
X91406879Y-71956628D02*
X91406879Y-70956628D01*
X91406879Y-71242342D02*
X91335450Y-71099485D01*
X91335450Y-71099485D02*
X91264022Y-71028057D01*
X91264022Y-71028057D02*
X91121164Y-70956628D01*
X91121164Y-70956628D02*
X90978307Y-70956628D01*
X109978307Y-72871628D02*
X109978307Y-73943057D01*
X109978307Y-73943057D02*
X110049736Y-74157342D01*
X110049736Y-74157342D02*
X110192593Y-74300200D01*
X110192593Y-74300200D02*
X110406879Y-74371628D01*
X110406879Y-74371628D02*
X110549736Y-74371628D01*
X109049736Y-74371628D02*
X109192593Y-74300200D01*
X109192593Y-74300200D02*
X109264022Y-74228771D01*
X109264022Y-74228771D02*
X109335450Y-74085914D01*
X109335450Y-74085914D02*
X109335450Y-73657342D01*
X109335450Y-73657342D02*
X109264022Y-73514485D01*
X109264022Y-73514485D02*
X109192593Y-73443057D01*
X109192593Y-73443057D02*
X109049736Y-73371628D01*
X109049736Y-73371628D02*
X108835450Y-73371628D01*
X108835450Y-73371628D02*
X108692593Y-73443057D01*
X108692593Y-73443057D02*
X108621165Y-73514485D01*
X108621165Y-73514485D02*
X108549736Y-73657342D01*
X108549736Y-73657342D02*
X108549736Y-74085914D01*
X108549736Y-74085914D02*
X108621165Y-74228771D01*
X108621165Y-74228771D02*
X108692593Y-74300200D01*
X108692593Y-74300200D02*
X108835450Y-74371628D01*
X108835450Y-74371628D02*
X109049736Y-74371628D01*
X107906879Y-74371628D02*
X107906879Y-72871628D01*
X107264022Y-74371628D02*
X107264022Y-73585914D01*
X107264022Y-73585914D02*
X107335450Y-73443057D01*
X107335450Y-73443057D02*
X107478307Y-73371628D01*
X107478307Y-73371628D02*
X107692593Y-73371628D01*
X107692593Y-73371628D02*
X107835450Y-73443057D01*
X107835450Y-73443057D02*
X107906879Y-73514485D01*
X105906879Y-74371628D02*
X105906879Y-73585914D01*
X105906879Y-73585914D02*
X105978307Y-73443057D01*
X105978307Y-73443057D02*
X106121164Y-73371628D01*
X106121164Y-73371628D02*
X106406879Y-73371628D01*
X106406879Y-73371628D02*
X106549736Y-73443057D01*
X105906879Y-74300200D02*
X106049736Y-74371628D01*
X106049736Y-74371628D02*
X106406879Y-74371628D01*
X106406879Y-74371628D02*
X106549736Y-74300200D01*
X106549736Y-74300200D02*
X106621164Y-74157342D01*
X106621164Y-74157342D02*
X106621164Y-74014485D01*
X106621164Y-74014485D02*
X106549736Y-73871628D01*
X106549736Y-73871628D02*
X106406879Y-73800200D01*
X106406879Y-73800200D02*
X106049736Y-73800200D01*
X106049736Y-73800200D02*
X105906879Y-73728771D01*
X105192593Y-73371628D02*
X105192593Y-74371628D01*
X105192593Y-73514485D02*
X105121164Y-73443057D01*
X105121164Y-73443057D02*
X104978307Y-73371628D01*
X104978307Y-73371628D02*
X104764021Y-73371628D01*
X104764021Y-73371628D02*
X104621164Y-73443057D01*
X104621164Y-73443057D02*
X104549736Y-73585914D01*
X104549736Y-73585914D02*
X104549736Y-74371628D01*
X103835450Y-73371628D02*
X103835450Y-74371628D01*
X103835450Y-73514485D02*
X103764021Y-73443057D01*
X103764021Y-73443057D02*
X103621164Y-73371628D01*
X103621164Y-73371628D02*
X103406878Y-73371628D01*
X103406878Y-73371628D02*
X103264021Y-73443057D01*
X103264021Y-73443057D02*
X103192593Y-73585914D01*
X103192593Y-73585914D02*
X103192593Y-74371628D01*
X101906878Y-74300200D02*
X102049735Y-74371628D01*
X102049735Y-74371628D02*
X102335450Y-74371628D01*
X102335450Y-74371628D02*
X102478307Y-74300200D01*
X102478307Y-74300200D02*
X102549735Y-74157342D01*
X102549735Y-74157342D02*
X102549735Y-73585914D01*
X102549735Y-73585914D02*
X102478307Y-73443057D01*
X102478307Y-73443057D02*
X102335450Y-73371628D01*
X102335450Y-73371628D02*
X102049735Y-73371628D01*
X102049735Y-73371628D02*
X101906878Y-73443057D01*
X101906878Y-73443057D02*
X101835450Y-73585914D01*
X101835450Y-73585914D02*
X101835450Y-73728771D01*
X101835450Y-73728771D02*
X102549735Y-73871628D01*
X101264021Y-74300200D02*
X101121164Y-74371628D01*
X101121164Y-74371628D02*
X100835450Y-74371628D01*
X100835450Y-74371628D02*
X100692593Y-74300200D01*
X100692593Y-74300200D02*
X100621164Y-74157342D01*
X100621164Y-74157342D02*
X100621164Y-74085914D01*
X100621164Y-74085914D02*
X100692593Y-73943057D01*
X100692593Y-73943057D02*
X100835450Y-73871628D01*
X100835450Y-73871628D02*
X101049736Y-73871628D01*
X101049736Y-73871628D02*
X101192593Y-73800200D01*
X101192593Y-73800200D02*
X101264021Y-73657342D01*
X101264021Y-73657342D02*
X101264021Y-73585914D01*
X101264021Y-73585914D02*
X101192593Y-73443057D01*
X101192593Y-73443057D02*
X101049736Y-73371628D01*
X101049736Y-73371628D02*
X100835450Y-73371628D01*
X100835450Y-73371628D02*
X100692593Y-73443057D01*
X98835450Y-74371628D02*
X98835450Y-72871628D01*
X98835450Y-72871628D02*
X98335450Y-73943057D01*
X98335450Y-73943057D02*
X97835450Y-72871628D01*
X97835450Y-72871628D02*
X97835450Y-74371628D01*
X96549735Y-74300200D02*
X96692592Y-74371628D01*
X96692592Y-74371628D02*
X96978307Y-74371628D01*
X96978307Y-74371628D02*
X97121164Y-74300200D01*
X97121164Y-74300200D02*
X97192592Y-74157342D01*
X97192592Y-74157342D02*
X97192592Y-73585914D01*
X97192592Y-73585914D02*
X97121164Y-73443057D01*
X97121164Y-73443057D02*
X96978307Y-73371628D01*
X96978307Y-73371628D02*
X96692592Y-73371628D01*
X96692592Y-73371628D02*
X96549735Y-73443057D01*
X96549735Y-73443057D02*
X96478307Y-73585914D01*
X96478307Y-73585914D02*
X96478307Y-73728771D01*
X96478307Y-73728771D02*
X97192592Y-73871628D01*
X95621164Y-74371628D02*
X95764021Y-74300200D01*
X95764021Y-74300200D02*
X95835450Y-74157342D01*
X95835450Y-74157342D02*
X95835450Y-72871628D01*
X94406879Y-74300200D02*
X94549736Y-74371628D01*
X94549736Y-74371628D02*
X94835450Y-74371628D01*
X94835450Y-74371628D02*
X94978307Y-74300200D01*
X94978307Y-74300200D02*
X95049736Y-74228771D01*
X95049736Y-74228771D02*
X95121164Y-74085914D01*
X95121164Y-74085914D02*
X95121164Y-73657342D01*
X95121164Y-73657342D02*
X95049736Y-73514485D01*
X95049736Y-73514485D02*
X94978307Y-73443057D01*
X94978307Y-73443057D02*
X94835450Y-73371628D01*
X94835450Y-73371628D02*
X94549736Y-73371628D01*
X94549736Y-73371628D02*
X94406879Y-73443057D01*
X93764022Y-74371628D02*
X93764022Y-72871628D01*
X93121165Y-74371628D02*
X93121165Y-73585914D01*
X93121165Y-73585914D02*
X93192593Y-73443057D01*
X93192593Y-73443057D02*
X93335450Y-73371628D01*
X93335450Y-73371628D02*
X93549736Y-73371628D01*
X93549736Y-73371628D02*
X93692593Y-73443057D01*
X93692593Y-73443057D02*
X93764022Y-73514485D01*
X91835450Y-74300200D02*
X91978307Y-74371628D01*
X91978307Y-74371628D02*
X92264022Y-74371628D01*
X92264022Y-74371628D02*
X92406879Y-74300200D01*
X92406879Y-74300200D02*
X92478307Y-74157342D01*
X92478307Y-74157342D02*
X92478307Y-73585914D01*
X92478307Y-73585914D02*
X92406879Y-73443057D01*
X92406879Y-73443057D02*
X92264022Y-73371628D01*
X92264022Y-73371628D02*
X91978307Y-73371628D01*
X91978307Y-73371628D02*
X91835450Y-73443057D01*
X91835450Y-73443057D02*
X91764022Y-73585914D01*
X91764022Y-73585914D02*
X91764022Y-73728771D01*
X91764022Y-73728771D02*
X92478307Y-73871628D01*
X91121165Y-74371628D02*
X91121165Y-73371628D01*
X91121165Y-73657342D02*
X91049736Y-73514485D01*
X91049736Y-73514485D02*
X90978308Y-73443057D01*
X90978308Y-73443057D02*
X90835450Y-73371628D01*
X90835450Y-73371628D02*
X90692593Y-73371628D01*
X90192594Y-73800200D02*
X89049737Y-73800200D01*
X88335451Y-74371628D02*
X88335451Y-72871628D01*
X88335451Y-72871628D02*
X87835451Y-73943057D01*
X87835451Y-73943057D02*
X87335451Y-72871628D01*
X87335451Y-72871628D02*
X87335451Y-74371628D01*
X86621165Y-74371628D02*
X86621165Y-73371628D01*
X86621165Y-72871628D02*
X86692593Y-72943057D01*
X86692593Y-72943057D02*
X86621165Y-73014485D01*
X86621165Y-73014485D02*
X86549736Y-72943057D01*
X86549736Y-72943057D02*
X86621165Y-72871628D01*
X86621165Y-72871628D02*
X86621165Y-73014485D01*
X85692593Y-74371628D02*
X85835450Y-74300200D01*
X85835450Y-74300200D02*
X85906879Y-74157342D01*
X85906879Y-74157342D02*
X85906879Y-72871628D01*
X84906879Y-74371628D02*
X85049736Y-74300200D01*
X85049736Y-74300200D02*
X85121165Y-74157342D01*
X85121165Y-74157342D02*
X85121165Y-72871628D01*
X84335451Y-73371628D02*
X84335451Y-74371628D01*
X84335451Y-73514485D02*
X84264022Y-73443057D01*
X84264022Y-73443057D02*
X84121165Y-73371628D01*
X84121165Y-73371628D02*
X83906879Y-73371628D01*
X83906879Y-73371628D02*
X83764022Y-73443057D01*
X83764022Y-73443057D02*
X83692594Y-73585914D01*
X83692594Y-73585914D02*
X83692594Y-74371628D01*
X82406879Y-74300200D02*
X82549736Y-74371628D01*
X82549736Y-74371628D02*
X82835451Y-74371628D01*
X82835451Y-74371628D02*
X82978308Y-74300200D01*
X82978308Y-74300200D02*
X83049736Y-74157342D01*
X83049736Y-74157342D02*
X83049736Y-73585914D01*
X83049736Y-73585914D02*
X82978308Y-73443057D01*
X82978308Y-73443057D02*
X82835451Y-73371628D01*
X82835451Y-73371628D02*
X82549736Y-73371628D01*
X82549736Y-73371628D02*
X82406879Y-73443057D01*
X82406879Y-73443057D02*
X82335451Y-73585914D01*
X82335451Y-73585914D02*
X82335451Y-73728771D01*
X82335451Y-73728771D02*
X83049736Y-73871628D01*
X81692594Y-74371628D02*
X81692594Y-73371628D01*
X81692594Y-73657342D02*
X81621165Y-73514485D01*
X81621165Y-73514485D02*
X81549737Y-73443057D01*
X81549737Y-73443057D02*
X81406879Y-73371628D01*
X81406879Y-73371628D02*
X81264022Y-73371628D01*
X110406879Y-76786628D02*
X110406879Y-75286628D01*
X110406879Y-75286628D02*
X109835450Y-75286628D01*
X109835450Y-75286628D02*
X109692593Y-75358057D01*
X109692593Y-75358057D02*
X109621164Y-75429485D01*
X109621164Y-75429485D02*
X109549736Y-75572342D01*
X109549736Y-75572342D02*
X109549736Y-75786628D01*
X109549736Y-75786628D02*
X109621164Y-75929485D01*
X109621164Y-75929485D02*
X109692593Y-76000914D01*
X109692593Y-76000914D02*
X109835450Y-76072342D01*
X109835450Y-76072342D02*
X110406879Y-76072342D01*
X108906879Y-76786628D02*
X108906879Y-75286628D01*
X108906879Y-75286628D02*
X108549736Y-75286628D01*
X108549736Y-75286628D02*
X108335450Y-75358057D01*
X108335450Y-75358057D02*
X108192593Y-75500914D01*
X108192593Y-75500914D02*
X108121164Y-75643771D01*
X108121164Y-75643771D02*
X108049736Y-75929485D01*
X108049736Y-75929485D02*
X108049736Y-76143771D01*
X108049736Y-76143771D02*
X108121164Y-76429485D01*
X108121164Y-76429485D02*
X108192593Y-76572342D01*
X108192593Y-76572342D02*
X108335450Y-76715200D01*
X108335450Y-76715200D02*
X108549736Y-76786628D01*
X108549736Y-76786628D02*
X108906879Y-76786628D01*
X107406879Y-76215200D02*
X106264022Y-76215200D01*
X104835450Y-76786628D02*
X105549736Y-76786628D01*
X105549736Y-76786628D02*
X105549736Y-75286628D01*
X103692593Y-76786628D02*
X103692593Y-76000914D01*
X103692593Y-76000914D02*
X103764021Y-75858057D01*
X103764021Y-75858057D02*
X103906878Y-75786628D01*
X103906878Y-75786628D02*
X104192593Y-75786628D01*
X104192593Y-75786628D02*
X104335450Y-75858057D01*
X103692593Y-76715200D02*
X103835450Y-76786628D01*
X103835450Y-76786628D02*
X104192593Y-76786628D01*
X104192593Y-76786628D02*
X104335450Y-76715200D01*
X104335450Y-76715200D02*
X104406878Y-76572342D01*
X104406878Y-76572342D02*
X104406878Y-76429485D01*
X104406878Y-76429485D02*
X104335450Y-76286628D01*
X104335450Y-76286628D02*
X104192593Y-76215200D01*
X104192593Y-76215200D02*
X103835450Y-76215200D01*
X103835450Y-76215200D02*
X103692593Y-76143771D01*
X102978307Y-76786628D02*
X102978307Y-75286628D01*
X102978307Y-75858057D02*
X102835450Y-75786628D01*
X102835450Y-75786628D02*
X102549735Y-75786628D01*
X102549735Y-75786628D02*
X102406878Y-75858057D01*
X102406878Y-75858057D02*
X102335450Y-75929485D01*
X102335450Y-75929485D02*
X102264021Y-76072342D01*
X102264021Y-76072342D02*
X102264021Y-76500914D01*
X102264021Y-76500914D02*
X102335450Y-76643771D01*
X102335450Y-76643771D02*
X102406878Y-76715200D01*
X102406878Y-76715200D02*
X102549735Y-76786628D01*
X102549735Y-76786628D02*
X102835450Y-76786628D01*
X102835450Y-76786628D02*
X102978307Y-76715200D01*
X101692592Y-76715200D02*
X101478307Y-76786628D01*
X101478307Y-76786628D02*
X101121164Y-76786628D01*
X101121164Y-76786628D02*
X100978307Y-76715200D01*
X100978307Y-76715200D02*
X100906878Y-76643771D01*
X100906878Y-76643771D02*
X100835449Y-76500914D01*
X100835449Y-76500914D02*
X100835449Y-76358057D01*
X100835449Y-76358057D02*
X100906878Y-76215200D01*
X100906878Y-76215200D02*
X100978307Y-76143771D01*
X100978307Y-76143771D02*
X101121164Y-76072342D01*
X101121164Y-76072342D02*
X101406878Y-76000914D01*
X101406878Y-76000914D02*
X101549735Y-75929485D01*
X101549735Y-75929485D02*
X101621164Y-75858057D01*
X101621164Y-75858057D02*
X101692592Y-75715200D01*
X101692592Y-75715200D02*
X101692592Y-75572342D01*
X101692592Y-75572342D02*
X101621164Y-75429485D01*
X101621164Y-75429485D02*
X101549735Y-75358057D01*
X101549735Y-75358057D02*
X101406878Y-75286628D01*
X101406878Y-75286628D02*
X101049735Y-75286628D01*
X101049735Y-75286628D02*
X100835449Y-75358057D01*
X99549736Y-75786628D02*
X99549736Y-76786628D01*
X100192593Y-75786628D02*
X100192593Y-76572342D01*
X100192593Y-76572342D02*
X100121164Y-76715200D01*
X100121164Y-76715200D02*
X99978307Y-76786628D01*
X99978307Y-76786628D02*
X99764021Y-76786628D01*
X99764021Y-76786628D02*
X99621164Y-76715200D01*
X99621164Y-76715200D02*
X99549736Y-76643771D01*
X98835450Y-75786628D02*
X98835450Y-77286628D01*
X98835450Y-75858057D02*
X98692593Y-75786628D01*
X98692593Y-75786628D02*
X98406878Y-75786628D01*
X98406878Y-75786628D02*
X98264021Y-75858057D01*
X98264021Y-75858057D02*
X98192593Y-75929485D01*
X98192593Y-75929485D02*
X98121164Y-76072342D01*
X98121164Y-76072342D02*
X98121164Y-76500914D01*
X98121164Y-76500914D02*
X98192593Y-76643771D01*
X98192593Y-76643771D02*
X98264021Y-76715200D01*
X98264021Y-76715200D02*
X98406878Y-76786628D01*
X98406878Y-76786628D02*
X98692593Y-76786628D01*
X98692593Y-76786628D02*
X98835450Y-76715200D01*
X97478307Y-75786628D02*
X97478307Y-77286628D01*
X97478307Y-75858057D02*
X97335450Y-75786628D01*
X97335450Y-75786628D02*
X97049735Y-75786628D01*
X97049735Y-75786628D02*
X96906878Y-75858057D01*
X96906878Y-75858057D02*
X96835450Y-75929485D01*
X96835450Y-75929485D02*
X96764021Y-76072342D01*
X96764021Y-76072342D02*
X96764021Y-76500914D01*
X96764021Y-76500914D02*
X96835450Y-76643771D01*
X96835450Y-76643771D02*
X96906878Y-76715200D01*
X96906878Y-76715200D02*
X97049735Y-76786628D01*
X97049735Y-76786628D02*
X97335450Y-76786628D01*
X97335450Y-76786628D02*
X97478307Y-76715200D01*
X95906878Y-76786628D02*
X96049735Y-76715200D01*
X96049735Y-76715200D02*
X96121164Y-76572342D01*
X96121164Y-76572342D02*
X96121164Y-75286628D01*
X95478307Y-75786628D02*
X95121164Y-76786628D01*
X94764021Y-75786628D02*
X95121164Y-76786628D01*
X95121164Y-76786628D02*
X95264021Y-77143771D01*
X95264021Y-77143771D02*
X95335450Y-77215200D01*
X95335450Y-77215200D02*
X95478307Y-77286628D01*
X93192593Y-75786628D02*
X92835450Y-76786628D01*
X92835450Y-76786628D02*
X92478307Y-75786628D01*
X92049736Y-75286628D02*
X91121164Y-75286628D01*
X91121164Y-75286628D02*
X91621164Y-75858057D01*
X91621164Y-75858057D02*
X91406879Y-75858057D01*
X91406879Y-75858057D02*
X91264022Y-75929485D01*
X91264022Y-75929485D02*
X91192593Y-76000914D01*
X91192593Y-76000914D02*
X91121164Y-76143771D01*
X91121164Y-76143771D02*
X91121164Y-76500914D01*
X91121164Y-76500914D02*
X91192593Y-76643771D01*
X91192593Y-76643771D02*
X91264022Y-76715200D01*
X91264022Y-76715200D02*
X91406879Y-76786628D01*
X91406879Y-76786628D02*
X91835450Y-76786628D01*
X91835450Y-76786628D02*
X91978307Y-76715200D01*
X91978307Y-76715200D02*
X92049736Y-76643771D01*
X90478308Y-76643771D02*
X90406879Y-76715200D01*
X90406879Y-76715200D02*
X90478308Y-76786628D01*
X90478308Y-76786628D02*
X90549736Y-76715200D01*
X90549736Y-76715200D02*
X90478308Y-76643771D01*
X90478308Y-76643771D02*
X90478308Y-76786628D01*
X88978307Y-76786628D02*
X89835450Y-76786628D01*
X89406879Y-76786628D02*
X89406879Y-75286628D01*
X89406879Y-75286628D02*
X89549736Y-75500914D01*
X89549736Y-75500914D02*
X89692593Y-75643771D01*
X89692593Y-75643771D02*
X89835450Y-75715200D01*
X109621164Y-79201628D02*
X110478307Y-79201628D01*
X110049736Y-79201628D02*
X110049736Y-77701628D01*
X110049736Y-77701628D02*
X110192593Y-77915914D01*
X110192593Y-77915914D02*
X110335450Y-78058771D01*
X110335450Y-78058771D02*
X110478307Y-78130200D01*
X108192593Y-79201628D02*
X109049736Y-79201628D01*
X108621165Y-79201628D02*
X108621165Y-77701628D01*
X108621165Y-77701628D02*
X108764022Y-77915914D01*
X108764022Y-77915914D02*
X108906879Y-78058771D01*
X108906879Y-78058771D02*
X109049736Y-78130200D01*
X106478308Y-77630200D02*
X107764022Y-79558771D01*
X106049736Y-77844485D02*
X105978308Y-77773057D01*
X105978308Y-77773057D02*
X105835451Y-77701628D01*
X105835451Y-77701628D02*
X105478308Y-77701628D01*
X105478308Y-77701628D02*
X105335451Y-77773057D01*
X105335451Y-77773057D02*
X105264022Y-77844485D01*
X105264022Y-77844485D02*
X105192593Y-77987342D01*
X105192593Y-77987342D02*
X105192593Y-78130200D01*
X105192593Y-78130200D02*
X105264022Y-78344485D01*
X105264022Y-78344485D02*
X106121165Y-79201628D01*
X106121165Y-79201628D02*
X105192593Y-79201628D01*
X104692594Y-77701628D02*
X103764022Y-77701628D01*
X103764022Y-77701628D02*
X104264022Y-78273057D01*
X104264022Y-78273057D02*
X104049737Y-78273057D01*
X104049737Y-78273057D02*
X103906880Y-78344485D01*
X103906880Y-78344485D02*
X103835451Y-78415914D01*
X103835451Y-78415914D02*
X103764022Y-78558771D01*
X103764022Y-78558771D02*
X103764022Y-78915914D01*
X103764022Y-78915914D02*
X103835451Y-79058771D01*
X103835451Y-79058771D02*
X103906880Y-79130200D01*
X103906880Y-79130200D02*
X104049737Y-79201628D01*
X104049737Y-79201628D02*
X104478308Y-79201628D01*
X104478308Y-79201628D02*
X104621165Y-79130200D01*
X104621165Y-79130200D02*
X104692594Y-79058771D01*
D11*
X82918419Y-47900466D02*
X83632704Y-47900466D01*
X83632704Y-47900466D02*
X83775561Y-47852847D01*
X83775561Y-47852847D02*
X83870800Y-47757609D01*
X83870800Y-47757609D02*
X83918419Y-47614752D01*
X83918419Y-47614752D02*
X83918419Y-47519514D01*
X82918419Y-48281419D02*
X82918419Y-48900466D01*
X82918419Y-48900466D02*
X83299371Y-48567133D01*
X83299371Y-48567133D02*
X83299371Y-48709990D01*
X83299371Y-48709990D02*
X83346990Y-48805228D01*
X83346990Y-48805228D02*
X83394609Y-48852847D01*
X83394609Y-48852847D02*
X83489847Y-48900466D01*
X83489847Y-48900466D02*
X83727942Y-48900466D01*
X83727942Y-48900466D02*
X83823180Y-48852847D01*
X83823180Y-48852847D02*
X83870800Y-48805228D01*
X83870800Y-48805228D02*
X83918419Y-48709990D01*
X83918419Y-48709990D02*
X83918419Y-48424276D01*
X83918419Y-48424276D02*
X83870800Y-48329038D01*
X83870800Y-48329038D02*
X83823180Y-48281419D01*
D12*
X84321000Y-43730000D02*
X83466000Y-43730000D01*
X80346000Y-43730000D02*
X79396000Y-43730000D01*
X84321000Y-52890000D02*
X83466000Y-52890000D01*
X80346000Y-52890000D02*
X79396000Y-52890000D01*
X79396000Y-52890000D02*
X79396000Y-43730000D01*
%LPC*%
D13*
X139332000Y-84760000D03*
X83000000Y-80000000D03*
X139400000Y-35000000D03*
X83000000Y-35000000D03*
D14*
X100622400Y-60884000D03*
X98082400Y-60884000D03*
X95542400Y-60884000D03*
X93002400Y-60884000D03*
D15*
X107812400Y-85184000D03*
X107812400Y-61384000D03*
X85812400Y-85184000D03*
X85812400Y-61384000D03*
D16*
X135940000Y-68371000D03*
D17*
X135940000Y-65831000D03*
D16*
X112953000Y-61137000D03*
X115493000Y-61137000D03*
X118033000Y-61137000D03*
X120573000Y-61137000D03*
X123113000Y-61137000D03*
X125653000Y-61137000D03*
D18*
X128193000Y-61137000D03*
D16*
X137965000Y-57900000D03*
D19*
X135425000Y-57900000D03*
D20*
X114223000Y-64312000D03*
X116763000Y-64312000D03*
X119303000Y-64312000D03*
X121843000Y-64312000D03*
X124383000Y-64312000D03*
X126923000Y-64312000D03*
X126923000Y-71932000D03*
X124383000Y-71932000D03*
X121843000Y-71932000D03*
X119303000Y-71932000D03*
X116763000Y-71932000D03*
D21*
X114223000Y-71932000D03*
D19*
X135425000Y-39600000D03*
D16*
X137965000Y-39600000D03*
D22*
X127370000Y-85725000D03*
X124370000Y-85725000D03*
D16*
X132257000Y-68371000D03*
D17*
X132257000Y-65831000D03*
D16*
X83108000Y-57200000D03*
X85648000Y-57200000D03*
D19*
X88188000Y-57200000D03*
D16*
X90728000Y-57200000D03*
X93268000Y-57200000D03*
X95808000Y-57200000D03*
X98348000Y-57200000D03*
D19*
X100888000Y-57200000D03*
D16*
X103428000Y-57200000D03*
X105968000Y-57200000D03*
X108508000Y-57200000D03*
X111048000Y-57200000D03*
D19*
X113588000Y-57200000D03*
D16*
X116128000Y-57200000D03*
X118668000Y-57200000D03*
X121208000Y-57200000D03*
X123748000Y-57200000D03*
D19*
X126288000Y-57200000D03*
D16*
X128828000Y-57200000D03*
X131368000Y-57200000D03*
X131368000Y-39420000D03*
X128828000Y-39420000D03*
D19*
X126288000Y-39420000D03*
D16*
X123748000Y-39420000D03*
X121208000Y-39420000D03*
X118668000Y-39420000D03*
X116128000Y-39420000D03*
D19*
X113588000Y-39420000D03*
D16*
X111048000Y-39420000D03*
X108508000Y-39420000D03*
X105968000Y-39420000D03*
X103428000Y-39420000D03*
D19*
X100888000Y-39420000D03*
D16*
X98348000Y-39420000D03*
X95808000Y-39420000D03*
X93268000Y-39420000D03*
X90728000Y-39420000D03*
D19*
X88188000Y-39420000D03*
D16*
X85648000Y-39420000D03*
X83108000Y-39420000D03*
D22*
X114337000Y-85758000D03*
X117337000Y-85758000D03*
D16*
X139623000Y-68371000D03*
D17*
X139623000Y-65831000D03*
D15*
X137718000Y-50977000D03*
D23*
X137718000Y-45897000D03*
D24*
X85781000Y-43990000D03*
D25*
X81956000Y-43990000D03*
D24*
X85781000Y-52630000D03*
D25*
X81956000Y-52630000D03*
D26*
X86156000Y-51410000D03*
X86156000Y-50660000D03*
D27*
X86156000Y-49560000D03*
X86156000Y-49060000D03*
X86156000Y-48060000D03*
X86156000Y-47060000D03*
D26*
X86156000Y-45960000D03*
X86156000Y-45210000D03*
X86156000Y-45210000D03*
X86156000Y-45960000D03*
D27*
X86156000Y-46560000D03*
X86156000Y-47560000D03*
X86156000Y-48560000D03*
X86156000Y-50060000D03*
D26*
X86156000Y-50660000D03*
X86156000Y-51410000D03*
D28*
X85056000Y-45310000D03*
D29*
X81956000Y-46910000D03*
X81956000Y-49710000D03*
D30*
X85056000Y-51310000D03*
%LPD*%
M02*
