M48
; DRILL file {KiCad 7.0.9-7.0.9~ubuntu22.04.1} date Wed 29 Nov 2023 04:30:19 PM CET
; FORMAT={-:-/ absolute / inch / decimal}
; #@! TF.CreationDate,2023-11-29T16:30:19+01:00
; #@! TF.GenerationSoftware,Kicad,Pcbnew,7.0.9-7.0.9~ubuntu22.04.1
; #@! TF.FileFunction,Plated,1,2,PTH
FMAT,2
INCH
; #@! TA.AperFunction,Plated,PTH,ComponentDrill
T1C0.0079
; #@! TA.AperFunction,Plated,PTH,ViaDrill
T2C0.0098
; #@! TA.AperFunction,Plated,PTH,ViaDrill
T3C0.0118
; #@! TA.AperFunction,Plated,PTH,ViaDrill
T4C0.0197
; #@! TA.AperFunction,Plated,PTH,ComponentDrill
T5C0.0236
; #@! TA.AperFunction,Plated,PTH,ComponentDrill
T6C0.0315
; #@! TA.AperFunction,Plated,PTH,ComponentDrill
T7C0.0394
; #@! TA.AperFunction,Plated,PTH,ComponentDrill
T8C0.0402
; #@! TA.AperFunction,Plated,PTH,ComponentDrill
T9C0.0598
%
G90
G05
T1
X3.8714Y-1.9248
X3.8714Y-1.9662
X3.8714Y-2.0075
X3.9127Y-1.9248
X3.9127Y-1.9662
X3.9127Y-2.0075
X3.954Y-1.9248
X3.954Y-1.9662
X3.954Y-2.0075
T2
X3.278Y-1.796
X3.278Y-2.005
X3.332Y-1.882
X3.332Y-1.922
X3.356Y-1.971
X3.357Y-1.928
X3.477Y-1.897
X3.482Y-1.927
X3.565Y-2.007
X3.661Y-1.845
X3.6745Y-1.9744
X3.83Y-2.056
X3.878Y-2.112
X3.9028Y-1.853
X3.937Y-1.807
X4.026Y-1.96
X4.0856Y-1.9707
X4.127Y-1.497
X4.132Y-1.832
X4.202Y-2.126
X4.217Y-1.497
X4.284Y-2.124
X4.322Y-2.117
X4.411Y-2.119
X4.4137Y-2.0917
X4.452Y-1.6169
X4.477Y-2.937
X4.488Y-2.1204
X4.516Y-2.118
X4.517Y-2.012
X4.582Y-1.727
X4.582Y-1.7545
X4.657Y-1.872
X4.867Y-1.802
X4.952Y-1.842
X5.167Y-1.792
X5.5255Y-2.122
T3
X3.472Y-1.797
X3.472Y-1.8198
X3.497Y-1.797
X3.497Y-1.8198
X3.832Y-1.6241
X3.832Y-1.647
X3.832Y-1.6691
X3.832Y-1.692
X3.832Y-1.7191
X3.832Y-1.742
X3.832Y-1.7641
X3.832Y-1.787
X3.857Y-1.6241
X3.857Y-1.647
X3.857Y-1.6691
X3.857Y-1.692
X3.857Y-1.7191
X3.857Y-1.742
X3.857Y-1.7641
X3.857Y-1.787
X3.951Y-1.6764
X3.951Y-1.7024
X3.977Y-1.6764
X3.977Y-1.702
X4.031Y-1.6764
X4.031Y-1.7024
X4.057Y-1.6764
X4.057Y-1.702
X4.731Y-1.8664
X4.731Y-1.8924
X4.731Y-1.9564
X4.731Y-1.9824
X4.757Y-1.8664
X4.757Y-1.892
X4.757Y-1.9564
X4.757Y-1.982
X4.967Y-2.042
X4.9987Y-2.042
X5.0337Y-2.042
X5.0637Y-2.042
X5.333Y-1.755
X5.333Y-1.78
X5.333Y-1.806
X5.333Y-1.834
X5.334Y-1.861
T4
X3.3522Y-1.824
X3.437Y-1.817
X3.4393Y-1.9843
X3.449Y-1.735
X3.462Y-2.022
X3.631Y-1.993
X3.777Y-1.924
X4.137Y-2.092
X4.2443Y-1.9441
X4.3293Y-1.9452
X5.042Y-1.732
X5.35Y-2.748
X5.351Y-2.534
T6
X3.6615Y-2.397
X3.7615Y-2.397
X3.8615Y-2.397
X3.9615Y-2.397
X4.497Y-2.532
X4.497Y-2.832
X4.597Y-2.532
X4.597Y-2.832
X4.697Y-2.532
X4.697Y-2.832
X4.797Y-2.532
X4.797Y-2.832
X4.897Y-2.532
X4.897Y-2.832
X4.997Y-2.532
X4.997Y-2.832
T7
X4.447Y-2.407
X4.547Y-2.407
X4.647Y-2.407
X4.747Y-2.407
X4.847Y-2.407
X4.947Y-2.407
X5.047Y-2.407
X5.207Y-2.5918
X5.207Y-2.6918
X5.3317Y-1.5591
X5.3317Y-2.2795
X5.352Y-2.5918
X5.352Y-2.6918
X5.4317Y-1.5591
X5.4317Y-2.2795
X5.497Y-2.5918
X5.497Y-2.6918
T8
X3.272Y-1.552
X3.272Y-2.252
X3.372Y-1.552
X3.372Y-2.252
X3.472Y-1.552
X3.472Y-2.252
X3.572Y-1.552
X3.572Y-2.252
X3.672Y-1.552
X3.672Y-2.252
X3.772Y-1.552
X3.772Y-2.252
X3.872Y-1.552
X3.872Y-2.252
X3.972Y-1.552
X3.972Y-2.252
X4.072Y-1.552
X4.072Y-2.252
X4.172Y-1.552
X4.172Y-2.252
X4.272Y-1.552
X4.272Y-2.252
X4.372Y-1.552
X4.372Y-2.252
X4.472Y-1.552
X4.472Y-2.252
X4.572Y-1.552
X4.572Y-2.252
X4.672Y-1.552
X4.672Y-2.252
X4.772Y-1.552
X4.772Y-2.252
X4.872Y-1.552
X4.872Y-2.252
X4.972Y-1.552
X4.972Y-2.252
X5.072Y-1.552
X5.072Y-2.252
X5.172Y-1.552
X5.172Y-2.252
T9
X5.422Y-1.807
X5.422Y-2.007
T5
G00X3.201Y-1.7319
M15
G01X3.2522Y-1.7319
M16
G05
G00X3.201Y-2.072
M15
G01X3.2522Y-2.072
M16
G05
G00X3.3575Y-1.7319
M15
G01X3.3969Y-1.7319
M16
G05
G00X3.3575Y-2.072
M15
G01X3.3969Y-2.072
M16
G05
T0
M30
