%TF.GenerationSoftware,KiCad,Pcbnew,7.0.9-7.0.9~ubuntu22.04.1*%
%TF.CreationDate,2023-11-29T16:30:29+01:00*%
%TF.ProjectId,PD-LabSupply,50442d4c-6162-4537-9570-706c792e6b69,3.1*%
%TF.SameCoordinates,Original*%
%TF.FileFunction,Paste,Top*%
%TF.FilePolarity,Positive*%
%FSLAX46Y46*%
G04 Gerber Fmt 4.6, Leading zero omitted, Abs format (unit mm)*
G04 Created by KiCad (PCBNEW 7.0.9-7.0.9~ubuntu22.04.1) date 2023-11-29 16:30:29*
%MOMM*%
%LPD*%
G01*
G04 APERTURE LIST*
G04 Aperture macros list*
%AMRoundRect*
0 Rectangle with rounded corners*
0 $1 Rounding radius*
0 $2 $3 $4 $5 $6 $7 $8 $9 X,Y pos of 4 corners*
0 Add a 4 corners polygon primitive as box body*
4,1,4,$2,$3,$4,$5,$6,$7,$8,$9,$2,$3,0*
0 Add four circle primitives for the rounded corners*
1,1,$1+$1,$2,$3*
1,1,$1+$1,$4,$5*
1,1,$1+$1,$6,$7*
1,1,$1+$1,$8,$9*
0 Add four rect primitives between the rounded corners*
20,1,$1+$1,$2,$3,$4,$5,0*
20,1,$1+$1,$4,$5,$6,$7,0*
20,1,$1+$1,$6,$7,$8,$9,0*
20,1,$1+$1,$8,$9,$2,$3,0*%
G04 Aperture macros list end*
%ADD10RoundRect,0.250000X-0.475000X0.250000X-0.475000X-0.250000X0.475000X-0.250000X0.475000X0.250000X0*%
%ADD11R,1.500000X0.900000*%
%ADD12R,1.200000X0.900000*%
%ADD13RoundRect,0.130000X0.470000X0.195000X-0.470000X0.195000X-0.470000X-0.195000X0.470000X-0.195000X0*%
%ADD14RoundRect,0.250000X0.450000X-0.262500X0.450000X0.262500X-0.450000X0.262500X-0.450000X-0.262500X0*%
%ADD15RoundRect,0.250000X-0.262500X-0.450000X0.262500X-0.450000X0.262500X0.450000X-0.262500X0.450000X0*%
%ADD16RoundRect,0.150000X-0.587500X-0.150000X0.587500X-0.150000X0.587500X0.150000X-0.587500X0.150000X0*%
%ADD17RoundRect,0.250000X0.475000X-0.250000X0.475000X0.250000X-0.475000X0.250000X-0.475000X-0.250000X0*%
%ADD18RoundRect,0.250000X0.325000X0.650000X-0.325000X0.650000X-0.325000X-0.650000X0.325000X-0.650000X0*%
%ADD19RoundRect,0.140000X-1.810000X0.560000X-1.810000X-0.560000X1.810000X-0.560000X1.810000X0.560000X0*%
%ADD20RoundRect,0.250000X-0.250000X-0.475000X0.250000X-0.475000X0.250000X0.475000X-0.250000X0.475000X0*%
%ADD21RoundRect,0.150000X-0.825000X-0.150000X0.825000X-0.150000X0.825000X0.150000X-0.825000X0.150000X0*%
%ADD22RoundRect,0.250000X0.250000X0.475000X-0.250000X0.475000X-0.250000X-0.475000X0.250000X-0.475000X0*%
%ADD23RoundRect,0.062500X-0.062500X-0.375000X0.062500X-0.375000X0.062500X0.375000X-0.062500X0.375000X0*%
%ADD24RoundRect,0.062500X-0.375000X-0.062500X0.375000X-0.062500X0.375000X0.062500X-0.375000X0.062500X0*%
%ADD25RoundRect,0.250000X-0.315000X-0.315000X0.315000X-0.315000X0.315000X0.315000X-0.315000X0.315000X0*%
%ADD26RoundRect,0.250000X-0.450000X0.262500X-0.450000X-0.262500X0.450000X-0.262500X0.450000X0.262500X0*%
%ADD27R,0.700000X1.500000*%
%ADD28R,1.000000X0.800000*%
%ADD29RoundRect,0.250000X0.262500X0.450000X-0.262500X0.450000X-0.262500X-0.450000X0.262500X-0.450000X0*%
%ADD30R,1.600000X1.400000*%
%ADD31RoundRect,0.150000X0.150000X-0.825000X0.150000X0.825000X-0.150000X0.825000X-0.150000X-0.825000X0*%
%ADD32O,2.500000X1.930000*%
G04 APERTURE END LIST*
D10*
X103174000Y-53070000D03*
X103174000Y-51170000D03*
D11*
X117435000Y-74600000D03*
X117435000Y-77900000D03*
X112535000Y-77900000D03*
X112535000Y-74600000D03*
D12*
X118541000Y-53389000D03*
X118541000Y-50089000D03*
D10*
X111048000Y-49412400D03*
X111048000Y-47512400D03*
D13*
X89515500Y-49260000D03*
X89515500Y-48310000D03*
X89515500Y-47360000D03*
X91915500Y-47360000D03*
X91915500Y-48310000D03*
X91915500Y-49260000D03*
D14*
X124129000Y-51080500D03*
X124129000Y-52905500D03*
D15*
X122501500Y-42087000D03*
X120676500Y-42087000D03*
D10*
X113080000Y-43799000D03*
X113080000Y-41899000D03*
X108889000Y-49412400D03*
X108889000Y-47512400D03*
D16*
X122653500Y-44881000D03*
X120778500Y-45831000D03*
X120778500Y-43931000D03*
D17*
X89458000Y-41822800D03*
X89458000Y-43722800D03*
D18*
X96111000Y-42214000D03*
X99061000Y-42214000D03*
D19*
X127558000Y-52985000D03*
X127558000Y-49985000D03*
D20*
X131175000Y-44246000D03*
X129275000Y-44246000D03*
D21*
X109713000Y-41960000D03*
X109713000Y-43230000D03*
X109713000Y-44500000D03*
X109713000Y-45770000D03*
X104763000Y-45770000D03*
X104763000Y-44500000D03*
X104763000Y-43230000D03*
X104763000Y-41960000D03*
D20*
X131175000Y-42087000D03*
X129275000Y-42087000D03*
D22*
X99328400Y-53644000D03*
X101228400Y-53644000D03*
D13*
X128771000Y-48183000D03*
X128771000Y-47233000D03*
X128771000Y-46283000D03*
X131171000Y-46283000D03*
X131171000Y-47233000D03*
X131171000Y-48183000D03*
D23*
X98132300Y-48003500D03*
X98632300Y-48003500D03*
X99132300Y-48003500D03*
X99632300Y-48003500D03*
X100132300Y-48003500D03*
X100632300Y-48003500D03*
D24*
X101319800Y-48691000D03*
X101319800Y-49191000D03*
X101319800Y-49691000D03*
X101319800Y-50191000D03*
X101319800Y-50691000D03*
X101319800Y-51191000D03*
D23*
X100632300Y-51878500D03*
X100132300Y-51878500D03*
X99632300Y-51878500D03*
X99132300Y-51878500D03*
X98632300Y-51878500D03*
X98132300Y-51878500D03*
D24*
X97444800Y-51191000D03*
X97444800Y-50691000D03*
X97444800Y-50191000D03*
X97444800Y-49691000D03*
X97444800Y-49191000D03*
X97444800Y-48691000D03*
D25*
X100032300Y-50591000D03*
X100032300Y-49291000D03*
X98732300Y-50591000D03*
X98732300Y-49291000D03*
D26*
X106730000Y-52929000D03*
X106730000Y-51104000D03*
D10*
X106730000Y-49412400D03*
X106730000Y-47512400D03*
D20*
X91830400Y-54406000D03*
X89930400Y-54406000D03*
D10*
X113207000Y-49387000D03*
X113207000Y-47487000D03*
D26*
X108812800Y-52930900D03*
X108812800Y-51105900D03*
D18*
X96111000Y-44627000D03*
X99061000Y-44627000D03*
D27*
X128120000Y-83965000D03*
X126620000Y-83965000D03*
X123620000Y-83965000D03*
D28*
X129520000Y-86825000D03*
X129520000Y-84615000D03*
X122220000Y-86825000D03*
X122220000Y-84615000D03*
D26*
X126796000Y-45793500D03*
X126796000Y-43968500D03*
D29*
X124105500Y-42087000D03*
X125930500Y-42087000D03*
D20*
X132699000Y-52501000D03*
X130799000Y-52501000D03*
D15*
X91783400Y-52374000D03*
X89958400Y-52374000D03*
D22*
X130799000Y-50342000D03*
X132699000Y-50342000D03*
D30*
X139667000Y-74956000D03*
X132467000Y-74956000D03*
X139667000Y-71956000D03*
X132467000Y-71956000D03*
D31*
X115112000Y-42406000D03*
X116382000Y-42406000D03*
X117652000Y-42406000D03*
X118922000Y-42406000D03*
X118922000Y-47356000D03*
X117652000Y-47356000D03*
X116382000Y-47356000D03*
X115112000Y-47356000D03*
D14*
X94182400Y-49175500D03*
X94182400Y-51000500D03*
D29*
X100737500Y-45897000D03*
X102562500Y-45897000D03*
D14*
X124764000Y-43968500D03*
X124764000Y-45793500D03*
D32*
X83158000Y-49326000D03*
X83158000Y-47294000D03*
D28*
X112187000Y-84648000D03*
X112187000Y-86858000D03*
X119487000Y-84648000D03*
X119487000Y-86858000D03*
D27*
X113587000Y-83998000D03*
X116587000Y-83998000D03*
X118087000Y-83998000D03*
D20*
X104886000Y-47929000D03*
X102986000Y-47929000D03*
D26*
X94182400Y-47495300D03*
X94182400Y-45670300D03*
D30*
X132467000Y-77672000D03*
X139667000Y-77672000D03*
X132467000Y-80672000D03*
X139667000Y-80672000D03*
D29*
X123978500Y-47929000D03*
X125803500Y-47929000D03*
M02*
