%TF.GenerationSoftware,KiCad,Pcbnew,7.0.9-7.0.9~ubuntu22.04.1*%
%TF.CreationDate,2023-12-10T19:38:53+01:00*%
%TF.ProjectId,PD-LabSupply,50442d4c-6162-4537-9570-706c792e6b69,3.1*%
%TF.SameCoordinates,Original*%
%TF.FileFunction,Paste,Top*%
%TF.FilePolarity,Positive*%
%FSLAX46Y46*%
G04 Gerber Fmt 4.6, Leading zero omitted, Abs format (unit mm)*
G04 Created by KiCad (PCBNEW 7.0.9-7.0.9~ubuntu22.04.1) date 2023-12-10 19:38:53*
%MOMM*%
%LPD*%
G01*
G04 APERTURE LIST*
G04 Aperture macros list*
%AMRoundRect*
0 Rectangle with rounded corners*
0 $1 Rounding radius*
0 $2 $3 $4 $5 $6 $7 $8 $9 X,Y pos of 4 corners*
0 Add a 4 corners polygon primitive as box body*
4,1,4,$2,$3,$4,$5,$6,$7,$8,$9,$2,$3,0*
0 Add four circle primitives for the rounded corners*
1,1,$1+$1,$2,$3*
1,1,$1+$1,$4,$5*
1,1,$1+$1,$6,$7*
1,1,$1+$1,$8,$9*
0 Add four rect primitives between the rounded corners*
20,1,$1+$1,$2,$3,$4,$5,0*
20,1,$1+$1,$4,$5,$6,$7,0*
20,1,$1+$1,$6,$7,$8,$9,0*
20,1,$1+$1,$8,$9,$2,$3,0*%
G04 Aperture macros list end*
%ADD10R,1.200000X1.400000*%
%ADD11R,1.050000X0.650000*%
%ADD12RoundRect,0.250000X0.250000X0.475000X-0.250000X0.475000X-0.250000X-0.475000X0.250000X-0.475000X0*%
%ADD13RoundRect,0.250000X-0.250000X-0.475000X0.250000X-0.475000X0.250000X0.475000X-0.250000X0.475000X0*%
%ADD14RoundRect,0.250000X-0.262500X-0.450000X0.262500X-0.450000X0.262500X0.450000X-0.262500X0.450000X0*%
%ADD15RoundRect,0.250000X-0.450000X0.262500X-0.450000X-0.262500X0.450000X-0.262500X0.450000X0.262500X0*%
%ADD16RoundRect,0.250000X0.475000X-0.250000X0.475000X0.250000X-0.475000X0.250000X-0.475000X-0.250000X0*%
%ADD17R,1.200000X0.900000*%
%ADD18RoundRect,0.250000X-0.475000X0.250000X-0.475000X-0.250000X0.475000X-0.250000X0.475000X0.250000X0*%
%ADD19RoundRect,0.130000X0.470000X0.195000X-0.470000X0.195000X-0.470000X-0.195000X0.470000X-0.195000X0*%
%ADD20RoundRect,0.150000X0.150000X-0.825000X0.150000X0.825000X-0.150000X0.825000X-0.150000X-0.825000X0*%
%ADD21RoundRect,0.250000X0.450000X-0.262500X0.450000X0.262500X-0.450000X0.262500X-0.450000X-0.262500X0*%
%ADD22RoundRect,0.250000X0.312500X0.625000X-0.312500X0.625000X-0.312500X-0.625000X0.312500X-0.625000X0*%
%ADD23R,1.500000X4.200000*%
%ADD24RoundRect,0.250000X0.262500X0.450000X-0.262500X0.450000X-0.262500X-0.450000X0.262500X-0.450000X0*%
%ADD25RoundRect,0.130000X-0.195000X0.470000X-0.195000X-0.470000X0.195000X-0.470000X0.195000X0.470000X0*%
%ADD26RoundRect,0.250000X0.315000X0.315000X-0.315000X0.315000X-0.315000X-0.315000X0.315000X-0.315000X0*%
%ADD27RoundRect,0.062500X0.375000X0.062500X-0.375000X0.062500X-0.375000X-0.062500X0.375000X-0.062500X0*%
%ADD28RoundRect,0.062500X0.062500X0.375000X-0.062500X0.375000X-0.062500X-0.375000X0.062500X-0.375000X0*%
%ADD29R,0.600000X1.550000*%
%ADD30RoundRect,0.249999X0.395001X-0.395001X0.395001X0.395001X-0.395001X0.395001X-0.395001X-0.395001X0*%
%ADD31RoundRect,0.050000X0.050000X-0.387500X0.050000X0.387500X-0.050000X0.387500X-0.050000X-0.387500X0*%
%ADD32RoundRect,0.050000X0.387500X-0.050000X0.387500X0.050000X-0.387500X0.050000X-0.387500X-0.050000X0*%
%ADD33R,0.540000X0.420000*%
%ADD34R,1.710000X2.370000*%
%ADD35R,0.700000X0.420000*%
%ADD36R,0.508000X1.003300*%
G04 APERTURE END LIST*
D10*
X126974000Y-48903000D03*
X126974000Y-46703000D03*
X125274000Y-46703000D03*
X125274000Y-48903000D03*
D11*
X92850000Y-56752000D03*
X88700000Y-56752000D03*
X92850000Y-54602000D03*
X88700000Y-54602000D03*
D12*
X106373000Y-39929000D03*
X104473000Y-39929000D03*
D13*
X97413000Y-41231500D03*
X99313000Y-41231500D03*
D14*
X104510500Y-48057000D03*
X106335500Y-48057000D03*
D15*
X97092500Y-54574000D03*
X97092500Y-56399000D03*
D12*
X106373000Y-43993000D03*
X104473000Y-43993000D03*
D16*
X111614000Y-43272000D03*
X111614000Y-41372000D03*
D17*
X134506000Y-41708000D03*
X134506000Y-45008000D03*
D18*
X113646000Y-37816000D03*
X113646000Y-39716000D03*
D19*
X93034000Y-47102000D03*
X93034000Y-46152000D03*
X93034000Y-45202000D03*
X90634000Y-45202000D03*
X90634000Y-46152000D03*
X90634000Y-47102000D03*
D15*
X127292400Y-54002500D03*
X127292400Y-55827500D03*
D12*
X106373000Y-52121000D03*
X104473000Y-52121000D03*
X106373000Y-50089000D03*
X104473000Y-50089000D03*
D20*
X99041000Y-56038000D03*
X100311000Y-56038000D03*
X101581000Y-56038000D03*
X102851000Y-56038000D03*
X102851000Y-51088000D03*
X101581000Y-51088000D03*
X100311000Y-51088000D03*
X99041000Y-51088000D03*
D15*
X123298000Y-49845500D03*
X123298000Y-51670500D03*
D21*
X123298000Y-48241500D03*
X123298000Y-46416500D03*
D12*
X126287812Y-33989136D03*
X124387812Y-33989136D03*
D18*
X111614000Y-37816000D03*
X111614000Y-39716000D03*
D12*
X106373000Y-41961000D03*
X104473000Y-41961000D03*
D18*
X95549000Y-39741000D03*
X95549000Y-41641000D03*
D22*
X102821500Y-36500000D03*
X99896500Y-36500000D03*
D23*
X131820400Y-58115400D03*
X135420400Y-58115400D03*
D16*
X125844600Y-59609000D03*
X125844600Y-57709000D03*
X123685600Y-59609000D03*
X123685600Y-57709000D03*
D24*
X106335500Y-46025000D03*
X104510500Y-46025000D03*
D18*
X117945200Y-55971600D03*
X117945200Y-57871600D03*
D12*
X102869000Y-41231500D03*
X100969000Y-41231500D03*
D25*
X129715600Y-57398000D03*
X128765600Y-57398000D03*
X127815600Y-57398000D03*
X127815600Y-59798000D03*
X128765600Y-59798000D03*
X129715600Y-59798000D03*
D26*
X100325500Y-45679000D03*
X100325500Y-44379000D03*
X99025500Y-45679000D03*
X99025500Y-44379000D03*
D27*
X101613000Y-46279000D03*
X101613000Y-45779000D03*
X101613000Y-45279000D03*
X101613000Y-44779000D03*
X101613000Y-44279000D03*
X101613000Y-43779000D03*
D28*
X100925500Y-43091500D03*
X100425500Y-43091500D03*
X99925500Y-43091500D03*
X99425500Y-43091500D03*
X98925500Y-43091500D03*
X98425500Y-43091500D03*
D27*
X97738000Y-43779000D03*
X97738000Y-44279000D03*
X97738000Y-44779000D03*
X97738000Y-45279000D03*
X97738000Y-45779000D03*
X97738000Y-46279000D03*
D28*
X98425500Y-46966500D03*
X98925500Y-46966500D03*
X99425500Y-46966500D03*
X99925500Y-46966500D03*
X100425500Y-46966500D03*
X100925500Y-46966500D03*
D21*
X111265000Y-57859500D03*
X111265000Y-56034500D03*
D18*
X109582000Y-37816000D03*
X109582000Y-39716000D03*
D13*
X89410800Y-52425800D03*
X91310800Y-52425800D03*
D18*
X121266000Y-46379000D03*
X121266000Y-48279000D03*
D14*
X119775900Y-59817200D03*
X121600900Y-59817200D03*
D18*
X113830400Y-55971600D03*
X113830400Y-57871600D03*
D13*
X128984000Y-41560000D03*
X130884000Y-41560000D03*
D16*
X109582000Y-43272000D03*
X109582000Y-41372000D03*
D21*
X109233000Y-57859500D03*
X109233000Y-56034500D03*
D16*
X121266000Y-44723000D03*
X121266000Y-42823000D03*
D12*
X106373000Y-54153000D03*
X104473000Y-54153000D03*
D22*
X102821500Y-38913000D03*
X99896500Y-38913000D03*
D13*
X135969000Y-54280000D03*
X137869000Y-54280000D03*
D14*
X89448300Y-50393800D03*
X91273300Y-50393800D03*
D16*
X129578400Y-55854800D03*
X129578400Y-53954800D03*
D29*
X128886000Y-39434000D03*
X130156000Y-39434000D03*
X131426000Y-39434000D03*
X132696000Y-39434000D03*
X132696000Y-34034000D03*
X131426000Y-34034000D03*
X130156000Y-34034000D03*
X128886000Y-34034000D03*
D21*
X94755000Y-48866000D03*
X94755000Y-47041000D03*
D14*
X100446500Y-34087000D03*
X102271500Y-34087000D03*
D30*
X113218500Y-49945000D03*
X114818500Y-49945000D03*
X113218500Y-48345000D03*
X114818500Y-48345000D03*
D31*
X111418500Y-52582500D03*
X111818500Y-52582500D03*
X112218500Y-52582500D03*
X112618500Y-52582500D03*
X113018500Y-52582500D03*
X113418500Y-52582500D03*
X113818500Y-52582500D03*
X114218500Y-52582500D03*
X114618500Y-52582500D03*
X115018500Y-52582500D03*
X115418500Y-52582500D03*
X115818500Y-52582500D03*
X116218500Y-52582500D03*
X116618500Y-52582500D03*
D32*
X117456000Y-51745000D03*
X117456000Y-51345000D03*
X117456000Y-50945000D03*
X117456000Y-50545000D03*
X117456000Y-50145000D03*
X117456000Y-49745000D03*
X117456000Y-49345000D03*
X117456000Y-48945000D03*
X117456000Y-48545000D03*
X117456000Y-48145000D03*
X117456000Y-47745000D03*
X117456000Y-47345000D03*
X117456000Y-46945000D03*
X117456000Y-46545000D03*
D31*
X116618500Y-45707500D03*
X116218500Y-45707500D03*
X115818500Y-45707500D03*
X115418500Y-45707500D03*
X115018500Y-45707500D03*
X114618500Y-45707500D03*
X114218500Y-45707500D03*
X113818500Y-45707500D03*
X113418500Y-45707500D03*
X113018500Y-45707500D03*
X112618500Y-45707500D03*
X112218500Y-45707500D03*
X111818500Y-45707500D03*
X111418500Y-45707500D03*
D32*
X110581000Y-46545000D03*
X110581000Y-46945000D03*
X110581000Y-47345000D03*
X110581000Y-47745000D03*
X110581000Y-48145000D03*
X110581000Y-48545000D03*
X110581000Y-48945000D03*
X110581000Y-49345000D03*
X110581000Y-49745000D03*
X110581000Y-50145000D03*
X110581000Y-50545000D03*
X110581000Y-50945000D03*
X110581000Y-51345000D03*
X110581000Y-51745000D03*
D13*
X119763800Y-53568800D03*
X121663800Y-53568800D03*
D15*
X95060500Y-54574000D03*
X95060500Y-56399000D03*
D21*
X128918000Y-45286500D03*
X128918000Y-43461500D03*
D12*
X98854600Y-48717400D03*
X96954600Y-48717400D03*
D33*
X125974400Y-36820400D03*
X125974400Y-37470400D03*
D34*
X124849400Y-37795400D03*
D33*
X125974400Y-38120400D03*
X125974400Y-38770400D03*
D35*
X122894400Y-38770400D03*
X122894400Y-36820400D03*
X122894400Y-37470400D03*
X122894400Y-38120400D03*
D15*
X94755000Y-43588500D03*
X94755000Y-45413500D03*
D13*
X125174000Y-44628000D03*
X127074000Y-44628000D03*
D16*
X97092500Y-52880500D03*
X97092500Y-50980500D03*
D18*
X115862400Y-55971600D03*
X115862400Y-57871600D03*
D24*
X125283900Y-55931000D03*
X123458900Y-55931000D03*
D16*
X128918000Y-48880000D03*
X128918000Y-46980000D03*
D36*
X119839999Y-58070950D03*
X120790000Y-58070950D03*
X121740001Y-58070950D03*
X121740001Y-55365850D03*
X119839999Y-55365850D03*
M02*
