%TF.GenerationSoftware,KiCad,Pcbnew,7.0.9-7.0.9~ubuntu22.04.1*%
%TF.CreationDate,2023-12-10T19:38:54+01:00*%
%TF.ProjectId,PD-LabSupply,50442d4c-6162-4537-9570-706c792e6b69,3.1*%
%TF.SameCoordinates,Original*%
%TF.FileFunction,Soldermask,Bot*%
%TF.FilePolarity,Negative*%
%FSLAX46Y46*%
G04 Gerber Fmt 4.6, Leading zero omitted, Abs format (unit mm)*
G04 Created by KiCad (PCBNEW 7.0.9-7.0.9~ubuntu22.04.1) date 2023-12-10 19:38:54*
%MOMM*%
%LPD*%
G01*
G04 APERTURE LIST*
G04 APERTURE END LIST*
G36*
X111283788Y-58089328D02*
G01*
X111306497Y-58104503D01*
X111321672Y-58127212D01*
X111327000Y-58154000D01*
X111327000Y-60054000D01*
X111321672Y-60080788D01*
X111306497Y-60103497D01*
X111283788Y-60118672D01*
X111257000Y-60124000D01*
X110257000Y-60124000D01*
X110230212Y-60118672D01*
X110207503Y-60103497D01*
X110192328Y-60080788D01*
X110187000Y-60054000D01*
X110187000Y-58154000D01*
X110192328Y-58127212D01*
X110207503Y-58104503D01*
X110230212Y-58089328D01*
X110257000Y-58084000D01*
X111257000Y-58084000D01*
X111283788Y-58089328D01*
G37*
G36*
X116363788Y-58089328D02*
G01*
X116386497Y-58104503D01*
X116401672Y-58127212D01*
X116407000Y-58154000D01*
X116407000Y-60054000D01*
X116401672Y-60080788D01*
X116386497Y-60103497D01*
X116363788Y-60118672D01*
X116337000Y-60124000D01*
X115337000Y-60124000D01*
X115310212Y-60118672D01*
X115287503Y-60103497D01*
X115272328Y-60080788D01*
X115267000Y-60054000D01*
X115267000Y-58154000D01*
X115272328Y-58127212D01*
X115287503Y-58104503D01*
X115310212Y-58089328D01*
X115337000Y-58084000D01*
X116337000Y-58084000D01*
X116363788Y-58089328D01*
G37*
G36*
X121443788Y-58089328D02*
G01*
X121466497Y-58104503D01*
X121481672Y-58127212D01*
X121487000Y-58154000D01*
X121487000Y-60054000D01*
X121481672Y-60080788D01*
X121466497Y-60103497D01*
X121443788Y-60118672D01*
X121417000Y-60124000D01*
X120417000Y-60124000D01*
X120390212Y-60118672D01*
X120367503Y-60103497D01*
X120352328Y-60080788D01*
X120347000Y-60054000D01*
X120347000Y-58154000D01*
X120352328Y-58127212D01*
X120367503Y-58104503D01*
X120390212Y-58089328D01*
X120417000Y-58084000D01*
X121417000Y-58084000D01*
X121443788Y-58089328D01*
G37*
G36*
X126523788Y-58089328D02*
G01*
X126546497Y-58104503D01*
X126561672Y-58127212D01*
X126567000Y-58154000D01*
X126567000Y-60054000D01*
X126561672Y-60080788D01*
X126546497Y-60103497D01*
X126523788Y-60118672D01*
X126497000Y-60124000D01*
X125497000Y-60124000D01*
X125470212Y-60118672D01*
X125447503Y-60103497D01*
X125432328Y-60080788D01*
X125427000Y-60054000D01*
X125427000Y-58154000D01*
X125432328Y-58127212D01*
X125447503Y-58104503D01*
X125470212Y-58089328D01*
X125497000Y-58084000D01*
X126497000Y-58084000D01*
X126523788Y-58089328D01*
G37*
G36*
X82750228Y-56956740D02*
G01*
X82807299Y-56956740D01*
X82869663Y-56966139D01*
X82935602Y-56971329D01*
X82988746Y-56984087D01*
X83039278Y-56991704D01*
X83105310Y-57012072D01*
X83175157Y-57028841D01*
X83220318Y-57047547D01*
X83263460Y-57060855D01*
X83331196Y-57093474D01*
X83402765Y-57123120D01*
X83439502Y-57145632D01*
X83474825Y-57162643D01*
X83542014Y-57208451D01*
X83612823Y-57251843D01*
X83641174Y-57276057D01*
X83668662Y-57294798D01*
X83732837Y-57354344D01*
X83800158Y-57411842D01*
X83820604Y-57435782D01*
X83840631Y-57454364D01*
X83899180Y-57527782D01*
X83960157Y-57599177D01*
X83973566Y-57621060D01*
X83986907Y-57637788D01*
X84037221Y-57724935D01*
X84088880Y-57809235D01*
X84096467Y-57827553D01*
X84104204Y-57840953D01*
X84143662Y-57941490D01*
X84183159Y-58036843D01*
X84186424Y-58050446D01*
X84189913Y-58059334D01*
X84216033Y-58173774D01*
X84240671Y-58276398D01*
X84241310Y-58284519D01*
X84242118Y-58288059D01*
X84252658Y-58428718D01*
X84260000Y-58522000D01*
X84252658Y-58615289D01*
X84242118Y-58755940D01*
X84241310Y-58759478D01*
X84240671Y-58767602D01*
X84216028Y-58870245D01*
X84189913Y-58984665D01*
X84186425Y-58993550D01*
X84183159Y-59007157D01*
X84143654Y-59102527D01*
X84104204Y-59203046D01*
X84096469Y-59216442D01*
X84088880Y-59234765D01*
X84037211Y-59319081D01*
X83986907Y-59406211D01*
X83973569Y-59422935D01*
X83960157Y-59444823D01*
X83899168Y-59516231D01*
X83840631Y-59589635D01*
X83820608Y-59608213D01*
X83800158Y-59632158D01*
X83732823Y-59689666D01*
X83668662Y-59749201D01*
X83641180Y-59767937D01*
X83612823Y-59792157D01*
X83541999Y-59835557D01*
X83474825Y-59881356D01*
X83439509Y-59898362D01*
X83402765Y-59920880D01*
X83331181Y-59950531D01*
X83263460Y-59983144D01*
X83220327Y-59996448D01*
X83175157Y-60015159D01*
X83105296Y-60031931D01*
X83039278Y-60052295D01*
X82988755Y-60059910D01*
X82935602Y-60072671D01*
X82869659Y-60077860D01*
X82807299Y-60087260D01*
X82750228Y-60087260D01*
X82690000Y-60092000D01*
X82629772Y-60087260D01*
X82572701Y-60087260D01*
X82510339Y-60077860D01*
X82444398Y-60072671D01*
X82391245Y-60059910D01*
X82340721Y-60052295D01*
X82274699Y-60031929D01*
X82204843Y-60015159D01*
X82159675Y-59996449D01*
X82116539Y-59983144D01*
X82048813Y-59950529D01*
X81977235Y-59920880D01*
X81940490Y-59898363D01*
X81905175Y-59881356D01*
X81837996Y-59835555D01*
X81767177Y-59792157D01*
X81738822Y-59767940D01*
X81711337Y-59749201D01*
X81647163Y-59689655D01*
X81579842Y-59632158D01*
X81559394Y-59608217D01*
X81539368Y-59589635D01*
X81480816Y-59516214D01*
X81419843Y-59444823D01*
X81406433Y-59422941D01*
X81393092Y-59406211D01*
X81342771Y-59319052D01*
X81291120Y-59234765D01*
X81283533Y-59216449D01*
X81275795Y-59203046D01*
X81236325Y-59102481D01*
X81196841Y-59007157D01*
X81193576Y-58993557D01*
X81190086Y-58984665D01*
X81163951Y-58870160D01*
X81139329Y-58767602D01*
X81138690Y-58759485D01*
X81137881Y-58755940D01*
X81127321Y-58615023D01*
X81120000Y-58522000D01*
X81127320Y-58428984D01*
X81137881Y-58288059D01*
X81138690Y-58284513D01*
X81139329Y-58276398D01*
X81163946Y-58173858D01*
X81190086Y-58059334D01*
X81193576Y-58050440D01*
X81196841Y-58036843D01*
X81236318Y-57941536D01*
X81275795Y-57840953D01*
X81283534Y-57827547D01*
X81291120Y-57809235D01*
X81342761Y-57724963D01*
X81393092Y-57637788D01*
X81406436Y-57621054D01*
X81419843Y-57599177D01*
X81480804Y-57527799D01*
X81539368Y-57454364D01*
X81559399Y-57435777D01*
X81579842Y-57411842D01*
X81647150Y-57354355D01*
X81711337Y-57294798D01*
X81738828Y-57276054D01*
X81767177Y-57251843D01*
X81837982Y-57208453D01*
X81905175Y-57162643D01*
X81940498Y-57145631D01*
X81977235Y-57123120D01*
X82048799Y-57093476D01*
X82116539Y-57060855D01*
X82159684Y-57047546D01*
X82204843Y-57028841D01*
X82274684Y-57012073D01*
X82340721Y-56991704D01*
X82391254Y-56984087D01*
X82444398Y-56971329D01*
X82510335Y-56966139D01*
X82572701Y-56956740D01*
X82629772Y-56956740D01*
X82690000Y-56952000D01*
X82750228Y-56956740D01*
G37*
G36*
X106250228Y-56956740D02*
G01*
X106307299Y-56956740D01*
X106369663Y-56966139D01*
X106435602Y-56971329D01*
X106488746Y-56984087D01*
X106539278Y-56991704D01*
X106605310Y-57012072D01*
X106675157Y-57028841D01*
X106720318Y-57047547D01*
X106763460Y-57060855D01*
X106831196Y-57093474D01*
X106902765Y-57123120D01*
X106939502Y-57145632D01*
X106974825Y-57162643D01*
X107042014Y-57208451D01*
X107112823Y-57251843D01*
X107141174Y-57276057D01*
X107168662Y-57294798D01*
X107232837Y-57354344D01*
X107300158Y-57411842D01*
X107320604Y-57435782D01*
X107340631Y-57454364D01*
X107399180Y-57527782D01*
X107460157Y-57599177D01*
X107473566Y-57621060D01*
X107486907Y-57637788D01*
X107537221Y-57724935D01*
X107588880Y-57809235D01*
X107596467Y-57827553D01*
X107604204Y-57840953D01*
X107643662Y-57941490D01*
X107683159Y-58036843D01*
X107686424Y-58050446D01*
X107689913Y-58059334D01*
X107716033Y-58173774D01*
X107740671Y-58276398D01*
X107741310Y-58284519D01*
X107742118Y-58288059D01*
X107752658Y-58428718D01*
X107760000Y-58522000D01*
X107752658Y-58615289D01*
X107742118Y-58755940D01*
X107741310Y-58759478D01*
X107740671Y-58767602D01*
X107716028Y-58870245D01*
X107689913Y-58984665D01*
X107686425Y-58993550D01*
X107683159Y-59007157D01*
X107643654Y-59102527D01*
X107604204Y-59203046D01*
X107596469Y-59216442D01*
X107588880Y-59234765D01*
X107537211Y-59319081D01*
X107486907Y-59406211D01*
X107473569Y-59422935D01*
X107460157Y-59444823D01*
X107399168Y-59516231D01*
X107340631Y-59589635D01*
X107320608Y-59608213D01*
X107300158Y-59632158D01*
X107232823Y-59689666D01*
X107168662Y-59749201D01*
X107141180Y-59767937D01*
X107112823Y-59792157D01*
X107041999Y-59835557D01*
X106974825Y-59881356D01*
X106939509Y-59898362D01*
X106902765Y-59920880D01*
X106831181Y-59950531D01*
X106763460Y-59983144D01*
X106720327Y-59996448D01*
X106675157Y-60015159D01*
X106605296Y-60031931D01*
X106539278Y-60052295D01*
X106488755Y-60059910D01*
X106435602Y-60072671D01*
X106369659Y-60077860D01*
X106307299Y-60087260D01*
X106250228Y-60087260D01*
X106190000Y-60092000D01*
X106129772Y-60087260D01*
X106072701Y-60087260D01*
X106010339Y-60077860D01*
X105944398Y-60072671D01*
X105891245Y-60059910D01*
X105840721Y-60052295D01*
X105774699Y-60031929D01*
X105704843Y-60015159D01*
X105659675Y-59996449D01*
X105616539Y-59983144D01*
X105548813Y-59950529D01*
X105477235Y-59920880D01*
X105440490Y-59898363D01*
X105405175Y-59881356D01*
X105337996Y-59835555D01*
X105267177Y-59792157D01*
X105238822Y-59767940D01*
X105211337Y-59749201D01*
X105147163Y-59689655D01*
X105079842Y-59632158D01*
X105059394Y-59608217D01*
X105039368Y-59589635D01*
X104980816Y-59516214D01*
X104919843Y-59444823D01*
X104906433Y-59422941D01*
X104893092Y-59406211D01*
X104842771Y-59319052D01*
X104791120Y-59234765D01*
X104783533Y-59216449D01*
X104775795Y-59203046D01*
X104736325Y-59102481D01*
X104696841Y-59007157D01*
X104693576Y-58993557D01*
X104690086Y-58984665D01*
X104663951Y-58870160D01*
X104639329Y-58767602D01*
X104638690Y-58759485D01*
X104637881Y-58755940D01*
X104627321Y-58615023D01*
X104620000Y-58522000D01*
X104627320Y-58428984D01*
X104637881Y-58288059D01*
X104638690Y-58284513D01*
X104639329Y-58276398D01*
X104663946Y-58173858D01*
X104690086Y-58059334D01*
X104693576Y-58050440D01*
X104696841Y-58036843D01*
X104736318Y-57941536D01*
X104775795Y-57840953D01*
X104783534Y-57827547D01*
X104791120Y-57809235D01*
X104842761Y-57724963D01*
X104893092Y-57637788D01*
X104906436Y-57621054D01*
X104919843Y-57599177D01*
X104980804Y-57527799D01*
X105039368Y-57454364D01*
X105059399Y-57435777D01*
X105079842Y-57411842D01*
X105147150Y-57354355D01*
X105211337Y-57294798D01*
X105238828Y-57276054D01*
X105267177Y-57251843D01*
X105337982Y-57208453D01*
X105405175Y-57162643D01*
X105440498Y-57145631D01*
X105477235Y-57123120D01*
X105548799Y-57093476D01*
X105616539Y-57060855D01*
X105659684Y-57047546D01*
X105704843Y-57028841D01*
X105774684Y-57012073D01*
X105840721Y-56991704D01*
X105891254Y-56984087D01*
X105944398Y-56971329D01*
X106010335Y-56966139D01*
X106072701Y-56956740D01*
X106129772Y-56956740D01*
X106190000Y-56952000D01*
X106250228Y-56956740D01*
G37*
G36*
X90672255Y-58156766D02*
G01*
X90720940Y-58156766D01*
X90762982Y-58165702D01*
X90799608Y-58169310D01*
X90845624Y-58183268D01*
X90898845Y-58194581D01*
X90932895Y-58209741D01*
X90962706Y-58218784D01*
X91010079Y-58244105D01*
X91065000Y-58268558D01*
X91090535Y-58287110D01*
X91113009Y-58299123D01*
X91158850Y-58336744D01*
X91212144Y-58375464D01*
X91229447Y-58394681D01*
X91244755Y-58407244D01*
X91285892Y-58457369D01*
X91333845Y-58510627D01*
X91343919Y-58528076D01*
X91352876Y-58538990D01*
X91386009Y-58600978D01*
X91424785Y-58668139D01*
X91429244Y-58681865D01*
X91433215Y-58689293D01*
X91455102Y-58761448D01*
X91480988Y-58841117D01*
X91481899Y-58849787D01*
X91482689Y-58852391D01*
X91490379Y-58930464D01*
X91500000Y-59022000D01*
X91490378Y-59113543D01*
X91482689Y-59191608D01*
X91481899Y-59194210D01*
X91480988Y-59202883D01*
X91455098Y-59282565D01*
X91433215Y-59354706D01*
X91429245Y-59362131D01*
X91424785Y-59375861D01*
X91386002Y-59443033D01*
X91352876Y-59505009D01*
X91343921Y-59515920D01*
X91333845Y-59533373D01*
X91285882Y-59586640D01*
X91244755Y-59636755D01*
X91229450Y-59649314D01*
X91212144Y-59668536D01*
X91158840Y-59707263D01*
X91113009Y-59744876D01*
X91090540Y-59756885D01*
X91065000Y-59775442D01*
X91010068Y-59799899D01*
X90962706Y-59825215D01*
X90932902Y-59834255D01*
X90898845Y-59849419D01*
X90845613Y-59860733D01*
X90799608Y-59874689D01*
X90762991Y-59878295D01*
X90720940Y-59887234D01*
X90672245Y-59887234D01*
X90630000Y-59891395D01*
X90587755Y-59887234D01*
X90539060Y-59887234D01*
X90497009Y-59878295D01*
X90460391Y-59874689D01*
X90414383Y-59860733D01*
X90361155Y-59849419D01*
X90327099Y-59834256D01*
X90297293Y-59825215D01*
X90249925Y-59799896D01*
X90195000Y-59775442D01*
X90169461Y-59756887D01*
X90146990Y-59744876D01*
X90101150Y-59707256D01*
X90047856Y-59668536D01*
X90030552Y-59649317D01*
X90015244Y-59636755D01*
X89974105Y-59586627D01*
X89926155Y-59533373D01*
X89916080Y-59515924D01*
X89907123Y-59505009D01*
X89873983Y-59443010D01*
X89835215Y-59375861D01*
X89830755Y-59362136D01*
X89826784Y-59354706D01*
X89804886Y-59282518D01*
X89779012Y-59202883D01*
X89778101Y-59194215D01*
X89777310Y-59191608D01*
X89769605Y-59113391D01*
X89760000Y-59022000D01*
X89769605Y-58930616D01*
X89777310Y-58852391D01*
X89778101Y-58849782D01*
X89779012Y-58841117D01*
X89804882Y-58761495D01*
X89826784Y-58689293D01*
X89830756Y-58681860D01*
X89835215Y-58668139D01*
X89873976Y-58601001D01*
X89907123Y-58538990D01*
X89916082Y-58528072D01*
X89926155Y-58510627D01*
X89974096Y-58457382D01*
X90015244Y-58407244D01*
X90030555Y-58394678D01*
X90047856Y-58375464D01*
X90101140Y-58336750D01*
X90146990Y-58299123D01*
X90169467Y-58287108D01*
X90195000Y-58268558D01*
X90249914Y-58244108D01*
X90297293Y-58218784D01*
X90327106Y-58209740D01*
X90361155Y-58194581D01*
X90414372Y-58183269D01*
X90460391Y-58169310D01*
X90497017Y-58165702D01*
X90539060Y-58156766D01*
X90587745Y-58156766D01*
X90630000Y-58152604D01*
X90672255Y-58156766D01*
G37*
G36*
X93212255Y-58156766D02*
G01*
X93260940Y-58156766D01*
X93302982Y-58165702D01*
X93339608Y-58169310D01*
X93385624Y-58183268D01*
X93438845Y-58194581D01*
X93472895Y-58209741D01*
X93502706Y-58218784D01*
X93550079Y-58244105D01*
X93605000Y-58268558D01*
X93630535Y-58287110D01*
X93653009Y-58299123D01*
X93698850Y-58336744D01*
X93752144Y-58375464D01*
X93769447Y-58394681D01*
X93784755Y-58407244D01*
X93825892Y-58457369D01*
X93873845Y-58510627D01*
X93883919Y-58528076D01*
X93892876Y-58538990D01*
X93926009Y-58600978D01*
X93964785Y-58668139D01*
X93969244Y-58681865D01*
X93973215Y-58689293D01*
X93995102Y-58761448D01*
X94020988Y-58841117D01*
X94021899Y-58849787D01*
X94022689Y-58852391D01*
X94030379Y-58930464D01*
X94040000Y-59022000D01*
X94030378Y-59113543D01*
X94022689Y-59191608D01*
X94021899Y-59194210D01*
X94020988Y-59202883D01*
X93995098Y-59282565D01*
X93973215Y-59354706D01*
X93969245Y-59362131D01*
X93964785Y-59375861D01*
X93926002Y-59443033D01*
X93892876Y-59505009D01*
X93883921Y-59515920D01*
X93873845Y-59533373D01*
X93825882Y-59586640D01*
X93784755Y-59636755D01*
X93769450Y-59649314D01*
X93752144Y-59668536D01*
X93698840Y-59707263D01*
X93653009Y-59744876D01*
X93630540Y-59756885D01*
X93605000Y-59775442D01*
X93550068Y-59799899D01*
X93502706Y-59825215D01*
X93472902Y-59834255D01*
X93438845Y-59849419D01*
X93385613Y-59860733D01*
X93339608Y-59874689D01*
X93302991Y-59878295D01*
X93260940Y-59887234D01*
X93212245Y-59887234D01*
X93170000Y-59891395D01*
X93127755Y-59887234D01*
X93079060Y-59887234D01*
X93037009Y-59878295D01*
X93000391Y-59874689D01*
X92954383Y-59860733D01*
X92901155Y-59849419D01*
X92867099Y-59834256D01*
X92837293Y-59825215D01*
X92789925Y-59799896D01*
X92735000Y-59775442D01*
X92709461Y-59756887D01*
X92686990Y-59744876D01*
X92641150Y-59707256D01*
X92587856Y-59668536D01*
X92570552Y-59649317D01*
X92555244Y-59636755D01*
X92514105Y-59586627D01*
X92466155Y-59533373D01*
X92456080Y-59515924D01*
X92447123Y-59505009D01*
X92413983Y-59443010D01*
X92375215Y-59375861D01*
X92370755Y-59362136D01*
X92366784Y-59354706D01*
X92344886Y-59282518D01*
X92319012Y-59202883D01*
X92318101Y-59194215D01*
X92317310Y-59191608D01*
X92309605Y-59113391D01*
X92300000Y-59022000D01*
X92309605Y-58930616D01*
X92317310Y-58852391D01*
X92318101Y-58849782D01*
X92319012Y-58841117D01*
X92344882Y-58761495D01*
X92366784Y-58689293D01*
X92370756Y-58681860D01*
X92375215Y-58668139D01*
X92413976Y-58601001D01*
X92447123Y-58538990D01*
X92456082Y-58528072D01*
X92466155Y-58510627D01*
X92514096Y-58457382D01*
X92555244Y-58407244D01*
X92570555Y-58394678D01*
X92587856Y-58375464D01*
X92641140Y-58336750D01*
X92686990Y-58299123D01*
X92709467Y-58287108D01*
X92735000Y-58268558D01*
X92789914Y-58244108D01*
X92837293Y-58218784D01*
X92867106Y-58209740D01*
X92901155Y-58194581D01*
X92954372Y-58183269D01*
X93000391Y-58169310D01*
X93037017Y-58165702D01*
X93079060Y-58156766D01*
X93127745Y-58156766D01*
X93170000Y-58152604D01*
X93212255Y-58156766D01*
G37*
G36*
X95752255Y-58156766D02*
G01*
X95800940Y-58156766D01*
X95842982Y-58165702D01*
X95879608Y-58169310D01*
X95925624Y-58183268D01*
X95978845Y-58194581D01*
X96012895Y-58209741D01*
X96042706Y-58218784D01*
X96090079Y-58244105D01*
X96145000Y-58268558D01*
X96170535Y-58287110D01*
X96193009Y-58299123D01*
X96238850Y-58336744D01*
X96292144Y-58375464D01*
X96309447Y-58394681D01*
X96324755Y-58407244D01*
X96365892Y-58457369D01*
X96413845Y-58510627D01*
X96423919Y-58528076D01*
X96432876Y-58538990D01*
X96466009Y-58600978D01*
X96504785Y-58668139D01*
X96509244Y-58681865D01*
X96513215Y-58689293D01*
X96535102Y-58761448D01*
X96560988Y-58841117D01*
X96561899Y-58849787D01*
X96562689Y-58852391D01*
X96570379Y-58930464D01*
X96580000Y-59022000D01*
X96570378Y-59113543D01*
X96562689Y-59191608D01*
X96561899Y-59194210D01*
X96560988Y-59202883D01*
X96535098Y-59282565D01*
X96513215Y-59354706D01*
X96509245Y-59362131D01*
X96504785Y-59375861D01*
X96466002Y-59443033D01*
X96432876Y-59505009D01*
X96423921Y-59515920D01*
X96413845Y-59533373D01*
X96365882Y-59586640D01*
X96324755Y-59636755D01*
X96309450Y-59649314D01*
X96292144Y-59668536D01*
X96238840Y-59707263D01*
X96193009Y-59744876D01*
X96170540Y-59756885D01*
X96145000Y-59775442D01*
X96090068Y-59799899D01*
X96042706Y-59825215D01*
X96012902Y-59834255D01*
X95978845Y-59849419D01*
X95925613Y-59860733D01*
X95879608Y-59874689D01*
X95842991Y-59878295D01*
X95800940Y-59887234D01*
X95752245Y-59887234D01*
X95710000Y-59891395D01*
X95667755Y-59887234D01*
X95619060Y-59887234D01*
X95577009Y-59878295D01*
X95540391Y-59874689D01*
X95494383Y-59860733D01*
X95441155Y-59849419D01*
X95407099Y-59834256D01*
X95377293Y-59825215D01*
X95329925Y-59799896D01*
X95275000Y-59775442D01*
X95249461Y-59756887D01*
X95226990Y-59744876D01*
X95181150Y-59707256D01*
X95127856Y-59668536D01*
X95110552Y-59649317D01*
X95095244Y-59636755D01*
X95054105Y-59586627D01*
X95006155Y-59533373D01*
X94996080Y-59515924D01*
X94987123Y-59505009D01*
X94953983Y-59443010D01*
X94915215Y-59375861D01*
X94910755Y-59362136D01*
X94906784Y-59354706D01*
X94884886Y-59282518D01*
X94859012Y-59202883D01*
X94858101Y-59194215D01*
X94857310Y-59191608D01*
X94849605Y-59113391D01*
X94840000Y-59022000D01*
X94849605Y-58930616D01*
X94857310Y-58852391D01*
X94858101Y-58849782D01*
X94859012Y-58841117D01*
X94884882Y-58761495D01*
X94906784Y-58689293D01*
X94910756Y-58681860D01*
X94915215Y-58668139D01*
X94953976Y-58601001D01*
X94987123Y-58538990D01*
X94996082Y-58528072D01*
X95006155Y-58510627D01*
X95054096Y-58457382D01*
X95095244Y-58407244D01*
X95110555Y-58394678D01*
X95127856Y-58375464D01*
X95181140Y-58336750D01*
X95226990Y-58299123D01*
X95249467Y-58287108D01*
X95275000Y-58268558D01*
X95329914Y-58244108D01*
X95377293Y-58218784D01*
X95407106Y-58209740D01*
X95441155Y-58194581D01*
X95494372Y-58183269D01*
X95540391Y-58169310D01*
X95577017Y-58165702D01*
X95619060Y-58156766D01*
X95667745Y-58156766D01*
X95710000Y-58152604D01*
X95752255Y-58156766D01*
G37*
G36*
X98292255Y-58156766D02*
G01*
X98340940Y-58156766D01*
X98382982Y-58165702D01*
X98419608Y-58169310D01*
X98465624Y-58183268D01*
X98518845Y-58194581D01*
X98552895Y-58209741D01*
X98582706Y-58218784D01*
X98630079Y-58244105D01*
X98685000Y-58268558D01*
X98710535Y-58287110D01*
X98733009Y-58299123D01*
X98778850Y-58336744D01*
X98832144Y-58375464D01*
X98849447Y-58394681D01*
X98864755Y-58407244D01*
X98905892Y-58457369D01*
X98953845Y-58510627D01*
X98963919Y-58528076D01*
X98972876Y-58538990D01*
X99006009Y-58600978D01*
X99044785Y-58668139D01*
X99049244Y-58681865D01*
X99053215Y-58689293D01*
X99075102Y-58761448D01*
X99100988Y-58841117D01*
X99101899Y-58849787D01*
X99102689Y-58852391D01*
X99110379Y-58930464D01*
X99120000Y-59022000D01*
X99110378Y-59113543D01*
X99102689Y-59191608D01*
X99101899Y-59194210D01*
X99100988Y-59202883D01*
X99075098Y-59282565D01*
X99053215Y-59354706D01*
X99049245Y-59362131D01*
X99044785Y-59375861D01*
X99006002Y-59443033D01*
X98972876Y-59505009D01*
X98963921Y-59515920D01*
X98953845Y-59533373D01*
X98905882Y-59586640D01*
X98864755Y-59636755D01*
X98849450Y-59649314D01*
X98832144Y-59668536D01*
X98778840Y-59707263D01*
X98733009Y-59744876D01*
X98710540Y-59756885D01*
X98685000Y-59775442D01*
X98630068Y-59799899D01*
X98582706Y-59825215D01*
X98552902Y-59834255D01*
X98518845Y-59849419D01*
X98465613Y-59860733D01*
X98419608Y-59874689D01*
X98382991Y-59878295D01*
X98340940Y-59887234D01*
X98292245Y-59887234D01*
X98250000Y-59891395D01*
X98207755Y-59887234D01*
X98159060Y-59887234D01*
X98117009Y-59878295D01*
X98080391Y-59874689D01*
X98034383Y-59860733D01*
X97981155Y-59849419D01*
X97947099Y-59834256D01*
X97917293Y-59825215D01*
X97869925Y-59799896D01*
X97815000Y-59775442D01*
X97789461Y-59756887D01*
X97766990Y-59744876D01*
X97721150Y-59707256D01*
X97667856Y-59668536D01*
X97650552Y-59649317D01*
X97635244Y-59636755D01*
X97594105Y-59586627D01*
X97546155Y-59533373D01*
X97536080Y-59515924D01*
X97527123Y-59505009D01*
X97493983Y-59443010D01*
X97455215Y-59375861D01*
X97450755Y-59362136D01*
X97446784Y-59354706D01*
X97424886Y-59282518D01*
X97399012Y-59202883D01*
X97398101Y-59194215D01*
X97397310Y-59191608D01*
X97389605Y-59113391D01*
X97380000Y-59022000D01*
X97389605Y-58930616D01*
X97397310Y-58852391D01*
X97398101Y-58849782D01*
X97399012Y-58841117D01*
X97424882Y-58761495D01*
X97446784Y-58689293D01*
X97450756Y-58681860D01*
X97455215Y-58668139D01*
X97493976Y-58601001D01*
X97527123Y-58538990D01*
X97536082Y-58528072D01*
X97546155Y-58510627D01*
X97594096Y-58457382D01*
X97635244Y-58407244D01*
X97650555Y-58394678D01*
X97667856Y-58375464D01*
X97721140Y-58336750D01*
X97766990Y-58299123D01*
X97789467Y-58287108D01*
X97815000Y-58268558D01*
X97869914Y-58244108D01*
X97917293Y-58218784D01*
X97947106Y-58209740D01*
X97981155Y-58194581D01*
X98034372Y-58183269D01*
X98080391Y-58169310D01*
X98117017Y-58165702D01*
X98159060Y-58156766D01*
X98207745Y-58156766D01*
X98250000Y-58152604D01*
X98292255Y-58156766D01*
G37*
G36*
X139388407Y-56774935D02*
G01*
X139440969Y-56774935D01*
X139498899Y-56784601D01*
X139561216Y-56790054D01*
X139610157Y-56803167D01*
X139655936Y-56810807D01*
X139717344Y-56831888D01*
X139783467Y-56849606D01*
X139823972Y-56868493D01*
X139862065Y-56881571D01*
X139924653Y-56915442D01*
X139992000Y-56946846D01*
X140023701Y-56969043D01*
X140053739Y-56985299D01*
X140114881Y-57032888D01*
X140180480Y-57078821D01*
X140203601Y-57101942D01*
X140225716Y-57119155D01*
X140282526Y-57180867D01*
X140343179Y-57241520D01*
X140358487Y-57263383D01*
X140373328Y-57279504D01*
X140422845Y-57355295D01*
X140475154Y-57430000D01*
X140483883Y-57448720D01*
X140492528Y-57461952D01*
X140531764Y-57551401D01*
X140572394Y-57638533D01*
X140576177Y-57652654D01*
X140580074Y-57661537D01*
X140606162Y-57764557D01*
X140631946Y-57860784D01*
X140632693Y-57869328D01*
X140633574Y-57872805D01*
X140643890Y-57997313D01*
X140652000Y-58090000D01*
X140643890Y-58182694D01*
X140633574Y-58307194D01*
X140632693Y-58310670D01*
X140631946Y-58319216D01*
X140606157Y-58415459D01*
X140580074Y-58518462D01*
X140576178Y-58527342D01*
X140572394Y-58541467D01*
X140531756Y-58628614D01*
X140492528Y-58718047D01*
X140483885Y-58731275D01*
X140475154Y-58750000D01*
X140422835Y-58824718D01*
X140373328Y-58900495D01*
X140358490Y-58916612D01*
X140343179Y-58938480D01*
X140282514Y-58999144D01*
X140225716Y-59060844D01*
X140203605Y-59078053D01*
X140180480Y-59101179D01*
X140114869Y-59147120D01*
X140053739Y-59194700D01*
X140023707Y-59210951D01*
X139992000Y-59233154D01*
X139924640Y-59264564D01*
X139862065Y-59298428D01*
X139823980Y-59311502D01*
X139783467Y-59330394D01*
X139717331Y-59348114D01*
X139655936Y-59369192D01*
X139610165Y-59376830D01*
X139561216Y-59389946D01*
X139498895Y-59395398D01*
X139440969Y-59405065D01*
X139388407Y-59405065D01*
X139332000Y-59410000D01*
X139275593Y-59405065D01*
X139223031Y-59405065D01*
X139165103Y-59395398D01*
X139102784Y-59389946D01*
X139053835Y-59376830D01*
X139008063Y-59369192D01*
X138946664Y-59348113D01*
X138880533Y-59330394D01*
X138840022Y-59311503D01*
X138801934Y-59298428D01*
X138739352Y-59264560D01*
X138672000Y-59233154D01*
X138640295Y-59210954D01*
X138610260Y-59194700D01*
X138549120Y-59147113D01*
X138483520Y-59101179D01*
X138460397Y-59078056D01*
X138438283Y-59060844D01*
X138381472Y-58999131D01*
X138320821Y-58938480D01*
X138305512Y-58916616D01*
X138290671Y-58900495D01*
X138241149Y-58824697D01*
X138188846Y-58750000D01*
X138180117Y-58731280D01*
X138171471Y-58718047D01*
X138132226Y-58628577D01*
X138091606Y-58541467D01*
X138087822Y-58527348D01*
X138083925Y-58518462D01*
X138057824Y-58415391D01*
X138032054Y-58319216D01*
X138031306Y-58310676D01*
X138030425Y-58307194D01*
X138020090Y-58182478D01*
X138012000Y-58090000D01*
X138020090Y-57997529D01*
X138030425Y-57872805D01*
X138031307Y-57869321D01*
X138032054Y-57860784D01*
X138057819Y-57764625D01*
X138083925Y-57661537D01*
X138087823Y-57652649D01*
X138091606Y-57638533D01*
X138132218Y-57551437D01*
X138171471Y-57461952D01*
X138180118Y-57448715D01*
X138188846Y-57430000D01*
X138241139Y-57355316D01*
X138290671Y-57279504D01*
X138305515Y-57263378D01*
X138320821Y-57241520D01*
X138381461Y-57180879D01*
X138438283Y-57119155D01*
X138460402Y-57101938D01*
X138483520Y-57078821D01*
X138549108Y-57032895D01*
X138610260Y-56985299D01*
X138640301Y-56969041D01*
X138672000Y-56946846D01*
X138739338Y-56915445D01*
X138801934Y-56881571D01*
X138840030Y-56868492D01*
X138880533Y-56849606D01*
X138946650Y-56831889D01*
X139008063Y-56810807D01*
X139053843Y-56803167D01*
X139102784Y-56790054D01*
X139165100Y-56784601D01*
X139223031Y-56774935D01*
X139275593Y-56774935D01*
X139332000Y-56770000D01*
X139388407Y-56774935D01*
G37*
G36*
X101664760Y-55247098D02*
G01*
X101711677Y-55247098D01*
X101763930Y-55256865D01*
X101821747Y-55262560D01*
X101865664Y-55275882D01*
X101905674Y-55283361D01*
X101961087Y-55304828D01*
X102022471Y-55323449D01*
X102057546Y-55342197D01*
X102089703Y-55354655D01*
X102145577Y-55389250D01*
X102207460Y-55422328D01*
X102233459Y-55443665D01*
X102257496Y-55458548D01*
X102310755Y-55507099D01*
X102369604Y-55555396D01*
X102387043Y-55576645D01*
X102403342Y-55591504D01*
X102450659Y-55654163D01*
X102502672Y-55717540D01*
X102512729Y-55736356D01*
X102522276Y-55748998D01*
X102560245Y-55825252D01*
X102601551Y-55902529D01*
X102605957Y-55917055D01*
X102610245Y-55925666D01*
X102635578Y-56014701D01*
X102662440Y-56103253D01*
X102663322Y-56112210D01*
X102664254Y-56115485D01*
X102673941Y-56220026D01*
X102683000Y-56312000D01*
X102673940Y-56403981D01*
X102664254Y-56508514D01*
X102663322Y-56511788D01*
X102662440Y-56520747D01*
X102635573Y-56609313D01*
X102610245Y-56698333D01*
X102605958Y-56706941D01*
X102601551Y-56721471D01*
X102560238Y-56798761D01*
X102522276Y-56875001D01*
X102512731Y-56887639D01*
X102502672Y-56906460D01*
X102450650Y-56969848D01*
X102403342Y-57032495D01*
X102387046Y-57047350D01*
X102369604Y-57068604D01*
X102310744Y-57116909D01*
X102257496Y-57165451D01*
X102233464Y-57180330D01*
X102207460Y-57201672D01*
X102145565Y-57234755D01*
X102089703Y-57269344D01*
X102057553Y-57281798D01*
X102022471Y-57300551D01*
X101961075Y-57319175D01*
X101905674Y-57340638D01*
X101865671Y-57348115D01*
X101821747Y-57361440D01*
X101763927Y-57367134D01*
X101711677Y-57376902D01*
X101664760Y-57376902D01*
X101613000Y-57382000D01*
X101561240Y-57376902D01*
X101514323Y-57376902D01*
X101462072Y-57367134D01*
X101404253Y-57361440D01*
X101360330Y-57348116D01*
X101320325Y-57340638D01*
X101264920Y-57319173D01*
X101203529Y-57300551D01*
X101168448Y-57281800D01*
X101136296Y-57269344D01*
X101080427Y-57234751D01*
X101018540Y-57201672D01*
X100992538Y-57180333D01*
X100968503Y-57165451D01*
X100915245Y-57116900D01*
X100856396Y-57068604D01*
X100838956Y-57047354D01*
X100822657Y-57032495D01*
X100775336Y-56969833D01*
X100723328Y-56906460D01*
X100713270Y-56887644D01*
X100703723Y-56875001D01*
X100665747Y-56798734D01*
X100624449Y-56721471D01*
X100620043Y-56706946D01*
X100615754Y-56698333D01*
X100590410Y-56609260D01*
X100563560Y-56520747D01*
X100562678Y-56511793D01*
X100561745Y-56508514D01*
X100552042Y-56403809D01*
X100543000Y-56312000D01*
X100552041Y-56220197D01*
X100561745Y-56115485D01*
X100562678Y-56112204D01*
X100563560Y-56103253D01*
X100590405Y-56014754D01*
X100615754Y-55925666D01*
X100620043Y-55917050D01*
X100624449Y-55902529D01*
X100665739Y-55825279D01*
X100703723Y-55748998D01*
X100713272Y-55736352D01*
X100723328Y-55717540D01*
X100775327Y-55654178D01*
X100822657Y-55591504D01*
X100838959Y-55576641D01*
X100856396Y-55555396D01*
X100915234Y-55507108D01*
X100968503Y-55458548D01*
X100992543Y-55443662D01*
X101018540Y-55422328D01*
X101080415Y-55389254D01*
X101136296Y-55354655D01*
X101168455Y-55342196D01*
X101203529Y-55323449D01*
X101264908Y-55304829D01*
X101320325Y-55283361D01*
X101360337Y-55275881D01*
X101404253Y-55262560D01*
X101462068Y-55256865D01*
X101514323Y-55247098D01*
X101561240Y-55247098D01*
X101613000Y-55242000D01*
X101664760Y-55247098D01*
G37*
G36*
X98362760Y-55120098D02*
G01*
X98409677Y-55120098D01*
X98461930Y-55129865D01*
X98519747Y-55135560D01*
X98563664Y-55148882D01*
X98603674Y-55156361D01*
X98659087Y-55177828D01*
X98720471Y-55196449D01*
X98755546Y-55215197D01*
X98787703Y-55227655D01*
X98843577Y-55262250D01*
X98905460Y-55295328D01*
X98931459Y-55316665D01*
X98955496Y-55331548D01*
X99008755Y-55380099D01*
X99067604Y-55428396D01*
X99085043Y-55449645D01*
X99101342Y-55464504D01*
X99148659Y-55527163D01*
X99200672Y-55590540D01*
X99210729Y-55609356D01*
X99220276Y-55621998D01*
X99258245Y-55698252D01*
X99299551Y-55775529D01*
X99303957Y-55790055D01*
X99308245Y-55798666D01*
X99333578Y-55887701D01*
X99360440Y-55976253D01*
X99361322Y-55985210D01*
X99362254Y-55988485D01*
X99371941Y-56093026D01*
X99381000Y-56185000D01*
X99371940Y-56276981D01*
X99362254Y-56381514D01*
X99361322Y-56384788D01*
X99360440Y-56393747D01*
X99333573Y-56482313D01*
X99308245Y-56571333D01*
X99303958Y-56579941D01*
X99299551Y-56594471D01*
X99258238Y-56671761D01*
X99220276Y-56748001D01*
X99210731Y-56760639D01*
X99200672Y-56779460D01*
X99148650Y-56842848D01*
X99101342Y-56905495D01*
X99085046Y-56920350D01*
X99067604Y-56941604D01*
X99008744Y-56989909D01*
X98955496Y-57038451D01*
X98931464Y-57053330D01*
X98905460Y-57074672D01*
X98843565Y-57107755D01*
X98787703Y-57142344D01*
X98755553Y-57154798D01*
X98720471Y-57173551D01*
X98659075Y-57192175D01*
X98603674Y-57213638D01*
X98563671Y-57221115D01*
X98519747Y-57234440D01*
X98461927Y-57240134D01*
X98409677Y-57249902D01*
X98362760Y-57249902D01*
X98311000Y-57255000D01*
X98259240Y-57249902D01*
X98212323Y-57249902D01*
X98160072Y-57240134D01*
X98102253Y-57234440D01*
X98058330Y-57221116D01*
X98018325Y-57213638D01*
X97962920Y-57192173D01*
X97901529Y-57173551D01*
X97866448Y-57154800D01*
X97834296Y-57142344D01*
X97778427Y-57107751D01*
X97716540Y-57074672D01*
X97690538Y-57053333D01*
X97666503Y-57038451D01*
X97613245Y-56989900D01*
X97554396Y-56941604D01*
X97536956Y-56920354D01*
X97520657Y-56905495D01*
X97473336Y-56842833D01*
X97421328Y-56779460D01*
X97411270Y-56760644D01*
X97401723Y-56748001D01*
X97363747Y-56671734D01*
X97322449Y-56594471D01*
X97318043Y-56579946D01*
X97313754Y-56571333D01*
X97288410Y-56482260D01*
X97261560Y-56393747D01*
X97260678Y-56384793D01*
X97259745Y-56381514D01*
X97250042Y-56276809D01*
X97241000Y-56185000D01*
X97250041Y-56093197D01*
X97259745Y-55988485D01*
X97260678Y-55985204D01*
X97261560Y-55976253D01*
X97288405Y-55887754D01*
X97313754Y-55798666D01*
X97318043Y-55790050D01*
X97322449Y-55775529D01*
X97363739Y-55698279D01*
X97401723Y-55621998D01*
X97411272Y-55609352D01*
X97421328Y-55590540D01*
X97473327Y-55527178D01*
X97520657Y-55464504D01*
X97536959Y-55449641D01*
X97554396Y-55428396D01*
X97613234Y-55380108D01*
X97666503Y-55331548D01*
X97690543Y-55316662D01*
X97716540Y-55295328D01*
X97778415Y-55262254D01*
X97834296Y-55227655D01*
X97866455Y-55215196D01*
X97901529Y-55196449D01*
X97962908Y-55177829D01*
X98018325Y-55156361D01*
X98058337Y-55148881D01*
X98102253Y-55135560D01*
X98160068Y-55129865D01*
X98212323Y-55120098D01*
X98259240Y-55120098D01*
X98311000Y-55115000D01*
X98362760Y-55120098D01*
G37*
G36*
X113823788Y-54789328D02*
G01*
X113846497Y-54804503D01*
X113861672Y-54827212D01*
X113867000Y-54854000D01*
X113867000Y-56754000D01*
X113861672Y-56780788D01*
X113846497Y-56803497D01*
X113823788Y-56818672D01*
X113797000Y-56824000D01*
X112797000Y-56824000D01*
X112770212Y-56818672D01*
X112747503Y-56803497D01*
X112732328Y-56780788D01*
X112727000Y-56754000D01*
X112727000Y-54854000D01*
X112732328Y-54827212D01*
X112747503Y-54804503D01*
X112770212Y-54789328D01*
X112797000Y-54784000D01*
X113797000Y-54784000D01*
X113823788Y-54789328D01*
G37*
G36*
X118903788Y-54789328D02*
G01*
X118926497Y-54804503D01*
X118941672Y-54827212D01*
X118947000Y-54854000D01*
X118947000Y-56754000D01*
X118941672Y-56780788D01*
X118926497Y-56803497D01*
X118903788Y-56818672D01*
X118877000Y-56824000D01*
X117877000Y-56824000D01*
X117850212Y-56818672D01*
X117827503Y-56803497D01*
X117812328Y-56780788D01*
X117807000Y-56754000D01*
X117807000Y-54854000D01*
X117812328Y-54827212D01*
X117827503Y-54804503D01*
X117850212Y-54789328D01*
X117877000Y-54784000D01*
X118877000Y-54784000D01*
X118903788Y-54789328D01*
G37*
G36*
X123983788Y-54789328D02*
G01*
X124006497Y-54804503D01*
X124021672Y-54827212D01*
X124027000Y-54854000D01*
X124027000Y-56754000D01*
X124021672Y-56780788D01*
X124006497Y-56803497D01*
X123983788Y-56818672D01*
X123957000Y-56824000D01*
X122957000Y-56824000D01*
X122930212Y-56818672D01*
X122907503Y-56803497D01*
X122892328Y-56780788D01*
X122887000Y-56754000D01*
X122887000Y-54854000D01*
X122892328Y-54827212D01*
X122907503Y-54804503D01*
X122930212Y-54789328D01*
X122957000Y-54784000D01*
X123957000Y-54784000D01*
X123983788Y-54789328D01*
G37*
G36*
X112486788Y-51331328D02*
G01*
X112509497Y-51346503D01*
X112524672Y-51369212D01*
X112530000Y-51396000D01*
X112530000Y-53836000D01*
X112524672Y-53862788D01*
X112509497Y-53885497D01*
X112486788Y-53900672D01*
X112460000Y-53906000D01*
X111340000Y-53906000D01*
X111313212Y-53900672D01*
X111290503Y-53885497D01*
X111275328Y-53862788D01*
X111270000Y-53836000D01*
X111270000Y-51396000D01*
X111275328Y-51369212D01*
X111290503Y-51346503D01*
X111313212Y-51331328D01*
X111340000Y-51326000D01*
X112460000Y-51326000D01*
X112486788Y-51331328D01*
G37*
G36*
X115026788Y-51331328D02*
G01*
X115049497Y-51346503D01*
X115064672Y-51369212D01*
X115070000Y-51396000D01*
X115070000Y-53836000D01*
X115064672Y-53862788D01*
X115049497Y-53885497D01*
X115026788Y-53900672D01*
X115000000Y-53906000D01*
X113880000Y-53906000D01*
X113853212Y-53900672D01*
X113830503Y-53885497D01*
X113815328Y-53862788D01*
X113810000Y-53836000D01*
X113810000Y-51396000D01*
X113815328Y-51369212D01*
X113830503Y-51346503D01*
X113853212Y-51331328D01*
X113880000Y-51326000D01*
X115000000Y-51326000D01*
X115026788Y-51331328D01*
G37*
G36*
X117566788Y-51331328D02*
G01*
X117589497Y-51346503D01*
X117604672Y-51369212D01*
X117610000Y-51396000D01*
X117610000Y-53836000D01*
X117604672Y-53862788D01*
X117589497Y-53885497D01*
X117566788Y-53900672D01*
X117540000Y-53906000D01*
X116420000Y-53906000D01*
X116393212Y-53900672D01*
X116370503Y-53885497D01*
X116355328Y-53862788D01*
X116350000Y-53836000D01*
X116350000Y-51396000D01*
X116355328Y-51369212D01*
X116370503Y-51346503D01*
X116393212Y-51331328D01*
X116420000Y-51326000D01*
X117540000Y-51326000D01*
X117566788Y-51331328D01*
G37*
G36*
X120106788Y-51331328D02*
G01*
X120129497Y-51346503D01*
X120144672Y-51369212D01*
X120150000Y-51396000D01*
X120150000Y-53836000D01*
X120144672Y-53862788D01*
X120129497Y-53885497D01*
X120106788Y-53900672D01*
X120080000Y-53906000D01*
X118960000Y-53906000D01*
X118933212Y-53900672D01*
X118910503Y-53885497D01*
X118895328Y-53862788D01*
X118890000Y-53836000D01*
X118890000Y-51396000D01*
X118895328Y-51369212D01*
X118910503Y-51346503D01*
X118933212Y-51331328D01*
X118960000Y-51326000D01*
X120080000Y-51326000D01*
X120106788Y-51331328D01*
G37*
G36*
X122646788Y-51331328D02*
G01*
X122669497Y-51346503D01*
X122684672Y-51369212D01*
X122690000Y-51396000D01*
X122690000Y-53836000D01*
X122684672Y-53862788D01*
X122669497Y-53885497D01*
X122646788Y-53900672D01*
X122620000Y-53906000D01*
X121500000Y-53906000D01*
X121473212Y-53900672D01*
X121450503Y-53885497D01*
X121435328Y-53862788D01*
X121430000Y-53836000D01*
X121430000Y-51396000D01*
X121435328Y-51369212D01*
X121450503Y-51346503D01*
X121473212Y-51331328D01*
X121500000Y-51326000D01*
X122620000Y-51326000D01*
X122646788Y-51331328D01*
G37*
G36*
X125186788Y-51331328D02*
G01*
X125209497Y-51346503D01*
X125224672Y-51369212D01*
X125230000Y-51396000D01*
X125230000Y-53836000D01*
X125224672Y-53862788D01*
X125209497Y-53885497D01*
X125186788Y-53900672D01*
X125160000Y-53906000D01*
X124040000Y-53906000D01*
X124013212Y-53900672D01*
X123990503Y-53885497D01*
X123975328Y-53862788D01*
X123970000Y-53836000D01*
X123970000Y-51396000D01*
X123975328Y-51369212D01*
X123990503Y-51346503D01*
X124013212Y-51331328D01*
X124040000Y-51326000D01*
X125160000Y-51326000D01*
X125186788Y-51331328D01*
G37*
G36*
X131884041Y-51968040D02*
G01*
X131935166Y-51968040D01*
X131979309Y-51977422D01*
X132018361Y-51981269D01*
X132067421Y-51996151D01*
X132123296Y-52008028D01*
X132159052Y-52023947D01*
X132190841Y-52033591D01*
X132241360Y-52060593D01*
X132299000Y-52086257D01*
X132325796Y-52105726D01*
X132349787Y-52118549D01*
X132398723Y-52158710D01*
X132454600Y-52199307D01*
X132472743Y-52219457D01*
X132489110Y-52232889D01*
X132533092Y-52286481D01*
X132583296Y-52342238D01*
X132593842Y-52360505D01*
X132603450Y-52372212D01*
X132638987Y-52438697D01*
X132679462Y-52508802D01*
X132684118Y-52523132D01*
X132688408Y-52531158D01*
X132712065Y-52609145D01*
X132738896Y-52691721D01*
X132739840Y-52700704D01*
X132740730Y-52703638D01*
X132749387Y-52791541D01*
X132759000Y-52883000D01*
X132749386Y-52974465D01*
X132740730Y-53062361D01*
X132739840Y-53065293D01*
X132738896Y-53074279D01*
X132712061Y-53156868D01*
X132688408Y-53234841D01*
X132684119Y-53242865D01*
X132679462Y-53257198D01*
X132638980Y-53327314D01*
X132603450Y-53393787D01*
X132593844Y-53405490D01*
X132583296Y-53423762D01*
X132533082Y-53479529D01*
X132489110Y-53533110D01*
X132472746Y-53546539D01*
X132454600Y-53566693D01*
X132398712Y-53607297D01*
X132349787Y-53647450D01*
X132325802Y-53660270D01*
X132299000Y-53679743D01*
X132241348Y-53705411D01*
X132190841Y-53732408D01*
X132159059Y-53742048D01*
X132123296Y-53757972D01*
X132067410Y-53769850D01*
X132018361Y-53784730D01*
X131979317Y-53788575D01*
X131935166Y-53797960D01*
X131884031Y-53797960D01*
X131839000Y-53802395D01*
X131793969Y-53797960D01*
X131742834Y-53797960D01*
X131698682Y-53788575D01*
X131659638Y-53784730D01*
X131610585Y-53769849D01*
X131554704Y-53757972D01*
X131518942Y-53742049D01*
X131487158Y-53732408D01*
X131436645Y-53705408D01*
X131379000Y-53679743D01*
X131352200Y-53660272D01*
X131328212Y-53647450D01*
X131279278Y-53607290D01*
X131223400Y-53566693D01*
X131205256Y-53546542D01*
X131188889Y-53533110D01*
X131144905Y-53479516D01*
X131094704Y-53423762D01*
X131084157Y-53405494D01*
X131074549Y-53393787D01*
X131039006Y-53327291D01*
X130998538Y-53257198D01*
X130993882Y-53242869D01*
X130989591Y-53234841D01*
X130965923Y-53156821D01*
X130939104Y-53074279D01*
X130938160Y-53065298D01*
X130937269Y-53062361D01*
X130928597Y-52974314D01*
X130919000Y-52883000D01*
X130928596Y-52791692D01*
X130937269Y-52703638D01*
X130938160Y-52700699D01*
X130939104Y-52691721D01*
X130965919Y-52609192D01*
X130989591Y-52531158D01*
X130993883Y-52523127D01*
X130998538Y-52508802D01*
X131038999Y-52438721D01*
X131074549Y-52372212D01*
X131084159Y-52360501D01*
X131094704Y-52342238D01*
X131144896Y-52286493D01*
X131188889Y-52232889D01*
X131205259Y-52219454D01*
X131223400Y-52199307D01*
X131279267Y-52158716D01*
X131328212Y-52118549D01*
X131352205Y-52105724D01*
X131379000Y-52086257D01*
X131436633Y-52060596D01*
X131487158Y-52033591D01*
X131518949Y-52023946D01*
X131554704Y-52008028D01*
X131610574Y-51996152D01*
X131659638Y-51981269D01*
X131698691Y-51977422D01*
X131742834Y-51968040D01*
X131793959Y-51968040D01*
X131839000Y-51963604D01*
X131884041Y-51968040D01*
G37*
G36*
X134424041Y-51968040D02*
G01*
X134475166Y-51968040D01*
X134519309Y-51977422D01*
X134558361Y-51981269D01*
X134607421Y-51996151D01*
X134663296Y-52008028D01*
X134699052Y-52023947D01*
X134730841Y-52033591D01*
X134781360Y-52060593D01*
X134839000Y-52086257D01*
X134865796Y-52105726D01*
X134889787Y-52118549D01*
X134938723Y-52158710D01*
X134994600Y-52199307D01*
X135012743Y-52219457D01*
X135029110Y-52232889D01*
X135073092Y-52286481D01*
X135123296Y-52342238D01*
X135133842Y-52360505D01*
X135143450Y-52372212D01*
X135178987Y-52438697D01*
X135219462Y-52508802D01*
X135224118Y-52523132D01*
X135228408Y-52531158D01*
X135252065Y-52609145D01*
X135278896Y-52691721D01*
X135279840Y-52700704D01*
X135280730Y-52703638D01*
X135289387Y-52791541D01*
X135299000Y-52883000D01*
X135289386Y-52974465D01*
X135280730Y-53062361D01*
X135279840Y-53065293D01*
X135278896Y-53074279D01*
X135252061Y-53156868D01*
X135228408Y-53234841D01*
X135224119Y-53242865D01*
X135219462Y-53257198D01*
X135178980Y-53327314D01*
X135143450Y-53393787D01*
X135133844Y-53405490D01*
X135123296Y-53423762D01*
X135073082Y-53479529D01*
X135029110Y-53533110D01*
X135012746Y-53546539D01*
X134994600Y-53566693D01*
X134938712Y-53607297D01*
X134889787Y-53647450D01*
X134865802Y-53660270D01*
X134839000Y-53679743D01*
X134781348Y-53705411D01*
X134730841Y-53732408D01*
X134699059Y-53742048D01*
X134663296Y-53757972D01*
X134607410Y-53769850D01*
X134558361Y-53784730D01*
X134519317Y-53788575D01*
X134475166Y-53797960D01*
X134424031Y-53797960D01*
X134379000Y-53802395D01*
X134333969Y-53797960D01*
X134282834Y-53797960D01*
X134238682Y-53788575D01*
X134199638Y-53784730D01*
X134150585Y-53769849D01*
X134094704Y-53757972D01*
X134058942Y-53742049D01*
X134027158Y-53732408D01*
X133976645Y-53705408D01*
X133919000Y-53679743D01*
X133892200Y-53660272D01*
X133868212Y-53647450D01*
X133819278Y-53607290D01*
X133763400Y-53566693D01*
X133745256Y-53546542D01*
X133728889Y-53533110D01*
X133684905Y-53479516D01*
X133634704Y-53423762D01*
X133624157Y-53405494D01*
X133614549Y-53393787D01*
X133579006Y-53327291D01*
X133538538Y-53257198D01*
X133533882Y-53242869D01*
X133529591Y-53234841D01*
X133505923Y-53156821D01*
X133479104Y-53074279D01*
X133478160Y-53065298D01*
X133477269Y-53062361D01*
X133468597Y-52974314D01*
X133459000Y-52883000D01*
X133468596Y-52791692D01*
X133477269Y-52703638D01*
X133478160Y-52700699D01*
X133479104Y-52691721D01*
X133505919Y-52609192D01*
X133529591Y-52531158D01*
X133533883Y-52523127D01*
X133538538Y-52508802D01*
X133578999Y-52438721D01*
X133614549Y-52372212D01*
X133624159Y-52360501D01*
X133634704Y-52342238D01*
X133684896Y-52286493D01*
X133728889Y-52232889D01*
X133745259Y-52219454D01*
X133763400Y-52199307D01*
X133819267Y-52158716D01*
X133868212Y-52118549D01*
X133892205Y-52105724D01*
X133919000Y-52086257D01*
X133976633Y-52060596D01*
X134027158Y-52033591D01*
X134058949Y-52023946D01*
X134094704Y-52008028D01*
X134150574Y-51996152D01*
X134199638Y-51981269D01*
X134238691Y-51977422D01*
X134282834Y-51968040D01*
X134333959Y-51968040D01*
X134379000Y-51963604D01*
X134424041Y-51968040D01*
G37*
G36*
X82937981Y-51763104D02*
G01*
X82984439Y-51768745D01*
X82986359Y-51769473D01*
X82995776Y-51770713D01*
X83062466Y-51798337D01*
X83112716Y-51817395D01*
X83119080Y-51821788D01*
X83133249Y-51827657D01*
X83183987Y-51866589D01*
X83225621Y-51895327D01*
X83234498Y-51905348D01*
X83251300Y-51918240D01*
X83286109Y-51963604D01*
X83316593Y-51998014D01*
X83325425Y-52014842D01*
X83341883Y-52036291D01*
X83361358Y-52083307D01*
X83380348Y-52119490D01*
X83386229Y-52143351D01*
X83398827Y-52173764D01*
X83404674Y-52218183D01*
X83413182Y-52252697D01*
X83413182Y-52282802D01*
X83418249Y-52321291D01*
X83413182Y-52359779D01*
X83413182Y-52389884D01*
X83404675Y-52424396D01*
X83398827Y-52468818D01*
X83386229Y-52499231D01*
X83380348Y-52523091D01*
X83361360Y-52559269D01*
X83341883Y-52606291D01*
X83325423Y-52627741D01*
X83316593Y-52644567D01*
X83286115Y-52678969D01*
X83251300Y-52724342D01*
X83234496Y-52737235D01*
X83225621Y-52747254D01*
X83184000Y-52775982D01*
X83133249Y-52814925D01*
X83119077Y-52820795D01*
X83112716Y-52825186D01*
X83062495Y-52844232D01*
X82995776Y-52871869D01*
X82986355Y-52873109D01*
X82984439Y-52873836D01*
X82938047Y-52879468D01*
X82848249Y-52891291D01*
X82840685Y-52891291D01*
X81655813Y-52891291D01*
X81648249Y-52891291D01*
X81558458Y-52879470D01*
X81512058Y-52873836D01*
X81510141Y-52873109D01*
X81500722Y-52871869D01*
X81434013Y-52844237D01*
X81383781Y-52825186D01*
X81377418Y-52820794D01*
X81363249Y-52814925D01*
X81312506Y-52775989D01*
X81270876Y-52747254D01*
X81261998Y-52737233D01*
X81245198Y-52724342D01*
X81210389Y-52678978D01*
X81179904Y-52644567D01*
X81171071Y-52627737D01*
X81154615Y-52606291D01*
X81135141Y-52559278D01*
X81116149Y-52523091D01*
X81110266Y-52499226D01*
X81097671Y-52468818D01*
X81091823Y-52424398D01*
X81083316Y-52389884D01*
X81083316Y-52359779D01*
X81078249Y-52321291D01*
X81083316Y-52282802D01*
X81083316Y-52252697D01*
X81091823Y-52218181D01*
X81097671Y-52173764D01*
X81110266Y-52143356D01*
X81116149Y-52119490D01*
X81135143Y-52083298D01*
X81154615Y-52036291D01*
X81171069Y-52014846D01*
X81179904Y-51998014D01*
X81210395Y-51963596D01*
X81245198Y-51918240D01*
X81261995Y-51905350D01*
X81270876Y-51895327D01*
X81312519Y-51866582D01*
X81363249Y-51827657D01*
X81377414Y-51821789D01*
X81383781Y-51817395D01*
X81434042Y-51798333D01*
X81500722Y-51770713D01*
X81510137Y-51769473D01*
X81512058Y-51768745D01*
X81558524Y-51763103D01*
X81648249Y-51751291D01*
X82848249Y-51751291D01*
X82937981Y-51763104D01*
G37*
G36*
X86737981Y-51763101D02*
G01*
X86784439Y-51768742D01*
X86786359Y-51769470D01*
X86795776Y-51770710D01*
X86862466Y-51798334D01*
X86912716Y-51817392D01*
X86919080Y-51821785D01*
X86933249Y-51827654D01*
X86983987Y-51866586D01*
X87025621Y-51895324D01*
X87034498Y-51905345D01*
X87051300Y-51918237D01*
X87086109Y-51963601D01*
X87116593Y-51998011D01*
X87125425Y-52014839D01*
X87141883Y-52036288D01*
X87161358Y-52083304D01*
X87180348Y-52119487D01*
X87186229Y-52143348D01*
X87198827Y-52173761D01*
X87204674Y-52218180D01*
X87213182Y-52252694D01*
X87213182Y-52282799D01*
X87218249Y-52321288D01*
X87213182Y-52359776D01*
X87213182Y-52389881D01*
X87204675Y-52424393D01*
X87198827Y-52468815D01*
X87186229Y-52499228D01*
X87180348Y-52523088D01*
X87161360Y-52559266D01*
X87141883Y-52606288D01*
X87125423Y-52627738D01*
X87116593Y-52644564D01*
X87086115Y-52678966D01*
X87051300Y-52724339D01*
X87034496Y-52737232D01*
X87025621Y-52747251D01*
X86984000Y-52775979D01*
X86933249Y-52814922D01*
X86919077Y-52820792D01*
X86912716Y-52825183D01*
X86862495Y-52844229D01*
X86795776Y-52871866D01*
X86786355Y-52873106D01*
X86784439Y-52873833D01*
X86738047Y-52879465D01*
X86648249Y-52891288D01*
X86640685Y-52891288D01*
X85855813Y-52891288D01*
X85848249Y-52891288D01*
X85758458Y-52879467D01*
X85712058Y-52873833D01*
X85710141Y-52873106D01*
X85700722Y-52871866D01*
X85634013Y-52844234D01*
X85583781Y-52825183D01*
X85577418Y-52820791D01*
X85563249Y-52814922D01*
X85512506Y-52775986D01*
X85470876Y-52747251D01*
X85461998Y-52737230D01*
X85445198Y-52724339D01*
X85410389Y-52678975D01*
X85379904Y-52644564D01*
X85371071Y-52627734D01*
X85354615Y-52606288D01*
X85335141Y-52559275D01*
X85316149Y-52523088D01*
X85310266Y-52499223D01*
X85297671Y-52468815D01*
X85291823Y-52424395D01*
X85283316Y-52389881D01*
X85283316Y-52359776D01*
X85278249Y-52321288D01*
X85283316Y-52282799D01*
X85283316Y-52252694D01*
X85291823Y-52218178D01*
X85297671Y-52173761D01*
X85310266Y-52143353D01*
X85316149Y-52119487D01*
X85335143Y-52083295D01*
X85354615Y-52036288D01*
X85371069Y-52014843D01*
X85379904Y-51998011D01*
X85410395Y-51963593D01*
X85445198Y-51918237D01*
X85461995Y-51905347D01*
X85470876Y-51895324D01*
X85512519Y-51866579D01*
X85563249Y-51827654D01*
X85577414Y-51821786D01*
X85583781Y-51817392D01*
X85634042Y-51798330D01*
X85700722Y-51770710D01*
X85710137Y-51769470D01*
X85712058Y-51768742D01*
X85758524Y-51763100D01*
X85848249Y-51751288D01*
X86648249Y-51751288D01*
X86737981Y-51763101D01*
G37*
G36*
X132715788Y-49428328D02*
G01*
X132738497Y-49443503D01*
X132753672Y-49466212D01*
X132759000Y-49493000D01*
X132759000Y-51193000D01*
X132753672Y-51219788D01*
X132738497Y-51242497D01*
X132715788Y-51257672D01*
X132689000Y-51263000D01*
X130989000Y-51263000D01*
X130962212Y-51257672D01*
X130939503Y-51242497D01*
X130924328Y-51219788D01*
X130919000Y-51193000D01*
X130919000Y-49493000D01*
X130924328Y-49466212D01*
X130939503Y-49443503D01*
X130962212Y-49428328D01*
X130989000Y-49423000D01*
X132689000Y-49423000D01*
X132715788Y-49428328D01*
G37*
G36*
X134424041Y-49428040D02*
G01*
X134475166Y-49428040D01*
X134519309Y-49437422D01*
X134558361Y-49441269D01*
X134607421Y-49456151D01*
X134663296Y-49468028D01*
X134699052Y-49483947D01*
X134730841Y-49493591D01*
X134781360Y-49520593D01*
X134839000Y-49546257D01*
X134865796Y-49565726D01*
X134889787Y-49578549D01*
X134938723Y-49618710D01*
X134994600Y-49659307D01*
X135012743Y-49679457D01*
X135029110Y-49692889D01*
X135073092Y-49746481D01*
X135123296Y-49802238D01*
X135133842Y-49820505D01*
X135143450Y-49832212D01*
X135178987Y-49898697D01*
X135219462Y-49968802D01*
X135224118Y-49983132D01*
X135228408Y-49991158D01*
X135252065Y-50069145D01*
X135278896Y-50151721D01*
X135279840Y-50160704D01*
X135280730Y-50163638D01*
X135289387Y-50251541D01*
X135299000Y-50343000D01*
X135289386Y-50434465D01*
X135280730Y-50522361D01*
X135279840Y-50525293D01*
X135278896Y-50534279D01*
X135252061Y-50616868D01*
X135228408Y-50694841D01*
X135224119Y-50702865D01*
X135219462Y-50717198D01*
X135178980Y-50787314D01*
X135143450Y-50853787D01*
X135133844Y-50865490D01*
X135123296Y-50883762D01*
X135073082Y-50939529D01*
X135029110Y-50993110D01*
X135012746Y-51006539D01*
X134994600Y-51026693D01*
X134938712Y-51067297D01*
X134889787Y-51107450D01*
X134865802Y-51120270D01*
X134839000Y-51139743D01*
X134781348Y-51165411D01*
X134730841Y-51192408D01*
X134699059Y-51202048D01*
X134663296Y-51217972D01*
X134607410Y-51229850D01*
X134558361Y-51244730D01*
X134519317Y-51248575D01*
X134475166Y-51257960D01*
X134424031Y-51257960D01*
X134379000Y-51262395D01*
X134333969Y-51257960D01*
X134282834Y-51257960D01*
X134238682Y-51248575D01*
X134199638Y-51244730D01*
X134150585Y-51229849D01*
X134094704Y-51217972D01*
X134058942Y-51202049D01*
X134027158Y-51192408D01*
X133976645Y-51165408D01*
X133919000Y-51139743D01*
X133892200Y-51120272D01*
X133868212Y-51107450D01*
X133819278Y-51067290D01*
X133763400Y-51026693D01*
X133745256Y-51006542D01*
X133728889Y-50993110D01*
X133684905Y-50939516D01*
X133634704Y-50883762D01*
X133624157Y-50865494D01*
X133614549Y-50853787D01*
X133579006Y-50787291D01*
X133538538Y-50717198D01*
X133533882Y-50702869D01*
X133529591Y-50694841D01*
X133505923Y-50616821D01*
X133479104Y-50534279D01*
X133478160Y-50525298D01*
X133477269Y-50522361D01*
X133468597Y-50434314D01*
X133459000Y-50343000D01*
X133468596Y-50251692D01*
X133477269Y-50163638D01*
X133478160Y-50160699D01*
X133479104Y-50151721D01*
X133505919Y-50069192D01*
X133529591Y-49991158D01*
X133533883Y-49983127D01*
X133538538Y-49968802D01*
X133578999Y-49898721D01*
X133614549Y-49832212D01*
X133624159Y-49820501D01*
X133634704Y-49802238D01*
X133684896Y-49746493D01*
X133728889Y-49692889D01*
X133745259Y-49679454D01*
X133763400Y-49659307D01*
X133819267Y-49618716D01*
X133868212Y-49578549D01*
X133892205Y-49565724D01*
X133919000Y-49546257D01*
X133976633Y-49520596D01*
X134027158Y-49493591D01*
X134058949Y-49483946D01*
X134094704Y-49468028D01*
X134150574Y-49456152D01*
X134199638Y-49441269D01*
X134238691Y-49437422D01*
X134282834Y-49428040D01*
X134333959Y-49428040D01*
X134379000Y-49423604D01*
X134424041Y-49428040D01*
G37*
G36*
X87971137Y-43132015D02*
G01*
X87993846Y-43147190D01*
X88009021Y-43169899D01*
X88014349Y-43196687D01*
X88014349Y-43806081D01*
X88009021Y-43832869D01*
X87993846Y-43855578D01*
X87988624Y-43859067D01*
X87985687Y-43863463D01*
X87985687Y-43939302D01*
X87988628Y-43943704D01*
X87993846Y-43947191D01*
X88009021Y-43969900D01*
X88014349Y-43996688D01*
X88014349Y-44606092D01*
X88009021Y-44632880D01*
X87993846Y-44655589D01*
X87988625Y-44659077D01*
X87985103Y-44664349D01*
X87985103Y-44740189D01*
X87988625Y-44745460D01*
X87993846Y-44748949D01*
X88009021Y-44771658D01*
X88014349Y-44798446D01*
X88014349Y-45103246D01*
X88009021Y-45130034D01*
X87993846Y-45152743D01*
X87988625Y-45156231D01*
X87984110Y-45162989D01*
X87984110Y-45238829D01*
X87988625Y-45245586D01*
X87993846Y-45249075D01*
X88009021Y-45271784D01*
X88014349Y-45298572D01*
X88014349Y-45603372D01*
X88009021Y-45630160D01*
X87993846Y-45652869D01*
X87988625Y-45656357D01*
X87984110Y-45663115D01*
X87984110Y-45738955D01*
X87988625Y-45745712D01*
X87993846Y-45749201D01*
X88009021Y-45771910D01*
X88014349Y-45798698D01*
X88014349Y-46103498D01*
X88009021Y-46130286D01*
X87993846Y-46152995D01*
X87988625Y-46156483D01*
X87984110Y-46163241D01*
X87984110Y-46239081D01*
X87988625Y-46245838D01*
X87993846Y-46249327D01*
X88009021Y-46272036D01*
X88014349Y-46298824D01*
X88014349Y-46603624D01*
X88009021Y-46630412D01*
X87993846Y-46653121D01*
X87988625Y-46656609D01*
X87984110Y-46663367D01*
X87984110Y-46739207D01*
X87988625Y-46745964D01*
X87993846Y-46749453D01*
X88009021Y-46772162D01*
X88014349Y-46798950D01*
X88014349Y-47103750D01*
X88009021Y-47130538D01*
X87993846Y-47153247D01*
X87988625Y-47156735D01*
X87984110Y-47163493D01*
X87984110Y-47239333D01*
X87988625Y-47246090D01*
X87993846Y-47249579D01*
X88009021Y-47272288D01*
X88014349Y-47299076D01*
X88014349Y-47603876D01*
X88009021Y-47630664D01*
X87993846Y-47653373D01*
X87988625Y-47656861D01*
X87984110Y-47663619D01*
X87984110Y-47739459D01*
X87988625Y-47746216D01*
X87993846Y-47749705D01*
X88009021Y-47772414D01*
X88014349Y-47799202D01*
X88014349Y-48104002D01*
X88009021Y-48130790D01*
X87993846Y-48153499D01*
X87988625Y-48156987D01*
X87984110Y-48163745D01*
X87984110Y-48239585D01*
X87988625Y-48246342D01*
X87993846Y-48249831D01*
X88009021Y-48272540D01*
X88014349Y-48299328D01*
X88014349Y-48604128D01*
X88009021Y-48630916D01*
X87993846Y-48653625D01*
X87988624Y-48657114D01*
X87985035Y-48662486D01*
X87985035Y-48738325D01*
X87988629Y-48743703D01*
X87993846Y-48747190D01*
X88009021Y-48769899D01*
X88014349Y-48796687D01*
X88014349Y-49406069D01*
X88009021Y-49432857D01*
X87993846Y-49455566D01*
X87988625Y-49459054D01*
X87985748Y-49463361D01*
X87985748Y-49539201D01*
X87988625Y-49543507D01*
X87993846Y-49546996D01*
X88009021Y-49569705D01*
X88014349Y-49596493D01*
X88014349Y-50206093D01*
X88009021Y-50232881D01*
X87993846Y-50255590D01*
X87971137Y-50270765D01*
X87944349Y-50276093D01*
X86852149Y-50276093D01*
X86825361Y-50270765D01*
X86802652Y-50255590D01*
X86787477Y-50232881D01*
X86782149Y-50206093D01*
X86782149Y-49596493D01*
X86787477Y-49569705D01*
X86802652Y-49546996D01*
X86807868Y-49543510D01*
X86810749Y-49539199D01*
X86810749Y-49463363D01*
X86807868Y-49459051D01*
X86802652Y-49455566D01*
X86787477Y-49432857D01*
X86782149Y-49406069D01*
X86782149Y-48796687D01*
X86787477Y-48769899D01*
X86802652Y-48747190D01*
X86807865Y-48743706D01*
X86811462Y-48738323D01*
X86811462Y-48662489D01*
X86807868Y-48657110D01*
X86802652Y-48653625D01*
X86787477Y-48630916D01*
X86782149Y-48604128D01*
X86782149Y-48299328D01*
X86787477Y-48272540D01*
X86802652Y-48249831D01*
X86807868Y-48246344D01*
X86812387Y-48239583D01*
X86812387Y-48163747D01*
X86807868Y-48156984D01*
X86802652Y-48153499D01*
X86787477Y-48130790D01*
X86782149Y-48104002D01*
X86782149Y-47799202D01*
X86787477Y-47772414D01*
X86802652Y-47749705D01*
X86807868Y-47746218D01*
X86812387Y-47739457D01*
X86812387Y-47663621D01*
X86807868Y-47656858D01*
X86802652Y-47653373D01*
X86787477Y-47630664D01*
X86782149Y-47603876D01*
X86782149Y-47299076D01*
X86787477Y-47272288D01*
X86802652Y-47249579D01*
X86807868Y-47246092D01*
X86812387Y-47239331D01*
X86812387Y-47163495D01*
X86807868Y-47156732D01*
X86802652Y-47153247D01*
X86787477Y-47130538D01*
X86782149Y-47103750D01*
X86782149Y-46798950D01*
X86787477Y-46772162D01*
X86802652Y-46749453D01*
X86807868Y-46745966D01*
X86812387Y-46739205D01*
X86812387Y-46663369D01*
X86807868Y-46656606D01*
X86802652Y-46653121D01*
X86787477Y-46630412D01*
X86782149Y-46603624D01*
X86782149Y-46298824D01*
X86787477Y-46272036D01*
X86802652Y-46249327D01*
X86807868Y-46245840D01*
X86812387Y-46239079D01*
X86812387Y-46163243D01*
X86807868Y-46156480D01*
X86802652Y-46152995D01*
X86787477Y-46130286D01*
X86782149Y-46103498D01*
X86782149Y-45798698D01*
X86787477Y-45771910D01*
X86802652Y-45749201D01*
X86807868Y-45745714D01*
X86812387Y-45738953D01*
X86812387Y-45663117D01*
X86807868Y-45656354D01*
X86802652Y-45652869D01*
X86787477Y-45630160D01*
X86782149Y-45603372D01*
X86782149Y-45298572D01*
X86787477Y-45271784D01*
X86802652Y-45249075D01*
X86807868Y-45245588D01*
X86812387Y-45238827D01*
X86812387Y-45162991D01*
X86807868Y-45156228D01*
X86802652Y-45152743D01*
X86787477Y-45130034D01*
X86782149Y-45103246D01*
X86782149Y-44798446D01*
X86787477Y-44771658D01*
X86802652Y-44748949D01*
X86807868Y-44745463D01*
X86811394Y-44740187D01*
X86811394Y-44664351D01*
X86807868Y-44659074D01*
X86802652Y-44655589D01*
X86787477Y-44632880D01*
X86782149Y-44606092D01*
X86782149Y-43996688D01*
X86787477Y-43969900D01*
X86802652Y-43947191D01*
X86807865Y-43943707D01*
X86810810Y-43939300D01*
X86810810Y-43863465D01*
X86807869Y-43859064D01*
X86802652Y-43855578D01*
X86787477Y-43832869D01*
X86782149Y-43806081D01*
X86782149Y-43196687D01*
X86787477Y-43169899D01*
X86802652Y-43147190D01*
X86825361Y-43132015D01*
X86852149Y-43126687D01*
X87944349Y-43126687D01*
X87971137Y-43132015D01*
G37*
G36*
X91250760Y-47144498D02*
G01*
X91297677Y-47144498D01*
X91349930Y-47154265D01*
X91407747Y-47159960D01*
X91451664Y-47173282D01*
X91491674Y-47180761D01*
X91547087Y-47202228D01*
X91608471Y-47220849D01*
X91643546Y-47239597D01*
X91675703Y-47252055D01*
X91731577Y-47286650D01*
X91793460Y-47319728D01*
X91819459Y-47341065D01*
X91843496Y-47355948D01*
X91896755Y-47404499D01*
X91955604Y-47452796D01*
X91973043Y-47474045D01*
X91989342Y-47488904D01*
X92036659Y-47551563D01*
X92088672Y-47614940D01*
X92098729Y-47633756D01*
X92108276Y-47646398D01*
X92146245Y-47722652D01*
X92187551Y-47799929D01*
X92191957Y-47814455D01*
X92196245Y-47823066D01*
X92221578Y-47912101D01*
X92248440Y-48000653D01*
X92249322Y-48009610D01*
X92250254Y-48012885D01*
X92259941Y-48117426D01*
X92269000Y-48209400D01*
X92259940Y-48301381D01*
X92250254Y-48405914D01*
X92249322Y-48409188D01*
X92248440Y-48418147D01*
X92221573Y-48506713D01*
X92196245Y-48595733D01*
X92191958Y-48604341D01*
X92187551Y-48618871D01*
X92146238Y-48696161D01*
X92108276Y-48772401D01*
X92098731Y-48785039D01*
X92088672Y-48803860D01*
X92036650Y-48867248D01*
X91989342Y-48929895D01*
X91973046Y-48944750D01*
X91955604Y-48966004D01*
X91896744Y-49014309D01*
X91843496Y-49062851D01*
X91819464Y-49077730D01*
X91793460Y-49099072D01*
X91731565Y-49132155D01*
X91675703Y-49166744D01*
X91643553Y-49179198D01*
X91608471Y-49197951D01*
X91547075Y-49216575D01*
X91491674Y-49238038D01*
X91451671Y-49245515D01*
X91407747Y-49258840D01*
X91349927Y-49264534D01*
X91297677Y-49274302D01*
X91250760Y-49274302D01*
X91199000Y-49279400D01*
X91147240Y-49274302D01*
X91100323Y-49274302D01*
X91048072Y-49264534D01*
X90990253Y-49258840D01*
X90946330Y-49245516D01*
X90906325Y-49238038D01*
X90850920Y-49216573D01*
X90789529Y-49197951D01*
X90754448Y-49179200D01*
X90722296Y-49166744D01*
X90666427Y-49132151D01*
X90604540Y-49099072D01*
X90578538Y-49077733D01*
X90554503Y-49062851D01*
X90501245Y-49014300D01*
X90442396Y-48966004D01*
X90424956Y-48944754D01*
X90408657Y-48929895D01*
X90361336Y-48867233D01*
X90309328Y-48803860D01*
X90299270Y-48785044D01*
X90289723Y-48772401D01*
X90251747Y-48696134D01*
X90210449Y-48618871D01*
X90206043Y-48604346D01*
X90201754Y-48595733D01*
X90176410Y-48506660D01*
X90149560Y-48418147D01*
X90148678Y-48409193D01*
X90147745Y-48405914D01*
X90138042Y-48301209D01*
X90129000Y-48209400D01*
X90138041Y-48117597D01*
X90147745Y-48012885D01*
X90148678Y-48009604D01*
X90149560Y-48000653D01*
X90176405Y-47912154D01*
X90201754Y-47823066D01*
X90206043Y-47814450D01*
X90210449Y-47799929D01*
X90251739Y-47722679D01*
X90289723Y-47646398D01*
X90299272Y-47633752D01*
X90309328Y-47614940D01*
X90361327Y-47551578D01*
X90408657Y-47488904D01*
X90424959Y-47474041D01*
X90442396Y-47452796D01*
X90501234Y-47404508D01*
X90554503Y-47355948D01*
X90578543Y-47341062D01*
X90604540Y-47319728D01*
X90666415Y-47286654D01*
X90722296Y-47252055D01*
X90754455Y-47239596D01*
X90789529Y-47220849D01*
X90850908Y-47202229D01*
X90906325Y-47180761D01*
X90946337Y-47173281D01*
X90990253Y-47159960D01*
X91048068Y-47154265D01*
X91100323Y-47144498D01*
X91147240Y-47144498D01*
X91199000Y-47139400D01*
X91250760Y-47144498D01*
G37*
G36*
X137995228Y-44205740D02*
G01*
X138052299Y-44205740D01*
X138114663Y-44215139D01*
X138180602Y-44220329D01*
X138233746Y-44233087D01*
X138284278Y-44240704D01*
X138350310Y-44261072D01*
X138420157Y-44277841D01*
X138465318Y-44296547D01*
X138508460Y-44309855D01*
X138576196Y-44342474D01*
X138647765Y-44372120D01*
X138684502Y-44394632D01*
X138719825Y-44411643D01*
X138787014Y-44457451D01*
X138857823Y-44500843D01*
X138886174Y-44525057D01*
X138913662Y-44543798D01*
X138977837Y-44603344D01*
X139045158Y-44660842D01*
X139065604Y-44684782D01*
X139085631Y-44703364D01*
X139144180Y-44776782D01*
X139205157Y-44848177D01*
X139218566Y-44870060D01*
X139231907Y-44886788D01*
X139282221Y-44973935D01*
X139333880Y-45058235D01*
X139341467Y-45076553D01*
X139349204Y-45089953D01*
X139388662Y-45190490D01*
X139428159Y-45285843D01*
X139431424Y-45299446D01*
X139434913Y-45308334D01*
X139461033Y-45422774D01*
X139485671Y-45525398D01*
X139486310Y-45533519D01*
X139487118Y-45537059D01*
X139497658Y-45677718D01*
X139505000Y-45771000D01*
X139497658Y-45864289D01*
X139487118Y-46004940D01*
X139486310Y-46008478D01*
X139485671Y-46016602D01*
X139461028Y-46119245D01*
X139434913Y-46233665D01*
X139431425Y-46242550D01*
X139428159Y-46256157D01*
X139388654Y-46351527D01*
X139349204Y-46452046D01*
X139341469Y-46465442D01*
X139333880Y-46483765D01*
X139282211Y-46568081D01*
X139231907Y-46655211D01*
X139218569Y-46671935D01*
X139205157Y-46693823D01*
X139144168Y-46765231D01*
X139085631Y-46838635D01*
X139065608Y-46857213D01*
X139045158Y-46881158D01*
X138977823Y-46938666D01*
X138913662Y-46998201D01*
X138886180Y-47016937D01*
X138857823Y-47041157D01*
X138786999Y-47084557D01*
X138719825Y-47130356D01*
X138684509Y-47147362D01*
X138647765Y-47169880D01*
X138576181Y-47199531D01*
X138508460Y-47232144D01*
X138465327Y-47245448D01*
X138420157Y-47264159D01*
X138350296Y-47280931D01*
X138284278Y-47301295D01*
X138233755Y-47308910D01*
X138180602Y-47321671D01*
X138114659Y-47326860D01*
X138052299Y-47336260D01*
X137995228Y-47336260D01*
X137935000Y-47341000D01*
X137874772Y-47336260D01*
X137817701Y-47336260D01*
X137755339Y-47326860D01*
X137689398Y-47321671D01*
X137636245Y-47308910D01*
X137585721Y-47301295D01*
X137519699Y-47280929D01*
X137449843Y-47264159D01*
X137404675Y-47245449D01*
X137361539Y-47232144D01*
X137293813Y-47199529D01*
X137222235Y-47169880D01*
X137185490Y-47147363D01*
X137150175Y-47130356D01*
X137082996Y-47084555D01*
X137012177Y-47041157D01*
X136983822Y-47016940D01*
X136956337Y-46998201D01*
X136892163Y-46938655D01*
X136824842Y-46881158D01*
X136804394Y-46857217D01*
X136784368Y-46838635D01*
X136725816Y-46765214D01*
X136664843Y-46693823D01*
X136651433Y-46671941D01*
X136638092Y-46655211D01*
X136587771Y-46568052D01*
X136536120Y-46483765D01*
X136528533Y-46465449D01*
X136520795Y-46452046D01*
X136481325Y-46351481D01*
X136441841Y-46256157D01*
X136438576Y-46242557D01*
X136435086Y-46233665D01*
X136408951Y-46119160D01*
X136384329Y-46016602D01*
X136383690Y-46008485D01*
X136382881Y-46004940D01*
X136372321Y-45864023D01*
X136365000Y-45771000D01*
X136372320Y-45677984D01*
X136382881Y-45537059D01*
X136383690Y-45533513D01*
X136384329Y-45525398D01*
X136408946Y-45422858D01*
X136435086Y-45308334D01*
X136438576Y-45299440D01*
X136441841Y-45285843D01*
X136481318Y-45190536D01*
X136520795Y-45089953D01*
X136528534Y-45076547D01*
X136536120Y-45058235D01*
X136587761Y-44973963D01*
X136638092Y-44886788D01*
X136651436Y-44870054D01*
X136664843Y-44848177D01*
X136725804Y-44776799D01*
X136784368Y-44703364D01*
X136804399Y-44684777D01*
X136824842Y-44660842D01*
X136892150Y-44603355D01*
X136956337Y-44543798D01*
X136983828Y-44525054D01*
X137012177Y-44500843D01*
X137082982Y-44457453D01*
X137150175Y-44411643D01*
X137185498Y-44394631D01*
X137222235Y-44372120D01*
X137293799Y-44342476D01*
X137361539Y-44309855D01*
X137404684Y-44296546D01*
X137449843Y-44277841D01*
X137519684Y-44261073D01*
X137585721Y-44240704D01*
X137636254Y-44233087D01*
X137689398Y-44220329D01*
X137755335Y-44215139D01*
X137817701Y-44205740D01*
X137874772Y-44205740D01*
X137935000Y-44201000D01*
X137995228Y-44205740D01*
G37*
G36*
X112486788Y-42721328D02*
G01*
X112509497Y-42736503D01*
X112524672Y-42759212D01*
X112530000Y-42786000D01*
X112530000Y-45226000D01*
X112524672Y-45252788D01*
X112509497Y-45275497D01*
X112486788Y-45290672D01*
X112460000Y-45296000D01*
X111340000Y-45296000D01*
X111313212Y-45290672D01*
X111290503Y-45275497D01*
X111275328Y-45252788D01*
X111270000Y-45226000D01*
X111270000Y-42786000D01*
X111275328Y-42759212D01*
X111290503Y-42736503D01*
X111313212Y-42721328D01*
X111340000Y-42716000D01*
X112460000Y-42716000D01*
X112486788Y-42721328D01*
G37*
G36*
X115026788Y-42721328D02*
G01*
X115049497Y-42736503D01*
X115064672Y-42759212D01*
X115070000Y-42786000D01*
X115070000Y-45226000D01*
X115064672Y-45252788D01*
X115049497Y-45275497D01*
X115026788Y-45290672D01*
X115000000Y-45296000D01*
X113880000Y-45296000D01*
X113853212Y-45290672D01*
X113830503Y-45275497D01*
X113815328Y-45252788D01*
X113810000Y-45226000D01*
X113810000Y-42786000D01*
X113815328Y-42759212D01*
X113830503Y-42736503D01*
X113853212Y-42721328D01*
X113880000Y-42716000D01*
X115000000Y-42716000D01*
X115026788Y-42721328D01*
G37*
G36*
X117566788Y-42721328D02*
G01*
X117589497Y-42736503D01*
X117604672Y-42759212D01*
X117610000Y-42786000D01*
X117610000Y-45226000D01*
X117604672Y-45252788D01*
X117589497Y-45275497D01*
X117566788Y-45290672D01*
X117540000Y-45296000D01*
X116420000Y-45296000D01*
X116393212Y-45290672D01*
X116370503Y-45275497D01*
X116355328Y-45252788D01*
X116350000Y-45226000D01*
X116350000Y-42786000D01*
X116355328Y-42759212D01*
X116370503Y-42736503D01*
X116393212Y-42721328D01*
X116420000Y-42716000D01*
X117540000Y-42716000D01*
X117566788Y-42721328D01*
G37*
G36*
X120106788Y-42721328D02*
G01*
X120129497Y-42736503D01*
X120144672Y-42759212D01*
X120150000Y-42786000D01*
X120150000Y-45226000D01*
X120144672Y-45252788D01*
X120129497Y-45275497D01*
X120106788Y-45290672D01*
X120080000Y-45296000D01*
X118960000Y-45296000D01*
X118933212Y-45290672D01*
X118910503Y-45275497D01*
X118895328Y-45252788D01*
X118890000Y-45226000D01*
X118890000Y-42786000D01*
X118895328Y-42759212D01*
X118910503Y-42736503D01*
X118933212Y-42721328D01*
X118960000Y-42716000D01*
X120080000Y-42716000D01*
X120106788Y-42721328D01*
G37*
G36*
X122646788Y-42721328D02*
G01*
X122669497Y-42736503D01*
X122684672Y-42759212D01*
X122690000Y-42786000D01*
X122690000Y-45226000D01*
X122684672Y-45252788D01*
X122669497Y-45275497D01*
X122646788Y-45290672D01*
X122620000Y-45296000D01*
X121500000Y-45296000D01*
X121473212Y-45290672D01*
X121450503Y-45275497D01*
X121435328Y-45252788D01*
X121430000Y-45226000D01*
X121430000Y-42786000D01*
X121435328Y-42759212D01*
X121450503Y-42736503D01*
X121473212Y-42721328D01*
X121500000Y-42716000D01*
X122620000Y-42716000D01*
X122646788Y-42721328D01*
G37*
G36*
X125186788Y-42721328D02*
G01*
X125209497Y-42736503D01*
X125224672Y-42759212D01*
X125230000Y-42786000D01*
X125230000Y-45226000D01*
X125224672Y-45252788D01*
X125209497Y-45275497D01*
X125186788Y-45290672D01*
X125160000Y-45296000D01*
X124040000Y-45296000D01*
X124013212Y-45290672D01*
X123990503Y-45275497D01*
X123975328Y-45252788D01*
X123970000Y-45226000D01*
X123970000Y-42786000D01*
X123975328Y-42759212D01*
X123990503Y-42736503D01*
X124013212Y-42721328D01*
X124040000Y-42716000D01*
X125160000Y-42716000D01*
X125186788Y-42721328D01*
G37*
G36*
X91250760Y-42928098D02*
G01*
X91297677Y-42928098D01*
X91349930Y-42937865D01*
X91407747Y-42943560D01*
X91451664Y-42956882D01*
X91491674Y-42964361D01*
X91547087Y-42985828D01*
X91608471Y-43004449D01*
X91643546Y-43023197D01*
X91675703Y-43035655D01*
X91731577Y-43070250D01*
X91793460Y-43103328D01*
X91819459Y-43124665D01*
X91843496Y-43139548D01*
X91896755Y-43188099D01*
X91955604Y-43236396D01*
X91973043Y-43257645D01*
X91989342Y-43272504D01*
X92036659Y-43335163D01*
X92088672Y-43398540D01*
X92098729Y-43417356D01*
X92108276Y-43429998D01*
X92146245Y-43506252D01*
X92187551Y-43583529D01*
X92191957Y-43598055D01*
X92196245Y-43606666D01*
X92221578Y-43695701D01*
X92248440Y-43784253D01*
X92249322Y-43793210D01*
X92250254Y-43796485D01*
X92259941Y-43901026D01*
X92269000Y-43993000D01*
X92259940Y-44084981D01*
X92250254Y-44189514D01*
X92249322Y-44192788D01*
X92248440Y-44201747D01*
X92221573Y-44290313D01*
X92196245Y-44379333D01*
X92191958Y-44387941D01*
X92187551Y-44402471D01*
X92146238Y-44479761D01*
X92108276Y-44556001D01*
X92098731Y-44568639D01*
X92088672Y-44587460D01*
X92036650Y-44650848D01*
X91989342Y-44713495D01*
X91973046Y-44728350D01*
X91955604Y-44749604D01*
X91896744Y-44797909D01*
X91843496Y-44846451D01*
X91819464Y-44861330D01*
X91793460Y-44882672D01*
X91731565Y-44915755D01*
X91675703Y-44950344D01*
X91643553Y-44962798D01*
X91608471Y-44981551D01*
X91547075Y-45000175D01*
X91491674Y-45021638D01*
X91451671Y-45029115D01*
X91407747Y-45042440D01*
X91349927Y-45048134D01*
X91297677Y-45057902D01*
X91250760Y-45057902D01*
X91199000Y-45063000D01*
X91147240Y-45057902D01*
X91100323Y-45057902D01*
X91048072Y-45048134D01*
X90990253Y-45042440D01*
X90946330Y-45029116D01*
X90906325Y-45021638D01*
X90850920Y-45000173D01*
X90789529Y-44981551D01*
X90754448Y-44962800D01*
X90722296Y-44950344D01*
X90666427Y-44915751D01*
X90604540Y-44882672D01*
X90578538Y-44861333D01*
X90554503Y-44846451D01*
X90501245Y-44797900D01*
X90442396Y-44749604D01*
X90424956Y-44728354D01*
X90408657Y-44713495D01*
X90361336Y-44650833D01*
X90309328Y-44587460D01*
X90299270Y-44568644D01*
X90289723Y-44556001D01*
X90251747Y-44479734D01*
X90210449Y-44402471D01*
X90206043Y-44387946D01*
X90201754Y-44379333D01*
X90176410Y-44290260D01*
X90149560Y-44201747D01*
X90148678Y-44192793D01*
X90147745Y-44189514D01*
X90138042Y-44084809D01*
X90129000Y-43993000D01*
X90138041Y-43901197D01*
X90147745Y-43796485D01*
X90148678Y-43793204D01*
X90149560Y-43784253D01*
X90176405Y-43695754D01*
X90201754Y-43606666D01*
X90206043Y-43598050D01*
X90210449Y-43583529D01*
X90251739Y-43506279D01*
X90289723Y-43429998D01*
X90299272Y-43417352D01*
X90309328Y-43398540D01*
X90361327Y-43335178D01*
X90408657Y-43272504D01*
X90424959Y-43257641D01*
X90442396Y-43236396D01*
X90501234Y-43188108D01*
X90554503Y-43139548D01*
X90578543Y-43124662D01*
X90604540Y-43103328D01*
X90666415Y-43070254D01*
X90722296Y-43035655D01*
X90754455Y-43023196D01*
X90789529Y-43004449D01*
X90850908Y-42985829D01*
X90906325Y-42964361D01*
X90946337Y-42956881D01*
X90990253Y-42943560D01*
X91048068Y-42937865D01*
X91100323Y-42928098D01*
X91147240Y-42928098D01*
X91199000Y-42923000D01*
X91250760Y-42928098D01*
G37*
G36*
X139461788Y-39126328D02*
G01*
X139484497Y-39141503D01*
X139499672Y-39164212D01*
X139505000Y-39191000D01*
X139505000Y-42191000D01*
X139499672Y-42217788D01*
X139484497Y-42240497D01*
X139461788Y-42255672D01*
X139435000Y-42261000D01*
X136435000Y-42261000D01*
X136408212Y-42255672D01*
X136385503Y-42240497D01*
X136370328Y-42217788D01*
X136365000Y-42191000D01*
X136365000Y-39191000D01*
X136370328Y-39164212D01*
X136385503Y-39141503D01*
X136408212Y-39126328D01*
X136435000Y-39121000D01*
X139435000Y-39121000D01*
X139461788Y-39126328D01*
G37*
G36*
X86737981Y-40523099D02*
G01*
X86784439Y-40528740D01*
X86786359Y-40529468D01*
X86795776Y-40530708D01*
X86862466Y-40558332D01*
X86912716Y-40577390D01*
X86919080Y-40581783D01*
X86933249Y-40587652D01*
X86983987Y-40626584D01*
X87025621Y-40655322D01*
X87034498Y-40665343D01*
X87051300Y-40678235D01*
X87086109Y-40723599D01*
X87116593Y-40758009D01*
X87125425Y-40774837D01*
X87141883Y-40796286D01*
X87161358Y-40843302D01*
X87180348Y-40879485D01*
X87186229Y-40903346D01*
X87198827Y-40933759D01*
X87204674Y-40978178D01*
X87213182Y-41012692D01*
X87213182Y-41042797D01*
X87218249Y-41081286D01*
X87213182Y-41119774D01*
X87213182Y-41149879D01*
X87204675Y-41184391D01*
X87198827Y-41228813D01*
X87186229Y-41259226D01*
X87180348Y-41283086D01*
X87161360Y-41319264D01*
X87141883Y-41366286D01*
X87125423Y-41387736D01*
X87116593Y-41404562D01*
X87086115Y-41438964D01*
X87051300Y-41484337D01*
X87034496Y-41497230D01*
X87025621Y-41507249D01*
X86984000Y-41535977D01*
X86933249Y-41574920D01*
X86919077Y-41580790D01*
X86912716Y-41585181D01*
X86862495Y-41604227D01*
X86795776Y-41631864D01*
X86786355Y-41633104D01*
X86784439Y-41633831D01*
X86738047Y-41639463D01*
X86648249Y-41651286D01*
X86640685Y-41651286D01*
X85855813Y-41651286D01*
X85848249Y-41651286D01*
X85758458Y-41639465D01*
X85712058Y-41633831D01*
X85710141Y-41633104D01*
X85700722Y-41631864D01*
X85634013Y-41604232D01*
X85583781Y-41585181D01*
X85577418Y-41580789D01*
X85563249Y-41574920D01*
X85512506Y-41535984D01*
X85470876Y-41507249D01*
X85461998Y-41497228D01*
X85445198Y-41484337D01*
X85410389Y-41438973D01*
X85379904Y-41404562D01*
X85371071Y-41387732D01*
X85354615Y-41366286D01*
X85335141Y-41319273D01*
X85316149Y-41283086D01*
X85310266Y-41259221D01*
X85297671Y-41228813D01*
X85291823Y-41184393D01*
X85283316Y-41149879D01*
X85283316Y-41119774D01*
X85278249Y-41081286D01*
X85283316Y-41042797D01*
X85283316Y-41012692D01*
X85291823Y-40978176D01*
X85297671Y-40933759D01*
X85310266Y-40903351D01*
X85316149Y-40879485D01*
X85335143Y-40843293D01*
X85354615Y-40796286D01*
X85371069Y-40774841D01*
X85379904Y-40758009D01*
X85410395Y-40723591D01*
X85445198Y-40678235D01*
X85461995Y-40665345D01*
X85470876Y-40655322D01*
X85512519Y-40626577D01*
X85563249Y-40587652D01*
X85577414Y-40581784D01*
X85583781Y-40577390D01*
X85634042Y-40558328D01*
X85700722Y-40530708D01*
X85710137Y-40529468D01*
X85712058Y-40528740D01*
X85758524Y-40523098D01*
X85848249Y-40511286D01*
X86648249Y-40511286D01*
X86737981Y-40523099D01*
G37*
G36*
X82937981Y-40523096D02*
G01*
X82984439Y-40528737D01*
X82986359Y-40529465D01*
X82995776Y-40530705D01*
X83062466Y-40558329D01*
X83112716Y-40577387D01*
X83119080Y-40581780D01*
X83133249Y-40587649D01*
X83183987Y-40626581D01*
X83225621Y-40655319D01*
X83234498Y-40665340D01*
X83251300Y-40678232D01*
X83286109Y-40723596D01*
X83316593Y-40758006D01*
X83325425Y-40774834D01*
X83341883Y-40796283D01*
X83361358Y-40843299D01*
X83380348Y-40879482D01*
X83386229Y-40903343D01*
X83398827Y-40933756D01*
X83404674Y-40978175D01*
X83413182Y-41012689D01*
X83413182Y-41042794D01*
X83418249Y-41081283D01*
X83413182Y-41119771D01*
X83413182Y-41149876D01*
X83404675Y-41184388D01*
X83398827Y-41228810D01*
X83386229Y-41259223D01*
X83380348Y-41283083D01*
X83361360Y-41319261D01*
X83341883Y-41366283D01*
X83325423Y-41387733D01*
X83316593Y-41404559D01*
X83286115Y-41438961D01*
X83251300Y-41484334D01*
X83234496Y-41497227D01*
X83225621Y-41507246D01*
X83184000Y-41535974D01*
X83133249Y-41574917D01*
X83119077Y-41580787D01*
X83112716Y-41585178D01*
X83062495Y-41604224D01*
X82995776Y-41631861D01*
X82986355Y-41633101D01*
X82984439Y-41633828D01*
X82938047Y-41639460D01*
X82848249Y-41651283D01*
X82840685Y-41651283D01*
X81655813Y-41651283D01*
X81648249Y-41651283D01*
X81558458Y-41639462D01*
X81512058Y-41633828D01*
X81510141Y-41633101D01*
X81500722Y-41631861D01*
X81434013Y-41604229D01*
X81383781Y-41585178D01*
X81377418Y-41580786D01*
X81363249Y-41574917D01*
X81312506Y-41535981D01*
X81270876Y-41507246D01*
X81261998Y-41497225D01*
X81245198Y-41484334D01*
X81210389Y-41438970D01*
X81179904Y-41404559D01*
X81171071Y-41387729D01*
X81154615Y-41366283D01*
X81135141Y-41319270D01*
X81116149Y-41283083D01*
X81110266Y-41259218D01*
X81097671Y-41228810D01*
X81091823Y-41184390D01*
X81083316Y-41149876D01*
X81083316Y-41119771D01*
X81078249Y-41081283D01*
X81083316Y-41042794D01*
X81083316Y-41012689D01*
X81091823Y-40978173D01*
X81097671Y-40933756D01*
X81110266Y-40903348D01*
X81116149Y-40879482D01*
X81135143Y-40843290D01*
X81154615Y-40796283D01*
X81171069Y-40774838D01*
X81179904Y-40758006D01*
X81210395Y-40723588D01*
X81245198Y-40678232D01*
X81261995Y-40665342D01*
X81270876Y-40655319D01*
X81312519Y-40626574D01*
X81363249Y-40587649D01*
X81377414Y-40581781D01*
X81383781Y-40577387D01*
X81434042Y-40558325D01*
X81500722Y-40530705D01*
X81510137Y-40529465D01*
X81512058Y-40528737D01*
X81558524Y-40523095D01*
X81648249Y-40511283D01*
X82848249Y-40511283D01*
X82937981Y-40523096D01*
G37*
G36*
X110122788Y-40487328D02*
G01*
X110145497Y-40502503D01*
X110160672Y-40525212D01*
X110166000Y-40552000D01*
X110166000Y-41202000D01*
X110160672Y-41228788D01*
X110145497Y-41251497D01*
X110122788Y-41266672D01*
X110096000Y-41272000D01*
X109046000Y-41272000D01*
X109019212Y-41266672D01*
X108996503Y-41251497D01*
X108981328Y-41228788D01*
X108976000Y-41202000D01*
X108976000Y-40552000D01*
X108981328Y-40525212D01*
X108996503Y-40502503D01*
X109019212Y-40487328D01*
X109046000Y-40482000D01*
X110096000Y-40482000D01*
X110122788Y-40487328D01*
G37*
G36*
X114272788Y-40487328D02*
G01*
X114295497Y-40502503D01*
X114310672Y-40525212D01*
X114316000Y-40552000D01*
X114316000Y-41202000D01*
X114310672Y-41228788D01*
X114295497Y-41251497D01*
X114272788Y-41266672D01*
X114246000Y-41272000D01*
X113196000Y-41272000D01*
X113169212Y-41266672D01*
X113146503Y-41251497D01*
X113131328Y-41228788D01*
X113126000Y-41202000D01*
X113126000Y-40552000D01*
X113131328Y-40525212D01*
X113146503Y-40502503D01*
X113169212Y-40487328D01*
X113196000Y-40482000D01*
X114246000Y-40482000D01*
X114272788Y-40487328D01*
G37*
G36*
X117234788Y-40487328D02*
G01*
X117257497Y-40502503D01*
X117272672Y-40525212D01*
X117278000Y-40552000D01*
X117278000Y-41202000D01*
X117272672Y-41228788D01*
X117257497Y-41251497D01*
X117234788Y-41266672D01*
X117208000Y-41272000D01*
X116158000Y-41272000D01*
X116131212Y-41266672D01*
X116108503Y-41251497D01*
X116093328Y-41228788D01*
X116088000Y-41202000D01*
X116088000Y-40552000D01*
X116093328Y-40525212D01*
X116108503Y-40502503D01*
X116131212Y-40487328D01*
X116158000Y-40482000D01*
X117208000Y-40482000D01*
X117234788Y-40487328D01*
G37*
G36*
X121384788Y-40487328D02*
G01*
X121407497Y-40502503D01*
X121422672Y-40525212D01*
X121428000Y-40552000D01*
X121428000Y-41202000D01*
X121422672Y-41228788D01*
X121407497Y-41251497D01*
X121384788Y-41266672D01*
X121358000Y-41272000D01*
X120308000Y-41272000D01*
X120281212Y-41266672D01*
X120258503Y-41251497D01*
X120243328Y-41228788D01*
X120238000Y-41202000D01*
X120238000Y-40552000D01*
X120243328Y-40525212D01*
X120258503Y-40502503D01*
X120281212Y-40487328D01*
X120308000Y-40482000D01*
X121358000Y-40482000D01*
X121384788Y-40487328D01*
G37*
G36*
X124473788Y-40487328D02*
G01*
X124496497Y-40502503D01*
X124511672Y-40525212D01*
X124517000Y-40552000D01*
X124517000Y-41202000D01*
X124511672Y-41228788D01*
X124496497Y-41251497D01*
X124473788Y-41266672D01*
X124447000Y-41272000D01*
X123397000Y-41272000D01*
X123370212Y-41266672D01*
X123347503Y-41251497D01*
X123332328Y-41228788D01*
X123327000Y-41202000D01*
X123327000Y-40552000D01*
X123332328Y-40525212D01*
X123347503Y-40502503D01*
X123370212Y-40487328D01*
X123397000Y-40482000D01*
X124447000Y-40482000D01*
X124473788Y-40487328D01*
G37*
G36*
X128623788Y-40487328D02*
G01*
X128646497Y-40502503D01*
X128661672Y-40525212D01*
X128667000Y-40552000D01*
X128667000Y-41202000D01*
X128661672Y-41228788D01*
X128646497Y-41251497D01*
X128623788Y-41266672D01*
X128597000Y-41272000D01*
X127547000Y-41272000D01*
X127520212Y-41266672D01*
X127497503Y-41251497D01*
X127482328Y-41228788D01*
X127477000Y-41202000D01*
X127477000Y-40552000D01*
X127482328Y-40525212D01*
X127497503Y-40502503D01*
X127520212Y-40487328D01*
X127547000Y-40482000D01*
X128597000Y-40482000D01*
X128623788Y-40487328D01*
G37*
G36*
X110122788Y-38337328D02*
G01*
X110145497Y-38352503D01*
X110160672Y-38375212D01*
X110166000Y-38402000D01*
X110166000Y-39052000D01*
X110160672Y-39078788D01*
X110145497Y-39101497D01*
X110122788Y-39116672D01*
X110096000Y-39122000D01*
X109046000Y-39122000D01*
X109019212Y-39116672D01*
X108996503Y-39101497D01*
X108981328Y-39078788D01*
X108976000Y-39052000D01*
X108976000Y-38402000D01*
X108981328Y-38375212D01*
X108996503Y-38352503D01*
X109019212Y-38337328D01*
X109046000Y-38332000D01*
X110096000Y-38332000D01*
X110122788Y-38337328D01*
G37*
G36*
X114272788Y-38337328D02*
G01*
X114295497Y-38352503D01*
X114310672Y-38375212D01*
X114316000Y-38402000D01*
X114316000Y-39052000D01*
X114310672Y-39078788D01*
X114295497Y-39101497D01*
X114272788Y-39116672D01*
X114246000Y-39122000D01*
X113196000Y-39122000D01*
X113169212Y-39116672D01*
X113146503Y-39101497D01*
X113131328Y-39078788D01*
X113126000Y-39052000D01*
X113126000Y-38402000D01*
X113131328Y-38375212D01*
X113146503Y-38352503D01*
X113169212Y-38337328D01*
X113196000Y-38332000D01*
X114246000Y-38332000D01*
X114272788Y-38337328D01*
G37*
G36*
X117234788Y-38337328D02*
G01*
X117257497Y-38352503D01*
X117272672Y-38375212D01*
X117278000Y-38402000D01*
X117278000Y-39052000D01*
X117272672Y-39078788D01*
X117257497Y-39101497D01*
X117234788Y-39116672D01*
X117208000Y-39122000D01*
X116158000Y-39122000D01*
X116131212Y-39116672D01*
X116108503Y-39101497D01*
X116093328Y-39078788D01*
X116088000Y-39052000D01*
X116088000Y-38402000D01*
X116093328Y-38375212D01*
X116108503Y-38352503D01*
X116131212Y-38337328D01*
X116158000Y-38332000D01*
X117208000Y-38332000D01*
X117234788Y-38337328D01*
G37*
G36*
X121384788Y-38337328D02*
G01*
X121407497Y-38352503D01*
X121422672Y-38375212D01*
X121428000Y-38402000D01*
X121428000Y-39052000D01*
X121422672Y-39078788D01*
X121407497Y-39101497D01*
X121384788Y-39116672D01*
X121358000Y-39122000D01*
X120308000Y-39122000D01*
X120281212Y-39116672D01*
X120258503Y-39101497D01*
X120243328Y-39078788D01*
X120238000Y-39052000D01*
X120238000Y-38402000D01*
X120243328Y-38375212D01*
X120258503Y-38352503D01*
X120281212Y-38337328D01*
X120308000Y-38332000D01*
X121358000Y-38332000D01*
X121384788Y-38337328D01*
G37*
G36*
X124473788Y-38337328D02*
G01*
X124496497Y-38352503D01*
X124511672Y-38375212D01*
X124517000Y-38402000D01*
X124517000Y-39052000D01*
X124511672Y-39078788D01*
X124496497Y-39101497D01*
X124473788Y-39116672D01*
X124447000Y-39122000D01*
X123397000Y-39122000D01*
X123370212Y-39116672D01*
X123347503Y-39101497D01*
X123332328Y-39078788D01*
X123327000Y-39052000D01*
X123327000Y-38402000D01*
X123332328Y-38375212D01*
X123347503Y-38352503D01*
X123370212Y-38337328D01*
X123397000Y-38332000D01*
X124447000Y-38332000D01*
X124473788Y-38337328D01*
G37*
G36*
X128623788Y-38337328D02*
G01*
X128646497Y-38352503D01*
X128661672Y-38375212D01*
X128667000Y-38402000D01*
X128667000Y-39052000D01*
X128661672Y-39078788D01*
X128646497Y-39101497D01*
X128623788Y-39116672D01*
X128597000Y-39122000D01*
X127547000Y-39122000D01*
X127520212Y-39116672D01*
X127497503Y-39101497D01*
X127482328Y-39078788D01*
X127477000Y-39052000D01*
X127477000Y-38402000D01*
X127482328Y-38375212D01*
X127497503Y-38352503D01*
X127520212Y-38337328D01*
X127547000Y-38332000D01*
X128597000Y-38332000D01*
X128623788Y-38337328D01*
G37*
G36*
X130927788Y-36238328D02*
G01*
X130950497Y-36253503D01*
X130965672Y-36276212D01*
X130971000Y-36303000D01*
X130971000Y-37203000D01*
X130965672Y-37229788D01*
X130950497Y-37252497D01*
X130927788Y-37267672D01*
X130901000Y-37273000D01*
X129401000Y-37273000D01*
X129374212Y-37267672D01*
X129351503Y-37252497D01*
X129336328Y-37229788D01*
X129331000Y-37203000D01*
X129331000Y-36303000D01*
X129336328Y-36276212D01*
X129351503Y-36253503D01*
X129374212Y-36238328D01*
X129401000Y-36233000D01*
X130901000Y-36233000D01*
X130927788Y-36238328D01*
G37*
G36*
X135827788Y-36238328D02*
G01*
X135850497Y-36253503D01*
X135865672Y-36276212D01*
X135871000Y-36303000D01*
X135871000Y-37203000D01*
X135865672Y-37229788D01*
X135850497Y-37252497D01*
X135827788Y-37267672D01*
X135801000Y-37273000D01*
X134301000Y-37273000D01*
X134274212Y-37267672D01*
X134251503Y-37252497D01*
X134236328Y-37229788D01*
X134231000Y-37203000D01*
X134231000Y-36303000D01*
X134236328Y-36276212D01*
X134251503Y-36253503D01*
X134274212Y-36238328D01*
X134301000Y-36233000D01*
X135801000Y-36233000D01*
X135827788Y-36238328D01*
G37*
G36*
X122190288Y-32418528D02*
G01*
X122212997Y-32433703D01*
X122228172Y-32456412D01*
X122233500Y-32483200D01*
X122233500Y-34083400D01*
X122228172Y-34110188D01*
X122212997Y-34132897D01*
X122190288Y-34148072D01*
X122163500Y-34153400D01*
X121303844Y-34153400D01*
X121229310Y-34261382D01*
X121239105Y-34287209D01*
X121265171Y-34350138D01*
X121266340Y-34359023D01*
X121266859Y-34360390D01*
X121270874Y-34393461D01*
X121282702Y-34483300D01*
X121270872Y-34573155D01*
X121266859Y-34606208D01*
X121266341Y-34607573D01*
X121265171Y-34616462D01*
X121239096Y-34679411D01*
X121229310Y-34705216D01*
X121303845Y-34813200D01*
X122163500Y-34813200D01*
X122190288Y-34818528D01*
X122212997Y-34833703D01*
X122228172Y-34856412D01*
X122233500Y-34883200D01*
X122233500Y-36483400D01*
X122228172Y-36510188D01*
X122212997Y-36532897D01*
X122190288Y-36548072D01*
X122163500Y-36553400D01*
X121172900Y-36553400D01*
X121146112Y-36548072D01*
X121123403Y-36532897D01*
X121108228Y-36510188D01*
X121102900Y-36483400D01*
X121102900Y-35024587D01*
X121007080Y-34949517D01*
X120929356Y-34968674D01*
X120901364Y-34980269D01*
X120860473Y-34985652D01*
X120830107Y-34993137D01*
X120803621Y-34993137D01*
X120768202Y-34997800D01*
X120732783Y-34993137D01*
X120706297Y-34993137D01*
X120675929Y-34985652D01*
X120635040Y-34980269D01*
X120607049Y-34968675D01*
X120586082Y-34963507D01*
X120554291Y-34946821D01*
X120510952Y-34928870D01*
X120491178Y-34913697D01*
X120476454Y-34905969D01*
X120446346Y-34879296D01*
X120404396Y-34847106D01*
X120392473Y-34831568D01*
X120383778Y-34823865D01*
X120358845Y-34787744D01*
X120322632Y-34740550D01*
X120317172Y-34727370D01*
X120313448Y-34721974D01*
X120297288Y-34679366D01*
X120271233Y-34616462D01*
X120270063Y-34607580D01*
X120269544Y-34606210D01*
X120265516Y-34573040D01*
X120253702Y-34483300D01*
X120265515Y-34393568D01*
X120269544Y-34360389D01*
X120270063Y-34359018D01*
X120271233Y-34350138D01*
X120297284Y-34287244D01*
X120313448Y-34244625D01*
X120317173Y-34239227D01*
X120322632Y-34226050D01*
X120358838Y-34178864D01*
X120383778Y-34142734D01*
X120392476Y-34135028D01*
X120404396Y-34119494D01*
X120446338Y-34087310D01*
X120476454Y-34060630D01*
X120491182Y-34052899D01*
X120510952Y-34037730D01*
X120554282Y-34019781D01*
X120586082Y-34003092D01*
X120607054Y-33997922D01*
X120635040Y-33986331D01*
X120675927Y-33980948D01*
X120706297Y-33973463D01*
X120732783Y-33973463D01*
X120768202Y-33968800D01*
X120803621Y-33973463D01*
X120830108Y-33973463D01*
X120860477Y-33980948D01*
X120901364Y-33986331D01*
X120929351Y-33997923D01*
X121007081Y-34017082D01*
X121102900Y-33942012D01*
X121102900Y-32495508D01*
X121102900Y-32483200D01*
X121108228Y-32456412D01*
X121123403Y-32433703D01*
X121146112Y-32418528D01*
X121172900Y-32413200D01*
X122163500Y-32413200D01*
X122190288Y-32418528D01*
G37*
G36*
X124690288Y-34818528D02*
G01*
X124712997Y-34833703D01*
X124728172Y-34856412D01*
X124733500Y-34883200D01*
X124733500Y-36483400D01*
X124728172Y-36510188D01*
X124712997Y-36532897D01*
X124690288Y-36548072D01*
X124663500Y-36553400D01*
X123672900Y-36553400D01*
X123646112Y-36548072D01*
X123623403Y-36532897D01*
X123608228Y-36510188D01*
X123602900Y-36483400D01*
X123602900Y-34883200D01*
X123608228Y-34856412D01*
X123623403Y-34833703D01*
X123646112Y-34818528D01*
X123672900Y-34813200D01*
X124663500Y-34813200D01*
X124690288Y-34818528D01*
G37*
G36*
X127190288Y-32418528D02*
G01*
X127212997Y-32433703D01*
X127228172Y-32456412D01*
X127233500Y-32483200D01*
X127233500Y-33942012D01*
X127329318Y-34017082D01*
X127407049Y-33997923D01*
X127435036Y-33986331D01*
X127475922Y-33980948D01*
X127506292Y-33973463D01*
X127532779Y-33973463D01*
X127568198Y-33968800D01*
X127603617Y-33973463D01*
X127630103Y-33973463D01*
X127660472Y-33980948D01*
X127701360Y-33986331D01*
X127729346Y-33997923D01*
X127750317Y-34003092D01*
X127782112Y-34019779D01*
X127825448Y-34037730D01*
X127845219Y-34052901D01*
X127859945Y-34060630D01*
X127890054Y-34087304D01*
X127932004Y-34119494D01*
X127943925Y-34135030D01*
X127952621Y-34142734D01*
X127977551Y-34178851D01*
X128013768Y-34226050D01*
X128019227Y-34239230D01*
X128022951Y-34244625D01*
X128039103Y-34287216D01*
X128065167Y-34350138D01*
X128066336Y-34359022D01*
X128066855Y-34360389D01*
X128070871Y-34393470D01*
X128082698Y-34483300D01*
X128070870Y-34573138D01*
X128066855Y-34606210D01*
X128066336Y-34607576D01*
X128065167Y-34616462D01*
X128039099Y-34679394D01*
X128022951Y-34721974D01*
X128019228Y-34727366D01*
X128013768Y-34740550D01*
X127977544Y-34787757D01*
X127952621Y-34823865D01*
X127943928Y-34831566D01*
X127932004Y-34847106D01*
X127890045Y-34879301D01*
X127859945Y-34905969D01*
X127845223Y-34913695D01*
X127825448Y-34928870D01*
X127782103Y-34946823D01*
X127750317Y-34963507D01*
X127729351Y-34968674D01*
X127701360Y-34980269D01*
X127660469Y-34985652D01*
X127630103Y-34993137D01*
X127603617Y-34993137D01*
X127568198Y-34997800D01*
X127532779Y-34993137D01*
X127506293Y-34993137D01*
X127475925Y-34985652D01*
X127435036Y-34980269D01*
X127407045Y-34968674D01*
X127329318Y-34949517D01*
X127233500Y-35024586D01*
X127233500Y-36483400D01*
X127228172Y-36510188D01*
X127212997Y-36532897D01*
X127190288Y-36548072D01*
X127163500Y-36553400D01*
X126172900Y-36553400D01*
X126146112Y-36548072D01*
X126123403Y-36532897D01*
X126108228Y-36510188D01*
X126102900Y-36483400D01*
X126102900Y-34883200D01*
X126108228Y-34856412D01*
X126123403Y-34833703D01*
X126146112Y-34818528D01*
X126172900Y-34813200D01*
X127032553Y-34813200D01*
X127107088Y-34705218D01*
X127097274Y-34679342D01*
X127071229Y-34616462D01*
X127070059Y-34607579D01*
X127069541Y-34606212D01*
X127065519Y-34573094D01*
X127053698Y-34483300D01*
X127065511Y-34393568D01*
X127069540Y-34360389D01*
X127070059Y-34359018D01*
X127071229Y-34350138D01*
X127097266Y-34287278D01*
X127107088Y-34261380D01*
X127032554Y-34153400D01*
X126172900Y-34153400D01*
X126146112Y-34148072D01*
X126123403Y-34132897D01*
X126108228Y-34110188D01*
X126102900Y-34083400D01*
X126102900Y-32483200D01*
X126108228Y-32456412D01*
X126123403Y-32433703D01*
X126146112Y-32418528D01*
X126172900Y-32413200D01*
X127163500Y-32413200D01*
X127190288Y-32418528D01*
G37*
G36*
X111841688Y-32333228D02*
G01*
X111864397Y-32348403D01*
X111879572Y-32371112D01*
X111884900Y-32397900D01*
X111884900Y-33998100D01*
X111879572Y-34024888D01*
X111864397Y-34047597D01*
X111841688Y-34062772D01*
X111814900Y-34068100D01*
X110955244Y-34068100D01*
X110880710Y-34176082D01*
X110890505Y-34201909D01*
X110916571Y-34264838D01*
X110917740Y-34273723D01*
X110918259Y-34275090D01*
X110922274Y-34308161D01*
X110934102Y-34398000D01*
X110922272Y-34487855D01*
X110918259Y-34520908D01*
X110917741Y-34522273D01*
X110916571Y-34531162D01*
X110890496Y-34594111D01*
X110880710Y-34619916D01*
X110955245Y-34727900D01*
X111814900Y-34727900D01*
X111841688Y-34733228D01*
X111864397Y-34748403D01*
X111879572Y-34771112D01*
X111884900Y-34797900D01*
X111884900Y-36398100D01*
X111879572Y-36424888D01*
X111864397Y-36447597D01*
X111841688Y-36462772D01*
X111814900Y-36468100D01*
X110824300Y-36468100D01*
X110797512Y-36462772D01*
X110774803Y-36447597D01*
X110759628Y-36424888D01*
X110754300Y-36398100D01*
X110754300Y-34939287D01*
X110658480Y-34864217D01*
X110580756Y-34883374D01*
X110552764Y-34894969D01*
X110511873Y-34900352D01*
X110481507Y-34907837D01*
X110455021Y-34907837D01*
X110419602Y-34912500D01*
X110384183Y-34907837D01*
X110357697Y-34907837D01*
X110327329Y-34900352D01*
X110286440Y-34894969D01*
X110258449Y-34883375D01*
X110237482Y-34878207D01*
X110205691Y-34861521D01*
X110162352Y-34843570D01*
X110142578Y-34828397D01*
X110127854Y-34820669D01*
X110097746Y-34793996D01*
X110055796Y-34761806D01*
X110043873Y-34746268D01*
X110035178Y-34738565D01*
X110010245Y-34702444D01*
X109974032Y-34655250D01*
X109968572Y-34642070D01*
X109964848Y-34636674D01*
X109948688Y-34594066D01*
X109922633Y-34531162D01*
X109921463Y-34522280D01*
X109920944Y-34520910D01*
X109916916Y-34487740D01*
X109905102Y-34398000D01*
X109916915Y-34308268D01*
X109920944Y-34275089D01*
X109921463Y-34273718D01*
X109922633Y-34264838D01*
X109948684Y-34201944D01*
X109964848Y-34159325D01*
X109968573Y-34153927D01*
X109974032Y-34140750D01*
X110010238Y-34093564D01*
X110035178Y-34057434D01*
X110043876Y-34049728D01*
X110055796Y-34034194D01*
X110097738Y-34002010D01*
X110127854Y-33975330D01*
X110142582Y-33967599D01*
X110162352Y-33952430D01*
X110205682Y-33934481D01*
X110237482Y-33917792D01*
X110258454Y-33912622D01*
X110286440Y-33901031D01*
X110327327Y-33895648D01*
X110357697Y-33888163D01*
X110384183Y-33888163D01*
X110419602Y-33883500D01*
X110455021Y-33888163D01*
X110481508Y-33888163D01*
X110511877Y-33895648D01*
X110552764Y-33901031D01*
X110580751Y-33912623D01*
X110658481Y-33931782D01*
X110754300Y-33856712D01*
X110754300Y-32410208D01*
X110754300Y-32397900D01*
X110759628Y-32371112D01*
X110774803Y-32348403D01*
X110797512Y-32333228D01*
X110824300Y-32327900D01*
X111814900Y-32327900D01*
X111841688Y-32333228D01*
G37*
G36*
X114341688Y-34733228D02*
G01*
X114364397Y-34748403D01*
X114379572Y-34771112D01*
X114384900Y-34797900D01*
X114384900Y-36398100D01*
X114379572Y-36424888D01*
X114364397Y-36447597D01*
X114341688Y-36462772D01*
X114314900Y-36468100D01*
X113324300Y-36468100D01*
X113297512Y-36462772D01*
X113274803Y-36447597D01*
X113259628Y-36424888D01*
X113254300Y-36398100D01*
X113254300Y-34797900D01*
X113259628Y-34771112D01*
X113274803Y-34748403D01*
X113297512Y-34733228D01*
X113324300Y-34727900D01*
X114314900Y-34727900D01*
X114341688Y-34733228D01*
G37*
G36*
X116841688Y-32333228D02*
G01*
X116864397Y-32348403D01*
X116879572Y-32371112D01*
X116884900Y-32397900D01*
X116884900Y-33856712D01*
X116980718Y-33931782D01*
X117058449Y-33912623D01*
X117086436Y-33901031D01*
X117127322Y-33895648D01*
X117157692Y-33888163D01*
X117184179Y-33888163D01*
X117219598Y-33883500D01*
X117255017Y-33888163D01*
X117281503Y-33888163D01*
X117311872Y-33895648D01*
X117352760Y-33901031D01*
X117380746Y-33912623D01*
X117401717Y-33917792D01*
X117433512Y-33934479D01*
X117476848Y-33952430D01*
X117496619Y-33967601D01*
X117511345Y-33975330D01*
X117541454Y-34002004D01*
X117583404Y-34034194D01*
X117595325Y-34049730D01*
X117604021Y-34057434D01*
X117628951Y-34093551D01*
X117665168Y-34140750D01*
X117670627Y-34153930D01*
X117674351Y-34159325D01*
X117690503Y-34201916D01*
X117716567Y-34264838D01*
X117717736Y-34273722D01*
X117718255Y-34275089D01*
X117722271Y-34308170D01*
X117734098Y-34398000D01*
X117722270Y-34487838D01*
X117718255Y-34520910D01*
X117717736Y-34522276D01*
X117716567Y-34531162D01*
X117690499Y-34594094D01*
X117674351Y-34636674D01*
X117670628Y-34642066D01*
X117665168Y-34655250D01*
X117628944Y-34702457D01*
X117604021Y-34738565D01*
X117595328Y-34746266D01*
X117583404Y-34761806D01*
X117541445Y-34794001D01*
X117511345Y-34820669D01*
X117496623Y-34828395D01*
X117476848Y-34843570D01*
X117433503Y-34861523D01*
X117401717Y-34878207D01*
X117380751Y-34883374D01*
X117352760Y-34894969D01*
X117311869Y-34900352D01*
X117281503Y-34907837D01*
X117255017Y-34907837D01*
X117219598Y-34912500D01*
X117184179Y-34907837D01*
X117157693Y-34907837D01*
X117127325Y-34900352D01*
X117086436Y-34894969D01*
X117058445Y-34883374D01*
X116980718Y-34864217D01*
X116884900Y-34939286D01*
X116884900Y-36398100D01*
X116879572Y-36424888D01*
X116864397Y-36447597D01*
X116841688Y-36462772D01*
X116814900Y-36468100D01*
X115824300Y-36468100D01*
X115797512Y-36462772D01*
X115774803Y-36447597D01*
X115759628Y-36424888D01*
X115754300Y-36398100D01*
X115754300Y-34797900D01*
X115759628Y-34771112D01*
X115774803Y-34748403D01*
X115797512Y-34733228D01*
X115824300Y-34727900D01*
X116683953Y-34727900D01*
X116758488Y-34619918D01*
X116748674Y-34594042D01*
X116722629Y-34531162D01*
X116721459Y-34522279D01*
X116720941Y-34520912D01*
X116716919Y-34487794D01*
X116705098Y-34398000D01*
X116716911Y-34308268D01*
X116720940Y-34275089D01*
X116721459Y-34273718D01*
X116722629Y-34264838D01*
X116748666Y-34201978D01*
X116758488Y-34176080D01*
X116683954Y-34068100D01*
X115824300Y-34068100D01*
X115797512Y-34062772D01*
X115774803Y-34047597D01*
X115759628Y-34024888D01*
X115754300Y-33998100D01*
X115754300Y-32397900D01*
X115759628Y-32371112D01*
X115774803Y-32348403D01*
X115797512Y-32333228D01*
X115824300Y-32327900D01*
X116814900Y-32327900D01*
X116841688Y-32333228D01*
G37*
G36*
X139456407Y-33684935D02*
G01*
X139508969Y-33684935D01*
X139566899Y-33694601D01*
X139629216Y-33700054D01*
X139678157Y-33713167D01*
X139723936Y-33720807D01*
X139785344Y-33741888D01*
X139851467Y-33759606D01*
X139891972Y-33778493D01*
X139930065Y-33791571D01*
X139992653Y-33825442D01*
X140060000Y-33856846D01*
X140091701Y-33879043D01*
X140121739Y-33895299D01*
X140182881Y-33942888D01*
X140248480Y-33988821D01*
X140271601Y-34011942D01*
X140293716Y-34029155D01*
X140350526Y-34090867D01*
X140411179Y-34151520D01*
X140426487Y-34173383D01*
X140441328Y-34189504D01*
X140490845Y-34265295D01*
X140543154Y-34340000D01*
X140551883Y-34358720D01*
X140560528Y-34371952D01*
X140599764Y-34461401D01*
X140640394Y-34548533D01*
X140644177Y-34562654D01*
X140648074Y-34571537D01*
X140674162Y-34674557D01*
X140699946Y-34770784D01*
X140700693Y-34779328D01*
X140701574Y-34782805D01*
X140711890Y-34907313D01*
X140720000Y-35000000D01*
X140711890Y-35092694D01*
X140701574Y-35217194D01*
X140700693Y-35220670D01*
X140699946Y-35229216D01*
X140674157Y-35325459D01*
X140648074Y-35428462D01*
X140644178Y-35437342D01*
X140640394Y-35451467D01*
X140599756Y-35538614D01*
X140560528Y-35628047D01*
X140551885Y-35641275D01*
X140543154Y-35660000D01*
X140490835Y-35734718D01*
X140441328Y-35810495D01*
X140426490Y-35826612D01*
X140411179Y-35848480D01*
X140350514Y-35909144D01*
X140293716Y-35970844D01*
X140271605Y-35988053D01*
X140248480Y-36011179D01*
X140182869Y-36057120D01*
X140121739Y-36104700D01*
X140091707Y-36120951D01*
X140060000Y-36143154D01*
X139992640Y-36174564D01*
X139930065Y-36208428D01*
X139891980Y-36221502D01*
X139851467Y-36240394D01*
X139785331Y-36258114D01*
X139723936Y-36279192D01*
X139678165Y-36286830D01*
X139629216Y-36299946D01*
X139566895Y-36305398D01*
X139508969Y-36315065D01*
X139456407Y-36315065D01*
X139400000Y-36320000D01*
X139343593Y-36315065D01*
X139291031Y-36315065D01*
X139233103Y-36305398D01*
X139170784Y-36299946D01*
X139121835Y-36286830D01*
X139076063Y-36279192D01*
X139014664Y-36258113D01*
X138948533Y-36240394D01*
X138908022Y-36221503D01*
X138869934Y-36208428D01*
X138807352Y-36174560D01*
X138740000Y-36143154D01*
X138708295Y-36120954D01*
X138678260Y-36104700D01*
X138617120Y-36057113D01*
X138551520Y-36011179D01*
X138528397Y-35988056D01*
X138506283Y-35970844D01*
X138449472Y-35909131D01*
X138388821Y-35848480D01*
X138373512Y-35826616D01*
X138358671Y-35810495D01*
X138309149Y-35734697D01*
X138256846Y-35660000D01*
X138248117Y-35641280D01*
X138239471Y-35628047D01*
X138200226Y-35538577D01*
X138159606Y-35451467D01*
X138155822Y-35437348D01*
X138151925Y-35428462D01*
X138125824Y-35325391D01*
X138100054Y-35229216D01*
X138099306Y-35220676D01*
X138098425Y-35217194D01*
X138088090Y-35092478D01*
X138080000Y-35000000D01*
X138088090Y-34907529D01*
X138098425Y-34782805D01*
X138099307Y-34779321D01*
X138100054Y-34770784D01*
X138125819Y-34674625D01*
X138151925Y-34571537D01*
X138155823Y-34562649D01*
X138159606Y-34548533D01*
X138200218Y-34461437D01*
X138239471Y-34371952D01*
X138248118Y-34358715D01*
X138256846Y-34340000D01*
X138309139Y-34265316D01*
X138358671Y-34189504D01*
X138373515Y-34173378D01*
X138388821Y-34151520D01*
X138449461Y-34090879D01*
X138506283Y-34029155D01*
X138528402Y-34011938D01*
X138551520Y-33988821D01*
X138617108Y-33942895D01*
X138678260Y-33895299D01*
X138708301Y-33879041D01*
X138740000Y-33856846D01*
X138807338Y-33825445D01*
X138869934Y-33791571D01*
X138908030Y-33778492D01*
X138948533Y-33759606D01*
X139014650Y-33741889D01*
X139076063Y-33720807D01*
X139121843Y-33713167D01*
X139170784Y-33700054D01*
X139233100Y-33694601D01*
X139291031Y-33684935D01*
X139343593Y-33684935D01*
X139400000Y-33680000D01*
X139456407Y-33684935D01*
G37*
G36*
X82750228Y-33156740D02*
G01*
X82807299Y-33156740D01*
X82869663Y-33166139D01*
X82935602Y-33171329D01*
X82988746Y-33184087D01*
X83039278Y-33191704D01*
X83105310Y-33212072D01*
X83175157Y-33228841D01*
X83220318Y-33247547D01*
X83263460Y-33260855D01*
X83331196Y-33293474D01*
X83402765Y-33323120D01*
X83439502Y-33345632D01*
X83474825Y-33362643D01*
X83542014Y-33408451D01*
X83612823Y-33451843D01*
X83641174Y-33476057D01*
X83668662Y-33494798D01*
X83732837Y-33554344D01*
X83800158Y-33611842D01*
X83820604Y-33635782D01*
X83840631Y-33654364D01*
X83899180Y-33727782D01*
X83960157Y-33799177D01*
X83973566Y-33821060D01*
X83986907Y-33837788D01*
X84037221Y-33924935D01*
X84088880Y-34009235D01*
X84096467Y-34027553D01*
X84104204Y-34040953D01*
X84143662Y-34141490D01*
X84183159Y-34236843D01*
X84186424Y-34250446D01*
X84189913Y-34259334D01*
X84216033Y-34373774D01*
X84240671Y-34476398D01*
X84241310Y-34484519D01*
X84242118Y-34488059D01*
X84252658Y-34628718D01*
X84260000Y-34722000D01*
X84252658Y-34815289D01*
X84242118Y-34955940D01*
X84241310Y-34959478D01*
X84240671Y-34967602D01*
X84216028Y-35070245D01*
X84189913Y-35184665D01*
X84186425Y-35193550D01*
X84183159Y-35207157D01*
X84143654Y-35302527D01*
X84104204Y-35403046D01*
X84096469Y-35416442D01*
X84088880Y-35434765D01*
X84037211Y-35519081D01*
X83986907Y-35606211D01*
X83973569Y-35622935D01*
X83960157Y-35644823D01*
X83899168Y-35716231D01*
X83840631Y-35789635D01*
X83820608Y-35808213D01*
X83800158Y-35832158D01*
X83732823Y-35889666D01*
X83668662Y-35949201D01*
X83641180Y-35967937D01*
X83612823Y-35992157D01*
X83541999Y-36035557D01*
X83474825Y-36081356D01*
X83439509Y-36098362D01*
X83402765Y-36120880D01*
X83331181Y-36150531D01*
X83263460Y-36183144D01*
X83220327Y-36196448D01*
X83175157Y-36215159D01*
X83105296Y-36231931D01*
X83039278Y-36252295D01*
X82988755Y-36259910D01*
X82935602Y-36272671D01*
X82869659Y-36277860D01*
X82807299Y-36287260D01*
X82750228Y-36287260D01*
X82690000Y-36292000D01*
X82629772Y-36287260D01*
X82572701Y-36287260D01*
X82510339Y-36277860D01*
X82444398Y-36272671D01*
X82391245Y-36259910D01*
X82340721Y-36252295D01*
X82274699Y-36231929D01*
X82204843Y-36215159D01*
X82159675Y-36196449D01*
X82116539Y-36183144D01*
X82048813Y-36150529D01*
X81977235Y-36120880D01*
X81940490Y-36098363D01*
X81905175Y-36081356D01*
X81837996Y-36035555D01*
X81767177Y-35992157D01*
X81738822Y-35967940D01*
X81711337Y-35949201D01*
X81647163Y-35889655D01*
X81579842Y-35832158D01*
X81559394Y-35808217D01*
X81539368Y-35789635D01*
X81480816Y-35716214D01*
X81419843Y-35644823D01*
X81406433Y-35622941D01*
X81393092Y-35606211D01*
X81342771Y-35519052D01*
X81291120Y-35434765D01*
X81283533Y-35416449D01*
X81275795Y-35403046D01*
X81236325Y-35302481D01*
X81196841Y-35207157D01*
X81193576Y-35193557D01*
X81190086Y-35184665D01*
X81163951Y-35070160D01*
X81139329Y-34967602D01*
X81138690Y-34959485D01*
X81137881Y-34955940D01*
X81127321Y-34815023D01*
X81120000Y-34722000D01*
X81127320Y-34628984D01*
X81137881Y-34488059D01*
X81138690Y-34484513D01*
X81139329Y-34476398D01*
X81163946Y-34373858D01*
X81190086Y-34259334D01*
X81193576Y-34250440D01*
X81196841Y-34236843D01*
X81236318Y-34141536D01*
X81275795Y-34040953D01*
X81283534Y-34027547D01*
X81291120Y-34009235D01*
X81342761Y-33924963D01*
X81393092Y-33837788D01*
X81406436Y-33821054D01*
X81419843Y-33799177D01*
X81480804Y-33727799D01*
X81539368Y-33654364D01*
X81559399Y-33635777D01*
X81579842Y-33611842D01*
X81647150Y-33554355D01*
X81711337Y-33494798D01*
X81738828Y-33476054D01*
X81767177Y-33451843D01*
X81837982Y-33408453D01*
X81905175Y-33362643D01*
X81940498Y-33345631D01*
X81977235Y-33323120D01*
X82048799Y-33293476D01*
X82116539Y-33260855D01*
X82159684Y-33247546D01*
X82204843Y-33228841D01*
X82274684Y-33212073D01*
X82340721Y-33191704D01*
X82391254Y-33184087D01*
X82444398Y-33171329D01*
X82510335Y-33166139D01*
X82572701Y-33156740D01*
X82629772Y-33156740D01*
X82690000Y-33152000D01*
X82750228Y-33156740D01*
G37*
G36*
X106250228Y-33156740D02*
G01*
X106307299Y-33156740D01*
X106369663Y-33166139D01*
X106435602Y-33171329D01*
X106488746Y-33184087D01*
X106539278Y-33191704D01*
X106605310Y-33212072D01*
X106675157Y-33228841D01*
X106720318Y-33247547D01*
X106763460Y-33260855D01*
X106831196Y-33293474D01*
X106902765Y-33323120D01*
X106939502Y-33345632D01*
X106974825Y-33362643D01*
X107042014Y-33408451D01*
X107112823Y-33451843D01*
X107141174Y-33476057D01*
X107168662Y-33494798D01*
X107232837Y-33554344D01*
X107300158Y-33611842D01*
X107320604Y-33635782D01*
X107340631Y-33654364D01*
X107399180Y-33727782D01*
X107460157Y-33799177D01*
X107473566Y-33821060D01*
X107486907Y-33837788D01*
X107537221Y-33924935D01*
X107588880Y-34009235D01*
X107596467Y-34027553D01*
X107604204Y-34040953D01*
X107643662Y-34141490D01*
X107683159Y-34236843D01*
X107686424Y-34250446D01*
X107689913Y-34259334D01*
X107716033Y-34373774D01*
X107740671Y-34476398D01*
X107741310Y-34484519D01*
X107742118Y-34488059D01*
X107752658Y-34628718D01*
X107760000Y-34722000D01*
X107752658Y-34815289D01*
X107742118Y-34955940D01*
X107741310Y-34959478D01*
X107740671Y-34967602D01*
X107716028Y-35070245D01*
X107689913Y-35184665D01*
X107686425Y-35193550D01*
X107683159Y-35207157D01*
X107643654Y-35302527D01*
X107604204Y-35403046D01*
X107596469Y-35416442D01*
X107588880Y-35434765D01*
X107537211Y-35519081D01*
X107486907Y-35606211D01*
X107473569Y-35622935D01*
X107460157Y-35644823D01*
X107399168Y-35716231D01*
X107340631Y-35789635D01*
X107320608Y-35808213D01*
X107300158Y-35832158D01*
X107232823Y-35889666D01*
X107168662Y-35949201D01*
X107141180Y-35967937D01*
X107112823Y-35992157D01*
X107041999Y-36035557D01*
X106974825Y-36081356D01*
X106939509Y-36098362D01*
X106902765Y-36120880D01*
X106831181Y-36150531D01*
X106763460Y-36183144D01*
X106720327Y-36196448D01*
X106675157Y-36215159D01*
X106605296Y-36231931D01*
X106539278Y-36252295D01*
X106488755Y-36259910D01*
X106435602Y-36272671D01*
X106369659Y-36277860D01*
X106307299Y-36287260D01*
X106250228Y-36287260D01*
X106190000Y-36292000D01*
X106129772Y-36287260D01*
X106072701Y-36287260D01*
X106010339Y-36277860D01*
X105944398Y-36272671D01*
X105891245Y-36259910D01*
X105840721Y-36252295D01*
X105774699Y-36231929D01*
X105704843Y-36215159D01*
X105659675Y-36196449D01*
X105616539Y-36183144D01*
X105548813Y-36150529D01*
X105477235Y-36120880D01*
X105440490Y-36098363D01*
X105405175Y-36081356D01*
X105337996Y-36035555D01*
X105267177Y-35992157D01*
X105238822Y-35967940D01*
X105211337Y-35949201D01*
X105147163Y-35889655D01*
X105079842Y-35832158D01*
X105059394Y-35808217D01*
X105039368Y-35789635D01*
X104980816Y-35716214D01*
X104919843Y-35644823D01*
X104906433Y-35622941D01*
X104893092Y-35606211D01*
X104842771Y-35519052D01*
X104791120Y-35434765D01*
X104783533Y-35416449D01*
X104775795Y-35403046D01*
X104736325Y-35302481D01*
X104696841Y-35207157D01*
X104693576Y-35193557D01*
X104690086Y-35184665D01*
X104663951Y-35070160D01*
X104639329Y-34967602D01*
X104638690Y-34959485D01*
X104637881Y-34955940D01*
X104627321Y-34815023D01*
X104620000Y-34722000D01*
X104627320Y-34628984D01*
X104637881Y-34488059D01*
X104638690Y-34484513D01*
X104639329Y-34476398D01*
X104663946Y-34373858D01*
X104690086Y-34259334D01*
X104693576Y-34250440D01*
X104696841Y-34236843D01*
X104736318Y-34141536D01*
X104775795Y-34040953D01*
X104783534Y-34027547D01*
X104791120Y-34009235D01*
X104842761Y-33924963D01*
X104893092Y-33837788D01*
X104906436Y-33821054D01*
X104919843Y-33799177D01*
X104980804Y-33727799D01*
X105039368Y-33654364D01*
X105059399Y-33635777D01*
X105079842Y-33611842D01*
X105147150Y-33554355D01*
X105211337Y-33494798D01*
X105238828Y-33476054D01*
X105267177Y-33451843D01*
X105337982Y-33408453D01*
X105405175Y-33362643D01*
X105440498Y-33345631D01*
X105477235Y-33323120D01*
X105548799Y-33293476D01*
X105616539Y-33260855D01*
X105659684Y-33247546D01*
X105704843Y-33228841D01*
X105774684Y-33212073D01*
X105840721Y-33191704D01*
X105891254Y-33184087D01*
X105944398Y-33171329D01*
X106010335Y-33166139D01*
X106072701Y-33156740D01*
X106129772Y-33156740D01*
X106190000Y-33152000D01*
X106250228Y-33156740D01*
G37*
G36*
X124690288Y-32418528D02*
G01*
X124712997Y-32433703D01*
X124728172Y-32456412D01*
X124733500Y-32483200D01*
X124733500Y-34083400D01*
X124728172Y-34110188D01*
X124712997Y-34132897D01*
X124690288Y-34148072D01*
X124663500Y-34153400D01*
X123672900Y-34153400D01*
X123646112Y-34148072D01*
X123623403Y-34132897D01*
X123608228Y-34110188D01*
X123602900Y-34083400D01*
X123602900Y-32483200D01*
X123608228Y-32456412D01*
X123623403Y-32433703D01*
X123646112Y-32418528D01*
X123672900Y-32413200D01*
X124663500Y-32413200D01*
X124690288Y-32418528D01*
G37*
G36*
X114341688Y-32333228D02*
G01*
X114364397Y-32348403D01*
X114379572Y-32371112D01*
X114384900Y-32397900D01*
X114384900Y-33998100D01*
X114379572Y-34024888D01*
X114364397Y-34047597D01*
X114341688Y-34062772D01*
X114314900Y-34068100D01*
X113324300Y-34068100D01*
X113297512Y-34062772D01*
X113274803Y-34047597D01*
X113259628Y-34024888D01*
X113254300Y-33998100D01*
X113254300Y-32397900D01*
X113259628Y-32371112D01*
X113274803Y-32348403D01*
X113297512Y-32333228D01*
X113324300Y-32327900D01*
X114314900Y-32327900D01*
X114341688Y-32333228D01*
G37*
G36*
X130927788Y-32938328D02*
G01*
X130950497Y-32953503D01*
X130965672Y-32976212D01*
X130971000Y-33003000D01*
X130971000Y-33903000D01*
X130965672Y-33929788D01*
X130950497Y-33952497D01*
X130927788Y-33967672D01*
X130901000Y-33973000D01*
X129401000Y-33973000D01*
X129374212Y-33967672D01*
X129351503Y-33952497D01*
X129336328Y-33929788D01*
X129331000Y-33903000D01*
X129331000Y-33003000D01*
X129336328Y-32976212D01*
X129351503Y-32953503D01*
X129374212Y-32938328D01*
X129401000Y-32933000D01*
X130901000Y-32933000D01*
X130927788Y-32938328D01*
G37*
G36*
X135827788Y-32938328D02*
G01*
X135850497Y-32953503D01*
X135865672Y-32976212D01*
X135871000Y-33003000D01*
X135871000Y-33903000D01*
X135865672Y-33929788D01*
X135850497Y-33952497D01*
X135827788Y-33967672D01*
X135801000Y-33973000D01*
X134301000Y-33973000D01*
X134274212Y-33967672D01*
X134251503Y-33952497D01*
X134236328Y-33929788D01*
X134231000Y-33903000D01*
X134231000Y-33003000D01*
X134236328Y-32976212D01*
X134251503Y-32953503D01*
X134274212Y-32938328D01*
X134301000Y-32933000D01*
X135801000Y-32933000D01*
X135827788Y-32938328D01*
G37*
M02*
