%TF.GenerationSoftware,KiCad,Pcbnew,7.0.9-7.0.9~ubuntu22.04.1*%
%TF.CreationDate,2023-12-10T19:38:54+01:00*%
%TF.ProjectId,PD-LabSupply,50442d4c-6162-4537-9570-706c792e6b69,3.1*%
%TF.SameCoordinates,Original*%
%TF.FileFunction,Paste,Bot*%
%TF.FilePolarity,Positive*%
%FSLAX46Y46*%
G04 Gerber Fmt 4.6, Leading zero omitted, Abs format (unit mm)*
G04 Created by KiCad (PCBNEW 7.0.9-7.0.9~ubuntu22.04.1) date 2023-12-10 19:38:54*
%MOMM*%
%LPD*%
G01*
G04 APERTURE LIST*
%ADD10R,0.990600X1.600200*%
%ADD11R,1.500000X0.900000*%
%ADD12R,1.000000X1.900000*%
%ADD13R,1.120000X2.440000*%
%ADD14R,1.092200X0.304800*%
%ADD15R,1.092200X0.609600*%
%ADD16R,1.092200X0.609394*%
%ADD17R,1.092200X0.609382*%
%ADD18R,1.092200X0.609404*%
%ADD19R,1.050000X0.650000*%
G04 APERTURE END LIST*
G36*
X87944349Y-50206093D02*
G01*
X86852149Y-50206093D01*
X86852149Y-49596493D01*
X87944349Y-49596493D01*
X87944349Y-50206093D01*
G37*
G36*
X87944349Y-49406287D02*
G01*
X86852149Y-49406287D01*
X86852149Y-48796687D01*
X87944349Y-48796687D01*
X87944349Y-49406287D01*
G37*
G36*
X87944349Y-44606287D02*
G01*
X86852149Y-44606287D01*
X86852149Y-43996687D01*
X87944349Y-43996687D01*
X87944349Y-44606287D01*
G37*
G36*
X87944349Y-43806287D02*
G01*
X86852149Y-43806287D01*
X86852149Y-43196687D01*
X87944349Y-43196687D01*
X87944349Y-43806287D01*
G37*
D10*
X121668200Y-35683300D03*
X124168200Y-35683300D03*
X126668200Y-35683300D03*
X121668200Y-33283300D03*
X124168200Y-33283300D03*
X126668200Y-33283300D03*
D11*
X135051000Y-33453000D03*
X135051000Y-36753000D03*
X130151000Y-36753000D03*
X130151000Y-33453000D03*
D12*
X125997000Y-59104000D03*
X123457000Y-55804000D03*
X120917000Y-59104000D03*
X118377000Y-55804000D03*
X115837000Y-59104000D03*
X113297000Y-55804000D03*
X110757000Y-59104000D03*
D13*
X111900000Y-44006000D03*
X114440000Y-44006000D03*
X116980000Y-44006000D03*
X119520000Y-44006000D03*
X122060000Y-44006000D03*
X124600000Y-44006000D03*
X124600000Y-52616000D03*
X122060000Y-52616000D03*
X119520000Y-52616000D03*
X116980000Y-52616000D03*
X114440000Y-52616000D03*
X111900000Y-52616000D03*
D14*
X87398249Y-47951602D03*
X87398249Y-44950846D03*
X87398249Y-47451476D03*
X87398249Y-46451224D03*
X87398249Y-46951350D03*
X87398249Y-45951098D03*
D15*
X87398249Y-49901293D03*
D16*
X87398249Y-43501384D03*
D14*
X87398249Y-45450972D03*
X87398249Y-48451728D03*
D17*
X87398249Y-49101378D03*
D18*
X87398249Y-44301390D03*
D19*
X120833000Y-38727000D03*
X116683000Y-38727000D03*
X120833000Y-40877000D03*
X116683000Y-40877000D03*
X113721000Y-38727000D03*
X109571000Y-38727000D03*
X113721000Y-40877000D03*
X109571000Y-40877000D03*
D10*
X111319600Y-35598000D03*
X113819600Y-35598000D03*
X116319600Y-35598000D03*
X111319600Y-33198000D03*
X113819600Y-33198000D03*
X116319600Y-33198000D03*
D19*
X128072000Y-38727000D03*
X123922000Y-38727000D03*
X128072000Y-40877000D03*
X123922000Y-40877000D03*
M02*
