%TF.GenerationSoftware,KiCad,Pcbnew,7.0.9-7.0.9~ubuntu22.04.1*%
%TF.CreationDate,2023-11-29T16:30:18+01:00*%
%TF.ProjectId,PD-LabSupply,50442d4c-6162-4537-9570-706c792e6b69,3.1*%
%TF.SameCoordinates,Original*%
%TF.FileFunction,Drillmap*%
%TF.FilePolarity,Positive*%
%FSLAX45Y45*%
G04 Gerber Fmt 4.5, Leading zero omitted, Abs format (unit mm)*
G04 Created by KiCad (PCBNEW 7.0.9-7.0.9~ubuntu22.04.1) date 2023-11-29 16:30:18*
%MOMM*%
%LPD*%
G01*
G04 APERTURE LIST*
%ADD10C,0.150000*%
%ADD11C,0.200000*%
%ADD12C,0.100000*%
%ADD13C,0.102000*%
%ADD14C,0.152000*%
G04 APERTURE END LIST*
D10*
X14216800Y-8754800D02*
X8016800Y-8754800D01*
X8016800Y-5704000D01*
X8016800Y-5654400D01*
X8016800Y-4130400D01*
X8016800Y-4030400D01*
X8016800Y-3220000D01*
X14216800Y-3220000D01*
X14216800Y-8754800D01*
D11*
D12*
X9823230Y-4879100D02*
X9843230Y-4899100D01*
X9843230Y-4879100D02*
X9823230Y-4899100D01*
X9823230Y-4984100D02*
X9843230Y-5004100D01*
X9843230Y-4984100D02*
X9823230Y-5004100D01*
X9823230Y-5089100D02*
X9843230Y-5109100D01*
X9843230Y-5089100D02*
X9823230Y-5109100D01*
X9928230Y-4879100D02*
X9948230Y-4899100D01*
X9948230Y-4879100D02*
X9928230Y-4899100D01*
X9928230Y-4984100D02*
X9948230Y-5004100D01*
X9948230Y-4984100D02*
X9928230Y-5004100D01*
X9928230Y-5089100D02*
X9948230Y-5109100D01*
X9948230Y-5089100D02*
X9928230Y-5109100D01*
X10033230Y-4879100D02*
X10053230Y-4899100D01*
X10053230Y-4879100D02*
X10033230Y-4899100D01*
X10033230Y-4984100D02*
X10053230Y-5004100D01*
X10053230Y-4984100D02*
X10033230Y-5004100D01*
X10033230Y-5089100D02*
X10053230Y-5109100D01*
X10053230Y-5089100D02*
X10033230Y-5109100D01*
X8338540Y-4561760D02*
G75*
G03*
X8338540Y-4561760I-12500J0D01*
G01*
X8338540Y-5092620D02*
G75*
G03*
X8338540Y-5092620I-12500J0D01*
G01*
X8475700Y-4780200D02*
G75*
G03*
X8475700Y-4780200I-12500J0D01*
G01*
X8475700Y-4881800D02*
G75*
G03*
X8475700Y-4881800I-12500J0D01*
G01*
X8536660Y-5006260D02*
G75*
G03*
X8536660Y-5006260I-12500J0D01*
G01*
X8539200Y-4897040D02*
G75*
G03*
X8539200Y-4897040I-12500J0D01*
G01*
X8844000Y-4818300D02*
G75*
G03*
X8844000Y-4818300I-12500J0D01*
G01*
X8856700Y-4894500D02*
G75*
G03*
X8856700Y-4894500I-12500J0D01*
G01*
X9067520Y-5097700D02*
G75*
G03*
X9067520Y-5097700I-12500J0D01*
G01*
X9311455Y-4686315D02*
G75*
G03*
X9311455Y-4686315I-12500J0D01*
G01*
X9345745Y-5015055D02*
G75*
G03*
X9345745Y-5015055I-12500J0D01*
G01*
X9740620Y-5222160D02*
G75*
G03*
X9740620Y-5222160I-12500J0D01*
G01*
X9862540Y-5364400D02*
G75*
G03*
X9862540Y-5364400I-12500J0D01*
G01*
X9925730Y-4706540D02*
G75*
G03*
X9925730Y-4706540I-12500J0D01*
G01*
X10012400Y-4589700D02*
G75*
G03*
X10012400Y-4589700I-12500J0D01*
G01*
X10238460Y-4978320D02*
G75*
G03*
X10238460Y-4978320I-12500J0D01*
G01*
X10390027Y-5005571D02*
G75*
G03*
X10390027Y-5005571I-12500J0D01*
G01*
X10495000Y-3802300D02*
G75*
G03*
X10495000Y-3802300I-12500J0D01*
G01*
X10507700Y-4653200D02*
G75*
G03*
X10507700Y-4653200I-12500J0D01*
G01*
X10685500Y-5399960D02*
G75*
G03*
X10685500Y-5399960I-12500J0D01*
G01*
X10723600Y-3802300D02*
G75*
G03*
X10723600Y-3802300I-12500J0D01*
G01*
X10893780Y-5394880D02*
G75*
G03*
X10893780Y-5394880I-12500J0D01*
G01*
X10990300Y-5377100D02*
G75*
G03*
X10990300Y-5377100I-12500J0D01*
G01*
X11216360Y-5382180D02*
G75*
G03*
X11216360Y-5382180I-12500J0D01*
G01*
X11223340Y-5312960D02*
G75*
G03*
X11223340Y-5312960I-12500J0D01*
G01*
X11320500Y-4106950D02*
G75*
G03*
X11320500Y-4106950I-12500J0D01*
G01*
X11384000Y-7459900D02*
G75*
G03*
X11384000Y-7459900I-12500J0D01*
G01*
X11411940Y-5385730D02*
G75*
G03*
X11411940Y-5385730I-12500J0D01*
G01*
X11483060Y-5379640D02*
G75*
G03*
X11483060Y-5379640I-12500J0D01*
G01*
X11485600Y-5110400D02*
G75*
G03*
X11485600Y-5110400I-12500J0D01*
G01*
X11650700Y-4386500D02*
G75*
G03*
X11650700Y-4386500I-12500J0D01*
G01*
X11650700Y-4456450D02*
G75*
G03*
X11650700Y-4456450I-12500J0D01*
G01*
X11841200Y-4754800D02*
G75*
G03*
X11841200Y-4754800I-12500J0D01*
G01*
X12374600Y-4577000D02*
G75*
G03*
X12374600Y-4577000I-12500J0D01*
G01*
X12590500Y-4678600D02*
G75*
G03*
X12590500Y-4678600I-12500J0D01*
G01*
X13136600Y-4551600D02*
G75*
G03*
X13136600Y-4551600I-12500J0D01*
G01*
X14047300Y-5389900D02*
G75*
G03*
X14047300Y-5389900I-12500J0D01*
G01*
X8818800Y-4549300D02*
X8818800Y-4579300D01*
X8803800Y-4564300D02*
X8833800Y-4564300D01*
X8818800Y-4607390D02*
X8818800Y-4637390D01*
X8803800Y-4622390D02*
X8833800Y-4622390D01*
X8882300Y-4549300D02*
X8882300Y-4579300D01*
X8867300Y-4564300D02*
X8897300Y-4564300D01*
X8882300Y-4607390D02*
X8882300Y-4637390D01*
X8867300Y-4622390D02*
X8897300Y-4622390D01*
X9733200Y-4110210D02*
X9733200Y-4140210D01*
X9718200Y-4125210D02*
X9748200Y-4125210D01*
X9733200Y-4168300D02*
X9733200Y-4198300D01*
X9718200Y-4183300D02*
X9748200Y-4183300D01*
X9733200Y-4224510D02*
X9733200Y-4254510D01*
X9718200Y-4239510D02*
X9748200Y-4239510D01*
X9733200Y-4282600D02*
X9733200Y-4312600D01*
X9718200Y-4297600D02*
X9748200Y-4297600D01*
X9733200Y-4351510D02*
X9733200Y-4381510D01*
X9718200Y-4366510D02*
X9748200Y-4366510D01*
X9733200Y-4409600D02*
X9733200Y-4439600D01*
X9718200Y-4424600D02*
X9748200Y-4424600D01*
X9733200Y-4465810D02*
X9733200Y-4495810D01*
X9718200Y-4480810D02*
X9748200Y-4480810D01*
X9733200Y-4523900D02*
X9733200Y-4553900D01*
X9718200Y-4538900D02*
X9748200Y-4538900D01*
X9796700Y-4110210D02*
X9796700Y-4140210D01*
X9781700Y-4125210D02*
X9811700Y-4125210D01*
X9796700Y-4168300D02*
X9796700Y-4198300D01*
X9781700Y-4183300D02*
X9811700Y-4183300D01*
X9796700Y-4224510D02*
X9796700Y-4254510D01*
X9781700Y-4239510D02*
X9811700Y-4239510D01*
X9796700Y-4282600D02*
X9796700Y-4312600D01*
X9781700Y-4297600D02*
X9811700Y-4297600D01*
X9796700Y-4351510D02*
X9796700Y-4381510D01*
X9781700Y-4366510D02*
X9811700Y-4366510D01*
X9796700Y-4409600D02*
X9796700Y-4439600D01*
X9781700Y-4424600D02*
X9811700Y-4424600D01*
X9796700Y-4465810D02*
X9796700Y-4495810D01*
X9781700Y-4480810D02*
X9811700Y-4480810D01*
X9796700Y-4523900D02*
X9796700Y-4553900D01*
X9781700Y-4538900D02*
X9811700Y-4538900D01*
X10035460Y-4243050D02*
X10035460Y-4273050D01*
X10020460Y-4258050D02*
X10050460Y-4258050D01*
X10035460Y-4309090D02*
X10035460Y-4339090D01*
X10020460Y-4324090D02*
X10050460Y-4324090D01*
X10101500Y-4243050D02*
X10101500Y-4273050D01*
X10086500Y-4258050D02*
X10116500Y-4258050D01*
X10101500Y-4308000D02*
X10101500Y-4338000D01*
X10086500Y-4323000D02*
X10116500Y-4323000D01*
X10238660Y-4243050D02*
X10238660Y-4273050D01*
X10223660Y-4258050D02*
X10253660Y-4258050D01*
X10238660Y-4309090D02*
X10238660Y-4339090D01*
X10223660Y-4324090D02*
X10253660Y-4324090D01*
X10304700Y-4243050D02*
X10304700Y-4273050D01*
X10289700Y-4258050D02*
X10319700Y-4258050D01*
X10304700Y-4308000D02*
X10304700Y-4338000D01*
X10289700Y-4323000D02*
X10319700Y-4323000D01*
X12016660Y-4725650D02*
X12016660Y-4755650D01*
X12001660Y-4740650D02*
X12031660Y-4740650D01*
X12016660Y-4791690D02*
X12016660Y-4821690D01*
X12001660Y-4806690D02*
X12031660Y-4806690D01*
X12016660Y-4954250D02*
X12016660Y-4984250D01*
X12001660Y-4969250D02*
X12031660Y-4969250D01*
X12016660Y-5020290D02*
X12016660Y-5050290D01*
X12001660Y-5035290D02*
X12031660Y-5035290D01*
X12082700Y-4725650D02*
X12082700Y-4755650D01*
X12067700Y-4740650D02*
X12097700Y-4740650D01*
X12082700Y-4790600D02*
X12082700Y-4820600D01*
X12067700Y-4805600D02*
X12097700Y-4805600D01*
X12082700Y-4954250D02*
X12082700Y-4984250D01*
X12067700Y-4969250D02*
X12097700Y-4969250D01*
X12082700Y-5019200D02*
X12082700Y-5049200D01*
X12067700Y-5034200D02*
X12097700Y-5034200D01*
X12616100Y-5171600D02*
X12616100Y-5201600D01*
X12601100Y-5186600D02*
X12631100Y-5186600D01*
X12696597Y-5171600D02*
X12696597Y-5201600D01*
X12681597Y-5186600D02*
X12711597Y-5186600D01*
X12785497Y-5171600D02*
X12785497Y-5201600D01*
X12770497Y-5186600D02*
X12800497Y-5186600D01*
X12861697Y-5171600D02*
X12861697Y-5201600D01*
X12846697Y-5186600D02*
X12876697Y-5186600D01*
X13545740Y-4442620D02*
X13545740Y-4472620D01*
X13530740Y-4457620D02*
X13560740Y-4457620D01*
X13545740Y-4506120D02*
X13545740Y-4536120D01*
X13530740Y-4521120D02*
X13560740Y-4521120D01*
X13545740Y-4572160D02*
X13545740Y-4602160D01*
X13530740Y-4587160D02*
X13560740Y-4587160D01*
X13545740Y-4643280D02*
X13545740Y-4673280D01*
X13530740Y-4658280D02*
X13560740Y-4658280D01*
X13548280Y-4711860D02*
X13548280Y-4741860D01*
X13533280Y-4726860D02*
X13563280Y-4726860D01*
X8532197Y-4650685D02*
X8532197Y-4615329D01*
X8496841Y-4615329D01*
X8496841Y-4650685D01*
X8532197Y-4650685D01*
X8747578Y-4632778D02*
X8747578Y-4597422D01*
X8712222Y-4597422D01*
X8712222Y-4632778D01*
X8747578Y-4632778D01*
X8753555Y-5057855D02*
X8753555Y-5022500D01*
X8718200Y-5022500D01*
X8718200Y-5057855D01*
X8753555Y-5057855D01*
X8778058Y-4424498D02*
X8778058Y-4389142D01*
X8742702Y-4389142D01*
X8742702Y-4424498D01*
X8778058Y-4424498D01*
X8811078Y-5153478D02*
X8811078Y-5118122D01*
X8775722Y-5118122D01*
X8775722Y-5153478D01*
X8811078Y-5153478D01*
X9240338Y-5079818D02*
X9240338Y-5044462D01*
X9204982Y-5044462D01*
X9204982Y-5079818D01*
X9240338Y-5079818D01*
X9611178Y-4904558D02*
X9611178Y-4869202D01*
X9575822Y-4869202D01*
X9575822Y-4904558D01*
X9611178Y-4904558D01*
X10525578Y-5331278D02*
X10525578Y-5295922D01*
X10490222Y-5295922D01*
X10490222Y-5331278D01*
X10525578Y-5331278D01*
X10798108Y-4955624D02*
X10798108Y-4920268D01*
X10762752Y-4920268D01*
X10762752Y-4955624D01*
X10798108Y-4955624D01*
X11014202Y-4958452D02*
X11014202Y-4923097D01*
X10978846Y-4923097D01*
X10978846Y-4958452D01*
X11014202Y-4958452D01*
X12824278Y-4416878D02*
X12824278Y-4381522D01*
X12788922Y-4381522D01*
X12788922Y-4416878D01*
X12824278Y-4416878D01*
X13606598Y-6997518D02*
X13606598Y-6962162D01*
X13571242Y-6962162D01*
X13571242Y-6997518D01*
X13606598Y-6997518D01*
X13609138Y-6453958D02*
X13609138Y-6418602D01*
X13573782Y-6418602D01*
X13573782Y-6453958D01*
X13609138Y-6453958D01*
X8195600Y-4429000D02*
X8225600Y-4399000D01*
X8195600Y-4369000D01*
X8165600Y-4399000D01*
X8195600Y-4429000D01*
X8130600Y-4429000D02*
X8260600Y-4429000D01*
X8260600Y-4429000D02*
G75*
G03*
X8260600Y-4369000I0J30000D01*
G01*
X8260600Y-4369000D02*
X8130600Y-4369000D01*
X8130600Y-4369000D02*
G75*
G03*
X8130600Y-4429000I0J-30000D01*
G01*
X8195600Y-5293000D02*
X8225600Y-5263000D01*
X8195600Y-5233000D01*
X8165600Y-5263000D01*
X8195600Y-5293000D01*
X8130600Y-5293000D02*
X8260600Y-5293000D01*
X8260600Y-5293000D02*
G75*
G03*
X8260600Y-5233000I0J30000D01*
G01*
X8260600Y-5233000D02*
X8130600Y-5233000D01*
X8130600Y-5233000D02*
G75*
G03*
X8130600Y-5293000I0J-30000D01*
G01*
X8578100Y-4429000D02*
X8608100Y-4399000D01*
X8578100Y-4369000D01*
X8548100Y-4399000D01*
X8578100Y-4429000D01*
X8528100Y-4429000D02*
X8628100Y-4429000D01*
X8628100Y-4429000D02*
G75*
G03*
X8628100Y-4369000I0J30000D01*
G01*
X8628100Y-4369000D02*
X8528100Y-4369000D01*
X8528100Y-4369000D02*
G75*
G03*
X8528100Y-4429000I0J-30000D01*
G01*
X8578100Y-5293000D02*
X8608100Y-5263000D01*
X8578100Y-5233000D01*
X8548100Y-5263000D01*
X8578100Y-5293000D01*
X8528100Y-5293000D02*
X8628100Y-5293000D01*
X8628100Y-5293000D02*
G75*
G03*
X8628100Y-5233000I0J30000D01*
G01*
X8628100Y-5233000D02*
X8528100Y-5233000D01*
X8528100Y-5233000D02*
G75*
G03*
X8528100Y-5293000I0J-30000D01*
G01*
X9260240Y-6048400D02*
X9340240Y-6128400D01*
X9340240Y-6048400D02*
X9260240Y-6128400D01*
X9340240Y-6088400D02*
G75*
G03*
X9340240Y-6088400I-40000J0D01*
G01*
X9514240Y-6048400D02*
X9594240Y-6128400D01*
X9594240Y-6048400D02*
X9514240Y-6128400D01*
X9594240Y-6088400D02*
G75*
G03*
X9594240Y-6088400I-40000J0D01*
G01*
X9768240Y-6048400D02*
X9848240Y-6128400D01*
X9848240Y-6048400D02*
X9768240Y-6128400D01*
X9848240Y-6088400D02*
G75*
G03*
X9848240Y-6088400I-40000J0D01*
G01*
X10022240Y-6048400D02*
X10102240Y-6128400D01*
X10102240Y-6048400D02*
X10022240Y-6128400D01*
X10102240Y-6088400D02*
G75*
G03*
X10102240Y-6088400I-40000J0D01*
G01*
X11382300Y-6391200D02*
X11462300Y-6471200D01*
X11462300Y-6391200D02*
X11382300Y-6471200D01*
X11462300Y-6431200D02*
G75*
G03*
X11462300Y-6431200I-40000J0D01*
G01*
X11382300Y-7153200D02*
X11462300Y-7233200D01*
X11462300Y-7153200D02*
X11382300Y-7233200D01*
X11462300Y-7193200D02*
G75*
G03*
X11462300Y-7193200I-40000J0D01*
G01*
X11636300Y-6391200D02*
X11716300Y-6471200D01*
X11716300Y-6391200D02*
X11636300Y-6471200D01*
X11716300Y-6431200D02*
G75*
G03*
X11716300Y-6431200I-40000J0D01*
G01*
X11636300Y-7153200D02*
X11716300Y-7233200D01*
X11716300Y-7153200D02*
X11636300Y-7233200D01*
X11716300Y-7193200D02*
G75*
G03*
X11716300Y-7193200I-40000J0D01*
G01*
X11890300Y-6391200D02*
X11970300Y-6471200D01*
X11970300Y-6391200D02*
X11890300Y-6471200D01*
X11970300Y-6431200D02*
G75*
G03*
X11970300Y-6431200I-40000J0D01*
G01*
X11890300Y-7153200D02*
X11970300Y-7233200D01*
X11970300Y-7153200D02*
X11890300Y-7233200D01*
X11970300Y-7193200D02*
G75*
G03*
X11970300Y-7193200I-40000J0D01*
G01*
X12144300Y-6391200D02*
X12224300Y-6471200D01*
X12224300Y-6391200D02*
X12144300Y-6471200D01*
X12224300Y-6431200D02*
G75*
G03*
X12224300Y-6431200I-40000J0D01*
G01*
X12144300Y-7153200D02*
X12224300Y-7233200D01*
X12224300Y-7153200D02*
X12144300Y-7233200D01*
X12224300Y-7193200D02*
G75*
G03*
X12224300Y-7193200I-40000J0D01*
G01*
X12398300Y-6391200D02*
X12478300Y-6471200D01*
X12478300Y-6391200D02*
X12398300Y-6471200D01*
X12478300Y-6431200D02*
G75*
G03*
X12478300Y-6431200I-40000J0D01*
G01*
X12398300Y-7153200D02*
X12478300Y-7233200D01*
X12478300Y-7153200D02*
X12398300Y-7233200D01*
X12478300Y-7193200D02*
G75*
G03*
X12478300Y-7193200I-40000J0D01*
G01*
X12652300Y-6391200D02*
X12732300Y-6471200D01*
X12732300Y-6391200D02*
X12652300Y-6471200D01*
X12732300Y-6431200D02*
G75*
G03*
X12732300Y-6431200I-40000J0D01*
G01*
X12652300Y-7153200D02*
X12732300Y-7233200D01*
X12732300Y-7153200D02*
X12652300Y-7233200D01*
X12732300Y-7193200D02*
G75*
G03*
X12732300Y-7193200I-40000J0D01*
G01*
X11245300Y-6063700D02*
X11345300Y-6163700D01*
X11345300Y-6063700D02*
X11245300Y-6163700D01*
X11295300Y-6063700D02*
X11295300Y-6163700D01*
X11245300Y-6113700D02*
X11345300Y-6113700D01*
X11499300Y-6063700D02*
X11599300Y-6163700D01*
X11599300Y-6063700D02*
X11499300Y-6163700D01*
X11549300Y-6063700D02*
X11549300Y-6163700D01*
X11499300Y-6113700D02*
X11599300Y-6113700D01*
X11753300Y-6063700D02*
X11853300Y-6163700D01*
X11853300Y-6063700D02*
X11753300Y-6163700D01*
X11803300Y-6063700D02*
X11803300Y-6163700D01*
X11753300Y-6113700D02*
X11853300Y-6113700D01*
X12007300Y-6063700D02*
X12107300Y-6163700D01*
X12107300Y-6063700D02*
X12007300Y-6163700D01*
X12057300Y-6063700D02*
X12057300Y-6163700D01*
X12007300Y-6113700D02*
X12107300Y-6113700D01*
X12261300Y-6063700D02*
X12361300Y-6163700D01*
X12361300Y-6063700D02*
X12261300Y-6163700D01*
X12311300Y-6063700D02*
X12311300Y-6163700D01*
X12261300Y-6113700D02*
X12361300Y-6113700D01*
X12515300Y-6063700D02*
X12615300Y-6163700D01*
X12615300Y-6063700D02*
X12515300Y-6163700D01*
X12565300Y-6063700D02*
X12565300Y-6163700D01*
X12515300Y-6113700D02*
X12615300Y-6113700D01*
X12769300Y-6063700D02*
X12869300Y-6163700D01*
X12869300Y-6063700D02*
X12769300Y-6163700D01*
X12819300Y-6063700D02*
X12819300Y-6163700D01*
X12769300Y-6113700D02*
X12869300Y-6113700D01*
X13175700Y-6533100D02*
X13275700Y-6633100D01*
X13275700Y-6533100D02*
X13175700Y-6633100D01*
X13225700Y-6533100D02*
X13225700Y-6633100D01*
X13175700Y-6583100D02*
X13275700Y-6583100D01*
X13175700Y-6787100D02*
X13275700Y-6887100D01*
X13275700Y-6787100D02*
X13175700Y-6887100D01*
X13225700Y-6787100D02*
X13225700Y-6887100D01*
X13175700Y-6837100D02*
X13275700Y-6837100D01*
X13492500Y-3910000D02*
X13592500Y-4010000D01*
X13592500Y-3910000D02*
X13492500Y-4010000D01*
X13542500Y-3910000D02*
X13542500Y-4010000D01*
X13492500Y-3960000D02*
X13592500Y-3960000D01*
X13492500Y-5740000D02*
X13592500Y-5840000D01*
X13592500Y-5740000D02*
X13492500Y-5840000D01*
X13542500Y-5740000D02*
X13542500Y-5840000D01*
X13492500Y-5790000D02*
X13592500Y-5790000D01*
X13544000Y-6533100D02*
X13644000Y-6633100D01*
X13644000Y-6533100D02*
X13544000Y-6633100D01*
X13594000Y-6533100D02*
X13594000Y-6633100D01*
X13544000Y-6583100D02*
X13644000Y-6583100D01*
X13544000Y-6787100D02*
X13644000Y-6887100D01*
X13644000Y-6787100D02*
X13544000Y-6887100D01*
X13594000Y-6787100D02*
X13594000Y-6887100D01*
X13544000Y-6837100D02*
X13644000Y-6837100D01*
X13746500Y-3910000D02*
X13846500Y-4010000D01*
X13846500Y-3910000D02*
X13746500Y-4010000D01*
X13796500Y-3910000D02*
X13796500Y-4010000D01*
X13746500Y-3960000D02*
X13846500Y-3960000D01*
X13746500Y-5740000D02*
X13846500Y-5840000D01*
X13846500Y-5740000D02*
X13746500Y-5840000D01*
X13796500Y-5740000D02*
X13796500Y-5840000D01*
X13746500Y-5790000D02*
X13846500Y-5790000D01*
X13912300Y-6533100D02*
X14012300Y-6633100D01*
X14012300Y-6533100D02*
X13912300Y-6633100D01*
X13962300Y-6533100D02*
X13962300Y-6633100D01*
X13912300Y-6583100D02*
X14012300Y-6583100D01*
X13912300Y-6787100D02*
X14012300Y-6887100D01*
X14012300Y-6787100D02*
X13912300Y-6887100D01*
X13962300Y-6787100D02*
X13962300Y-6887100D01*
X13912300Y-6837100D02*
X14012300Y-6837100D01*
D13*
X8259800Y-3891000D02*
X8361800Y-3993000D01*
X8361800Y-3891000D02*
X8259800Y-3993000D01*
X8346863Y-3978063D02*
X8346863Y-3905937D01*
X8274737Y-3905937D01*
X8274737Y-3978063D01*
X8346863Y-3978063D01*
X8259800Y-5669000D02*
X8361800Y-5771000D01*
X8361800Y-5669000D02*
X8259800Y-5771000D01*
X8346863Y-5756063D02*
X8346863Y-5683937D01*
X8274737Y-5683937D01*
X8274737Y-5756063D01*
X8346863Y-5756063D01*
X8513800Y-3891000D02*
X8615800Y-3993000D01*
X8615800Y-3891000D02*
X8513800Y-3993000D01*
X8600863Y-3978063D02*
X8600863Y-3905937D01*
X8528737Y-3905937D01*
X8528737Y-3978063D01*
X8600863Y-3978063D01*
X8513800Y-5669000D02*
X8615800Y-5771000D01*
X8615800Y-5669000D02*
X8513800Y-5771000D01*
X8600863Y-5756063D02*
X8600863Y-5683937D01*
X8528737Y-5683937D01*
X8528737Y-5756063D01*
X8600863Y-5756063D01*
X8767800Y-3891000D02*
X8869800Y-3993000D01*
X8869800Y-3891000D02*
X8767800Y-3993000D01*
X8854863Y-3978063D02*
X8854863Y-3905937D01*
X8782737Y-3905937D01*
X8782737Y-3978063D01*
X8854863Y-3978063D01*
X8767800Y-5669000D02*
X8869800Y-5771000D01*
X8869800Y-5669000D02*
X8767800Y-5771000D01*
X8854863Y-5756063D02*
X8854863Y-5683937D01*
X8782737Y-5683937D01*
X8782737Y-5756063D01*
X8854863Y-5756063D01*
X9021800Y-3891000D02*
X9123800Y-3993000D01*
X9123800Y-3891000D02*
X9021800Y-3993000D01*
X9108863Y-3978063D02*
X9108863Y-3905937D01*
X9036737Y-3905937D01*
X9036737Y-3978063D01*
X9108863Y-3978063D01*
X9021800Y-5669000D02*
X9123800Y-5771000D01*
X9123800Y-5669000D02*
X9021800Y-5771000D01*
X9108863Y-5756063D02*
X9108863Y-5683937D01*
X9036737Y-5683937D01*
X9036737Y-5756063D01*
X9108863Y-5756063D01*
X9275800Y-3891000D02*
X9377800Y-3993000D01*
X9377800Y-3891000D02*
X9275800Y-3993000D01*
X9362863Y-3978063D02*
X9362863Y-3905937D01*
X9290737Y-3905937D01*
X9290737Y-3978063D01*
X9362863Y-3978063D01*
X9275800Y-5669000D02*
X9377800Y-5771000D01*
X9377800Y-5669000D02*
X9275800Y-5771000D01*
X9362863Y-5756063D02*
X9362863Y-5683937D01*
X9290737Y-5683937D01*
X9290737Y-5756063D01*
X9362863Y-5756063D01*
X9529800Y-3891000D02*
X9631800Y-3993000D01*
X9631800Y-3891000D02*
X9529800Y-3993000D01*
X9616863Y-3978063D02*
X9616863Y-3905937D01*
X9544737Y-3905937D01*
X9544737Y-3978063D01*
X9616863Y-3978063D01*
X9529800Y-5669000D02*
X9631800Y-5771000D01*
X9631800Y-5669000D02*
X9529800Y-5771000D01*
X9616863Y-5756063D02*
X9616863Y-5683937D01*
X9544737Y-5683937D01*
X9544737Y-5756063D01*
X9616863Y-5756063D01*
X9783800Y-3891000D02*
X9885800Y-3993000D01*
X9885800Y-3891000D02*
X9783800Y-3993000D01*
X9870863Y-3978063D02*
X9870863Y-3905937D01*
X9798737Y-3905937D01*
X9798737Y-3978063D01*
X9870863Y-3978063D01*
X9783800Y-5669000D02*
X9885800Y-5771000D01*
X9885800Y-5669000D02*
X9783800Y-5771000D01*
X9870863Y-5756063D02*
X9870863Y-5683937D01*
X9798737Y-5683937D01*
X9798737Y-5756063D01*
X9870863Y-5756063D01*
X10037800Y-3891000D02*
X10139800Y-3993000D01*
X10139800Y-3891000D02*
X10037800Y-3993000D01*
X10124863Y-3978063D02*
X10124863Y-3905937D01*
X10052737Y-3905937D01*
X10052737Y-3978063D01*
X10124863Y-3978063D01*
X10037800Y-5669000D02*
X10139800Y-5771000D01*
X10139800Y-5669000D02*
X10037800Y-5771000D01*
X10124863Y-5756063D02*
X10124863Y-5683937D01*
X10052737Y-5683937D01*
X10052737Y-5756063D01*
X10124863Y-5756063D01*
X10291800Y-3891000D02*
X10393800Y-3993000D01*
X10393800Y-3891000D02*
X10291800Y-3993000D01*
X10378863Y-3978063D02*
X10378863Y-3905937D01*
X10306737Y-3905937D01*
X10306737Y-3978063D01*
X10378863Y-3978063D01*
X10291800Y-5669000D02*
X10393800Y-5771000D01*
X10393800Y-5669000D02*
X10291800Y-5771000D01*
X10378863Y-5756063D02*
X10378863Y-5683937D01*
X10306737Y-5683937D01*
X10306737Y-5756063D01*
X10378863Y-5756063D01*
X10545800Y-3891000D02*
X10647800Y-3993000D01*
X10647800Y-3891000D02*
X10545800Y-3993000D01*
X10632863Y-3978063D02*
X10632863Y-3905937D01*
X10560737Y-3905937D01*
X10560737Y-3978063D01*
X10632863Y-3978063D01*
X10545800Y-5669000D02*
X10647800Y-5771000D01*
X10647800Y-5669000D02*
X10545800Y-5771000D01*
X10632863Y-5756063D02*
X10632863Y-5683937D01*
X10560737Y-5683937D01*
X10560737Y-5756063D01*
X10632863Y-5756063D01*
X10799800Y-3891000D02*
X10901800Y-3993000D01*
X10901800Y-3891000D02*
X10799800Y-3993000D01*
X10886863Y-3978063D02*
X10886863Y-3905937D01*
X10814737Y-3905937D01*
X10814737Y-3978063D01*
X10886863Y-3978063D01*
X10799800Y-5669000D02*
X10901800Y-5771000D01*
X10901800Y-5669000D02*
X10799800Y-5771000D01*
X10886863Y-5756063D02*
X10886863Y-5683937D01*
X10814737Y-5683937D01*
X10814737Y-5756063D01*
X10886863Y-5756063D01*
X11053800Y-3891000D02*
X11155800Y-3993000D01*
X11155800Y-3891000D02*
X11053800Y-3993000D01*
X11140863Y-3978063D02*
X11140863Y-3905937D01*
X11068737Y-3905937D01*
X11068737Y-3978063D01*
X11140863Y-3978063D01*
X11053800Y-5669000D02*
X11155800Y-5771000D01*
X11155800Y-5669000D02*
X11053800Y-5771000D01*
X11140863Y-5756063D02*
X11140863Y-5683937D01*
X11068737Y-5683937D01*
X11068737Y-5756063D01*
X11140863Y-5756063D01*
X11307800Y-3891000D02*
X11409800Y-3993000D01*
X11409800Y-3891000D02*
X11307800Y-3993000D01*
X11394863Y-3978063D02*
X11394863Y-3905937D01*
X11322737Y-3905937D01*
X11322737Y-3978063D01*
X11394863Y-3978063D01*
X11307800Y-5669000D02*
X11409800Y-5771000D01*
X11409800Y-5669000D02*
X11307800Y-5771000D01*
X11394863Y-5756063D02*
X11394863Y-5683937D01*
X11322737Y-5683937D01*
X11322737Y-5756063D01*
X11394863Y-5756063D01*
X11561800Y-3891000D02*
X11663800Y-3993000D01*
X11663800Y-3891000D02*
X11561800Y-3993000D01*
X11648863Y-3978063D02*
X11648863Y-3905937D01*
X11576737Y-3905937D01*
X11576737Y-3978063D01*
X11648863Y-3978063D01*
X11561800Y-5669000D02*
X11663800Y-5771000D01*
X11663800Y-5669000D02*
X11561800Y-5771000D01*
X11648863Y-5756063D02*
X11648863Y-5683937D01*
X11576737Y-5683937D01*
X11576737Y-5756063D01*
X11648863Y-5756063D01*
X11815800Y-3891000D02*
X11917800Y-3993000D01*
X11917800Y-3891000D02*
X11815800Y-3993000D01*
X11902863Y-3978063D02*
X11902863Y-3905937D01*
X11830737Y-3905937D01*
X11830737Y-3978063D01*
X11902863Y-3978063D01*
X11815800Y-5669000D02*
X11917800Y-5771000D01*
X11917800Y-5669000D02*
X11815800Y-5771000D01*
X11902863Y-5756063D02*
X11902863Y-5683937D01*
X11830737Y-5683937D01*
X11830737Y-5756063D01*
X11902863Y-5756063D01*
X12069800Y-3891000D02*
X12171800Y-3993000D01*
X12171800Y-3891000D02*
X12069800Y-3993000D01*
X12156863Y-3978063D02*
X12156863Y-3905937D01*
X12084737Y-3905937D01*
X12084737Y-3978063D01*
X12156863Y-3978063D01*
X12069800Y-5669000D02*
X12171800Y-5771000D01*
X12171800Y-5669000D02*
X12069800Y-5771000D01*
X12156863Y-5756063D02*
X12156863Y-5683937D01*
X12084737Y-5683937D01*
X12084737Y-5756063D01*
X12156863Y-5756063D01*
X12323800Y-3891000D02*
X12425800Y-3993000D01*
X12425800Y-3891000D02*
X12323800Y-3993000D01*
X12410863Y-3978063D02*
X12410863Y-3905937D01*
X12338737Y-3905937D01*
X12338737Y-3978063D01*
X12410863Y-3978063D01*
X12323800Y-5669000D02*
X12425800Y-5771000D01*
X12425800Y-5669000D02*
X12323800Y-5771000D01*
X12410863Y-5756063D02*
X12410863Y-5683937D01*
X12338737Y-5683937D01*
X12338737Y-5756063D01*
X12410863Y-5756063D01*
X12577800Y-3891000D02*
X12679800Y-3993000D01*
X12679800Y-3891000D02*
X12577800Y-3993000D01*
X12664863Y-3978063D02*
X12664863Y-3905937D01*
X12592737Y-3905937D01*
X12592737Y-3978063D01*
X12664863Y-3978063D01*
X12577800Y-5669000D02*
X12679800Y-5771000D01*
X12679800Y-5669000D02*
X12577800Y-5771000D01*
X12664863Y-5756063D02*
X12664863Y-5683937D01*
X12592737Y-5683937D01*
X12592737Y-5756063D01*
X12664863Y-5756063D01*
X12831800Y-3891000D02*
X12933800Y-3993000D01*
X12933800Y-3891000D02*
X12831800Y-3993000D01*
X12918863Y-3978063D02*
X12918863Y-3905937D01*
X12846737Y-3905937D01*
X12846737Y-3978063D01*
X12918863Y-3978063D01*
X12831800Y-5669000D02*
X12933800Y-5771000D01*
X12933800Y-5669000D02*
X12831800Y-5771000D01*
X12918863Y-5756063D02*
X12918863Y-5683937D01*
X12846737Y-5683937D01*
X12846737Y-5756063D01*
X12918863Y-5756063D01*
X13085800Y-3891000D02*
X13187800Y-3993000D01*
X13187800Y-3891000D02*
X13085800Y-3993000D01*
X13172863Y-3978063D02*
X13172863Y-3905937D01*
X13100737Y-3905937D01*
X13100737Y-3978063D01*
X13172863Y-3978063D01*
X13085800Y-5669000D02*
X13187800Y-5771000D01*
X13187800Y-5669000D02*
X13085800Y-5771000D01*
X13172863Y-5756063D02*
X13172863Y-5683937D01*
X13100737Y-5683937D01*
X13100737Y-5756063D01*
X13172863Y-5756063D01*
D14*
X13695800Y-4513700D02*
X13847800Y-4665700D01*
X13847800Y-4513700D02*
X13695800Y-4665700D01*
X13771800Y-4665700D02*
X13847800Y-4589700D01*
X13771800Y-4513700D01*
X13695800Y-4589700D01*
X13771800Y-4665700D01*
X13695800Y-5021700D02*
X13847800Y-5173700D01*
X13847800Y-5021700D02*
X13695800Y-5173700D01*
X13771800Y-5173700D02*
X13847800Y-5097700D01*
X13771800Y-5021700D01*
X13695800Y-5097700D01*
X13771800Y-5173700D01*
D11*
X8270077Y-9073784D02*
X8270077Y-8873784D01*
X8270077Y-8873784D02*
X8317696Y-8873784D01*
X8317696Y-8873784D02*
X8346267Y-8883308D01*
X8346267Y-8883308D02*
X8365315Y-8902355D01*
X8365315Y-8902355D02*
X8374839Y-8921403D01*
X8374839Y-8921403D02*
X8384362Y-8959498D01*
X8384362Y-8959498D02*
X8384362Y-8988070D01*
X8384362Y-8988070D02*
X8374839Y-9026165D01*
X8374839Y-9026165D02*
X8365315Y-9045212D01*
X8365315Y-9045212D02*
X8346267Y-9064260D01*
X8346267Y-9064260D02*
X8317696Y-9073784D01*
X8317696Y-9073784D02*
X8270077Y-9073784D01*
X8470077Y-9073784D02*
X8470077Y-8940450D01*
X8470077Y-8978546D02*
X8479601Y-8959498D01*
X8479601Y-8959498D02*
X8489124Y-8949974D01*
X8489124Y-8949974D02*
X8508172Y-8940450D01*
X8508172Y-8940450D02*
X8527220Y-8940450D01*
X8593886Y-9073784D02*
X8593886Y-8940450D01*
X8593886Y-8873784D02*
X8584363Y-8883308D01*
X8584363Y-8883308D02*
X8593886Y-8892831D01*
X8593886Y-8892831D02*
X8603410Y-8883308D01*
X8603410Y-8883308D02*
X8593886Y-8873784D01*
X8593886Y-8873784D02*
X8593886Y-8892831D01*
X8717696Y-9073784D02*
X8698648Y-9064260D01*
X8698648Y-9064260D02*
X8689124Y-9045212D01*
X8689124Y-9045212D02*
X8689124Y-8873784D01*
X8822458Y-9073784D02*
X8803410Y-9064260D01*
X8803410Y-9064260D02*
X8793886Y-9045212D01*
X8793886Y-9045212D02*
X8793886Y-8873784D01*
X9051029Y-9073784D02*
X9051029Y-8873784D01*
X9051029Y-8873784D02*
X9117696Y-9016641D01*
X9117696Y-9016641D02*
X9184363Y-8873784D01*
X9184363Y-8873784D02*
X9184363Y-9073784D01*
X9365315Y-9073784D02*
X9365315Y-8969022D01*
X9365315Y-8969022D02*
X9355791Y-8949974D01*
X9355791Y-8949974D02*
X9336744Y-8940450D01*
X9336744Y-8940450D02*
X9298648Y-8940450D01*
X9298648Y-8940450D02*
X9279601Y-8949974D01*
X9365315Y-9064260D02*
X9346267Y-9073784D01*
X9346267Y-9073784D02*
X9298648Y-9073784D01*
X9298648Y-9073784D02*
X9279601Y-9064260D01*
X9279601Y-9064260D02*
X9270077Y-9045212D01*
X9270077Y-9045212D02*
X9270077Y-9026165D01*
X9270077Y-9026165D02*
X9279601Y-9007117D01*
X9279601Y-9007117D02*
X9298648Y-8997593D01*
X9298648Y-8997593D02*
X9346267Y-8997593D01*
X9346267Y-8997593D02*
X9365315Y-8988070D01*
X9460553Y-8940450D02*
X9460553Y-9140450D01*
X9460553Y-8949974D02*
X9479601Y-8940450D01*
X9479601Y-8940450D02*
X9517696Y-8940450D01*
X9517696Y-8940450D02*
X9536744Y-8949974D01*
X9536744Y-8949974D02*
X9546267Y-8959498D01*
X9546267Y-8959498D02*
X9555791Y-8978546D01*
X9555791Y-8978546D02*
X9555791Y-9035689D01*
X9555791Y-9035689D02*
X9546267Y-9054736D01*
X9546267Y-9054736D02*
X9536744Y-9064260D01*
X9536744Y-9064260D02*
X9517696Y-9073784D01*
X9517696Y-9073784D02*
X9479601Y-9073784D01*
X9479601Y-9073784D02*
X9460553Y-9064260D01*
X9641505Y-9054736D02*
X9651029Y-9064260D01*
X9651029Y-9064260D02*
X9641505Y-9073784D01*
X9641505Y-9073784D02*
X9631982Y-9064260D01*
X9631982Y-9064260D02*
X9641505Y-9054736D01*
X9641505Y-9054736D02*
X9641505Y-9073784D01*
X9641505Y-8949974D02*
X9651029Y-8959498D01*
X9651029Y-8959498D02*
X9641505Y-8969022D01*
X9641505Y-8969022D02*
X9631982Y-8959498D01*
X9631982Y-8959498D02*
X9641505Y-8949974D01*
X9641505Y-8949974D02*
X9641505Y-8969022D01*
D12*
X7989300Y-9392300D02*
X8009300Y-9412300D01*
X8009300Y-9392300D02*
X7989300Y-9412300D01*
D11*
X8308172Y-9293784D02*
X8327220Y-9293784D01*
X8327220Y-9293784D02*
X8346267Y-9303308D01*
X8346267Y-9303308D02*
X8355791Y-9312831D01*
X8355791Y-9312831D02*
X8365315Y-9331879D01*
X8365315Y-9331879D02*
X8374839Y-9369974D01*
X8374839Y-9369974D02*
X8374839Y-9417593D01*
X8374839Y-9417593D02*
X8365315Y-9455689D01*
X8365315Y-9455689D02*
X8355791Y-9474736D01*
X8355791Y-9474736D02*
X8346267Y-9484260D01*
X8346267Y-9484260D02*
X8327220Y-9493784D01*
X8327220Y-9493784D02*
X8308172Y-9493784D01*
X8308172Y-9493784D02*
X8289124Y-9484260D01*
X8289124Y-9484260D02*
X8279601Y-9474736D01*
X8279601Y-9474736D02*
X8270077Y-9455689D01*
X8270077Y-9455689D02*
X8260553Y-9417593D01*
X8260553Y-9417593D02*
X8260553Y-9369974D01*
X8260553Y-9369974D02*
X8270077Y-9331879D01*
X8270077Y-9331879D02*
X8279601Y-9312831D01*
X8279601Y-9312831D02*
X8289124Y-9303308D01*
X8289124Y-9303308D02*
X8308172Y-9293784D01*
X8460553Y-9474736D02*
X8470077Y-9484260D01*
X8470077Y-9484260D02*
X8460553Y-9493784D01*
X8460553Y-9493784D02*
X8451029Y-9484260D01*
X8451029Y-9484260D02*
X8460553Y-9474736D01*
X8460553Y-9474736D02*
X8460553Y-9493784D01*
X8546267Y-9312831D02*
X8555791Y-9303308D01*
X8555791Y-9303308D02*
X8574839Y-9293784D01*
X8574839Y-9293784D02*
X8622458Y-9293784D01*
X8622458Y-9293784D02*
X8641505Y-9303308D01*
X8641505Y-9303308D02*
X8651029Y-9312831D01*
X8651029Y-9312831D02*
X8660553Y-9331879D01*
X8660553Y-9331879D02*
X8660553Y-9350927D01*
X8660553Y-9350927D02*
X8651029Y-9379498D01*
X8651029Y-9379498D02*
X8536744Y-9493784D01*
X8536744Y-9493784D02*
X8660553Y-9493784D01*
X8784363Y-9293784D02*
X8803410Y-9293784D01*
X8803410Y-9293784D02*
X8822458Y-9303308D01*
X8822458Y-9303308D02*
X8831982Y-9312831D01*
X8831982Y-9312831D02*
X8841505Y-9331879D01*
X8841505Y-9331879D02*
X8851029Y-9369974D01*
X8851029Y-9369974D02*
X8851029Y-9417593D01*
X8851029Y-9417593D02*
X8841505Y-9455689D01*
X8841505Y-9455689D02*
X8831982Y-9474736D01*
X8831982Y-9474736D02*
X8822458Y-9484260D01*
X8822458Y-9484260D02*
X8803410Y-9493784D01*
X8803410Y-9493784D02*
X8784363Y-9493784D01*
X8784363Y-9493784D02*
X8765315Y-9484260D01*
X8765315Y-9484260D02*
X8755791Y-9474736D01*
X8755791Y-9474736D02*
X8746267Y-9455689D01*
X8746267Y-9455689D02*
X8736744Y-9417593D01*
X8736744Y-9417593D02*
X8736744Y-9369974D01*
X8736744Y-9369974D02*
X8746267Y-9331879D01*
X8746267Y-9331879D02*
X8755791Y-9312831D01*
X8755791Y-9312831D02*
X8765315Y-9303308D01*
X8765315Y-9303308D02*
X8784363Y-9293784D01*
X8974839Y-9293784D02*
X8993886Y-9293784D01*
X8993886Y-9293784D02*
X9012934Y-9303308D01*
X9012934Y-9303308D02*
X9022458Y-9312831D01*
X9022458Y-9312831D02*
X9031982Y-9331879D01*
X9031982Y-9331879D02*
X9041505Y-9369974D01*
X9041505Y-9369974D02*
X9041505Y-9417593D01*
X9041505Y-9417593D02*
X9031982Y-9455689D01*
X9031982Y-9455689D02*
X9022458Y-9474736D01*
X9022458Y-9474736D02*
X9012934Y-9484260D01*
X9012934Y-9484260D02*
X8993886Y-9493784D01*
X8993886Y-9493784D02*
X8974839Y-9493784D01*
X8974839Y-9493784D02*
X8955791Y-9484260D01*
X8955791Y-9484260D02*
X8946267Y-9474736D01*
X8946267Y-9474736D02*
X8936744Y-9455689D01*
X8936744Y-9455689D02*
X8927220Y-9417593D01*
X8927220Y-9417593D02*
X8927220Y-9369974D01*
X8927220Y-9369974D02*
X8936744Y-9331879D01*
X8936744Y-9331879D02*
X8946267Y-9312831D01*
X8946267Y-9312831D02*
X8955791Y-9303308D01*
X8955791Y-9303308D02*
X8974839Y-9293784D01*
X9127220Y-9493784D02*
X9127220Y-9360450D01*
X9127220Y-9379498D02*
X9136744Y-9369974D01*
X9136744Y-9369974D02*
X9155791Y-9360450D01*
X9155791Y-9360450D02*
X9184363Y-9360450D01*
X9184363Y-9360450D02*
X9203410Y-9369974D01*
X9203410Y-9369974D02*
X9212934Y-9389022D01*
X9212934Y-9389022D02*
X9212934Y-9493784D01*
X9212934Y-9389022D02*
X9222458Y-9369974D01*
X9222458Y-9369974D02*
X9241505Y-9360450D01*
X9241505Y-9360450D02*
X9270077Y-9360450D01*
X9270077Y-9360450D02*
X9289125Y-9369974D01*
X9289125Y-9369974D02*
X9298648Y-9389022D01*
X9298648Y-9389022D02*
X9298648Y-9493784D01*
X9393886Y-9493784D02*
X9393886Y-9360450D01*
X9393886Y-9379498D02*
X9403410Y-9369974D01*
X9403410Y-9369974D02*
X9422458Y-9360450D01*
X9422458Y-9360450D02*
X9451029Y-9360450D01*
X9451029Y-9360450D02*
X9470077Y-9369974D01*
X9470077Y-9369974D02*
X9479601Y-9389022D01*
X9479601Y-9389022D02*
X9479601Y-9493784D01*
X9479601Y-9389022D02*
X9489125Y-9369974D01*
X9489125Y-9369974D02*
X9508172Y-9360450D01*
X9508172Y-9360450D02*
X9536744Y-9360450D01*
X9536744Y-9360450D02*
X9555791Y-9369974D01*
X9555791Y-9369974D02*
X9565315Y-9389022D01*
X9565315Y-9389022D02*
X9565315Y-9493784D01*
X9955791Y-9284260D02*
X9784363Y-9541403D01*
X10212934Y-9293784D02*
X10231982Y-9293784D01*
X10231982Y-9293784D02*
X10251029Y-9303308D01*
X10251029Y-9303308D02*
X10260553Y-9312831D01*
X10260553Y-9312831D02*
X10270077Y-9331879D01*
X10270077Y-9331879D02*
X10279601Y-9369974D01*
X10279601Y-9369974D02*
X10279601Y-9417593D01*
X10279601Y-9417593D02*
X10270077Y-9455689D01*
X10270077Y-9455689D02*
X10260553Y-9474736D01*
X10260553Y-9474736D02*
X10251029Y-9484260D01*
X10251029Y-9484260D02*
X10231982Y-9493784D01*
X10231982Y-9493784D02*
X10212934Y-9493784D01*
X10212934Y-9493784D02*
X10193887Y-9484260D01*
X10193887Y-9484260D02*
X10184363Y-9474736D01*
X10184363Y-9474736D02*
X10174839Y-9455689D01*
X10174839Y-9455689D02*
X10165315Y-9417593D01*
X10165315Y-9417593D02*
X10165315Y-9369974D01*
X10165315Y-9369974D02*
X10174839Y-9331879D01*
X10174839Y-9331879D02*
X10184363Y-9312831D01*
X10184363Y-9312831D02*
X10193887Y-9303308D01*
X10193887Y-9303308D02*
X10212934Y-9293784D01*
X10365315Y-9474736D02*
X10374839Y-9484260D01*
X10374839Y-9484260D02*
X10365315Y-9493784D01*
X10365315Y-9493784D02*
X10355791Y-9484260D01*
X10355791Y-9484260D02*
X10365315Y-9474736D01*
X10365315Y-9474736D02*
X10365315Y-9493784D01*
X10498648Y-9293784D02*
X10517696Y-9293784D01*
X10517696Y-9293784D02*
X10536744Y-9303308D01*
X10536744Y-9303308D02*
X10546268Y-9312831D01*
X10546268Y-9312831D02*
X10555791Y-9331879D01*
X10555791Y-9331879D02*
X10565315Y-9369974D01*
X10565315Y-9369974D02*
X10565315Y-9417593D01*
X10565315Y-9417593D02*
X10555791Y-9455689D01*
X10555791Y-9455689D02*
X10546268Y-9474736D01*
X10546268Y-9474736D02*
X10536744Y-9484260D01*
X10536744Y-9484260D02*
X10517696Y-9493784D01*
X10517696Y-9493784D02*
X10498648Y-9493784D01*
X10498648Y-9493784D02*
X10479601Y-9484260D01*
X10479601Y-9484260D02*
X10470077Y-9474736D01*
X10470077Y-9474736D02*
X10460553Y-9455689D01*
X10460553Y-9455689D02*
X10451029Y-9417593D01*
X10451029Y-9417593D02*
X10451029Y-9369974D01*
X10451029Y-9369974D02*
X10460553Y-9331879D01*
X10460553Y-9331879D02*
X10470077Y-9312831D01*
X10470077Y-9312831D02*
X10479601Y-9303308D01*
X10479601Y-9303308D02*
X10498648Y-9293784D01*
X10689125Y-9293784D02*
X10708172Y-9293784D01*
X10708172Y-9293784D02*
X10727220Y-9303308D01*
X10727220Y-9303308D02*
X10736744Y-9312831D01*
X10736744Y-9312831D02*
X10746268Y-9331879D01*
X10746268Y-9331879D02*
X10755791Y-9369974D01*
X10755791Y-9369974D02*
X10755791Y-9417593D01*
X10755791Y-9417593D02*
X10746268Y-9455689D01*
X10746268Y-9455689D02*
X10736744Y-9474736D01*
X10736744Y-9474736D02*
X10727220Y-9484260D01*
X10727220Y-9484260D02*
X10708172Y-9493784D01*
X10708172Y-9493784D02*
X10689125Y-9493784D01*
X10689125Y-9493784D02*
X10670077Y-9484260D01*
X10670077Y-9484260D02*
X10660553Y-9474736D01*
X10660553Y-9474736D02*
X10651029Y-9455689D01*
X10651029Y-9455689D02*
X10641506Y-9417593D01*
X10641506Y-9417593D02*
X10641506Y-9369974D01*
X10641506Y-9369974D02*
X10651029Y-9331879D01*
X10651029Y-9331879D02*
X10660553Y-9312831D01*
X10660553Y-9312831D02*
X10670077Y-9303308D01*
X10670077Y-9303308D02*
X10689125Y-9293784D01*
X10822458Y-9293784D02*
X10955791Y-9293784D01*
X10955791Y-9293784D02*
X10870077Y-9493784D01*
X11041506Y-9493784D02*
X11079601Y-9493784D01*
X11079601Y-9493784D02*
X11098649Y-9484260D01*
X11098649Y-9484260D02*
X11108172Y-9474736D01*
X11108172Y-9474736D02*
X11127220Y-9446165D01*
X11127220Y-9446165D02*
X11136744Y-9408070D01*
X11136744Y-9408070D02*
X11136744Y-9331879D01*
X11136744Y-9331879D02*
X11127220Y-9312831D01*
X11127220Y-9312831D02*
X11117696Y-9303308D01*
X11117696Y-9303308D02*
X11098649Y-9293784D01*
X11098649Y-9293784D02*
X11060553Y-9293784D01*
X11060553Y-9293784D02*
X11041506Y-9303308D01*
X11041506Y-9303308D02*
X11031982Y-9312831D01*
X11031982Y-9312831D02*
X11022458Y-9331879D01*
X11022458Y-9331879D02*
X11022458Y-9379498D01*
X11022458Y-9379498D02*
X11031982Y-9398546D01*
X11031982Y-9398546D02*
X11041506Y-9408070D01*
X11041506Y-9408070D02*
X11060553Y-9417593D01*
X11060553Y-9417593D02*
X11098649Y-9417593D01*
X11098649Y-9417593D02*
X11117696Y-9408070D01*
X11117696Y-9408070D02*
X11127220Y-9398546D01*
X11127220Y-9398546D02*
X11136744Y-9379498D01*
X11212934Y-9293784D02*
X11212934Y-9331879D01*
X11289125Y-9293784D02*
X11289125Y-9331879D01*
X11584363Y-9569974D02*
X11574839Y-9560450D01*
X11574839Y-9560450D02*
X11555791Y-9531879D01*
X11555791Y-9531879D02*
X11546268Y-9512831D01*
X11546268Y-9512831D02*
X11536744Y-9484260D01*
X11536744Y-9484260D02*
X11527220Y-9436641D01*
X11527220Y-9436641D02*
X11527220Y-9398546D01*
X11527220Y-9398546D02*
X11536744Y-9350927D01*
X11536744Y-9350927D02*
X11546268Y-9322355D01*
X11546268Y-9322355D02*
X11555791Y-9303308D01*
X11555791Y-9303308D02*
X11574839Y-9274736D01*
X11574839Y-9274736D02*
X11584363Y-9265212D01*
X11670077Y-9493784D02*
X11708172Y-9493784D01*
X11708172Y-9493784D02*
X11727220Y-9484260D01*
X11727220Y-9484260D02*
X11736744Y-9474736D01*
X11736744Y-9474736D02*
X11755791Y-9446165D01*
X11755791Y-9446165D02*
X11765315Y-9408070D01*
X11765315Y-9408070D02*
X11765315Y-9331879D01*
X11765315Y-9331879D02*
X11755791Y-9312831D01*
X11755791Y-9312831D02*
X11746268Y-9303308D01*
X11746268Y-9303308D02*
X11727220Y-9293784D01*
X11727220Y-9293784D02*
X11689125Y-9293784D01*
X11689125Y-9293784D02*
X11670077Y-9303308D01*
X11670077Y-9303308D02*
X11660553Y-9312831D01*
X11660553Y-9312831D02*
X11651029Y-9331879D01*
X11651029Y-9331879D02*
X11651029Y-9379498D01*
X11651029Y-9379498D02*
X11660553Y-9398546D01*
X11660553Y-9398546D02*
X11670077Y-9408070D01*
X11670077Y-9408070D02*
X11689125Y-9417593D01*
X11689125Y-9417593D02*
X11727220Y-9417593D01*
X11727220Y-9417593D02*
X11746268Y-9408070D01*
X11746268Y-9408070D02*
X11755791Y-9398546D01*
X11755791Y-9398546D02*
X11765315Y-9379498D01*
X12003410Y-9493784D02*
X12003410Y-9293784D01*
X12089125Y-9493784D02*
X12089125Y-9389022D01*
X12089125Y-9389022D02*
X12079601Y-9369974D01*
X12079601Y-9369974D02*
X12060553Y-9360450D01*
X12060553Y-9360450D02*
X12031982Y-9360450D01*
X12031982Y-9360450D02*
X12012934Y-9369974D01*
X12012934Y-9369974D02*
X12003410Y-9379498D01*
X12212934Y-9493784D02*
X12193887Y-9484260D01*
X12193887Y-9484260D02*
X12184363Y-9474736D01*
X12184363Y-9474736D02*
X12174839Y-9455689D01*
X12174839Y-9455689D02*
X12174839Y-9398546D01*
X12174839Y-9398546D02*
X12184363Y-9379498D01*
X12184363Y-9379498D02*
X12193887Y-9369974D01*
X12193887Y-9369974D02*
X12212934Y-9360450D01*
X12212934Y-9360450D02*
X12241506Y-9360450D01*
X12241506Y-9360450D02*
X12260553Y-9369974D01*
X12260553Y-9369974D02*
X12270077Y-9379498D01*
X12270077Y-9379498D02*
X12279601Y-9398546D01*
X12279601Y-9398546D02*
X12279601Y-9455689D01*
X12279601Y-9455689D02*
X12270077Y-9474736D01*
X12270077Y-9474736D02*
X12260553Y-9484260D01*
X12260553Y-9484260D02*
X12241506Y-9493784D01*
X12241506Y-9493784D02*
X12212934Y-9493784D01*
X12393887Y-9493784D02*
X12374839Y-9484260D01*
X12374839Y-9484260D02*
X12365315Y-9465212D01*
X12365315Y-9465212D02*
X12365315Y-9293784D01*
X12546268Y-9484260D02*
X12527220Y-9493784D01*
X12527220Y-9493784D02*
X12489125Y-9493784D01*
X12489125Y-9493784D02*
X12470077Y-9484260D01*
X12470077Y-9484260D02*
X12460553Y-9465212D01*
X12460553Y-9465212D02*
X12460553Y-9389022D01*
X12460553Y-9389022D02*
X12470077Y-9369974D01*
X12470077Y-9369974D02*
X12489125Y-9360450D01*
X12489125Y-9360450D02*
X12527220Y-9360450D01*
X12527220Y-9360450D02*
X12546268Y-9369974D01*
X12546268Y-9369974D02*
X12555791Y-9389022D01*
X12555791Y-9389022D02*
X12555791Y-9408070D01*
X12555791Y-9408070D02*
X12460553Y-9427117D01*
X12631982Y-9484260D02*
X12651030Y-9493784D01*
X12651030Y-9493784D02*
X12689125Y-9493784D01*
X12689125Y-9493784D02*
X12708172Y-9484260D01*
X12708172Y-9484260D02*
X12717696Y-9465212D01*
X12717696Y-9465212D02*
X12717696Y-9455689D01*
X12717696Y-9455689D02*
X12708172Y-9436641D01*
X12708172Y-9436641D02*
X12689125Y-9427117D01*
X12689125Y-9427117D02*
X12660553Y-9427117D01*
X12660553Y-9427117D02*
X12641506Y-9417593D01*
X12641506Y-9417593D02*
X12631982Y-9398546D01*
X12631982Y-9398546D02*
X12631982Y-9389022D01*
X12631982Y-9389022D02*
X12641506Y-9369974D01*
X12641506Y-9369974D02*
X12660553Y-9360450D01*
X12660553Y-9360450D02*
X12689125Y-9360450D01*
X12689125Y-9360450D02*
X12708172Y-9369974D01*
X12784363Y-9569974D02*
X12793887Y-9560450D01*
X12793887Y-9560450D02*
X12812934Y-9531879D01*
X12812934Y-9531879D02*
X12822458Y-9512831D01*
X12822458Y-9512831D02*
X12831982Y-9484260D01*
X12831982Y-9484260D02*
X12841506Y-9436641D01*
X12841506Y-9436641D02*
X12841506Y-9398546D01*
X12841506Y-9398546D02*
X12831982Y-9350927D01*
X12831982Y-9350927D02*
X12822458Y-9322355D01*
X12822458Y-9322355D02*
X12812934Y-9303308D01*
X12812934Y-9303308D02*
X12793887Y-9274736D01*
X12793887Y-9274736D02*
X12784363Y-9265212D01*
D12*
X8009300Y-9666300D02*
G75*
G03*
X8009300Y-9666300I-12500J0D01*
G01*
D11*
X8308172Y-9557784D02*
X8327220Y-9557784D01*
X8327220Y-9557784D02*
X8346267Y-9567308D01*
X8346267Y-9567308D02*
X8355791Y-9576831D01*
X8355791Y-9576831D02*
X8365315Y-9595879D01*
X8365315Y-9595879D02*
X8374839Y-9633974D01*
X8374839Y-9633974D02*
X8374839Y-9681593D01*
X8374839Y-9681593D02*
X8365315Y-9719689D01*
X8365315Y-9719689D02*
X8355791Y-9738736D01*
X8355791Y-9738736D02*
X8346267Y-9748260D01*
X8346267Y-9748260D02*
X8327220Y-9757784D01*
X8327220Y-9757784D02*
X8308172Y-9757784D01*
X8308172Y-9757784D02*
X8289124Y-9748260D01*
X8289124Y-9748260D02*
X8279601Y-9738736D01*
X8279601Y-9738736D02*
X8270077Y-9719689D01*
X8270077Y-9719689D02*
X8260553Y-9681593D01*
X8260553Y-9681593D02*
X8260553Y-9633974D01*
X8260553Y-9633974D02*
X8270077Y-9595879D01*
X8270077Y-9595879D02*
X8279601Y-9576831D01*
X8279601Y-9576831D02*
X8289124Y-9567308D01*
X8289124Y-9567308D02*
X8308172Y-9557784D01*
X8460553Y-9738736D02*
X8470077Y-9748260D01*
X8470077Y-9748260D02*
X8460553Y-9757784D01*
X8460553Y-9757784D02*
X8451029Y-9748260D01*
X8451029Y-9748260D02*
X8460553Y-9738736D01*
X8460553Y-9738736D02*
X8460553Y-9757784D01*
X8546267Y-9576831D02*
X8555791Y-9567308D01*
X8555791Y-9567308D02*
X8574839Y-9557784D01*
X8574839Y-9557784D02*
X8622458Y-9557784D01*
X8622458Y-9557784D02*
X8641505Y-9567308D01*
X8641505Y-9567308D02*
X8651029Y-9576831D01*
X8651029Y-9576831D02*
X8660553Y-9595879D01*
X8660553Y-9595879D02*
X8660553Y-9614927D01*
X8660553Y-9614927D02*
X8651029Y-9643498D01*
X8651029Y-9643498D02*
X8536744Y-9757784D01*
X8536744Y-9757784D02*
X8660553Y-9757784D01*
X8841505Y-9557784D02*
X8746267Y-9557784D01*
X8746267Y-9557784D02*
X8736744Y-9653022D01*
X8736744Y-9653022D02*
X8746267Y-9643498D01*
X8746267Y-9643498D02*
X8765315Y-9633974D01*
X8765315Y-9633974D02*
X8812934Y-9633974D01*
X8812934Y-9633974D02*
X8831982Y-9643498D01*
X8831982Y-9643498D02*
X8841505Y-9653022D01*
X8841505Y-9653022D02*
X8851029Y-9672070D01*
X8851029Y-9672070D02*
X8851029Y-9719689D01*
X8851029Y-9719689D02*
X8841505Y-9738736D01*
X8841505Y-9738736D02*
X8831982Y-9748260D01*
X8831982Y-9748260D02*
X8812934Y-9757784D01*
X8812934Y-9757784D02*
X8765315Y-9757784D01*
X8765315Y-9757784D02*
X8746267Y-9748260D01*
X8746267Y-9748260D02*
X8736744Y-9738736D01*
X8974839Y-9557784D02*
X8993886Y-9557784D01*
X8993886Y-9557784D02*
X9012934Y-9567308D01*
X9012934Y-9567308D02*
X9022458Y-9576831D01*
X9022458Y-9576831D02*
X9031982Y-9595879D01*
X9031982Y-9595879D02*
X9041505Y-9633974D01*
X9041505Y-9633974D02*
X9041505Y-9681593D01*
X9041505Y-9681593D02*
X9031982Y-9719689D01*
X9031982Y-9719689D02*
X9022458Y-9738736D01*
X9022458Y-9738736D02*
X9012934Y-9748260D01*
X9012934Y-9748260D02*
X8993886Y-9757784D01*
X8993886Y-9757784D02*
X8974839Y-9757784D01*
X8974839Y-9757784D02*
X8955791Y-9748260D01*
X8955791Y-9748260D02*
X8946267Y-9738736D01*
X8946267Y-9738736D02*
X8936744Y-9719689D01*
X8936744Y-9719689D02*
X8927220Y-9681593D01*
X8927220Y-9681593D02*
X8927220Y-9633974D01*
X8927220Y-9633974D02*
X8936744Y-9595879D01*
X8936744Y-9595879D02*
X8946267Y-9576831D01*
X8946267Y-9576831D02*
X8955791Y-9567308D01*
X8955791Y-9567308D02*
X8974839Y-9557784D01*
X9127220Y-9757784D02*
X9127220Y-9624450D01*
X9127220Y-9643498D02*
X9136744Y-9633974D01*
X9136744Y-9633974D02*
X9155791Y-9624450D01*
X9155791Y-9624450D02*
X9184363Y-9624450D01*
X9184363Y-9624450D02*
X9203410Y-9633974D01*
X9203410Y-9633974D02*
X9212934Y-9653022D01*
X9212934Y-9653022D02*
X9212934Y-9757784D01*
X9212934Y-9653022D02*
X9222458Y-9633974D01*
X9222458Y-9633974D02*
X9241505Y-9624450D01*
X9241505Y-9624450D02*
X9270077Y-9624450D01*
X9270077Y-9624450D02*
X9289125Y-9633974D01*
X9289125Y-9633974D02*
X9298648Y-9653022D01*
X9298648Y-9653022D02*
X9298648Y-9757784D01*
X9393886Y-9757784D02*
X9393886Y-9624450D01*
X9393886Y-9643498D02*
X9403410Y-9633974D01*
X9403410Y-9633974D02*
X9422458Y-9624450D01*
X9422458Y-9624450D02*
X9451029Y-9624450D01*
X9451029Y-9624450D02*
X9470077Y-9633974D01*
X9470077Y-9633974D02*
X9479601Y-9653022D01*
X9479601Y-9653022D02*
X9479601Y-9757784D01*
X9479601Y-9653022D02*
X9489125Y-9633974D01*
X9489125Y-9633974D02*
X9508172Y-9624450D01*
X9508172Y-9624450D02*
X9536744Y-9624450D01*
X9536744Y-9624450D02*
X9555791Y-9633974D01*
X9555791Y-9633974D02*
X9565315Y-9653022D01*
X9565315Y-9653022D02*
X9565315Y-9757784D01*
X9955791Y-9548260D02*
X9784363Y-9805403D01*
X10212934Y-9557784D02*
X10231982Y-9557784D01*
X10231982Y-9557784D02*
X10251029Y-9567308D01*
X10251029Y-9567308D02*
X10260553Y-9576831D01*
X10260553Y-9576831D02*
X10270077Y-9595879D01*
X10270077Y-9595879D02*
X10279601Y-9633974D01*
X10279601Y-9633974D02*
X10279601Y-9681593D01*
X10279601Y-9681593D02*
X10270077Y-9719689D01*
X10270077Y-9719689D02*
X10260553Y-9738736D01*
X10260553Y-9738736D02*
X10251029Y-9748260D01*
X10251029Y-9748260D02*
X10231982Y-9757784D01*
X10231982Y-9757784D02*
X10212934Y-9757784D01*
X10212934Y-9757784D02*
X10193887Y-9748260D01*
X10193887Y-9748260D02*
X10184363Y-9738736D01*
X10184363Y-9738736D02*
X10174839Y-9719689D01*
X10174839Y-9719689D02*
X10165315Y-9681593D01*
X10165315Y-9681593D02*
X10165315Y-9633974D01*
X10165315Y-9633974D02*
X10174839Y-9595879D01*
X10174839Y-9595879D02*
X10184363Y-9576831D01*
X10184363Y-9576831D02*
X10193887Y-9567308D01*
X10193887Y-9567308D02*
X10212934Y-9557784D01*
X10365315Y-9738736D02*
X10374839Y-9748260D01*
X10374839Y-9748260D02*
X10365315Y-9757784D01*
X10365315Y-9757784D02*
X10355791Y-9748260D01*
X10355791Y-9748260D02*
X10365315Y-9738736D01*
X10365315Y-9738736D02*
X10365315Y-9757784D01*
X10498648Y-9557784D02*
X10517696Y-9557784D01*
X10517696Y-9557784D02*
X10536744Y-9567308D01*
X10536744Y-9567308D02*
X10546268Y-9576831D01*
X10546268Y-9576831D02*
X10555791Y-9595879D01*
X10555791Y-9595879D02*
X10565315Y-9633974D01*
X10565315Y-9633974D02*
X10565315Y-9681593D01*
X10565315Y-9681593D02*
X10555791Y-9719689D01*
X10555791Y-9719689D02*
X10546268Y-9738736D01*
X10546268Y-9738736D02*
X10536744Y-9748260D01*
X10536744Y-9748260D02*
X10517696Y-9757784D01*
X10517696Y-9757784D02*
X10498648Y-9757784D01*
X10498648Y-9757784D02*
X10479601Y-9748260D01*
X10479601Y-9748260D02*
X10470077Y-9738736D01*
X10470077Y-9738736D02*
X10460553Y-9719689D01*
X10460553Y-9719689D02*
X10451029Y-9681593D01*
X10451029Y-9681593D02*
X10451029Y-9633974D01*
X10451029Y-9633974D02*
X10460553Y-9595879D01*
X10460553Y-9595879D02*
X10470077Y-9576831D01*
X10470077Y-9576831D02*
X10479601Y-9567308D01*
X10479601Y-9567308D02*
X10498648Y-9557784D01*
X10689125Y-9557784D02*
X10708172Y-9557784D01*
X10708172Y-9557784D02*
X10727220Y-9567308D01*
X10727220Y-9567308D02*
X10736744Y-9576831D01*
X10736744Y-9576831D02*
X10746268Y-9595879D01*
X10746268Y-9595879D02*
X10755791Y-9633974D01*
X10755791Y-9633974D02*
X10755791Y-9681593D01*
X10755791Y-9681593D02*
X10746268Y-9719689D01*
X10746268Y-9719689D02*
X10736744Y-9738736D01*
X10736744Y-9738736D02*
X10727220Y-9748260D01*
X10727220Y-9748260D02*
X10708172Y-9757784D01*
X10708172Y-9757784D02*
X10689125Y-9757784D01*
X10689125Y-9757784D02*
X10670077Y-9748260D01*
X10670077Y-9748260D02*
X10660553Y-9738736D01*
X10660553Y-9738736D02*
X10651029Y-9719689D01*
X10651029Y-9719689D02*
X10641506Y-9681593D01*
X10641506Y-9681593D02*
X10641506Y-9633974D01*
X10641506Y-9633974D02*
X10651029Y-9595879D01*
X10651029Y-9595879D02*
X10660553Y-9576831D01*
X10660553Y-9576831D02*
X10670077Y-9567308D01*
X10670077Y-9567308D02*
X10689125Y-9557784D01*
X10851029Y-9757784D02*
X10889125Y-9757784D01*
X10889125Y-9757784D02*
X10908172Y-9748260D01*
X10908172Y-9748260D02*
X10917696Y-9738736D01*
X10917696Y-9738736D02*
X10936744Y-9710165D01*
X10936744Y-9710165D02*
X10946268Y-9672070D01*
X10946268Y-9672070D02*
X10946268Y-9595879D01*
X10946268Y-9595879D02*
X10936744Y-9576831D01*
X10936744Y-9576831D02*
X10927220Y-9567308D01*
X10927220Y-9567308D02*
X10908172Y-9557784D01*
X10908172Y-9557784D02*
X10870077Y-9557784D01*
X10870077Y-9557784D02*
X10851029Y-9567308D01*
X10851029Y-9567308D02*
X10841506Y-9576831D01*
X10841506Y-9576831D02*
X10831982Y-9595879D01*
X10831982Y-9595879D02*
X10831982Y-9643498D01*
X10831982Y-9643498D02*
X10841506Y-9662546D01*
X10841506Y-9662546D02*
X10851029Y-9672070D01*
X10851029Y-9672070D02*
X10870077Y-9681593D01*
X10870077Y-9681593D02*
X10908172Y-9681593D01*
X10908172Y-9681593D02*
X10927220Y-9672070D01*
X10927220Y-9672070D02*
X10936744Y-9662546D01*
X10936744Y-9662546D02*
X10946268Y-9643498D01*
X11060553Y-9643498D02*
X11041506Y-9633974D01*
X11041506Y-9633974D02*
X11031982Y-9624450D01*
X11031982Y-9624450D02*
X11022458Y-9605403D01*
X11022458Y-9605403D02*
X11022458Y-9595879D01*
X11022458Y-9595879D02*
X11031982Y-9576831D01*
X11031982Y-9576831D02*
X11041506Y-9567308D01*
X11041506Y-9567308D02*
X11060553Y-9557784D01*
X11060553Y-9557784D02*
X11098649Y-9557784D01*
X11098649Y-9557784D02*
X11117696Y-9567308D01*
X11117696Y-9567308D02*
X11127220Y-9576831D01*
X11127220Y-9576831D02*
X11136744Y-9595879D01*
X11136744Y-9595879D02*
X11136744Y-9605403D01*
X11136744Y-9605403D02*
X11127220Y-9624450D01*
X11127220Y-9624450D02*
X11117696Y-9633974D01*
X11117696Y-9633974D02*
X11098649Y-9643498D01*
X11098649Y-9643498D02*
X11060553Y-9643498D01*
X11060553Y-9643498D02*
X11041506Y-9653022D01*
X11041506Y-9653022D02*
X11031982Y-9662546D01*
X11031982Y-9662546D02*
X11022458Y-9681593D01*
X11022458Y-9681593D02*
X11022458Y-9719689D01*
X11022458Y-9719689D02*
X11031982Y-9738736D01*
X11031982Y-9738736D02*
X11041506Y-9748260D01*
X11041506Y-9748260D02*
X11060553Y-9757784D01*
X11060553Y-9757784D02*
X11098649Y-9757784D01*
X11098649Y-9757784D02*
X11117696Y-9748260D01*
X11117696Y-9748260D02*
X11127220Y-9738736D01*
X11127220Y-9738736D02*
X11136744Y-9719689D01*
X11136744Y-9719689D02*
X11136744Y-9681593D01*
X11136744Y-9681593D02*
X11127220Y-9662546D01*
X11127220Y-9662546D02*
X11117696Y-9653022D01*
X11117696Y-9653022D02*
X11098649Y-9643498D01*
X11212934Y-9557784D02*
X11212934Y-9595879D01*
X11289125Y-9557784D02*
X11289125Y-9595879D01*
X11584363Y-9833974D02*
X11574839Y-9824450D01*
X11574839Y-9824450D02*
X11555791Y-9795879D01*
X11555791Y-9795879D02*
X11546268Y-9776831D01*
X11546268Y-9776831D02*
X11536744Y-9748260D01*
X11536744Y-9748260D02*
X11527220Y-9700641D01*
X11527220Y-9700641D02*
X11527220Y-9662546D01*
X11527220Y-9662546D02*
X11536744Y-9614927D01*
X11536744Y-9614927D02*
X11546268Y-9586355D01*
X11546268Y-9586355D02*
X11555791Y-9567308D01*
X11555791Y-9567308D02*
X11574839Y-9538736D01*
X11574839Y-9538736D02*
X11584363Y-9529212D01*
X11641506Y-9557784D02*
X11765315Y-9557784D01*
X11765315Y-9557784D02*
X11698648Y-9633974D01*
X11698648Y-9633974D02*
X11727220Y-9633974D01*
X11727220Y-9633974D02*
X11746268Y-9643498D01*
X11746268Y-9643498D02*
X11755791Y-9653022D01*
X11755791Y-9653022D02*
X11765315Y-9672070D01*
X11765315Y-9672070D02*
X11765315Y-9719689D01*
X11765315Y-9719689D02*
X11755791Y-9738736D01*
X11755791Y-9738736D02*
X11746268Y-9748260D01*
X11746268Y-9748260D02*
X11727220Y-9757784D01*
X11727220Y-9757784D02*
X11670077Y-9757784D01*
X11670077Y-9757784D02*
X11651029Y-9748260D01*
X11651029Y-9748260D02*
X11641506Y-9738736D01*
X11831982Y-9557784D02*
X11965315Y-9557784D01*
X11965315Y-9557784D02*
X11879601Y-9757784D01*
X12193887Y-9757784D02*
X12193887Y-9557784D01*
X12279601Y-9757784D02*
X12279601Y-9653022D01*
X12279601Y-9653022D02*
X12270077Y-9633974D01*
X12270077Y-9633974D02*
X12251030Y-9624450D01*
X12251030Y-9624450D02*
X12222458Y-9624450D01*
X12222458Y-9624450D02*
X12203410Y-9633974D01*
X12203410Y-9633974D02*
X12193887Y-9643498D01*
X12403410Y-9757784D02*
X12384363Y-9748260D01*
X12384363Y-9748260D02*
X12374839Y-9738736D01*
X12374839Y-9738736D02*
X12365315Y-9719689D01*
X12365315Y-9719689D02*
X12365315Y-9662546D01*
X12365315Y-9662546D02*
X12374839Y-9643498D01*
X12374839Y-9643498D02*
X12384363Y-9633974D01*
X12384363Y-9633974D02*
X12403410Y-9624450D01*
X12403410Y-9624450D02*
X12431982Y-9624450D01*
X12431982Y-9624450D02*
X12451030Y-9633974D01*
X12451030Y-9633974D02*
X12460553Y-9643498D01*
X12460553Y-9643498D02*
X12470077Y-9662546D01*
X12470077Y-9662546D02*
X12470077Y-9719689D01*
X12470077Y-9719689D02*
X12460553Y-9738736D01*
X12460553Y-9738736D02*
X12451030Y-9748260D01*
X12451030Y-9748260D02*
X12431982Y-9757784D01*
X12431982Y-9757784D02*
X12403410Y-9757784D01*
X12584363Y-9757784D02*
X12565315Y-9748260D01*
X12565315Y-9748260D02*
X12555791Y-9729212D01*
X12555791Y-9729212D02*
X12555791Y-9557784D01*
X12736744Y-9748260D02*
X12717696Y-9757784D01*
X12717696Y-9757784D02*
X12679601Y-9757784D01*
X12679601Y-9757784D02*
X12660553Y-9748260D01*
X12660553Y-9748260D02*
X12651030Y-9729212D01*
X12651030Y-9729212D02*
X12651030Y-9653022D01*
X12651030Y-9653022D02*
X12660553Y-9633974D01*
X12660553Y-9633974D02*
X12679601Y-9624450D01*
X12679601Y-9624450D02*
X12717696Y-9624450D01*
X12717696Y-9624450D02*
X12736744Y-9633974D01*
X12736744Y-9633974D02*
X12746268Y-9653022D01*
X12746268Y-9653022D02*
X12746268Y-9672070D01*
X12746268Y-9672070D02*
X12651030Y-9691117D01*
X12822458Y-9748260D02*
X12841506Y-9757784D01*
X12841506Y-9757784D02*
X12879601Y-9757784D01*
X12879601Y-9757784D02*
X12898649Y-9748260D01*
X12898649Y-9748260D02*
X12908172Y-9729212D01*
X12908172Y-9729212D02*
X12908172Y-9719689D01*
X12908172Y-9719689D02*
X12898649Y-9700641D01*
X12898649Y-9700641D02*
X12879601Y-9691117D01*
X12879601Y-9691117D02*
X12851030Y-9691117D01*
X12851030Y-9691117D02*
X12831982Y-9681593D01*
X12831982Y-9681593D02*
X12822458Y-9662546D01*
X12822458Y-9662546D02*
X12822458Y-9653022D01*
X12822458Y-9653022D02*
X12831982Y-9633974D01*
X12831982Y-9633974D02*
X12851030Y-9624450D01*
X12851030Y-9624450D02*
X12879601Y-9624450D01*
X12879601Y-9624450D02*
X12898649Y-9633974D01*
X12974839Y-9833974D02*
X12984363Y-9824450D01*
X12984363Y-9824450D02*
X13003411Y-9795879D01*
X13003411Y-9795879D02*
X13012934Y-9776831D01*
X13012934Y-9776831D02*
X13022458Y-9748260D01*
X13022458Y-9748260D02*
X13031982Y-9700641D01*
X13031982Y-9700641D02*
X13031982Y-9662546D01*
X13031982Y-9662546D02*
X13022458Y-9614927D01*
X13022458Y-9614927D02*
X13012934Y-9586355D01*
X13012934Y-9586355D02*
X13003411Y-9567308D01*
X13003411Y-9567308D02*
X12984363Y-9538736D01*
X12984363Y-9538736D02*
X12974839Y-9529212D01*
D12*
X7994300Y-9915300D02*
X7994300Y-9945300D01*
X7979300Y-9930300D02*
X8009300Y-9930300D01*
D11*
X8308172Y-9821784D02*
X8327220Y-9821784D01*
X8327220Y-9821784D02*
X8346267Y-9831308D01*
X8346267Y-9831308D02*
X8355791Y-9840831D01*
X8355791Y-9840831D02*
X8365315Y-9859879D01*
X8365315Y-9859879D02*
X8374839Y-9897974D01*
X8374839Y-9897974D02*
X8374839Y-9945593D01*
X8374839Y-9945593D02*
X8365315Y-9983689D01*
X8365315Y-9983689D02*
X8355791Y-10002736D01*
X8355791Y-10002736D02*
X8346267Y-10012260D01*
X8346267Y-10012260D02*
X8327220Y-10021784D01*
X8327220Y-10021784D02*
X8308172Y-10021784D01*
X8308172Y-10021784D02*
X8289124Y-10012260D01*
X8289124Y-10012260D02*
X8279601Y-10002736D01*
X8279601Y-10002736D02*
X8270077Y-9983689D01*
X8270077Y-9983689D02*
X8260553Y-9945593D01*
X8260553Y-9945593D02*
X8260553Y-9897974D01*
X8260553Y-9897974D02*
X8270077Y-9859879D01*
X8270077Y-9859879D02*
X8279601Y-9840831D01*
X8279601Y-9840831D02*
X8289124Y-9831308D01*
X8289124Y-9831308D02*
X8308172Y-9821784D01*
X8460553Y-10002736D02*
X8470077Y-10012260D01*
X8470077Y-10012260D02*
X8460553Y-10021784D01*
X8460553Y-10021784D02*
X8451029Y-10012260D01*
X8451029Y-10012260D02*
X8460553Y-10002736D01*
X8460553Y-10002736D02*
X8460553Y-10021784D01*
X8536744Y-9821784D02*
X8660553Y-9821784D01*
X8660553Y-9821784D02*
X8593886Y-9897974D01*
X8593886Y-9897974D02*
X8622458Y-9897974D01*
X8622458Y-9897974D02*
X8641505Y-9907498D01*
X8641505Y-9907498D02*
X8651029Y-9917022D01*
X8651029Y-9917022D02*
X8660553Y-9936070D01*
X8660553Y-9936070D02*
X8660553Y-9983689D01*
X8660553Y-9983689D02*
X8651029Y-10002736D01*
X8651029Y-10002736D02*
X8641505Y-10012260D01*
X8641505Y-10012260D02*
X8622458Y-10021784D01*
X8622458Y-10021784D02*
X8565315Y-10021784D01*
X8565315Y-10021784D02*
X8546267Y-10012260D01*
X8546267Y-10012260D02*
X8536744Y-10002736D01*
X8784363Y-9821784D02*
X8803410Y-9821784D01*
X8803410Y-9821784D02*
X8822458Y-9831308D01*
X8822458Y-9831308D02*
X8831982Y-9840831D01*
X8831982Y-9840831D02*
X8841505Y-9859879D01*
X8841505Y-9859879D02*
X8851029Y-9897974D01*
X8851029Y-9897974D02*
X8851029Y-9945593D01*
X8851029Y-9945593D02*
X8841505Y-9983689D01*
X8841505Y-9983689D02*
X8831982Y-10002736D01*
X8831982Y-10002736D02*
X8822458Y-10012260D01*
X8822458Y-10012260D02*
X8803410Y-10021784D01*
X8803410Y-10021784D02*
X8784363Y-10021784D01*
X8784363Y-10021784D02*
X8765315Y-10012260D01*
X8765315Y-10012260D02*
X8755791Y-10002736D01*
X8755791Y-10002736D02*
X8746267Y-9983689D01*
X8746267Y-9983689D02*
X8736744Y-9945593D01*
X8736744Y-9945593D02*
X8736744Y-9897974D01*
X8736744Y-9897974D02*
X8746267Y-9859879D01*
X8746267Y-9859879D02*
X8755791Y-9840831D01*
X8755791Y-9840831D02*
X8765315Y-9831308D01*
X8765315Y-9831308D02*
X8784363Y-9821784D01*
X8974839Y-9821784D02*
X8993886Y-9821784D01*
X8993886Y-9821784D02*
X9012934Y-9831308D01*
X9012934Y-9831308D02*
X9022458Y-9840831D01*
X9022458Y-9840831D02*
X9031982Y-9859879D01*
X9031982Y-9859879D02*
X9041505Y-9897974D01*
X9041505Y-9897974D02*
X9041505Y-9945593D01*
X9041505Y-9945593D02*
X9031982Y-9983689D01*
X9031982Y-9983689D02*
X9022458Y-10002736D01*
X9022458Y-10002736D02*
X9012934Y-10012260D01*
X9012934Y-10012260D02*
X8993886Y-10021784D01*
X8993886Y-10021784D02*
X8974839Y-10021784D01*
X8974839Y-10021784D02*
X8955791Y-10012260D01*
X8955791Y-10012260D02*
X8946267Y-10002736D01*
X8946267Y-10002736D02*
X8936744Y-9983689D01*
X8936744Y-9983689D02*
X8927220Y-9945593D01*
X8927220Y-9945593D02*
X8927220Y-9897974D01*
X8927220Y-9897974D02*
X8936744Y-9859879D01*
X8936744Y-9859879D02*
X8946267Y-9840831D01*
X8946267Y-9840831D02*
X8955791Y-9831308D01*
X8955791Y-9831308D02*
X8974839Y-9821784D01*
X9127220Y-10021784D02*
X9127220Y-9888450D01*
X9127220Y-9907498D02*
X9136744Y-9897974D01*
X9136744Y-9897974D02*
X9155791Y-9888450D01*
X9155791Y-9888450D02*
X9184363Y-9888450D01*
X9184363Y-9888450D02*
X9203410Y-9897974D01*
X9203410Y-9897974D02*
X9212934Y-9917022D01*
X9212934Y-9917022D02*
X9212934Y-10021784D01*
X9212934Y-9917022D02*
X9222458Y-9897974D01*
X9222458Y-9897974D02*
X9241505Y-9888450D01*
X9241505Y-9888450D02*
X9270077Y-9888450D01*
X9270077Y-9888450D02*
X9289125Y-9897974D01*
X9289125Y-9897974D02*
X9298648Y-9917022D01*
X9298648Y-9917022D02*
X9298648Y-10021784D01*
X9393886Y-10021784D02*
X9393886Y-9888450D01*
X9393886Y-9907498D02*
X9403410Y-9897974D01*
X9403410Y-9897974D02*
X9422458Y-9888450D01*
X9422458Y-9888450D02*
X9451029Y-9888450D01*
X9451029Y-9888450D02*
X9470077Y-9897974D01*
X9470077Y-9897974D02*
X9479601Y-9917022D01*
X9479601Y-9917022D02*
X9479601Y-10021784D01*
X9479601Y-9917022D02*
X9489125Y-9897974D01*
X9489125Y-9897974D02*
X9508172Y-9888450D01*
X9508172Y-9888450D02*
X9536744Y-9888450D01*
X9536744Y-9888450D02*
X9555791Y-9897974D01*
X9555791Y-9897974D02*
X9565315Y-9917022D01*
X9565315Y-9917022D02*
X9565315Y-10021784D01*
X9955791Y-9812260D02*
X9784363Y-10069403D01*
X10212934Y-9821784D02*
X10231982Y-9821784D01*
X10231982Y-9821784D02*
X10251029Y-9831308D01*
X10251029Y-9831308D02*
X10260553Y-9840831D01*
X10260553Y-9840831D02*
X10270077Y-9859879D01*
X10270077Y-9859879D02*
X10279601Y-9897974D01*
X10279601Y-9897974D02*
X10279601Y-9945593D01*
X10279601Y-9945593D02*
X10270077Y-9983689D01*
X10270077Y-9983689D02*
X10260553Y-10002736D01*
X10260553Y-10002736D02*
X10251029Y-10012260D01*
X10251029Y-10012260D02*
X10231982Y-10021784D01*
X10231982Y-10021784D02*
X10212934Y-10021784D01*
X10212934Y-10021784D02*
X10193887Y-10012260D01*
X10193887Y-10012260D02*
X10184363Y-10002736D01*
X10184363Y-10002736D02*
X10174839Y-9983689D01*
X10174839Y-9983689D02*
X10165315Y-9945593D01*
X10165315Y-9945593D02*
X10165315Y-9897974D01*
X10165315Y-9897974D02*
X10174839Y-9859879D01*
X10174839Y-9859879D02*
X10184363Y-9840831D01*
X10184363Y-9840831D02*
X10193887Y-9831308D01*
X10193887Y-9831308D02*
X10212934Y-9821784D01*
X10365315Y-10002736D02*
X10374839Y-10012260D01*
X10374839Y-10012260D02*
X10365315Y-10021784D01*
X10365315Y-10021784D02*
X10355791Y-10012260D01*
X10355791Y-10012260D02*
X10365315Y-10002736D01*
X10365315Y-10002736D02*
X10365315Y-10021784D01*
X10498648Y-9821784D02*
X10517696Y-9821784D01*
X10517696Y-9821784D02*
X10536744Y-9831308D01*
X10536744Y-9831308D02*
X10546268Y-9840831D01*
X10546268Y-9840831D02*
X10555791Y-9859879D01*
X10555791Y-9859879D02*
X10565315Y-9897974D01*
X10565315Y-9897974D02*
X10565315Y-9945593D01*
X10565315Y-9945593D02*
X10555791Y-9983689D01*
X10555791Y-9983689D02*
X10546268Y-10002736D01*
X10546268Y-10002736D02*
X10536744Y-10012260D01*
X10536744Y-10012260D02*
X10517696Y-10021784D01*
X10517696Y-10021784D02*
X10498648Y-10021784D01*
X10498648Y-10021784D02*
X10479601Y-10012260D01*
X10479601Y-10012260D02*
X10470077Y-10002736D01*
X10470077Y-10002736D02*
X10460553Y-9983689D01*
X10460553Y-9983689D02*
X10451029Y-9945593D01*
X10451029Y-9945593D02*
X10451029Y-9897974D01*
X10451029Y-9897974D02*
X10460553Y-9859879D01*
X10460553Y-9859879D02*
X10470077Y-9840831D01*
X10470077Y-9840831D02*
X10479601Y-9831308D01*
X10479601Y-9831308D02*
X10498648Y-9821784D01*
X10755791Y-10021784D02*
X10641506Y-10021784D01*
X10698648Y-10021784D02*
X10698648Y-9821784D01*
X10698648Y-9821784D02*
X10679601Y-9850355D01*
X10679601Y-9850355D02*
X10660553Y-9869403D01*
X10660553Y-9869403D02*
X10641506Y-9878927D01*
X10946268Y-10021784D02*
X10831982Y-10021784D01*
X10889125Y-10021784D02*
X10889125Y-9821784D01*
X10889125Y-9821784D02*
X10870077Y-9850355D01*
X10870077Y-9850355D02*
X10851029Y-9869403D01*
X10851029Y-9869403D02*
X10831982Y-9878927D01*
X11060553Y-9907498D02*
X11041506Y-9897974D01*
X11041506Y-9897974D02*
X11031982Y-9888450D01*
X11031982Y-9888450D02*
X11022458Y-9869403D01*
X11022458Y-9869403D02*
X11022458Y-9859879D01*
X11022458Y-9859879D02*
X11031982Y-9840831D01*
X11031982Y-9840831D02*
X11041506Y-9831308D01*
X11041506Y-9831308D02*
X11060553Y-9821784D01*
X11060553Y-9821784D02*
X11098649Y-9821784D01*
X11098649Y-9821784D02*
X11117696Y-9831308D01*
X11117696Y-9831308D02*
X11127220Y-9840831D01*
X11127220Y-9840831D02*
X11136744Y-9859879D01*
X11136744Y-9859879D02*
X11136744Y-9869403D01*
X11136744Y-9869403D02*
X11127220Y-9888450D01*
X11127220Y-9888450D02*
X11117696Y-9897974D01*
X11117696Y-9897974D02*
X11098649Y-9907498D01*
X11098649Y-9907498D02*
X11060553Y-9907498D01*
X11060553Y-9907498D02*
X11041506Y-9917022D01*
X11041506Y-9917022D02*
X11031982Y-9926546D01*
X11031982Y-9926546D02*
X11022458Y-9945593D01*
X11022458Y-9945593D02*
X11022458Y-9983689D01*
X11022458Y-9983689D02*
X11031982Y-10002736D01*
X11031982Y-10002736D02*
X11041506Y-10012260D01*
X11041506Y-10012260D02*
X11060553Y-10021784D01*
X11060553Y-10021784D02*
X11098649Y-10021784D01*
X11098649Y-10021784D02*
X11117696Y-10012260D01*
X11117696Y-10012260D02*
X11127220Y-10002736D01*
X11127220Y-10002736D02*
X11136744Y-9983689D01*
X11136744Y-9983689D02*
X11136744Y-9945593D01*
X11136744Y-9945593D02*
X11127220Y-9926546D01*
X11127220Y-9926546D02*
X11117696Y-9917022D01*
X11117696Y-9917022D02*
X11098649Y-9907498D01*
X11212934Y-9821784D02*
X11212934Y-9859879D01*
X11289125Y-9821784D02*
X11289125Y-9859879D01*
X11584363Y-10097974D02*
X11574839Y-10088450D01*
X11574839Y-10088450D02*
X11555791Y-10059879D01*
X11555791Y-10059879D02*
X11546268Y-10040831D01*
X11546268Y-10040831D02*
X11536744Y-10012260D01*
X11536744Y-10012260D02*
X11527220Y-9964641D01*
X11527220Y-9964641D02*
X11527220Y-9926546D01*
X11527220Y-9926546D02*
X11536744Y-9878927D01*
X11536744Y-9878927D02*
X11546268Y-9850355D01*
X11546268Y-9850355D02*
X11555791Y-9831308D01*
X11555791Y-9831308D02*
X11574839Y-9802736D01*
X11574839Y-9802736D02*
X11584363Y-9793212D01*
X11746268Y-9888450D02*
X11746268Y-10021784D01*
X11698648Y-9812260D02*
X11651029Y-9955117D01*
X11651029Y-9955117D02*
X11774839Y-9955117D01*
X11946268Y-9821784D02*
X11851029Y-9821784D01*
X11851029Y-9821784D02*
X11841506Y-9917022D01*
X11841506Y-9917022D02*
X11851029Y-9907498D01*
X11851029Y-9907498D02*
X11870077Y-9897974D01*
X11870077Y-9897974D02*
X11917696Y-9897974D01*
X11917696Y-9897974D02*
X11936744Y-9907498D01*
X11936744Y-9907498D02*
X11946268Y-9917022D01*
X11946268Y-9917022D02*
X11955791Y-9936070D01*
X11955791Y-9936070D02*
X11955791Y-9983689D01*
X11955791Y-9983689D02*
X11946268Y-10002736D01*
X11946268Y-10002736D02*
X11936744Y-10012260D01*
X11936744Y-10012260D02*
X11917696Y-10021784D01*
X11917696Y-10021784D02*
X11870077Y-10021784D01*
X11870077Y-10021784D02*
X11851029Y-10012260D01*
X11851029Y-10012260D02*
X11841506Y-10002736D01*
X12193887Y-10021784D02*
X12193887Y-9821784D01*
X12279601Y-10021784D02*
X12279601Y-9917022D01*
X12279601Y-9917022D02*
X12270077Y-9897974D01*
X12270077Y-9897974D02*
X12251030Y-9888450D01*
X12251030Y-9888450D02*
X12222458Y-9888450D01*
X12222458Y-9888450D02*
X12203410Y-9897974D01*
X12203410Y-9897974D02*
X12193887Y-9907498D01*
X12403410Y-10021784D02*
X12384363Y-10012260D01*
X12384363Y-10012260D02*
X12374839Y-10002736D01*
X12374839Y-10002736D02*
X12365315Y-9983689D01*
X12365315Y-9983689D02*
X12365315Y-9926546D01*
X12365315Y-9926546D02*
X12374839Y-9907498D01*
X12374839Y-9907498D02*
X12384363Y-9897974D01*
X12384363Y-9897974D02*
X12403410Y-9888450D01*
X12403410Y-9888450D02*
X12431982Y-9888450D01*
X12431982Y-9888450D02*
X12451030Y-9897974D01*
X12451030Y-9897974D02*
X12460553Y-9907498D01*
X12460553Y-9907498D02*
X12470077Y-9926546D01*
X12470077Y-9926546D02*
X12470077Y-9983689D01*
X12470077Y-9983689D02*
X12460553Y-10002736D01*
X12460553Y-10002736D02*
X12451030Y-10012260D01*
X12451030Y-10012260D02*
X12431982Y-10021784D01*
X12431982Y-10021784D02*
X12403410Y-10021784D01*
X12584363Y-10021784D02*
X12565315Y-10012260D01*
X12565315Y-10012260D02*
X12555791Y-9993212D01*
X12555791Y-9993212D02*
X12555791Y-9821784D01*
X12736744Y-10012260D02*
X12717696Y-10021784D01*
X12717696Y-10021784D02*
X12679601Y-10021784D01*
X12679601Y-10021784D02*
X12660553Y-10012260D01*
X12660553Y-10012260D02*
X12651030Y-9993212D01*
X12651030Y-9993212D02*
X12651030Y-9917022D01*
X12651030Y-9917022D02*
X12660553Y-9897974D01*
X12660553Y-9897974D02*
X12679601Y-9888450D01*
X12679601Y-9888450D02*
X12717696Y-9888450D01*
X12717696Y-9888450D02*
X12736744Y-9897974D01*
X12736744Y-9897974D02*
X12746268Y-9917022D01*
X12746268Y-9917022D02*
X12746268Y-9936070D01*
X12746268Y-9936070D02*
X12651030Y-9955117D01*
X12822458Y-10012260D02*
X12841506Y-10021784D01*
X12841506Y-10021784D02*
X12879601Y-10021784D01*
X12879601Y-10021784D02*
X12898649Y-10012260D01*
X12898649Y-10012260D02*
X12908172Y-9993212D01*
X12908172Y-9993212D02*
X12908172Y-9983689D01*
X12908172Y-9983689D02*
X12898649Y-9964641D01*
X12898649Y-9964641D02*
X12879601Y-9955117D01*
X12879601Y-9955117D02*
X12851030Y-9955117D01*
X12851030Y-9955117D02*
X12831982Y-9945593D01*
X12831982Y-9945593D02*
X12822458Y-9926546D01*
X12822458Y-9926546D02*
X12822458Y-9917022D01*
X12822458Y-9917022D02*
X12831982Y-9897974D01*
X12831982Y-9897974D02*
X12851030Y-9888450D01*
X12851030Y-9888450D02*
X12879601Y-9888450D01*
X12879601Y-9888450D02*
X12898649Y-9897974D01*
X12974839Y-10097974D02*
X12984363Y-10088450D01*
X12984363Y-10088450D02*
X13003411Y-10059879D01*
X13003411Y-10059879D02*
X13012934Y-10040831D01*
X13012934Y-10040831D02*
X13022458Y-10012260D01*
X13022458Y-10012260D02*
X13031982Y-9964641D01*
X13031982Y-9964641D02*
X13031982Y-9926546D01*
X13031982Y-9926546D02*
X13022458Y-9878927D01*
X13022458Y-9878927D02*
X13012934Y-9850355D01*
X13012934Y-9850355D02*
X13003411Y-9831308D01*
X13003411Y-9831308D02*
X12984363Y-9802736D01*
X12984363Y-9802736D02*
X12974839Y-9793212D01*
D12*
X8001978Y-10211978D02*
X8001978Y-10176622D01*
X7966622Y-10176622D01*
X7966622Y-10211978D01*
X8001978Y-10211978D01*
D11*
X8308172Y-10085784D02*
X8327220Y-10085784D01*
X8327220Y-10085784D02*
X8346267Y-10095308D01*
X8346267Y-10095308D02*
X8355791Y-10104831D01*
X8355791Y-10104831D02*
X8365315Y-10123879D01*
X8365315Y-10123879D02*
X8374839Y-10161974D01*
X8374839Y-10161974D02*
X8374839Y-10209593D01*
X8374839Y-10209593D02*
X8365315Y-10247689D01*
X8365315Y-10247689D02*
X8355791Y-10266736D01*
X8355791Y-10266736D02*
X8346267Y-10276260D01*
X8346267Y-10276260D02*
X8327220Y-10285784D01*
X8327220Y-10285784D02*
X8308172Y-10285784D01*
X8308172Y-10285784D02*
X8289124Y-10276260D01*
X8289124Y-10276260D02*
X8279601Y-10266736D01*
X8279601Y-10266736D02*
X8270077Y-10247689D01*
X8270077Y-10247689D02*
X8260553Y-10209593D01*
X8260553Y-10209593D02*
X8260553Y-10161974D01*
X8260553Y-10161974D02*
X8270077Y-10123879D01*
X8270077Y-10123879D02*
X8279601Y-10104831D01*
X8279601Y-10104831D02*
X8289124Y-10095308D01*
X8289124Y-10095308D02*
X8308172Y-10085784D01*
X8460553Y-10266736D02*
X8470077Y-10276260D01*
X8470077Y-10276260D02*
X8460553Y-10285784D01*
X8460553Y-10285784D02*
X8451029Y-10276260D01*
X8451029Y-10276260D02*
X8460553Y-10266736D01*
X8460553Y-10266736D02*
X8460553Y-10285784D01*
X8651029Y-10085784D02*
X8555791Y-10085784D01*
X8555791Y-10085784D02*
X8546267Y-10181022D01*
X8546267Y-10181022D02*
X8555791Y-10171498D01*
X8555791Y-10171498D02*
X8574839Y-10161974D01*
X8574839Y-10161974D02*
X8622458Y-10161974D01*
X8622458Y-10161974D02*
X8641505Y-10171498D01*
X8641505Y-10171498D02*
X8651029Y-10181022D01*
X8651029Y-10181022D02*
X8660553Y-10200070D01*
X8660553Y-10200070D02*
X8660553Y-10247689D01*
X8660553Y-10247689D02*
X8651029Y-10266736D01*
X8651029Y-10266736D02*
X8641505Y-10276260D01*
X8641505Y-10276260D02*
X8622458Y-10285784D01*
X8622458Y-10285784D02*
X8574839Y-10285784D01*
X8574839Y-10285784D02*
X8555791Y-10276260D01*
X8555791Y-10276260D02*
X8546267Y-10266736D01*
X8784363Y-10085784D02*
X8803410Y-10085784D01*
X8803410Y-10085784D02*
X8822458Y-10095308D01*
X8822458Y-10095308D02*
X8831982Y-10104831D01*
X8831982Y-10104831D02*
X8841505Y-10123879D01*
X8841505Y-10123879D02*
X8851029Y-10161974D01*
X8851029Y-10161974D02*
X8851029Y-10209593D01*
X8851029Y-10209593D02*
X8841505Y-10247689D01*
X8841505Y-10247689D02*
X8831982Y-10266736D01*
X8831982Y-10266736D02*
X8822458Y-10276260D01*
X8822458Y-10276260D02*
X8803410Y-10285784D01*
X8803410Y-10285784D02*
X8784363Y-10285784D01*
X8784363Y-10285784D02*
X8765315Y-10276260D01*
X8765315Y-10276260D02*
X8755791Y-10266736D01*
X8755791Y-10266736D02*
X8746267Y-10247689D01*
X8746267Y-10247689D02*
X8736744Y-10209593D01*
X8736744Y-10209593D02*
X8736744Y-10161974D01*
X8736744Y-10161974D02*
X8746267Y-10123879D01*
X8746267Y-10123879D02*
X8755791Y-10104831D01*
X8755791Y-10104831D02*
X8765315Y-10095308D01*
X8765315Y-10095308D02*
X8784363Y-10085784D01*
X8974839Y-10085784D02*
X8993886Y-10085784D01*
X8993886Y-10085784D02*
X9012934Y-10095308D01*
X9012934Y-10095308D02*
X9022458Y-10104831D01*
X9022458Y-10104831D02*
X9031982Y-10123879D01*
X9031982Y-10123879D02*
X9041505Y-10161974D01*
X9041505Y-10161974D02*
X9041505Y-10209593D01*
X9041505Y-10209593D02*
X9031982Y-10247689D01*
X9031982Y-10247689D02*
X9022458Y-10266736D01*
X9022458Y-10266736D02*
X9012934Y-10276260D01*
X9012934Y-10276260D02*
X8993886Y-10285784D01*
X8993886Y-10285784D02*
X8974839Y-10285784D01*
X8974839Y-10285784D02*
X8955791Y-10276260D01*
X8955791Y-10276260D02*
X8946267Y-10266736D01*
X8946267Y-10266736D02*
X8936744Y-10247689D01*
X8936744Y-10247689D02*
X8927220Y-10209593D01*
X8927220Y-10209593D02*
X8927220Y-10161974D01*
X8927220Y-10161974D02*
X8936744Y-10123879D01*
X8936744Y-10123879D02*
X8946267Y-10104831D01*
X8946267Y-10104831D02*
X8955791Y-10095308D01*
X8955791Y-10095308D02*
X8974839Y-10085784D01*
X9127220Y-10285784D02*
X9127220Y-10152450D01*
X9127220Y-10171498D02*
X9136744Y-10161974D01*
X9136744Y-10161974D02*
X9155791Y-10152450D01*
X9155791Y-10152450D02*
X9184363Y-10152450D01*
X9184363Y-10152450D02*
X9203410Y-10161974D01*
X9203410Y-10161974D02*
X9212934Y-10181022D01*
X9212934Y-10181022D02*
X9212934Y-10285784D01*
X9212934Y-10181022D02*
X9222458Y-10161974D01*
X9222458Y-10161974D02*
X9241505Y-10152450D01*
X9241505Y-10152450D02*
X9270077Y-10152450D01*
X9270077Y-10152450D02*
X9289125Y-10161974D01*
X9289125Y-10161974D02*
X9298648Y-10181022D01*
X9298648Y-10181022D02*
X9298648Y-10285784D01*
X9393886Y-10285784D02*
X9393886Y-10152450D01*
X9393886Y-10171498D02*
X9403410Y-10161974D01*
X9403410Y-10161974D02*
X9422458Y-10152450D01*
X9422458Y-10152450D02*
X9451029Y-10152450D01*
X9451029Y-10152450D02*
X9470077Y-10161974D01*
X9470077Y-10161974D02*
X9479601Y-10181022D01*
X9479601Y-10181022D02*
X9479601Y-10285784D01*
X9479601Y-10181022D02*
X9489125Y-10161974D01*
X9489125Y-10161974D02*
X9508172Y-10152450D01*
X9508172Y-10152450D02*
X9536744Y-10152450D01*
X9536744Y-10152450D02*
X9555791Y-10161974D01*
X9555791Y-10161974D02*
X9565315Y-10181022D01*
X9565315Y-10181022D02*
X9565315Y-10285784D01*
X9955791Y-10076260D02*
X9784363Y-10333403D01*
X10212934Y-10085784D02*
X10231982Y-10085784D01*
X10231982Y-10085784D02*
X10251029Y-10095308D01*
X10251029Y-10095308D02*
X10260553Y-10104831D01*
X10260553Y-10104831D02*
X10270077Y-10123879D01*
X10270077Y-10123879D02*
X10279601Y-10161974D01*
X10279601Y-10161974D02*
X10279601Y-10209593D01*
X10279601Y-10209593D02*
X10270077Y-10247689D01*
X10270077Y-10247689D02*
X10260553Y-10266736D01*
X10260553Y-10266736D02*
X10251029Y-10276260D01*
X10251029Y-10276260D02*
X10231982Y-10285784D01*
X10231982Y-10285784D02*
X10212934Y-10285784D01*
X10212934Y-10285784D02*
X10193887Y-10276260D01*
X10193887Y-10276260D02*
X10184363Y-10266736D01*
X10184363Y-10266736D02*
X10174839Y-10247689D01*
X10174839Y-10247689D02*
X10165315Y-10209593D01*
X10165315Y-10209593D02*
X10165315Y-10161974D01*
X10165315Y-10161974D02*
X10174839Y-10123879D01*
X10174839Y-10123879D02*
X10184363Y-10104831D01*
X10184363Y-10104831D02*
X10193887Y-10095308D01*
X10193887Y-10095308D02*
X10212934Y-10085784D01*
X10365315Y-10266736D02*
X10374839Y-10276260D01*
X10374839Y-10276260D02*
X10365315Y-10285784D01*
X10365315Y-10285784D02*
X10355791Y-10276260D01*
X10355791Y-10276260D02*
X10365315Y-10266736D01*
X10365315Y-10266736D02*
X10365315Y-10285784D01*
X10498648Y-10085784D02*
X10517696Y-10085784D01*
X10517696Y-10085784D02*
X10536744Y-10095308D01*
X10536744Y-10095308D02*
X10546268Y-10104831D01*
X10546268Y-10104831D02*
X10555791Y-10123879D01*
X10555791Y-10123879D02*
X10565315Y-10161974D01*
X10565315Y-10161974D02*
X10565315Y-10209593D01*
X10565315Y-10209593D02*
X10555791Y-10247689D01*
X10555791Y-10247689D02*
X10546268Y-10266736D01*
X10546268Y-10266736D02*
X10536744Y-10276260D01*
X10536744Y-10276260D02*
X10517696Y-10285784D01*
X10517696Y-10285784D02*
X10498648Y-10285784D01*
X10498648Y-10285784D02*
X10479601Y-10276260D01*
X10479601Y-10276260D02*
X10470077Y-10266736D01*
X10470077Y-10266736D02*
X10460553Y-10247689D01*
X10460553Y-10247689D02*
X10451029Y-10209593D01*
X10451029Y-10209593D02*
X10451029Y-10161974D01*
X10451029Y-10161974D02*
X10460553Y-10123879D01*
X10460553Y-10123879D02*
X10470077Y-10104831D01*
X10470077Y-10104831D02*
X10479601Y-10095308D01*
X10479601Y-10095308D02*
X10498648Y-10085784D01*
X10755791Y-10285784D02*
X10641506Y-10285784D01*
X10698648Y-10285784D02*
X10698648Y-10085784D01*
X10698648Y-10085784D02*
X10679601Y-10114355D01*
X10679601Y-10114355D02*
X10660553Y-10133403D01*
X10660553Y-10133403D02*
X10641506Y-10142927D01*
X10851029Y-10285784D02*
X10889125Y-10285784D01*
X10889125Y-10285784D02*
X10908172Y-10276260D01*
X10908172Y-10276260D02*
X10917696Y-10266736D01*
X10917696Y-10266736D02*
X10936744Y-10238165D01*
X10936744Y-10238165D02*
X10946268Y-10200070D01*
X10946268Y-10200070D02*
X10946268Y-10123879D01*
X10946268Y-10123879D02*
X10936744Y-10104831D01*
X10936744Y-10104831D02*
X10927220Y-10095308D01*
X10927220Y-10095308D02*
X10908172Y-10085784D01*
X10908172Y-10085784D02*
X10870077Y-10085784D01*
X10870077Y-10085784D02*
X10851029Y-10095308D01*
X10851029Y-10095308D02*
X10841506Y-10104831D01*
X10841506Y-10104831D02*
X10831982Y-10123879D01*
X10831982Y-10123879D02*
X10831982Y-10171498D01*
X10831982Y-10171498D02*
X10841506Y-10190546D01*
X10841506Y-10190546D02*
X10851029Y-10200070D01*
X10851029Y-10200070D02*
X10870077Y-10209593D01*
X10870077Y-10209593D02*
X10908172Y-10209593D01*
X10908172Y-10209593D02*
X10927220Y-10200070D01*
X10927220Y-10200070D02*
X10936744Y-10190546D01*
X10936744Y-10190546D02*
X10946268Y-10171498D01*
X11012934Y-10085784D02*
X11146268Y-10085784D01*
X11146268Y-10085784D02*
X11060553Y-10285784D01*
X11212934Y-10085784D02*
X11212934Y-10123879D01*
X11289125Y-10085784D02*
X11289125Y-10123879D01*
X11584363Y-10361974D02*
X11574839Y-10352450D01*
X11574839Y-10352450D02*
X11555791Y-10323879D01*
X11555791Y-10323879D02*
X11546268Y-10304831D01*
X11546268Y-10304831D02*
X11536744Y-10276260D01*
X11536744Y-10276260D02*
X11527220Y-10228641D01*
X11527220Y-10228641D02*
X11527220Y-10190546D01*
X11527220Y-10190546D02*
X11536744Y-10142927D01*
X11536744Y-10142927D02*
X11546268Y-10114355D01*
X11546268Y-10114355D02*
X11555791Y-10095308D01*
X11555791Y-10095308D02*
X11574839Y-10066736D01*
X11574839Y-10066736D02*
X11584363Y-10057212D01*
X11765315Y-10285784D02*
X11651029Y-10285784D01*
X11708172Y-10285784D02*
X11708172Y-10085784D01*
X11708172Y-10085784D02*
X11689125Y-10114355D01*
X11689125Y-10114355D02*
X11670077Y-10133403D01*
X11670077Y-10133403D02*
X11651029Y-10142927D01*
X11831982Y-10085784D02*
X11955791Y-10085784D01*
X11955791Y-10085784D02*
X11889125Y-10161974D01*
X11889125Y-10161974D02*
X11917696Y-10161974D01*
X11917696Y-10161974D02*
X11936744Y-10171498D01*
X11936744Y-10171498D02*
X11946268Y-10181022D01*
X11946268Y-10181022D02*
X11955791Y-10200070D01*
X11955791Y-10200070D02*
X11955791Y-10247689D01*
X11955791Y-10247689D02*
X11946268Y-10266736D01*
X11946268Y-10266736D02*
X11936744Y-10276260D01*
X11936744Y-10276260D02*
X11917696Y-10285784D01*
X11917696Y-10285784D02*
X11860553Y-10285784D01*
X11860553Y-10285784D02*
X11841506Y-10276260D01*
X11841506Y-10276260D02*
X11831982Y-10266736D01*
X12193887Y-10285784D02*
X12193887Y-10085784D01*
X12279601Y-10285784D02*
X12279601Y-10181022D01*
X12279601Y-10181022D02*
X12270077Y-10161974D01*
X12270077Y-10161974D02*
X12251030Y-10152450D01*
X12251030Y-10152450D02*
X12222458Y-10152450D01*
X12222458Y-10152450D02*
X12203410Y-10161974D01*
X12203410Y-10161974D02*
X12193887Y-10171498D01*
X12403410Y-10285784D02*
X12384363Y-10276260D01*
X12384363Y-10276260D02*
X12374839Y-10266736D01*
X12374839Y-10266736D02*
X12365315Y-10247689D01*
X12365315Y-10247689D02*
X12365315Y-10190546D01*
X12365315Y-10190546D02*
X12374839Y-10171498D01*
X12374839Y-10171498D02*
X12384363Y-10161974D01*
X12384363Y-10161974D02*
X12403410Y-10152450D01*
X12403410Y-10152450D02*
X12431982Y-10152450D01*
X12431982Y-10152450D02*
X12451030Y-10161974D01*
X12451030Y-10161974D02*
X12460553Y-10171498D01*
X12460553Y-10171498D02*
X12470077Y-10190546D01*
X12470077Y-10190546D02*
X12470077Y-10247689D01*
X12470077Y-10247689D02*
X12460553Y-10266736D01*
X12460553Y-10266736D02*
X12451030Y-10276260D01*
X12451030Y-10276260D02*
X12431982Y-10285784D01*
X12431982Y-10285784D02*
X12403410Y-10285784D01*
X12584363Y-10285784D02*
X12565315Y-10276260D01*
X12565315Y-10276260D02*
X12555791Y-10257212D01*
X12555791Y-10257212D02*
X12555791Y-10085784D01*
X12736744Y-10276260D02*
X12717696Y-10285784D01*
X12717696Y-10285784D02*
X12679601Y-10285784D01*
X12679601Y-10285784D02*
X12660553Y-10276260D01*
X12660553Y-10276260D02*
X12651030Y-10257212D01*
X12651030Y-10257212D02*
X12651030Y-10181022D01*
X12651030Y-10181022D02*
X12660553Y-10161974D01*
X12660553Y-10161974D02*
X12679601Y-10152450D01*
X12679601Y-10152450D02*
X12717696Y-10152450D01*
X12717696Y-10152450D02*
X12736744Y-10161974D01*
X12736744Y-10161974D02*
X12746268Y-10181022D01*
X12746268Y-10181022D02*
X12746268Y-10200070D01*
X12746268Y-10200070D02*
X12651030Y-10219117D01*
X12822458Y-10276260D02*
X12841506Y-10285784D01*
X12841506Y-10285784D02*
X12879601Y-10285784D01*
X12879601Y-10285784D02*
X12898649Y-10276260D01*
X12898649Y-10276260D02*
X12908172Y-10257212D01*
X12908172Y-10257212D02*
X12908172Y-10247689D01*
X12908172Y-10247689D02*
X12898649Y-10228641D01*
X12898649Y-10228641D02*
X12879601Y-10219117D01*
X12879601Y-10219117D02*
X12851030Y-10219117D01*
X12851030Y-10219117D02*
X12831982Y-10209593D01*
X12831982Y-10209593D02*
X12822458Y-10190546D01*
X12822458Y-10190546D02*
X12822458Y-10181022D01*
X12822458Y-10181022D02*
X12831982Y-10161974D01*
X12831982Y-10161974D02*
X12851030Y-10152450D01*
X12851030Y-10152450D02*
X12879601Y-10152450D01*
X12879601Y-10152450D02*
X12898649Y-10161974D01*
X12974839Y-10361974D02*
X12984363Y-10352450D01*
X12984363Y-10352450D02*
X13003411Y-10323879D01*
X13003411Y-10323879D02*
X13012934Y-10304831D01*
X13012934Y-10304831D02*
X13022458Y-10276260D01*
X13022458Y-10276260D02*
X13031982Y-10228641D01*
X13031982Y-10228641D02*
X13031982Y-10190546D01*
X13031982Y-10190546D02*
X13022458Y-10142927D01*
X13022458Y-10142927D02*
X13012934Y-10114355D01*
X13012934Y-10114355D02*
X13003411Y-10095308D01*
X13003411Y-10095308D02*
X12984363Y-10066736D01*
X12984363Y-10066736D02*
X12974839Y-10057212D01*
D12*
X7979300Y-10488300D02*
X8009300Y-10458300D01*
X7979300Y-10428300D01*
X7949300Y-10458300D01*
X7979300Y-10488300D01*
D11*
X8308172Y-10349784D02*
X8327220Y-10349784D01*
X8327220Y-10349784D02*
X8346267Y-10359308D01*
X8346267Y-10359308D02*
X8355791Y-10368831D01*
X8355791Y-10368831D02*
X8365315Y-10387879D01*
X8365315Y-10387879D02*
X8374839Y-10425974D01*
X8374839Y-10425974D02*
X8374839Y-10473593D01*
X8374839Y-10473593D02*
X8365315Y-10511689D01*
X8365315Y-10511689D02*
X8355791Y-10530736D01*
X8355791Y-10530736D02*
X8346267Y-10540260D01*
X8346267Y-10540260D02*
X8327220Y-10549784D01*
X8327220Y-10549784D02*
X8308172Y-10549784D01*
X8308172Y-10549784D02*
X8289124Y-10540260D01*
X8289124Y-10540260D02*
X8279601Y-10530736D01*
X8279601Y-10530736D02*
X8270077Y-10511689D01*
X8270077Y-10511689D02*
X8260553Y-10473593D01*
X8260553Y-10473593D02*
X8260553Y-10425974D01*
X8260553Y-10425974D02*
X8270077Y-10387879D01*
X8270077Y-10387879D02*
X8279601Y-10368831D01*
X8279601Y-10368831D02*
X8289124Y-10359308D01*
X8289124Y-10359308D02*
X8308172Y-10349784D01*
X8460553Y-10530736D02*
X8470077Y-10540260D01*
X8470077Y-10540260D02*
X8460553Y-10549784D01*
X8460553Y-10549784D02*
X8451029Y-10540260D01*
X8451029Y-10540260D02*
X8460553Y-10530736D01*
X8460553Y-10530736D02*
X8460553Y-10549784D01*
X8641505Y-10349784D02*
X8603410Y-10349784D01*
X8603410Y-10349784D02*
X8584363Y-10359308D01*
X8584363Y-10359308D02*
X8574839Y-10368831D01*
X8574839Y-10368831D02*
X8555791Y-10397403D01*
X8555791Y-10397403D02*
X8546267Y-10435498D01*
X8546267Y-10435498D02*
X8546267Y-10511689D01*
X8546267Y-10511689D02*
X8555791Y-10530736D01*
X8555791Y-10530736D02*
X8565315Y-10540260D01*
X8565315Y-10540260D02*
X8584363Y-10549784D01*
X8584363Y-10549784D02*
X8622458Y-10549784D01*
X8622458Y-10549784D02*
X8641505Y-10540260D01*
X8641505Y-10540260D02*
X8651029Y-10530736D01*
X8651029Y-10530736D02*
X8660553Y-10511689D01*
X8660553Y-10511689D02*
X8660553Y-10464070D01*
X8660553Y-10464070D02*
X8651029Y-10445022D01*
X8651029Y-10445022D02*
X8641505Y-10435498D01*
X8641505Y-10435498D02*
X8622458Y-10425974D01*
X8622458Y-10425974D02*
X8584363Y-10425974D01*
X8584363Y-10425974D02*
X8565315Y-10435498D01*
X8565315Y-10435498D02*
X8555791Y-10445022D01*
X8555791Y-10445022D02*
X8546267Y-10464070D01*
X8784363Y-10349784D02*
X8803410Y-10349784D01*
X8803410Y-10349784D02*
X8822458Y-10359308D01*
X8822458Y-10359308D02*
X8831982Y-10368831D01*
X8831982Y-10368831D02*
X8841505Y-10387879D01*
X8841505Y-10387879D02*
X8851029Y-10425974D01*
X8851029Y-10425974D02*
X8851029Y-10473593D01*
X8851029Y-10473593D02*
X8841505Y-10511689D01*
X8841505Y-10511689D02*
X8831982Y-10530736D01*
X8831982Y-10530736D02*
X8822458Y-10540260D01*
X8822458Y-10540260D02*
X8803410Y-10549784D01*
X8803410Y-10549784D02*
X8784363Y-10549784D01*
X8784363Y-10549784D02*
X8765315Y-10540260D01*
X8765315Y-10540260D02*
X8755791Y-10530736D01*
X8755791Y-10530736D02*
X8746267Y-10511689D01*
X8746267Y-10511689D02*
X8736744Y-10473593D01*
X8736744Y-10473593D02*
X8736744Y-10425974D01*
X8736744Y-10425974D02*
X8746267Y-10387879D01*
X8746267Y-10387879D02*
X8755791Y-10368831D01*
X8755791Y-10368831D02*
X8765315Y-10359308D01*
X8765315Y-10359308D02*
X8784363Y-10349784D01*
X8974839Y-10349784D02*
X8993886Y-10349784D01*
X8993886Y-10349784D02*
X9012934Y-10359308D01*
X9012934Y-10359308D02*
X9022458Y-10368831D01*
X9022458Y-10368831D02*
X9031982Y-10387879D01*
X9031982Y-10387879D02*
X9041505Y-10425974D01*
X9041505Y-10425974D02*
X9041505Y-10473593D01*
X9041505Y-10473593D02*
X9031982Y-10511689D01*
X9031982Y-10511689D02*
X9022458Y-10530736D01*
X9022458Y-10530736D02*
X9012934Y-10540260D01*
X9012934Y-10540260D02*
X8993886Y-10549784D01*
X8993886Y-10549784D02*
X8974839Y-10549784D01*
X8974839Y-10549784D02*
X8955791Y-10540260D01*
X8955791Y-10540260D02*
X8946267Y-10530736D01*
X8946267Y-10530736D02*
X8936744Y-10511689D01*
X8936744Y-10511689D02*
X8927220Y-10473593D01*
X8927220Y-10473593D02*
X8927220Y-10425974D01*
X8927220Y-10425974D02*
X8936744Y-10387879D01*
X8936744Y-10387879D02*
X8946267Y-10368831D01*
X8946267Y-10368831D02*
X8955791Y-10359308D01*
X8955791Y-10359308D02*
X8974839Y-10349784D01*
X9127220Y-10549784D02*
X9127220Y-10416450D01*
X9127220Y-10435498D02*
X9136744Y-10425974D01*
X9136744Y-10425974D02*
X9155791Y-10416450D01*
X9155791Y-10416450D02*
X9184363Y-10416450D01*
X9184363Y-10416450D02*
X9203410Y-10425974D01*
X9203410Y-10425974D02*
X9212934Y-10445022D01*
X9212934Y-10445022D02*
X9212934Y-10549784D01*
X9212934Y-10445022D02*
X9222458Y-10425974D01*
X9222458Y-10425974D02*
X9241505Y-10416450D01*
X9241505Y-10416450D02*
X9270077Y-10416450D01*
X9270077Y-10416450D02*
X9289125Y-10425974D01*
X9289125Y-10425974D02*
X9298648Y-10445022D01*
X9298648Y-10445022D02*
X9298648Y-10549784D01*
X9393886Y-10549784D02*
X9393886Y-10416450D01*
X9393886Y-10435498D02*
X9403410Y-10425974D01*
X9403410Y-10425974D02*
X9422458Y-10416450D01*
X9422458Y-10416450D02*
X9451029Y-10416450D01*
X9451029Y-10416450D02*
X9470077Y-10425974D01*
X9470077Y-10425974D02*
X9479601Y-10445022D01*
X9479601Y-10445022D02*
X9479601Y-10549784D01*
X9479601Y-10445022D02*
X9489125Y-10425974D01*
X9489125Y-10425974D02*
X9508172Y-10416450D01*
X9508172Y-10416450D02*
X9536744Y-10416450D01*
X9536744Y-10416450D02*
X9555791Y-10425974D01*
X9555791Y-10425974D02*
X9565315Y-10445022D01*
X9565315Y-10445022D02*
X9565315Y-10549784D01*
X9955791Y-10340260D02*
X9784363Y-10597403D01*
X10212934Y-10349784D02*
X10231982Y-10349784D01*
X10231982Y-10349784D02*
X10251029Y-10359308D01*
X10251029Y-10359308D02*
X10260553Y-10368831D01*
X10260553Y-10368831D02*
X10270077Y-10387879D01*
X10270077Y-10387879D02*
X10279601Y-10425974D01*
X10279601Y-10425974D02*
X10279601Y-10473593D01*
X10279601Y-10473593D02*
X10270077Y-10511689D01*
X10270077Y-10511689D02*
X10260553Y-10530736D01*
X10260553Y-10530736D02*
X10251029Y-10540260D01*
X10251029Y-10540260D02*
X10231982Y-10549784D01*
X10231982Y-10549784D02*
X10212934Y-10549784D01*
X10212934Y-10549784D02*
X10193887Y-10540260D01*
X10193887Y-10540260D02*
X10184363Y-10530736D01*
X10184363Y-10530736D02*
X10174839Y-10511689D01*
X10174839Y-10511689D02*
X10165315Y-10473593D01*
X10165315Y-10473593D02*
X10165315Y-10425974D01*
X10165315Y-10425974D02*
X10174839Y-10387879D01*
X10174839Y-10387879D02*
X10184363Y-10368831D01*
X10184363Y-10368831D02*
X10193887Y-10359308D01*
X10193887Y-10359308D02*
X10212934Y-10349784D01*
X10365315Y-10530736D02*
X10374839Y-10540260D01*
X10374839Y-10540260D02*
X10365315Y-10549784D01*
X10365315Y-10549784D02*
X10355791Y-10540260D01*
X10355791Y-10540260D02*
X10365315Y-10530736D01*
X10365315Y-10530736D02*
X10365315Y-10549784D01*
X10498648Y-10349784D02*
X10517696Y-10349784D01*
X10517696Y-10349784D02*
X10536744Y-10359308D01*
X10536744Y-10359308D02*
X10546268Y-10368831D01*
X10546268Y-10368831D02*
X10555791Y-10387879D01*
X10555791Y-10387879D02*
X10565315Y-10425974D01*
X10565315Y-10425974D02*
X10565315Y-10473593D01*
X10565315Y-10473593D02*
X10555791Y-10511689D01*
X10555791Y-10511689D02*
X10546268Y-10530736D01*
X10546268Y-10530736D02*
X10536744Y-10540260D01*
X10536744Y-10540260D02*
X10517696Y-10549784D01*
X10517696Y-10549784D02*
X10498648Y-10549784D01*
X10498648Y-10549784D02*
X10479601Y-10540260D01*
X10479601Y-10540260D02*
X10470077Y-10530736D01*
X10470077Y-10530736D02*
X10460553Y-10511689D01*
X10460553Y-10511689D02*
X10451029Y-10473593D01*
X10451029Y-10473593D02*
X10451029Y-10425974D01*
X10451029Y-10425974D02*
X10460553Y-10387879D01*
X10460553Y-10387879D02*
X10470077Y-10368831D01*
X10470077Y-10368831D02*
X10479601Y-10359308D01*
X10479601Y-10359308D02*
X10498648Y-10349784D01*
X10641506Y-10368831D02*
X10651029Y-10359308D01*
X10651029Y-10359308D02*
X10670077Y-10349784D01*
X10670077Y-10349784D02*
X10717696Y-10349784D01*
X10717696Y-10349784D02*
X10736744Y-10359308D01*
X10736744Y-10359308D02*
X10746268Y-10368831D01*
X10746268Y-10368831D02*
X10755791Y-10387879D01*
X10755791Y-10387879D02*
X10755791Y-10406927D01*
X10755791Y-10406927D02*
X10746268Y-10435498D01*
X10746268Y-10435498D02*
X10631982Y-10549784D01*
X10631982Y-10549784D02*
X10755791Y-10549784D01*
X10822458Y-10349784D02*
X10946268Y-10349784D01*
X10946268Y-10349784D02*
X10879601Y-10425974D01*
X10879601Y-10425974D02*
X10908172Y-10425974D01*
X10908172Y-10425974D02*
X10927220Y-10435498D01*
X10927220Y-10435498D02*
X10936744Y-10445022D01*
X10936744Y-10445022D02*
X10946268Y-10464070D01*
X10946268Y-10464070D02*
X10946268Y-10511689D01*
X10946268Y-10511689D02*
X10936744Y-10530736D01*
X10936744Y-10530736D02*
X10927220Y-10540260D01*
X10927220Y-10540260D02*
X10908172Y-10549784D01*
X10908172Y-10549784D02*
X10851029Y-10549784D01*
X10851029Y-10549784D02*
X10831982Y-10540260D01*
X10831982Y-10540260D02*
X10822458Y-10530736D01*
X11117696Y-10349784D02*
X11079601Y-10349784D01*
X11079601Y-10349784D02*
X11060553Y-10359308D01*
X11060553Y-10359308D02*
X11051029Y-10368831D01*
X11051029Y-10368831D02*
X11031982Y-10397403D01*
X11031982Y-10397403D02*
X11022458Y-10435498D01*
X11022458Y-10435498D02*
X11022458Y-10511689D01*
X11022458Y-10511689D02*
X11031982Y-10530736D01*
X11031982Y-10530736D02*
X11041506Y-10540260D01*
X11041506Y-10540260D02*
X11060553Y-10549784D01*
X11060553Y-10549784D02*
X11098649Y-10549784D01*
X11098649Y-10549784D02*
X11117696Y-10540260D01*
X11117696Y-10540260D02*
X11127220Y-10530736D01*
X11127220Y-10530736D02*
X11136744Y-10511689D01*
X11136744Y-10511689D02*
X11136744Y-10464070D01*
X11136744Y-10464070D02*
X11127220Y-10445022D01*
X11127220Y-10445022D02*
X11117696Y-10435498D01*
X11117696Y-10435498D02*
X11098649Y-10425974D01*
X11098649Y-10425974D02*
X11060553Y-10425974D01*
X11060553Y-10425974D02*
X11041506Y-10435498D01*
X11041506Y-10435498D02*
X11031982Y-10445022D01*
X11031982Y-10445022D02*
X11022458Y-10464070D01*
X11212934Y-10349784D02*
X11212934Y-10387879D01*
X11289125Y-10349784D02*
X11289125Y-10387879D01*
X11584363Y-10625974D02*
X11574839Y-10616450D01*
X11574839Y-10616450D02*
X11555791Y-10587879D01*
X11555791Y-10587879D02*
X11546268Y-10568831D01*
X11546268Y-10568831D02*
X11536744Y-10540260D01*
X11536744Y-10540260D02*
X11527220Y-10492641D01*
X11527220Y-10492641D02*
X11527220Y-10454546D01*
X11527220Y-10454546D02*
X11536744Y-10406927D01*
X11536744Y-10406927D02*
X11546268Y-10378355D01*
X11546268Y-10378355D02*
X11555791Y-10359308D01*
X11555791Y-10359308D02*
X11574839Y-10330736D01*
X11574839Y-10330736D02*
X11584363Y-10321212D01*
X11698648Y-10349784D02*
X11717696Y-10349784D01*
X11717696Y-10349784D02*
X11736744Y-10359308D01*
X11736744Y-10359308D02*
X11746268Y-10368831D01*
X11746268Y-10368831D02*
X11755791Y-10387879D01*
X11755791Y-10387879D02*
X11765315Y-10425974D01*
X11765315Y-10425974D02*
X11765315Y-10473593D01*
X11765315Y-10473593D02*
X11755791Y-10511689D01*
X11755791Y-10511689D02*
X11746268Y-10530736D01*
X11746268Y-10530736D02*
X11736744Y-10540260D01*
X11736744Y-10540260D02*
X11717696Y-10549784D01*
X11717696Y-10549784D02*
X11698648Y-10549784D01*
X11698648Y-10549784D02*
X11679601Y-10540260D01*
X11679601Y-10540260D02*
X11670077Y-10530736D01*
X11670077Y-10530736D02*
X11660553Y-10511689D01*
X11660553Y-10511689D02*
X11651029Y-10473593D01*
X11651029Y-10473593D02*
X11651029Y-10425974D01*
X11651029Y-10425974D02*
X11660553Y-10387879D01*
X11660553Y-10387879D02*
X11670077Y-10368831D01*
X11670077Y-10368831D02*
X11679601Y-10359308D01*
X11679601Y-10359308D02*
X11698648Y-10349784D01*
X12003410Y-10549784D02*
X12003410Y-10349784D01*
X12089125Y-10549784D02*
X12089125Y-10445022D01*
X12089125Y-10445022D02*
X12079601Y-10425974D01*
X12079601Y-10425974D02*
X12060553Y-10416450D01*
X12060553Y-10416450D02*
X12031982Y-10416450D01*
X12031982Y-10416450D02*
X12012934Y-10425974D01*
X12012934Y-10425974D02*
X12003410Y-10435498D01*
X12212934Y-10549784D02*
X12193887Y-10540260D01*
X12193887Y-10540260D02*
X12184363Y-10530736D01*
X12184363Y-10530736D02*
X12174839Y-10511689D01*
X12174839Y-10511689D02*
X12174839Y-10454546D01*
X12174839Y-10454546D02*
X12184363Y-10435498D01*
X12184363Y-10435498D02*
X12193887Y-10425974D01*
X12193887Y-10425974D02*
X12212934Y-10416450D01*
X12212934Y-10416450D02*
X12241506Y-10416450D01*
X12241506Y-10416450D02*
X12260553Y-10425974D01*
X12260553Y-10425974D02*
X12270077Y-10435498D01*
X12270077Y-10435498D02*
X12279601Y-10454546D01*
X12279601Y-10454546D02*
X12279601Y-10511689D01*
X12279601Y-10511689D02*
X12270077Y-10530736D01*
X12270077Y-10530736D02*
X12260553Y-10540260D01*
X12260553Y-10540260D02*
X12241506Y-10549784D01*
X12241506Y-10549784D02*
X12212934Y-10549784D01*
X12393887Y-10549784D02*
X12374839Y-10540260D01*
X12374839Y-10540260D02*
X12365315Y-10521212D01*
X12365315Y-10521212D02*
X12365315Y-10349784D01*
X12546268Y-10540260D02*
X12527220Y-10549784D01*
X12527220Y-10549784D02*
X12489125Y-10549784D01*
X12489125Y-10549784D02*
X12470077Y-10540260D01*
X12470077Y-10540260D02*
X12460553Y-10521212D01*
X12460553Y-10521212D02*
X12460553Y-10445022D01*
X12460553Y-10445022D02*
X12470077Y-10425974D01*
X12470077Y-10425974D02*
X12489125Y-10416450D01*
X12489125Y-10416450D02*
X12527220Y-10416450D01*
X12527220Y-10416450D02*
X12546268Y-10425974D01*
X12546268Y-10425974D02*
X12555791Y-10445022D01*
X12555791Y-10445022D02*
X12555791Y-10464070D01*
X12555791Y-10464070D02*
X12460553Y-10483117D01*
X12631982Y-10540260D02*
X12651030Y-10549784D01*
X12651030Y-10549784D02*
X12689125Y-10549784D01*
X12689125Y-10549784D02*
X12708172Y-10540260D01*
X12708172Y-10540260D02*
X12717696Y-10521212D01*
X12717696Y-10521212D02*
X12717696Y-10511689D01*
X12717696Y-10511689D02*
X12708172Y-10492641D01*
X12708172Y-10492641D02*
X12689125Y-10483117D01*
X12689125Y-10483117D02*
X12660553Y-10483117D01*
X12660553Y-10483117D02*
X12641506Y-10473593D01*
X12641506Y-10473593D02*
X12631982Y-10454546D01*
X12631982Y-10454546D02*
X12631982Y-10445022D01*
X12631982Y-10445022D02*
X12641506Y-10425974D01*
X12641506Y-10425974D02*
X12660553Y-10416450D01*
X12660553Y-10416450D02*
X12689125Y-10416450D01*
X12689125Y-10416450D02*
X12708172Y-10425974D01*
X12955792Y-10473593D02*
X13108173Y-10473593D01*
X13031982Y-10549784D02*
X13031982Y-10397403D01*
X13441506Y-10416450D02*
X13441506Y-10549784D01*
X13393887Y-10340260D02*
X13346268Y-10483117D01*
X13346268Y-10483117D02*
X13470077Y-10483117D01*
X13689125Y-10540260D02*
X13708173Y-10549784D01*
X13708173Y-10549784D02*
X13746268Y-10549784D01*
X13746268Y-10549784D02*
X13765315Y-10540260D01*
X13765315Y-10540260D02*
X13774839Y-10521212D01*
X13774839Y-10521212D02*
X13774839Y-10511689D01*
X13774839Y-10511689D02*
X13765315Y-10492641D01*
X13765315Y-10492641D02*
X13746268Y-10483117D01*
X13746268Y-10483117D02*
X13717696Y-10483117D01*
X13717696Y-10483117D02*
X13698649Y-10473593D01*
X13698649Y-10473593D02*
X13689125Y-10454546D01*
X13689125Y-10454546D02*
X13689125Y-10445022D01*
X13689125Y-10445022D02*
X13698649Y-10425974D01*
X13698649Y-10425974D02*
X13717696Y-10416450D01*
X13717696Y-10416450D02*
X13746268Y-10416450D01*
X13746268Y-10416450D02*
X13765315Y-10425974D01*
X13889125Y-10549784D02*
X13870077Y-10540260D01*
X13870077Y-10540260D02*
X13860554Y-10521212D01*
X13860554Y-10521212D02*
X13860554Y-10349784D01*
X13993887Y-10549784D02*
X13974839Y-10540260D01*
X13974839Y-10540260D02*
X13965315Y-10530736D01*
X13965315Y-10530736D02*
X13955792Y-10511689D01*
X13955792Y-10511689D02*
X13955792Y-10454546D01*
X13955792Y-10454546D02*
X13965315Y-10435498D01*
X13965315Y-10435498D02*
X13974839Y-10425974D01*
X13974839Y-10425974D02*
X13993887Y-10416450D01*
X13993887Y-10416450D02*
X14022458Y-10416450D01*
X14022458Y-10416450D02*
X14041506Y-10425974D01*
X14041506Y-10425974D02*
X14051030Y-10435498D01*
X14051030Y-10435498D02*
X14060554Y-10454546D01*
X14060554Y-10454546D02*
X14060554Y-10511689D01*
X14060554Y-10511689D02*
X14051030Y-10530736D01*
X14051030Y-10530736D02*
X14041506Y-10540260D01*
X14041506Y-10540260D02*
X14022458Y-10549784D01*
X14022458Y-10549784D02*
X13993887Y-10549784D01*
X14117696Y-10416450D02*
X14193887Y-10416450D01*
X14146268Y-10349784D02*
X14146268Y-10521212D01*
X14146268Y-10521212D02*
X14155792Y-10540260D01*
X14155792Y-10540260D02*
X14174839Y-10549784D01*
X14174839Y-10549784D02*
X14193887Y-10549784D01*
X14251030Y-10540260D02*
X14270077Y-10549784D01*
X14270077Y-10549784D02*
X14308173Y-10549784D01*
X14308173Y-10549784D02*
X14327220Y-10540260D01*
X14327220Y-10540260D02*
X14336744Y-10521212D01*
X14336744Y-10521212D02*
X14336744Y-10511689D01*
X14336744Y-10511689D02*
X14327220Y-10492641D01*
X14327220Y-10492641D02*
X14308173Y-10483117D01*
X14308173Y-10483117D02*
X14279601Y-10483117D01*
X14279601Y-10483117D02*
X14260554Y-10473593D01*
X14260554Y-10473593D02*
X14251030Y-10454546D01*
X14251030Y-10454546D02*
X14251030Y-10445022D01*
X14251030Y-10445022D02*
X14260554Y-10425974D01*
X14260554Y-10425974D02*
X14279601Y-10416450D01*
X14279601Y-10416450D02*
X14308173Y-10416450D01*
X14308173Y-10416450D02*
X14327220Y-10425974D01*
X14403411Y-10625974D02*
X14412935Y-10616450D01*
X14412935Y-10616450D02*
X14431982Y-10587879D01*
X14431982Y-10587879D02*
X14441506Y-10568831D01*
X14441506Y-10568831D02*
X14451030Y-10540260D01*
X14451030Y-10540260D02*
X14460554Y-10492641D01*
X14460554Y-10492641D02*
X14460554Y-10454546D01*
X14460554Y-10454546D02*
X14451030Y-10406927D01*
X14451030Y-10406927D02*
X14441506Y-10378355D01*
X14441506Y-10378355D02*
X14431982Y-10359308D01*
X14431982Y-10359308D02*
X14412935Y-10330736D01*
X14412935Y-10330736D02*
X14403411Y-10321212D01*
D12*
X7929300Y-10682300D02*
X8009300Y-10762300D01*
X8009300Y-10682300D02*
X7929300Y-10762300D01*
X8009300Y-10722300D02*
G75*
G03*
X8009300Y-10722300I-40000J0D01*
G01*
D11*
X8308172Y-10613784D02*
X8327220Y-10613784D01*
X8327220Y-10613784D02*
X8346267Y-10623308D01*
X8346267Y-10623308D02*
X8355791Y-10632831D01*
X8355791Y-10632831D02*
X8365315Y-10651879D01*
X8365315Y-10651879D02*
X8374839Y-10689974D01*
X8374839Y-10689974D02*
X8374839Y-10737593D01*
X8374839Y-10737593D02*
X8365315Y-10775689D01*
X8365315Y-10775689D02*
X8355791Y-10794736D01*
X8355791Y-10794736D02*
X8346267Y-10804260D01*
X8346267Y-10804260D02*
X8327220Y-10813784D01*
X8327220Y-10813784D02*
X8308172Y-10813784D01*
X8308172Y-10813784D02*
X8289124Y-10804260D01*
X8289124Y-10804260D02*
X8279601Y-10794736D01*
X8279601Y-10794736D02*
X8270077Y-10775689D01*
X8270077Y-10775689D02*
X8260553Y-10737593D01*
X8260553Y-10737593D02*
X8260553Y-10689974D01*
X8260553Y-10689974D02*
X8270077Y-10651879D01*
X8270077Y-10651879D02*
X8279601Y-10632831D01*
X8279601Y-10632831D02*
X8289124Y-10623308D01*
X8289124Y-10623308D02*
X8308172Y-10613784D01*
X8460553Y-10794736D02*
X8470077Y-10804260D01*
X8470077Y-10804260D02*
X8460553Y-10813784D01*
X8460553Y-10813784D02*
X8451029Y-10804260D01*
X8451029Y-10804260D02*
X8460553Y-10794736D01*
X8460553Y-10794736D02*
X8460553Y-10813784D01*
X8584363Y-10699498D02*
X8565315Y-10689974D01*
X8565315Y-10689974D02*
X8555791Y-10680450D01*
X8555791Y-10680450D02*
X8546267Y-10661403D01*
X8546267Y-10661403D02*
X8546267Y-10651879D01*
X8546267Y-10651879D02*
X8555791Y-10632831D01*
X8555791Y-10632831D02*
X8565315Y-10623308D01*
X8565315Y-10623308D02*
X8584363Y-10613784D01*
X8584363Y-10613784D02*
X8622458Y-10613784D01*
X8622458Y-10613784D02*
X8641505Y-10623308D01*
X8641505Y-10623308D02*
X8651029Y-10632831D01*
X8651029Y-10632831D02*
X8660553Y-10651879D01*
X8660553Y-10651879D02*
X8660553Y-10661403D01*
X8660553Y-10661403D02*
X8651029Y-10680450D01*
X8651029Y-10680450D02*
X8641505Y-10689974D01*
X8641505Y-10689974D02*
X8622458Y-10699498D01*
X8622458Y-10699498D02*
X8584363Y-10699498D01*
X8584363Y-10699498D02*
X8565315Y-10709022D01*
X8565315Y-10709022D02*
X8555791Y-10718546D01*
X8555791Y-10718546D02*
X8546267Y-10737593D01*
X8546267Y-10737593D02*
X8546267Y-10775689D01*
X8546267Y-10775689D02*
X8555791Y-10794736D01*
X8555791Y-10794736D02*
X8565315Y-10804260D01*
X8565315Y-10804260D02*
X8584363Y-10813784D01*
X8584363Y-10813784D02*
X8622458Y-10813784D01*
X8622458Y-10813784D02*
X8641505Y-10804260D01*
X8641505Y-10804260D02*
X8651029Y-10794736D01*
X8651029Y-10794736D02*
X8660553Y-10775689D01*
X8660553Y-10775689D02*
X8660553Y-10737593D01*
X8660553Y-10737593D02*
X8651029Y-10718546D01*
X8651029Y-10718546D02*
X8641505Y-10709022D01*
X8641505Y-10709022D02*
X8622458Y-10699498D01*
X8784363Y-10613784D02*
X8803410Y-10613784D01*
X8803410Y-10613784D02*
X8822458Y-10623308D01*
X8822458Y-10623308D02*
X8831982Y-10632831D01*
X8831982Y-10632831D02*
X8841505Y-10651879D01*
X8841505Y-10651879D02*
X8851029Y-10689974D01*
X8851029Y-10689974D02*
X8851029Y-10737593D01*
X8851029Y-10737593D02*
X8841505Y-10775689D01*
X8841505Y-10775689D02*
X8831982Y-10794736D01*
X8831982Y-10794736D02*
X8822458Y-10804260D01*
X8822458Y-10804260D02*
X8803410Y-10813784D01*
X8803410Y-10813784D02*
X8784363Y-10813784D01*
X8784363Y-10813784D02*
X8765315Y-10804260D01*
X8765315Y-10804260D02*
X8755791Y-10794736D01*
X8755791Y-10794736D02*
X8746267Y-10775689D01*
X8746267Y-10775689D02*
X8736744Y-10737593D01*
X8736744Y-10737593D02*
X8736744Y-10689974D01*
X8736744Y-10689974D02*
X8746267Y-10651879D01*
X8746267Y-10651879D02*
X8755791Y-10632831D01*
X8755791Y-10632831D02*
X8765315Y-10623308D01*
X8765315Y-10623308D02*
X8784363Y-10613784D01*
X8974839Y-10613784D02*
X8993886Y-10613784D01*
X8993886Y-10613784D02*
X9012934Y-10623308D01*
X9012934Y-10623308D02*
X9022458Y-10632831D01*
X9022458Y-10632831D02*
X9031982Y-10651879D01*
X9031982Y-10651879D02*
X9041505Y-10689974D01*
X9041505Y-10689974D02*
X9041505Y-10737593D01*
X9041505Y-10737593D02*
X9031982Y-10775689D01*
X9031982Y-10775689D02*
X9022458Y-10794736D01*
X9022458Y-10794736D02*
X9012934Y-10804260D01*
X9012934Y-10804260D02*
X8993886Y-10813784D01*
X8993886Y-10813784D02*
X8974839Y-10813784D01*
X8974839Y-10813784D02*
X8955791Y-10804260D01*
X8955791Y-10804260D02*
X8946267Y-10794736D01*
X8946267Y-10794736D02*
X8936744Y-10775689D01*
X8936744Y-10775689D02*
X8927220Y-10737593D01*
X8927220Y-10737593D02*
X8927220Y-10689974D01*
X8927220Y-10689974D02*
X8936744Y-10651879D01*
X8936744Y-10651879D02*
X8946267Y-10632831D01*
X8946267Y-10632831D02*
X8955791Y-10623308D01*
X8955791Y-10623308D02*
X8974839Y-10613784D01*
X9127220Y-10813784D02*
X9127220Y-10680450D01*
X9127220Y-10699498D02*
X9136744Y-10689974D01*
X9136744Y-10689974D02*
X9155791Y-10680450D01*
X9155791Y-10680450D02*
X9184363Y-10680450D01*
X9184363Y-10680450D02*
X9203410Y-10689974D01*
X9203410Y-10689974D02*
X9212934Y-10709022D01*
X9212934Y-10709022D02*
X9212934Y-10813784D01*
X9212934Y-10709022D02*
X9222458Y-10689974D01*
X9222458Y-10689974D02*
X9241505Y-10680450D01*
X9241505Y-10680450D02*
X9270077Y-10680450D01*
X9270077Y-10680450D02*
X9289125Y-10689974D01*
X9289125Y-10689974D02*
X9298648Y-10709022D01*
X9298648Y-10709022D02*
X9298648Y-10813784D01*
X9393886Y-10813784D02*
X9393886Y-10680450D01*
X9393886Y-10699498D02*
X9403410Y-10689974D01*
X9403410Y-10689974D02*
X9422458Y-10680450D01*
X9422458Y-10680450D02*
X9451029Y-10680450D01*
X9451029Y-10680450D02*
X9470077Y-10689974D01*
X9470077Y-10689974D02*
X9479601Y-10709022D01*
X9479601Y-10709022D02*
X9479601Y-10813784D01*
X9479601Y-10709022D02*
X9489125Y-10689974D01*
X9489125Y-10689974D02*
X9508172Y-10680450D01*
X9508172Y-10680450D02*
X9536744Y-10680450D01*
X9536744Y-10680450D02*
X9555791Y-10689974D01*
X9555791Y-10689974D02*
X9565315Y-10709022D01*
X9565315Y-10709022D02*
X9565315Y-10813784D01*
X9955791Y-10604260D02*
X9784363Y-10861403D01*
X10212934Y-10613784D02*
X10231982Y-10613784D01*
X10231982Y-10613784D02*
X10251029Y-10623308D01*
X10251029Y-10623308D02*
X10260553Y-10632831D01*
X10260553Y-10632831D02*
X10270077Y-10651879D01*
X10270077Y-10651879D02*
X10279601Y-10689974D01*
X10279601Y-10689974D02*
X10279601Y-10737593D01*
X10279601Y-10737593D02*
X10270077Y-10775689D01*
X10270077Y-10775689D02*
X10260553Y-10794736D01*
X10260553Y-10794736D02*
X10251029Y-10804260D01*
X10251029Y-10804260D02*
X10231982Y-10813784D01*
X10231982Y-10813784D02*
X10212934Y-10813784D01*
X10212934Y-10813784D02*
X10193887Y-10804260D01*
X10193887Y-10804260D02*
X10184363Y-10794736D01*
X10184363Y-10794736D02*
X10174839Y-10775689D01*
X10174839Y-10775689D02*
X10165315Y-10737593D01*
X10165315Y-10737593D02*
X10165315Y-10689974D01*
X10165315Y-10689974D02*
X10174839Y-10651879D01*
X10174839Y-10651879D02*
X10184363Y-10632831D01*
X10184363Y-10632831D02*
X10193887Y-10623308D01*
X10193887Y-10623308D02*
X10212934Y-10613784D01*
X10365315Y-10794736D02*
X10374839Y-10804260D01*
X10374839Y-10804260D02*
X10365315Y-10813784D01*
X10365315Y-10813784D02*
X10355791Y-10804260D01*
X10355791Y-10804260D02*
X10365315Y-10794736D01*
X10365315Y-10794736D02*
X10365315Y-10813784D01*
X10498648Y-10613784D02*
X10517696Y-10613784D01*
X10517696Y-10613784D02*
X10536744Y-10623308D01*
X10536744Y-10623308D02*
X10546268Y-10632831D01*
X10546268Y-10632831D02*
X10555791Y-10651879D01*
X10555791Y-10651879D02*
X10565315Y-10689974D01*
X10565315Y-10689974D02*
X10565315Y-10737593D01*
X10565315Y-10737593D02*
X10555791Y-10775689D01*
X10555791Y-10775689D02*
X10546268Y-10794736D01*
X10546268Y-10794736D02*
X10536744Y-10804260D01*
X10536744Y-10804260D02*
X10517696Y-10813784D01*
X10517696Y-10813784D02*
X10498648Y-10813784D01*
X10498648Y-10813784D02*
X10479601Y-10804260D01*
X10479601Y-10804260D02*
X10470077Y-10794736D01*
X10470077Y-10794736D02*
X10460553Y-10775689D01*
X10460553Y-10775689D02*
X10451029Y-10737593D01*
X10451029Y-10737593D02*
X10451029Y-10689974D01*
X10451029Y-10689974D02*
X10460553Y-10651879D01*
X10460553Y-10651879D02*
X10470077Y-10632831D01*
X10470077Y-10632831D02*
X10479601Y-10623308D01*
X10479601Y-10623308D02*
X10498648Y-10613784D01*
X10631982Y-10613784D02*
X10755791Y-10613784D01*
X10755791Y-10613784D02*
X10689125Y-10689974D01*
X10689125Y-10689974D02*
X10717696Y-10689974D01*
X10717696Y-10689974D02*
X10736744Y-10699498D01*
X10736744Y-10699498D02*
X10746268Y-10709022D01*
X10746268Y-10709022D02*
X10755791Y-10728070D01*
X10755791Y-10728070D02*
X10755791Y-10775689D01*
X10755791Y-10775689D02*
X10746268Y-10794736D01*
X10746268Y-10794736D02*
X10736744Y-10804260D01*
X10736744Y-10804260D02*
X10717696Y-10813784D01*
X10717696Y-10813784D02*
X10660553Y-10813784D01*
X10660553Y-10813784D02*
X10641506Y-10804260D01*
X10641506Y-10804260D02*
X10631982Y-10794736D01*
X10946268Y-10813784D02*
X10831982Y-10813784D01*
X10889125Y-10813784D02*
X10889125Y-10613784D01*
X10889125Y-10613784D02*
X10870077Y-10642355D01*
X10870077Y-10642355D02*
X10851029Y-10661403D01*
X10851029Y-10661403D02*
X10831982Y-10670927D01*
X11127220Y-10613784D02*
X11031982Y-10613784D01*
X11031982Y-10613784D02*
X11022458Y-10709022D01*
X11022458Y-10709022D02*
X11031982Y-10699498D01*
X11031982Y-10699498D02*
X11051029Y-10689974D01*
X11051029Y-10689974D02*
X11098649Y-10689974D01*
X11098649Y-10689974D02*
X11117696Y-10699498D01*
X11117696Y-10699498D02*
X11127220Y-10709022D01*
X11127220Y-10709022D02*
X11136744Y-10728070D01*
X11136744Y-10728070D02*
X11136744Y-10775689D01*
X11136744Y-10775689D02*
X11127220Y-10794736D01*
X11127220Y-10794736D02*
X11117696Y-10804260D01*
X11117696Y-10804260D02*
X11098649Y-10813784D01*
X11098649Y-10813784D02*
X11051029Y-10813784D01*
X11051029Y-10813784D02*
X11031982Y-10804260D01*
X11031982Y-10804260D02*
X11022458Y-10794736D01*
X11212934Y-10613784D02*
X11212934Y-10651879D01*
X11289125Y-10613784D02*
X11289125Y-10651879D01*
X11584363Y-10889974D02*
X11574839Y-10880450D01*
X11574839Y-10880450D02*
X11555791Y-10851879D01*
X11555791Y-10851879D02*
X11546268Y-10832831D01*
X11546268Y-10832831D02*
X11536744Y-10804260D01*
X11536744Y-10804260D02*
X11527220Y-10756641D01*
X11527220Y-10756641D02*
X11527220Y-10718546D01*
X11527220Y-10718546D02*
X11536744Y-10670927D01*
X11536744Y-10670927D02*
X11546268Y-10642355D01*
X11546268Y-10642355D02*
X11555791Y-10623308D01*
X11555791Y-10623308D02*
X11574839Y-10594736D01*
X11574839Y-10594736D02*
X11584363Y-10585212D01*
X11765315Y-10813784D02*
X11651029Y-10813784D01*
X11708172Y-10813784D02*
X11708172Y-10613784D01*
X11708172Y-10613784D02*
X11689125Y-10642355D01*
X11689125Y-10642355D02*
X11670077Y-10661403D01*
X11670077Y-10661403D02*
X11651029Y-10670927D01*
X11936744Y-10613784D02*
X11898648Y-10613784D01*
X11898648Y-10613784D02*
X11879601Y-10623308D01*
X11879601Y-10623308D02*
X11870077Y-10632831D01*
X11870077Y-10632831D02*
X11851029Y-10661403D01*
X11851029Y-10661403D02*
X11841506Y-10699498D01*
X11841506Y-10699498D02*
X11841506Y-10775689D01*
X11841506Y-10775689D02*
X11851029Y-10794736D01*
X11851029Y-10794736D02*
X11860553Y-10804260D01*
X11860553Y-10804260D02*
X11879601Y-10813784D01*
X11879601Y-10813784D02*
X11917696Y-10813784D01*
X11917696Y-10813784D02*
X11936744Y-10804260D01*
X11936744Y-10804260D02*
X11946268Y-10794736D01*
X11946268Y-10794736D02*
X11955791Y-10775689D01*
X11955791Y-10775689D02*
X11955791Y-10728070D01*
X11955791Y-10728070D02*
X11946268Y-10709022D01*
X11946268Y-10709022D02*
X11936744Y-10699498D01*
X11936744Y-10699498D02*
X11917696Y-10689974D01*
X11917696Y-10689974D02*
X11879601Y-10689974D01*
X11879601Y-10689974D02*
X11860553Y-10699498D01*
X11860553Y-10699498D02*
X11851029Y-10709022D01*
X11851029Y-10709022D02*
X11841506Y-10728070D01*
X12193887Y-10813784D02*
X12193887Y-10613784D01*
X12279601Y-10813784D02*
X12279601Y-10709022D01*
X12279601Y-10709022D02*
X12270077Y-10689974D01*
X12270077Y-10689974D02*
X12251030Y-10680450D01*
X12251030Y-10680450D02*
X12222458Y-10680450D01*
X12222458Y-10680450D02*
X12203410Y-10689974D01*
X12203410Y-10689974D02*
X12193887Y-10699498D01*
X12403410Y-10813784D02*
X12384363Y-10804260D01*
X12384363Y-10804260D02*
X12374839Y-10794736D01*
X12374839Y-10794736D02*
X12365315Y-10775689D01*
X12365315Y-10775689D02*
X12365315Y-10718546D01*
X12365315Y-10718546D02*
X12374839Y-10699498D01*
X12374839Y-10699498D02*
X12384363Y-10689974D01*
X12384363Y-10689974D02*
X12403410Y-10680450D01*
X12403410Y-10680450D02*
X12431982Y-10680450D01*
X12431982Y-10680450D02*
X12451030Y-10689974D01*
X12451030Y-10689974D02*
X12460553Y-10699498D01*
X12460553Y-10699498D02*
X12470077Y-10718546D01*
X12470077Y-10718546D02*
X12470077Y-10775689D01*
X12470077Y-10775689D02*
X12460553Y-10794736D01*
X12460553Y-10794736D02*
X12451030Y-10804260D01*
X12451030Y-10804260D02*
X12431982Y-10813784D01*
X12431982Y-10813784D02*
X12403410Y-10813784D01*
X12584363Y-10813784D02*
X12565315Y-10804260D01*
X12565315Y-10804260D02*
X12555791Y-10785212D01*
X12555791Y-10785212D02*
X12555791Y-10613784D01*
X12736744Y-10804260D02*
X12717696Y-10813784D01*
X12717696Y-10813784D02*
X12679601Y-10813784D01*
X12679601Y-10813784D02*
X12660553Y-10804260D01*
X12660553Y-10804260D02*
X12651030Y-10785212D01*
X12651030Y-10785212D02*
X12651030Y-10709022D01*
X12651030Y-10709022D02*
X12660553Y-10689974D01*
X12660553Y-10689974D02*
X12679601Y-10680450D01*
X12679601Y-10680450D02*
X12717696Y-10680450D01*
X12717696Y-10680450D02*
X12736744Y-10689974D01*
X12736744Y-10689974D02*
X12746268Y-10709022D01*
X12746268Y-10709022D02*
X12746268Y-10728070D01*
X12746268Y-10728070D02*
X12651030Y-10747117D01*
X12822458Y-10804260D02*
X12841506Y-10813784D01*
X12841506Y-10813784D02*
X12879601Y-10813784D01*
X12879601Y-10813784D02*
X12898649Y-10804260D01*
X12898649Y-10804260D02*
X12908172Y-10785212D01*
X12908172Y-10785212D02*
X12908172Y-10775689D01*
X12908172Y-10775689D02*
X12898649Y-10756641D01*
X12898649Y-10756641D02*
X12879601Y-10747117D01*
X12879601Y-10747117D02*
X12851030Y-10747117D01*
X12851030Y-10747117D02*
X12831982Y-10737593D01*
X12831982Y-10737593D02*
X12822458Y-10718546D01*
X12822458Y-10718546D02*
X12822458Y-10709022D01*
X12822458Y-10709022D02*
X12831982Y-10689974D01*
X12831982Y-10689974D02*
X12851030Y-10680450D01*
X12851030Y-10680450D02*
X12879601Y-10680450D01*
X12879601Y-10680450D02*
X12898649Y-10689974D01*
X12974839Y-10889974D02*
X12984363Y-10880450D01*
X12984363Y-10880450D02*
X13003411Y-10851879D01*
X13003411Y-10851879D02*
X13012934Y-10832831D01*
X13012934Y-10832831D02*
X13022458Y-10804260D01*
X13022458Y-10804260D02*
X13031982Y-10756641D01*
X13031982Y-10756641D02*
X13031982Y-10718546D01*
X13031982Y-10718546D02*
X13022458Y-10670927D01*
X13022458Y-10670927D02*
X13012934Y-10642355D01*
X13012934Y-10642355D02*
X13003411Y-10623308D01*
X13003411Y-10623308D02*
X12984363Y-10594736D01*
X12984363Y-10594736D02*
X12974839Y-10585212D01*
D12*
X7909300Y-10936300D02*
X8009300Y-11036300D01*
X8009300Y-10936300D02*
X7909300Y-11036300D01*
X7959300Y-10936300D02*
X7959300Y-11036300D01*
X7909300Y-10986300D02*
X8009300Y-10986300D01*
D11*
X8374839Y-11077784D02*
X8260553Y-11077784D01*
X8317696Y-11077784D02*
X8317696Y-10877784D01*
X8317696Y-10877784D02*
X8298648Y-10906355D01*
X8298648Y-10906355D02*
X8279601Y-10925403D01*
X8279601Y-10925403D02*
X8260553Y-10934927D01*
X8460553Y-11058736D02*
X8470077Y-11068260D01*
X8470077Y-11068260D02*
X8460553Y-11077784D01*
X8460553Y-11077784D02*
X8451029Y-11068260D01*
X8451029Y-11068260D02*
X8460553Y-11058736D01*
X8460553Y-11058736D02*
X8460553Y-11077784D01*
X8593886Y-10877784D02*
X8612934Y-10877784D01*
X8612934Y-10877784D02*
X8631982Y-10887308D01*
X8631982Y-10887308D02*
X8641505Y-10896831D01*
X8641505Y-10896831D02*
X8651029Y-10915879D01*
X8651029Y-10915879D02*
X8660553Y-10953974D01*
X8660553Y-10953974D02*
X8660553Y-11001593D01*
X8660553Y-11001593D02*
X8651029Y-11039689D01*
X8651029Y-11039689D02*
X8641505Y-11058736D01*
X8641505Y-11058736D02*
X8631982Y-11068260D01*
X8631982Y-11068260D02*
X8612934Y-11077784D01*
X8612934Y-11077784D02*
X8593886Y-11077784D01*
X8593886Y-11077784D02*
X8574839Y-11068260D01*
X8574839Y-11068260D02*
X8565315Y-11058736D01*
X8565315Y-11058736D02*
X8555791Y-11039689D01*
X8555791Y-11039689D02*
X8546267Y-11001593D01*
X8546267Y-11001593D02*
X8546267Y-10953974D01*
X8546267Y-10953974D02*
X8555791Y-10915879D01*
X8555791Y-10915879D02*
X8565315Y-10896831D01*
X8565315Y-10896831D02*
X8574839Y-10887308D01*
X8574839Y-10887308D02*
X8593886Y-10877784D01*
X8784363Y-10877784D02*
X8803410Y-10877784D01*
X8803410Y-10877784D02*
X8822458Y-10887308D01*
X8822458Y-10887308D02*
X8831982Y-10896831D01*
X8831982Y-10896831D02*
X8841505Y-10915879D01*
X8841505Y-10915879D02*
X8851029Y-10953974D01*
X8851029Y-10953974D02*
X8851029Y-11001593D01*
X8851029Y-11001593D02*
X8841505Y-11039689D01*
X8841505Y-11039689D02*
X8831982Y-11058736D01*
X8831982Y-11058736D02*
X8822458Y-11068260D01*
X8822458Y-11068260D02*
X8803410Y-11077784D01*
X8803410Y-11077784D02*
X8784363Y-11077784D01*
X8784363Y-11077784D02*
X8765315Y-11068260D01*
X8765315Y-11068260D02*
X8755791Y-11058736D01*
X8755791Y-11058736D02*
X8746267Y-11039689D01*
X8746267Y-11039689D02*
X8736744Y-11001593D01*
X8736744Y-11001593D02*
X8736744Y-10953974D01*
X8736744Y-10953974D02*
X8746267Y-10915879D01*
X8746267Y-10915879D02*
X8755791Y-10896831D01*
X8755791Y-10896831D02*
X8765315Y-10887308D01*
X8765315Y-10887308D02*
X8784363Y-10877784D01*
X8974839Y-10877784D02*
X8993886Y-10877784D01*
X8993886Y-10877784D02*
X9012934Y-10887308D01*
X9012934Y-10887308D02*
X9022458Y-10896831D01*
X9022458Y-10896831D02*
X9031982Y-10915879D01*
X9031982Y-10915879D02*
X9041505Y-10953974D01*
X9041505Y-10953974D02*
X9041505Y-11001593D01*
X9041505Y-11001593D02*
X9031982Y-11039689D01*
X9031982Y-11039689D02*
X9022458Y-11058736D01*
X9022458Y-11058736D02*
X9012934Y-11068260D01*
X9012934Y-11068260D02*
X8993886Y-11077784D01*
X8993886Y-11077784D02*
X8974839Y-11077784D01*
X8974839Y-11077784D02*
X8955791Y-11068260D01*
X8955791Y-11068260D02*
X8946267Y-11058736D01*
X8946267Y-11058736D02*
X8936744Y-11039689D01*
X8936744Y-11039689D02*
X8927220Y-11001593D01*
X8927220Y-11001593D02*
X8927220Y-10953974D01*
X8927220Y-10953974D02*
X8936744Y-10915879D01*
X8936744Y-10915879D02*
X8946267Y-10896831D01*
X8946267Y-10896831D02*
X8955791Y-10887308D01*
X8955791Y-10887308D02*
X8974839Y-10877784D01*
X9127220Y-11077784D02*
X9127220Y-10944450D01*
X9127220Y-10963498D02*
X9136744Y-10953974D01*
X9136744Y-10953974D02*
X9155791Y-10944450D01*
X9155791Y-10944450D02*
X9184363Y-10944450D01*
X9184363Y-10944450D02*
X9203410Y-10953974D01*
X9203410Y-10953974D02*
X9212934Y-10973022D01*
X9212934Y-10973022D02*
X9212934Y-11077784D01*
X9212934Y-10973022D02*
X9222458Y-10953974D01*
X9222458Y-10953974D02*
X9241505Y-10944450D01*
X9241505Y-10944450D02*
X9270077Y-10944450D01*
X9270077Y-10944450D02*
X9289125Y-10953974D01*
X9289125Y-10953974D02*
X9298648Y-10973022D01*
X9298648Y-10973022D02*
X9298648Y-11077784D01*
X9393886Y-11077784D02*
X9393886Y-10944450D01*
X9393886Y-10963498D02*
X9403410Y-10953974D01*
X9403410Y-10953974D02*
X9422458Y-10944450D01*
X9422458Y-10944450D02*
X9451029Y-10944450D01*
X9451029Y-10944450D02*
X9470077Y-10953974D01*
X9470077Y-10953974D02*
X9479601Y-10973022D01*
X9479601Y-10973022D02*
X9479601Y-11077784D01*
X9479601Y-10973022D02*
X9489125Y-10953974D01*
X9489125Y-10953974D02*
X9508172Y-10944450D01*
X9508172Y-10944450D02*
X9536744Y-10944450D01*
X9536744Y-10944450D02*
X9555791Y-10953974D01*
X9555791Y-10953974D02*
X9565315Y-10973022D01*
X9565315Y-10973022D02*
X9565315Y-11077784D01*
X9955791Y-10868260D02*
X9784363Y-11125403D01*
X10212934Y-10877784D02*
X10231982Y-10877784D01*
X10231982Y-10877784D02*
X10251029Y-10887308D01*
X10251029Y-10887308D02*
X10260553Y-10896831D01*
X10260553Y-10896831D02*
X10270077Y-10915879D01*
X10270077Y-10915879D02*
X10279601Y-10953974D01*
X10279601Y-10953974D02*
X10279601Y-11001593D01*
X10279601Y-11001593D02*
X10270077Y-11039689D01*
X10270077Y-11039689D02*
X10260553Y-11058736D01*
X10260553Y-11058736D02*
X10251029Y-11068260D01*
X10251029Y-11068260D02*
X10231982Y-11077784D01*
X10231982Y-11077784D02*
X10212934Y-11077784D01*
X10212934Y-11077784D02*
X10193887Y-11068260D01*
X10193887Y-11068260D02*
X10184363Y-11058736D01*
X10184363Y-11058736D02*
X10174839Y-11039689D01*
X10174839Y-11039689D02*
X10165315Y-11001593D01*
X10165315Y-11001593D02*
X10165315Y-10953974D01*
X10165315Y-10953974D02*
X10174839Y-10915879D01*
X10174839Y-10915879D02*
X10184363Y-10896831D01*
X10184363Y-10896831D02*
X10193887Y-10887308D01*
X10193887Y-10887308D02*
X10212934Y-10877784D01*
X10365315Y-11058736D02*
X10374839Y-11068260D01*
X10374839Y-11068260D02*
X10365315Y-11077784D01*
X10365315Y-11077784D02*
X10355791Y-11068260D01*
X10355791Y-11068260D02*
X10365315Y-11058736D01*
X10365315Y-11058736D02*
X10365315Y-11077784D01*
X10498648Y-10877784D02*
X10517696Y-10877784D01*
X10517696Y-10877784D02*
X10536744Y-10887308D01*
X10536744Y-10887308D02*
X10546268Y-10896831D01*
X10546268Y-10896831D02*
X10555791Y-10915879D01*
X10555791Y-10915879D02*
X10565315Y-10953974D01*
X10565315Y-10953974D02*
X10565315Y-11001593D01*
X10565315Y-11001593D02*
X10555791Y-11039689D01*
X10555791Y-11039689D02*
X10546268Y-11058736D01*
X10546268Y-11058736D02*
X10536744Y-11068260D01*
X10536744Y-11068260D02*
X10517696Y-11077784D01*
X10517696Y-11077784D02*
X10498648Y-11077784D01*
X10498648Y-11077784D02*
X10479601Y-11068260D01*
X10479601Y-11068260D02*
X10470077Y-11058736D01*
X10470077Y-11058736D02*
X10460553Y-11039689D01*
X10460553Y-11039689D02*
X10451029Y-11001593D01*
X10451029Y-11001593D02*
X10451029Y-10953974D01*
X10451029Y-10953974D02*
X10460553Y-10915879D01*
X10460553Y-10915879D02*
X10470077Y-10896831D01*
X10470077Y-10896831D02*
X10479601Y-10887308D01*
X10479601Y-10887308D02*
X10498648Y-10877784D01*
X10631982Y-10877784D02*
X10755791Y-10877784D01*
X10755791Y-10877784D02*
X10689125Y-10953974D01*
X10689125Y-10953974D02*
X10717696Y-10953974D01*
X10717696Y-10953974D02*
X10736744Y-10963498D01*
X10736744Y-10963498D02*
X10746268Y-10973022D01*
X10746268Y-10973022D02*
X10755791Y-10992070D01*
X10755791Y-10992070D02*
X10755791Y-11039689D01*
X10755791Y-11039689D02*
X10746268Y-11058736D01*
X10746268Y-11058736D02*
X10736744Y-11068260D01*
X10736744Y-11068260D02*
X10717696Y-11077784D01*
X10717696Y-11077784D02*
X10660553Y-11077784D01*
X10660553Y-11077784D02*
X10641506Y-11068260D01*
X10641506Y-11068260D02*
X10631982Y-11058736D01*
X10851029Y-11077784D02*
X10889125Y-11077784D01*
X10889125Y-11077784D02*
X10908172Y-11068260D01*
X10908172Y-11068260D02*
X10917696Y-11058736D01*
X10917696Y-11058736D02*
X10936744Y-11030165D01*
X10936744Y-11030165D02*
X10946268Y-10992070D01*
X10946268Y-10992070D02*
X10946268Y-10915879D01*
X10946268Y-10915879D02*
X10936744Y-10896831D01*
X10936744Y-10896831D02*
X10927220Y-10887308D01*
X10927220Y-10887308D02*
X10908172Y-10877784D01*
X10908172Y-10877784D02*
X10870077Y-10877784D01*
X10870077Y-10877784D02*
X10851029Y-10887308D01*
X10851029Y-10887308D02*
X10841506Y-10896831D01*
X10841506Y-10896831D02*
X10831982Y-10915879D01*
X10831982Y-10915879D02*
X10831982Y-10963498D01*
X10831982Y-10963498D02*
X10841506Y-10982546D01*
X10841506Y-10982546D02*
X10851029Y-10992070D01*
X10851029Y-10992070D02*
X10870077Y-11001593D01*
X10870077Y-11001593D02*
X10908172Y-11001593D01*
X10908172Y-11001593D02*
X10927220Y-10992070D01*
X10927220Y-10992070D02*
X10936744Y-10982546D01*
X10936744Y-10982546D02*
X10946268Y-10963498D01*
X11117696Y-10944450D02*
X11117696Y-11077784D01*
X11070077Y-10868260D02*
X11022458Y-11011117D01*
X11022458Y-11011117D02*
X11146268Y-11011117D01*
X11212934Y-10877784D02*
X11212934Y-10915879D01*
X11289125Y-10877784D02*
X11289125Y-10915879D01*
X11584363Y-11153974D02*
X11574839Y-11144450D01*
X11574839Y-11144450D02*
X11555791Y-11115879D01*
X11555791Y-11115879D02*
X11546268Y-11096831D01*
X11546268Y-11096831D02*
X11536744Y-11068260D01*
X11536744Y-11068260D02*
X11527220Y-11020641D01*
X11527220Y-11020641D02*
X11527220Y-10982546D01*
X11527220Y-10982546D02*
X11536744Y-10934927D01*
X11536744Y-10934927D02*
X11546268Y-10906355D01*
X11546268Y-10906355D02*
X11555791Y-10887308D01*
X11555791Y-10887308D02*
X11574839Y-10858736D01*
X11574839Y-10858736D02*
X11584363Y-10849212D01*
X11765315Y-11077784D02*
X11651029Y-11077784D01*
X11708172Y-11077784D02*
X11708172Y-10877784D01*
X11708172Y-10877784D02*
X11689125Y-10906355D01*
X11689125Y-10906355D02*
X11670077Y-10925403D01*
X11670077Y-10925403D02*
X11651029Y-10934927D01*
X11831982Y-10877784D02*
X11965315Y-10877784D01*
X11965315Y-10877784D02*
X11879601Y-11077784D01*
X12193887Y-11077784D02*
X12193887Y-10877784D01*
X12279601Y-11077784D02*
X12279601Y-10973022D01*
X12279601Y-10973022D02*
X12270077Y-10953974D01*
X12270077Y-10953974D02*
X12251030Y-10944450D01*
X12251030Y-10944450D02*
X12222458Y-10944450D01*
X12222458Y-10944450D02*
X12203410Y-10953974D01*
X12203410Y-10953974D02*
X12193887Y-10963498D01*
X12403410Y-11077784D02*
X12384363Y-11068260D01*
X12384363Y-11068260D02*
X12374839Y-11058736D01*
X12374839Y-11058736D02*
X12365315Y-11039689D01*
X12365315Y-11039689D02*
X12365315Y-10982546D01*
X12365315Y-10982546D02*
X12374839Y-10963498D01*
X12374839Y-10963498D02*
X12384363Y-10953974D01*
X12384363Y-10953974D02*
X12403410Y-10944450D01*
X12403410Y-10944450D02*
X12431982Y-10944450D01*
X12431982Y-10944450D02*
X12451030Y-10953974D01*
X12451030Y-10953974D02*
X12460553Y-10963498D01*
X12460553Y-10963498D02*
X12470077Y-10982546D01*
X12470077Y-10982546D02*
X12470077Y-11039689D01*
X12470077Y-11039689D02*
X12460553Y-11058736D01*
X12460553Y-11058736D02*
X12451030Y-11068260D01*
X12451030Y-11068260D02*
X12431982Y-11077784D01*
X12431982Y-11077784D02*
X12403410Y-11077784D01*
X12584363Y-11077784D02*
X12565315Y-11068260D01*
X12565315Y-11068260D02*
X12555791Y-11049212D01*
X12555791Y-11049212D02*
X12555791Y-10877784D01*
X12736744Y-11068260D02*
X12717696Y-11077784D01*
X12717696Y-11077784D02*
X12679601Y-11077784D01*
X12679601Y-11077784D02*
X12660553Y-11068260D01*
X12660553Y-11068260D02*
X12651030Y-11049212D01*
X12651030Y-11049212D02*
X12651030Y-10973022D01*
X12651030Y-10973022D02*
X12660553Y-10953974D01*
X12660553Y-10953974D02*
X12679601Y-10944450D01*
X12679601Y-10944450D02*
X12717696Y-10944450D01*
X12717696Y-10944450D02*
X12736744Y-10953974D01*
X12736744Y-10953974D02*
X12746268Y-10973022D01*
X12746268Y-10973022D02*
X12746268Y-10992070D01*
X12746268Y-10992070D02*
X12651030Y-11011117D01*
X12822458Y-11068260D02*
X12841506Y-11077784D01*
X12841506Y-11077784D02*
X12879601Y-11077784D01*
X12879601Y-11077784D02*
X12898649Y-11068260D01*
X12898649Y-11068260D02*
X12908172Y-11049212D01*
X12908172Y-11049212D02*
X12908172Y-11039689D01*
X12908172Y-11039689D02*
X12898649Y-11020641D01*
X12898649Y-11020641D02*
X12879601Y-11011117D01*
X12879601Y-11011117D02*
X12851030Y-11011117D01*
X12851030Y-11011117D02*
X12831982Y-11001593D01*
X12831982Y-11001593D02*
X12822458Y-10982546D01*
X12822458Y-10982546D02*
X12822458Y-10973022D01*
X12822458Y-10973022D02*
X12831982Y-10953974D01*
X12831982Y-10953974D02*
X12851030Y-10944450D01*
X12851030Y-10944450D02*
X12879601Y-10944450D01*
X12879601Y-10944450D02*
X12898649Y-10953974D01*
X12974839Y-11153974D02*
X12984363Y-11144450D01*
X12984363Y-11144450D02*
X13003411Y-11115879D01*
X13003411Y-11115879D02*
X13012934Y-11096831D01*
X13012934Y-11096831D02*
X13022458Y-11068260D01*
X13022458Y-11068260D02*
X13031982Y-11020641D01*
X13031982Y-11020641D02*
X13031982Y-10982546D01*
X13031982Y-10982546D02*
X13022458Y-10934927D01*
X13022458Y-10934927D02*
X13012934Y-10906355D01*
X13012934Y-10906355D02*
X13003411Y-10887308D01*
X13003411Y-10887308D02*
X12984363Y-10858736D01*
X12984363Y-10858736D02*
X12974839Y-10849212D01*
D13*
X7907300Y-11199300D02*
X8009300Y-11301300D01*
X8009300Y-11199300D02*
X7907300Y-11301300D01*
X7994363Y-11286363D02*
X7994363Y-11214237D01*
X7922237Y-11214237D01*
X7922237Y-11286363D01*
X7994363Y-11286363D01*
D11*
X8374839Y-11341784D02*
X8260553Y-11341784D01*
X8317696Y-11341784D02*
X8317696Y-11141784D01*
X8317696Y-11141784D02*
X8298648Y-11170355D01*
X8298648Y-11170355D02*
X8279601Y-11189403D01*
X8279601Y-11189403D02*
X8260553Y-11198927D01*
X8460553Y-11322736D02*
X8470077Y-11332260D01*
X8470077Y-11332260D02*
X8460553Y-11341784D01*
X8460553Y-11341784D02*
X8451029Y-11332260D01*
X8451029Y-11332260D02*
X8460553Y-11322736D01*
X8460553Y-11322736D02*
X8460553Y-11341784D01*
X8593886Y-11141784D02*
X8612934Y-11141784D01*
X8612934Y-11141784D02*
X8631982Y-11151308D01*
X8631982Y-11151308D02*
X8641505Y-11160831D01*
X8641505Y-11160831D02*
X8651029Y-11179879D01*
X8651029Y-11179879D02*
X8660553Y-11217974D01*
X8660553Y-11217974D02*
X8660553Y-11265593D01*
X8660553Y-11265593D02*
X8651029Y-11303688D01*
X8651029Y-11303688D02*
X8641505Y-11322736D01*
X8641505Y-11322736D02*
X8631982Y-11332260D01*
X8631982Y-11332260D02*
X8612934Y-11341784D01*
X8612934Y-11341784D02*
X8593886Y-11341784D01*
X8593886Y-11341784D02*
X8574839Y-11332260D01*
X8574839Y-11332260D02*
X8565315Y-11322736D01*
X8565315Y-11322736D02*
X8555791Y-11303688D01*
X8555791Y-11303688D02*
X8546267Y-11265593D01*
X8546267Y-11265593D02*
X8546267Y-11217974D01*
X8546267Y-11217974D02*
X8555791Y-11179879D01*
X8555791Y-11179879D02*
X8565315Y-11160831D01*
X8565315Y-11160831D02*
X8574839Y-11151308D01*
X8574839Y-11151308D02*
X8593886Y-11141784D01*
X8736744Y-11160831D02*
X8746267Y-11151308D01*
X8746267Y-11151308D02*
X8765315Y-11141784D01*
X8765315Y-11141784D02*
X8812934Y-11141784D01*
X8812934Y-11141784D02*
X8831982Y-11151308D01*
X8831982Y-11151308D02*
X8841505Y-11160831D01*
X8841505Y-11160831D02*
X8851029Y-11179879D01*
X8851029Y-11179879D02*
X8851029Y-11198927D01*
X8851029Y-11198927D02*
X8841505Y-11227498D01*
X8841505Y-11227498D02*
X8727220Y-11341784D01*
X8727220Y-11341784D02*
X8851029Y-11341784D01*
X8974839Y-11141784D02*
X8993886Y-11141784D01*
X8993886Y-11141784D02*
X9012934Y-11151308D01*
X9012934Y-11151308D02*
X9022458Y-11160831D01*
X9022458Y-11160831D02*
X9031982Y-11179879D01*
X9031982Y-11179879D02*
X9041505Y-11217974D01*
X9041505Y-11217974D02*
X9041505Y-11265593D01*
X9041505Y-11265593D02*
X9031982Y-11303688D01*
X9031982Y-11303688D02*
X9022458Y-11322736D01*
X9022458Y-11322736D02*
X9012934Y-11332260D01*
X9012934Y-11332260D02*
X8993886Y-11341784D01*
X8993886Y-11341784D02*
X8974839Y-11341784D01*
X8974839Y-11341784D02*
X8955791Y-11332260D01*
X8955791Y-11332260D02*
X8946267Y-11322736D01*
X8946267Y-11322736D02*
X8936744Y-11303688D01*
X8936744Y-11303688D02*
X8927220Y-11265593D01*
X8927220Y-11265593D02*
X8927220Y-11217974D01*
X8927220Y-11217974D02*
X8936744Y-11179879D01*
X8936744Y-11179879D02*
X8946267Y-11160831D01*
X8946267Y-11160831D02*
X8955791Y-11151308D01*
X8955791Y-11151308D02*
X8974839Y-11141784D01*
X9127220Y-11341784D02*
X9127220Y-11208450D01*
X9127220Y-11227498D02*
X9136744Y-11217974D01*
X9136744Y-11217974D02*
X9155791Y-11208450D01*
X9155791Y-11208450D02*
X9184363Y-11208450D01*
X9184363Y-11208450D02*
X9203410Y-11217974D01*
X9203410Y-11217974D02*
X9212934Y-11237022D01*
X9212934Y-11237022D02*
X9212934Y-11341784D01*
X9212934Y-11237022D02*
X9222458Y-11217974D01*
X9222458Y-11217974D02*
X9241505Y-11208450D01*
X9241505Y-11208450D02*
X9270077Y-11208450D01*
X9270077Y-11208450D02*
X9289125Y-11217974D01*
X9289125Y-11217974D02*
X9298648Y-11237022D01*
X9298648Y-11237022D02*
X9298648Y-11341784D01*
X9393886Y-11341784D02*
X9393886Y-11208450D01*
X9393886Y-11227498D02*
X9403410Y-11217974D01*
X9403410Y-11217974D02*
X9422458Y-11208450D01*
X9422458Y-11208450D02*
X9451029Y-11208450D01*
X9451029Y-11208450D02*
X9470077Y-11217974D01*
X9470077Y-11217974D02*
X9479601Y-11237022D01*
X9479601Y-11237022D02*
X9479601Y-11341784D01*
X9479601Y-11237022D02*
X9489125Y-11217974D01*
X9489125Y-11217974D02*
X9508172Y-11208450D01*
X9508172Y-11208450D02*
X9536744Y-11208450D01*
X9536744Y-11208450D02*
X9555791Y-11217974D01*
X9555791Y-11217974D02*
X9565315Y-11237022D01*
X9565315Y-11237022D02*
X9565315Y-11341784D01*
X9955791Y-11132260D02*
X9784363Y-11389403D01*
X10212934Y-11141784D02*
X10231982Y-11141784D01*
X10231982Y-11141784D02*
X10251029Y-11151308D01*
X10251029Y-11151308D02*
X10260553Y-11160831D01*
X10260553Y-11160831D02*
X10270077Y-11179879D01*
X10270077Y-11179879D02*
X10279601Y-11217974D01*
X10279601Y-11217974D02*
X10279601Y-11265593D01*
X10279601Y-11265593D02*
X10270077Y-11303688D01*
X10270077Y-11303688D02*
X10260553Y-11322736D01*
X10260553Y-11322736D02*
X10251029Y-11332260D01*
X10251029Y-11332260D02*
X10231982Y-11341784D01*
X10231982Y-11341784D02*
X10212934Y-11341784D01*
X10212934Y-11341784D02*
X10193887Y-11332260D01*
X10193887Y-11332260D02*
X10184363Y-11322736D01*
X10184363Y-11322736D02*
X10174839Y-11303688D01*
X10174839Y-11303688D02*
X10165315Y-11265593D01*
X10165315Y-11265593D02*
X10165315Y-11217974D01*
X10165315Y-11217974D02*
X10174839Y-11179879D01*
X10174839Y-11179879D02*
X10184363Y-11160831D01*
X10184363Y-11160831D02*
X10193887Y-11151308D01*
X10193887Y-11151308D02*
X10212934Y-11141784D01*
X10365315Y-11322736D02*
X10374839Y-11332260D01*
X10374839Y-11332260D02*
X10365315Y-11341784D01*
X10365315Y-11341784D02*
X10355791Y-11332260D01*
X10355791Y-11332260D02*
X10365315Y-11322736D01*
X10365315Y-11322736D02*
X10365315Y-11341784D01*
X10498648Y-11141784D02*
X10517696Y-11141784D01*
X10517696Y-11141784D02*
X10536744Y-11151308D01*
X10536744Y-11151308D02*
X10546268Y-11160831D01*
X10546268Y-11160831D02*
X10555791Y-11179879D01*
X10555791Y-11179879D02*
X10565315Y-11217974D01*
X10565315Y-11217974D02*
X10565315Y-11265593D01*
X10565315Y-11265593D02*
X10555791Y-11303688D01*
X10555791Y-11303688D02*
X10546268Y-11322736D01*
X10546268Y-11322736D02*
X10536744Y-11332260D01*
X10536744Y-11332260D02*
X10517696Y-11341784D01*
X10517696Y-11341784D02*
X10498648Y-11341784D01*
X10498648Y-11341784D02*
X10479601Y-11332260D01*
X10479601Y-11332260D02*
X10470077Y-11322736D01*
X10470077Y-11322736D02*
X10460553Y-11303688D01*
X10460553Y-11303688D02*
X10451029Y-11265593D01*
X10451029Y-11265593D02*
X10451029Y-11217974D01*
X10451029Y-11217974D02*
X10460553Y-11179879D01*
X10460553Y-11179879D02*
X10470077Y-11160831D01*
X10470077Y-11160831D02*
X10479601Y-11151308D01*
X10479601Y-11151308D02*
X10498648Y-11141784D01*
X10736744Y-11208450D02*
X10736744Y-11341784D01*
X10689125Y-11132260D02*
X10641506Y-11275117D01*
X10641506Y-11275117D02*
X10765315Y-11275117D01*
X10879601Y-11141784D02*
X10898649Y-11141784D01*
X10898649Y-11141784D02*
X10917696Y-11151308D01*
X10917696Y-11151308D02*
X10927220Y-11160831D01*
X10927220Y-11160831D02*
X10936744Y-11179879D01*
X10936744Y-11179879D02*
X10946268Y-11217974D01*
X10946268Y-11217974D02*
X10946268Y-11265593D01*
X10946268Y-11265593D02*
X10936744Y-11303688D01*
X10936744Y-11303688D02*
X10927220Y-11322736D01*
X10927220Y-11322736D02*
X10917696Y-11332260D01*
X10917696Y-11332260D02*
X10898649Y-11341784D01*
X10898649Y-11341784D02*
X10879601Y-11341784D01*
X10879601Y-11341784D02*
X10860553Y-11332260D01*
X10860553Y-11332260D02*
X10851029Y-11322736D01*
X10851029Y-11322736D02*
X10841506Y-11303688D01*
X10841506Y-11303688D02*
X10831982Y-11265593D01*
X10831982Y-11265593D02*
X10831982Y-11217974D01*
X10831982Y-11217974D02*
X10841506Y-11179879D01*
X10841506Y-11179879D02*
X10851029Y-11160831D01*
X10851029Y-11160831D02*
X10860553Y-11151308D01*
X10860553Y-11151308D02*
X10879601Y-11141784D01*
X11022458Y-11160831D02*
X11031982Y-11151308D01*
X11031982Y-11151308D02*
X11051029Y-11141784D01*
X11051029Y-11141784D02*
X11098649Y-11141784D01*
X11098649Y-11141784D02*
X11117696Y-11151308D01*
X11117696Y-11151308D02*
X11127220Y-11160831D01*
X11127220Y-11160831D02*
X11136744Y-11179879D01*
X11136744Y-11179879D02*
X11136744Y-11198927D01*
X11136744Y-11198927D02*
X11127220Y-11227498D01*
X11127220Y-11227498D02*
X11012934Y-11341784D01*
X11012934Y-11341784D02*
X11136744Y-11341784D01*
X11212934Y-11141784D02*
X11212934Y-11179879D01*
X11289125Y-11141784D02*
X11289125Y-11179879D01*
X11584363Y-11417974D02*
X11574839Y-11408450D01*
X11574839Y-11408450D02*
X11555791Y-11379879D01*
X11555791Y-11379879D02*
X11546268Y-11360831D01*
X11546268Y-11360831D02*
X11536744Y-11332260D01*
X11536744Y-11332260D02*
X11527220Y-11284641D01*
X11527220Y-11284641D02*
X11527220Y-11246546D01*
X11527220Y-11246546D02*
X11536744Y-11198927D01*
X11536744Y-11198927D02*
X11546268Y-11170355D01*
X11546268Y-11170355D02*
X11555791Y-11151308D01*
X11555791Y-11151308D02*
X11574839Y-11122736D01*
X11574839Y-11122736D02*
X11584363Y-11113212D01*
X11746268Y-11208450D02*
X11746268Y-11341784D01*
X11698648Y-11132260D02*
X11651029Y-11275117D01*
X11651029Y-11275117D02*
X11774839Y-11275117D01*
X11889125Y-11141784D02*
X11908172Y-11141784D01*
X11908172Y-11141784D02*
X11927220Y-11151308D01*
X11927220Y-11151308D02*
X11936744Y-11160831D01*
X11936744Y-11160831D02*
X11946268Y-11179879D01*
X11946268Y-11179879D02*
X11955791Y-11217974D01*
X11955791Y-11217974D02*
X11955791Y-11265593D01*
X11955791Y-11265593D02*
X11946268Y-11303688D01*
X11946268Y-11303688D02*
X11936744Y-11322736D01*
X11936744Y-11322736D02*
X11927220Y-11332260D01*
X11927220Y-11332260D02*
X11908172Y-11341784D01*
X11908172Y-11341784D02*
X11889125Y-11341784D01*
X11889125Y-11341784D02*
X11870077Y-11332260D01*
X11870077Y-11332260D02*
X11860553Y-11322736D01*
X11860553Y-11322736D02*
X11851029Y-11303688D01*
X11851029Y-11303688D02*
X11841506Y-11265593D01*
X11841506Y-11265593D02*
X11841506Y-11217974D01*
X11841506Y-11217974D02*
X11851029Y-11179879D01*
X11851029Y-11179879D02*
X11860553Y-11160831D01*
X11860553Y-11160831D02*
X11870077Y-11151308D01*
X11870077Y-11151308D02*
X11889125Y-11141784D01*
X12193887Y-11341784D02*
X12193887Y-11141784D01*
X12279601Y-11341784D02*
X12279601Y-11237022D01*
X12279601Y-11237022D02*
X12270077Y-11217974D01*
X12270077Y-11217974D02*
X12251030Y-11208450D01*
X12251030Y-11208450D02*
X12222458Y-11208450D01*
X12222458Y-11208450D02*
X12203410Y-11217974D01*
X12203410Y-11217974D02*
X12193887Y-11227498D01*
X12403410Y-11341784D02*
X12384363Y-11332260D01*
X12384363Y-11332260D02*
X12374839Y-11322736D01*
X12374839Y-11322736D02*
X12365315Y-11303688D01*
X12365315Y-11303688D02*
X12365315Y-11246546D01*
X12365315Y-11246546D02*
X12374839Y-11227498D01*
X12374839Y-11227498D02*
X12384363Y-11217974D01*
X12384363Y-11217974D02*
X12403410Y-11208450D01*
X12403410Y-11208450D02*
X12431982Y-11208450D01*
X12431982Y-11208450D02*
X12451030Y-11217974D01*
X12451030Y-11217974D02*
X12460553Y-11227498D01*
X12460553Y-11227498D02*
X12470077Y-11246546D01*
X12470077Y-11246546D02*
X12470077Y-11303688D01*
X12470077Y-11303688D02*
X12460553Y-11322736D01*
X12460553Y-11322736D02*
X12451030Y-11332260D01*
X12451030Y-11332260D02*
X12431982Y-11341784D01*
X12431982Y-11341784D02*
X12403410Y-11341784D01*
X12584363Y-11341784D02*
X12565315Y-11332260D01*
X12565315Y-11332260D02*
X12555791Y-11313212D01*
X12555791Y-11313212D02*
X12555791Y-11141784D01*
X12736744Y-11332260D02*
X12717696Y-11341784D01*
X12717696Y-11341784D02*
X12679601Y-11341784D01*
X12679601Y-11341784D02*
X12660553Y-11332260D01*
X12660553Y-11332260D02*
X12651030Y-11313212D01*
X12651030Y-11313212D02*
X12651030Y-11237022D01*
X12651030Y-11237022D02*
X12660553Y-11217974D01*
X12660553Y-11217974D02*
X12679601Y-11208450D01*
X12679601Y-11208450D02*
X12717696Y-11208450D01*
X12717696Y-11208450D02*
X12736744Y-11217974D01*
X12736744Y-11217974D02*
X12746268Y-11237022D01*
X12746268Y-11237022D02*
X12746268Y-11256069D01*
X12746268Y-11256069D02*
X12651030Y-11275117D01*
X12822458Y-11332260D02*
X12841506Y-11341784D01*
X12841506Y-11341784D02*
X12879601Y-11341784D01*
X12879601Y-11341784D02*
X12898649Y-11332260D01*
X12898649Y-11332260D02*
X12908172Y-11313212D01*
X12908172Y-11313212D02*
X12908172Y-11303688D01*
X12908172Y-11303688D02*
X12898649Y-11284641D01*
X12898649Y-11284641D02*
X12879601Y-11275117D01*
X12879601Y-11275117D02*
X12851030Y-11275117D01*
X12851030Y-11275117D02*
X12831982Y-11265593D01*
X12831982Y-11265593D02*
X12822458Y-11246546D01*
X12822458Y-11246546D02*
X12822458Y-11237022D01*
X12822458Y-11237022D02*
X12831982Y-11217974D01*
X12831982Y-11217974D02*
X12851030Y-11208450D01*
X12851030Y-11208450D02*
X12879601Y-11208450D01*
X12879601Y-11208450D02*
X12898649Y-11217974D01*
X12974839Y-11417974D02*
X12984363Y-11408450D01*
X12984363Y-11408450D02*
X13003411Y-11379879D01*
X13003411Y-11379879D02*
X13012934Y-11360831D01*
X13012934Y-11360831D02*
X13022458Y-11332260D01*
X13022458Y-11332260D02*
X13031982Y-11284641D01*
X13031982Y-11284641D02*
X13031982Y-11246546D01*
X13031982Y-11246546D02*
X13022458Y-11198927D01*
X13022458Y-11198927D02*
X13012934Y-11170355D01*
X13012934Y-11170355D02*
X13003411Y-11151308D01*
X13003411Y-11151308D02*
X12984363Y-11122736D01*
X12984363Y-11122736D02*
X12974839Y-11113212D01*
D14*
X7857300Y-11438300D02*
X8009300Y-11590300D01*
X8009300Y-11438300D02*
X7857300Y-11590300D01*
X7933300Y-11590300D02*
X8009300Y-11514300D01*
X7933300Y-11438300D01*
X7857300Y-11514300D01*
X7933300Y-11590300D01*
D11*
X8374839Y-11605784D02*
X8260553Y-11605784D01*
X8317696Y-11605784D02*
X8317696Y-11405784D01*
X8317696Y-11405784D02*
X8298648Y-11434355D01*
X8298648Y-11434355D02*
X8279601Y-11453403D01*
X8279601Y-11453403D02*
X8260553Y-11462927D01*
X8460553Y-11586736D02*
X8470077Y-11596260D01*
X8470077Y-11596260D02*
X8460553Y-11605784D01*
X8460553Y-11605784D02*
X8451029Y-11596260D01*
X8451029Y-11596260D02*
X8460553Y-11586736D01*
X8460553Y-11586736D02*
X8460553Y-11605784D01*
X8651029Y-11405784D02*
X8555791Y-11405784D01*
X8555791Y-11405784D02*
X8546267Y-11501022D01*
X8546267Y-11501022D02*
X8555791Y-11491498D01*
X8555791Y-11491498D02*
X8574839Y-11481974D01*
X8574839Y-11481974D02*
X8622458Y-11481974D01*
X8622458Y-11481974D02*
X8641505Y-11491498D01*
X8641505Y-11491498D02*
X8651029Y-11501022D01*
X8651029Y-11501022D02*
X8660553Y-11520069D01*
X8660553Y-11520069D02*
X8660553Y-11567688D01*
X8660553Y-11567688D02*
X8651029Y-11586736D01*
X8651029Y-11586736D02*
X8641505Y-11596260D01*
X8641505Y-11596260D02*
X8622458Y-11605784D01*
X8622458Y-11605784D02*
X8574839Y-11605784D01*
X8574839Y-11605784D02*
X8555791Y-11596260D01*
X8555791Y-11596260D02*
X8546267Y-11586736D01*
X8736744Y-11424831D02*
X8746267Y-11415308D01*
X8746267Y-11415308D02*
X8765315Y-11405784D01*
X8765315Y-11405784D02*
X8812934Y-11405784D01*
X8812934Y-11405784D02*
X8831982Y-11415308D01*
X8831982Y-11415308D02*
X8841505Y-11424831D01*
X8841505Y-11424831D02*
X8851029Y-11443879D01*
X8851029Y-11443879D02*
X8851029Y-11462927D01*
X8851029Y-11462927D02*
X8841505Y-11491498D01*
X8841505Y-11491498D02*
X8727220Y-11605784D01*
X8727220Y-11605784D02*
X8851029Y-11605784D01*
X8974839Y-11405784D02*
X8993886Y-11405784D01*
X8993886Y-11405784D02*
X9012934Y-11415308D01*
X9012934Y-11415308D02*
X9022458Y-11424831D01*
X9022458Y-11424831D02*
X9031982Y-11443879D01*
X9031982Y-11443879D02*
X9041505Y-11481974D01*
X9041505Y-11481974D02*
X9041505Y-11529593D01*
X9041505Y-11529593D02*
X9031982Y-11567688D01*
X9031982Y-11567688D02*
X9022458Y-11586736D01*
X9022458Y-11586736D02*
X9012934Y-11596260D01*
X9012934Y-11596260D02*
X8993886Y-11605784D01*
X8993886Y-11605784D02*
X8974839Y-11605784D01*
X8974839Y-11605784D02*
X8955791Y-11596260D01*
X8955791Y-11596260D02*
X8946267Y-11586736D01*
X8946267Y-11586736D02*
X8936744Y-11567688D01*
X8936744Y-11567688D02*
X8927220Y-11529593D01*
X8927220Y-11529593D02*
X8927220Y-11481974D01*
X8927220Y-11481974D02*
X8936744Y-11443879D01*
X8936744Y-11443879D02*
X8946267Y-11424831D01*
X8946267Y-11424831D02*
X8955791Y-11415308D01*
X8955791Y-11415308D02*
X8974839Y-11405784D01*
X9127220Y-11605784D02*
X9127220Y-11472450D01*
X9127220Y-11491498D02*
X9136744Y-11481974D01*
X9136744Y-11481974D02*
X9155791Y-11472450D01*
X9155791Y-11472450D02*
X9184363Y-11472450D01*
X9184363Y-11472450D02*
X9203410Y-11481974D01*
X9203410Y-11481974D02*
X9212934Y-11501022D01*
X9212934Y-11501022D02*
X9212934Y-11605784D01*
X9212934Y-11501022D02*
X9222458Y-11481974D01*
X9222458Y-11481974D02*
X9241505Y-11472450D01*
X9241505Y-11472450D02*
X9270077Y-11472450D01*
X9270077Y-11472450D02*
X9289125Y-11481974D01*
X9289125Y-11481974D02*
X9298648Y-11501022D01*
X9298648Y-11501022D02*
X9298648Y-11605784D01*
X9393886Y-11605784D02*
X9393886Y-11472450D01*
X9393886Y-11491498D02*
X9403410Y-11481974D01*
X9403410Y-11481974D02*
X9422458Y-11472450D01*
X9422458Y-11472450D02*
X9451029Y-11472450D01*
X9451029Y-11472450D02*
X9470077Y-11481974D01*
X9470077Y-11481974D02*
X9479601Y-11501022D01*
X9479601Y-11501022D02*
X9479601Y-11605784D01*
X9479601Y-11501022D02*
X9489125Y-11481974D01*
X9489125Y-11481974D02*
X9508172Y-11472450D01*
X9508172Y-11472450D02*
X9536744Y-11472450D01*
X9536744Y-11472450D02*
X9555791Y-11481974D01*
X9555791Y-11481974D02*
X9565315Y-11501022D01*
X9565315Y-11501022D02*
X9565315Y-11605784D01*
X9955791Y-11396260D02*
X9784363Y-11653403D01*
X10212934Y-11405784D02*
X10231982Y-11405784D01*
X10231982Y-11405784D02*
X10251029Y-11415308D01*
X10251029Y-11415308D02*
X10260553Y-11424831D01*
X10260553Y-11424831D02*
X10270077Y-11443879D01*
X10270077Y-11443879D02*
X10279601Y-11481974D01*
X10279601Y-11481974D02*
X10279601Y-11529593D01*
X10279601Y-11529593D02*
X10270077Y-11567688D01*
X10270077Y-11567688D02*
X10260553Y-11586736D01*
X10260553Y-11586736D02*
X10251029Y-11596260D01*
X10251029Y-11596260D02*
X10231982Y-11605784D01*
X10231982Y-11605784D02*
X10212934Y-11605784D01*
X10212934Y-11605784D02*
X10193887Y-11596260D01*
X10193887Y-11596260D02*
X10184363Y-11586736D01*
X10184363Y-11586736D02*
X10174839Y-11567688D01*
X10174839Y-11567688D02*
X10165315Y-11529593D01*
X10165315Y-11529593D02*
X10165315Y-11481974D01*
X10165315Y-11481974D02*
X10174839Y-11443879D01*
X10174839Y-11443879D02*
X10184363Y-11424831D01*
X10184363Y-11424831D02*
X10193887Y-11415308D01*
X10193887Y-11415308D02*
X10212934Y-11405784D01*
X10365315Y-11586736D02*
X10374839Y-11596260D01*
X10374839Y-11596260D02*
X10365315Y-11605784D01*
X10365315Y-11605784D02*
X10355791Y-11596260D01*
X10355791Y-11596260D02*
X10365315Y-11586736D01*
X10365315Y-11586736D02*
X10365315Y-11605784D01*
X10498648Y-11405784D02*
X10517696Y-11405784D01*
X10517696Y-11405784D02*
X10536744Y-11415308D01*
X10536744Y-11415308D02*
X10546268Y-11424831D01*
X10546268Y-11424831D02*
X10555791Y-11443879D01*
X10555791Y-11443879D02*
X10565315Y-11481974D01*
X10565315Y-11481974D02*
X10565315Y-11529593D01*
X10565315Y-11529593D02*
X10555791Y-11567688D01*
X10555791Y-11567688D02*
X10546268Y-11586736D01*
X10546268Y-11586736D02*
X10536744Y-11596260D01*
X10536744Y-11596260D02*
X10517696Y-11605784D01*
X10517696Y-11605784D02*
X10498648Y-11605784D01*
X10498648Y-11605784D02*
X10479601Y-11596260D01*
X10479601Y-11596260D02*
X10470077Y-11586736D01*
X10470077Y-11586736D02*
X10460553Y-11567688D01*
X10460553Y-11567688D02*
X10451029Y-11529593D01*
X10451029Y-11529593D02*
X10451029Y-11481974D01*
X10451029Y-11481974D02*
X10460553Y-11443879D01*
X10460553Y-11443879D02*
X10470077Y-11424831D01*
X10470077Y-11424831D02*
X10479601Y-11415308D01*
X10479601Y-11415308D02*
X10498648Y-11405784D01*
X10746268Y-11405784D02*
X10651029Y-11405784D01*
X10651029Y-11405784D02*
X10641506Y-11501022D01*
X10641506Y-11501022D02*
X10651029Y-11491498D01*
X10651029Y-11491498D02*
X10670077Y-11481974D01*
X10670077Y-11481974D02*
X10717696Y-11481974D01*
X10717696Y-11481974D02*
X10736744Y-11491498D01*
X10736744Y-11491498D02*
X10746268Y-11501022D01*
X10746268Y-11501022D02*
X10755791Y-11520069D01*
X10755791Y-11520069D02*
X10755791Y-11567688D01*
X10755791Y-11567688D02*
X10746268Y-11586736D01*
X10746268Y-11586736D02*
X10736744Y-11596260D01*
X10736744Y-11596260D02*
X10717696Y-11605784D01*
X10717696Y-11605784D02*
X10670077Y-11605784D01*
X10670077Y-11605784D02*
X10651029Y-11596260D01*
X10651029Y-11596260D02*
X10641506Y-11586736D01*
X10851029Y-11605784D02*
X10889125Y-11605784D01*
X10889125Y-11605784D02*
X10908172Y-11596260D01*
X10908172Y-11596260D02*
X10917696Y-11586736D01*
X10917696Y-11586736D02*
X10936744Y-11558165D01*
X10936744Y-11558165D02*
X10946268Y-11520069D01*
X10946268Y-11520069D02*
X10946268Y-11443879D01*
X10946268Y-11443879D02*
X10936744Y-11424831D01*
X10936744Y-11424831D02*
X10927220Y-11415308D01*
X10927220Y-11415308D02*
X10908172Y-11405784D01*
X10908172Y-11405784D02*
X10870077Y-11405784D01*
X10870077Y-11405784D02*
X10851029Y-11415308D01*
X10851029Y-11415308D02*
X10841506Y-11424831D01*
X10841506Y-11424831D02*
X10831982Y-11443879D01*
X10831982Y-11443879D02*
X10831982Y-11491498D01*
X10831982Y-11491498D02*
X10841506Y-11510546D01*
X10841506Y-11510546D02*
X10851029Y-11520069D01*
X10851029Y-11520069D02*
X10870077Y-11529593D01*
X10870077Y-11529593D02*
X10908172Y-11529593D01*
X10908172Y-11529593D02*
X10927220Y-11520069D01*
X10927220Y-11520069D02*
X10936744Y-11510546D01*
X10936744Y-11510546D02*
X10946268Y-11491498D01*
X11060553Y-11491498D02*
X11041506Y-11481974D01*
X11041506Y-11481974D02*
X11031982Y-11472450D01*
X11031982Y-11472450D02*
X11022458Y-11453403D01*
X11022458Y-11453403D02*
X11022458Y-11443879D01*
X11022458Y-11443879D02*
X11031982Y-11424831D01*
X11031982Y-11424831D02*
X11041506Y-11415308D01*
X11041506Y-11415308D02*
X11060553Y-11405784D01*
X11060553Y-11405784D02*
X11098649Y-11405784D01*
X11098649Y-11405784D02*
X11117696Y-11415308D01*
X11117696Y-11415308D02*
X11127220Y-11424831D01*
X11127220Y-11424831D02*
X11136744Y-11443879D01*
X11136744Y-11443879D02*
X11136744Y-11453403D01*
X11136744Y-11453403D02*
X11127220Y-11472450D01*
X11127220Y-11472450D02*
X11117696Y-11481974D01*
X11117696Y-11481974D02*
X11098649Y-11491498D01*
X11098649Y-11491498D02*
X11060553Y-11491498D01*
X11060553Y-11491498D02*
X11041506Y-11501022D01*
X11041506Y-11501022D02*
X11031982Y-11510546D01*
X11031982Y-11510546D02*
X11022458Y-11529593D01*
X11022458Y-11529593D02*
X11022458Y-11567688D01*
X11022458Y-11567688D02*
X11031982Y-11586736D01*
X11031982Y-11586736D02*
X11041506Y-11596260D01*
X11041506Y-11596260D02*
X11060553Y-11605784D01*
X11060553Y-11605784D02*
X11098649Y-11605784D01*
X11098649Y-11605784D02*
X11117696Y-11596260D01*
X11117696Y-11596260D02*
X11127220Y-11586736D01*
X11127220Y-11586736D02*
X11136744Y-11567688D01*
X11136744Y-11567688D02*
X11136744Y-11529593D01*
X11136744Y-11529593D02*
X11127220Y-11510546D01*
X11127220Y-11510546D02*
X11117696Y-11501022D01*
X11117696Y-11501022D02*
X11098649Y-11491498D01*
X11212934Y-11405784D02*
X11212934Y-11443879D01*
X11289125Y-11405784D02*
X11289125Y-11443879D01*
X11584363Y-11681974D02*
X11574839Y-11672450D01*
X11574839Y-11672450D02*
X11555791Y-11643879D01*
X11555791Y-11643879D02*
X11546268Y-11624831D01*
X11546268Y-11624831D02*
X11536744Y-11596260D01*
X11536744Y-11596260D02*
X11527220Y-11548641D01*
X11527220Y-11548641D02*
X11527220Y-11510546D01*
X11527220Y-11510546D02*
X11536744Y-11462927D01*
X11536744Y-11462927D02*
X11546268Y-11434355D01*
X11546268Y-11434355D02*
X11555791Y-11415308D01*
X11555791Y-11415308D02*
X11574839Y-11386736D01*
X11574839Y-11386736D02*
X11584363Y-11377212D01*
X11651029Y-11424831D02*
X11660553Y-11415308D01*
X11660553Y-11415308D02*
X11679601Y-11405784D01*
X11679601Y-11405784D02*
X11727220Y-11405784D01*
X11727220Y-11405784D02*
X11746268Y-11415308D01*
X11746268Y-11415308D02*
X11755791Y-11424831D01*
X11755791Y-11424831D02*
X11765315Y-11443879D01*
X11765315Y-11443879D02*
X11765315Y-11462927D01*
X11765315Y-11462927D02*
X11755791Y-11491498D01*
X11755791Y-11491498D02*
X11641506Y-11605784D01*
X11641506Y-11605784D02*
X11765315Y-11605784D01*
X12003410Y-11605784D02*
X12003410Y-11405784D01*
X12089125Y-11605784D02*
X12089125Y-11501022D01*
X12089125Y-11501022D02*
X12079601Y-11481974D01*
X12079601Y-11481974D02*
X12060553Y-11472450D01*
X12060553Y-11472450D02*
X12031982Y-11472450D01*
X12031982Y-11472450D02*
X12012934Y-11481974D01*
X12012934Y-11481974D02*
X12003410Y-11491498D01*
X12212934Y-11605784D02*
X12193887Y-11596260D01*
X12193887Y-11596260D02*
X12184363Y-11586736D01*
X12184363Y-11586736D02*
X12174839Y-11567688D01*
X12174839Y-11567688D02*
X12174839Y-11510546D01*
X12174839Y-11510546D02*
X12184363Y-11491498D01*
X12184363Y-11491498D02*
X12193887Y-11481974D01*
X12193887Y-11481974D02*
X12212934Y-11472450D01*
X12212934Y-11472450D02*
X12241506Y-11472450D01*
X12241506Y-11472450D02*
X12260553Y-11481974D01*
X12260553Y-11481974D02*
X12270077Y-11491498D01*
X12270077Y-11491498D02*
X12279601Y-11510546D01*
X12279601Y-11510546D02*
X12279601Y-11567688D01*
X12279601Y-11567688D02*
X12270077Y-11586736D01*
X12270077Y-11586736D02*
X12260553Y-11596260D01*
X12260553Y-11596260D02*
X12241506Y-11605784D01*
X12241506Y-11605784D02*
X12212934Y-11605784D01*
X12393887Y-11605784D02*
X12374839Y-11596260D01*
X12374839Y-11596260D02*
X12365315Y-11577212D01*
X12365315Y-11577212D02*
X12365315Y-11405784D01*
X12546268Y-11596260D02*
X12527220Y-11605784D01*
X12527220Y-11605784D02*
X12489125Y-11605784D01*
X12489125Y-11605784D02*
X12470077Y-11596260D01*
X12470077Y-11596260D02*
X12460553Y-11577212D01*
X12460553Y-11577212D02*
X12460553Y-11501022D01*
X12460553Y-11501022D02*
X12470077Y-11481974D01*
X12470077Y-11481974D02*
X12489125Y-11472450D01*
X12489125Y-11472450D02*
X12527220Y-11472450D01*
X12527220Y-11472450D02*
X12546268Y-11481974D01*
X12546268Y-11481974D02*
X12555791Y-11501022D01*
X12555791Y-11501022D02*
X12555791Y-11520069D01*
X12555791Y-11520069D02*
X12460553Y-11539117D01*
X12631982Y-11596260D02*
X12651030Y-11605784D01*
X12651030Y-11605784D02*
X12689125Y-11605784D01*
X12689125Y-11605784D02*
X12708172Y-11596260D01*
X12708172Y-11596260D02*
X12717696Y-11577212D01*
X12717696Y-11577212D02*
X12717696Y-11567688D01*
X12717696Y-11567688D02*
X12708172Y-11548641D01*
X12708172Y-11548641D02*
X12689125Y-11539117D01*
X12689125Y-11539117D02*
X12660553Y-11539117D01*
X12660553Y-11539117D02*
X12641506Y-11529593D01*
X12641506Y-11529593D02*
X12631982Y-11510546D01*
X12631982Y-11510546D02*
X12631982Y-11501022D01*
X12631982Y-11501022D02*
X12641506Y-11481974D01*
X12641506Y-11481974D02*
X12660553Y-11472450D01*
X12660553Y-11472450D02*
X12689125Y-11472450D01*
X12689125Y-11472450D02*
X12708172Y-11481974D01*
X12784363Y-11681974D02*
X12793887Y-11672450D01*
X12793887Y-11672450D02*
X12812934Y-11643879D01*
X12812934Y-11643879D02*
X12822458Y-11624831D01*
X12822458Y-11624831D02*
X12831982Y-11596260D01*
X12831982Y-11596260D02*
X12841506Y-11548641D01*
X12841506Y-11548641D02*
X12841506Y-11510546D01*
X12841506Y-11510546D02*
X12831982Y-11462927D01*
X12831982Y-11462927D02*
X12822458Y-11434355D01*
X12822458Y-11434355D02*
X12812934Y-11415308D01*
X12812934Y-11415308D02*
X12793887Y-11386736D01*
X12793887Y-11386736D02*
X12784363Y-11377212D01*
M02*
