%TF.GenerationSoftware,KiCad,Pcbnew,7.0.9-7.0.9~ubuntu22.04.1*%
%TF.CreationDate,2023-12-25T16:12:55+01:00*%
%TF.ProjectId,PD-LabSupply,50442d4c-6162-4537-9570-706c792e6b69,3.1*%
%TF.SameCoordinates,Original*%
%TF.FileFunction,Drillmap*%
%TF.FilePolarity,Positive*%
%FSLAX45Y45*%
G04 Gerber Fmt 4.5, Leading zero omitted, Abs format (unit mm)*
G04 Created by KiCad (PCBNEW 7.0.9-7.0.9~ubuntu22.04.1) date 2023-12-25 16:12:55*
%MOMM*%
%LPD*%
G01*
G04 APERTURE LIST*
%ADD10C,0.150000*%
%ADD11C,0.200000*%
%ADD12C,0.250000*%
G04 APERTURE END LIST*
D10*
X14220000Y-6104800D02*
X8020000Y-6104800D01*
X8020080Y-5138440D01*
X8672860Y-5138440D01*
X8672860Y-4208800D01*
X8020000Y-4208800D01*
X8020000Y-3220000D01*
X14220000Y-3220000D01*
X14220000Y-6104800D01*
D11*
D12*
X8144000Y-3347200D02*
X8394000Y-3597200D01*
X8394000Y-3347200D02*
X8144000Y-3597200D01*
X8144000Y-5727200D02*
X8394000Y-5977200D01*
X8394000Y-5727200D02*
X8144000Y-5977200D01*
X10494000Y-3347200D02*
X10744000Y-3597200D01*
X10744000Y-3347200D02*
X10494000Y-3597200D01*
X10494000Y-5727200D02*
X10744000Y-5977200D01*
X10744000Y-5727200D02*
X10494000Y-5977200D01*
X13808200Y-5684000D02*
X14058200Y-5934000D01*
X14058200Y-5684000D02*
X13808200Y-5934000D01*
X13815000Y-3375000D02*
X14065000Y-3625000D01*
X14065000Y-3375000D02*
X13815000Y-3625000D01*
D11*
X8273277Y-6423784D02*
X8273277Y-6223784D01*
X8273277Y-6223784D02*
X8320896Y-6223784D01*
X8320896Y-6223784D02*
X8349467Y-6233308D01*
X8349467Y-6233308D02*
X8368515Y-6252355D01*
X8368515Y-6252355D02*
X8378039Y-6271403D01*
X8378039Y-6271403D02*
X8387562Y-6309498D01*
X8387562Y-6309498D02*
X8387562Y-6338069D01*
X8387562Y-6338069D02*
X8378039Y-6376165D01*
X8378039Y-6376165D02*
X8368515Y-6395212D01*
X8368515Y-6395212D02*
X8349467Y-6414260D01*
X8349467Y-6414260D02*
X8320896Y-6423784D01*
X8320896Y-6423784D02*
X8273277Y-6423784D01*
X8473277Y-6423784D02*
X8473277Y-6290450D01*
X8473277Y-6328546D02*
X8482801Y-6309498D01*
X8482801Y-6309498D02*
X8492324Y-6299974D01*
X8492324Y-6299974D02*
X8511372Y-6290450D01*
X8511372Y-6290450D02*
X8530420Y-6290450D01*
X8597086Y-6423784D02*
X8597086Y-6290450D01*
X8597086Y-6223784D02*
X8587563Y-6233308D01*
X8587563Y-6233308D02*
X8597086Y-6242831D01*
X8597086Y-6242831D02*
X8606610Y-6233308D01*
X8606610Y-6233308D02*
X8597086Y-6223784D01*
X8597086Y-6223784D02*
X8597086Y-6242831D01*
X8720896Y-6423784D02*
X8701848Y-6414260D01*
X8701848Y-6414260D02*
X8692324Y-6395212D01*
X8692324Y-6395212D02*
X8692324Y-6223784D01*
X8825658Y-6423784D02*
X8806610Y-6414260D01*
X8806610Y-6414260D02*
X8797086Y-6395212D01*
X8797086Y-6395212D02*
X8797086Y-6223784D01*
X9054229Y-6423784D02*
X9054229Y-6223784D01*
X9054229Y-6223784D02*
X9120896Y-6366641D01*
X9120896Y-6366641D02*
X9187563Y-6223784D01*
X9187563Y-6223784D02*
X9187563Y-6423784D01*
X9368515Y-6423784D02*
X9368515Y-6319022D01*
X9368515Y-6319022D02*
X9358991Y-6299974D01*
X9358991Y-6299974D02*
X9339944Y-6290450D01*
X9339944Y-6290450D02*
X9301848Y-6290450D01*
X9301848Y-6290450D02*
X9282801Y-6299974D01*
X9368515Y-6414260D02*
X9349467Y-6423784D01*
X9349467Y-6423784D02*
X9301848Y-6423784D01*
X9301848Y-6423784D02*
X9282801Y-6414260D01*
X9282801Y-6414260D02*
X9273277Y-6395212D01*
X9273277Y-6395212D02*
X9273277Y-6376165D01*
X9273277Y-6376165D02*
X9282801Y-6357117D01*
X9282801Y-6357117D02*
X9301848Y-6347593D01*
X9301848Y-6347593D02*
X9349467Y-6347593D01*
X9349467Y-6347593D02*
X9368515Y-6338069D01*
X9463753Y-6290450D02*
X9463753Y-6490450D01*
X9463753Y-6299974D02*
X9482801Y-6290450D01*
X9482801Y-6290450D02*
X9520896Y-6290450D01*
X9520896Y-6290450D02*
X9539944Y-6299974D01*
X9539944Y-6299974D02*
X9549467Y-6309498D01*
X9549467Y-6309498D02*
X9558991Y-6328546D01*
X9558991Y-6328546D02*
X9558991Y-6385688D01*
X9558991Y-6385688D02*
X9549467Y-6404736D01*
X9549467Y-6404736D02*
X9539944Y-6414260D01*
X9539944Y-6414260D02*
X9520896Y-6423784D01*
X9520896Y-6423784D02*
X9482801Y-6423784D01*
X9482801Y-6423784D02*
X9463753Y-6414260D01*
X9644705Y-6404736D02*
X9654229Y-6414260D01*
X9654229Y-6414260D02*
X9644705Y-6423784D01*
X9644705Y-6423784D02*
X9635182Y-6414260D01*
X9635182Y-6414260D02*
X9644705Y-6404736D01*
X9644705Y-6404736D02*
X9644705Y-6423784D01*
X9644705Y-6299974D02*
X9654229Y-6309498D01*
X9654229Y-6309498D02*
X9644705Y-6319022D01*
X9644705Y-6319022D02*
X9635182Y-6309498D01*
X9635182Y-6309498D02*
X9644705Y-6299974D01*
X9644705Y-6299974D02*
X9644705Y-6319022D01*
X7812500Y-6652300D02*
X8012500Y-6852300D01*
X8012500Y-6652300D02*
X7812500Y-6852300D01*
X8263753Y-6662831D02*
X8273277Y-6653308D01*
X8273277Y-6653308D02*
X8292324Y-6643784D01*
X8292324Y-6643784D02*
X8339943Y-6643784D01*
X8339943Y-6643784D02*
X8358991Y-6653308D01*
X8358991Y-6653308D02*
X8368515Y-6662831D01*
X8368515Y-6662831D02*
X8378039Y-6681879D01*
X8378039Y-6681879D02*
X8378039Y-6700927D01*
X8378039Y-6700927D02*
X8368515Y-6729498D01*
X8368515Y-6729498D02*
X8254229Y-6843784D01*
X8254229Y-6843784D02*
X8378039Y-6843784D01*
X8463753Y-6824736D02*
X8473277Y-6834260D01*
X8473277Y-6834260D02*
X8463753Y-6843784D01*
X8463753Y-6843784D02*
X8454229Y-6834260D01*
X8454229Y-6834260D02*
X8463753Y-6824736D01*
X8463753Y-6824736D02*
X8463753Y-6843784D01*
X8654229Y-6643784D02*
X8558991Y-6643784D01*
X8558991Y-6643784D02*
X8549467Y-6739022D01*
X8549467Y-6739022D02*
X8558991Y-6729498D01*
X8558991Y-6729498D02*
X8578039Y-6719974D01*
X8578039Y-6719974D02*
X8625658Y-6719974D01*
X8625658Y-6719974D02*
X8644705Y-6729498D01*
X8644705Y-6729498D02*
X8654229Y-6739022D01*
X8654229Y-6739022D02*
X8663753Y-6758069D01*
X8663753Y-6758069D02*
X8663753Y-6805688D01*
X8663753Y-6805688D02*
X8654229Y-6824736D01*
X8654229Y-6824736D02*
X8644705Y-6834260D01*
X8644705Y-6834260D02*
X8625658Y-6843784D01*
X8625658Y-6843784D02*
X8578039Y-6843784D01*
X8578039Y-6843784D02*
X8558991Y-6834260D01*
X8558991Y-6834260D02*
X8549467Y-6824736D01*
X8787563Y-6643784D02*
X8806610Y-6643784D01*
X8806610Y-6643784D02*
X8825658Y-6653308D01*
X8825658Y-6653308D02*
X8835182Y-6662831D01*
X8835182Y-6662831D02*
X8844705Y-6681879D01*
X8844705Y-6681879D02*
X8854229Y-6719974D01*
X8854229Y-6719974D02*
X8854229Y-6767593D01*
X8854229Y-6767593D02*
X8844705Y-6805688D01*
X8844705Y-6805688D02*
X8835182Y-6824736D01*
X8835182Y-6824736D02*
X8825658Y-6834260D01*
X8825658Y-6834260D02*
X8806610Y-6843784D01*
X8806610Y-6843784D02*
X8787563Y-6843784D01*
X8787563Y-6843784D02*
X8768515Y-6834260D01*
X8768515Y-6834260D02*
X8758991Y-6824736D01*
X8758991Y-6824736D02*
X8749467Y-6805688D01*
X8749467Y-6805688D02*
X8739944Y-6767593D01*
X8739944Y-6767593D02*
X8739944Y-6719974D01*
X8739944Y-6719974D02*
X8749467Y-6681879D01*
X8749467Y-6681879D02*
X8758991Y-6662831D01*
X8758991Y-6662831D02*
X8768515Y-6653308D01*
X8768515Y-6653308D02*
X8787563Y-6643784D01*
X8978039Y-6643784D02*
X8997086Y-6643784D01*
X8997086Y-6643784D02*
X9016134Y-6653308D01*
X9016134Y-6653308D02*
X9025658Y-6662831D01*
X9025658Y-6662831D02*
X9035182Y-6681879D01*
X9035182Y-6681879D02*
X9044705Y-6719974D01*
X9044705Y-6719974D02*
X9044705Y-6767593D01*
X9044705Y-6767593D02*
X9035182Y-6805688D01*
X9035182Y-6805688D02*
X9025658Y-6824736D01*
X9025658Y-6824736D02*
X9016134Y-6834260D01*
X9016134Y-6834260D02*
X8997086Y-6843784D01*
X8997086Y-6843784D02*
X8978039Y-6843784D01*
X8978039Y-6843784D02*
X8958991Y-6834260D01*
X8958991Y-6834260D02*
X8949467Y-6824736D01*
X8949467Y-6824736D02*
X8939944Y-6805688D01*
X8939944Y-6805688D02*
X8930420Y-6767593D01*
X8930420Y-6767593D02*
X8930420Y-6719974D01*
X8930420Y-6719974D02*
X8939944Y-6681879D01*
X8939944Y-6681879D02*
X8949467Y-6662831D01*
X8949467Y-6662831D02*
X8958991Y-6653308D01*
X8958991Y-6653308D02*
X8978039Y-6643784D01*
X9130420Y-6843784D02*
X9130420Y-6710450D01*
X9130420Y-6729498D02*
X9139944Y-6719974D01*
X9139944Y-6719974D02*
X9158991Y-6710450D01*
X9158991Y-6710450D02*
X9187563Y-6710450D01*
X9187563Y-6710450D02*
X9206610Y-6719974D01*
X9206610Y-6719974D02*
X9216134Y-6739022D01*
X9216134Y-6739022D02*
X9216134Y-6843784D01*
X9216134Y-6739022D02*
X9225658Y-6719974D01*
X9225658Y-6719974D02*
X9244705Y-6710450D01*
X9244705Y-6710450D02*
X9273277Y-6710450D01*
X9273277Y-6710450D02*
X9292325Y-6719974D01*
X9292325Y-6719974D02*
X9301848Y-6739022D01*
X9301848Y-6739022D02*
X9301848Y-6843784D01*
X9397086Y-6843784D02*
X9397086Y-6710450D01*
X9397086Y-6729498D02*
X9406610Y-6719974D01*
X9406610Y-6719974D02*
X9425658Y-6710450D01*
X9425658Y-6710450D02*
X9454229Y-6710450D01*
X9454229Y-6710450D02*
X9473277Y-6719974D01*
X9473277Y-6719974D02*
X9482801Y-6739022D01*
X9482801Y-6739022D02*
X9482801Y-6843784D01*
X9482801Y-6739022D02*
X9492325Y-6719974D01*
X9492325Y-6719974D02*
X9511372Y-6710450D01*
X9511372Y-6710450D02*
X9539944Y-6710450D01*
X9539944Y-6710450D02*
X9558991Y-6719974D01*
X9558991Y-6719974D02*
X9568515Y-6739022D01*
X9568515Y-6739022D02*
X9568515Y-6843784D01*
X9958991Y-6634260D02*
X9787563Y-6891403D01*
X10216134Y-6643784D02*
X10235182Y-6643784D01*
X10235182Y-6643784D02*
X10254229Y-6653308D01*
X10254229Y-6653308D02*
X10263753Y-6662831D01*
X10263753Y-6662831D02*
X10273277Y-6681879D01*
X10273277Y-6681879D02*
X10282801Y-6719974D01*
X10282801Y-6719974D02*
X10282801Y-6767593D01*
X10282801Y-6767593D02*
X10273277Y-6805688D01*
X10273277Y-6805688D02*
X10263753Y-6824736D01*
X10263753Y-6824736D02*
X10254229Y-6834260D01*
X10254229Y-6834260D02*
X10235182Y-6843784D01*
X10235182Y-6843784D02*
X10216134Y-6843784D01*
X10216134Y-6843784D02*
X10197087Y-6834260D01*
X10197087Y-6834260D02*
X10187563Y-6824736D01*
X10187563Y-6824736D02*
X10178039Y-6805688D01*
X10178039Y-6805688D02*
X10168515Y-6767593D01*
X10168515Y-6767593D02*
X10168515Y-6719974D01*
X10168515Y-6719974D02*
X10178039Y-6681879D01*
X10178039Y-6681879D02*
X10187563Y-6662831D01*
X10187563Y-6662831D02*
X10197087Y-6653308D01*
X10197087Y-6653308D02*
X10216134Y-6643784D01*
X10368515Y-6824736D02*
X10378039Y-6834260D01*
X10378039Y-6834260D02*
X10368515Y-6843784D01*
X10368515Y-6843784D02*
X10358991Y-6834260D01*
X10358991Y-6834260D02*
X10368515Y-6824736D01*
X10368515Y-6824736D02*
X10368515Y-6843784D01*
X10501848Y-6643784D02*
X10520896Y-6643784D01*
X10520896Y-6643784D02*
X10539944Y-6653308D01*
X10539944Y-6653308D02*
X10549468Y-6662831D01*
X10549468Y-6662831D02*
X10558991Y-6681879D01*
X10558991Y-6681879D02*
X10568515Y-6719974D01*
X10568515Y-6719974D02*
X10568515Y-6767593D01*
X10568515Y-6767593D02*
X10558991Y-6805688D01*
X10558991Y-6805688D02*
X10549468Y-6824736D01*
X10549468Y-6824736D02*
X10539944Y-6834260D01*
X10539944Y-6834260D02*
X10520896Y-6843784D01*
X10520896Y-6843784D02*
X10501848Y-6843784D01*
X10501848Y-6843784D02*
X10482801Y-6834260D01*
X10482801Y-6834260D02*
X10473277Y-6824736D01*
X10473277Y-6824736D02*
X10463753Y-6805688D01*
X10463753Y-6805688D02*
X10454229Y-6767593D01*
X10454229Y-6767593D02*
X10454229Y-6719974D01*
X10454229Y-6719974D02*
X10463753Y-6681879D01*
X10463753Y-6681879D02*
X10473277Y-6662831D01*
X10473277Y-6662831D02*
X10482801Y-6653308D01*
X10482801Y-6653308D02*
X10501848Y-6643784D01*
X10663753Y-6843784D02*
X10701848Y-6843784D01*
X10701848Y-6843784D02*
X10720896Y-6834260D01*
X10720896Y-6834260D02*
X10730420Y-6824736D01*
X10730420Y-6824736D02*
X10749468Y-6796165D01*
X10749468Y-6796165D02*
X10758991Y-6758069D01*
X10758991Y-6758069D02*
X10758991Y-6681879D01*
X10758991Y-6681879D02*
X10749468Y-6662831D01*
X10749468Y-6662831D02*
X10739944Y-6653308D01*
X10739944Y-6653308D02*
X10720896Y-6643784D01*
X10720896Y-6643784D02*
X10682801Y-6643784D01*
X10682801Y-6643784D02*
X10663753Y-6653308D01*
X10663753Y-6653308D02*
X10654229Y-6662831D01*
X10654229Y-6662831D02*
X10644706Y-6681879D01*
X10644706Y-6681879D02*
X10644706Y-6729498D01*
X10644706Y-6729498D02*
X10654229Y-6748546D01*
X10654229Y-6748546D02*
X10663753Y-6758069D01*
X10663753Y-6758069D02*
X10682801Y-6767593D01*
X10682801Y-6767593D02*
X10720896Y-6767593D01*
X10720896Y-6767593D02*
X10739944Y-6758069D01*
X10739944Y-6758069D02*
X10749468Y-6748546D01*
X10749468Y-6748546D02*
X10758991Y-6729498D01*
X10873277Y-6729498D02*
X10854229Y-6719974D01*
X10854229Y-6719974D02*
X10844706Y-6710450D01*
X10844706Y-6710450D02*
X10835182Y-6691403D01*
X10835182Y-6691403D02*
X10835182Y-6681879D01*
X10835182Y-6681879D02*
X10844706Y-6662831D01*
X10844706Y-6662831D02*
X10854229Y-6653308D01*
X10854229Y-6653308D02*
X10873277Y-6643784D01*
X10873277Y-6643784D02*
X10911372Y-6643784D01*
X10911372Y-6643784D02*
X10930420Y-6653308D01*
X10930420Y-6653308D02*
X10939944Y-6662831D01*
X10939944Y-6662831D02*
X10949468Y-6681879D01*
X10949468Y-6681879D02*
X10949468Y-6691403D01*
X10949468Y-6691403D02*
X10939944Y-6710450D01*
X10939944Y-6710450D02*
X10930420Y-6719974D01*
X10930420Y-6719974D02*
X10911372Y-6729498D01*
X10911372Y-6729498D02*
X10873277Y-6729498D01*
X10873277Y-6729498D02*
X10854229Y-6739022D01*
X10854229Y-6739022D02*
X10844706Y-6748546D01*
X10844706Y-6748546D02*
X10835182Y-6767593D01*
X10835182Y-6767593D02*
X10835182Y-6805688D01*
X10835182Y-6805688D02*
X10844706Y-6824736D01*
X10844706Y-6824736D02*
X10854229Y-6834260D01*
X10854229Y-6834260D02*
X10873277Y-6843784D01*
X10873277Y-6843784D02*
X10911372Y-6843784D01*
X10911372Y-6843784D02*
X10930420Y-6834260D01*
X10930420Y-6834260D02*
X10939944Y-6824736D01*
X10939944Y-6824736D02*
X10949468Y-6805688D01*
X10949468Y-6805688D02*
X10949468Y-6767593D01*
X10949468Y-6767593D02*
X10939944Y-6748546D01*
X10939944Y-6748546D02*
X10930420Y-6739022D01*
X10930420Y-6739022D02*
X10911372Y-6729498D01*
X11120896Y-6710450D02*
X11120896Y-6843784D01*
X11073277Y-6634260D02*
X11025658Y-6777117D01*
X11025658Y-6777117D02*
X11149468Y-6777117D01*
X11216134Y-6643784D02*
X11216134Y-6681879D01*
X11292325Y-6643784D02*
X11292325Y-6681879D01*
X11587563Y-6919974D02*
X11578039Y-6910450D01*
X11578039Y-6910450D02*
X11558991Y-6881879D01*
X11558991Y-6881879D02*
X11549468Y-6862831D01*
X11549468Y-6862831D02*
X11539944Y-6834260D01*
X11539944Y-6834260D02*
X11530420Y-6786641D01*
X11530420Y-6786641D02*
X11530420Y-6748546D01*
X11530420Y-6748546D02*
X11539944Y-6700927D01*
X11539944Y-6700927D02*
X11549468Y-6672355D01*
X11549468Y-6672355D02*
X11558991Y-6653308D01*
X11558991Y-6653308D02*
X11578039Y-6624736D01*
X11578039Y-6624736D02*
X11587563Y-6615212D01*
X11749468Y-6643784D02*
X11711372Y-6643784D01*
X11711372Y-6643784D02*
X11692325Y-6653308D01*
X11692325Y-6653308D02*
X11682801Y-6662831D01*
X11682801Y-6662831D02*
X11663753Y-6691403D01*
X11663753Y-6691403D02*
X11654229Y-6729498D01*
X11654229Y-6729498D02*
X11654229Y-6805688D01*
X11654229Y-6805688D02*
X11663753Y-6824736D01*
X11663753Y-6824736D02*
X11673277Y-6834260D01*
X11673277Y-6834260D02*
X11692325Y-6843784D01*
X11692325Y-6843784D02*
X11730420Y-6843784D01*
X11730420Y-6843784D02*
X11749468Y-6834260D01*
X11749468Y-6834260D02*
X11758991Y-6824736D01*
X11758991Y-6824736D02*
X11768515Y-6805688D01*
X11768515Y-6805688D02*
X11768515Y-6758069D01*
X11768515Y-6758069D02*
X11758991Y-6739022D01*
X11758991Y-6739022D02*
X11749468Y-6729498D01*
X11749468Y-6729498D02*
X11730420Y-6719974D01*
X11730420Y-6719974D02*
X11692325Y-6719974D01*
X11692325Y-6719974D02*
X11673277Y-6729498D01*
X11673277Y-6729498D02*
X11663753Y-6739022D01*
X11663753Y-6739022D02*
X11654229Y-6758069D01*
X12006610Y-6843784D02*
X12006610Y-6643784D01*
X12092325Y-6843784D02*
X12092325Y-6739022D01*
X12092325Y-6739022D02*
X12082801Y-6719974D01*
X12082801Y-6719974D02*
X12063753Y-6710450D01*
X12063753Y-6710450D02*
X12035182Y-6710450D01*
X12035182Y-6710450D02*
X12016134Y-6719974D01*
X12016134Y-6719974D02*
X12006610Y-6729498D01*
X12216134Y-6843784D02*
X12197087Y-6834260D01*
X12197087Y-6834260D02*
X12187563Y-6824736D01*
X12187563Y-6824736D02*
X12178039Y-6805688D01*
X12178039Y-6805688D02*
X12178039Y-6748546D01*
X12178039Y-6748546D02*
X12187563Y-6729498D01*
X12187563Y-6729498D02*
X12197087Y-6719974D01*
X12197087Y-6719974D02*
X12216134Y-6710450D01*
X12216134Y-6710450D02*
X12244706Y-6710450D01*
X12244706Y-6710450D02*
X12263753Y-6719974D01*
X12263753Y-6719974D02*
X12273277Y-6729498D01*
X12273277Y-6729498D02*
X12282801Y-6748546D01*
X12282801Y-6748546D02*
X12282801Y-6805688D01*
X12282801Y-6805688D02*
X12273277Y-6824736D01*
X12273277Y-6824736D02*
X12263753Y-6834260D01*
X12263753Y-6834260D02*
X12244706Y-6843784D01*
X12244706Y-6843784D02*
X12216134Y-6843784D01*
X12397087Y-6843784D02*
X12378039Y-6834260D01*
X12378039Y-6834260D02*
X12368515Y-6815212D01*
X12368515Y-6815212D02*
X12368515Y-6643784D01*
X12549468Y-6834260D02*
X12530420Y-6843784D01*
X12530420Y-6843784D02*
X12492325Y-6843784D01*
X12492325Y-6843784D02*
X12473277Y-6834260D01*
X12473277Y-6834260D02*
X12463753Y-6815212D01*
X12463753Y-6815212D02*
X12463753Y-6739022D01*
X12463753Y-6739022D02*
X12473277Y-6719974D01*
X12473277Y-6719974D02*
X12492325Y-6710450D01*
X12492325Y-6710450D02*
X12530420Y-6710450D01*
X12530420Y-6710450D02*
X12549468Y-6719974D01*
X12549468Y-6719974D02*
X12558991Y-6739022D01*
X12558991Y-6739022D02*
X12558991Y-6758069D01*
X12558991Y-6758069D02*
X12463753Y-6777117D01*
X12635182Y-6834260D02*
X12654230Y-6843784D01*
X12654230Y-6843784D02*
X12692325Y-6843784D01*
X12692325Y-6843784D02*
X12711372Y-6834260D01*
X12711372Y-6834260D02*
X12720896Y-6815212D01*
X12720896Y-6815212D02*
X12720896Y-6805688D01*
X12720896Y-6805688D02*
X12711372Y-6786641D01*
X12711372Y-6786641D02*
X12692325Y-6777117D01*
X12692325Y-6777117D02*
X12663753Y-6777117D01*
X12663753Y-6777117D02*
X12644706Y-6767593D01*
X12644706Y-6767593D02*
X12635182Y-6748546D01*
X12635182Y-6748546D02*
X12635182Y-6739022D01*
X12635182Y-6739022D02*
X12644706Y-6719974D01*
X12644706Y-6719974D02*
X12663753Y-6710450D01*
X12663753Y-6710450D02*
X12692325Y-6710450D01*
X12692325Y-6710450D02*
X12711372Y-6719974D01*
X12787563Y-6919974D02*
X12797087Y-6910450D01*
X12797087Y-6910450D02*
X12816134Y-6881879D01*
X12816134Y-6881879D02*
X12825658Y-6862831D01*
X12825658Y-6862831D02*
X12835182Y-6834260D01*
X12835182Y-6834260D02*
X12844706Y-6786641D01*
X12844706Y-6786641D02*
X12844706Y-6748546D01*
X12844706Y-6748546D02*
X12835182Y-6700927D01*
X12835182Y-6700927D02*
X12825658Y-6672355D01*
X12825658Y-6672355D02*
X12816134Y-6653308D01*
X12816134Y-6653308D02*
X12797087Y-6624736D01*
X12797087Y-6624736D02*
X12787563Y-6615212D01*
X13149468Y-6919974D02*
X13139944Y-6910450D01*
X13139944Y-6910450D02*
X13120896Y-6881879D01*
X13120896Y-6881879D02*
X13111372Y-6862831D01*
X13111372Y-6862831D02*
X13101849Y-6834260D01*
X13101849Y-6834260D02*
X13092325Y-6786641D01*
X13092325Y-6786641D02*
X13092325Y-6748546D01*
X13092325Y-6748546D02*
X13101849Y-6700927D01*
X13101849Y-6700927D02*
X13111372Y-6672355D01*
X13111372Y-6672355D02*
X13120896Y-6653308D01*
X13120896Y-6653308D02*
X13139944Y-6624736D01*
X13139944Y-6624736D02*
X13149468Y-6615212D01*
X13225658Y-6710450D02*
X13225658Y-6843784D01*
X13225658Y-6729498D02*
X13235182Y-6719974D01*
X13235182Y-6719974D02*
X13254230Y-6710450D01*
X13254230Y-6710450D02*
X13282801Y-6710450D01*
X13282801Y-6710450D02*
X13301849Y-6719974D01*
X13301849Y-6719974D02*
X13311372Y-6739022D01*
X13311372Y-6739022D02*
X13311372Y-6843784D01*
X13435182Y-6843784D02*
X13416134Y-6834260D01*
X13416134Y-6834260D02*
X13406611Y-6824736D01*
X13406611Y-6824736D02*
X13397087Y-6805688D01*
X13397087Y-6805688D02*
X13397087Y-6748546D01*
X13397087Y-6748546D02*
X13406611Y-6729498D01*
X13406611Y-6729498D02*
X13416134Y-6719974D01*
X13416134Y-6719974D02*
X13435182Y-6710450D01*
X13435182Y-6710450D02*
X13463753Y-6710450D01*
X13463753Y-6710450D02*
X13482801Y-6719974D01*
X13482801Y-6719974D02*
X13492325Y-6729498D01*
X13492325Y-6729498D02*
X13501849Y-6748546D01*
X13501849Y-6748546D02*
X13501849Y-6805688D01*
X13501849Y-6805688D02*
X13492325Y-6824736D01*
X13492325Y-6824736D02*
X13482801Y-6834260D01*
X13482801Y-6834260D02*
X13463753Y-6843784D01*
X13463753Y-6843784D02*
X13435182Y-6843784D01*
X13558992Y-6710450D02*
X13635182Y-6710450D01*
X13587563Y-6643784D02*
X13587563Y-6815212D01*
X13587563Y-6815212D02*
X13597087Y-6834260D01*
X13597087Y-6834260D02*
X13616134Y-6843784D01*
X13616134Y-6843784D02*
X13635182Y-6843784D01*
X13854230Y-6710450D02*
X13854230Y-6910450D01*
X13854230Y-6719974D02*
X13873277Y-6710450D01*
X13873277Y-6710450D02*
X13911373Y-6710450D01*
X13911373Y-6710450D02*
X13930420Y-6719974D01*
X13930420Y-6719974D02*
X13939944Y-6729498D01*
X13939944Y-6729498D02*
X13949468Y-6748546D01*
X13949468Y-6748546D02*
X13949468Y-6805688D01*
X13949468Y-6805688D02*
X13939944Y-6824736D01*
X13939944Y-6824736D02*
X13930420Y-6834260D01*
X13930420Y-6834260D02*
X13911373Y-6843784D01*
X13911373Y-6843784D02*
X13873277Y-6843784D01*
X13873277Y-6843784D02*
X13854230Y-6834260D01*
X14063753Y-6843784D02*
X14044706Y-6834260D01*
X14044706Y-6834260D02*
X14035182Y-6815212D01*
X14035182Y-6815212D02*
X14035182Y-6643784D01*
X14225658Y-6843784D02*
X14225658Y-6739022D01*
X14225658Y-6739022D02*
X14216134Y-6719974D01*
X14216134Y-6719974D02*
X14197087Y-6710450D01*
X14197087Y-6710450D02*
X14158992Y-6710450D01*
X14158992Y-6710450D02*
X14139944Y-6719974D01*
X14225658Y-6834260D02*
X14206611Y-6843784D01*
X14206611Y-6843784D02*
X14158992Y-6843784D01*
X14158992Y-6843784D02*
X14139944Y-6834260D01*
X14139944Y-6834260D02*
X14130420Y-6815212D01*
X14130420Y-6815212D02*
X14130420Y-6796165D01*
X14130420Y-6796165D02*
X14139944Y-6777117D01*
X14139944Y-6777117D02*
X14158992Y-6767593D01*
X14158992Y-6767593D02*
X14206611Y-6767593D01*
X14206611Y-6767593D02*
X14225658Y-6758069D01*
X14292325Y-6710450D02*
X14368515Y-6710450D01*
X14320896Y-6643784D02*
X14320896Y-6815212D01*
X14320896Y-6815212D02*
X14330420Y-6834260D01*
X14330420Y-6834260D02*
X14349468Y-6843784D01*
X14349468Y-6843784D02*
X14368515Y-6843784D01*
X14511373Y-6834260D02*
X14492325Y-6843784D01*
X14492325Y-6843784D02*
X14454230Y-6843784D01*
X14454230Y-6843784D02*
X14435182Y-6834260D01*
X14435182Y-6834260D02*
X14425658Y-6815212D01*
X14425658Y-6815212D02*
X14425658Y-6739022D01*
X14425658Y-6739022D02*
X14435182Y-6719974D01*
X14435182Y-6719974D02*
X14454230Y-6710450D01*
X14454230Y-6710450D02*
X14492325Y-6710450D01*
X14492325Y-6710450D02*
X14511373Y-6719974D01*
X14511373Y-6719974D02*
X14520896Y-6739022D01*
X14520896Y-6739022D02*
X14520896Y-6758069D01*
X14520896Y-6758069D02*
X14425658Y-6777117D01*
X14692325Y-6843784D02*
X14692325Y-6643784D01*
X14692325Y-6834260D02*
X14673277Y-6843784D01*
X14673277Y-6843784D02*
X14635182Y-6843784D01*
X14635182Y-6843784D02*
X14616134Y-6834260D01*
X14616134Y-6834260D02*
X14606611Y-6824736D01*
X14606611Y-6824736D02*
X14597087Y-6805688D01*
X14597087Y-6805688D02*
X14597087Y-6748546D01*
X14597087Y-6748546D02*
X14606611Y-6729498D01*
X14606611Y-6729498D02*
X14616134Y-6719974D01*
X14616134Y-6719974D02*
X14635182Y-6710450D01*
X14635182Y-6710450D02*
X14673277Y-6710450D01*
X14673277Y-6710450D02*
X14692325Y-6719974D01*
X14768515Y-6919974D02*
X14778039Y-6910450D01*
X14778039Y-6910450D02*
X14797087Y-6881879D01*
X14797087Y-6881879D02*
X14806611Y-6862831D01*
X14806611Y-6862831D02*
X14816134Y-6834260D01*
X14816134Y-6834260D02*
X14825658Y-6786641D01*
X14825658Y-6786641D02*
X14825658Y-6748546D01*
X14825658Y-6748546D02*
X14816134Y-6700927D01*
X14816134Y-6700927D02*
X14806611Y-6672355D01*
X14806611Y-6672355D02*
X14797087Y-6653308D01*
X14797087Y-6653308D02*
X14778039Y-6624736D01*
X14778039Y-6624736D02*
X14768515Y-6615212D01*
M02*
