G04 #@! TF.GenerationSoftware,KiCad,Pcbnew,7.0.8-7.0.8~ubuntu22.04.1*
G04 #@! TF.CreationDate,2023-10-11T18:06:27+02:00*
G04 #@! TF.ProjectId,PD_Micro,50445f4d-6963-4726-9f2e-6b696361645f,rev?*
G04 #@! TF.SameCoordinates,PX7ce2370PY67d8790*
G04 #@! TF.FileFunction,AssemblyDrawing,Top*
%FSLAX46Y46*%
G04 Gerber Fmt 4.6, Leading zero omitted, Abs format (unit mm)*
G04 Created by KiCad (PCBNEW 7.0.8-7.0.8~ubuntu22.04.1) date 2023-10-11 18:06:27*
%MOMM*%
%LPD*%
G01*
G04 APERTURE LIST*
%ADD10C,0.150000*%
%ADD11C,0.080000*%
%ADD12C,0.100000*%
%ADD13C,0.050000*%
%ADD14C,0.120000*%
%ADD15C,0.075000*%
G04 APERTURE END LIST*
D10*
X85177857Y-33646200D02*
X85320714Y-33693819D01*
X85320714Y-33693819D02*
X85558809Y-33693819D01*
X85558809Y-33693819D02*
X85654047Y-33646200D01*
X85654047Y-33646200D02*
X85701666Y-33598580D01*
X85701666Y-33598580D02*
X85749285Y-33503342D01*
X85749285Y-33503342D02*
X85749285Y-33408104D01*
X85749285Y-33408104D02*
X85701666Y-33312866D01*
X85701666Y-33312866D02*
X85654047Y-33265247D01*
X85654047Y-33265247D02*
X85558809Y-33217628D01*
X85558809Y-33217628D02*
X85368333Y-33170009D01*
X85368333Y-33170009D02*
X85273095Y-33122390D01*
X85273095Y-33122390D02*
X85225476Y-33074771D01*
X85225476Y-33074771D02*
X85177857Y-32979533D01*
X85177857Y-32979533D02*
X85177857Y-32884295D01*
X85177857Y-32884295D02*
X85225476Y-32789057D01*
X85225476Y-32789057D02*
X85273095Y-32741438D01*
X85273095Y-32741438D02*
X85368333Y-32693819D01*
X85368333Y-32693819D02*
X85606428Y-32693819D01*
X85606428Y-32693819D02*
X85749285Y-32741438D01*
X86082619Y-32693819D02*
X86320714Y-33693819D01*
X86320714Y-33693819D02*
X86511190Y-32979533D01*
X86511190Y-32979533D02*
X86701666Y-33693819D01*
X86701666Y-33693819D02*
X86939762Y-32693819D01*
X87082619Y-33789057D02*
X87844523Y-33789057D01*
X88082619Y-33693819D02*
X88082619Y-32693819D01*
X88082619Y-32693819D02*
X88320714Y-32693819D01*
X88320714Y-32693819D02*
X88463571Y-32741438D01*
X88463571Y-32741438D02*
X88558809Y-32836676D01*
X88558809Y-32836676D02*
X88606428Y-32931914D01*
X88606428Y-32931914D02*
X88654047Y-33122390D01*
X88654047Y-33122390D02*
X88654047Y-33265247D01*
X88654047Y-33265247D02*
X88606428Y-33455723D01*
X88606428Y-33455723D02*
X88558809Y-33550961D01*
X88558809Y-33550961D02*
X88463571Y-33646200D01*
X88463571Y-33646200D02*
X88320714Y-33693819D01*
X88320714Y-33693819D02*
X88082619Y-33693819D01*
X89082619Y-33693819D02*
X89082619Y-32693819D01*
X89082619Y-32693819D02*
X89463571Y-32693819D01*
X89463571Y-32693819D02*
X89558809Y-32741438D01*
X89558809Y-32741438D02*
X89606428Y-32789057D01*
X89606428Y-32789057D02*
X89654047Y-32884295D01*
X89654047Y-32884295D02*
X89654047Y-33027152D01*
X89654047Y-33027152D02*
X89606428Y-33122390D01*
X89606428Y-33122390D02*
X89558809Y-33170009D01*
X89558809Y-33170009D02*
X89463571Y-33217628D01*
X89463571Y-33217628D02*
X89082619Y-33217628D01*
X90035000Y-33646200D02*
X90177857Y-33693819D01*
X90177857Y-33693819D02*
X90415952Y-33693819D01*
X90415952Y-33693819D02*
X90511190Y-33646200D01*
X90511190Y-33646200D02*
X90558809Y-33598580D01*
X90558809Y-33598580D02*
X90606428Y-33503342D01*
X90606428Y-33503342D02*
X90606428Y-33408104D01*
X90606428Y-33408104D02*
X90558809Y-33312866D01*
X90558809Y-33312866D02*
X90511190Y-33265247D01*
X90511190Y-33265247D02*
X90415952Y-33217628D01*
X90415952Y-33217628D02*
X90225476Y-33170009D01*
X90225476Y-33170009D02*
X90130238Y-33122390D01*
X90130238Y-33122390D02*
X90082619Y-33074771D01*
X90082619Y-33074771D02*
X90035000Y-32979533D01*
X90035000Y-32979533D02*
X90035000Y-32884295D01*
X90035000Y-32884295D02*
X90082619Y-32789057D01*
X90082619Y-32789057D02*
X90130238Y-32741438D01*
X90130238Y-32741438D02*
X90225476Y-32693819D01*
X90225476Y-32693819D02*
X90463571Y-32693819D01*
X90463571Y-32693819D02*
X90606428Y-32741438D01*
X90892143Y-32693819D02*
X91463571Y-32693819D01*
X91177857Y-33693819D02*
X91177857Y-32693819D01*
X91558810Y-33789057D02*
X92320714Y-33789057D01*
X92463572Y-33693819D02*
X92987381Y-33027152D01*
X92463572Y-33027152D02*
X92987381Y-33693819D01*
X93320715Y-32789057D02*
X93368334Y-32741438D01*
X93368334Y-32741438D02*
X93463572Y-32693819D01*
X93463572Y-32693819D02*
X93701667Y-32693819D01*
X93701667Y-32693819D02*
X93796905Y-32741438D01*
X93796905Y-32741438D02*
X93844524Y-32789057D01*
X93844524Y-32789057D02*
X93892143Y-32884295D01*
X93892143Y-32884295D02*
X93892143Y-32979533D01*
X93892143Y-32979533D02*
X93844524Y-33122390D01*
X93844524Y-33122390D02*
X93273096Y-33693819D01*
X93273096Y-33693819D02*
X93892143Y-33693819D01*
X88201667Y-26196200D02*
X88344524Y-26243819D01*
X88344524Y-26243819D02*
X88582619Y-26243819D01*
X88582619Y-26243819D02*
X88677857Y-26196200D01*
X88677857Y-26196200D02*
X88725476Y-26148580D01*
X88725476Y-26148580D02*
X88773095Y-26053342D01*
X88773095Y-26053342D02*
X88773095Y-25958104D01*
X88773095Y-25958104D02*
X88725476Y-25862866D01*
X88725476Y-25862866D02*
X88677857Y-25815247D01*
X88677857Y-25815247D02*
X88582619Y-25767628D01*
X88582619Y-25767628D02*
X88392143Y-25720009D01*
X88392143Y-25720009D02*
X88296905Y-25672390D01*
X88296905Y-25672390D02*
X88249286Y-25624771D01*
X88249286Y-25624771D02*
X88201667Y-25529533D01*
X88201667Y-25529533D02*
X88201667Y-25434295D01*
X88201667Y-25434295D02*
X88249286Y-25339057D01*
X88249286Y-25339057D02*
X88296905Y-25291438D01*
X88296905Y-25291438D02*
X88392143Y-25243819D01*
X88392143Y-25243819D02*
X88630238Y-25243819D01*
X88630238Y-25243819D02*
X88773095Y-25291438D01*
X89106429Y-25243819D02*
X89344524Y-26243819D01*
X89344524Y-26243819D02*
X89535000Y-25529533D01*
X89535000Y-25529533D02*
X89725476Y-26243819D01*
X89725476Y-26243819D02*
X89963572Y-25243819D01*
X90820714Y-25243819D02*
X90344524Y-25243819D01*
X90344524Y-25243819D02*
X90296905Y-25720009D01*
X90296905Y-25720009D02*
X90344524Y-25672390D01*
X90344524Y-25672390D02*
X90439762Y-25624771D01*
X90439762Y-25624771D02*
X90677857Y-25624771D01*
X90677857Y-25624771D02*
X90773095Y-25672390D01*
X90773095Y-25672390D02*
X90820714Y-25720009D01*
X90820714Y-25720009D02*
X90868333Y-25815247D01*
X90868333Y-25815247D02*
X90868333Y-26053342D01*
X90868333Y-26053342D02*
X90820714Y-26148580D01*
X90820714Y-26148580D02*
X90773095Y-26196200D01*
X90773095Y-26196200D02*
X90677857Y-26243819D01*
X90677857Y-26243819D02*
X90439762Y-26243819D01*
X90439762Y-26243819D02*
X90344524Y-26196200D01*
X90344524Y-26196200D02*
X90296905Y-26148580D01*
X75398857Y-33613200D02*
X75541714Y-33660819D01*
X75541714Y-33660819D02*
X75779809Y-33660819D01*
X75779809Y-33660819D02*
X75875047Y-33613200D01*
X75875047Y-33613200D02*
X75922666Y-33565580D01*
X75922666Y-33565580D02*
X75970285Y-33470342D01*
X75970285Y-33470342D02*
X75970285Y-33375104D01*
X75970285Y-33375104D02*
X75922666Y-33279866D01*
X75922666Y-33279866D02*
X75875047Y-33232247D01*
X75875047Y-33232247D02*
X75779809Y-33184628D01*
X75779809Y-33184628D02*
X75589333Y-33137009D01*
X75589333Y-33137009D02*
X75494095Y-33089390D01*
X75494095Y-33089390D02*
X75446476Y-33041771D01*
X75446476Y-33041771D02*
X75398857Y-32946533D01*
X75398857Y-32946533D02*
X75398857Y-32851295D01*
X75398857Y-32851295D02*
X75446476Y-32756057D01*
X75446476Y-32756057D02*
X75494095Y-32708438D01*
X75494095Y-32708438D02*
X75589333Y-32660819D01*
X75589333Y-32660819D02*
X75827428Y-32660819D01*
X75827428Y-32660819D02*
X75970285Y-32708438D01*
X76303619Y-32660819D02*
X76541714Y-33660819D01*
X76541714Y-33660819D02*
X76732190Y-32946533D01*
X76732190Y-32946533D02*
X76922666Y-33660819D01*
X76922666Y-33660819D02*
X77160762Y-32660819D01*
X77303619Y-33756057D02*
X78065523Y-33756057D01*
X78303619Y-33660819D02*
X78303619Y-32660819D01*
X78303619Y-32660819D02*
X78541714Y-32660819D01*
X78541714Y-32660819D02*
X78684571Y-32708438D01*
X78684571Y-32708438D02*
X78779809Y-32803676D01*
X78779809Y-32803676D02*
X78827428Y-32898914D01*
X78827428Y-32898914D02*
X78875047Y-33089390D01*
X78875047Y-33089390D02*
X78875047Y-33232247D01*
X78875047Y-33232247D02*
X78827428Y-33422723D01*
X78827428Y-33422723D02*
X78779809Y-33517961D01*
X78779809Y-33517961D02*
X78684571Y-33613200D01*
X78684571Y-33613200D02*
X78541714Y-33660819D01*
X78541714Y-33660819D02*
X78303619Y-33660819D01*
X79303619Y-33660819D02*
X79303619Y-32660819D01*
X79303619Y-32660819D02*
X79684571Y-32660819D01*
X79684571Y-32660819D02*
X79779809Y-32708438D01*
X79779809Y-32708438D02*
X79827428Y-32756057D01*
X79827428Y-32756057D02*
X79875047Y-32851295D01*
X79875047Y-32851295D02*
X79875047Y-32994152D01*
X79875047Y-32994152D02*
X79827428Y-33089390D01*
X79827428Y-33089390D02*
X79779809Y-33137009D01*
X79779809Y-33137009D02*
X79684571Y-33184628D01*
X79684571Y-33184628D02*
X79303619Y-33184628D01*
X80256000Y-33613200D02*
X80398857Y-33660819D01*
X80398857Y-33660819D02*
X80636952Y-33660819D01*
X80636952Y-33660819D02*
X80732190Y-33613200D01*
X80732190Y-33613200D02*
X80779809Y-33565580D01*
X80779809Y-33565580D02*
X80827428Y-33470342D01*
X80827428Y-33470342D02*
X80827428Y-33375104D01*
X80827428Y-33375104D02*
X80779809Y-33279866D01*
X80779809Y-33279866D02*
X80732190Y-33232247D01*
X80732190Y-33232247D02*
X80636952Y-33184628D01*
X80636952Y-33184628D02*
X80446476Y-33137009D01*
X80446476Y-33137009D02*
X80351238Y-33089390D01*
X80351238Y-33089390D02*
X80303619Y-33041771D01*
X80303619Y-33041771D02*
X80256000Y-32946533D01*
X80256000Y-32946533D02*
X80256000Y-32851295D01*
X80256000Y-32851295D02*
X80303619Y-32756057D01*
X80303619Y-32756057D02*
X80351238Y-32708438D01*
X80351238Y-32708438D02*
X80446476Y-32660819D01*
X80446476Y-32660819D02*
X80684571Y-32660819D01*
X80684571Y-32660819D02*
X80827428Y-32708438D01*
X81113143Y-32660819D02*
X81684571Y-32660819D01*
X81398857Y-33660819D02*
X81398857Y-32660819D01*
X81779810Y-33756057D02*
X82541714Y-33756057D01*
X82684572Y-33660819D02*
X83208381Y-32994152D01*
X82684572Y-32994152D02*
X83208381Y-33660819D01*
X83541715Y-32756057D02*
X83589334Y-32708438D01*
X83589334Y-32708438D02*
X83684572Y-32660819D01*
X83684572Y-32660819D02*
X83922667Y-32660819D01*
X83922667Y-32660819D02*
X84017905Y-32708438D01*
X84017905Y-32708438D02*
X84065524Y-32756057D01*
X84065524Y-32756057D02*
X84113143Y-32851295D01*
X84113143Y-32851295D02*
X84113143Y-32946533D01*
X84113143Y-32946533D02*
X84065524Y-33089390D01*
X84065524Y-33089390D02*
X83494096Y-33660819D01*
X83494096Y-33660819D02*
X84113143Y-33660819D01*
X78422667Y-26163200D02*
X78565524Y-26210819D01*
X78565524Y-26210819D02*
X78803619Y-26210819D01*
X78803619Y-26210819D02*
X78898857Y-26163200D01*
X78898857Y-26163200D02*
X78946476Y-26115580D01*
X78946476Y-26115580D02*
X78994095Y-26020342D01*
X78994095Y-26020342D02*
X78994095Y-25925104D01*
X78994095Y-25925104D02*
X78946476Y-25829866D01*
X78946476Y-25829866D02*
X78898857Y-25782247D01*
X78898857Y-25782247D02*
X78803619Y-25734628D01*
X78803619Y-25734628D02*
X78613143Y-25687009D01*
X78613143Y-25687009D02*
X78517905Y-25639390D01*
X78517905Y-25639390D02*
X78470286Y-25591771D01*
X78470286Y-25591771D02*
X78422667Y-25496533D01*
X78422667Y-25496533D02*
X78422667Y-25401295D01*
X78422667Y-25401295D02*
X78470286Y-25306057D01*
X78470286Y-25306057D02*
X78517905Y-25258438D01*
X78517905Y-25258438D02*
X78613143Y-25210819D01*
X78613143Y-25210819D02*
X78851238Y-25210819D01*
X78851238Y-25210819D02*
X78994095Y-25258438D01*
X79327429Y-25210819D02*
X79565524Y-26210819D01*
X79565524Y-26210819D02*
X79756000Y-25496533D01*
X79756000Y-25496533D02*
X79946476Y-26210819D01*
X79946476Y-26210819D02*
X80184572Y-25210819D01*
X80517905Y-25306057D02*
X80565524Y-25258438D01*
X80565524Y-25258438D02*
X80660762Y-25210819D01*
X80660762Y-25210819D02*
X80898857Y-25210819D01*
X80898857Y-25210819D02*
X80994095Y-25258438D01*
X80994095Y-25258438D02*
X81041714Y-25306057D01*
X81041714Y-25306057D02*
X81089333Y-25401295D01*
X81089333Y-25401295D02*
X81089333Y-25496533D01*
X81089333Y-25496533D02*
X81041714Y-25639390D01*
X81041714Y-25639390D02*
X80470286Y-26210819D01*
X80470286Y-26210819D02*
X81089333Y-26210819D01*
D11*
X72965887Y10582334D02*
X72965887Y10353763D01*
X72965887Y10468049D02*
X72565887Y10468049D01*
X72565887Y10468049D02*
X72623030Y10429953D01*
X72623030Y10429953D02*
X72661125Y10391858D01*
X72661125Y10391858D02*
X72680173Y10353763D01*
X72565887Y10829953D02*
X72565887Y10868048D01*
X72565887Y10868048D02*
X72584935Y10906144D01*
X72584935Y10906144D02*
X72603982Y10925191D01*
X72603982Y10925191D02*
X72642078Y10944239D01*
X72642078Y10944239D02*
X72718268Y10963286D01*
X72718268Y10963286D02*
X72813506Y10963286D01*
X72813506Y10963286D02*
X72889697Y10944239D01*
X72889697Y10944239D02*
X72927792Y10925191D01*
X72927792Y10925191D02*
X72946840Y10906144D01*
X72946840Y10906144D02*
X72965887Y10868048D01*
X72965887Y10868048D02*
X72965887Y10829953D01*
X72965887Y10829953D02*
X72946840Y10791858D01*
X72946840Y10791858D02*
X72927792Y10772810D01*
X72927792Y10772810D02*
X72889697Y10753763D01*
X72889697Y10753763D02*
X72813506Y10734715D01*
X72813506Y10734715D02*
X72718268Y10734715D01*
X72718268Y10734715D02*
X72642078Y10753763D01*
X72642078Y10753763D02*
X72603982Y10772810D01*
X72603982Y10772810D02*
X72584935Y10791858D01*
X72584935Y10791858D02*
X72565887Y10829953D01*
X72699220Y11306143D02*
X72965887Y11306143D01*
X72699220Y11134715D02*
X72908744Y11134715D01*
X72908744Y11134715D02*
X72946840Y11153762D01*
X72946840Y11153762D02*
X72965887Y11191857D01*
X72965887Y11191857D02*
X72965887Y11249000D01*
X72965887Y11249000D02*
X72946840Y11287096D01*
X72946840Y11287096D02*
X72927792Y11306143D01*
X72965887Y11496620D02*
X72565887Y11496620D01*
X72756363Y11496620D02*
X72756363Y11725191D01*
X72965887Y11725191D02*
X72565887Y11725191D01*
D10*
X70316571Y3326181D02*
X69745143Y3326181D01*
X70030857Y3326181D02*
X70030857Y4326181D01*
X70030857Y4326181D02*
X69935619Y4183324D01*
X69935619Y4183324D02*
X69840381Y4088086D01*
X69840381Y4088086D02*
X69745143Y4040467D01*
X70935619Y4326181D02*
X71030857Y4326181D01*
X71030857Y4326181D02*
X71126095Y4278562D01*
X71126095Y4278562D02*
X71173714Y4230943D01*
X71173714Y4230943D02*
X71221333Y4135705D01*
X71221333Y4135705D02*
X71268952Y3945229D01*
X71268952Y3945229D02*
X71268952Y3707134D01*
X71268952Y3707134D02*
X71221333Y3516658D01*
X71221333Y3516658D02*
X71173714Y3421420D01*
X71173714Y3421420D02*
X71126095Y3373800D01*
X71126095Y3373800D02*
X71030857Y3326181D01*
X71030857Y3326181D02*
X70935619Y3326181D01*
X70935619Y3326181D02*
X70840381Y3373800D01*
X70840381Y3373800D02*
X70792762Y3421420D01*
X70792762Y3421420D02*
X70745143Y3516658D01*
X70745143Y3516658D02*
X70697524Y3707134D01*
X70697524Y3707134D02*
X70697524Y3945229D01*
X70697524Y3945229D02*
X70745143Y4135705D01*
X70745143Y4135705D02*
X70792762Y4230943D01*
X70792762Y4230943D02*
X70840381Y4278562D01*
X70840381Y4278562D02*
X70935619Y4326181D01*
X72126095Y3992848D02*
X72126095Y3326181D01*
X71697524Y3992848D02*
X71697524Y3469039D01*
X71697524Y3469039D02*
X71745143Y3373800D01*
X71745143Y3373800D02*
X71840381Y3326181D01*
X71840381Y3326181D02*
X71983238Y3326181D01*
X71983238Y3326181D02*
X72078476Y3373800D01*
X72078476Y3373800D02*
X72126095Y3421420D01*
X72935619Y3849991D02*
X72602286Y3849991D01*
X72602286Y3326181D02*
X72602286Y4326181D01*
X72602286Y4326181D02*
X73078476Y4326181D01*
D11*
X71066571Y5281470D02*
X71042762Y5257660D01*
X71042762Y5257660D02*
X70971333Y5233851D01*
X70971333Y5233851D02*
X70923714Y5233851D01*
X70923714Y5233851D02*
X70852286Y5257660D01*
X70852286Y5257660D02*
X70804667Y5305280D01*
X70804667Y5305280D02*
X70780857Y5352899D01*
X70780857Y5352899D02*
X70757048Y5448137D01*
X70757048Y5448137D02*
X70757048Y5519565D01*
X70757048Y5519565D02*
X70780857Y5614803D01*
X70780857Y5614803D02*
X70804667Y5662422D01*
X70804667Y5662422D02*
X70852286Y5710041D01*
X70852286Y5710041D02*
X70923714Y5733851D01*
X70923714Y5733851D02*
X70971333Y5733851D01*
X70971333Y5733851D02*
X71042762Y5710041D01*
X71042762Y5710041D02*
X71066571Y5686232D01*
X71542762Y5233851D02*
X71257048Y5233851D01*
X71399905Y5233851D02*
X71399905Y5733851D01*
X71399905Y5733851D02*
X71352286Y5662422D01*
X71352286Y5662422D02*
X71304667Y5614803D01*
X71304667Y5614803D02*
X71257048Y5590994D01*
X72018952Y5233851D02*
X71733238Y5233851D01*
X71876095Y5233851D02*
X71876095Y5733851D01*
X71876095Y5733851D02*
X71828476Y5662422D01*
X71828476Y5662422D02*
X71780857Y5614803D01*
X71780857Y5614803D02*
X71733238Y5590994D01*
D12*
X60702334Y5155796D02*
X60535667Y5155796D01*
X60535667Y4893891D02*
X60535667Y5393891D01*
X60535667Y5393891D02*
X60773762Y5393891D01*
X60964238Y5393891D02*
X60964238Y4989129D01*
X60964238Y4989129D02*
X60988048Y4941510D01*
X60988048Y4941510D02*
X61011857Y4917700D01*
X61011857Y4917700D02*
X61059476Y4893891D01*
X61059476Y4893891D02*
X61154714Y4893891D01*
X61154714Y4893891D02*
X61202333Y4917700D01*
X61202333Y4917700D02*
X61226143Y4941510D01*
X61226143Y4941510D02*
X61249952Y4989129D01*
X61249952Y4989129D02*
X61249952Y5393891D01*
X61464239Y4917700D02*
X61535667Y4893891D01*
X61535667Y4893891D02*
X61654715Y4893891D01*
X61654715Y4893891D02*
X61702334Y4917700D01*
X61702334Y4917700D02*
X61726143Y4941510D01*
X61726143Y4941510D02*
X61749953Y4989129D01*
X61749953Y4989129D02*
X61749953Y5036748D01*
X61749953Y5036748D02*
X61726143Y5084367D01*
X61726143Y5084367D02*
X61702334Y5108177D01*
X61702334Y5108177D02*
X61654715Y5131986D01*
X61654715Y5131986D02*
X61559477Y5155796D01*
X61559477Y5155796D02*
X61511858Y5179605D01*
X61511858Y5179605D02*
X61488048Y5203415D01*
X61488048Y5203415D02*
X61464239Y5251034D01*
X61464239Y5251034D02*
X61464239Y5298653D01*
X61464239Y5298653D02*
X61488048Y5346272D01*
X61488048Y5346272D02*
X61511858Y5370081D01*
X61511858Y5370081D02*
X61559477Y5393891D01*
X61559477Y5393891D02*
X61678524Y5393891D01*
X61678524Y5393891D02*
X61749953Y5370081D01*
X62130905Y5155796D02*
X62202333Y5131986D01*
X62202333Y5131986D02*
X62226143Y5108177D01*
X62226143Y5108177D02*
X62249952Y5060558D01*
X62249952Y5060558D02*
X62249952Y4989129D01*
X62249952Y4989129D02*
X62226143Y4941510D01*
X62226143Y4941510D02*
X62202333Y4917700D01*
X62202333Y4917700D02*
X62154714Y4893891D01*
X62154714Y4893891D02*
X61964238Y4893891D01*
X61964238Y4893891D02*
X61964238Y5393891D01*
X61964238Y5393891D02*
X62130905Y5393891D01*
X62130905Y5393891D02*
X62178524Y5370081D01*
X62178524Y5370081D02*
X62202333Y5346272D01*
X62202333Y5346272D02*
X62226143Y5298653D01*
X62226143Y5298653D02*
X62226143Y5251034D01*
X62226143Y5251034D02*
X62202333Y5203415D01*
X62202333Y5203415D02*
X62178524Y5179605D01*
X62178524Y5179605D02*
X62130905Y5155796D01*
X62130905Y5155796D02*
X61964238Y5155796D01*
X62416619Y5393891D02*
X62726143Y5393891D01*
X62726143Y5393891D02*
X62559476Y5203415D01*
X62559476Y5203415D02*
X62630905Y5203415D01*
X62630905Y5203415D02*
X62678524Y5179605D01*
X62678524Y5179605D02*
X62702333Y5155796D01*
X62702333Y5155796D02*
X62726143Y5108177D01*
X62726143Y5108177D02*
X62726143Y4989129D01*
X62726143Y4989129D02*
X62702333Y4941510D01*
X62702333Y4941510D02*
X62678524Y4917700D01*
X62678524Y4917700D02*
X62630905Y4893891D01*
X62630905Y4893891D02*
X62488048Y4893891D01*
X62488048Y4893891D02*
X62440429Y4917700D01*
X62440429Y4917700D02*
X62416619Y4941510D01*
X63035666Y5393891D02*
X63083285Y5393891D01*
X63083285Y5393891D02*
X63130904Y5370081D01*
X63130904Y5370081D02*
X63154714Y5346272D01*
X63154714Y5346272D02*
X63178523Y5298653D01*
X63178523Y5298653D02*
X63202333Y5203415D01*
X63202333Y5203415D02*
X63202333Y5084367D01*
X63202333Y5084367D02*
X63178523Y4989129D01*
X63178523Y4989129D02*
X63154714Y4941510D01*
X63154714Y4941510D02*
X63130904Y4917700D01*
X63130904Y4917700D02*
X63083285Y4893891D01*
X63083285Y4893891D02*
X63035666Y4893891D01*
X63035666Y4893891D02*
X62988047Y4917700D01*
X62988047Y4917700D02*
X62964238Y4941510D01*
X62964238Y4941510D02*
X62940428Y4989129D01*
X62940428Y4989129D02*
X62916619Y5084367D01*
X62916619Y5084367D02*
X62916619Y5203415D01*
X62916619Y5203415D02*
X62940428Y5298653D01*
X62940428Y5298653D02*
X62964238Y5346272D01*
X62964238Y5346272D02*
X62988047Y5370081D01*
X62988047Y5370081D02*
X63035666Y5393891D01*
X63392809Y5346272D02*
X63416618Y5370081D01*
X63416618Y5370081D02*
X63464237Y5393891D01*
X63464237Y5393891D02*
X63583285Y5393891D01*
X63583285Y5393891D02*
X63630904Y5370081D01*
X63630904Y5370081D02*
X63654713Y5346272D01*
X63654713Y5346272D02*
X63678523Y5298653D01*
X63678523Y5298653D02*
X63678523Y5251034D01*
X63678523Y5251034D02*
X63654713Y5179605D01*
X63654713Y5179605D02*
X63368999Y4893891D01*
X63368999Y4893891D02*
X63678523Y4893891D01*
X64059475Y5155796D02*
X64130903Y5131986D01*
X64130903Y5131986D02*
X64154713Y5108177D01*
X64154713Y5108177D02*
X64178522Y5060558D01*
X64178522Y5060558D02*
X64178522Y4989129D01*
X64178522Y4989129D02*
X64154713Y4941510D01*
X64154713Y4941510D02*
X64130903Y4917700D01*
X64130903Y4917700D02*
X64083284Y4893891D01*
X64083284Y4893891D02*
X63892808Y4893891D01*
X63892808Y4893891D02*
X63892808Y5393891D01*
X63892808Y5393891D02*
X64059475Y5393891D01*
X64059475Y5393891D02*
X64107094Y5370081D01*
X64107094Y5370081D02*
X64130903Y5346272D01*
X64130903Y5346272D02*
X64154713Y5298653D01*
X64154713Y5298653D02*
X64154713Y5251034D01*
X64154713Y5251034D02*
X64130903Y5203415D01*
X64130903Y5203415D02*
X64107094Y5179605D01*
X64107094Y5179605D02*
X64059475Y5155796D01*
X64059475Y5155796D02*
X63892808Y5155796D01*
X64392808Y4893891D02*
X64392808Y5393891D01*
X64392808Y5393891D02*
X64559475Y5036748D01*
X64559475Y5036748D02*
X64726141Y5393891D01*
X64726141Y5393891D02*
X64726141Y4893891D01*
X64964237Y4893891D02*
X64964237Y5393891D01*
X64964237Y5393891D02*
X65154713Y5393891D01*
X65154713Y5393891D02*
X65202332Y5370081D01*
X65202332Y5370081D02*
X65226142Y5346272D01*
X65226142Y5346272D02*
X65249951Y5298653D01*
X65249951Y5298653D02*
X65249951Y5227224D01*
X65249951Y5227224D02*
X65226142Y5179605D01*
X65226142Y5179605D02*
X65202332Y5155796D01*
X65202332Y5155796D02*
X65154713Y5131986D01*
X65154713Y5131986D02*
X64964237Y5131986D01*
X65416618Y5393891D02*
X65749951Y4893891D01*
X65749951Y5393891D02*
X65416618Y4893891D01*
D10*
X52316333Y11369181D02*
X52935380Y11369181D01*
X52935380Y11369181D02*
X52602047Y10988229D01*
X52602047Y10988229D02*
X52744904Y10988229D01*
X52744904Y10988229D02*
X52840142Y10940610D01*
X52840142Y10940610D02*
X52887761Y10892991D01*
X52887761Y10892991D02*
X52935380Y10797753D01*
X52935380Y10797753D02*
X52935380Y10559658D01*
X52935380Y10559658D02*
X52887761Y10464420D01*
X52887761Y10464420D02*
X52840142Y10416800D01*
X52840142Y10416800D02*
X52744904Y10369181D01*
X52744904Y10369181D02*
X52459190Y10369181D01*
X52459190Y10369181D02*
X52363952Y10416800D01*
X52363952Y10416800D02*
X52316333Y10464420D01*
X53268714Y11369181D02*
X53887761Y11369181D01*
X53887761Y11369181D02*
X53554428Y10988229D01*
X53554428Y10988229D02*
X53697285Y10988229D01*
X53697285Y10988229D02*
X53792523Y10940610D01*
X53792523Y10940610D02*
X53840142Y10892991D01*
X53840142Y10892991D02*
X53887761Y10797753D01*
X53887761Y10797753D02*
X53887761Y10559658D01*
X53887761Y10559658D02*
X53840142Y10464420D01*
X53840142Y10464420D02*
X53792523Y10416800D01*
X53792523Y10416800D02*
X53697285Y10369181D01*
X53697285Y10369181D02*
X53411571Y10369181D01*
X53411571Y10369181D02*
X53316333Y10416800D01*
X53316333Y10416800D02*
X53268714Y10464420D01*
X54506809Y11369181D02*
X54602047Y11369181D01*
X54602047Y11369181D02*
X54697285Y11321562D01*
X54697285Y11321562D02*
X54744904Y11273943D01*
X54744904Y11273943D02*
X54792523Y11178705D01*
X54792523Y11178705D02*
X54840142Y10988229D01*
X54840142Y10988229D02*
X54840142Y10750134D01*
X54840142Y10750134D02*
X54792523Y10559658D01*
X54792523Y10559658D02*
X54744904Y10464420D01*
X54744904Y10464420D02*
X54697285Y10416800D01*
X54697285Y10416800D02*
X54602047Y10369181D01*
X54602047Y10369181D02*
X54506809Y10369181D01*
X54506809Y10369181D02*
X54411571Y10416800D01*
X54411571Y10416800D02*
X54363952Y10464420D01*
X54363952Y10464420D02*
X54316333Y10559658D01*
X54316333Y10559658D02*
X54268714Y10750134D01*
X54268714Y10750134D02*
X54268714Y10988229D01*
X54268714Y10988229D02*
X54316333Y11178705D01*
X54316333Y11178705D02*
X54363952Y11273943D01*
X54363952Y11273943D02*
X54411571Y11321562D01*
X54411571Y11321562D02*
X54506809Y11369181D01*
X55268714Y11035848D02*
X55268714Y10035848D01*
X55268714Y10988229D02*
X55363952Y11035848D01*
X55363952Y11035848D02*
X55554428Y11035848D01*
X55554428Y11035848D02*
X55649666Y10988229D01*
X55649666Y10988229D02*
X55697285Y10940610D01*
X55697285Y10940610D02*
X55744904Y10845372D01*
X55744904Y10845372D02*
X55744904Y10559658D01*
X55744904Y10559658D02*
X55697285Y10464420D01*
X55697285Y10464420D02*
X55649666Y10416800D01*
X55649666Y10416800D02*
X55554428Y10369181D01*
X55554428Y10369181D02*
X55363952Y10369181D01*
X55363952Y10369181D02*
X55268714Y10416800D01*
X56506809Y10892991D02*
X56173476Y10892991D01*
X56173476Y10369181D02*
X56173476Y11369181D01*
X56173476Y11369181D02*
X56649666Y11369181D01*
D11*
X54399666Y8964470D02*
X54375857Y8940660D01*
X54375857Y8940660D02*
X54304428Y8916851D01*
X54304428Y8916851D02*
X54256809Y8916851D01*
X54256809Y8916851D02*
X54185381Y8940660D01*
X54185381Y8940660D02*
X54137762Y8988280D01*
X54137762Y8988280D02*
X54113952Y9035899D01*
X54113952Y9035899D02*
X54090143Y9131137D01*
X54090143Y9131137D02*
X54090143Y9202565D01*
X54090143Y9202565D02*
X54113952Y9297803D01*
X54113952Y9297803D02*
X54137762Y9345422D01*
X54137762Y9345422D02*
X54185381Y9393041D01*
X54185381Y9393041D02*
X54256809Y9416851D01*
X54256809Y9416851D02*
X54304428Y9416851D01*
X54304428Y9416851D02*
X54375857Y9393041D01*
X54375857Y9393041D02*
X54399666Y9369232D01*
X54566333Y9416851D02*
X54875857Y9416851D01*
X54875857Y9416851D02*
X54709190Y9226375D01*
X54709190Y9226375D02*
X54780619Y9226375D01*
X54780619Y9226375D02*
X54828238Y9202565D01*
X54828238Y9202565D02*
X54852047Y9178756D01*
X54852047Y9178756D02*
X54875857Y9131137D01*
X54875857Y9131137D02*
X54875857Y9012089D01*
X54875857Y9012089D02*
X54852047Y8964470D01*
X54852047Y8964470D02*
X54828238Y8940660D01*
X54828238Y8940660D02*
X54780619Y8916851D01*
X54780619Y8916851D02*
X54637762Y8916851D01*
X54637762Y8916851D02*
X54590143Y8940660D01*
X54590143Y8940660D02*
X54566333Y8964470D01*
D10*
X80764476Y-9804819D02*
X81002571Y-10804819D01*
X81002571Y-10804819D02*
X81193047Y-10090533D01*
X81193047Y-10090533D02*
X81383523Y-10804819D01*
X81383523Y-10804819D02*
X81621619Y-9804819D01*
X81954952Y-10757200D02*
X82097809Y-10804819D01*
X82097809Y-10804819D02*
X82335904Y-10804819D01*
X82335904Y-10804819D02*
X82431142Y-10757200D01*
X82431142Y-10757200D02*
X82478761Y-10709580D01*
X82478761Y-10709580D02*
X82526380Y-10614342D01*
X82526380Y-10614342D02*
X82526380Y-10519104D01*
X82526380Y-10519104D02*
X82478761Y-10423866D01*
X82478761Y-10423866D02*
X82431142Y-10376247D01*
X82431142Y-10376247D02*
X82335904Y-10328628D01*
X82335904Y-10328628D02*
X82145428Y-10281009D01*
X82145428Y-10281009D02*
X82050190Y-10233390D01*
X82050190Y-10233390D02*
X82002571Y-10185771D01*
X82002571Y-10185771D02*
X81954952Y-10090533D01*
X81954952Y-10090533D02*
X81954952Y-9995295D01*
X81954952Y-9995295D02*
X82002571Y-9900057D01*
X82002571Y-9900057D02*
X82050190Y-9852438D01*
X82050190Y-9852438D02*
X82145428Y-9804819D01*
X82145428Y-9804819D02*
X82383523Y-9804819D01*
X82383523Y-9804819D02*
X82526380Y-9852438D01*
X82907333Y-9900057D02*
X82954952Y-9852438D01*
X82954952Y-9852438D02*
X83050190Y-9804819D01*
X83050190Y-9804819D02*
X83288285Y-9804819D01*
X83288285Y-9804819D02*
X83383523Y-9852438D01*
X83383523Y-9852438D02*
X83431142Y-9900057D01*
X83431142Y-9900057D02*
X83478761Y-9995295D01*
X83478761Y-9995295D02*
X83478761Y-10090533D01*
X83478761Y-10090533D02*
X83431142Y-10233390D01*
X83431142Y-10233390D02*
X82859714Y-10804819D01*
X82859714Y-10804819D02*
X83478761Y-10804819D01*
X84050190Y-10233390D02*
X83954952Y-10185771D01*
X83954952Y-10185771D02*
X83907333Y-10138152D01*
X83907333Y-10138152D02*
X83859714Y-10042914D01*
X83859714Y-10042914D02*
X83859714Y-9995295D01*
X83859714Y-9995295D02*
X83907333Y-9900057D01*
X83907333Y-9900057D02*
X83954952Y-9852438D01*
X83954952Y-9852438D02*
X84050190Y-9804819D01*
X84050190Y-9804819D02*
X84240666Y-9804819D01*
X84240666Y-9804819D02*
X84335904Y-9852438D01*
X84335904Y-9852438D02*
X84383523Y-9900057D01*
X84383523Y-9900057D02*
X84431142Y-9995295D01*
X84431142Y-9995295D02*
X84431142Y-10042914D01*
X84431142Y-10042914D02*
X84383523Y-10138152D01*
X84383523Y-10138152D02*
X84335904Y-10185771D01*
X84335904Y-10185771D02*
X84240666Y-10233390D01*
X84240666Y-10233390D02*
X84050190Y-10233390D01*
X84050190Y-10233390D02*
X83954952Y-10281009D01*
X83954952Y-10281009D02*
X83907333Y-10328628D01*
X83907333Y-10328628D02*
X83859714Y-10423866D01*
X83859714Y-10423866D02*
X83859714Y-10614342D01*
X83859714Y-10614342D02*
X83907333Y-10709580D01*
X83907333Y-10709580D02*
X83954952Y-10757200D01*
X83954952Y-10757200D02*
X84050190Y-10804819D01*
X84050190Y-10804819D02*
X84240666Y-10804819D01*
X84240666Y-10804819D02*
X84335904Y-10757200D01*
X84335904Y-10757200D02*
X84383523Y-10709580D01*
X84383523Y-10709580D02*
X84431142Y-10614342D01*
X84431142Y-10614342D02*
X84431142Y-10423866D01*
X84431142Y-10423866D02*
X84383523Y-10328628D01*
X84383523Y-10328628D02*
X84335904Y-10281009D01*
X84335904Y-10281009D02*
X84240666Y-10233390D01*
X85383523Y-10804819D02*
X84812095Y-10804819D01*
X85097809Y-10804819D02*
X85097809Y-9804819D01*
X85097809Y-9804819D02*
X85002571Y-9947676D01*
X85002571Y-9947676D02*
X84907333Y-10042914D01*
X84907333Y-10042914D02*
X84812095Y-10090533D01*
X85764476Y-9900057D02*
X85812095Y-9852438D01*
X85812095Y-9852438D02*
X85907333Y-9804819D01*
X85907333Y-9804819D02*
X86145428Y-9804819D01*
X86145428Y-9804819D02*
X86240666Y-9852438D01*
X86240666Y-9852438D02*
X86288285Y-9900057D01*
X86288285Y-9900057D02*
X86335904Y-9995295D01*
X86335904Y-9995295D02*
X86335904Y-10090533D01*
X86335904Y-10090533D02*
X86288285Y-10233390D01*
X86288285Y-10233390D02*
X85716857Y-10804819D01*
X85716857Y-10804819D02*
X86335904Y-10804819D01*
X87097809Y-10281009D02*
X87240666Y-10328628D01*
X87240666Y-10328628D02*
X87288285Y-10376247D01*
X87288285Y-10376247D02*
X87335904Y-10471485D01*
X87335904Y-10471485D02*
X87335904Y-10614342D01*
X87335904Y-10614342D02*
X87288285Y-10709580D01*
X87288285Y-10709580D02*
X87240666Y-10757200D01*
X87240666Y-10757200D02*
X87145428Y-10804819D01*
X87145428Y-10804819D02*
X86764476Y-10804819D01*
X86764476Y-10804819D02*
X86764476Y-9804819D01*
X86764476Y-9804819D02*
X87097809Y-9804819D01*
X87097809Y-9804819D02*
X87193047Y-9852438D01*
X87193047Y-9852438D02*
X87240666Y-9900057D01*
X87240666Y-9900057D02*
X87288285Y-9995295D01*
X87288285Y-9995295D02*
X87288285Y-10090533D01*
X87288285Y-10090533D02*
X87240666Y-10185771D01*
X87240666Y-10185771D02*
X87193047Y-10233390D01*
X87193047Y-10233390D02*
X87097809Y-10281009D01*
X87097809Y-10281009D02*
X86764476Y-10281009D01*
X83483524Y-6712295D02*
X83483524Y-5912295D01*
X83483524Y-5912295D02*
X83674000Y-5912295D01*
X83674000Y-5912295D02*
X83788286Y-5950390D01*
X83788286Y-5950390D02*
X83864476Y-6026580D01*
X83864476Y-6026580D02*
X83902571Y-6102771D01*
X83902571Y-6102771D02*
X83940667Y-6255152D01*
X83940667Y-6255152D02*
X83940667Y-6369438D01*
X83940667Y-6369438D02*
X83902571Y-6521819D01*
X83902571Y-6521819D02*
X83864476Y-6598009D01*
X83864476Y-6598009D02*
X83788286Y-6674200D01*
X83788286Y-6674200D02*
X83674000Y-6712295D01*
X83674000Y-6712295D02*
X83483524Y-6712295D01*
X84245428Y-5988485D02*
X84283524Y-5950390D01*
X84283524Y-5950390D02*
X84359714Y-5912295D01*
X84359714Y-5912295D02*
X84550190Y-5912295D01*
X84550190Y-5912295D02*
X84626381Y-5950390D01*
X84626381Y-5950390D02*
X84664476Y-5988485D01*
X84664476Y-5988485D02*
X84702571Y-6064676D01*
X84702571Y-6064676D02*
X84702571Y-6140866D01*
X84702571Y-6140866D02*
X84664476Y-6255152D01*
X84664476Y-6255152D02*
X84207333Y-6712295D01*
X84207333Y-6712295D02*
X84702571Y-6712295D01*
D12*
X79325668Y3937700D02*
X79397096Y3913891D01*
X79397096Y3913891D02*
X79516144Y3913891D01*
X79516144Y3913891D02*
X79563763Y3937700D01*
X79563763Y3937700D02*
X79587572Y3961510D01*
X79587572Y3961510D02*
X79611382Y4009129D01*
X79611382Y4009129D02*
X79611382Y4056748D01*
X79611382Y4056748D02*
X79587572Y4104367D01*
X79587572Y4104367D02*
X79563763Y4128177D01*
X79563763Y4128177D02*
X79516144Y4151986D01*
X79516144Y4151986D02*
X79420906Y4175796D01*
X79420906Y4175796D02*
X79373287Y4199605D01*
X79373287Y4199605D02*
X79349477Y4223415D01*
X79349477Y4223415D02*
X79325668Y4271034D01*
X79325668Y4271034D02*
X79325668Y4318653D01*
X79325668Y4318653D02*
X79349477Y4366272D01*
X79349477Y4366272D02*
X79373287Y4390081D01*
X79373287Y4390081D02*
X79420906Y4413891D01*
X79420906Y4413891D02*
X79539953Y4413891D01*
X79539953Y4413891D02*
X79611382Y4390081D01*
X79825667Y3913891D02*
X79825667Y4413891D01*
X79825667Y4413891D02*
X79992334Y4056748D01*
X79992334Y4056748D02*
X80159000Y4413891D01*
X80159000Y4413891D02*
X80159000Y3913891D01*
X80563763Y4175796D02*
X80397096Y4175796D01*
X80397096Y3913891D02*
X80397096Y4413891D01*
X80397096Y4413891D02*
X80635191Y4413891D01*
X80801858Y4366272D02*
X80825667Y4390081D01*
X80825667Y4390081D02*
X80873286Y4413891D01*
X80873286Y4413891D02*
X80992334Y4413891D01*
X80992334Y4413891D02*
X81039953Y4390081D01*
X81039953Y4390081D02*
X81063762Y4366272D01*
X81063762Y4366272D02*
X81087572Y4318653D01*
X81087572Y4318653D02*
X81087572Y4271034D01*
X81087572Y4271034D02*
X81063762Y4199605D01*
X81063762Y4199605D02*
X80778048Y3913891D01*
X80778048Y3913891D02*
X81087572Y3913891D01*
X81278048Y4366272D02*
X81301857Y4390081D01*
X81301857Y4390081D02*
X81349476Y4413891D01*
X81349476Y4413891D02*
X81468524Y4413891D01*
X81468524Y4413891D02*
X81516143Y4390081D01*
X81516143Y4390081D02*
X81539952Y4366272D01*
X81539952Y4366272D02*
X81563762Y4318653D01*
X81563762Y4318653D02*
X81563762Y4271034D01*
X81563762Y4271034D02*
X81539952Y4199605D01*
X81539952Y4199605D02*
X81254238Y3913891D01*
X81254238Y3913891D02*
X81563762Y3913891D01*
X81754238Y4056748D02*
X81992333Y4056748D01*
X81706619Y3913891D02*
X81873285Y4413891D01*
X81873285Y4413891D02*
X82039952Y3913891D01*
D10*
X55869819Y10723857D02*
X55869819Y10152429D01*
X55869819Y10438143D02*
X54869819Y10438143D01*
X54869819Y10438143D02*
X55012676Y10342905D01*
X55012676Y10342905D02*
X55107914Y10247667D01*
X55107914Y10247667D02*
X55155533Y10152429D01*
X55203152Y11581000D02*
X55869819Y11581000D01*
X55203152Y11152429D02*
X55726961Y11152429D01*
X55726961Y11152429D02*
X55822200Y11200048D01*
X55822200Y11200048D02*
X55869819Y11295286D01*
X55869819Y11295286D02*
X55869819Y11438143D01*
X55869819Y11438143D02*
X55822200Y11533381D01*
X55822200Y11533381D02*
X55774580Y11581000D01*
X55346009Y12390524D02*
X55346009Y12057191D01*
X55869819Y12057191D02*
X54869819Y12057191D01*
X54869819Y12057191D02*
X54869819Y12533381D01*
X54869819Y14152429D02*
X54869819Y13676239D01*
X54869819Y13676239D02*
X55346009Y13628620D01*
X55346009Y13628620D02*
X55298390Y13676239D01*
X55298390Y13676239D02*
X55250771Y13771477D01*
X55250771Y13771477D02*
X55250771Y14009572D01*
X55250771Y14009572D02*
X55298390Y14104810D01*
X55298390Y14104810D02*
X55346009Y14152429D01*
X55346009Y14152429D02*
X55441247Y14200048D01*
X55441247Y14200048D02*
X55679342Y14200048D01*
X55679342Y14200048D02*
X55774580Y14152429D01*
X55774580Y14152429D02*
X55822200Y14104810D01*
X55822200Y14104810D02*
X55869819Y14009572D01*
X55869819Y14009572D02*
X55869819Y13771477D01*
X55869819Y13771477D02*
X55822200Y13676239D01*
X55822200Y13676239D02*
X55774580Y13628620D01*
X54869819Y14819096D02*
X54869819Y14914334D01*
X54869819Y14914334D02*
X54917438Y15009572D01*
X54917438Y15009572D02*
X54965057Y15057191D01*
X54965057Y15057191D02*
X55060295Y15104810D01*
X55060295Y15104810D02*
X55250771Y15152429D01*
X55250771Y15152429D02*
X55488866Y15152429D01*
X55488866Y15152429D02*
X55679342Y15104810D01*
X55679342Y15104810D02*
X55774580Y15057191D01*
X55774580Y15057191D02*
X55822200Y15009572D01*
X55822200Y15009572D02*
X55869819Y14914334D01*
X55869819Y14914334D02*
X55869819Y14819096D01*
X55869819Y14819096D02*
X55822200Y14723858D01*
X55822200Y14723858D02*
X55774580Y14676239D01*
X55774580Y14676239D02*
X55679342Y14628620D01*
X55679342Y14628620D02*
X55488866Y14581001D01*
X55488866Y14581001D02*
X55250771Y14581001D01*
X55250771Y14581001D02*
X55060295Y14628620D01*
X55060295Y14628620D02*
X54965057Y14676239D01*
X54965057Y14676239D02*
X54917438Y14723858D01*
X54917438Y14723858D02*
X54869819Y14819096D01*
X54869819Y15438144D02*
X55869819Y15771477D01*
X55869819Y15771477D02*
X54869819Y16104810D01*
D11*
X53914530Y12997667D02*
X53938340Y12973858D01*
X53938340Y12973858D02*
X53962149Y12902429D01*
X53962149Y12902429D02*
X53962149Y12854810D01*
X53962149Y12854810D02*
X53938340Y12783382D01*
X53938340Y12783382D02*
X53890720Y12735763D01*
X53890720Y12735763D02*
X53843101Y12711953D01*
X53843101Y12711953D02*
X53747863Y12688144D01*
X53747863Y12688144D02*
X53676435Y12688144D01*
X53676435Y12688144D02*
X53581197Y12711953D01*
X53581197Y12711953D02*
X53533578Y12735763D01*
X53533578Y12735763D02*
X53485959Y12783382D01*
X53485959Y12783382D02*
X53462149Y12854810D01*
X53462149Y12854810D02*
X53462149Y12902429D01*
X53462149Y12902429D02*
X53485959Y12973858D01*
X53485959Y12973858D02*
X53509768Y12997667D01*
X53628816Y13426239D02*
X53962149Y13426239D01*
X53438340Y13307191D02*
X53795482Y13188144D01*
X53795482Y13188144D02*
X53795482Y13497667D01*
D13*
X58795900Y6641429D02*
X58810185Y6684286D01*
X58810185Y6684286D02*
X58810185Y6755715D01*
X58810185Y6755715D02*
X58795900Y6784286D01*
X58795900Y6784286D02*
X58781614Y6798572D01*
X58781614Y6798572D02*
X58753042Y6812858D01*
X58753042Y6812858D02*
X58724471Y6812858D01*
X58724471Y6812858D02*
X58695900Y6798572D01*
X58695900Y6798572D02*
X58681614Y6784286D01*
X58681614Y6784286D02*
X58667328Y6755715D01*
X58667328Y6755715D02*
X58653042Y6698572D01*
X58653042Y6698572D02*
X58638757Y6670001D01*
X58638757Y6670001D02*
X58624471Y6655715D01*
X58624471Y6655715D02*
X58595900Y6641429D01*
X58595900Y6641429D02*
X58567328Y6641429D01*
X58567328Y6641429D02*
X58538757Y6655715D01*
X58538757Y6655715D02*
X58524471Y6670001D01*
X58524471Y6670001D02*
X58510185Y6698572D01*
X58510185Y6698572D02*
X58510185Y6770001D01*
X58510185Y6770001D02*
X58524471Y6812858D01*
X58810185Y7112858D02*
X58667328Y7012858D01*
X58810185Y6941429D02*
X58510185Y6941429D01*
X58510185Y6941429D02*
X58510185Y7055715D01*
X58510185Y7055715D02*
X58524471Y7084286D01*
X58524471Y7084286D02*
X58538757Y7098572D01*
X58538757Y7098572D02*
X58567328Y7112858D01*
X58567328Y7112858D02*
X58610185Y7112858D01*
X58610185Y7112858D02*
X58638757Y7098572D01*
X58638757Y7098572D02*
X58653042Y7084286D01*
X58653042Y7084286D02*
X58667328Y7055715D01*
X58667328Y7055715D02*
X58667328Y6941429D01*
X58510185Y7198572D02*
X58810185Y7298572D01*
X58810185Y7298572D02*
X58510185Y7398572D01*
X58510185Y7555715D02*
X58510185Y7584286D01*
X58510185Y7584286D02*
X58524471Y7612858D01*
X58524471Y7612858D02*
X58538757Y7627143D01*
X58538757Y7627143D02*
X58567328Y7641429D01*
X58567328Y7641429D02*
X58624471Y7655715D01*
X58624471Y7655715D02*
X58695900Y7655715D01*
X58695900Y7655715D02*
X58753042Y7641429D01*
X58753042Y7641429D02*
X58781614Y7627143D01*
X58781614Y7627143D02*
X58795900Y7612858D01*
X58795900Y7612858D02*
X58810185Y7584286D01*
X58810185Y7584286D02*
X58810185Y7555715D01*
X58810185Y7555715D02*
X58795900Y7527143D01*
X58795900Y7527143D02*
X58781614Y7512858D01*
X58781614Y7512858D02*
X58753042Y7498572D01*
X58753042Y7498572D02*
X58695900Y7484286D01*
X58695900Y7484286D02*
X58624471Y7484286D01*
X58624471Y7484286D02*
X58567328Y7498572D01*
X58567328Y7498572D02*
X58538757Y7512858D01*
X58538757Y7512858D02*
X58524471Y7527143D01*
X58524471Y7527143D02*
X58510185Y7555715D01*
X58510185Y7927143D02*
X58510185Y7784286D01*
X58510185Y7784286D02*
X58653042Y7770000D01*
X58653042Y7770000D02*
X58638757Y7784286D01*
X58638757Y7784286D02*
X58624471Y7812857D01*
X58624471Y7812857D02*
X58624471Y7884286D01*
X58624471Y7884286D02*
X58638757Y7912857D01*
X58638757Y7912857D02*
X58653042Y7927143D01*
X58653042Y7927143D02*
X58681614Y7941429D01*
X58681614Y7941429D02*
X58753042Y7941429D01*
X58753042Y7941429D02*
X58781614Y7927143D01*
X58781614Y7927143D02*
X58795900Y7912857D01*
X58795900Y7912857D02*
X58810185Y7884286D01*
X58810185Y7884286D02*
X58810185Y7812857D01*
X58810185Y7812857D02*
X58795900Y7784286D01*
X58795900Y7784286D02*
X58781614Y7770000D01*
X58695900Y8070000D02*
X58695900Y8298571D01*
X58610185Y8570000D02*
X58810185Y8570000D01*
X58495900Y8498572D02*
X58710185Y8427143D01*
X58710185Y8427143D02*
X58710185Y8612858D01*
D10*
X52316333Y8321181D02*
X52935380Y8321181D01*
X52935380Y8321181D02*
X52602047Y7940229D01*
X52602047Y7940229D02*
X52744904Y7940229D01*
X52744904Y7940229D02*
X52840142Y7892610D01*
X52840142Y7892610D02*
X52887761Y7844991D01*
X52887761Y7844991D02*
X52935380Y7749753D01*
X52935380Y7749753D02*
X52935380Y7511658D01*
X52935380Y7511658D02*
X52887761Y7416420D01*
X52887761Y7416420D02*
X52840142Y7368800D01*
X52840142Y7368800D02*
X52744904Y7321181D01*
X52744904Y7321181D02*
X52459190Y7321181D01*
X52459190Y7321181D02*
X52363952Y7368800D01*
X52363952Y7368800D02*
X52316333Y7416420D01*
X53268714Y8321181D02*
X53887761Y8321181D01*
X53887761Y8321181D02*
X53554428Y7940229D01*
X53554428Y7940229D02*
X53697285Y7940229D01*
X53697285Y7940229D02*
X53792523Y7892610D01*
X53792523Y7892610D02*
X53840142Y7844991D01*
X53840142Y7844991D02*
X53887761Y7749753D01*
X53887761Y7749753D02*
X53887761Y7511658D01*
X53887761Y7511658D02*
X53840142Y7416420D01*
X53840142Y7416420D02*
X53792523Y7368800D01*
X53792523Y7368800D02*
X53697285Y7321181D01*
X53697285Y7321181D02*
X53411571Y7321181D01*
X53411571Y7321181D02*
X53316333Y7368800D01*
X53316333Y7368800D02*
X53268714Y7416420D01*
X54506809Y8321181D02*
X54602047Y8321181D01*
X54602047Y8321181D02*
X54697285Y8273562D01*
X54697285Y8273562D02*
X54744904Y8225943D01*
X54744904Y8225943D02*
X54792523Y8130705D01*
X54792523Y8130705D02*
X54840142Y7940229D01*
X54840142Y7940229D02*
X54840142Y7702134D01*
X54840142Y7702134D02*
X54792523Y7511658D01*
X54792523Y7511658D02*
X54744904Y7416420D01*
X54744904Y7416420D02*
X54697285Y7368800D01*
X54697285Y7368800D02*
X54602047Y7321181D01*
X54602047Y7321181D02*
X54506809Y7321181D01*
X54506809Y7321181D02*
X54411571Y7368800D01*
X54411571Y7368800D02*
X54363952Y7416420D01*
X54363952Y7416420D02*
X54316333Y7511658D01*
X54316333Y7511658D02*
X54268714Y7702134D01*
X54268714Y7702134D02*
X54268714Y7940229D01*
X54268714Y7940229D02*
X54316333Y8130705D01*
X54316333Y8130705D02*
X54363952Y8225943D01*
X54363952Y8225943D02*
X54411571Y8273562D01*
X54411571Y8273562D02*
X54506809Y8321181D01*
X55268714Y7987848D02*
X55268714Y6987848D01*
X55268714Y7940229D02*
X55363952Y7987848D01*
X55363952Y7987848D02*
X55554428Y7987848D01*
X55554428Y7987848D02*
X55649666Y7940229D01*
X55649666Y7940229D02*
X55697285Y7892610D01*
X55697285Y7892610D02*
X55744904Y7797372D01*
X55744904Y7797372D02*
X55744904Y7511658D01*
X55744904Y7511658D02*
X55697285Y7416420D01*
X55697285Y7416420D02*
X55649666Y7368800D01*
X55649666Y7368800D02*
X55554428Y7321181D01*
X55554428Y7321181D02*
X55363952Y7321181D01*
X55363952Y7321181D02*
X55268714Y7368800D01*
X56506809Y7844991D02*
X56173476Y7844991D01*
X56173476Y7321181D02*
X56173476Y8321181D01*
X56173476Y8321181D02*
X56649666Y8321181D01*
D11*
X54399666Y5916470D02*
X54375857Y5892660D01*
X54375857Y5892660D02*
X54304428Y5868851D01*
X54304428Y5868851D02*
X54256809Y5868851D01*
X54256809Y5868851D02*
X54185381Y5892660D01*
X54185381Y5892660D02*
X54137762Y5940280D01*
X54137762Y5940280D02*
X54113952Y5987899D01*
X54113952Y5987899D02*
X54090143Y6083137D01*
X54090143Y6083137D02*
X54090143Y6154565D01*
X54090143Y6154565D02*
X54113952Y6249803D01*
X54113952Y6249803D02*
X54137762Y6297422D01*
X54137762Y6297422D02*
X54185381Y6345041D01*
X54185381Y6345041D02*
X54256809Y6368851D01*
X54256809Y6368851D02*
X54304428Y6368851D01*
X54304428Y6368851D02*
X54375857Y6345041D01*
X54375857Y6345041D02*
X54399666Y6321232D01*
X54852047Y6368851D02*
X54613952Y6368851D01*
X54613952Y6368851D02*
X54590143Y6130756D01*
X54590143Y6130756D02*
X54613952Y6154565D01*
X54613952Y6154565D02*
X54661571Y6178375D01*
X54661571Y6178375D02*
X54780619Y6178375D01*
X54780619Y6178375D02*
X54828238Y6154565D01*
X54828238Y6154565D02*
X54852047Y6130756D01*
X54852047Y6130756D02*
X54875857Y6083137D01*
X54875857Y6083137D02*
X54875857Y5964089D01*
X54875857Y5964089D02*
X54852047Y5916470D01*
X54852047Y5916470D02*
X54828238Y5892660D01*
X54828238Y5892660D02*
X54780619Y5868851D01*
X54780619Y5868851D02*
X54661571Y5868851D01*
X54661571Y5868851D02*
X54613952Y5892660D01*
X54613952Y5892660D02*
X54590143Y5916470D01*
D10*
X94505200Y-19157785D02*
X94552819Y-19014928D01*
X94552819Y-19014928D02*
X94552819Y-18776833D01*
X94552819Y-18776833D02*
X94505200Y-18681595D01*
X94505200Y-18681595D02*
X94457580Y-18633976D01*
X94457580Y-18633976D02*
X94362342Y-18586357D01*
X94362342Y-18586357D02*
X94267104Y-18586357D01*
X94267104Y-18586357D02*
X94171866Y-18633976D01*
X94171866Y-18633976D02*
X94124247Y-18681595D01*
X94124247Y-18681595D02*
X94076628Y-18776833D01*
X94076628Y-18776833D02*
X94029009Y-18967309D01*
X94029009Y-18967309D02*
X93981390Y-19062547D01*
X93981390Y-19062547D02*
X93933771Y-19110166D01*
X93933771Y-19110166D02*
X93838533Y-19157785D01*
X93838533Y-19157785D02*
X93743295Y-19157785D01*
X93743295Y-19157785D02*
X93648057Y-19110166D01*
X93648057Y-19110166D02*
X93600438Y-19062547D01*
X93600438Y-19062547D02*
X93552819Y-18967309D01*
X93552819Y-18967309D02*
X93552819Y-18729214D01*
X93552819Y-18729214D02*
X93600438Y-18586357D01*
X93552819Y-18253023D02*
X94552819Y-18014928D01*
X94552819Y-18014928D02*
X93838533Y-17824452D01*
X93838533Y-17824452D02*
X94552819Y-17633976D01*
X94552819Y-17633976D02*
X93552819Y-17395881D01*
X94648057Y-17253024D02*
X94648057Y-16491119D01*
X94552819Y-16253023D02*
X93552819Y-16253023D01*
X93552819Y-16253023D02*
X93552819Y-16014928D01*
X93552819Y-16014928D02*
X93600438Y-15872071D01*
X93600438Y-15872071D02*
X93695676Y-15776833D01*
X93695676Y-15776833D02*
X93790914Y-15729214D01*
X93790914Y-15729214D02*
X93981390Y-15681595D01*
X93981390Y-15681595D02*
X94124247Y-15681595D01*
X94124247Y-15681595D02*
X94314723Y-15729214D01*
X94314723Y-15729214D02*
X94409961Y-15776833D01*
X94409961Y-15776833D02*
X94505200Y-15872071D01*
X94505200Y-15872071D02*
X94552819Y-16014928D01*
X94552819Y-16014928D02*
X94552819Y-16253023D01*
X94552819Y-15253023D02*
X93552819Y-15253023D01*
X94552819Y-14776833D02*
X93552819Y-14776833D01*
X93552819Y-14776833D02*
X93552819Y-14395881D01*
X93552819Y-14395881D02*
X93600438Y-14300643D01*
X93600438Y-14300643D02*
X93648057Y-14253024D01*
X93648057Y-14253024D02*
X93743295Y-14205405D01*
X93743295Y-14205405D02*
X93886152Y-14205405D01*
X93886152Y-14205405D02*
X93981390Y-14253024D01*
X93981390Y-14253024D02*
X94029009Y-14300643D01*
X94029009Y-14300643D02*
X94076628Y-14395881D01*
X94076628Y-14395881D02*
X94076628Y-14776833D01*
X94648057Y-14014929D02*
X94648057Y-13253024D01*
X94552819Y-13110166D02*
X93886152Y-12586357D01*
X93886152Y-13110166D02*
X94552819Y-12586357D01*
X93552819Y-12014928D02*
X93552819Y-11919690D01*
X93552819Y-11919690D02*
X93600438Y-11824452D01*
X93600438Y-11824452D02*
X93648057Y-11776833D01*
X93648057Y-11776833D02*
X93743295Y-11729214D01*
X93743295Y-11729214D02*
X93933771Y-11681595D01*
X93933771Y-11681595D02*
X94171866Y-11681595D01*
X94171866Y-11681595D02*
X94362342Y-11729214D01*
X94362342Y-11729214D02*
X94457580Y-11776833D01*
X94457580Y-11776833D02*
X94505200Y-11824452D01*
X94505200Y-11824452D02*
X94552819Y-11919690D01*
X94552819Y-11919690D02*
X94552819Y-12014928D01*
X94552819Y-12014928D02*
X94505200Y-12110166D01*
X94505200Y-12110166D02*
X94457580Y-12157785D01*
X94457580Y-12157785D02*
X94362342Y-12205404D01*
X94362342Y-12205404D02*
X94171866Y-12253023D01*
X94171866Y-12253023D02*
X93933771Y-12253023D01*
X93933771Y-12253023D02*
X93743295Y-12205404D01*
X93743295Y-12205404D02*
X93648057Y-12157785D01*
X93648057Y-12157785D02*
X93600438Y-12110166D01*
X93600438Y-12110166D02*
X93552819Y-12014928D01*
X93552819Y-10824452D02*
X93552819Y-11014928D01*
X93552819Y-11014928D02*
X93600438Y-11110166D01*
X93600438Y-11110166D02*
X93648057Y-11157785D01*
X93648057Y-11157785D02*
X93790914Y-11253023D01*
X93790914Y-11253023D02*
X93981390Y-11300642D01*
X93981390Y-11300642D02*
X94362342Y-11300642D01*
X94362342Y-11300642D02*
X94457580Y-11253023D01*
X94457580Y-11253023D02*
X94505200Y-11205404D01*
X94505200Y-11205404D02*
X94552819Y-11110166D01*
X94552819Y-11110166D02*
X94552819Y-10919690D01*
X94552819Y-10919690D02*
X94505200Y-10824452D01*
X94505200Y-10824452D02*
X94457580Y-10776833D01*
X94457580Y-10776833D02*
X94362342Y-10729214D01*
X94362342Y-10729214D02*
X94124247Y-10729214D01*
X94124247Y-10729214D02*
X94029009Y-10776833D01*
X94029009Y-10776833D02*
X93981390Y-10824452D01*
X93981390Y-10824452D02*
X93933771Y-10919690D01*
X93933771Y-10919690D02*
X93933771Y-11110166D01*
X93933771Y-11110166D02*
X93981390Y-11205404D01*
X93981390Y-11205404D02*
X94029009Y-11253023D01*
X94029009Y-11253023D02*
X94124247Y-11300642D01*
D14*
X76844355Y-13807548D02*
X76806260Y-13883738D01*
X76806260Y-13883738D02*
X76768164Y-13921833D01*
X76768164Y-13921833D02*
X76691974Y-13959929D01*
X76691974Y-13959929D02*
X76463402Y-13959929D01*
X76463402Y-13959929D02*
X76387212Y-13921833D01*
X76387212Y-13921833D02*
X76349117Y-13883738D01*
X76349117Y-13883738D02*
X76311021Y-13807548D01*
X76311021Y-13807548D02*
X76311021Y-13693262D01*
X76311021Y-13693262D02*
X76349117Y-13617071D01*
X76349117Y-13617071D02*
X76387212Y-13578976D01*
X76387212Y-13578976D02*
X76463402Y-13540881D01*
X76463402Y-13540881D02*
X76691974Y-13540881D01*
X76691974Y-13540881D02*
X76768164Y-13578976D01*
X76768164Y-13578976D02*
X76806260Y-13617071D01*
X76806260Y-13617071D02*
X76844355Y-13693262D01*
X76844355Y-13693262D02*
X76844355Y-13807548D01*
X76311021Y-13198023D02*
X76844355Y-13198023D01*
X76387212Y-13198023D02*
X76349117Y-13159928D01*
X76349117Y-13159928D02*
X76311021Y-13083738D01*
X76311021Y-13083738D02*
X76311021Y-12969452D01*
X76311021Y-12969452D02*
X76349117Y-12893261D01*
X76349117Y-12893261D02*
X76425307Y-12855166D01*
X76425307Y-12855166D02*
X76844355Y-12855166D01*
X83261332Y-11809260D02*
X83375618Y-11847355D01*
X83375618Y-11847355D02*
X83566094Y-11847355D01*
X83566094Y-11847355D02*
X83642285Y-11809260D01*
X83642285Y-11809260D02*
X83680380Y-11771164D01*
X83680380Y-11771164D02*
X83718475Y-11694974D01*
X83718475Y-11694974D02*
X83718475Y-11618783D01*
X83718475Y-11618783D02*
X83680380Y-11542593D01*
X83680380Y-11542593D02*
X83642285Y-11504498D01*
X83642285Y-11504498D02*
X83566094Y-11466402D01*
X83566094Y-11466402D02*
X83413713Y-11428307D01*
X83413713Y-11428307D02*
X83337523Y-11390212D01*
X83337523Y-11390212D02*
X83299428Y-11352117D01*
X83299428Y-11352117D02*
X83261332Y-11275926D01*
X83261332Y-11275926D02*
X83261332Y-11199736D01*
X83261332Y-11199736D02*
X83299428Y-11123545D01*
X83299428Y-11123545D02*
X83337523Y-11085450D01*
X83337523Y-11085450D02*
X83413713Y-11047355D01*
X83413713Y-11047355D02*
X83604190Y-11047355D01*
X83604190Y-11047355D02*
X83718475Y-11085450D01*
X83985142Y-11047355D02*
X84175618Y-11847355D01*
X84175618Y-11847355D02*
X84327999Y-11275926D01*
X84327999Y-11275926D02*
X84480380Y-11847355D01*
X84480380Y-11847355D02*
X84670857Y-11047355D01*
X85394666Y-11847355D02*
X84937523Y-11847355D01*
X85166095Y-11847355D02*
X85166095Y-11047355D01*
X85166095Y-11047355D02*
X85089904Y-11161640D01*
X85089904Y-11161640D02*
X85013714Y-11237831D01*
X85013714Y-11237831D02*
X84937523Y-11275926D01*
D10*
X63127143Y3183181D02*
X63222381Y3183181D01*
X63222381Y3183181D02*
X63317619Y3135562D01*
X63317619Y3135562D02*
X63365238Y3087943D01*
X63365238Y3087943D02*
X63412857Y2992705D01*
X63412857Y2992705D02*
X63460476Y2802229D01*
X63460476Y2802229D02*
X63460476Y2564134D01*
X63460476Y2564134D02*
X63412857Y2373658D01*
X63412857Y2373658D02*
X63365238Y2278420D01*
X63365238Y2278420D02*
X63317619Y2230800D01*
X63317619Y2230800D02*
X63222381Y2183181D01*
X63222381Y2183181D02*
X63127143Y2183181D01*
X63127143Y2183181D02*
X63031905Y2230800D01*
X63031905Y2230800D02*
X62984286Y2278420D01*
X62984286Y2278420D02*
X62936667Y2373658D01*
X62936667Y2373658D02*
X62889048Y2564134D01*
X62889048Y2564134D02*
X62889048Y2802229D01*
X62889048Y2802229D02*
X62936667Y2992705D01*
X62936667Y2992705D02*
X62984286Y3087943D01*
X62984286Y3087943D02*
X63031905Y3135562D01*
X63031905Y3135562D02*
X63127143Y3183181D01*
X63889048Y2278420D02*
X63936667Y2230800D01*
X63936667Y2230800D02*
X63889048Y2183181D01*
X63889048Y2183181D02*
X63841429Y2230800D01*
X63841429Y2230800D02*
X63889048Y2278420D01*
X63889048Y2278420D02*
X63889048Y2183181D01*
X64889047Y2183181D02*
X64317619Y2183181D01*
X64603333Y2183181D02*
X64603333Y3183181D01*
X64603333Y3183181D02*
X64508095Y3040324D01*
X64508095Y3040324D02*
X64412857Y2945086D01*
X64412857Y2945086D02*
X64317619Y2897467D01*
X65746190Y2849848D02*
X65746190Y2183181D01*
X65317619Y2849848D02*
X65317619Y2326039D01*
X65317619Y2326039D02*
X65365238Y2230800D01*
X65365238Y2230800D02*
X65460476Y2183181D01*
X65460476Y2183181D02*
X65603333Y2183181D01*
X65603333Y2183181D02*
X65698571Y2230800D01*
X65698571Y2230800D02*
X65746190Y2278420D01*
X66555714Y2706991D02*
X66222381Y2706991D01*
X66222381Y2183181D02*
X66222381Y3183181D01*
X66222381Y3183181D02*
X66698571Y3183181D01*
D11*
X64448571Y4138470D02*
X64424762Y4114660D01*
X64424762Y4114660D02*
X64353333Y4090851D01*
X64353333Y4090851D02*
X64305714Y4090851D01*
X64305714Y4090851D02*
X64234286Y4114660D01*
X64234286Y4114660D02*
X64186667Y4162280D01*
X64186667Y4162280D02*
X64162857Y4209899D01*
X64162857Y4209899D02*
X64139048Y4305137D01*
X64139048Y4305137D02*
X64139048Y4376565D01*
X64139048Y4376565D02*
X64162857Y4471803D01*
X64162857Y4471803D02*
X64186667Y4519422D01*
X64186667Y4519422D02*
X64234286Y4567041D01*
X64234286Y4567041D02*
X64305714Y4590851D01*
X64305714Y4590851D02*
X64353333Y4590851D01*
X64353333Y4590851D02*
X64424762Y4567041D01*
X64424762Y4567041D02*
X64448571Y4543232D01*
X64924762Y4090851D02*
X64639048Y4090851D01*
X64781905Y4090851D02*
X64781905Y4590851D01*
X64781905Y4590851D02*
X64734286Y4519422D01*
X64734286Y4519422D02*
X64686667Y4471803D01*
X64686667Y4471803D02*
X64639048Y4447994D01*
X65115238Y4543232D02*
X65139047Y4567041D01*
X65139047Y4567041D02*
X65186666Y4590851D01*
X65186666Y4590851D02*
X65305714Y4590851D01*
X65305714Y4590851D02*
X65353333Y4567041D01*
X65353333Y4567041D02*
X65377142Y4543232D01*
X65377142Y4543232D02*
X65400952Y4495613D01*
X65400952Y4495613D02*
X65400952Y4447994D01*
X65400952Y4447994D02*
X65377142Y4376565D01*
X65377142Y4376565D02*
X65091428Y4090851D01*
X65091428Y4090851D02*
X65400952Y4090851D01*
D13*
X103092858Y-29399923D02*
X103092858Y-29199923D01*
X103092858Y-29199923D02*
X103159524Y-29342780D01*
X103159524Y-29342780D02*
X103226191Y-29199923D01*
X103226191Y-29199923D02*
X103226191Y-29399923D01*
X103350000Y-29399923D02*
X103330952Y-29390400D01*
X103330952Y-29390400D02*
X103321429Y-29380876D01*
X103321429Y-29380876D02*
X103311905Y-29361828D01*
X103311905Y-29361828D02*
X103311905Y-29304685D01*
X103311905Y-29304685D02*
X103321429Y-29285638D01*
X103321429Y-29285638D02*
X103330952Y-29276114D01*
X103330952Y-29276114D02*
X103350000Y-29266590D01*
X103350000Y-29266590D02*
X103378571Y-29266590D01*
X103378571Y-29266590D02*
X103397619Y-29276114D01*
X103397619Y-29276114D02*
X103407143Y-29285638D01*
X103407143Y-29285638D02*
X103416667Y-29304685D01*
X103416667Y-29304685D02*
X103416667Y-29361828D01*
X103416667Y-29361828D02*
X103407143Y-29380876D01*
X103407143Y-29380876D02*
X103397619Y-29390400D01*
X103397619Y-29390400D02*
X103378571Y-29399923D01*
X103378571Y-29399923D02*
X103350000Y-29399923D01*
X103588095Y-29266590D02*
X103588095Y-29399923D01*
X103502381Y-29266590D02*
X103502381Y-29371352D01*
X103502381Y-29371352D02*
X103511904Y-29390400D01*
X103511904Y-29390400D02*
X103530952Y-29399923D01*
X103530952Y-29399923D02*
X103559523Y-29399923D01*
X103559523Y-29399923D02*
X103578571Y-29390400D01*
X103578571Y-29390400D02*
X103588095Y-29380876D01*
X103683333Y-29266590D02*
X103683333Y-29399923D01*
X103683333Y-29285638D02*
X103692856Y-29276114D01*
X103692856Y-29276114D02*
X103711904Y-29266590D01*
X103711904Y-29266590D02*
X103740475Y-29266590D01*
X103740475Y-29266590D02*
X103759523Y-29276114D01*
X103759523Y-29276114D02*
X103769047Y-29295161D01*
X103769047Y-29295161D02*
X103769047Y-29399923D01*
X103835713Y-29266590D02*
X103911904Y-29266590D01*
X103864285Y-29199923D02*
X103864285Y-29371352D01*
X103864285Y-29371352D02*
X103873808Y-29390400D01*
X103873808Y-29390400D02*
X103892856Y-29399923D01*
X103892856Y-29399923D02*
X103911904Y-29399923D01*
X103978571Y-29399923D02*
X103978571Y-29266590D01*
X103978571Y-29199923D02*
X103969047Y-29209447D01*
X103969047Y-29209447D02*
X103978571Y-29218971D01*
X103978571Y-29218971D02*
X103988094Y-29209447D01*
X103988094Y-29209447D02*
X103978571Y-29199923D01*
X103978571Y-29199923D02*
X103978571Y-29218971D01*
X104073809Y-29266590D02*
X104073809Y-29399923D01*
X104073809Y-29285638D02*
X104083332Y-29276114D01*
X104083332Y-29276114D02*
X104102380Y-29266590D01*
X104102380Y-29266590D02*
X104130951Y-29266590D01*
X104130951Y-29266590D02*
X104149999Y-29276114D01*
X104149999Y-29276114D02*
X104159523Y-29295161D01*
X104159523Y-29295161D02*
X104159523Y-29399923D01*
X104340475Y-29266590D02*
X104340475Y-29428495D01*
X104340475Y-29428495D02*
X104330951Y-29447542D01*
X104330951Y-29447542D02*
X104321427Y-29457066D01*
X104321427Y-29457066D02*
X104302380Y-29466590D01*
X104302380Y-29466590D02*
X104273808Y-29466590D01*
X104273808Y-29466590D02*
X104254761Y-29457066D01*
X104340475Y-29390400D02*
X104321427Y-29399923D01*
X104321427Y-29399923D02*
X104283332Y-29399923D01*
X104283332Y-29399923D02*
X104264284Y-29390400D01*
X104264284Y-29390400D02*
X104254761Y-29380876D01*
X104254761Y-29380876D02*
X104245237Y-29361828D01*
X104245237Y-29361828D02*
X104245237Y-29304685D01*
X104245237Y-29304685D02*
X104254761Y-29285638D01*
X104254761Y-29285638D02*
X104264284Y-29276114D01*
X104264284Y-29276114D02*
X104283332Y-29266590D01*
X104283332Y-29266590D02*
X104321427Y-29266590D01*
X104321427Y-29266590D02*
X104340475Y-29276114D01*
X104435713Y-29399923D02*
X104435713Y-29199923D01*
X104435713Y-29295161D02*
X104549998Y-29295161D01*
X104549998Y-29399923D02*
X104549998Y-29199923D01*
X104673808Y-29399923D02*
X104654760Y-29390400D01*
X104654760Y-29390400D02*
X104645237Y-29380876D01*
X104645237Y-29380876D02*
X104635713Y-29361828D01*
X104635713Y-29361828D02*
X104635713Y-29304685D01*
X104635713Y-29304685D02*
X104645237Y-29285638D01*
X104645237Y-29285638D02*
X104654760Y-29276114D01*
X104654760Y-29276114D02*
X104673808Y-29266590D01*
X104673808Y-29266590D02*
X104702379Y-29266590D01*
X104702379Y-29266590D02*
X104721427Y-29276114D01*
X104721427Y-29276114D02*
X104730951Y-29285638D01*
X104730951Y-29285638D02*
X104740475Y-29304685D01*
X104740475Y-29304685D02*
X104740475Y-29361828D01*
X104740475Y-29361828D02*
X104730951Y-29380876D01*
X104730951Y-29380876D02*
X104721427Y-29390400D01*
X104721427Y-29390400D02*
X104702379Y-29399923D01*
X104702379Y-29399923D02*
X104673808Y-29399923D01*
X104854760Y-29399923D02*
X104835712Y-29390400D01*
X104835712Y-29390400D02*
X104826189Y-29371352D01*
X104826189Y-29371352D02*
X104826189Y-29199923D01*
X105007141Y-29390400D02*
X104988093Y-29399923D01*
X104988093Y-29399923D02*
X104949998Y-29399923D01*
X104949998Y-29399923D02*
X104930951Y-29390400D01*
X104930951Y-29390400D02*
X104921427Y-29371352D01*
X104921427Y-29371352D02*
X104921427Y-29295161D01*
X104921427Y-29295161D02*
X104930951Y-29276114D01*
X104930951Y-29276114D02*
X104949998Y-29266590D01*
X104949998Y-29266590D02*
X104988093Y-29266590D01*
X104988093Y-29266590D02*
X105007141Y-29276114D01*
X105007141Y-29276114D02*
X105016665Y-29295161D01*
X105016665Y-29295161D02*
X105016665Y-29314209D01*
X105016665Y-29314209D02*
X104921427Y-29333257D01*
D10*
X57901819Y10723857D02*
X57901819Y10152429D01*
X57901819Y10438143D02*
X56901819Y10438143D01*
X56901819Y10438143D02*
X57044676Y10342905D01*
X57044676Y10342905D02*
X57139914Y10247667D01*
X57139914Y10247667D02*
X57187533Y10152429D01*
X57235152Y11581000D02*
X57901819Y11581000D01*
X57235152Y11152429D02*
X57758961Y11152429D01*
X57758961Y11152429D02*
X57854200Y11200048D01*
X57854200Y11200048D02*
X57901819Y11295286D01*
X57901819Y11295286D02*
X57901819Y11438143D01*
X57901819Y11438143D02*
X57854200Y11533381D01*
X57854200Y11533381D02*
X57806580Y11581000D01*
X57378009Y12390524D02*
X57378009Y12057191D01*
X57901819Y12057191D02*
X56901819Y12057191D01*
X56901819Y12057191D02*
X56901819Y12533381D01*
X56901819Y14152429D02*
X56901819Y13676239D01*
X56901819Y13676239D02*
X57378009Y13628620D01*
X57378009Y13628620D02*
X57330390Y13676239D01*
X57330390Y13676239D02*
X57282771Y13771477D01*
X57282771Y13771477D02*
X57282771Y14009572D01*
X57282771Y14009572D02*
X57330390Y14104810D01*
X57330390Y14104810D02*
X57378009Y14152429D01*
X57378009Y14152429D02*
X57473247Y14200048D01*
X57473247Y14200048D02*
X57711342Y14200048D01*
X57711342Y14200048D02*
X57806580Y14152429D01*
X57806580Y14152429D02*
X57854200Y14104810D01*
X57854200Y14104810D02*
X57901819Y14009572D01*
X57901819Y14009572D02*
X57901819Y13771477D01*
X57901819Y13771477D02*
X57854200Y13676239D01*
X57854200Y13676239D02*
X57806580Y13628620D01*
X56901819Y14819096D02*
X56901819Y14914334D01*
X56901819Y14914334D02*
X56949438Y15009572D01*
X56949438Y15009572D02*
X56997057Y15057191D01*
X56997057Y15057191D02*
X57092295Y15104810D01*
X57092295Y15104810D02*
X57282771Y15152429D01*
X57282771Y15152429D02*
X57520866Y15152429D01*
X57520866Y15152429D02*
X57711342Y15104810D01*
X57711342Y15104810D02*
X57806580Y15057191D01*
X57806580Y15057191D02*
X57854200Y15009572D01*
X57854200Y15009572D02*
X57901819Y14914334D01*
X57901819Y14914334D02*
X57901819Y14819096D01*
X57901819Y14819096D02*
X57854200Y14723858D01*
X57854200Y14723858D02*
X57806580Y14676239D01*
X57806580Y14676239D02*
X57711342Y14628620D01*
X57711342Y14628620D02*
X57520866Y14581001D01*
X57520866Y14581001D02*
X57282771Y14581001D01*
X57282771Y14581001D02*
X57092295Y14628620D01*
X57092295Y14628620D02*
X56997057Y14676239D01*
X56997057Y14676239D02*
X56949438Y14723858D01*
X56949438Y14723858D02*
X56901819Y14819096D01*
X56901819Y15438144D02*
X57901819Y15771477D01*
X57901819Y15771477D02*
X56901819Y16104810D01*
D11*
X55946530Y12997667D02*
X55970340Y12973858D01*
X55970340Y12973858D02*
X55994149Y12902429D01*
X55994149Y12902429D02*
X55994149Y12854810D01*
X55994149Y12854810D02*
X55970340Y12783382D01*
X55970340Y12783382D02*
X55922720Y12735763D01*
X55922720Y12735763D02*
X55875101Y12711953D01*
X55875101Y12711953D02*
X55779863Y12688144D01*
X55779863Y12688144D02*
X55708435Y12688144D01*
X55708435Y12688144D02*
X55613197Y12711953D01*
X55613197Y12711953D02*
X55565578Y12735763D01*
X55565578Y12735763D02*
X55517959Y12783382D01*
X55517959Y12783382D02*
X55494149Y12854810D01*
X55494149Y12854810D02*
X55494149Y12902429D01*
X55494149Y12902429D02*
X55517959Y12973858D01*
X55517959Y12973858D02*
X55541768Y12997667D01*
X55494149Y13426239D02*
X55494149Y13331001D01*
X55494149Y13331001D02*
X55517959Y13283382D01*
X55517959Y13283382D02*
X55541768Y13259572D01*
X55541768Y13259572D02*
X55613197Y13211953D01*
X55613197Y13211953D02*
X55708435Y13188144D01*
X55708435Y13188144D02*
X55898911Y13188144D01*
X55898911Y13188144D02*
X55946530Y13211953D01*
X55946530Y13211953D02*
X55970340Y13235763D01*
X55970340Y13235763D02*
X55994149Y13283382D01*
X55994149Y13283382D02*
X55994149Y13378620D01*
X55994149Y13378620D02*
X55970340Y13426239D01*
X55970340Y13426239D02*
X55946530Y13450048D01*
X55946530Y13450048D02*
X55898911Y13473858D01*
X55898911Y13473858D02*
X55779863Y13473858D01*
X55779863Y13473858D02*
X55732244Y13450048D01*
X55732244Y13450048D02*
X55708435Y13426239D01*
X55708435Y13426239D02*
X55684625Y13378620D01*
X55684625Y13378620D02*
X55684625Y13283382D01*
X55684625Y13283382D02*
X55708435Y13235763D01*
X55708435Y13235763D02*
X55732244Y13211953D01*
X55732244Y13211953D02*
X55779863Y13188144D01*
D10*
X60965819Y11438144D02*
X60965819Y11533382D01*
X60965819Y11533382D02*
X61013438Y11628620D01*
X61013438Y11628620D02*
X61061057Y11676239D01*
X61061057Y11676239D02*
X61156295Y11723858D01*
X61156295Y11723858D02*
X61346771Y11771477D01*
X61346771Y11771477D02*
X61584866Y11771477D01*
X61584866Y11771477D02*
X61775342Y11723858D01*
X61775342Y11723858D02*
X61870580Y11676239D01*
X61870580Y11676239D02*
X61918200Y11628620D01*
X61918200Y11628620D02*
X61965819Y11533382D01*
X61965819Y11533382D02*
X61965819Y11438144D01*
X61965819Y11438144D02*
X61918200Y11342906D01*
X61918200Y11342906D02*
X61870580Y11295287D01*
X61870580Y11295287D02*
X61775342Y11247668D01*
X61775342Y11247668D02*
X61584866Y11200049D01*
X61584866Y11200049D02*
X61346771Y11200049D01*
X61346771Y11200049D02*
X61156295Y11247668D01*
X61156295Y11247668D02*
X61061057Y11295287D01*
X61061057Y11295287D02*
X61013438Y11342906D01*
X61013438Y11342906D02*
X60965819Y11438144D01*
X61870580Y12200049D02*
X61918200Y12247668D01*
X61918200Y12247668D02*
X61965819Y12200049D01*
X61965819Y12200049D02*
X61918200Y12152430D01*
X61918200Y12152430D02*
X61870580Y12200049D01*
X61870580Y12200049D02*
X61965819Y12200049D01*
X61965819Y13200048D02*
X61965819Y12628620D01*
X61965819Y12914334D02*
X60965819Y12914334D01*
X60965819Y12914334D02*
X61108676Y12819096D01*
X61108676Y12819096D02*
X61203914Y12723858D01*
X61203914Y12723858D02*
X61251533Y12628620D01*
X61299152Y14057191D02*
X61965819Y14057191D01*
X61299152Y13628620D02*
X61822961Y13628620D01*
X61822961Y13628620D02*
X61918200Y13676239D01*
X61918200Y13676239D02*
X61965819Y13771477D01*
X61965819Y13771477D02*
X61965819Y13914334D01*
X61965819Y13914334D02*
X61918200Y14009572D01*
X61918200Y14009572D02*
X61870580Y14057191D01*
X61442009Y14866715D02*
X61442009Y14533382D01*
X61965819Y14533382D02*
X60965819Y14533382D01*
X60965819Y14533382D02*
X60965819Y15009572D01*
D11*
X60010530Y12759572D02*
X60034340Y12735763D01*
X60034340Y12735763D02*
X60058149Y12664334D01*
X60058149Y12664334D02*
X60058149Y12616715D01*
X60058149Y12616715D02*
X60034340Y12545287D01*
X60034340Y12545287D02*
X59986720Y12497668D01*
X59986720Y12497668D02*
X59939101Y12473858D01*
X59939101Y12473858D02*
X59843863Y12450049D01*
X59843863Y12450049D02*
X59772435Y12450049D01*
X59772435Y12450049D02*
X59677197Y12473858D01*
X59677197Y12473858D02*
X59629578Y12497668D01*
X59629578Y12497668D02*
X59581959Y12545287D01*
X59581959Y12545287D02*
X59558149Y12616715D01*
X59558149Y12616715D02*
X59558149Y12664334D01*
X59558149Y12664334D02*
X59581959Y12735763D01*
X59581959Y12735763D02*
X59605768Y12759572D01*
X60058149Y13235763D02*
X60058149Y12950049D01*
X60058149Y13092906D02*
X59558149Y13092906D01*
X59558149Y13092906D02*
X59629578Y13045287D01*
X59629578Y13045287D02*
X59677197Y12997668D01*
X59677197Y12997668D02*
X59701006Y12950049D01*
X59558149Y13545286D02*
X59558149Y13592905D01*
X59558149Y13592905D02*
X59581959Y13640524D01*
X59581959Y13640524D02*
X59605768Y13664334D01*
X59605768Y13664334D02*
X59653387Y13688143D01*
X59653387Y13688143D02*
X59748625Y13711953D01*
X59748625Y13711953D02*
X59867673Y13711953D01*
X59867673Y13711953D02*
X59962911Y13688143D01*
X59962911Y13688143D02*
X60010530Y13664334D01*
X60010530Y13664334D02*
X60034340Y13640524D01*
X60034340Y13640524D02*
X60058149Y13592905D01*
X60058149Y13592905D02*
X60058149Y13545286D01*
X60058149Y13545286D02*
X60034340Y13497667D01*
X60034340Y13497667D02*
X60010530Y13473858D01*
X60010530Y13473858D02*
X59962911Y13450048D01*
X59962911Y13450048D02*
X59867673Y13426239D01*
X59867673Y13426239D02*
X59748625Y13426239D01*
X59748625Y13426239D02*
X59653387Y13450048D01*
X59653387Y13450048D02*
X59605768Y13473858D01*
X59605768Y13473858D02*
X59581959Y13497667D01*
X59581959Y13497667D02*
X59558149Y13545286D01*
D13*
X75306857Y7356815D02*
X75306857Y7656815D01*
X75306857Y7656815D02*
X75378286Y7656815D01*
X75378286Y7656815D02*
X75421143Y7642529D01*
X75421143Y7642529D02*
X75449714Y7613958D01*
X75449714Y7613958D02*
X75464000Y7585386D01*
X75464000Y7585386D02*
X75478286Y7528243D01*
X75478286Y7528243D02*
X75478286Y7485386D01*
X75478286Y7485386D02*
X75464000Y7428243D01*
X75464000Y7428243D02*
X75449714Y7399672D01*
X75449714Y7399672D02*
X75421143Y7371100D01*
X75421143Y7371100D02*
X75378286Y7356815D01*
X75378286Y7356815D02*
X75306857Y7356815D01*
X75564000Y7656815D02*
X75735429Y7656815D01*
X75649714Y7356815D02*
X75649714Y7656815D01*
X76006857Y7385386D02*
X75992571Y7371100D01*
X75992571Y7371100D02*
X75949714Y7356815D01*
X75949714Y7356815D02*
X75921142Y7356815D01*
X75921142Y7356815D02*
X75878285Y7371100D01*
X75878285Y7371100D02*
X75849714Y7399672D01*
X75849714Y7399672D02*
X75835428Y7428243D01*
X75835428Y7428243D02*
X75821142Y7485386D01*
X75821142Y7485386D02*
X75821142Y7528243D01*
X75821142Y7528243D02*
X75835428Y7585386D01*
X75835428Y7585386D02*
X75849714Y7613958D01*
X75849714Y7613958D02*
X75878285Y7642529D01*
X75878285Y7642529D02*
X75921142Y7656815D01*
X75921142Y7656815D02*
X75949714Y7656815D01*
X75949714Y7656815D02*
X75992571Y7642529D01*
X75992571Y7642529D02*
X76006857Y7628243D01*
X76292571Y7356815D02*
X76121142Y7356815D01*
X76206857Y7356815D02*
X76206857Y7656815D01*
X76206857Y7656815D02*
X76178285Y7613958D01*
X76178285Y7613958D02*
X76149714Y7585386D01*
X76149714Y7585386D02*
X76121142Y7571100D01*
X76549714Y7556815D02*
X76549714Y7356815D01*
X76478285Y7671100D02*
X76406856Y7456815D01*
X76406856Y7456815D02*
X76592571Y7456815D01*
X76678285Y7656815D02*
X76863999Y7656815D01*
X76863999Y7656815D02*
X76763999Y7542529D01*
X76763999Y7542529D02*
X76806856Y7542529D01*
X76806856Y7542529D02*
X76835428Y7528243D01*
X76835428Y7528243D02*
X76849713Y7513958D01*
X76849713Y7513958D02*
X76863999Y7485386D01*
X76863999Y7485386D02*
X76863999Y7413958D01*
X76863999Y7413958D02*
X76849713Y7385386D01*
X76849713Y7385386D02*
X76835428Y7371100D01*
X76835428Y7371100D02*
X76806856Y7356815D01*
X76806856Y7356815D02*
X76721142Y7356815D01*
X76721142Y7356815D02*
X76692570Y7371100D01*
X76692570Y7371100D02*
X76678285Y7385386D01*
X76992570Y7513958D02*
X77092570Y7513958D01*
X77135427Y7356815D02*
X76992570Y7356815D01*
X76992570Y7356815D02*
X76992570Y7656815D01*
X76992570Y7656815D02*
X77135427Y7656815D01*
D10*
X47430057Y6231096D02*
X47382438Y6278715D01*
X47382438Y6278715D02*
X47334819Y6373953D01*
X47334819Y6373953D02*
X47334819Y6612048D01*
X47334819Y6612048D02*
X47382438Y6707286D01*
X47382438Y6707286D02*
X47430057Y6754905D01*
X47430057Y6754905D02*
X47525295Y6802524D01*
X47525295Y6802524D02*
X47620533Y6802524D01*
X47620533Y6802524D02*
X47763390Y6754905D01*
X47763390Y6754905D02*
X48334819Y6183477D01*
X48334819Y6183477D02*
X48334819Y6802524D01*
X47430057Y7183477D02*
X47382438Y7231096D01*
X47382438Y7231096D02*
X47334819Y7326334D01*
X47334819Y7326334D02*
X47334819Y7564429D01*
X47334819Y7564429D02*
X47382438Y7659667D01*
X47382438Y7659667D02*
X47430057Y7707286D01*
X47430057Y7707286D02*
X47525295Y7754905D01*
X47525295Y7754905D02*
X47620533Y7754905D01*
X47620533Y7754905D02*
X47763390Y7707286D01*
X47763390Y7707286D02*
X48334819Y7135858D01*
X48334819Y7135858D02*
X48334819Y7754905D01*
X48334819Y8754905D02*
X47858628Y8421572D01*
X48334819Y8183477D02*
X47334819Y8183477D01*
X47334819Y8183477D02*
X47334819Y8564429D01*
X47334819Y8564429D02*
X47382438Y8659667D01*
X47382438Y8659667D02*
X47430057Y8707286D01*
X47430057Y8707286D02*
X47525295Y8754905D01*
X47525295Y8754905D02*
X47668152Y8754905D01*
X47668152Y8754905D02*
X47763390Y8707286D01*
X47763390Y8707286D02*
X47811009Y8659667D01*
X47811009Y8659667D02*
X47858628Y8564429D01*
X47858628Y8564429D02*
X47858628Y8183477D01*
D11*
X49757149Y7409667D02*
X49519054Y7243001D01*
X49757149Y7123953D02*
X49257149Y7123953D01*
X49257149Y7123953D02*
X49257149Y7314429D01*
X49257149Y7314429D02*
X49280959Y7362048D01*
X49280959Y7362048D02*
X49304768Y7385858D01*
X49304768Y7385858D02*
X49352387Y7409667D01*
X49352387Y7409667D02*
X49423816Y7409667D01*
X49423816Y7409667D02*
X49471435Y7385858D01*
X49471435Y7385858D02*
X49495244Y7362048D01*
X49495244Y7362048D02*
X49519054Y7314429D01*
X49519054Y7314429D02*
X49519054Y7123953D01*
X49304768Y7600144D02*
X49280959Y7623953D01*
X49280959Y7623953D02*
X49257149Y7671572D01*
X49257149Y7671572D02*
X49257149Y7790620D01*
X49257149Y7790620D02*
X49280959Y7838239D01*
X49280959Y7838239D02*
X49304768Y7862048D01*
X49304768Y7862048D02*
X49352387Y7885858D01*
X49352387Y7885858D02*
X49400006Y7885858D01*
X49400006Y7885858D02*
X49471435Y7862048D01*
X49471435Y7862048D02*
X49757149Y7576334D01*
X49757149Y7576334D02*
X49757149Y7885858D01*
D13*
X103092858Y19600077D02*
X103092858Y19800077D01*
X103092858Y19800077D02*
X103159524Y19657220D01*
X103159524Y19657220D02*
X103226191Y19800077D01*
X103226191Y19800077D02*
X103226191Y19600077D01*
X103350000Y19600077D02*
X103330952Y19609600D01*
X103330952Y19609600D02*
X103321429Y19619124D01*
X103321429Y19619124D02*
X103311905Y19638172D01*
X103311905Y19638172D02*
X103311905Y19695315D01*
X103311905Y19695315D02*
X103321429Y19714362D01*
X103321429Y19714362D02*
X103330952Y19723886D01*
X103330952Y19723886D02*
X103350000Y19733410D01*
X103350000Y19733410D02*
X103378571Y19733410D01*
X103378571Y19733410D02*
X103397619Y19723886D01*
X103397619Y19723886D02*
X103407143Y19714362D01*
X103407143Y19714362D02*
X103416667Y19695315D01*
X103416667Y19695315D02*
X103416667Y19638172D01*
X103416667Y19638172D02*
X103407143Y19619124D01*
X103407143Y19619124D02*
X103397619Y19609600D01*
X103397619Y19609600D02*
X103378571Y19600077D01*
X103378571Y19600077D02*
X103350000Y19600077D01*
X103588095Y19733410D02*
X103588095Y19600077D01*
X103502381Y19733410D02*
X103502381Y19628648D01*
X103502381Y19628648D02*
X103511904Y19609600D01*
X103511904Y19609600D02*
X103530952Y19600077D01*
X103530952Y19600077D02*
X103559523Y19600077D01*
X103559523Y19600077D02*
X103578571Y19609600D01*
X103578571Y19609600D02*
X103588095Y19619124D01*
X103683333Y19733410D02*
X103683333Y19600077D01*
X103683333Y19714362D02*
X103692856Y19723886D01*
X103692856Y19723886D02*
X103711904Y19733410D01*
X103711904Y19733410D02*
X103740475Y19733410D01*
X103740475Y19733410D02*
X103759523Y19723886D01*
X103759523Y19723886D02*
X103769047Y19704839D01*
X103769047Y19704839D02*
X103769047Y19600077D01*
X103835713Y19733410D02*
X103911904Y19733410D01*
X103864285Y19800077D02*
X103864285Y19628648D01*
X103864285Y19628648D02*
X103873808Y19609600D01*
X103873808Y19609600D02*
X103892856Y19600077D01*
X103892856Y19600077D02*
X103911904Y19600077D01*
X103978571Y19600077D02*
X103978571Y19733410D01*
X103978571Y19800077D02*
X103969047Y19790553D01*
X103969047Y19790553D02*
X103978571Y19781029D01*
X103978571Y19781029D02*
X103988094Y19790553D01*
X103988094Y19790553D02*
X103978571Y19800077D01*
X103978571Y19800077D02*
X103978571Y19781029D01*
X104073809Y19733410D02*
X104073809Y19600077D01*
X104073809Y19714362D02*
X104083332Y19723886D01*
X104083332Y19723886D02*
X104102380Y19733410D01*
X104102380Y19733410D02*
X104130951Y19733410D01*
X104130951Y19733410D02*
X104149999Y19723886D01*
X104149999Y19723886D02*
X104159523Y19704839D01*
X104159523Y19704839D02*
X104159523Y19600077D01*
X104340475Y19733410D02*
X104340475Y19571505D01*
X104340475Y19571505D02*
X104330951Y19552458D01*
X104330951Y19552458D02*
X104321427Y19542934D01*
X104321427Y19542934D02*
X104302380Y19533410D01*
X104302380Y19533410D02*
X104273808Y19533410D01*
X104273808Y19533410D02*
X104254761Y19542934D01*
X104340475Y19609600D02*
X104321427Y19600077D01*
X104321427Y19600077D02*
X104283332Y19600077D01*
X104283332Y19600077D02*
X104264284Y19609600D01*
X104264284Y19609600D02*
X104254761Y19619124D01*
X104254761Y19619124D02*
X104245237Y19638172D01*
X104245237Y19638172D02*
X104245237Y19695315D01*
X104245237Y19695315D02*
X104254761Y19714362D01*
X104254761Y19714362D02*
X104264284Y19723886D01*
X104264284Y19723886D02*
X104283332Y19733410D01*
X104283332Y19733410D02*
X104321427Y19733410D01*
X104321427Y19733410D02*
X104340475Y19723886D01*
X104435713Y19600077D02*
X104435713Y19800077D01*
X104435713Y19704839D02*
X104549998Y19704839D01*
X104549998Y19600077D02*
X104549998Y19800077D01*
X104673808Y19600077D02*
X104654760Y19609600D01*
X104654760Y19609600D02*
X104645237Y19619124D01*
X104645237Y19619124D02*
X104635713Y19638172D01*
X104635713Y19638172D02*
X104635713Y19695315D01*
X104635713Y19695315D02*
X104645237Y19714362D01*
X104645237Y19714362D02*
X104654760Y19723886D01*
X104654760Y19723886D02*
X104673808Y19733410D01*
X104673808Y19733410D02*
X104702379Y19733410D01*
X104702379Y19733410D02*
X104721427Y19723886D01*
X104721427Y19723886D02*
X104730951Y19714362D01*
X104730951Y19714362D02*
X104740475Y19695315D01*
X104740475Y19695315D02*
X104740475Y19638172D01*
X104740475Y19638172D02*
X104730951Y19619124D01*
X104730951Y19619124D02*
X104721427Y19609600D01*
X104721427Y19609600D02*
X104702379Y19600077D01*
X104702379Y19600077D02*
X104673808Y19600077D01*
X104854760Y19600077D02*
X104835712Y19609600D01*
X104835712Y19609600D02*
X104826189Y19628648D01*
X104826189Y19628648D02*
X104826189Y19800077D01*
X105007141Y19609600D02*
X104988093Y19600077D01*
X104988093Y19600077D02*
X104949998Y19600077D01*
X104949998Y19600077D02*
X104930951Y19609600D01*
X104930951Y19609600D02*
X104921427Y19628648D01*
X104921427Y19628648D02*
X104921427Y19704839D01*
X104921427Y19704839D02*
X104930951Y19723886D01*
X104930951Y19723886D02*
X104949998Y19733410D01*
X104949998Y19733410D02*
X104988093Y19733410D01*
X104988093Y19733410D02*
X105007141Y19723886D01*
X105007141Y19723886D02*
X105016665Y19704839D01*
X105016665Y19704839D02*
X105016665Y19685791D01*
X105016665Y19685791D02*
X104921427Y19666743D01*
D10*
X64587524Y450943D02*
X64635143Y498562D01*
X64635143Y498562D02*
X64730381Y546181D01*
X64730381Y546181D02*
X64968476Y546181D01*
X64968476Y546181D02*
X65063714Y498562D01*
X65063714Y498562D02*
X65111333Y450943D01*
X65111333Y450943D02*
X65158952Y355705D01*
X65158952Y355705D02*
X65158952Y260467D01*
X65158952Y260467D02*
X65111333Y117610D01*
X65111333Y117610D02*
X64539905Y-453819D01*
X64539905Y-453819D02*
X65158952Y-453819D01*
X65587524Y-453819D02*
X65587524Y546181D01*
X65682762Y-72866D02*
X65968476Y-453819D01*
X65968476Y212848D02*
X65587524Y-168104D01*
D11*
X65194666Y1423851D02*
X65028000Y1661946D01*
X64908952Y1423851D02*
X64908952Y1923851D01*
X64908952Y1923851D02*
X65099428Y1923851D01*
X65099428Y1923851D02*
X65147047Y1900041D01*
X65147047Y1900041D02*
X65170857Y1876232D01*
X65170857Y1876232D02*
X65194666Y1828613D01*
X65194666Y1828613D02*
X65194666Y1757184D01*
X65194666Y1757184D02*
X65170857Y1709565D01*
X65170857Y1709565D02*
X65147047Y1685756D01*
X65147047Y1685756D02*
X65099428Y1661946D01*
X65099428Y1661946D02*
X64908952Y1661946D01*
X65432762Y1423851D02*
X65528000Y1423851D01*
X65528000Y1423851D02*
X65575619Y1447660D01*
X65575619Y1447660D02*
X65599428Y1471470D01*
X65599428Y1471470D02*
X65647047Y1542899D01*
X65647047Y1542899D02*
X65670857Y1638137D01*
X65670857Y1638137D02*
X65670857Y1828613D01*
X65670857Y1828613D02*
X65647047Y1876232D01*
X65647047Y1876232D02*
X65623238Y1900041D01*
X65623238Y1900041D02*
X65575619Y1923851D01*
X65575619Y1923851D02*
X65480381Y1923851D01*
X65480381Y1923851D02*
X65432762Y1900041D01*
X65432762Y1900041D02*
X65408952Y1876232D01*
X65408952Y1876232D02*
X65385143Y1828613D01*
X65385143Y1828613D02*
X65385143Y1709565D01*
X65385143Y1709565D02*
X65408952Y1661946D01*
X65408952Y1661946D02*
X65432762Y1638137D01*
X65432762Y1638137D02*
X65480381Y1614327D01*
X65480381Y1614327D02*
X65575619Y1614327D01*
X65575619Y1614327D02*
X65623238Y1638137D01*
X65623238Y1638137D02*
X65647047Y1661946D01*
X65647047Y1661946D02*
X65670857Y1709565D01*
D10*
X59933819Y10723857D02*
X59933819Y10152429D01*
X59933819Y10438143D02*
X58933819Y10438143D01*
X58933819Y10438143D02*
X59076676Y10342905D01*
X59076676Y10342905D02*
X59171914Y10247667D01*
X59171914Y10247667D02*
X59219533Y10152429D01*
X59267152Y11581000D02*
X59933819Y11581000D01*
X59267152Y11152429D02*
X59790961Y11152429D01*
X59790961Y11152429D02*
X59886200Y11200048D01*
X59886200Y11200048D02*
X59933819Y11295286D01*
X59933819Y11295286D02*
X59933819Y11438143D01*
X59933819Y11438143D02*
X59886200Y11533381D01*
X59886200Y11533381D02*
X59838580Y11581000D01*
X59410009Y12390524D02*
X59410009Y12057191D01*
X59933819Y12057191D02*
X58933819Y12057191D01*
X58933819Y12057191D02*
X58933819Y12533381D01*
X58933819Y14152429D02*
X58933819Y13676239D01*
X58933819Y13676239D02*
X59410009Y13628620D01*
X59410009Y13628620D02*
X59362390Y13676239D01*
X59362390Y13676239D02*
X59314771Y13771477D01*
X59314771Y13771477D02*
X59314771Y14009572D01*
X59314771Y14009572D02*
X59362390Y14104810D01*
X59362390Y14104810D02*
X59410009Y14152429D01*
X59410009Y14152429D02*
X59505247Y14200048D01*
X59505247Y14200048D02*
X59743342Y14200048D01*
X59743342Y14200048D02*
X59838580Y14152429D01*
X59838580Y14152429D02*
X59886200Y14104810D01*
X59886200Y14104810D02*
X59933819Y14009572D01*
X59933819Y14009572D02*
X59933819Y13771477D01*
X59933819Y13771477D02*
X59886200Y13676239D01*
X59886200Y13676239D02*
X59838580Y13628620D01*
X58933819Y14819096D02*
X58933819Y14914334D01*
X58933819Y14914334D02*
X58981438Y15009572D01*
X58981438Y15009572D02*
X59029057Y15057191D01*
X59029057Y15057191D02*
X59124295Y15104810D01*
X59124295Y15104810D02*
X59314771Y15152429D01*
X59314771Y15152429D02*
X59552866Y15152429D01*
X59552866Y15152429D02*
X59743342Y15104810D01*
X59743342Y15104810D02*
X59838580Y15057191D01*
X59838580Y15057191D02*
X59886200Y15009572D01*
X59886200Y15009572D02*
X59933819Y14914334D01*
X59933819Y14914334D02*
X59933819Y14819096D01*
X59933819Y14819096D02*
X59886200Y14723858D01*
X59886200Y14723858D02*
X59838580Y14676239D01*
X59838580Y14676239D02*
X59743342Y14628620D01*
X59743342Y14628620D02*
X59552866Y14581001D01*
X59552866Y14581001D02*
X59314771Y14581001D01*
X59314771Y14581001D02*
X59124295Y14628620D01*
X59124295Y14628620D02*
X59029057Y14676239D01*
X59029057Y14676239D02*
X58981438Y14723858D01*
X58981438Y14723858D02*
X58933819Y14819096D01*
X58933819Y15438144D02*
X59933819Y15771477D01*
X59933819Y15771477D02*
X58933819Y16104810D01*
D11*
X57978530Y12997667D02*
X58002340Y12973858D01*
X58002340Y12973858D02*
X58026149Y12902429D01*
X58026149Y12902429D02*
X58026149Y12854810D01*
X58026149Y12854810D02*
X58002340Y12783382D01*
X58002340Y12783382D02*
X57954720Y12735763D01*
X57954720Y12735763D02*
X57907101Y12711953D01*
X57907101Y12711953D02*
X57811863Y12688144D01*
X57811863Y12688144D02*
X57740435Y12688144D01*
X57740435Y12688144D02*
X57645197Y12711953D01*
X57645197Y12711953D02*
X57597578Y12735763D01*
X57597578Y12735763D02*
X57549959Y12783382D01*
X57549959Y12783382D02*
X57526149Y12854810D01*
X57526149Y12854810D02*
X57526149Y12902429D01*
X57526149Y12902429D02*
X57549959Y12973858D01*
X57549959Y12973858D02*
X57573768Y12997667D01*
X57573768Y13188144D02*
X57549959Y13211953D01*
X57549959Y13211953D02*
X57526149Y13259572D01*
X57526149Y13259572D02*
X57526149Y13378620D01*
X57526149Y13378620D02*
X57549959Y13426239D01*
X57549959Y13426239D02*
X57573768Y13450048D01*
X57573768Y13450048D02*
X57621387Y13473858D01*
X57621387Y13473858D02*
X57669006Y13473858D01*
X57669006Y13473858D02*
X57740435Y13450048D01*
X57740435Y13450048D02*
X58026149Y13164334D01*
X58026149Y13164334D02*
X58026149Y13473858D01*
D10*
X54300571Y815181D02*
X53729143Y815181D01*
X54014857Y815181D02*
X54014857Y1815181D01*
X54014857Y1815181D02*
X53919619Y1672324D01*
X53919619Y1672324D02*
X53824381Y1577086D01*
X53824381Y1577086D02*
X53729143Y1529467D01*
X54919619Y1815181D02*
X55014857Y1815181D01*
X55014857Y1815181D02*
X55110095Y1767562D01*
X55110095Y1767562D02*
X55157714Y1719943D01*
X55157714Y1719943D02*
X55205333Y1624705D01*
X55205333Y1624705D02*
X55252952Y1434229D01*
X55252952Y1434229D02*
X55252952Y1196134D01*
X55252952Y1196134D02*
X55205333Y1005658D01*
X55205333Y1005658D02*
X55157714Y910420D01*
X55157714Y910420D02*
X55110095Y862800D01*
X55110095Y862800D02*
X55014857Y815181D01*
X55014857Y815181D02*
X54919619Y815181D01*
X54919619Y815181D02*
X54824381Y862800D01*
X54824381Y862800D02*
X54776762Y910420D01*
X54776762Y910420D02*
X54729143Y1005658D01*
X54729143Y1005658D02*
X54681524Y1196134D01*
X54681524Y1196134D02*
X54681524Y1434229D01*
X54681524Y1434229D02*
X54729143Y1624705D01*
X54729143Y1624705D02*
X54776762Y1719943D01*
X54776762Y1719943D02*
X54824381Y1767562D01*
X54824381Y1767562D02*
X54919619Y1815181D01*
X55681524Y1481848D02*
X55681524Y815181D01*
X55681524Y1386610D02*
X55729143Y1434229D01*
X55729143Y1434229D02*
X55824381Y1481848D01*
X55824381Y1481848D02*
X55967238Y1481848D01*
X55967238Y1481848D02*
X56062476Y1434229D01*
X56062476Y1434229D02*
X56110095Y1338991D01*
X56110095Y1338991D02*
X56110095Y815181D01*
X56919619Y1338991D02*
X56586286Y1338991D01*
X56586286Y815181D02*
X56586286Y1815181D01*
X56586286Y1815181D02*
X57062476Y1815181D01*
D11*
X51732666Y1598470D02*
X51708857Y1574660D01*
X51708857Y1574660D02*
X51637428Y1550851D01*
X51637428Y1550851D02*
X51589809Y1550851D01*
X51589809Y1550851D02*
X51518381Y1574660D01*
X51518381Y1574660D02*
X51470762Y1622280D01*
X51470762Y1622280D02*
X51446952Y1669899D01*
X51446952Y1669899D02*
X51423143Y1765137D01*
X51423143Y1765137D02*
X51423143Y1836565D01*
X51423143Y1836565D02*
X51446952Y1931803D01*
X51446952Y1931803D02*
X51470762Y1979422D01*
X51470762Y1979422D02*
X51518381Y2027041D01*
X51518381Y2027041D02*
X51589809Y2050851D01*
X51589809Y2050851D02*
X51637428Y2050851D01*
X51637428Y2050851D02*
X51708857Y2027041D01*
X51708857Y2027041D02*
X51732666Y2003232D01*
X52208857Y1550851D02*
X51923143Y1550851D01*
X52066000Y1550851D02*
X52066000Y2050851D01*
X52066000Y2050851D02*
X52018381Y1979422D01*
X52018381Y1979422D02*
X51970762Y1931803D01*
X51970762Y1931803D02*
X51923143Y1907994D01*
D12*
X65629668Y13100891D02*
X65915382Y13100891D01*
X65772525Y12600891D02*
X65772525Y13100891D01*
X66082048Y12600891D02*
X66082048Y13100891D01*
X66082048Y13100891D02*
X66272524Y13100891D01*
X66272524Y13100891D02*
X66320143Y13077081D01*
X66320143Y13077081D02*
X66343953Y13053272D01*
X66343953Y13053272D02*
X66367762Y13005653D01*
X66367762Y13005653D02*
X66367762Y12934224D01*
X66367762Y12934224D02*
X66343953Y12886605D01*
X66343953Y12886605D02*
X66320143Y12862796D01*
X66320143Y12862796D02*
X66272524Y12838986D01*
X66272524Y12838986D02*
X66082048Y12838986D01*
X66558239Y12624700D02*
X66629667Y12600891D01*
X66629667Y12600891D02*
X66748715Y12600891D01*
X66748715Y12600891D02*
X66796334Y12624700D01*
X66796334Y12624700D02*
X66820143Y12648510D01*
X66820143Y12648510D02*
X66843953Y12696129D01*
X66843953Y12696129D02*
X66843953Y12743748D01*
X66843953Y12743748D02*
X66820143Y12791367D01*
X66820143Y12791367D02*
X66796334Y12815177D01*
X66796334Y12815177D02*
X66748715Y12838986D01*
X66748715Y12838986D02*
X66653477Y12862796D01*
X66653477Y12862796D02*
X66605858Y12886605D01*
X66605858Y12886605D02*
X66582048Y12910415D01*
X66582048Y12910415D02*
X66558239Y12958034D01*
X66558239Y12958034D02*
X66558239Y13005653D01*
X66558239Y13005653D02*
X66582048Y13053272D01*
X66582048Y13053272D02*
X66605858Y13077081D01*
X66605858Y13077081D02*
X66653477Y13100891D01*
X66653477Y13100891D02*
X66772524Y13100891D01*
X66772524Y13100891D02*
X66843953Y13077081D01*
X67272524Y13100891D02*
X67177286Y13100891D01*
X67177286Y13100891D02*
X67129667Y13077081D01*
X67129667Y13077081D02*
X67105857Y13053272D01*
X67105857Y13053272D02*
X67058238Y12981843D01*
X67058238Y12981843D02*
X67034429Y12886605D01*
X67034429Y12886605D02*
X67034429Y12696129D01*
X67034429Y12696129D02*
X67058238Y12648510D01*
X67058238Y12648510D02*
X67082048Y12624700D01*
X67082048Y12624700D02*
X67129667Y12600891D01*
X67129667Y12600891D02*
X67224905Y12600891D01*
X67224905Y12600891D02*
X67272524Y12624700D01*
X67272524Y12624700D02*
X67296333Y12648510D01*
X67296333Y12648510D02*
X67320143Y12696129D01*
X67320143Y12696129D02*
X67320143Y12815177D01*
X67320143Y12815177D02*
X67296333Y12862796D01*
X67296333Y12862796D02*
X67272524Y12886605D01*
X67272524Y12886605D02*
X67224905Y12910415D01*
X67224905Y12910415D02*
X67129667Y12910415D01*
X67129667Y12910415D02*
X67082048Y12886605D01*
X67082048Y12886605D02*
X67058238Y12862796D01*
X67058238Y12862796D02*
X67034429Y12815177D01*
X67510619Y13053272D02*
X67534428Y13077081D01*
X67534428Y13077081D02*
X67582047Y13100891D01*
X67582047Y13100891D02*
X67701095Y13100891D01*
X67701095Y13100891D02*
X67748714Y13077081D01*
X67748714Y13077081D02*
X67772523Y13053272D01*
X67772523Y13053272D02*
X67796333Y13005653D01*
X67796333Y13005653D02*
X67796333Y12958034D01*
X67796333Y12958034D02*
X67772523Y12886605D01*
X67772523Y12886605D02*
X67486809Y12600891D01*
X67486809Y12600891D02*
X67796333Y12600891D01*
X68272523Y12600891D02*
X67986809Y12600891D01*
X68129666Y12600891D02*
X68129666Y13100891D01*
X68129666Y13100891D02*
X68082047Y13029462D01*
X68082047Y13029462D02*
X68034428Y12981843D01*
X68034428Y12981843D02*
X67986809Y12958034D01*
X68439189Y13100891D02*
X68772522Y13100891D01*
X68772522Y13100891D02*
X68558237Y12600891D01*
X69201093Y13100891D02*
X68962998Y13100891D01*
X68962998Y13100891D02*
X68939189Y12862796D01*
X68939189Y12862796D02*
X68962998Y12886605D01*
X68962998Y12886605D02*
X69010617Y12910415D01*
X69010617Y12910415D02*
X69129665Y12910415D01*
X69129665Y12910415D02*
X69177284Y12886605D01*
X69177284Y12886605D02*
X69201093Y12862796D01*
X69201093Y12862796D02*
X69224903Y12815177D01*
X69224903Y12815177D02*
X69224903Y12696129D01*
X69224903Y12696129D02*
X69201093Y12648510D01*
X69201093Y12648510D02*
X69177284Y12624700D01*
X69177284Y12624700D02*
X69129665Y12600891D01*
X69129665Y12600891D02*
X69010617Y12600891D01*
X69010617Y12600891D02*
X68962998Y12624700D01*
X68962998Y12624700D02*
X68939189Y12648510D01*
X69439188Y12600891D02*
X69439188Y13100891D01*
X69439188Y13100891D02*
X69558236Y13100891D01*
X69558236Y13100891D02*
X69629664Y13077081D01*
X69629664Y13077081D02*
X69677283Y13029462D01*
X69677283Y13029462D02*
X69701093Y12981843D01*
X69701093Y12981843D02*
X69724902Y12886605D01*
X69724902Y12886605D02*
X69724902Y12815177D01*
X69724902Y12815177D02*
X69701093Y12719939D01*
X69701093Y12719939D02*
X69677283Y12672320D01*
X69677283Y12672320D02*
X69629664Y12624700D01*
X69629664Y12624700D02*
X69558236Y12600891D01*
X69558236Y12600891D02*
X69439188Y12600891D01*
X70272521Y12553272D02*
X70224902Y12577081D01*
X70224902Y12577081D02*
X70177283Y12624700D01*
X70177283Y12624700D02*
X70105855Y12696129D01*
X70105855Y12696129D02*
X70058236Y12719939D01*
X70058236Y12719939D02*
X70010617Y12719939D01*
X70034426Y12600891D02*
X69986807Y12624700D01*
X69986807Y12624700D02*
X69939188Y12672320D01*
X69939188Y12672320D02*
X69915379Y12767558D01*
X69915379Y12767558D02*
X69915379Y12934224D01*
X69915379Y12934224D02*
X69939188Y13029462D01*
X69939188Y13029462D02*
X69986807Y13077081D01*
X69986807Y13077081D02*
X70034426Y13100891D01*
X70034426Y13100891D02*
X70129664Y13100891D01*
X70129664Y13100891D02*
X70177283Y13077081D01*
X70177283Y13077081D02*
X70224902Y13029462D01*
X70224902Y13029462D02*
X70248712Y12934224D01*
X70248712Y12934224D02*
X70248712Y12767558D01*
X70248712Y12767558D02*
X70224902Y12672320D01*
X70224902Y12672320D02*
X70177283Y12624700D01*
X70177283Y12624700D02*
X70129664Y12600891D01*
X70129664Y12600891D02*
X70034426Y12600891D01*
X70748712Y12648510D02*
X70724903Y12624700D01*
X70724903Y12624700D02*
X70653474Y12600891D01*
X70653474Y12600891D02*
X70605855Y12600891D01*
X70605855Y12600891D02*
X70534427Y12624700D01*
X70534427Y12624700D02*
X70486808Y12672320D01*
X70486808Y12672320D02*
X70462998Y12719939D01*
X70462998Y12719939D02*
X70439189Y12815177D01*
X70439189Y12815177D02*
X70439189Y12886605D01*
X70439189Y12886605D02*
X70462998Y12981843D01*
X70462998Y12981843D02*
X70486808Y13029462D01*
X70486808Y13029462D02*
X70534427Y13077081D01*
X70534427Y13077081D02*
X70605855Y13100891D01*
X70605855Y13100891D02*
X70653474Y13100891D01*
X70653474Y13100891D02*
X70724903Y13077081D01*
X70724903Y13077081D02*
X70748712Y13053272D01*
D15*
X67950547Y14496591D02*
X67950547Y14091829D01*
X67950547Y14091829D02*
X67974357Y14044210D01*
X67974357Y14044210D02*
X67998166Y14020400D01*
X67998166Y14020400D02*
X68045785Y13996591D01*
X68045785Y13996591D02*
X68141023Y13996591D01*
X68141023Y13996591D02*
X68188642Y14020400D01*
X68188642Y14020400D02*
X68212452Y14044210D01*
X68212452Y14044210D02*
X68236261Y14091829D01*
X68236261Y14091829D02*
X68236261Y14496591D01*
X68426738Y14496591D02*
X68736262Y14496591D01*
X68736262Y14496591D02*
X68569595Y14306115D01*
X68569595Y14306115D02*
X68641024Y14306115D01*
X68641024Y14306115D02*
X68688643Y14282305D01*
X68688643Y14282305D02*
X68712452Y14258496D01*
X68712452Y14258496D02*
X68736262Y14210877D01*
X68736262Y14210877D02*
X68736262Y14091829D01*
X68736262Y14091829D02*
X68712452Y14044210D01*
X68712452Y14044210D02*
X68688643Y14020400D01*
X68688643Y14020400D02*
X68641024Y13996591D01*
X68641024Y13996591D02*
X68498167Y13996591D01*
X68498167Y13996591D02*
X68450548Y14020400D01*
X68450548Y14020400D02*
X68426738Y14044210D01*
D10*
X77782819Y7802857D02*
X77782819Y7231429D01*
X77782819Y7517143D02*
X76782819Y7517143D01*
X76782819Y7517143D02*
X76925676Y7421905D01*
X76925676Y7421905D02*
X77020914Y7326667D01*
X77020914Y7326667D02*
X77068533Y7231429D01*
X77116152Y8660000D02*
X77782819Y8660000D01*
X77116152Y8231429D02*
X77639961Y8231429D01*
X77639961Y8231429D02*
X77735200Y8279048D01*
X77735200Y8279048D02*
X77782819Y8374286D01*
X77782819Y8374286D02*
X77782819Y8517143D01*
X77782819Y8517143D02*
X77735200Y8612381D01*
X77735200Y8612381D02*
X77687580Y8660000D01*
X77259009Y9469524D02*
X77259009Y9136191D01*
X77782819Y9136191D02*
X76782819Y9136191D01*
X76782819Y9136191D02*
X76782819Y9612381D01*
X76782819Y11231429D02*
X76782819Y10755239D01*
X76782819Y10755239D02*
X77259009Y10707620D01*
X77259009Y10707620D02*
X77211390Y10755239D01*
X77211390Y10755239D02*
X77163771Y10850477D01*
X77163771Y10850477D02*
X77163771Y11088572D01*
X77163771Y11088572D02*
X77211390Y11183810D01*
X77211390Y11183810D02*
X77259009Y11231429D01*
X77259009Y11231429D02*
X77354247Y11279048D01*
X77354247Y11279048D02*
X77592342Y11279048D01*
X77592342Y11279048D02*
X77687580Y11231429D01*
X77687580Y11231429D02*
X77735200Y11183810D01*
X77735200Y11183810D02*
X77782819Y11088572D01*
X77782819Y11088572D02*
X77782819Y10850477D01*
X77782819Y10850477D02*
X77735200Y10755239D01*
X77735200Y10755239D02*
X77687580Y10707620D01*
X76782819Y11898096D02*
X76782819Y11993334D01*
X76782819Y11993334D02*
X76830438Y12088572D01*
X76830438Y12088572D02*
X76878057Y12136191D01*
X76878057Y12136191D02*
X76973295Y12183810D01*
X76973295Y12183810D02*
X77163771Y12231429D01*
X77163771Y12231429D02*
X77401866Y12231429D01*
X77401866Y12231429D02*
X77592342Y12183810D01*
X77592342Y12183810D02*
X77687580Y12136191D01*
X77687580Y12136191D02*
X77735200Y12088572D01*
X77735200Y12088572D02*
X77782819Y11993334D01*
X77782819Y11993334D02*
X77782819Y11898096D01*
X77782819Y11898096D02*
X77735200Y11802858D01*
X77735200Y11802858D02*
X77687580Y11755239D01*
X77687580Y11755239D02*
X77592342Y11707620D01*
X77592342Y11707620D02*
X77401866Y11660001D01*
X77401866Y11660001D02*
X77163771Y11660001D01*
X77163771Y11660001D02*
X76973295Y11707620D01*
X76973295Y11707620D02*
X76878057Y11755239D01*
X76878057Y11755239D02*
X76830438Y11802858D01*
X76830438Y11802858D02*
X76782819Y11898096D01*
X76782819Y12517144D02*
X77782819Y12850477D01*
X77782819Y12850477D02*
X76782819Y13183810D01*
D11*
X79187530Y10076667D02*
X79211340Y10052858D01*
X79211340Y10052858D02*
X79235149Y9981429D01*
X79235149Y9981429D02*
X79235149Y9933810D01*
X79235149Y9933810D02*
X79211340Y9862382D01*
X79211340Y9862382D02*
X79163720Y9814763D01*
X79163720Y9814763D02*
X79116101Y9790953D01*
X79116101Y9790953D02*
X79020863Y9767144D01*
X79020863Y9767144D02*
X78949435Y9767144D01*
X78949435Y9767144D02*
X78854197Y9790953D01*
X78854197Y9790953D02*
X78806578Y9814763D01*
X78806578Y9814763D02*
X78758959Y9862382D01*
X78758959Y9862382D02*
X78735149Y9933810D01*
X78735149Y9933810D02*
X78735149Y9981429D01*
X78735149Y9981429D02*
X78758959Y10052858D01*
X78758959Y10052858D02*
X78782768Y10076667D01*
X78735149Y10243334D02*
X78735149Y10576667D01*
X78735149Y10576667D02*
X79235149Y10362382D01*
D10*
X66480057Y1468525D02*
X66432438Y1516144D01*
X66432438Y1516144D02*
X66384819Y1611382D01*
X66384819Y1611382D02*
X66384819Y1849477D01*
X66384819Y1849477D02*
X66432438Y1944715D01*
X66432438Y1944715D02*
X66480057Y1992334D01*
X66480057Y1992334D02*
X66575295Y2039953D01*
X66575295Y2039953D02*
X66670533Y2039953D01*
X66670533Y2039953D02*
X66813390Y1992334D01*
X66813390Y1992334D02*
X67384819Y1420906D01*
X67384819Y1420906D02*
X67384819Y2039953D01*
X67384819Y2468525D02*
X66384819Y2468525D01*
X67003866Y2563763D02*
X67384819Y2849477D01*
X66718152Y2849477D02*
X67099104Y2468525D01*
D11*
X68807149Y2075667D02*
X68569054Y1909001D01*
X68807149Y1789953D02*
X68307149Y1789953D01*
X68307149Y1789953D02*
X68307149Y1980429D01*
X68307149Y1980429D02*
X68330959Y2028048D01*
X68330959Y2028048D02*
X68354768Y2051858D01*
X68354768Y2051858D02*
X68402387Y2075667D01*
X68402387Y2075667D02*
X68473816Y2075667D01*
X68473816Y2075667D02*
X68521435Y2051858D01*
X68521435Y2051858D02*
X68545244Y2028048D01*
X68545244Y2028048D02*
X68569054Y1980429D01*
X68569054Y1980429D02*
X68569054Y1789953D01*
X68473816Y2504239D02*
X68807149Y2504239D01*
X68283340Y2385191D02*
X68640482Y2266144D01*
X68640482Y2266144D02*
X68640482Y2575667D01*
D10*
X70316571Y5485181D02*
X69745143Y5485181D01*
X70030857Y5485181D02*
X70030857Y6485181D01*
X70030857Y6485181D02*
X69935619Y6342324D01*
X69935619Y6342324D02*
X69840381Y6247086D01*
X69840381Y6247086D02*
X69745143Y6199467D01*
X70935619Y6485181D02*
X71030857Y6485181D01*
X71030857Y6485181D02*
X71126095Y6437562D01*
X71126095Y6437562D02*
X71173714Y6389943D01*
X71173714Y6389943D02*
X71221333Y6294705D01*
X71221333Y6294705D02*
X71268952Y6104229D01*
X71268952Y6104229D02*
X71268952Y5866134D01*
X71268952Y5866134D02*
X71221333Y5675658D01*
X71221333Y5675658D02*
X71173714Y5580420D01*
X71173714Y5580420D02*
X71126095Y5532800D01*
X71126095Y5532800D02*
X71030857Y5485181D01*
X71030857Y5485181D02*
X70935619Y5485181D01*
X70935619Y5485181D02*
X70840381Y5532800D01*
X70840381Y5532800D02*
X70792762Y5580420D01*
X70792762Y5580420D02*
X70745143Y5675658D01*
X70745143Y5675658D02*
X70697524Y5866134D01*
X70697524Y5866134D02*
X70697524Y6104229D01*
X70697524Y6104229D02*
X70745143Y6294705D01*
X70745143Y6294705D02*
X70792762Y6389943D01*
X70792762Y6389943D02*
X70840381Y6437562D01*
X70840381Y6437562D02*
X70935619Y6485181D01*
X72126095Y6151848D02*
X72126095Y5485181D01*
X71697524Y6151848D02*
X71697524Y5628039D01*
X71697524Y5628039D02*
X71745143Y5532800D01*
X71745143Y5532800D02*
X71840381Y5485181D01*
X71840381Y5485181D02*
X71983238Y5485181D01*
X71983238Y5485181D02*
X72078476Y5532800D01*
X72078476Y5532800D02*
X72126095Y5580420D01*
X72935619Y6008991D02*
X72602286Y6008991D01*
X72602286Y5485181D02*
X72602286Y6485181D01*
X72602286Y6485181D02*
X73078476Y6485181D01*
D11*
X71304666Y7440470D02*
X71280857Y7416660D01*
X71280857Y7416660D02*
X71209428Y7392851D01*
X71209428Y7392851D02*
X71161809Y7392851D01*
X71161809Y7392851D02*
X71090381Y7416660D01*
X71090381Y7416660D02*
X71042762Y7464280D01*
X71042762Y7464280D02*
X71018952Y7511899D01*
X71018952Y7511899D02*
X70995143Y7607137D01*
X70995143Y7607137D02*
X70995143Y7678565D01*
X70995143Y7678565D02*
X71018952Y7773803D01*
X71018952Y7773803D02*
X71042762Y7821422D01*
X71042762Y7821422D02*
X71090381Y7869041D01*
X71090381Y7869041D02*
X71161809Y7892851D01*
X71161809Y7892851D02*
X71209428Y7892851D01*
X71209428Y7892851D02*
X71280857Y7869041D01*
X71280857Y7869041D02*
X71304666Y7845232D01*
X71590381Y7678565D02*
X71542762Y7702375D01*
X71542762Y7702375D02*
X71518952Y7726184D01*
X71518952Y7726184D02*
X71495143Y7773803D01*
X71495143Y7773803D02*
X71495143Y7797613D01*
X71495143Y7797613D02*
X71518952Y7845232D01*
X71518952Y7845232D02*
X71542762Y7869041D01*
X71542762Y7869041D02*
X71590381Y7892851D01*
X71590381Y7892851D02*
X71685619Y7892851D01*
X71685619Y7892851D02*
X71733238Y7869041D01*
X71733238Y7869041D02*
X71757047Y7845232D01*
X71757047Y7845232D02*
X71780857Y7797613D01*
X71780857Y7797613D02*
X71780857Y7773803D01*
X71780857Y7773803D02*
X71757047Y7726184D01*
X71757047Y7726184D02*
X71733238Y7702375D01*
X71733238Y7702375D02*
X71685619Y7678565D01*
X71685619Y7678565D02*
X71590381Y7678565D01*
X71590381Y7678565D02*
X71542762Y7654756D01*
X71542762Y7654756D02*
X71518952Y7630946D01*
X71518952Y7630946D02*
X71495143Y7583327D01*
X71495143Y7583327D02*
X71495143Y7488089D01*
X71495143Y7488089D02*
X71518952Y7440470D01*
X71518952Y7440470D02*
X71542762Y7416660D01*
X71542762Y7416660D02*
X71590381Y7392851D01*
X71590381Y7392851D02*
X71685619Y7392851D01*
X71685619Y7392851D02*
X71733238Y7416660D01*
X71733238Y7416660D02*
X71757047Y7440470D01*
X71757047Y7440470D02*
X71780857Y7488089D01*
X71780857Y7488089D02*
X71780857Y7583327D01*
X71780857Y7583327D02*
X71757047Y7630946D01*
X71757047Y7630946D02*
X71733238Y7654756D01*
X71733238Y7654756D02*
X71685619Y7678565D01*
D10*
X49462057Y6612096D02*
X49414438Y6659715D01*
X49414438Y6659715D02*
X49366819Y6754953D01*
X49366819Y6754953D02*
X49366819Y6993048D01*
X49366819Y6993048D02*
X49414438Y7088286D01*
X49414438Y7088286D02*
X49462057Y7135905D01*
X49462057Y7135905D02*
X49557295Y7183524D01*
X49557295Y7183524D02*
X49652533Y7183524D01*
X49652533Y7183524D02*
X49795390Y7135905D01*
X49795390Y7135905D02*
X50366819Y6564477D01*
X50366819Y6564477D02*
X50366819Y7183524D01*
X49462057Y7564477D02*
X49414438Y7612096D01*
X49414438Y7612096D02*
X49366819Y7707334D01*
X49366819Y7707334D02*
X49366819Y7945429D01*
X49366819Y7945429D02*
X49414438Y8040667D01*
X49414438Y8040667D02*
X49462057Y8088286D01*
X49462057Y8088286D02*
X49557295Y8135905D01*
X49557295Y8135905D02*
X49652533Y8135905D01*
X49652533Y8135905D02*
X49795390Y8088286D01*
X49795390Y8088286D02*
X50366819Y7516858D01*
X50366819Y7516858D02*
X50366819Y8135905D01*
X50366819Y9135905D02*
X49890628Y8802572D01*
X50366819Y8564477D02*
X49366819Y8564477D01*
X49366819Y8564477D02*
X49366819Y8945429D01*
X49366819Y8945429D02*
X49414438Y9040667D01*
X49414438Y9040667D02*
X49462057Y9088286D01*
X49462057Y9088286D02*
X49557295Y9135905D01*
X49557295Y9135905D02*
X49700152Y9135905D01*
X49700152Y9135905D02*
X49795390Y9088286D01*
X49795390Y9088286D02*
X49843009Y9040667D01*
X49843009Y9040667D02*
X49890628Y8945429D01*
X49890628Y8945429D02*
X49890628Y8564477D01*
D11*
X51789149Y7790667D02*
X51551054Y7624001D01*
X51789149Y7504953D02*
X51289149Y7504953D01*
X51289149Y7504953D02*
X51289149Y7695429D01*
X51289149Y7695429D02*
X51312959Y7743048D01*
X51312959Y7743048D02*
X51336768Y7766858D01*
X51336768Y7766858D02*
X51384387Y7790667D01*
X51384387Y7790667D02*
X51455816Y7790667D01*
X51455816Y7790667D02*
X51503435Y7766858D01*
X51503435Y7766858D02*
X51527244Y7743048D01*
X51527244Y7743048D02*
X51551054Y7695429D01*
X51551054Y7695429D02*
X51551054Y7504953D01*
X51289149Y7957334D02*
X51289149Y8266858D01*
X51289149Y8266858D02*
X51479625Y8100191D01*
X51479625Y8100191D02*
X51479625Y8171620D01*
X51479625Y8171620D02*
X51503435Y8219239D01*
X51503435Y8219239D02*
X51527244Y8243048D01*
X51527244Y8243048D02*
X51574863Y8266858D01*
X51574863Y8266858D02*
X51693911Y8266858D01*
X51693911Y8266858D02*
X51741530Y8243048D01*
X51741530Y8243048D02*
X51765340Y8219239D01*
X51765340Y8219239D02*
X51789149Y8171620D01*
X51789149Y8171620D02*
X51789149Y8028763D01*
X51789149Y8028763D02*
X51765340Y7981144D01*
X51765340Y7981144D02*
X51741530Y7957334D01*
D10*
X67062142Y5626181D02*
X66585952Y5626181D01*
X66585952Y5626181D02*
X66538333Y5149991D01*
X66538333Y5149991D02*
X66585952Y5197610D01*
X66585952Y5197610D02*
X66681190Y5245229D01*
X66681190Y5245229D02*
X66919285Y5245229D01*
X66919285Y5245229D02*
X67014523Y5197610D01*
X67014523Y5197610D02*
X67062142Y5149991D01*
X67062142Y5149991D02*
X67109761Y5054753D01*
X67109761Y5054753D02*
X67109761Y4816658D01*
X67109761Y4816658D02*
X67062142Y4721420D01*
X67062142Y4721420D02*
X67014523Y4673800D01*
X67014523Y4673800D02*
X66919285Y4626181D01*
X66919285Y4626181D02*
X66681190Y4626181D01*
X66681190Y4626181D02*
X66585952Y4673800D01*
X66585952Y4673800D02*
X66538333Y4721420D01*
X68062142Y4626181D02*
X67490714Y4626181D01*
X67776428Y4626181D02*
X67776428Y5626181D01*
X67776428Y5626181D02*
X67681190Y5483324D01*
X67681190Y5483324D02*
X67585952Y5388086D01*
X67585952Y5388086D02*
X67490714Y5340467D01*
X68490714Y4626181D02*
X68490714Y5626181D01*
X68585952Y5007134D02*
X68871666Y4626181D01*
X68871666Y5292848D02*
X68490714Y4911896D01*
D11*
X67621666Y6503851D02*
X67455000Y6741946D01*
X67335952Y6503851D02*
X67335952Y7003851D01*
X67335952Y7003851D02*
X67526428Y7003851D01*
X67526428Y7003851D02*
X67574047Y6980041D01*
X67574047Y6980041D02*
X67597857Y6956232D01*
X67597857Y6956232D02*
X67621666Y6908613D01*
X67621666Y6908613D02*
X67621666Y6837184D01*
X67621666Y6837184D02*
X67597857Y6789565D01*
X67597857Y6789565D02*
X67574047Y6765756D01*
X67574047Y6765756D02*
X67526428Y6741946D01*
X67526428Y6741946D02*
X67335952Y6741946D01*
X68074047Y7003851D02*
X67835952Y7003851D01*
X67835952Y7003851D02*
X67812143Y6765756D01*
X67812143Y6765756D02*
X67835952Y6789565D01*
X67835952Y6789565D02*
X67883571Y6813375D01*
X67883571Y6813375D02*
X68002619Y6813375D01*
X68002619Y6813375D02*
X68050238Y6789565D01*
X68050238Y6789565D02*
X68074047Y6765756D01*
X68074047Y6765756D02*
X68097857Y6718137D01*
X68097857Y6718137D02*
X68097857Y6599089D01*
X68097857Y6599089D02*
X68074047Y6551470D01*
X68074047Y6551470D02*
X68050238Y6527660D01*
X68050238Y6527660D02*
X68002619Y6503851D01*
X68002619Y6503851D02*
X67883571Y6503851D01*
X67883571Y6503851D02*
X67835952Y6527660D01*
X67835952Y6527660D02*
X67812143Y6551470D01*
D10*
X64602819Y12485762D02*
X64602819Y11914334D01*
X64602819Y12200048D02*
X63602819Y12200048D01*
X63602819Y12200048D02*
X63745676Y12104810D01*
X63745676Y12104810D02*
X63840914Y12009572D01*
X63840914Y12009572D02*
X63888533Y11914334D01*
X63602819Y13104810D02*
X63602819Y13200048D01*
X63602819Y13200048D02*
X63650438Y13295286D01*
X63650438Y13295286D02*
X63698057Y13342905D01*
X63698057Y13342905D02*
X63793295Y13390524D01*
X63793295Y13390524D02*
X63983771Y13438143D01*
X63983771Y13438143D02*
X64221866Y13438143D01*
X64221866Y13438143D02*
X64412342Y13390524D01*
X64412342Y13390524D02*
X64507580Y13342905D01*
X64507580Y13342905D02*
X64555200Y13295286D01*
X64555200Y13295286D02*
X64602819Y13200048D01*
X64602819Y13200048D02*
X64602819Y13104810D01*
X64602819Y13104810D02*
X64555200Y13009572D01*
X64555200Y13009572D02*
X64507580Y12961953D01*
X64507580Y12961953D02*
X64412342Y12914334D01*
X64412342Y12914334D02*
X64221866Y12866715D01*
X64221866Y12866715D02*
X63983771Y12866715D01*
X63983771Y12866715D02*
X63793295Y12914334D01*
X63793295Y12914334D02*
X63698057Y12961953D01*
X63698057Y12961953D02*
X63650438Y13009572D01*
X63650438Y13009572D02*
X63602819Y13104810D01*
X64602819Y13866715D02*
X63602819Y13866715D01*
X64221866Y13961953D02*
X64602819Y14247667D01*
X63936152Y14247667D02*
X64317104Y13866715D01*
D11*
X62725149Y12997667D02*
X62487054Y12831001D01*
X62725149Y12711953D02*
X62225149Y12711953D01*
X62225149Y12711953D02*
X62225149Y12902429D01*
X62225149Y12902429D02*
X62248959Y12950048D01*
X62248959Y12950048D02*
X62272768Y12973858D01*
X62272768Y12973858D02*
X62320387Y12997667D01*
X62320387Y12997667D02*
X62391816Y12997667D01*
X62391816Y12997667D02*
X62439435Y12973858D01*
X62439435Y12973858D02*
X62463244Y12950048D01*
X62463244Y12950048D02*
X62487054Y12902429D01*
X62487054Y12902429D02*
X62487054Y12711953D01*
X62225149Y13426239D02*
X62225149Y13331001D01*
X62225149Y13331001D02*
X62248959Y13283382D01*
X62248959Y13283382D02*
X62272768Y13259572D01*
X62272768Y13259572D02*
X62344197Y13211953D01*
X62344197Y13211953D02*
X62439435Y13188144D01*
X62439435Y13188144D02*
X62629911Y13188144D01*
X62629911Y13188144D02*
X62677530Y13211953D01*
X62677530Y13211953D02*
X62701340Y13235763D01*
X62701340Y13235763D02*
X62725149Y13283382D01*
X62725149Y13283382D02*
X62725149Y13378620D01*
X62725149Y13378620D02*
X62701340Y13426239D01*
X62701340Y13426239D02*
X62677530Y13450048D01*
X62677530Y13450048D02*
X62629911Y13473858D01*
X62629911Y13473858D02*
X62510863Y13473858D01*
X62510863Y13473858D02*
X62463244Y13450048D01*
X62463244Y13450048D02*
X62439435Y13426239D01*
X62439435Y13426239D02*
X62415625Y13378620D01*
X62415625Y13378620D02*
X62415625Y13283382D01*
X62415625Y13283382D02*
X62439435Y13235763D01*
X62439435Y13235763D02*
X62463244Y13211953D01*
X62463244Y13211953D02*
X62510863Y13188144D01*
D10*
X78010666Y5955896D02*
X78486856Y5955896D01*
X77915428Y5670181D02*
X78248761Y6670181D01*
X78248761Y6670181D02*
X78582094Y5670181D01*
X79486856Y5765420D02*
X79439237Y5717800D01*
X79439237Y5717800D02*
X79296380Y5670181D01*
X79296380Y5670181D02*
X79201142Y5670181D01*
X79201142Y5670181D02*
X79058285Y5717800D01*
X79058285Y5717800D02*
X78963047Y5813039D01*
X78963047Y5813039D02*
X78915428Y5908277D01*
X78915428Y5908277D02*
X78867809Y6098753D01*
X78867809Y6098753D02*
X78867809Y6241610D01*
X78867809Y6241610D02*
X78915428Y6432086D01*
X78915428Y6432086D02*
X78963047Y6527324D01*
X78963047Y6527324D02*
X79058285Y6622562D01*
X79058285Y6622562D02*
X79201142Y6670181D01*
X79201142Y6670181D02*
X79296380Y6670181D01*
X79296380Y6670181D02*
X79439237Y6622562D01*
X79439237Y6622562D02*
X79486856Y6574943D01*
X79867809Y5717800D02*
X80010666Y5670181D01*
X80010666Y5670181D02*
X80248761Y5670181D01*
X80248761Y5670181D02*
X80343999Y5717800D01*
X80343999Y5717800D02*
X80391618Y5765420D01*
X80391618Y5765420D02*
X80439237Y5860658D01*
X80439237Y5860658D02*
X80439237Y5955896D01*
X80439237Y5955896D02*
X80391618Y6051134D01*
X80391618Y6051134D02*
X80343999Y6098753D01*
X80343999Y6098753D02*
X80248761Y6146372D01*
X80248761Y6146372D02*
X80058285Y6193991D01*
X80058285Y6193991D02*
X79963047Y6241610D01*
X79963047Y6241610D02*
X79915428Y6289229D01*
X79915428Y6289229D02*
X79867809Y6384467D01*
X79867809Y6384467D02*
X79867809Y6479705D01*
X79867809Y6479705D02*
X79915428Y6574943D01*
X79915428Y6574943D02*
X79963047Y6622562D01*
X79963047Y6622562D02*
X80058285Y6670181D01*
X80058285Y6670181D02*
X80296380Y6670181D01*
X80296380Y6670181D02*
X80439237Y6622562D01*
X80772571Y6670181D02*
X81439237Y6670181D01*
X81439237Y6670181D02*
X81010666Y5670181D01*
X81772571Y6574943D02*
X81820190Y6622562D01*
X81820190Y6622562D02*
X81915428Y6670181D01*
X81915428Y6670181D02*
X82153523Y6670181D01*
X82153523Y6670181D02*
X82248761Y6622562D01*
X82248761Y6622562D02*
X82296380Y6574943D01*
X82296380Y6574943D02*
X82343999Y6479705D01*
X82343999Y6479705D02*
X82343999Y6384467D01*
X82343999Y6384467D02*
X82296380Y6241610D01*
X82296380Y6241610D02*
X81724952Y5670181D01*
X81724952Y5670181D02*
X82343999Y5670181D01*
X82677333Y6670181D02*
X83296380Y6670181D01*
X83296380Y6670181D02*
X82963047Y6289229D01*
X82963047Y6289229D02*
X83105904Y6289229D01*
X83105904Y6289229D02*
X83201142Y6241610D01*
X83201142Y6241610D02*
X83248761Y6193991D01*
X83248761Y6193991D02*
X83296380Y6098753D01*
X83296380Y6098753D02*
X83296380Y5860658D01*
X83296380Y5860658D02*
X83248761Y5765420D01*
X83248761Y5765420D02*
X83201142Y5717800D01*
X83201142Y5717800D02*
X83105904Y5670181D01*
X83105904Y5670181D02*
X82820190Y5670181D01*
X82820190Y5670181D02*
X82724952Y5717800D01*
X82724952Y5717800D02*
X82677333Y5765420D01*
X83629714Y5670181D02*
X84153523Y6336848D01*
X83629714Y6336848D02*
X84153523Y5670181D01*
X85010666Y5670181D02*
X84534476Y5670181D01*
X84534476Y5670181D02*
X84534476Y6670181D01*
X85915428Y5765420D02*
X85867809Y5717800D01*
X85867809Y5717800D02*
X85724952Y5670181D01*
X85724952Y5670181D02*
X85629714Y5670181D01*
X85629714Y5670181D02*
X85486857Y5717800D01*
X85486857Y5717800D02*
X85391619Y5813039D01*
X85391619Y5813039D02*
X85344000Y5908277D01*
X85344000Y5908277D02*
X85296381Y6098753D01*
X85296381Y6098753D02*
X85296381Y6241610D01*
X85296381Y6241610D02*
X85344000Y6432086D01*
X85344000Y6432086D02*
X85391619Y6527324D01*
X85391619Y6527324D02*
X85486857Y6622562D01*
X85486857Y6622562D02*
X85629714Y6670181D01*
X85629714Y6670181D02*
X85724952Y6670181D01*
X85724952Y6670181D02*
X85867809Y6622562D01*
X85867809Y6622562D02*
X85915428Y6574943D01*
X86201143Y6670181D02*
X86772571Y6670181D01*
X86486857Y5670181D02*
X86486857Y6670181D01*
X87677333Y5670181D02*
X87344000Y6146372D01*
X87105905Y5670181D02*
X87105905Y6670181D01*
X87105905Y6670181D02*
X87486857Y6670181D01*
X87486857Y6670181D02*
X87582095Y6622562D01*
X87582095Y6622562D02*
X87629714Y6574943D01*
X87629714Y6574943D02*
X87677333Y6479705D01*
X87677333Y6479705D02*
X87677333Y6336848D01*
X87677333Y6336848D02*
X87629714Y6241610D01*
X87629714Y6241610D02*
X87582095Y6193991D01*
X87582095Y6193991D02*
X87486857Y6146372D01*
X87486857Y6146372D02*
X87105905Y6146372D01*
X88105905Y6051134D02*
X88867810Y6051134D01*
X89867809Y5670181D02*
X89296381Y5670181D01*
X89582095Y5670181D02*
X89582095Y6670181D01*
X89582095Y6670181D02*
X89486857Y6527324D01*
X89486857Y6527324D02*
X89391619Y6432086D01*
X89391619Y6432086D02*
X89296381Y6384467D01*
X90486857Y6670181D02*
X90582095Y6670181D01*
X90582095Y6670181D02*
X90677333Y6622562D01*
X90677333Y6622562D02*
X90724952Y6574943D01*
X90724952Y6574943D02*
X90772571Y6479705D01*
X90772571Y6479705D02*
X90820190Y6289229D01*
X90820190Y6289229D02*
X90820190Y6051134D01*
X90820190Y6051134D02*
X90772571Y5860658D01*
X90772571Y5860658D02*
X90724952Y5765420D01*
X90724952Y5765420D02*
X90677333Y5717800D01*
X90677333Y5717800D02*
X90582095Y5670181D01*
X90582095Y5670181D02*
X90486857Y5670181D01*
X90486857Y5670181D02*
X90391619Y5717800D01*
X90391619Y5717800D02*
X90344000Y5765420D01*
X90344000Y5765420D02*
X90296381Y5860658D01*
X90296381Y5860658D02*
X90248762Y6051134D01*
X90248762Y6051134D02*
X90248762Y6289229D01*
X90248762Y6289229D02*
X90296381Y6479705D01*
X90296381Y6479705D02*
X90344000Y6574943D01*
X90344000Y6574943D02*
X90391619Y6622562D01*
X90391619Y6622562D02*
X90486857Y6670181D01*
X91201143Y5955896D02*
X91677333Y5955896D01*
X91105905Y5670181D02*
X91439238Y6670181D01*
X91439238Y6670181D02*
X91772571Y5670181D01*
X92439238Y6193991D02*
X92582095Y6146372D01*
X92582095Y6146372D02*
X92629714Y6098753D01*
X92629714Y6098753D02*
X92677333Y6003515D01*
X92677333Y6003515D02*
X92677333Y5860658D01*
X92677333Y5860658D02*
X92629714Y5765420D01*
X92629714Y5765420D02*
X92582095Y5717800D01*
X92582095Y5717800D02*
X92486857Y5670181D01*
X92486857Y5670181D02*
X92105905Y5670181D01*
X92105905Y5670181D02*
X92105905Y6670181D01*
X92105905Y6670181D02*
X92439238Y6670181D01*
X92439238Y6670181D02*
X92534476Y6622562D01*
X92534476Y6622562D02*
X92582095Y6574943D01*
X92582095Y6574943D02*
X92629714Y6479705D01*
X92629714Y6479705D02*
X92629714Y6384467D01*
X92629714Y6384467D02*
X92582095Y6289229D01*
X92582095Y6289229D02*
X92534476Y6241610D01*
X92534476Y6241610D02*
X92439238Y6193991D01*
X92439238Y6193991D02*
X92105905Y6193991D01*
X84597333Y10059434D02*
X84597333Y9266100D01*
X84597333Y9266100D02*
X84644000Y9172767D01*
X84644000Y9172767D02*
X84690666Y9126100D01*
X84690666Y9126100D02*
X84784000Y9079434D01*
X84784000Y9079434D02*
X84970666Y9079434D01*
X84970666Y9079434D02*
X85064000Y9126100D01*
X85064000Y9126100D02*
X85110666Y9172767D01*
X85110666Y9172767D02*
X85157333Y9266100D01*
X85157333Y9266100D02*
X85157333Y10059434D01*
X86090667Y10059434D02*
X85624000Y10059434D01*
X85624000Y10059434D02*
X85577333Y9592767D01*
X85577333Y9592767D02*
X85624000Y9639434D01*
X85624000Y9639434D02*
X85717333Y9686100D01*
X85717333Y9686100D02*
X85950667Y9686100D01*
X85950667Y9686100D02*
X86044000Y9639434D01*
X86044000Y9639434D02*
X86090667Y9592767D01*
X86090667Y9592767D02*
X86137333Y9499434D01*
X86137333Y9499434D02*
X86137333Y9266100D01*
X86137333Y9266100D02*
X86090667Y9172767D01*
X86090667Y9172767D02*
X86044000Y9126100D01*
X86044000Y9126100D02*
X85950667Y9079434D01*
X85950667Y9079434D02*
X85717333Y9079434D01*
X85717333Y9079434D02*
X85624000Y9126100D01*
X85624000Y9126100D02*
X85577333Y9172767D01*
X57062761Y2466181D02*
X56491333Y2466181D01*
X56777047Y2466181D02*
X56777047Y3466181D01*
X56777047Y3466181D02*
X56681809Y3323324D01*
X56681809Y3323324D02*
X56586571Y3228086D01*
X56586571Y3228086D02*
X56491333Y3180467D01*
X57681809Y3466181D02*
X57777047Y3466181D01*
X57777047Y3466181D02*
X57872285Y3418562D01*
X57872285Y3418562D02*
X57919904Y3370943D01*
X57919904Y3370943D02*
X57967523Y3275705D01*
X57967523Y3275705D02*
X58015142Y3085229D01*
X58015142Y3085229D02*
X58015142Y2847134D01*
X58015142Y2847134D02*
X57967523Y2656658D01*
X57967523Y2656658D02*
X57919904Y2561420D01*
X57919904Y2561420D02*
X57872285Y2513800D01*
X57872285Y2513800D02*
X57777047Y2466181D01*
X57777047Y2466181D02*
X57681809Y2466181D01*
X57681809Y2466181D02*
X57586571Y2513800D01*
X57586571Y2513800D02*
X57538952Y2561420D01*
X57538952Y2561420D02*
X57491333Y2656658D01*
X57491333Y2656658D02*
X57443714Y2847134D01*
X57443714Y2847134D02*
X57443714Y3085229D01*
X57443714Y3085229D02*
X57491333Y3275705D01*
X57491333Y3275705D02*
X57538952Y3370943D01*
X57538952Y3370943D02*
X57586571Y3418562D01*
X57586571Y3418562D02*
X57681809Y3466181D01*
X58443714Y2466181D02*
X58443714Y3466181D01*
X58538952Y2847134D02*
X58824666Y2466181D01*
X58824666Y3132848D02*
X58443714Y2751896D01*
D11*
X52612166Y3836851D02*
X52445500Y4074946D01*
X52326452Y3836851D02*
X52326452Y4336851D01*
X52326452Y4336851D02*
X52516928Y4336851D01*
X52516928Y4336851D02*
X52564547Y4313041D01*
X52564547Y4313041D02*
X52588357Y4289232D01*
X52588357Y4289232D02*
X52612166Y4241613D01*
X52612166Y4241613D02*
X52612166Y4170184D01*
X52612166Y4170184D02*
X52588357Y4122565D01*
X52588357Y4122565D02*
X52564547Y4098756D01*
X52564547Y4098756D02*
X52516928Y4074946D01*
X52516928Y4074946D02*
X52326452Y4074946D01*
X53088357Y3836851D02*
X52802643Y3836851D01*
X52945500Y3836851D02*
X52945500Y4336851D01*
X52945500Y4336851D02*
X52897881Y4265422D01*
X52897881Y4265422D02*
X52850262Y4217803D01*
X52850262Y4217803D02*
X52802643Y4193994D01*
D10*
X96901381Y-21133200D02*
X97044238Y-21180819D01*
X97044238Y-21180819D02*
X97282333Y-21180819D01*
X97282333Y-21180819D02*
X97377571Y-21133200D01*
X97377571Y-21133200D02*
X97425190Y-21085580D01*
X97425190Y-21085580D02*
X97472809Y-20990342D01*
X97472809Y-20990342D02*
X97472809Y-20895104D01*
X97472809Y-20895104D02*
X97425190Y-20799866D01*
X97425190Y-20799866D02*
X97377571Y-20752247D01*
X97377571Y-20752247D02*
X97282333Y-20704628D01*
X97282333Y-20704628D02*
X97091857Y-20657009D01*
X97091857Y-20657009D02*
X96996619Y-20609390D01*
X96996619Y-20609390D02*
X96949000Y-20561771D01*
X96949000Y-20561771D02*
X96901381Y-20466533D01*
X96901381Y-20466533D02*
X96901381Y-20371295D01*
X96901381Y-20371295D02*
X96949000Y-20276057D01*
X96949000Y-20276057D02*
X96996619Y-20228438D01*
X96996619Y-20228438D02*
X97091857Y-20180819D01*
X97091857Y-20180819D02*
X97329952Y-20180819D01*
X97329952Y-20180819D02*
X97472809Y-20228438D01*
X97806143Y-20180819D02*
X98044238Y-21180819D01*
X98044238Y-21180819D02*
X98234714Y-20466533D01*
X98234714Y-20466533D02*
X98425190Y-21180819D01*
X98425190Y-21180819D02*
X98663286Y-20180819D01*
X98806143Y-21276057D02*
X99568047Y-21276057D01*
X99806143Y-21180819D02*
X99806143Y-20180819D01*
X99806143Y-20180819D02*
X100187095Y-20180819D01*
X100187095Y-20180819D02*
X100282333Y-20228438D01*
X100282333Y-20228438D02*
X100329952Y-20276057D01*
X100329952Y-20276057D02*
X100377571Y-20371295D01*
X100377571Y-20371295D02*
X100377571Y-20514152D01*
X100377571Y-20514152D02*
X100329952Y-20609390D01*
X100329952Y-20609390D02*
X100282333Y-20657009D01*
X100282333Y-20657009D02*
X100187095Y-20704628D01*
X100187095Y-20704628D02*
X99806143Y-20704628D01*
X101234714Y-20514152D02*
X101234714Y-21180819D01*
X100806143Y-20514152D02*
X100806143Y-21037961D01*
X100806143Y-21037961D02*
X100853762Y-21133200D01*
X100853762Y-21133200D02*
X100949000Y-21180819D01*
X100949000Y-21180819D02*
X101091857Y-21180819D01*
X101091857Y-21180819D02*
X101187095Y-21133200D01*
X101187095Y-21133200D02*
X101234714Y-21085580D01*
X101663286Y-21133200D02*
X101758524Y-21180819D01*
X101758524Y-21180819D02*
X101949000Y-21180819D01*
X101949000Y-21180819D02*
X102044238Y-21133200D01*
X102044238Y-21133200D02*
X102091857Y-21037961D01*
X102091857Y-21037961D02*
X102091857Y-20990342D01*
X102091857Y-20990342D02*
X102044238Y-20895104D01*
X102044238Y-20895104D02*
X101949000Y-20847485D01*
X101949000Y-20847485D02*
X101806143Y-20847485D01*
X101806143Y-20847485D02*
X101710905Y-20799866D01*
X101710905Y-20799866D02*
X101663286Y-20704628D01*
X101663286Y-20704628D02*
X101663286Y-20657009D01*
X101663286Y-20657009D02*
X101710905Y-20561771D01*
X101710905Y-20561771D02*
X101806143Y-20514152D01*
X101806143Y-20514152D02*
X101949000Y-20514152D01*
X101949000Y-20514152D02*
X102044238Y-20561771D01*
X102520429Y-21180819D02*
X102520429Y-20180819D01*
X102949000Y-21180819D02*
X102949000Y-20657009D01*
X102949000Y-20657009D02*
X102901381Y-20561771D01*
X102901381Y-20561771D02*
X102806143Y-20514152D01*
X102806143Y-20514152D02*
X102663286Y-20514152D01*
X102663286Y-20514152D02*
X102568048Y-20561771D01*
X102568048Y-20561771D02*
X102520429Y-20609390D01*
D15*
X99282334Y-17729600D02*
X99353762Y-17753409D01*
X99353762Y-17753409D02*
X99472810Y-17753409D01*
X99472810Y-17753409D02*
X99520429Y-17729600D01*
X99520429Y-17729600D02*
X99544238Y-17705790D01*
X99544238Y-17705790D02*
X99568048Y-17658171D01*
X99568048Y-17658171D02*
X99568048Y-17610552D01*
X99568048Y-17610552D02*
X99544238Y-17562933D01*
X99544238Y-17562933D02*
X99520429Y-17539123D01*
X99520429Y-17539123D02*
X99472810Y-17515314D01*
X99472810Y-17515314D02*
X99377572Y-17491504D01*
X99377572Y-17491504D02*
X99329953Y-17467695D01*
X99329953Y-17467695D02*
X99306143Y-17443885D01*
X99306143Y-17443885D02*
X99282334Y-17396266D01*
X99282334Y-17396266D02*
X99282334Y-17348647D01*
X99282334Y-17348647D02*
X99306143Y-17301028D01*
X99306143Y-17301028D02*
X99329953Y-17277219D01*
X99329953Y-17277219D02*
X99377572Y-17253409D01*
X99377572Y-17253409D02*
X99496619Y-17253409D01*
X99496619Y-17253409D02*
X99568048Y-17277219D01*
X99734714Y-17253409D02*
X99853762Y-17753409D01*
X99853762Y-17753409D02*
X99949000Y-17396266D01*
X99949000Y-17396266D02*
X100044238Y-17753409D01*
X100044238Y-17753409D02*
X100163286Y-17253409D01*
X100306143Y-17253409D02*
X100615667Y-17253409D01*
X100615667Y-17253409D02*
X100449000Y-17443885D01*
X100449000Y-17443885D02*
X100520429Y-17443885D01*
X100520429Y-17443885D02*
X100568048Y-17467695D01*
X100568048Y-17467695D02*
X100591857Y-17491504D01*
X100591857Y-17491504D02*
X100615667Y-17539123D01*
X100615667Y-17539123D02*
X100615667Y-17658171D01*
X100615667Y-17658171D02*
X100591857Y-17705790D01*
X100591857Y-17705790D02*
X100568048Y-17729600D01*
X100568048Y-17729600D02*
X100520429Y-17753409D01*
X100520429Y-17753409D02*
X100377572Y-17753409D01*
X100377572Y-17753409D02*
X100329953Y-17729600D01*
X100329953Y-17729600D02*
X100306143Y-17705790D01*
D13*
X45092858Y19600077D02*
X45092858Y19800077D01*
X45092858Y19800077D02*
X45159524Y19657220D01*
X45159524Y19657220D02*
X45226191Y19800077D01*
X45226191Y19800077D02*
X45226191Y19600077D01*
X45350000Y19600077D02*
X45330952Y19609600D01*
X45330952Y19609600D02*
X45321429Y19619124D01*
X45321429Y19619124D02*
X45311905Y19638172D01*
X45311905Y19638172D02*
X45311905Y19695315D01*
X45311905Y19695315D02*
X45321429Y19714362D01*
X45321429Y19714362D02*
X45330952Y19723886D01*
X45330952Y19723886D02*
X45350000Y19733410D01*
X45350000Y19733410D02*
X45378571Y19733410D01*
X45378571Y19733410D02*
X45397619Y19723886D01*
X45397619Y19723886D02*
X45407143Y19714362D01*
X45407143Y19714362D02*
X45416667Y19695315D01*
X45416667Y19695315D02*
X45416667Y19638172D01*
X45416667Y19638172D02*
X45407143Y19619124D01*
X45407143Y19619124D02*
X45397619Y19609600D01*
X45397619Y19609600D02*
X45378571Y19600077D01*
X45378571Y19600077D02*
X45350000Y19600077D01*
X45588095Y19733410D02*
X45588095Y19600077D01*
X45502381Y19733410D02*
X45502381Y19628648D01*
X45502381Y19628648D02*
X45511904Y19609600D01*
X45511904Y19609600D02*
X45530952Y19600077D01*
X45530952Y19600077D02*
X45559523Y19600077D01*
X45559523Y19600077D02*
X45578571Y19609600D01*
X45578571Y19609600D02*
X45588095Y19619124D01*
X45683333Y19733410D02*
X45683333Y19600077D01*
X45683333Y19714362D02*
X45692856Y19723886D01*
X45692856Y19723886D02*
X45711904Y19733410D01*
X45711904Y19733410D02*
X45740475Y19733410D01*
X45740475Y19733410D02*
X45759523Y19723886D01*
X45759523Y19723886D02*
X45769047Y19704839D01*
X45769047Y19704839D02*
X45769047Y19600077D01*
X45835713Y19733410D02*
X45911904Y19733410D01*
X45864285Y19800077D02*
X45864285Y19628648D01*
X45864285Y19628648D02*
X45873808Y19609600D01*
X45873808Y19609600D02*
X45892856Y19600077D01*
X45892856Y19600077D02*
X45911904Y19600077D01*
X45978571Y19600077D02*
X45978571Y19733410D01*
X45978571Y19800077D02*
X45969047Y19790553D01*
X45969047Y19790553D02*
X45978571Y19781029D01*
X45978571Y19781029D02*
X45988094Y19790553D01*
X45988094Y19790553D02*
X45978571Y19800077D01*
X45978571Y19800077D02*
X45978571Y19781029D01*
X46073809Y19733410D02*
X46073809Y19600077D01*
X46073809Y19714362D02*
X46083332Y19723886D01*
X46083332Y19723886D02*
X46102380Y19733410D01*
X46102380Y19733410D02*
X46130951Y19733410D01*
X46130951Y19733410D02*
X46149999Y19723886D01*
X46149999Y19723886D02*
X46159523Y19704839D01*
X46159523Y19704839D02*
X46159523Y19600077D01*
X46340475Y19733410D02*
X46340475Y19571505D01*
X46340475Y19571505D02*
X46330951Y19552458D01*
X46330951Y19552458D02*
X46321427Y19542934D01*
X46321427Y19542934D02*
X46302380Y19533410D01*
X46302380Y19533410D02*
X46273808Y19533410D01*
X46273808Y19533410D02*
X46254761Y19542934D01*
X46340475Y19609600D02*
X46321427Y19600077D01*
X46321427Y19600077D02*
X46283332Y19600077D01*
X46283332Y19600077D02*
X46264284Y19609600D01*
X46264284Y19609600D02*
X46254761Y19619124D01*
X46254761Y19619124D02*
X46245237Y19638172D01*
X46245237Y19638172D02*
X46245237Y19695315D01*
X46245237Y19695315D02*
X46254761Y19714362D01*
X46254761Y19714362D02*
X46264284Y19723886D01*
X46264284Y19723886D02*
X46283332Y19733410D01*
X46283332Y19733410D02*
X46321427Y19733410D01*
X46321427Y19733410D02*
X46340475Y19723886D01*
X46435713Y19600077D02*
X46435713Y19800077D01*
X46435713Y19704839D02*
X46549998Y19704839D01*
X46549998Y19600077D02*
X46549998Y19800077D01*
X46673808Y19600077D02*
X46654760Y19609600D01*
X46654760Y19609600D02*
X46645237Y19619124D01*
X46645237Y19619124D02*
X46635713Y19638172D01*
X46635713Y19638172D02*
X46635713Y19695315D01*
X46635713Y19695315D02*
X46645237Y19714362D01*
X46645237Y19714362D02*
X46654760Y19723886D01*
X46654760Y19723886D02*
X46673808Y19733410D01*
X46673808Y19733410D02*
X46702379Y19733410D01*
X46702379Y19733410D02*
X46721427Y19723886D01*
X46721427Y19723886D02*
X46730951Y19714362D01*
X46730951Y19714362D02*
X46740475Y19695315D01*
X46740475Y19695315D02*
X46740475Y19638172D01*
X46740475Y19638172D02*
X46730951Y19619124D01*
X46730951Y19619124D02*
X46721427Y19609600D01*
X46721427Y19609600D02*
X46702379Y19600077D01*
X46702379Y19600077D02*
X46673808Y19600077D01*
X46854760Y19600077D02*
X46835712Y19609600D01*
X46835712Y19609600D02*
X46826189Y19628648D01*
X46826189Y19628648D02*
X46826189Y19800077D01*
X47007141Y19609600D02*
X46988093Y19600077D01*
X46988093Y19600077D02*
X46949998Y19600077D01*
X46949998Y19600077D02*
X46930951Y19609600D01*
X46930951Y19609600D02*
X46921427Y19628648D01*
X46921427Y19628648D02*
X46921427Y19704839D01*
X46921427Y19704839D02*
X46930951Y19723886D01*
X46930951Y19723886D02*
X46949998Y19733410D01*
X46949998Y19733410D02*
X46988093Y19733410D01*
X46988093Y19733410D02*
X47007141Y19723886D01*
X47007141Y19723886D02*
X47016665Y19704839D01*
X47016665Y19704839D02*
X47016665Y19685791D01*
X47016665Y19685791D02*
X46921427Y19666743D01*
X45092858Y-29399923D02*
X45092858Y-29199923D01*
X45092858Y-29199923D02*
X45159524Y-29342780D01*
X45159524Y-29342780D02*
X45226191Y-29199923D01*
X45226191Y-29199923D02*
X45226191Y-29399923D01*
X45350000Y-29399923D02*
X45330952Y-29390400D01*
X45330952Y-29390400D02*
X45321429Y-29380876D01*
X45321429Y-29380876D02*
X45311905Y-29361828D01*
X45311905Y-29361828D02*
X45311905Y-29304685D01*
X45311905Y-29304685D02*
X45321429Y-29285638D01*
X45321429Y-29285638D02*
X45330952Y-29276114D01*
X45330952Y-29276114D02*
X45350000Y-29266590D01*
X45350000Y-29266590D02*
X45378571Y-29266590D01*
X45378571Y-29266590D02*
X45397619Y-29276114D01*
X45397619Y-29276114D02*
X45407143Y-29285638D01*
X45407143Y-29285638D02*
X45416667Y-29304685D01*
X45416667Y-29304685D02*
X45416667Y-29361828D01*
X45416667Y-29361828D02*
X45407143Y-29380876D01*
X45407143Y-29380876D02*
X45397619Y-29390400D01*
X45397619Y-29390400D02*
X45378571Y-29399923D01*
X45378571Y-29399923D02*
X45350000Y-29399923D01*
X45588095Y-29266590D02*
X45588095Y-29399923D01*
X45502381Y-29266590D02*
X45502381Y-29371352D01*
X45502381Y-29371352D02*
X45511904Y-29390400D01*
X45511904Y-29390400D02*
X45530952Y-29399923D01*
X45530952Y-29399923D02*
X45559523Y-29399923D01*
X45559523Y-29399923D02*
X45578571Y-29390400D01*
X45578571Y-29390400D02*
X45588095Y-29380876D01*
X45683333Y-29266590D02*
X45683333Y-29399923D01*
X45683333Y-29285638D02*
X45692856Y-29276114D01*
X45692856Y-29276114D02*
X45711904Y-29266590D01*
X45711904Y-29266590D02*
X45740475Y-29266590D01*
X45740475Y-29266590D02*
X45759523Y-29276114D01*
X45759523Y-29276114D02*
X45769047Y-29295161D01*
X45769047Y-29295161D02*
X45769047Y-29399923D01*
X45835713Y-29266590D02*
X45911904Y-29266590D01*
X45864285Y-29199923D02*
X45864285Y-29371352D01*
X45864285Y-29371352D02*
X45873808Y-29390400D01*
X45873808Y-29390400D02*
X45892856Y-29399923D01*
X45892856Y-29399923D02*
X45911904Y-29399923D01*
X45978571Y-29399923D02*
X45978571Y-29266590D01*
X45978571Y-29199923D02*
X45969047Y-29209447D01*
X45969047Y-29209447D02*
X45978571Y-29218971D01*
X45978571Y-29218971D02*
X45988094Y-29209447D01*
X45988094Y-29209447D02*
X45978571Y-29199923D01*
X45978571Y-29199923D02*
X45978571Y-29218971D01*
X46073809Y-29266590D02*
X46073809Y-29399923D01*
X46073809Y-29285638D02*
X46083332Y-29276114D01*
X46083332Y-29276114D02*
X46102380Y-29266590D01*
X46102380Y-29266590D02*
X46130951Y-29266590D01*
X46130951Y-29266590D02*
X46149999Y-29276114D01*
X46149999Y-29276114D02*
X46159523Y-29295161D01*
X46159523Y-29295161D02*
X46159523Y-29399923D01*
X46340475Y-29266590D02*
X46340475Y-29428495D01*
X46340475Y-29428495D02*
X46330951Y-29447542D01*
X46330951Y-29447542D02*
X46321427Y-29457066D01*
X46321427Y-29457066D02*
X46302380Y-29466590D01*
X46302380Y-29466590D02*
X46273808Y-29466590D01*
X46273808Y-29466590D02*
X46254761Y-29457066D01*
X46340475Y-29390400D02*
X46321427Y-29399923D01*
X46321427Y-29399923D02*
X46283332Y-29399923D01*
X46283332Y-29399923D02*
X46264284Y-29390400D01*
X46264284Y-29390400D02*
X46254761Y-29380876D01*
X46254761Y-29380876D02*
X46245237Y-29361828D01*
X46245237Y-29361828D02*
X46245237Y-29304685D01*
X46245237Y-29304685D02*
X46254761Y-29285638D01*
X46254761Y-29285638D02*
X46264284Y-29276114D01*
X46264284Y-29276114D02*
X46283332Y-29266590D01*
X46283332Y-29266590D02*
X46321427Y-29266590D01*
X46321427Y-29266590D02*
X46340475Y-29276114D01*
X46435713Y-29399923D02*
X46435713Y-29199923D01*
X46435713Y-29295161D02*
X46549998Y-29295161D01*
X46549998Y-29399923D02*
X46549998Y-29199923D01*
X46673808Y-29399923D02*
X46654760Y-29390400D01*
X46654760Y-29390400D02*
X46645237Y-29380876D01*
X46645237Y-29380876D02*
X46635713Y-29361828D01*
X46635713Y-29361828D02*
X46635713Y-29304685D01*
X46635713Y-29304685D02*
X46645237Y-29285638D01*
X46645237Y-29285638D02*
X46654760Y-29276114D01*
X46654760Y-29276114D02*
X46673808Y-29266590D01*
X46673808Y-29266590D02*
X46702379Y-29266590D01*
X46702379Y-29266590D02*
X46721427Y-29276114D01*
X46721427Y-29276114D02*
X46730951Y-29285638D01*
X46730951Y-29285638D02*
X46740475Y-29304685D01*
X46740475Y-29304685D02*
X46740475Y-29361828D01*
X46740475Y-29361828D02*
X46730951Y-29380876D01*
X46730951Y-29380876D02*
X46721427Y-29390400D01*
X46721427Y-29390400D02*
X46702379Y-29399923D01*
X46702379Y-29399923D02*
X46673808Y-29399923D01*
X46854760Y-29399923D02*
X46835712Y-29390400D01*
X46835712Y-29390400D02*
X46826189Y-29371352D01*
X46826189Y-29371352D02*
X46826189Y-29199923D01*
X47007141Y-29390400D02*
X46988093Y-29399923D01*
X46988093Y-29399923D02*
X46949998Y-29399923D01*
X46949998Y-29399923D02*
X46930951Y-29390400D01*
X46930951Y-29390400D02*
X46921427Y-29371352D01*
X46921427Y-29371352D02*
X46921427Y-29295161D01*
X46921427Y-29295161D02*
X46930951Y-29276114D01*
X46930951Y-29276114D02*
X46949998Y-29266590D01*
X46949998Y-29266590D02*
X46988093Y-29266590D01*
X46988093Y-29266590D02*
X47007141Y-29276114D01*
X47007141Y-29276114D02*
X47016665Y-29295161D01*
X47016665Y-29295161D02*
X47016665Y-29314209D01*
X47016665Y-29314209D02*
X46921427Y-29333257D01*
D10*
X66062143Y10862943D02*
X66109762Y10910562D01*
X66109762Y10910562D02*
X66205000Y10958181D01*
X66205000Y10958181D02*
X66443095Y10958181D01*
X66443095Y10958181D02*
X66538333Y10910562D01*
X66538333Y10910562D02*
X66585952Y10862943D01*
X66585952Y10862943D02*
X66633571Y10767705D01*
X66633571Y10767705D02*
X66633571Y10672467D01*
X66633571Y10672467D02*
X66585952Y10529610D01*
X66585952Y10529610D02*
X66014524Y9958181D01*
X66014524Y9958181D02*
X66633571Y9958181D01*
X66966905Y10958181D02*
X67633571Y10958181D01*
X67633571Y10958181D02*
X67205000Y9958181D01*
X68205000Y10958181D02*
X68300238Y10958181D01*
X68300238Y10958181D02*
X68395476Y10910562D01*
X68395476Y10910562D02*
X68443095Y10862943D01*
X68443095Y10862943D02*
X68490714Y10767705D01*
X68490714Y10767705D02*
X68538333Y10577229D01*
X68538333Y10577229D02*
X68538333Y10339134D01*
X68538333Y10339134D02*
X68490714Y10148658D01*
X68490714Y10148658D02*
X68443095Y10053420D01*
X68443095Y10053420D02*
X68395476Y10005800D01*
X68395476Y10005800D02*
X68300238Y9958181D01*
X68300238Y9958181D02*
X68205000Y9958181D01*
X68205000Y9958181D02*
X68109762Y10005800D01*
X68109762Y10005800D02*
X68062143Y10053420D01*
X68062143Y10053420D02*
X68014524Y10148658D01*
X68014524Y10148658D02*
X67966905Y10339134D01*
X67966905Y10339134D02*
X67966905Y10577229D01*
X67966905Y10577229D02*
X68014524Y10767705D01*
X68014524Y10767705D02*
X68062143Y10862943D01*
X68062143Y10862943D02*
X68109762Y10910562D01*
X68109762Y10910562D02*
X68205000Y10958181D01*
X68966905Y9958181D02*
X68966905Y10958181D01*
X69062143Y10339134D02*
X69347857Y9958181D01*
X69347857Y10624848D02*
X68966905Y10243896D01*
D11*
X67621666Y8535851D02*
X67455000Y8773946D01*
X67335952Y8535851D02*
X67335952Y9035851D01*
X67335952Y9035851D02*
X67526428Y9035851D01*
X67526428Y9035851D02*
X67574047Y9012041D01*
X67574047Y9012041D02*
X67597857Y8988232D01*
X67597857Y8988232D02*
X67621666Y8940613D01*
X67621666Y8940613D02*
X67621666Y8869184D01*
X67621666Y8869184D02*
X67597857Y8821565D01*
X67597857Y8821565D02*
X67574047Y8797756D01*
X67574047Y8797756D02*
X67526428Y8773946D01*
X67526428Y8773946D02*
X67335952Y8773946D01*
X67788333Y9035851D02*
X68121666Y9035851D01*
X68121666Y9035851D02*
X67907381Y8535851D01*
D10*
X75018819Y11564953D02*
X75018819Y10993525D01*
X75018819Y11279239D02*
X74018819Y11279239D01*
X74018819Y11279239D02*
X74161676Y11184001D01*
X74161676Y11184001D02*
X74256914Y11088763D01*
X74256914Y11088763D02*
X74304533Y10993525D01*
X75018819Y11993525D02*
X74018819Y11993525D01*
X74637866Y12088763D02*
X75018819Y12374477D01*
X74352152Y12374477D02*
X74733104Y11993525D01*
D11*
X76441149Y11600667D02*
X76203054Y11434001D01*
X76441149Y11314953D02*
X75941149Y11314953D01*
X75941149Y11314953D02*
X75941149Y11505429D01*
X75941149Y11505429D02*
X75964959Y11553048D01*
X75964959Y11553048D02*
X75988768Y11576858D01*
X75988768Y11576858D02*
X76036387Y11600667D01*
X76036387Y11600667D02*
X76107816Y11600667D01*
X76107816Y11600667D02*
X76155435Y11576858D01*
X76155435Y11576858D02*
X76179244Y11553048D01*
X76179244Y11553048D02*
X76203054Y11505429D01*
X76203054Y11505429D02*
X76203054Y11314953D01*
X76155435Y11886382D02*
X76131625Y11838763D01*
X76131625Y11838763D02*
X76107816Y11814953D01*
X76107816Y11814953D02*
X76060197Y11791144D01*
X76060197Y11791144D02*
X76036387Y11791144D01*
X76036387Y11791144D02*
X75988768Y11814953D01*
X75988768Y11814953D02*
X75964959Y11838763D01*
X75964959Y11838763D02*
X75941149Y11886382D01*
X75941149Y11886382D02*
X75941149Y11981620D01*
X75941149Y11981620D02*
X75964959Y12029239D01*
X75964959Y12029239D02*
X75988768Y12053048D01*
X75988768Y12053048D02*
X76036387Y12076858D01*
X76036387Y12076858D02*
X76060197Y12076858D01*
X76060197Y12076858D02*
X76107816Y12053048D01*
X76107816Y12053048D02*
X76131625Y12029239D01*
X76131625Y12029239D02*
X76155435Y11981620D01*
X76155435Y11981620D02*
X76155435Y11886382D01*
X76155435Y11886382D02*
X76179244Y11838763D01*
X76179244Y11838763D02*
X76203054Y11814953D01*
X76203054Y11814953D02*
X76250673Y11791144D01*
X76250673Y11791144D02*
X76345911Y11791144D01*
X76345911Y11791144D02*
X76393530Y11814953D01*
X76393530Y11814953D02*
X76417340Y11838763D01*
X76417340Y11838763D02*
X76441149Y11886382D01*
X76441149Y11886382D02*
X76441149Y11981620D01*
X76441149Y11981620D02*
X76417340Y12029239D01*
X76417340Y12029239D02*
X76393530Y12053048D01*
X76393530Y12053048D02*
X76345911Y12076858D01*
X76345911Y12076858D02*
X76250673Y12076858D01*
X76250673Y12076858D02*
X76203054Y12053048D01*
X76203054Y12053048D02*
X76179244Y12029239D01*
X76179244Y12029239D02*
X76155435Y11981620D01*
D10*
X62726319Y5614049D02*
X61726319Y5614049D01*
X61726319Y5614049D02*
X61726319Y5995001D01*
X61726319Y5995001D02*
X61773938Y6090239D01*
X61773938Y6090239D02*
X61821557Y6137858D01*
X61821557Y6137858D02*
X61916795Y6185477D01*
X61916795Y6185477D02*
X62059652Y6185477D01*
X62059652Y6185477D02*
X62154890Y6137858D01*
X62154890Y6137858D02*
X62202509Y6090239D01*
X62202509Y6090239D02*
X62250128Y5995001D01*
X62250128Y5995001D02*
X62250128Y5614049D01*
X62726319Y6614049D02*
X62059652Y6614049D01*
X61726319Y6614049D02*
X61773938Y6566430D01*
X61773938Y6566430D02*
X61821557Y6614049D01*
X61821557Y6614049D02*
X61773938Y6661668D01*
X61773938Y6661668D02*
X61726319Y6614049D01*
X61726319Y6614049D02*
X61821557Y6614049D01*
X62678700Y7518810D02*
X62726319Y7423572D01*
X62726319Y7423572D02*
X62726319Y7233096D01*
X62726319Y7233096D02*
X62678700Y7137858D01*
X62678700Y7137858D02*
X62631080Y7090239D01*
X62631080Y7090239D02*
X62535842Y7042620D01*
X62535842Y7042620D02*
X62250128Y7042620D01*
X62250128Y7042620D02*
X62154890Y7090239D01*
X62154890Y7090239D02*
X62107271Y7137858D01*
X62107271Y7137858D02*
X62059652Y7233096D01*
X62059652Y7233096D02*
X62059652Y7423572D01*
X62059652Y7423572D02*
X62107271Y7518810D01*
X62726319Y8090239D02*
X62678700Y7995001D01*
X62678700Y7995001D02*
X62631080Y7947382D01*
X62631080Y7947382D02*
X62535842Y7899763D01*
X62535842Y7899763D02*
X62250128Y7899763D01*
X62250128Y7899763D02*
X62154890Y7947382D01*
X62154890Y7947382D02*
X62107271Y7995001D01*
X62107271Y7995001D02*
X62059652Y8090239D01*
X62059652Y8090239D02*
X62059652Y8233096D01*
X62059652Y8233096D02*
X62107271Y8328334D01*
X62107271Y8328334D02*
X62154890Y8375953D01*
X62154890Y8375953D02*
X62250128Y8423572D01*
X62250128Y8423572D02*
X62535842Y8423572D01*
X62535842Y8423572D02*
X62631080Y8375953D01*
X62631080Y8375953D02*
X62678700Y8328334D01*
X62678700Y8328334D02*
X62726319Y8233096D01*
X62726319Y8233096D02*
X62726319Y8090239D01*
X70574819Y6858096D02*
X71384342Y6858096D01*
X71384342Y6858096D02*
X71479580Y6905715D01*
X71479580Y6905715D02*
X71527200Y6953334D01*
X71527200Y6953334D02*
X71574819Y7048572D01*
X71574819Y7048572D02*
X71574819Y7239048D01*
X71574819Y7239048D02*
X71527200Y7334286D01*
X71527200Y7334286D02*
X71479580Y7381905D01*
X71479580Y7381905D02*
X71384342Y7429524D01*
X71384342Y7429524D02*
X70574819Y7429524D01*
X70670057Y7858096D02*
X70622438Y7905715D01*
X70622438Y7905715D02*
X70574819Y8000953D01*
X70574819Y8000953D02*
X70574819Y8239048D01*
X70574819Y8239048D02*
X70622438Y8334286D01*
X70622438Y8334286D02*
X70670057Y8381905D01*
X70670057Y8381905D02*
X70765295Y8429524D01*
X70765295Y8429524D02*
X70860533Y8429524D01*
X70860533Y8429524D02*
X71003390Y8381905D01*
X71003390Y8381905D02*
X71574819Y7810477D01*
X71574819Y7810477D02*
X71574819Y8429524D01*
X70302571Y1167181D02*
X69731143Y1167181D01*
X70016857Y1167181D02*
X70016857Y2167181D01*
X70016857Y2167181D02*
X69921619Y2024324D01*
X69921619Y2024324D02*
X69826381Y1929086D01*
X69826381Y1929086D02*
X69731143Y1881467D01*
X70921619Y2167181D02*
X71016857Y2167181D01*
X71016857Y2167181D02*
X71112095Y2119562D01*
X71112095Y2119562D02*
X71159714Y2071943D01*
X71159714Y2071943D02*
X71207333Y1976705D01*
X71207333Y1976705D02*
X71254952Y1786229D01*
X71254952Y1786229D02*
X71254952Y1548134D01*
X71254952Y1548134D02*
X71207333Y1357658D01*
X71207333Y1357658D02*
X71159714Y1262420D01*
X71159714Y1262420D02*
X71112095Y1214800D01*
X71112095Y1214800D02*
X71016857Y1167181D01*
X71016857Y1167181D02*
X70921619Y1167181D01*
X70921619Y1167181D02*
X70826381Y1214800D01*
X70826381Y1214800D02*
X70778762Y1262420D01*
X70778762Y1262420D02*
X70731143Y1357658D01*
X70731143Y1357658D02*
X70683524Y1548134D01*
X70683524Y1548134D02*
X70683524Y1786229D01*
X70683524Y1786229D02*
X70731143Y1976705D01*
X70731143Y1976705D02*
X70778762Y2071943D01*
X70778762Y2071943D02*
X70826381Y2119562D01*
X70826381Y2119562D02*
X70921619Y2167181D01*
X72112095Y1833848D02*
X72112095Y1167181D01*
X71683524Y1833848D02*
X71683524Y1310039D01*
X71683524Y1310039D02*
X71731143Y1214800D01*
X71731143Y1214800D02*
X71826381Y1167181D01*
X71826381Y1167181D02*
X71969238Y1167181D01*
X71969238Y1167181D02*
X72064476Y1214800D01*
X72064476Y1214800D02*
X72112095Y1262420D01*
X72921619Y1690991D02*
X72588286Y1690991D01*
X72588286Y1167181D02*
X72588286Y2167181D01*
X72588286Y2167181D02*
X73064476Y2167181D01*
D11*
X71290666Y3122470D02*
X71266857Y3098660D01*
X71266857Y3098660D02*
X71195428Y3074851D01*
X71195428Y3074851D02*
X71147809Y3074851D01*
X71147809Y3074851D02*
X71076381Y3098660D01*
X71076381Y3098660D02*
X71028762Y3146280D01*
X71028762Y3146280D02*
X71004952Y3193899D01*
X71004952Y3193899D02*
X70981143Y3289137D01*
X70981143Y3289137D02*
X70981143Y3360565D01*
X70981143Y3360565D02*
X71004952Y3455803D01*
X71004952Y3455803D02*
X71028762Y3503422D01*
X71028762Y3503422D02*
X71076381Y3551041D01*
X71076381Y3551041D02*
X71147809Y3574851D01*
X71147809Y3574851D02*
X71195428Y3574851D01*
X71195428Y3574851D02*
X71266857Y3551041D01*
X71266857Y3551041D02*
X71290666Y3527232D01*
X71528762Y3074851D02*
X71624000Y3074851D01*
X71624000Y3074851D02*
X71671619Y3098660D01*
X71671619Y3098660D02*
X71695428Y3122470D01*
X71695428Y3122470D02*
X71743047Y3193899D01*
X71743047Y3193899D02*
X71766857Y3289137D01*
X71766857Y3289137D02*
X71766857Y3479613D01*
X71766857Y3479613D02*
X71743047Y3527232D01*
X71743047Y3527232D02*
X71719238Y3551041D01*
X71719238Y3551041D02*
X71671619Y3574851D01*
X71671619Y3574851D02*
X71576381Y3574851D01*
X71576381Y3574851D02*
X71528762Y3551041D01*
X71528762Y3551041D02*
X71504952Y3527232D01*
X71504952Y3527232D02*
X71481143Y3479613D01*
X71481143Y3479613D02*
X71481143Y3360565D01*
X71481143Y3360565D02*
X71504952Y3312946D01*
X71504952Y3312946D02*
X71528762Y3289137D01*
X71528762Y3289137D02*
X71576381Y3265327D01*
X71576381Y3265327D02*
X71671619Y3265327D01*
X71671619Y3265327D02*
X71719238Y3289137D01*
X71719238Y3289137D02*
X71743047Y3312946D01*
X71743047Y3312946D02*
X71766857Y3360565D01*
D10*
X96901381Y-27717200D02*
X97044238Y-27764819D01*
X97044238Y-27764819D02*
X97282333Y-27764819D01*
X97282333Y-27764819D02*
X97377571Y-27717200D01*
X97377571Y-27717200D02*
X97425190Y-27669580D01*
X97425190Y-27669580D02*
X97472809Y-27574342D01*
X97472809Y-27574342D02*
X97472809Y-27479104D01*
X97472809Y-27479104D02*
X97425190Y-27383866D01*
X97425190Y-27383866D02*
X97377571Y-27336247D01*
X97377571Y-27336247D02*
X97282333Y-27288628D01*
X97282333Y-27288628D02*
X97091857Y-27241009D01*
X97091857Y-27241009D02*
X96996619Y-27193390D01*
X96996619Y-27193390D02*
X96949000Y-27145771D01*
X96949000Y-27145771D02*
X96901381Y-27050533D01*
X96901381Y-27050533D02*
X96901381Y-26955295D01*
X96901381Y-26955295D02*
X96949000Y-26860057D01*
X96949000Y-26860057D02*
X96996619Y-26812438D01*
X96996619Y-26812438D02*
X97091857Y-26764819D01*
X97091857Y-26764819D02*
X97329952Y-26764819D01*
X97329952Y-26764819D02*
X97472809Y-26812438D01*
X97806143Y-26764819D02*
X98044238Y-27764819D01*
X98044238Y-27764819D02*
X98234714Y-27050533D01*
X98234714Y-27050533D02*
X98425190Y-27764819D01*
X98425190Y-27764819D02*
X98663286Y-26764819D01*
X98806143Y-27860057D02*
X99568047Y-27860057D01*
X99806143Y-27764819D02*
X99806143Y-26764819D01*
X99806143Y-26764819D02*
X100187095Y-26764819D01*
X100187095Y-26764819D02*
X100282333Y-26812438D01*
X100282333Y-26812438D02*
X100329952Y-26860057D01*
X100329952Y-26860057D02*
X100377571Y-26955295D01*
X100377571Y-26955295D02*
X100377571Y-27098152D01*
X100377571Y-27098152D02*
X100329952Y-27193390D01*
X100329952Y-27193390D02*
X100282333Y-27241009D01*
X100282333Y-27241009D02*
X100187095Y-27288628D01*
X100187095Y-27288628D02*
X99806143Y-27288628D01*
X101234714Y-27098152D02*
X101234714Y-27764819D01*
X100806143Y-27098152D02*
X100806143Y-27621961D01*
X100806143Y-27621961D02*
X100853762Y-27717200D01*
X100853762Y-27717200D02*
X100949000Y-27764819D01*
X100949000Y-27764819D02*
X101091857Y-27764819D01*
X101091857Y-27764819D02*
X101187095Y-27717200D01*
X101187095Y-27717200D02*
X101234714Y-27669580D01*
X101663286Y-27717200D02*
X101758524Y-27764819D01*
X101758524Y-27764819D02*
X101949000Y-27764819D01*
X101949000Y-27764819D02*
X102044238Y-27717200D01*
X102044238Y-27717200D02*
X102091857Y-27621961D01*
X102091857Y-27621961D02*
X102091857Y-27574342D01*
X102091857Y-27574342D02*
X102044238Y-27479104D01*
X102044238Y-27479104D02*
X101949000Y-27431485D01*
X101949000Y-27431485D02*
X101806143Y-27431485D01*
X101806143Y-27431485D02*
X101710905Y-27383866D01*
X101710905Y-27383866D02*
X101663286Y-27288628D01*
X101663286Y-27288628D02*
X101663286Y-27241009D01*
X101663286Y-27241009D02*
X101710905Y-27145771D01*
X101710905Y-27145771D02*
X101806143Y-27098152D01*
X101806143Y-27098152D02*
X101949000Y-27098152D01*
X101949000Y-27098152D02*
X102044238Y-27145771D01*
X102520429Y-27764819D02*
X102520429Y-26764819D01*
X102949000Y-27764819D02*
X102949000Y-27241009D01*
X102949000Y-27241009D02*
X102901381Y-27145771D01*
X102901381Y-27145771D02*
X102806143Y-27098152D01*
X102806143Y-27098152D02*
X102663286Y-27098152D01*
X102663286Y-27098152D02*
X102568048Y-27145771D01*
X102568048Y-27145771D02*
X102520429Y-27193390D01*
D15*
X99282334Y-24313600D02*
X99353762Y-24337409D01*
X99353762Y-24337409D02*
X99472810Y-24337409D01*
X99472810Y-24337409D02*
X99520429Y-24313600D01*
X99520429Y-24313600D02*
X99544238Y-24289790D01*
X99544238Y-24289790D02*
X99568048Y-24242171D01*
X99568048Y-24242171D02*
X99568048Y-24194552D01*
X99568048Y-24194552D02*
X99544238Y-24146933D01*
X99544238Y-24146933D02*
X99520429Y-24123123D01*
X99520429Y-24123123D02*
X99472810Y-24099314D01*
X99472810Y-24099314D02*
X99377572Y-24075504D01*
X99377572Y-24075504D02*
X99329953Y-24051695D01*
X99329953Y-24051695D02*
X99306143Y-24027885D01*
X99306143Y-24027885D02*
X99282334Y-23980266D01*
X99282334Y-23980266D02*
X99282334Y-23932647D01*
X99282334Y-23932647D02*
X99306143Y-23885028D01*
X99306143Y-23885028D02*
X99329953Y-23861219D01*
X99329953Y-23861219D02*
X99377572Y-23837409D01*
X99377572Y-23837409D02*
X99496619Y-23837409D01*
X99496619Y-23837409D02*
X99568048Y-23861219D01*
X99734714Y-23837409D02*
X99853762Y-24337409D01*
X99853762Y-24337409D02*
X99949000Y-23980266D01*
X99949000Y-23980266D02*
X100044238Y-24337409D01*
X100044238Y-24337409D02*
X100163286Y-23837409D01*
X100568048Y-24004076D02*
X100568048Y-24337409D01*
X100449000Y-23813600D02*
X100329953Y-24170742D01*
X100329953Y-24170742D02*
X100639476Y-24170742D01*
D10*
X57967904Y-14780819D02*
X57872666Y-14733200D01*
X57872666Y-14733200D02*
X57825047Y-14685580D01*
X57825047Y-14685580D02*
X57777428Y-14590342D01*
X57777428Y-14590342D02*
X57777428Y-14304628D01*
X57777428Y-14304628D02*
X57825047Y-14209390D01*
X57825047Y-14209390D02*
X57872666Y-14161771D01*
X57872666Y-14161771D02*
X57967904Y-14114152D01*
X57967904Y-14114152D02*
X58110761Y-14114152D01*
X58110761Y-14114152D02*
X58205999Y-14161771D01*
X58205999Y-14161771D02*
X58253618Y-14209390D01*
X58253618Y-14209390D02*
X58301237Y-14304628D01*
X58301237Y-14304628D02*
X58301237Y-14590342D01*
X58301237Y-14590342D02*
X58253618Y-14685580D01*
X58253618Y-14685580D02*
X58205999Y-14733200D01*
X58205999Y-14733200D02*
X58110761Y-14780819D01*
X58110761Y-14780819D02*
X57967904Y-14780819D01*
X58872666Y-14780819D02*
X58777428Y-14733200D01*
X58777428Y-14733200D02*
X58729809Y-14637961D01*
X58729809Y-14637961D02*
X58729809Y-13780819D01*
X59634571Y-14733200D02*
X59539333Y-14780819D01*
X59539333Y-14780819D02*
X59348857Y-14780819D01*
X59348857Y-14780819D02*
X59253619Y-14733200D01*
X59253619Y-14733200D02*
X59206000Y-14637961D01*
X59206000Y-14637961D02*
X59206000Y-14257009D01*
X59206000Y-14257009D02*
X59253619Y-14161771D01*
X59253619Y-14161771D02*
X59348857Y-14114152D01*
X59348857Y-14114152D02*
X59539333Y-14114152D01*
X59539333Y-14114152D02*
X59634571Y-14161771D01*
X59634571Y-14161771D02*
X59682190Y-14257009D01*
X59682190Y-14257009D02*
X59682190Y-14352247D01*
X59682190Y-14352247D02*
X59206000Y-14447485D01*
X60539333Y-14780819D02*
X60539333Y-13780819D01*
X60539333Y-14733200D02*
X60444095Y-14780819D01*
X60444095Y-14780819D02*
X60253619Y-14780819D01*
X60253619Y-14780819D02*
X60158381Y-14733200D01*
X60158381Y-14733200D02*
X60110762Y-14685580D01*
X60110762Y-14685580D02*
X60063143Y-14590342D01*
X60063143Y-14590342D02*
X60063143Y-14304628D01*
X60063143Y-14304628D02*
X60110762Y-14209390D01*
X60110762Y-14209390D02*
X60158381Y-14161771D01*
X60158381Y-14161771D02*
X60253619Y-14114152D01*
X60253619Y-14114152D02*
X60444095Y-14114152D01*
X60444095Y-14114152D02*
X60539333Y-14161771D01*
X60967905Y-14733200D02*
X61110762Y-14780819D01*
X61110762Y-14780819D02*
X61348857Y-14780819D01*
X61348857Y-14780819D02*
X61444095Y-14733200D01*
X61444095Y-14733200D02*
X61491714Y-14685580D01*
X61491714Y-14685580D02*
X61539333Y-14590342D01*
X61539333Y-14590342D02*
X61539333Y-14495104D01*
X61539333Y-14495104D02*
X61491714Y-14399866D01*
X61491714Y-14399866D02*
X61444095Y-14352247D01*
X61444095Y-14352247D02*
X61348857Y-14304628D01*
X61348857Y-14304628D02*
X61158381Y-14257009D01*
X61158381Y-14257009D02*
X61063143Y-14209390D01*
X61063143Y-14209390D02*
X61015524Y-14161771D01*
X61015524Y-14161771D02*
X60967905Y-14066533D01*
X60967905Y-14066533D02*
X60967905Y-13971295D01*
X60967905Y-13971295D02*
X61015524Y-13876057D01*
X61015524Y-13876057D02*
X61063143Y-13828438D01*
X61063143Y-13828438D02*
X61158381Y-13780819D01*
X61158381Y-13780819D02*
X61396476Y-13780819D01*
X61396476Y-13780819D02*
X61539333Y-13828438D01*
X61872667Y-14114152D02*
X62110762Y-14780819D01*
X62348857Y-14114152D02*
X62110762Y-14780819D01*
X62110762Y-14780819D02*
X62015524Y-15018914D01*
X62015524Y-15018914D02*
X61967905Y-15066533D01*
X61967905Y-15066533D02*
X61872667Y-15114152D01*
X62729810Y-14780819D02*
X62729810Y-14114152D01*
X62729810Y-14209390D02*
X62777429Y-14161771D01*
X62777429Y-14161771D02*
X62872667Y-14114152D01*
X62872667Y-14114152D02*
X63015524Y-14114152D01*
X63015524Y-14114152D02*
X63110762Y-14161771D01*
X63110762Y-14161771D02*
X63158381Y-14257009D01*
X63158381Y-14257009D02*
X63158381Y-14780819D01*
X63158381Y-14257009D02*
X63206000Y-14161771D01*
X63206000Y-14161771D02*
X63301238Y-14114152D01*
X63301238Y-14114152D02*
X63444095Y-14114152D01*
X63444095Y-14114152D02*
X63539334Y-14161771D01*
X63539334Y-14161771D02*
X63586953Y-14257009D01*
X63586953Y-14257009D02*
X63586953Y-14780819D01*
X59944095Y-16280819D02*
X59944095Y-17090342D01*
X59944095Y-17090342D02*
X59991714Y-17185580D01*
X59991714Y-17185580D02*
X60039333Y-17233200D01*
X60039333Y-17233200D02*
X60134571Y-17280819D01*
X60134571Y-17280819D02*
X60325047Y-17280819D01*
X60325047Y-17280819D02*
X60420285Y-17233200D01*
X60420285Y-17233200D02*
X60467904Y-17185580D01*
X60467904Y-17185580D02*
X60515523Y-17090342D01*
X60515523Y-17090342D02*
X60515523Y-16280819D01*
X61420285Y-16280819D02*
X61229809Y-16280819D01*
X61229809Y-16280819D02*
X61134571Y-16328438D01*
X61134571Y-16328438D02*
X61086952Y-16376057D01*
X61086952Y-16376057D02*
X60991714Y-16518914D01*
X60991714Y-16518914D02*
X60944095Y-16709390D01*
X60944095Y-16709390D02*
X60944095Y-17090342D01*
X60944095Y-17090342D02*
X60991714Y-17185580D01*
X60991714Y-17185580D02*
X61039333Y-17233200D01*
X61039333Y-17233200D02*
X61134571Y-17280819D01*
X61134571Y-17280819D02*
X61325047Y-17280819D01*
X61325047Y-17280819D02*
X61420285Y-17233200D01*
X61420285Y-17233200D02*
X61467904Y-17185580D01*
X61467904Y-17185580D02*
X61515523Y-17090342D01*
X61515523Y-17090342D02*
X61515523Y-16852247D01*
X61515523Y-16852247D02*
X61467904Y-16757009D01*
X61467904Y-16757009D02*
X61420285Y-16709390D01*
X61420285Y-16709390D02*
X61325047Y-16661771D01*
X61325047Y-16661771D02*
X61134571Y-16661771D01*
X61134571Y-16661771D02*
X61039333Y-16709390D01*
X61039333Y-16709390D02*
X60991714Y-16757009D01*
X60991714Y-16757009D02*
X60944095Y-16852247D01*
D12*
X98270490Y6004954D02*
X98294300Y5981145D01*
X98294300Y5981145D02*
X98318109Y5909716D01*
X98318109Y5909716D02*
X98318109Y5862097D01*
X98318109Y5862097D02*
X98294300Y5790669D01*
X98294300Y5790669D02*
X98246680Y5743050D01*
X98246680Y5743050D02*
X98199061Y5719240D01*
X98199061Y5719240D02*
X98103823Y5695431D01*
X98103823Y5695431D02*
X98032395Y5695431D01*
X98032395Y5695431D02*
X97937157Y5719240D01*
X97937157Y5719240D02*
X97889538Y5743050D01*
X97889538Y5743050D02*
X97841919Y5790669D01*
X97841919Y5790669D02*
X97818109Y5862097D01*
X97818109Y5862097D02*
X97818109Y5909716D01*
X97818109Y5909716D02*
X97841919Y5981145D01*
X97841919Y5981145D02*
X97865728Y6004954D01*
X98318109Y6290669D02*
X98294300Y6243050D01*
X98294300Y6243050D02*
X98270490Y6219240D01*
X98270490Y6219240D02*
X98222871Y6195431D01*
X98222871Y6195431D02*
X98080014Y6195431D01*
X98080014Y6195431D02*
X98032395Y6219240D01*
X98032395Y6219240D02*
X98008585Y6243050D01*
X98008585Y6243050D02*
X97984776Y6290669D01*
X97984776Y6290669D02*
X97984776Y6362097D01*
X97984776Y6362097D02*
X98008585Y6409716D01*
X98008585Y6409716D02*
X98032395Y6433526D01*
X98032395Y6433526D02*
X98080014Y6457335D01*
X98080014Y6457335D02*
X98222871Y6457335D01*
X98222871Y6457335D02*
X98270490Y6433526D01*
X98270490Y6433526D02*
X98294300Y6409716D01*
X98294300Y6409716D02*
X98318109Y6362097D01*
X98318109Y6362097D02*
X98318109Y6290669D01*
X97984776Y6671621D02*
X98318109Y6671621D01*
X98032395Y6671621D02*
X98008585Y6695431D01*
X98008585Y6695431D02*
X97984776Y6743050D01*
X97984776Y6743050D02*
X97984776Y6814478D01*
X97984776Y6814478D02*
X98008585Y6862097D01*
X98008585Y6862097D02*
X98056204Y6885907D01*
X98056204Y6885907D02*
X98318109Y6885907D01*
X97984776Y7124002D02*
X98318109Y7124002D01*
X98032395Y7124002D02*
X98008585Y7147812D01*
X98008585Y7147812D02*
X97984776Y7195431D01*
X97984776Y7195431D02*
X97984776Y7266859D01*
X97984776Y7266859D02*
X98008585Y7314478D01*
X98008585Y7314478D02*
X98056204Y7338288D01*
X98056204Y7338288D02*
X98318109Y7338288D01*
X98365728Y7457335D02*
X98365728Y7838288D01*
X97818109Y8052573D02*
X97818109Y8100192D01*
X97818109Y8100192D02*
X97841919Y8147811D01*
X97841919Y8147811D02*
X97865728Y8171621D01*
X97865728Y8171621D02*
X97913347Y8195430D01*
X97913347Y8195430D02*
X98008585Y8219240D01*
X98008585Y8219240D02*
X98127633Y8219240D01*
X98127633Y8219240D02*
X98222871Y8195430D01*
X98222871Y8195430D02*
X98270490Y8171621D01*
X98270490Y8171621D02*
X98294300Y8147811D01*
X98294300Y8147811D02*
X98318109Y8100192D01*
X98318109Y8100192D02*
X98318109Y8052573D01*
X98318109Y8052573D02*
X98294300Y8004954D01*
X98294300Y8004954D02*
X98270490Y7981145D01*
X98270490Y7981145D02*
X98222871Y7957335D01*
X98222871Y7957335D02*
X98127633Y7933526D01*
X98127633Y7933526D02*
X98008585Y7933526D01*
X98008585Y7933526D02*
X97913347Y7957335D01*
X97913347Y7957335D02*
X97865728Y7981145D01*
X97865728Y7981145D02*
X97841919Y8004954D01*
X97841919Y8004954D02*
X97818109Y8052573D01*
X98318109Y8695430D02*
X98318109Y8409716D01*
X98318109Y8552573D02*
X97818109Y8552573D01*
X97818109Y8552573D02*
X97889538Y8504954D01*
X97889538Y8504954D02*
X97937157Y8457335D01*
X97937157Y8457335D02*
X97960966Y8409716D01*
X98318109Y8862096D02*
X97984776Y9124001D01*
X97984776Y8862096D02*
X98318109Y9124001D01*
X97818109Y9409715D02*
X97818109Y9457334D01*
X97818109Y9457334D02*
X97841919Y9504953D01*
X97841919Y9504953D02*
X97865728Y9528763D01*
X97865728Y9528763D02*
X97913347Y9552572D01*
X97913347Y9552572D02*
X98008585Y9576382D01*
X98008585Y9576382D02*
X98127633Y9576382D01*
X98127633Y9576382D02*
X98222871Y9552572D01*
X98222871Y9552572D02*
X98270490Y9528763D01*
X98270490Y9528763D02*
X98294300Y9504953D01*
X98294300Y9504953D02*
X98318109Y9457334D01*
X98318109Y9457334D02*
X98318109Y9409715D01*
X98318109Y9409715D02*
X98294300Y9362096D01*
X98294300Y9362096D02*
X98270490Y9338287D01*
X98270490Y9338287D02*
X98222871Y9314477D01*
X98222871Y9314477D02*
X98127633Y9290668D01*
X98127633Y9290668D02*
X98008585Y9290668D01*
X98008585Y9290668D02*
X97913347Y9314477D01*
X97913347Y9314477D02*
X97865728Y9338287D01*
X97865728Y9338287D02*
X97841919Y9362096D01*
X97841919Y9362096D02*
X97818109Y9409715D01*
X97865728Y9766858D02*
X97841919Y9790667D01*
X97841919Y9790667D02*
X97818109Y9838286D01*
X97818109Y9838286D02*
X97818109Y9957334D01*
X97818109Y9957334D02*
X97841919Y10004953D01*
X97841919Y10004953D02*
X97865728Y10028762D01*
X97865728Y10028762D02*
X97913347Y10052572D01*
X97913347Y10052572D02*
X97960966Y10052572D01*
X97960966Y10052572D02*
X98032395Y10028762D01*
X98032395Y10028762D02*
X98318109Y9743048D01*
X98318109Y9743048D02*
X98318109Y10052572D01*
X86185000Y-27989000D02*
X86185000Y-30589000D01*
X86185000Y-30589000D02*
X92885000Y-30589000D01*
X88135000Y-30639000D02*
X88135000Y-31939000D01*
X88135000Y-31939000D02*
X88335000Y-32139000D01*
X88335000Y-32139000D02*
X89185000Y-32139000D01*
X89185000Y-32139000D02*
X89385000Y-31939000D01*
X89385000Y-31939000D02*
X89435000Y-31889000D01*
X89435000Y-31889000D02*
X89435000Y-30589000D01*
X92885000Y-27989000D02*
X86185000Y-27989000D01*
X92885000Y-30589000D02*
X92885000Y-27989000D01*
X76406000Y-27956000D02*
X76406000Y-30556000D01*
X76406000Y-30556000D02*
X83106000Y-30556000D01*
X78356000Y-30606000D02*
X78356000Y-31906000D01*
X78356000Y-31906000D02*
X78556000Y-32106000D01*
X78556000Y-32106000D02*
X79406000Y-32106000D01*
X79406000Y-32106000D02*
X79606000Y-31906000D01*
X79606000Y-31906000D02*
X79656000Y-31856000D01*
X79656000Y-31856000D02*
X79656000Y-30556000D01*
X83106000Y-27956000D02*
X76406000Y-27956000D01*
X83106000Y-30556000D02*
X83106000Y-27956000D01*
X74785000Y9799000D02*
X74035000Y9049000D01*
X74785000Y11049000D02*
X74785000Y9799000D01*
X74785000Y11049000D02*
X74785000Y12299000D01*
X74785000Y12299000D02*
X74035000Y13049000D01*
X74035000Y9049000D02*
X72785000Y9049000D01*
X74035000Y13049000D02*
X72785000Y13049000D01*
X71535000Y9049000D02*
X72785000Y9049000D01*
X71535000Y13049000D02*
X72785000Y13049000D01*
X70785000Y9799000D02*
X71535000Y9049000D01*
X70785000Y11049000D02*
X70785000Y9799000D01*
X70785000Y11049000D02*
X70785000Y12299000D01*
X70785000Y12299000D02*
X71535000Y13049000D01*
X70388000Y6086000D02*
X72388000Y6086000D01*
X70388000Y4836000D02*
X70388000Y6086000D01*
X72388000Y6086000D02*
X72388000Y4836000D01*
X72388000Y4836000D02*
X70388000Y4836000D01*
X61869000Y8870000D02*
X61869000Y6995000D01*
X61869000Y6995000D02*
X62494000Y6370000D01*
X62494000Y6370000D02*
X64369000Y6370000D01*
X64369000Y8870000D02*
X61869000Y8870000D01*
X64369000Y6370000D02*
X64369000Y8870000D01*
X55483000Y8519000D02*
X53483000Y8519000D01*
X55483000Y9769000D02*
X55483000Y8519000D01*
X53483000Y8519000D02*
X53483000Y9769000D01*
X53483000Y9769000D02*
X55483000Y9769000D01*
X81574000Y-3850000D02*
X81574000Y-8850000D01*
X81574000Y-8850000D02*
X86574000Y-8850000D01*
X86574000Y-3850000D02*
X81574000Y-3850000D01*
X86574000Y-7850000D02*
X85574000Y-8850000D01*
X86574000Y-8850000D02*
X86574000Y-3850000D01*
X86074000Y-6350000D02*
G75*
G03*
X86074000Y-6350000I-2000000J0D01*
G01*
X82059000Y1640000D02*
X79259000Y1640000D01*
X82059000Y3440000D02*
X82059000Y1640000D01*
X81409000Y2540000D02*
X81009000Y2540000D01*
X81009000Y2540000D02*
X81009000Y1990000D01*
X81009000Y2540000D02*
X81009000Y3090000D01*
X81009000Y2540000D02*
X80409000Y2140000D01*
X80409000Y2140000D02*
X80409000Y2940000D01*
X80409000Y2540000D02*
X79909000Y2540000D01*
X80409000Y2940000D02*
X81009000Y2540000D01*
X79259000Y1640000D02*
X79259000Y3440000D01*
X79259000Y3440000D02*
X82059000Y3440000D01*
X53110000Y12081000D02*
X53110000Y14081000D01*
X54360000Y12081000D02*
X53110000Y12081000D01*
X53110000Y14081000D02*
X54360000Y14081000D01*
X54360000Y14081000D02*
X54360000Y12081000D01*
X59574000Y6070000D02*
X57774000Y6070000D01*
X59574000Y9170000D02*
X59574000Y6070000D01*
X59574000Y9170000D02*
X58424000Y9170000D01*
X57774000Y8520000D02*
X58424000Y9170000D01*
X57774000Y8520000D02*
X57774000Y6070000D01*
X55483000Y5471000D02*
X53483000Y5471000D01*
X55483000Y6721000D02*
X55483000Y5471000D01*
X53483000Y5471000D02*
X53483000Y6721000D01*
X53483000Y6721000D02*
X55483000Y6721000D01*
X76618000Y-19833500D02*
X75618000Y-18833500D01*
X93038000Y-19833500D02*
X76618000Y-19833500D01*
X75618000Y-18833500D02*
X75618000Y-10053500D01*
X77343000Y-16973500D02*
X78613000Y-16973500D01*
X77443000Y-16973500D02*
X77443000Y-15620167D01*
X77543000Y-16973500D02*
X77543000Y-15620167D01*
X77643000Y-16973500D02*
X77643000Y-15620167D01*
X77743000Y-16973500D02*
X77743000Y-15620167D01*
X77843000Y-16973500D02*
X77843000Y-15620167D01*
X77943000Y-16973500D02*
X77943000Y-15620167D01*
X78043000Y-16973500D02*
X78043000Y-15620167D01*
X78143000Y-16973500D02*
X78143000Y-15620167D01*
X78243000Y-16973500D02*
X78243000Y-15620167D01*
X78343000Y-16973500D02*
X78343000Y-15620167D01*
X78443000Y-16973500D02*
X78443000Y-15620167D01*
X78543000Y-16973500D02*
X78543000Y-15620167D01*
X78613000Y-16973500D02*
X78613000Y-12913500D01*
X79883000Y-16973500D02*
X81153000Y-16973500D01*
X79983000Y-16973500D02*
X79983000Y-15620167D01*
X80083000Y-16973500D02*
X80083000Y-15620167D01*
X80183000Y-16973500D02*
X80183000Y-15620167D01*
X80283000Y-16973500D02*
X80283000Y-15620167D01*
X80383000Y-16973500D02*
X80383000Y-15620167D01*
X80483000Y-16973500D02*
X80483000Y-15620167D01*
X80583000Y-16973500D02*
X80583000Y-15620167D01*
X80683000Y-16973500D02*
X80683000Y-15620167D01*
X80783000Y-16973500D02*
X80783000Y-15620167D01*
X80883000Y-16973500D02*
X80883000Y-15620167D01*
X80983000Y-16973500D02*
X80983000Y-15620167D01*
X81083000Y-16973500D02*
X81083000Y-15620167D01*
X81153000Y-16973500D02*
X81153000Y-12913500D01*
X82423000Y-16973500D02*
X83693000Y-16973500D01*
X82523000Y-16973500D02*
X82523000Y-15620167D01*
X82623000Y-16973500D02*
X82623000Y-15620167D01*
X82723000Y-16973500D02*
X82723000Y-15620167D01*
X82823000Y-16973500D02*
X82823000Y-15620167D01*
X82923000Y-16973500D02*
X82923000Y-15620167D01*
X83023000Y-16973500D02*
X83023000Y-15620167D01*
X83123000Y-16973500D02*
X83123000Y-15620167D01*
X83223000Y-16973500D02*
X83223000Y-15620167D01*
X83323000Y-16973500D02*
X83323000Y-15620167D01*
X83423000Y-16973500D02*
X83423000Y-15620167D01*
X83523000Y-16973500D02*
X83523000Y-15620167D01*
X83623000Y-16973500D02*
X83623000Y-15620167D01*
X83693000Y-16973500D02*
X83693000Y-12913500D01*
X84963000Y-16973500D02*
X86233000Y-16973500D01*
X85063000Y-16973500D02*
X85063000Y-15620167D01*
X85163000Y-16973500D02*
X85163000Y-15620167D01*
X85263000Y-16973500D02*
X85263000Y-15620167D01*
X85363000Y-16973500D02*
X85363000Y-15620167D01*
X85463000Y-16973500D02*
X85463000Y-15620167D01*
X85563000Y-16973500D02*
X85563000Y-15620167D01*
X85663000Y-16973500D02*
X85663000Y-15620167D01*
X85763000Y-16973500D02*
X85763000Y-15620167D01*
X85863000Y-16973500D02*
X85863000Y-15620167D01*
X85963000Y-16973500D02*
X85963000Y-15620167D01*
X86063000Y-16973500D02*
X86063000Y-15620167D01*
X86163000Y-16973500D02*
X86163000Y-15620167D01*
X86233000Y-16973500D02*
X86233000Y-12913500D01*
X87503000Y-16973500D02*
X88773000Y-16973500D01*
X87603000Y-16973500D02*
X87603000Y-15620167D01*
X87703000Y-16973500D02*
X87703000Y-15620167D01*
X87803000Y-16973500D02*
X87803000Y-15620167D01*
X87903000Y-16973500D02*
X87903000Y-15620167D01*
X88003000Y-16973500D02*
X88003000Y-15620167D01*
X88103000Y-16973500D02*
X88103000Y-15620167D01*
X88203000Y-16973500D02*
X88203000Y-15620167D01*
X88303000Y-16973500D02*
X88303000Y-15620167D01*
X88403000Y-16973500D02*
X88403000Y-15620167D01*
X88503000Y-16973500D02*
X88503000Y-15620167D01*
X88603000Y-16973500D02*
X88603000Y-15620167D01*
X88703000Y-16973500D02*
X88703000Y-15620167D01*
X88773000Y-16973500D02*
X88773000Y-12913500D01*
X90043000Y-16973500D02*
X91313000Y-16973500D01*
X90143000Y-16973500D02*
X90143000Y-15620167D01*
X90243000Y-16973500D02*
X90243000Y-15620167D01*
X90343000Y-16973500D02*
X90343000Y-15620167D01*
X90443000Y-16973500D02*
X90443000Y-15620167D01*
X90543000Y-16973500D02*
X90543000Y-15620167D01*
X90643000Y-16973500D02*
X90643000Y-15620167D01*
X90743000Y-16973500D02*
X90743000Y-15620167D01*
X90843000Y-16973500D02*
X90843000Y-15620167D01*
X90943000Y-16973500D02*
X90943000Y-15620167D01*
X91043000Y-16973500D02*
X91043000Y-15620167D01*
X91143000Y-16973500D02*
X91143000Y-15620167D01*
X91243000Y-16973500D02*
X91243000Y-15620167D01*
X91313000Y-16973500D02*
X91313000Y-12913500D01*
X77343000Y-15620167D02*
X78613000Y-15620167D01*
X79883000Y-15620167D02*
X81153000Y-15620167D01*
X82423000Y-15620167D02*
X83693000Y-15620167D01*
X84963000Y-15620167D02*
X86233000Y-15620167D01*
X87503000Y-15620167D02*
X88773000Y-15620167D01*
X90043000Y-15620167D02*
X91313000Y-15620167D01*
X77343000Y-12913500D02*
X77343000Y-16973500D01*
X78613000Y-12913500D02*
X77343000Y-12913500D01*
X79883000Y-12913500D02*
X79883000Y-16973500D01*
X81153000Y-12913500D02*
X79883000Y-12913500D01*
X82423000Y-12913500D02*
X82423000Y-16973500D01*
X83693000Y-12913500D02*
X82423000Y-12913500D01*
X84963000Y-12913500D02*
X84963000Y-16973500D01*
X86233000Y-12913500D02*
X84963000Y-12913500D01*
X87503000Y-12913500D02*
X87503000Y-16973500D01*
X88773000Y-12913500D02*
X87503000Y-12913500D01*
X90043000Y-12913500D02*
X90043000Y-16973500D01*
X91313000Y-12913500D02*
X90043000Y-12913500D01*
X75618000Y-10053500D02*
X93038000Y-10053500D01*
X93038000Y-10053500D02*
X93038000Y-19833500D01*
X63770000Y4943000D02*
X65770000Y4943000D01*
X63770000Y3693000D02*
X63770000Y4943000D01*
X65770000Y4943000D02*
X65770000Y3693000D01*
X65770000Y3693000D02*
X63770000Y3693000D01*
X55142000Y12081000D02*
X55142000Y14081000D01*
X56392000Y12081000D02*
X55142000Y12081000D01*
X55142000Y14081000D02*
X56392000Y14081000D01*
X56392000Y14081000D02*
X56392000Y12081000D01*
X59206000Y12081000D02*
X59206000Y14081000D01*
X60456000Y12081000D02*
X59206000Y12081000D01*
X59206000Y14081000D02*
X60456000Y14081000D01*
X60456000Y14081000D02*
X60456000Y12081000D01*
X75614000Y6813000D02*
X77314000Y6813000D01*
X75114000Y7313000D02*
X75614000Y6813000D01*
X75114000Y8163000D02*
X75114000Y7313000D01*
X75114000Y8163000D02*
X77314000Y8163000D01*
X77314000Y8163000D02*
X77314000Y6813000D01*
X50155000Y8493000D02*
X50155000Y6493000D01*
X48905000Y8493000D02*
X50155000Y8493000D01*
X50155000Y6493000D02*
X48905000Y6493000D01*
X48905000Y6493000D02*
X48905000Y8493000D01*
X64278000Y2276000D02*
X66278000Y2276000D01*
X64278000Y1026000D02*
X64278000Y2276000D01*
X66278000Y2276000D02*
X66278000Y1026000D01*
X66278000Y1026000D02*
X64278000Y1026000D01*
X57174000Y12081000D02*
X57174000Y14081000D01*
X58424000Y12081000D02*
X57174000Y12081000D01*
X57174000Y14081000D02*
X58424000Y14081000D01*
X58424000Y14081000D02*
X58424000Y12081000D01*
X50816000Y2403000D02*
X52816000Y2403000D01*
X50816000Y1153000D02*
X50816000Y2403000D01*
X52816000Y2403000D02*
X52816000Y1153000D01*
X52816000Y1153000D02*
X50816000Y1153000D01*
D10*
X67213000Y12057000D02*
X68213000Y13057000D01*
X67213000Y10057000D02*
X67213000Y12057000D01*
X68213000Y13057000D02*
X69213000Y13057000D01*
X69213000Y13057000D02*
X69213000Y10057000D01*
X69213000Y10057000D02*
X67213000Y10057000D01*
D12*
X79633000Y11160000D02*
X79633000Y9160000D01*
X78383000Y11160000D02*
X79633000Y11160000D01*
X79633000Y9160000D02*
X78383000Y9160000D01*
X78383000Y9160000D02*
X78383000Y11160000D01*
X69205000Y3159000D02*
X69205000Y1159000D01*
X67955000Y3159000D02*
X69205000Y3159000D01*
X69205000Y1159000D02*
X67955000Y1159000D01*
X67955000Y1159000D02*
X67955000Y3159000D01*
X70388000Y8245000D02*
X72388000Y8245000D01*
X70388000Y6995000D02*
X70388000Y8245000D01*
X72388000Y8245000D02*
X72388000Y6995000D01*
X72388000Y6995000D02*
X70388000Y6995000D01*
X52187000Y8874000D02*
X52187000Y6874000D01*
X50937000Y8874000D02*
X52187000Y8874000D01*
X52187000Y6874000D02*
X50937000Y6874000D01*
X50937000Y6874000D02*
X50937000Y8874000D01*
X66705000Y7356000D02*
X68705000Y7356000D01*
X66705000Y6106000D02*
X66705000Y7356000D01*
X68705000Y7356000D02*
X68705000Y6106000D01*
X68705000Y6106000D02*
X66705000Y6106000D01*
X61873000Y12081000D02*
X61873000Y14081000D01*
X63123000Y12081000D02*
X61873000Y12081000D01*
X61873000Y14081000D02*
X63123000Y14081000D01*
X63123000Y14081000D02*
X63123000Y12081000D01*
X83394000Y11000000D02*
X84369000Y11975000D01*
X83394000Y7075000D02*
X83394000Y11000000D01*
X84369000Y11975000D02*
X87294000Y11975000D01*
X87294000Y11975000D02*
X87294000Y7075000D01*
X87294000Y7075000D02*
X83394000Y7075000D01*
X51695500Y4689000D02*
X53695500Y4689000D01*
X51695500Y3439000D02*
X51695500Y4689000D01*
X53695500Y4689000D02*
X53695500Y3439000D01*
X53695500Y3439000D02*
X51695500Y3439000D01*
X96199000Y-15676000D02*
X96199000Y-16376000D01*
X96199000Y-16376000D02*
X97699000Y-16376000D01*
X96199000Y-18676000D02*
X96199000Y-19376000D01*
X96199000Y-19376000D02*
X97699000Y-19376000D01*
X96949000Y-15676000D02*
X96949000Y-16376000D01*
X96949000Y-18676000D02*
X96949000Y-19376000D01*
X97699000Y-15276000D02*
X102199000Y-15276000D01*
X97699000Y-15676000D02*
X96199000Y-15676000D01*
X97699000Y-18676000D02*
X96199000Y-18676000D01*
X97699000Y-19776000D02*
X97699000Y-15276000D01*
X102199000Y-15276000D02*
X102199000Y-19776000D01*
X102199000Y-16376000D02*
X103699000Y-16376000D01*
X102199000Y-18676000D02*
X103699000Y-18676000D01*
X102199000Y-19776000D02*
X97699000Y-19776000D01*
X102949000Y-15676000D02*
X102949000Y-16376000D01*
X102949000Y-18676000D02*
X102949000Y-19376000D01*
X103699000Y-15676000D02*
X102199000Y-15676000D01*
X103699000Y-16376000D02*
X103699000Y-15676000D01*
X103699000Y-18676000D02*
X103699000Y-19376000D01*
X103699000Y-19376000D02*
X102199000Y-19376000D01*
X101199000Y-17526000D02*
G75*
G03*
X101199000Y-17526000I-1250000J0D01*
G01*
X68705000Y8138000D02*
X66705000Y8138000D01*
X68705000Y9388000D02*
X68705000Y8138000D01*
X66705000Y8138000D02*
X66705000Y9388000D01*
X66705000Y9388000D02*
X68705000Y9388000D01*
X76839000Y12684000D02*
X76839000Y10684000D01*
X75589000Y12684000D02*
X76839000Y12684000D01*
X76839000Y10684000D02*
X75589000Y10684000D01*
X75589000Y10684000D02*
X75589000Y12684000D01*
D14*
X45620000Y-2880000D02*
X45620000Y18120000D01*
X46920000Y-2880000D02*
X45620000Y-1580000D01*
X96620000Y-2880000D02*
X45620000Y-2880000D01*
X45620000Y18120000D02*
X96620000Y18120000D01*
X96620000Y18120000D02*
X96620000Y-2880000D01*
D12*
X70374000Y3927000D02*
X72374000Y3927000D01*
X70374000Y2677000D02*
X70374000Y3927000D01*
X72374000Y3927000D02*
X72374000Y2677000D01*
X72374000Y2677000D02*
X70374000Y2677000D01*
X96199000Y-22260000D02*
X96199000Y-22960000D01*
X96199000Y-22960000D02*
X97699000Y-22960000D01*
X96199000Y-25260000D02*
X96199000Y-25960000D01*
X96199000Y-25960000D02*
X97699000Y-25960000D01*
X96949000Y-22260000D02*
X96949000Y-22960000D01*
X96949000Y-25260000D02*
X96949000Y-25960000D01*
X97699000Y-21860000D02*
X102199000Y-21860000D01*
X97699000Y-22260000D02*
X96199000Y-22260000D01*
X97699000Y-25260000D02*
X96199000Y-25260000D01*
X97699000Y-26360000D02*
X97699000Y-21860000D01*
X102199000Y-21860000D02*
X102199000Y-26360000D01*
X102199000Y-22960000D02*
X103699000Y-22960000D01*
X102199000Y-25260000D02*
X103699000Y-25260000D01*
X102199000Y-26360000D02*
X97699000Y-26360000D01*
X102949000Y-22260000D02*
X102949000Y-22960000D01*
X102949000Y-25260000D02*
X102949000Y-25960000D01*
X103699000Y-22260000D02*
X102199000Y-22260000D01*
X103699000Y-22960000D02*
X103699000Y-22260000D01*
X103699000Y-25260000D02*
X103699000Y-25960000D01*
X103699000Y-25960000D02*
X102199000Y-25960000D01*
X101199000Y-24110000D02*
G75*
G03*
X101199000Y-24110000I-1250000J0D01*
G01*
X104892000Y11474000D02*
X104892000Y4274000D01*
X98992000Y11474000D02*
X104892000Y11474000D01*
X98992000Y11474000D02*
X98992000Y4274000D01*
X101161000Y10724000D02*
X101161000Y9693000D01*
X101023000Y10724000D02*
X101161000Y10724000D01*
X97592000Y10074000D02*
X98992000Y11474000D01*
X102192000Y9693000D02*
X102192000Y9555000D01*
X101161000Y9693000D02*
X102192000Y9693000D01*
X101023000Y9693000D02*
X101023000Y10724000D01*
X99992000Y9693000D02*
X101023000Y9693000D01*
X102192000Y9555000D02*
X101161000Y9555000D01*
X101161000Y9555000D02*
X101161000Y8524000D01*
X101023000Y9555000D02*
X99992000Y9555000D01*
X99992000Y9555000D02*
X99992000Y9693000D01*
X101161000Y8524000D02*
X101023000Y8524000D01*
X101023000Y8524000D02*
X101023000Y9555000D01*
X101161000Y7224000D02*
X101161000Y6193000D01*
X101023000Y7224000D02*
X101161000Y7224000D01*
X102192000Y6193000D02*
X102192000Y6055000D01*
X101161000Y6193000D02*
X102192000Y6193000D01*
X101023000Y6193000D02*
X101023000Y7224000D01*
X99992000Y6193000D02*
X101023000Y6193000D01*
X102192000Y6055000D02*
X101161000Y6055000D01*
X101161000Y6055000D02*
X101161000Y5024000D01*
X101023000Y6055000D02*
X99992000Y6055000D01*
X99992000Y6055000D02*
X99992000Y6193000D01*
X101161000Y5024000D02*
X101023000Y5024000D01*
X101023000Y5024000D02*
X101023000Y6055000D01*
X104892000Y4274000D02*
X97592000Y4274000D01*
X97592000Y4274000D02*
X97592000Y10074000D01*
X102467000Y9624000D02*
G75*
G03*
X102467000Y9624000I-1375000J0D01*
G01*
X102467000Y6124000D02*
G75*
G03*
X102467000Y6124000I-1375000J0D01*
G01*
M02*
