G04 #@! TF.GenerationSoftware,KiCad,Pcbnew,7.0.7-7.0.7~ubuntu22.04.1*
G04 #@! TF.CreationDate,2023-10-12T01:04:17+02:00*
G04 #@! TF.ProjectId,PD_Micro,50445f4d-6963-4726-9f2e-6b696361645f,rev?*
G04 #@! TF.SameCoordinates,PX7ce2370PY67d8790*
G04 #@! TF.FileFunction,Soldermask,Bot*
G04 #@! TF.FilePolarity,Negative*
%FSLAX46Y46*%
G04 Gerber Fmt 4.6, Leading zero omitted, Abs format (unit mm)*
G04 Created by KiCad (PCBNEW 7.0.7-7.0.7~ubuntu22.04.1) date 2023-10-12 01:04:17*
%MOMM*%
%LPD*%
G01*
G04 APERTURE LIST*
G04 APERTURE END LIST*
G36*
X46097426Y-28144671D02*
G01*
X46139449Y-28144671D01*
X46186245Y-28153418D01*
X46239238Y-28158638D01*
X46279497Y-28170850D01*
X46315309Y-28177545D01*
X46364912Y-28196761D01*
X46421203Y-28213837D01*
X46453363Y-28231027D01*
X46482127Y-28242170D01*
X46532099Y-28273111D01*
X46588903Y-28303474D01*
X46612773Y-28323064D01*
X46634234Y-28336352D01*
X46681782Y-28379698D01*
X46735894Y-28424106D01*
X46751928Y-28443644D01*
X46766441Y-28456874D01*
X46808578Y-28512672D01*
X46856526Y-28571097D01*
X46865796Y-28588440D01*
X46874253Y-28599639D01*
X46907897Y-28667206D01*
X46946163Y-28738797D01*
X46950244Y-28752252D01*
X46953999Y-28759792D01*
X46976179Y-28837746D01*
X47001362Y-28920762D01*
X47002189Y-28929160D01*
X47002957Y-28931859D01*
X47010940Y-29018017D01*
X47020000Y-29110000D01*
X47010939Y-29201990D01*
X47002957Y-29288140D01*
X47002189Y-29290838D01*
X47001362Y-29299238D01*
X46976174Y-29382268D01*
X46953999Y-29460207D01*
X46950245Y-29467745D01*
X46946163Y-29481203D01*
X46907890Y-29552806D01*
X46874253Y-29620360D01*
X46865798Y-29631555D01*
X46856526Y-29648903D01*
X46808569Y-29707338D01*
X46766441Y-29763125D01*
X46751931Y-29776351D01*
X46735894Y-29795894D01*
X46681771Y-29840310D01*
X46634234Y-29883647D01*
X46612778Y-29896931D01*
X46588903Y-29916526D01*
X46532087Y-29946894D01*
X46482127Y-29977829D01*
X46453370Y-29988969D01*
X46421203Y-30006163D01*
X46364900Y-30023242D01*
X46315309Y-30042454D01*
X46279503Y-30049147D01*
X46239238Y-30061362D01*
X46186242Y-30066581D01*
X46139449Y-30075329D01*
X46097426Y-30075329D01*
X46050000Y-30080000D01*
X46002574Y-30075329D01*
X45960551Y-30075329D01*
X45913757Y-30066581D01*
X45860762Y-30061362D01*
X45820497Y-30049147D01*
X45784690Y-30042454D01*
X45735094Y-30023240D01*
X45678797Y-30006163D01*
X45646632Y-29988970D01*
X45617872Y-29977829D01*
X45567905Y-29946890D01*
X45511097Y-29916526D01*
X45487224Y-29896934D01*
X45465765Y-29883647D01*
X45418218Y-29840302D01*
X45364106Y-29795894D01*
X45348071Y-29776355D01*
X45333558Y-29763125D01*
X45291418Y-29707323D01*
X45243474Y-29648903D01*
X45234204Y-29631560D01*
X45225746Y-29620360D01*
X45192095Y-29552779D01*
X45153837Y-29481203D01*
X45149756Y-29467750D01*
X45146000Y-29460207D01*
X45123809Y-29382215D01*
X45098638Y-29299238D01*
X45097811Y-29290843D01*
X45097042Y-29288140D01*
X45089043Y-29201819D01*
X45080000Y-29110000D01*
X45089042Y-29018188D01*
X45097042Y-28931859D01*
X45097811Y-28929154D01*
X45098638Y-28920762D01*
X45123804Y-28837799D01*
X45146000Y-28759792D01*
X45149756Y-28752246D01*
X45153837Y-28738797D01*
X45192087Y-28667234D01*
X45225746Y-28599639D01*
X45234206Y-28588436D01*
X45243474Y-28571097D01*
X45291409Y-28512687D01*
X45333558Y-28456874D01*
X45348074Y-28443640D01*
X45364106Y-28424106D01*
X45418207Y-28379706D01*
X45465765Y-28336352D01*
X45487229Y-28323061D01*
X45511097Y-28303474D01*
X45567893Y-28273115D01*
X45617872Y-28242170D01*
X45646638Y-28231025D01*
X45678797Y-28213837D01*
X45735082Y-28196762D01*
X45784690Y-28177545D01*
X45820504Y-28170850D01*
X45860762Y-28158638D01*
X45913754Y-28153418D01*
X45960551Y-28144671D01*
X46002574Y-28144671D01*
X46050000Y-28140000D01*
X46097426Y-28144671D01*
G37*
G36*
X104097426Y-28144671D02*
G01*
X104139449Y-28144671D01*
X104186245Y-28153418D01*
X104239238Y-28158638D01*
X104279497Y-28170850D01*
X104315309Y-28177545D01*
X104364912Y-28196761D01*
X104421203Y-28213837D01*
X104453363Y-28231027D01*
X104482127Y-28242170D01*
X104532099Y-28273111D01*
X104588903Y-28303474D01*
X104612773Y-28323064D01*
X104634234Y-28336352D01*
X104681782Y-28379698D01*
X104735894Y-28424106D01*
X104751928Y-28443644D01*
X104766441Y-28456874D01*
X104808578Y-28512672D01*
X104856526Y-28571097D01*
X104865796Y-28588440D01*
X104874253Y-28599639D01*
X104907897Y-28667206D01*
X104946163Y-28738797D01*
X104950244Y-28752252D01*
X104953999Y-28759792D01*
X104976179Y-28837746D01*
X105001362Y-28920762D01*
X105002189Y-28929160D01*
X105002957Y-28931859D01*
X105010940Y-29018017D01*
X105020000Y-29110000D01*
X105010939Y-29201990D01*
X105002957Y-29288140D01*
X105002189Y-29290838D01*
X105001362Y-29299238D01*
X104976174Y-29382268D01*
X104953999Y-29460207D01*
X104950245Y-29467745D01*
X104946163Y-29481203D01*
X104907890Y-29552806D01*
X104874253Y-29620360D01*
X104865798Y-29631555D01*
X104856526Y-29648903D01*
X104808569Y-29707338D01*
X104766441Y-29763125D01*
X104751931Y-29776351D01*
X104735894Y-29795894D01*
X104681771Y-29840310D01*
X104634234Y-29883647D01*
X104612778Y-29896931D01*
X104588903Y-29916526D01*
X104532087Y-29946894D01*
X104482127Y-29977829D01*
X104453370Y-29988969D01*
X104421203Y-30006163D01*
X104364900Y-30023242D01*
X104315309Y-30042454D01*
X104279503Y-30049147D01*
X104239238Y-30061362D01*
X104186242Y-30066581D01*
X104139449Y-30075329D01*
X104097426Y-30075329D01*
X104050000Y-30080000D01*
X104002574Y-30075329D01*
X103960551Y-30075329D01*
X103913757Y-30066581D01*
X103860762Y-30061362D01*
X103820497Y-30049147D01*
X103784690Y-30042454D01*
X103735094Y-30023240D01*
X103678797Y-30006163D01*
X103646632Y-29988970D01*
X103617872Y-29977829D01*
X103567905Y-29946890D01*
X103511097Y-29916526D01*
X103487224Y-29896934D01*
X103465765Y-29883647D01*
X103418218Y-29840302D01*
X103364106Y-29795894D01*
X103348071Y-29776355D01*
X103333558Y-29763125D01*
X103291418Y-29707323D01*
X103243474Y-29648903D01*
X103234204Y-29631560D01*
X103225746Y-29620360D01*
X103192095Y-29552779D01*
X103153837Y-29481203D01*
X103149756Y-29467750D01*
X103146000Y-29460207D01*
X103123809Y-29382215D01*
X103098638Y-29299238D01*
X103097811Y-29290843D01*
X103097042Y-29288140D01*
X103089043Y-29201819D01*
X103080000Y-29110000D01*
X103089042Y-29018188D01*
X103097042Y-28931859D01*
X103097811Y-28929154D01*
X103098638Y-28920762D01*
X103123804Y-28837799D01*
X103146000Y-28759792D01*
X103149756Y-28752246D01*
X103153837Y-28738797D01*
X103192087Y-28667234D01*
X103225746Y-28599639D01*
X103234206Y-28588436D01*
X103243474Y-28571097D01*
X103291409Y-28512687D01*
X103333558Y-28456874D01*
X103348074Y-28443640D01*
X103364106Y-28424106D01*
X103418207Y-28379706D01*
X103465765Y-28336352D01*
X103487229Y-28323061D01*
X103511097Y-28303474D01*
X103567893Y-28273115D01*
X103617872Y-28242170D01*
X103646638Y-28231025D01*
X103678797Y-28213837D01*
X103735082Y-28196762D01*
X103784690Y-28177545D01*
X103820504Y-28170850D01*
X103860762Y-28158638D01*
X103913754Y-28153418D01*
X103960551Y-28144671D01*
X104002574Y-28144671D01*
X104050000Y-28140000D01*
X104097426Y-28144671D01*
G37*
G36*
X88070722Y-28803703D02*
G01*
X88097568Y-28803703D01*
X88128350Y-28811290D01*
X88169586Y-28816719D01*
X88197811Y-28828410D01*
X88219070Y-28833650D01*
X88251301Y-28850566D01*
X88295000Y-28868667D01*
X88314938Y-28883966D01*
X88329870Y-28891803D01*
X88360395Y-28918846D01*
X88402696Y-28951304D01*
X88414717Y-28966971D01*
X88423540Y-28974787D01*
X88448844Y-29011446D01*
X88485333Y-29059000D01*
X88490832Y-29072275D01*
X88494623Y-29077768D01*
X88511068Y-29121132D01*
X88537281Y-29184414D01*
X88538457Y-29193349D01*
X88538998Y-29194775D01*
X88543183Y-29229246D01*
X88555000Y-29319000D01*
X88543181Y-29408768D01*
X88538998Y-29443224D01*
X88538457Y-29444648D01*
X88537281Y-29453586D01*
X88511064Y-29516878D01*
X88494623Y-29560231D01*
X88490833Y-29565721D01*
X88485333Y-29579000D01*
X88448837Y-29626562D01*
X88423540Y-29663212D01*
X88414720Y-29671025D01*
X88402696Y-29686696D01*
X88360386Y-29719160D01*
X88329870Y-29746196D01*
X88314943Y-29754030D01*
X88295000Y-29769333D01*
X88251292Y-29787437D01*
X88219070Y-29804349D01*
X88197816Y-29809587D01*
X88169586Y-29821281D01*
X88128348Y-29826710D01*
X88097568Y-29834297D01*
X88070722Y-29834297D01*
X88035000Y-29839000D01*
X87999278Y-29834297D01*
X87972432Y-29834297D01*
X87941650Y-29826710D01*
X87900414Y-29821281D01*
X87872184Y-29809588D01*
X87850929Y-29804349D01*
X87818703Y-29787435D01*
X87775000Y-29769333D01*
X87755059Y-29754032D01*
X87740129Y-29746196D01*
X87709605Y-29719154D01*
X87667304Y-29686696D01*
X87655282Y-29671028D01*
X87646459Y-29663212D01*
X87621152Y-29626549D01*
X87584667Y-29579000D01*
X87579168Y-29565725D01*
X87575376Y-29560231D01*
X87558923Y-29516850D01*
X87532719Y-29453586D01*
X87531542Y-29444652D01*
X87531001Y-29443224D01*
X87526805Y-29408670D01*
X87515000Y-29319000D01*
X87526803Y-29229344D01*
X87531001Y-29194775D01*
X87531543Y-29193345D01*
X87532719Y-29184414D01*
X87558919Y-29121160D01*
X87575376Y-29077768D01*
X87579169Y-29072272D01*
X87584667Y-29059000D01*
X87621145Y-29011459D01*
X87646459Y-28974787D01*
X87655284Y-28966968D01*
X87667304Y-28951304D01*
X87709597Y-28918851D01*
X87740129Y-28891803D01*
X87755063Y-28883964D01*
X87775000Y-28868667D01*
X87818694Y-28850568D01*
X87850929Y-28833650D01*
X87872189Y-28828409D01*
X87900414Y-28816719D01*
X87941648Y-28811290D01*
X87972432Y-28803703D01*
X87999278Y-28803703D01*
X88035000Y-28799000D01*
X88070722Y-28803703D01*
G37*
G36*
X91070722Y-28803703D02*
G01*
X91097568Y-28803703D01*
X91128350Y-28811290D01*
X91169586Y-28816719D01*
X91197811Y-28828410D01*
X91219070Y-28833650D01*
X91251301Y-28850566D01*
X91295000Y-28868667D01*
X91314938Y-28883966D01*
X91329870Y-28891803D01*
X91360395Y-28918846D01*
X91402696Y-28951304D01*
X91414717Y-28966971D01*
X91423540Y-28974787D01*
X91448844Y-29011446D01*
X91485333Y-29059000D01*
X91490832Y-29072275D01*
X91494623Y-29077768D01*
X91511068Y-29121132D01*
X91537281Y-29184414D01*
X91538457Y-29193349D01*
X91538998Y-29194775D01*
X91543183Y-29229246D01*
X91555000Y-29319000D01*
X91543181Y-29408768D01*
X91538998Y-29443224D01*
X91538457Y-29444648D01*
X91537281Y-29453586D01*
X91511064Y-29516878D01*
X91494623Y-29560231D01*
X91490833Y-29565721D01*
X91485333Y-29579000D01*
X91448837Y-29626562D01*
X91423540Y-29663212D01*
X91414720Y-29671025D01*
X91402696Y-29686696D01*
X91360386Y-29719160D01*
X91329870Y-29746196D01*
X91314943Y-29754030D01*
X91295000Y-29769333D01*
X91251292Y-29787437D01*
X91219070Y-29804349D01*
X91197816Y-29809587D01*
X91169586Y-29821281D01*
X91128348Y-29826710D01*
X91097568Y-29834297D01*
X91070722Y-29834297D01*
X91035000Y-29839000D01*
X90999278Y-29834297D01*
X90972432Y-29834297D01*
X90941650Y-29826710D01*
X90900414Y-29821281D01*
X90872184Y-29809588D01*
X90850929Y-29804349D01*
X90818703Y-29787435D01*
X90775000Y-29769333D01*
X90755059Y-29754032D01*
X90740129Y-29746196D01*
X90709605Y-29719154D01*
X90667304Y-29686696D01*
X90655282Y-29671028D01*
X90646459Y-29663212D01*
X90621152Y-29626549D01*
X90584667Y-29579000D01*
X90579168Y-29565725D01*
X90575376Y-29560231D01*
X90558923Y-29516850D01*
X90532719Y-29453586D01*
X90531542Y-29444652D01*
X90531001Y-29443224D01*
X90526805Y-29408667D01*
X90515000Y-29319000D01*
X90526804Y-29229341D01*
X90531001Y-29194775D01*
X90531543Y-29193345D01*
X90532719Y-29184414D01*
X90558919Y-29121160D01*
X90575376Y-29077768D01*
X90579169Y-29072272D01*
X90584667Y-29059000D01*
X90621145Y-29011459D01*
X90646459Y-28974787D01*
X90655284Y-28966968D01*
X90667304Y-28951304D01*
X90709597Y-28918851D01*
X90740129Y-28891803D01*
X90755063Y-28883964D01*
X90775000Y-28868667D01*
X90818694Y-28850568D01*
X90850929Y-28833650D01*
X90872189Y-28828409D01*
X90900414Y-28816719D01*
X90941648Y-28811290D01*
X90972432Y-28803703D01*
X90999278Y-28803703D01*
X91035000Y-28799000D01*
X91070722Y-28803703D01*
G37*
G36*
X78291722Y-28770703D02*
G01*
X78318568Y-28770703D01*
X78349350Y-28778290D01*
X78390586Y-28783719D01*
X78418811Y-28795410D01*
X78440070Y-28800650D01*
X78472301Y-28817566D01*
X78516000Y-28835667D01*
X78535938Y-28850966D01*
X78550870Y-28858803D01*
X78581395Y-28885846D01*
X78623696Y-28918304D01*
X78635717Y-28933971D01*
X78644540Y-28941787D01*
X78669844Y-28978446D01*
X78706333Y-29026000D01*
X78711832Y-29039275D01*
X78715623Y-29044768D01*
X78732068Y-29088132D01*
X78758281Y-29151414D01*
X78759457Y-29160349D01*
X78759998Y-29161775D01*
X78764183Y-29196243D01*
X78776000Y-29286000D01*
X78764181Y-29375765D01*
X78759998Y-29410224D01*
X78759457Y-29411648D01*
X78758281Y-29420586D01*
X78732064Y-29483878D01*
X78715623Y-29527231D01*
X78711833Y-29532721D01*
X78706333Y-29546000D01*
X78669837Y-29593562D01*
X78644540Y-29630212D01*
X78635720Y-29638025D01*
X78623696Y-29653696D01*
X78581386Y-29686160D01*
X78550870Y-29713196D01*
X78535943Y-29721030D01*
X78516000Y-29736333D01*
X78472292Y-29754437D01*
X78440070Y-29771349D01*
X78418816Y-29776587D01*
X78390586Y-29788281D01*
X78349348Y-29793710D01*
X78318568Y-29801297D01*
X78291722Y-29801297D01*
X78256000Y-29806000D01*
X78220278Y-29801297D01*
X78193432Y-29801297D01*
X78162650Y-29793710D01*
X78121414Y-29788281D01*
X78093184Y-29776588D01*
X78071929Y-29771349D01*
X78039703Y-29754435D01*
X77996000Y-29736333D01*
X77976059Y-29721032D01*
X77961129Y-29713196D01*
X77930605Y-29686154D01*
X77888304Y-29653696D01*
X77876282Y-29638028D01*
X77867459Y-29630212D01*
X77842152Y-29593549D01*
X77805667Y-29546000D01*
X77800168Y-29532725D01*
X77796376Y-29527231D01*
X77779923Y-29483850D01*
X77753719Y-29420586D01*
X77752542Y-29411652D01*
X77752001Y-29410224D01*
X77747805Y-29375667D01*
X77736000Y-29286000D01*
X77747804Y-29196341D01*
X77752001Y-29161775D01*
X77752543Y-29160345D01*
X77753719Y-29151414D01*
X77779919Y-29088160D01*
X77796376Y-29044768D01*
X77800169Y-29039272D01*
X77805667Y-29026000D01*
X77842145Y-28978459D01*
X77867459Y-28941787D01*
X77876284Y-28933968D01*
X77888304Y-28918304D01*
X77930597Y-28885851D01*
X77961129Y-28858803D01*
X77976063Y-28850964D01*
X77996000Y-28835667D01*
X78039694Y-28817568D01*
X78071929Y-28800650D01*
X78093189Y-28795409D01*
X78121414Y-28783719D01*
X78162648Y-28778290D01*
X78193432Y-28770703D01*
X78220278Y-28770703D01*
X78256000Y-28766000D01*
X78291722Y-28770703D01*
G37*
G36*
X81291722Y-28770703D02*
G01*
X81318568Y-28770703D01*
X81349350Y-28778290D01*
X81390586Y-28783719D01*
X81418811Y-28795410D01*
X81440070Y-28800650D01*
X81472301Y-28817566D01*
X81516000Y-28835667D01*
X81535938Y-28850966D01*
X81550870Y-28858803D01*
X81581395Y-28885846D01*
X81623696Y-28918304D01*
X81635717Y-28933971D01*
X81644540Y-28941787D01*
X81669844Y-28978446D01*
X81706333Y-29026000D01*
X81711832Y-29039275D01*
X81715623Y-29044768D01*
X81732068Y-29088132D01*
X81758281Y-29151414D01*
X81759457Y-29160349D01*
X81759998Y-29161775D01*
X81764183Y-29196243D01*
X81776000Y-29286000D01*
X81764181Y-29375765D01*
X81759998Y-29410224D01*
X81759457Y-29411648D01*
X81758281Y-29420586D01*
X81732064Y-29483878D01*
X81715623Y-29527231D01*
X81711833Y-29532721D01*
X81706333Y-29546000D01*
X81669837Y-29593562D01*
X81644540Y-29630212D01*
X81635720Y-29638025D01*
X81623696Y-29653696D01*
X81581386Y-29686160D01*
X81550870Y-29713196D01*
X81535943Y-29721030D01*
X81516000Y-29736333D01*
X81472292Y-29754437D01*
X81440070Y-29771349D01*
X81418816Y-29776587D01*
X81390586Y-29788281D01*
X81349348Y-29793710D01*
X81318568Y-29801297D01*
X81291722Y-29801297D01*
X81256000Y-29806000D01*
X81220278Y-29801297D01*
X81193432Y-29801297D01*
X81162650Y-29793710D01*
X81121414Y-29788281D01*
X81093184Y-29776588D01*
X81071929Y-29771349D01*
X81039703Y-29754435D01*
X80996000Y-29736333D01*
X80976059Y-29721032D01*
X80961129Y-29713196D01*
X80930605Y-29686154D01*
X80888304Y-29653696D01*
X80876282Y-29638028D01*
X80867459Y-29630212D01*
X80842152Y-29593549D01*
X80805667Y-29546000D01*
X80800168Y-29532725D01*
X80796376Y-29527231D01*
X80779923Y-29483850D01*
X80753719Y-29420586D01*
X80752542Y-29411652D01*
X80752001Y-29410224D01*
X80747805Y-29375667D01*
X80736000Y-29286000D01*
X80747804Y-29196341D01*
X80752001Y-29161775D01*
X80752543Y-29160345D01*
X80753719Y-29151414D01*
X80779919Y-29088160D01*
X80796376Y-29044768D01*
X80800169Y-29039272D01*
X80805667Y-29026000D01*
X80842145Y-28978459D01*
X80867459Y-28941787D01*
X80876284Y-28933968D01*
X80888304Y-28918304D01*
X80930597Y-28885851D01*
X80961129Y-28858803D01*
X80976063Y-28850964D01*
X80996000Y-28835667D01*
X81039694Y-28817568D01*
X81071929Y-28800650D01*
X81093189Y-28795409D01*
X81121414Y-28783719D01*
X81162648Y-28778290D01*
X81193432Y-28770703D01*
X81220278Y-28770703D01*
X81256000Y-28766000D01*
X81291722Y-28770703D01*
G37*
G36*
X49766228Y-25760740D02*
G01*
X49823299Y-25760740D01*
X49885663Y-25770139D01*
X49951602Y-25775329D01*
X50004746Y-25788087D01*
X50055278Y-25795704D01*
X50121310Y-25816072D01*
X50191157Y-25832841D01*
X50236318Y-25851547D01*
X50279460Y-25864855D01*
X50347196Y-25897474D01*
X50418765Y-25927120D01*
X50455502Y-25949632D01*
X50490825Y-25966643D01*
X50558014Y-26012451D01*
X50628823Y-26055843D01*
X50657174Y-26080057D01*
X50684662Y-26098798D01*
X50748837Y-26158344D01*
X50816158Y-26215842D01*
X50836604Y-26239782D01*
X50856631Y-26258364D01*
X50915180Y-26331782D01*
X50976157Y-26403177D01*
X50989566Y-26425060D01*
X51002907Y-26441788D01*
X51053221Y-26528935D01*
X51104880Y-26613235D01*
X51112467Y-26631553D01*
X51120204Y-26644953D01*
X51159662Y-26745490D01*
X51199159Y-26840843D01*
X51202424Y-26854446D01*
X51205913Y-26863334D01*
X51232033Y-26977774D01*
X51256671Y-27080398D01*
X51257310Y-27088519D01*
X51258118Y-27092059D01*
X51268659Y-27232730D01*
X51276000Y-27326000D01*
X51268657Y-27419301D01*
X51258118Y-27559940D01*
X51257310Y-27563478D01*
X51256671Y-27571602D01*
X51232028Y-27674245D01*
X51205913Y-27788665D01*
X51202425Y-27797550D01*
X51199159Y-27811157D01*
X51159654Y-27906527D01*
X51120204Y-28007046D01*
X51112469Y-28020442D01*
X51104880Y-28038765D01*
X51053211Y-28123081D01*
X51002907Y-28210211D01*
X50989569Y-28226935D01*
X50976157Y-28248823D01*
X50915168Y-28320231D01*
X50856631Y-28393635D01*
X50836608Y-28412213D01*
X50816158Y-28436158D01*
X50748823Y-28493666D01*
X50684662Y-28553201D01*
X50657180Y-28571937D01*
X50628823Y-28596157D01*
X50557999Y-28639557D01*
X50490825Y-28685356D01*
X50455509Y-28702362D01*
X50418765Y-28724880D01*
X50347181Y-28754531D01*
X50279460Y-28787144D01*
X50236327Y-28800448D01*
X50191157Y-28819159D01*
X50121296Y-28835931D01*
X50055278Y-28856295D01*
X50004755Y-28863910D01*
X49951602Y-28876671D01*
X49885659Y-28881860D01*
X49823299Y-28891260D01*
X49766228Y-28891260D01*
X49706000Y-28896000D01*
X49645772Y-28891260D01*
X49588701Y-28891260D01*
X49526339Y-28881860D01*
X49460398Y-28876671D01*
X49407245Y-28863910D01*
X49356721Y-28856295D01*
X49290699Y-28835929D01*
X49220843Y-28819159D01*
X49175675Y-28800449D01*
X49132539Y-28787144D01*
X49064813Y-28754529D01*
X48993235Y-28724880D01*
X48956490Y-28702363D01*
X48921175Y-28685356D01*
X48853996Y-28639555D01*
X48783177Y-28596157D01*
X48754822Y-28571940D01*
X48727337Y-28553201D01*
X48663163Y-28493655D01*
X48595842Y-28436158D01*
X48575394Y-28412217D01*
X48555368Y-28393635D01*
X48496816Y-28320214D01*
X48435843Y-28248823D01*
X48422433Y-28226941D01*
X48409092Y-28210211D01*
X48358771Y-28123052D01*
X48307120Y-28038765D01*
X48299533Y-28020449D01*
X48291795Y-28007046D01*
X48252325Y-27906481D01*
X48212841Y-27811157D01*
X48209576Y-27797557D01*
X48206086Y-27788665D01*
X48179951Y-27674160D01*
X48155329Y-27571602D01*
X48154690Y-27563485D01*
X48153881Y-27559940D01*
X48143321Y-27419023D01*
X48136000Y-27326000D01*
X48143320Y-27232984D01*
X48153881Y-27092059D01*
X48154690Y-27088513D01*
X48155329Y-27080398D01*
X48179946Y-26977858D01*
X48206086Y-26863334D01*
X48209576Y-26854440D01*
X48212841Y-26840843D01*
X48252318Y-26745536D01*
X48291795Y-26644953D01*
X48299534Y-26631547D01*
X48307120Y-26613235D01*
X48358761Y-26528963D01*
X48409092Y-26441788D01*
X48422436Y-26425054D01*
X48435843Y-26403177D01*
X48496804Y-26331799D01*
X48555368Y-26258364D01*
X48575399Y-26239777D01*
X48595842Y-26215842D01*
X48663150Y-26158355D01*
X48727337Y-26098798D01*
X48754828Y-26080054D01*
X48783177Y-26055843D01*
X48853982Y-26012453D01*
X48921175Y-25966643D01*
X48956498Y-25949631D01*
X48993235Y-25927120D01*
X49064799Y-25897476D01*
X49132539Y-25864855D01*
X49175684Y-25851546D01*
X49220843Y-25832841D01*
X49290684Y-25816073D01*
X49356721Y-25795704D01*
X49407254Y-25788087D01*
X49460398Y-25775329D01*
X49526335Y-25770139D01*
X49588701Y-25760740D01*
X49645772Y-25760740D01*
X49706000Y-25756000D01*
X49766228Y-25760740D01*
G37*
G36*
X71766228Y-25760740D02*
G01*
X71823299Y-25760740D01*
X71885663Y-25770139D01*
X71951602Y-25775329D01*
X72004746Y-25788087D01*
X72055278Y-25795704D01*
X72121310Y-25816072D01*
X72191157Y-25832841D01*
X72236318Y-25851547D01*
X72279460Y-25864855D01*
X72347196Y-25897474D01*
X72418765Y-25927120D01*
X72455502Y-25949632D01*
X72490825Y-25966643D01*
X72558014Y-26012451D01*
X72628823Y-26055843D01*
X72657174Y-26080057D01*
X72684662Y-26098798D01*
X72748837Y-26158344D01*
X72816158Y-26215842D01*
X72836604Y-26239782D01*
X72856631Y-26258364D01*
X72915180Y-26331782D01*
X72976157Y-26403177D01*
X72989566Y-26425060D01*
X73002907Y-26441788D01*
X73053221Y-26528935D01*
X73104880Y-26613235D01*
X73112467Y-26631553D01*
X73120204Y-26644953D01*
X73159662Y-26745490D01*
X73199159Y-26840843D01*
X73202424Y-26854446D01*
X73205913Y-26863334D01*
X73232033Y-26977774D01*
X73256671Y-27080398D01*
X73257310Y-27088519D01*
X73258118Y-27092059D01*
X73268659Y-27232730D01*
X73276000Y-27326000D01*
X73268657Y-27419301D01*
X73258118Y-27559940D01*
X73257310Y-27563478D01*
X73256671Y-27571602D01*
X73232028Y-27674245D01*
X73205913Y-27788665D01*
X73202425Y-27797550D01*
X73199159Y-27811157D01*
X73159654Y-27906527D01*
X73120204Y-28007046D01*
X73112469Y-28020442D01*
X73104880Y-28038765D01*
X73053211Y-28123081D01*
X73002907Y-28210211D01*
X72989569Y-28226935D01*
X72976157Y-28248823D01*
X72915168Y-28320231D01*
X72856631Y-28393635D01*
X72836608Y-28412213D01*
X72816158Y-28436158D01*
X72748823Y-28493666D01*
X72684662Y-28553201D01*
X72657180Y-28571937D01*
X72628823Y-28596157D01*
X72557999Y-28639557D01*
X72490825Y-28685356D01*
X72455509Y-28702362D01*
X72418765Y-28724880D01*
X72347181Y-28754531D01*
X72279460Y-28787144D01*
X72236327Y-28800448D01*
X72191157Y-28819159D01*
X72121296Y-28835931D01*
X72055278Y-28856295D01*
X72004755Y-28863910D01*
X71951602Y-28876671D01*
X71885659Y-28881860D01*
X71823299Y-28891260D01*
X71766228Y-28891260D01*
X71706000Y-28896000D01*
X71645772Y-28891260D01*
X71588701Y-28891260D01*
X71526339Y-28881860D01*
X71460398Y-28876671D01*
X71407245Y-28863910D01*
X71356721Y-28856295D01*
X71290699Y-28835929D01*
X71220843Y-28819159D01*
X71175675Y-28800449D01*
X71132539Y-28787144D01*
X71064813Y-28754529D01*
X70993235Y-28724880D01*
X70956490Y-28702363D01*
X70921175Y-28685356D01*
X70853996Y-28639555D01*
X70783177Y-28596157D01*
X70754822Y-28571940D01*
X70727337Y-28553201D01*
X70663163Y-28493655D01*
X70595842Y-28436158D01*
X70575394Y-28412217D01*
X70555368Y-28393635D01*
X70496816Y-28320214D01*
X70435843Y-28248823D01*
X70422433Y-28226941D01*
X70409092Y-28210211D01*
X70358771Y-28123052D01*
X70307120Y-28038765D01*
X70299533Y-28020449D01*
X70291795Y-28007046D01*
X70252325Y-27906481D01*
X70212841Y-27811157D01*
X70209576Y-27797557D01*
X70206086Y-27788665D01*
X70179951Y-27674160D01*
X70155329Y-27571602D01*
X70154690Y-27563485D01*
X70153881Y-27559940D01*
X70143321Y-27419035D01*
X70136000Y-27326000D01*
X70143319Y-27232996D01*
X70153881Y-27092059D01*
X70154690Y-27088513D01*
X70155329Y-27080398D01*
X70179946Y-26977858D01*
X70206086Y-26863334D01*
X70209576Y-26854440D01*
X70212841Y-26840843D01*
X70252318Y-26745536D01*
X70291795Y-26644953D01*
X70299534Y-26631547D01*
X70307120Y-26613235D01*
X70358761Y-26528963D01*
X70409092Y-26441788D01*
X70422436Y-26425054D01*
X70435843Y-26403177D01*
X70496804Y-26331799D01*
X70555368Y-26258364D01*
X70575399Y-26239777D01*
X70595842Y-26215842D01*
X70663150Y-26158355D01*
X70727337Y-26098798D01*
X70754828Y-26080054D01*
X70783177Y-26055843D01*
X70853982Y-26012453D01*
X70921175Y-25966643D01*
X70956498Y-25949631D01*
X70993235Y-25927120D01*
X71064799Y-25897476D01*
X71132539Y-25864855D01*
X71175684Y-25851546D01*
X71220843Y-25832841D01*
X71290684Y-25816073D01*
X71356721Y-25795704D01*
X71407254Y-25788087D01*
X71460398Y-25775329D01*
X71526335Y-25770139D01*
X71588701Y-25760740D01*
X71645772Y-25760740D01*
X71706000Y-25756000D01*
X71766228Y-25760740D01*
G37*
G36*
X78804788Y-17888828D02*
G01*
X78827497Y-17904003D01*
X78842672Y-17926712D01*
X78848000Y-17953500D01*
X78848000Y-19553500D01*
X78842672Y-19580288D01*
X78827497Y-19602997D01*
X78804788Y-19618172D01*
X78778000Y-19623500D01*
X77178000Y-19623500D01*
X77151212Y-19618172D01*
X77128503Y-19602997D01*
X77113328Y-19580288D01*
X77108000Y-19553500D01*
X77108000Y-17953500D01*
X77113328Y-17926712D01*
X77128503Y-17904003D01*
X77151212Y-17888828D01*
X77178000Y-17883500D01*
X78778000Y-17883500D01*
X78804788Y-17888828D01*
G37*
G36*
X80560255Y-17888266D02*
G01*
X80608940Y-17888266D01*
X80650982Y-17897202D01*
X80687608Y-17900810D01*
X80733624Y-17914768D01*
X80786845Y-17926081D01*
X80820895Y-17941241D01*
X80850706Y-17950284D01*
X80898079Y-17975605D01*
X80953000Y-18000058D01*
X80978535Y-18018610D01*
X81001009Y-18030623D01*
X81046850Y-18068244D01*
X81100144Y-18106964D01*
X81117447Y-18126181D01*
X81132755Y-18138744D01*
X81173892Y-18188869D01*
X81221845Y-18242127D01*
X81231919Y-18259576D01*
X81240876Y-18270490D01*
X81274009Y-18332478D01*
X81312785Y-18399639D01*
X81317244Y-18413365D01*
X81321215Y-18420793D01*
X81343102Y-18492948D01*
X81368988Y-18572617D01*
X81369899Y-18581287D01*
X81370689Y-18583891D01*
X81378379Y-18661964D01*
X81388000Y-18753500D01*
X81378378Y-18845043D01*
X81370689Y-18923108D01*
X81369899Y-18925710D01*
X81368988Y-18934383D01*
X81343098Y-19014065D01*
X81321215Y-19086206D01*
X81317245Y-19093631D01*
X81312785Y-19107361D01*
X81274002Y-19174533D01*
X81240876Y-19236509D01*
X81231921Y-19247420D01*
X81221845Y-19264873D01*
X81173882Y-19318140D01*
X81132755Y-19368255D01*
X81117450Y-19380814D01*
X81100144Y-19400036D01*
X81046840Y-19438763D01*
X81001009Y-19476376D01*
X80978540Y-19488385D01*
X80953000Y-19506942D01*
X80898068Y-19531399D01*
X80850706Y-19556715D01*
X80820902Y-19565755D01*
X80786845Y-19580919D01*
X80733613Y-19592233D01*
X80687608Y-19606189D01*
X80650991Y-19609795D01*
X80608940Y-19618734D01*
X80560244Y-19618734D01*
X80517999Y-19622895D01*
X80475754Y-19618734D01*
X80427060Y-19618734D01*
X80385009Y-19609795D01*
X80348391Y-19606189D01*
X80302383Y-19592233D01*
X80249155Y-19580919D01*
X80215099Y-19565756D01*
X80185293Y-19556715D01*
X80137925Y-19531396D01*
X80083000Y-19506942D01*
X80057461Y-19488387D01*
X80034990Y-19476376D01*
X79989150Y-19438756D01*
X79935856Y-19400036D01*
X79918552Y-19380817D01*
X79903244Y-19368255D01*
X79862105Y-19318127D01*
X79814155Y-19264873D01*
X79804080Y-19247424D01*
X79795123Y-19236509D01*
X79761983Y-19174510D01*
X79723215Y-19107361D01*
X79718755Y-19093636D01*
X79714784Y-19086206D01*
X79692886Y-19014018D01*
X79667012Y-18934383D01*
X79666101Y-18925715D01*
X79665310Y-18923108D01*
X79657605Y-18844891D01*
X79648000Y-18753500D01*
X79657605Y-18662116D01*
X79665310Y-18583891D01*
X79666101Y-18581282D01*
X79667012Y-18572617D01*
X79692882Y-18492995D01*
X79714784Y-18420793D01*
X79718756Y-18413360D01*
X79723215Y-18399639D01*
X79761976Y-18332501D01*
X79795123Y-18270490D01*
X79804082Y-18259572D01*
X79814155Y-18242127D01*
X79862096Y-18188882D01*
X79903244Y-18138744D01*
X79918555Y-18126178D01*
X79935856Y-18106964D01*
X79989140Y-18068250D01*
X80034990Y-18030623D01*
X80057467Y-18018608D01*
X80083000Y-18000058D01*
X80137914Y-17975608D01*
X80185293Y-17950284D01*
X80215106Y-17941240D01*
X80249155Y-17926081D01*
X80302372Y-17914769D01*
X80348391Y-17900810D01*
X80385017Y-17897202D01*
X80427060Y-17888266D01*
X80475745Y-17888266D01*
X80518000Y-17884104D01*
X80560255Y-17888266D01*
G37*
G36*
X83100255Y-17888266D02*
G01*
X83148940Y-17888266D01*
X83190982Y-17897202D01*
X83227608Y-17900810D01*
X83273624Y-17914768D01*
X83326845Y-17926081D01*
X83360895Y-17941241D01*
X83390706Y-17950284D01*
X83438079Y-17975605D01*
X83493000Y-18000058D01*
X83518535Y-18018610D01*
X83541009Y-18030623D01*
X83586850Y-18068244D01*
X83640144Y-18106964D01*
X83657447Y-18126181D01*
X83672755Y-18138744D01*
X83713892Y-18188869D01*
X83761845Y-18242127D01*
X83771919Y-18259576D01*
X83780876Y-18270490D01*
X83814009Y-18332478D01*
X83852785Y-18399639D01*
X83857244Y-18413365D01*
X83861215Y-18420793D01*
X83883102Y-18492948D01*
X83908988Y-18572617D01*
X83909899Y-18581287D01*
X83910689Y-18583891D01*
X83918379Y-18661964D01*
X83928000Y-18753500D01*
X83918378Y-18845043D01*
X83910689Y-18923108D01*
X83909899Y-18925710D01*
X83908988Y-18934383D01*
X83883098Y-19014065D01*
X83861215Y-19086206D01*
X83857245Y-19093631D01*
X83852785Y-19107361D01*
X83814002Y-19174533D01*
X83780876Y-19236509D01*
X83771921Y-19247420D01*
X83761845Y-19264873D01*
X83713882Y-19318140D01*
X83672755Y-19368255D01*
X83657450Y-19380814D01*
X83640144Y-19400036D01*
X83586840Y-19438763D01*
X83541009Y-19476376D01*
X83518540Y-19488385D01*
X83493000Y-19506942D01*
X83438068Y-19531399D01*
X83390706Y-19556715D01*
X83360902Y-19565755D01*
X83326845Y-19580919D01*
X83273613Y-19592233D01*
X83227608Y-19606189D01*
X83190991Y-19609795D01*
X83148940Y-19618734D01*
X83100244Y-19618734D01*
X83057999Y-19622895D01*
X83015754Y-19618734D01*
X82967060Y-19618734D01*
X82925009Y-19609795D01*
X82888391Y-19606189D01*
X82842383Y-19592233D01*
X82789155Y-19580919D01*
X82755099Y-19565756D01*
X82725293Y-19556715D01*
X82677925Y-19531396D01*
X82623000Y-19506942D01*
X82597461Y-19488387D01*
X82574990Y-19476376D01*
X82529150Y-19438756D01*
X82475856Y-19400036D01*
X82458552Y-19380817D01*
X82443244Y-19368255D01*
X82402105Y-19318127D01*
X82354155Y-19264873D01*
X82344080Y-19247424D01*
X82335123Y-19236509D01*
X82301983Y-19174510D01*
X82263215Y-19107361D01*
X82258755Y-19093636D01*
X82254784Y-19086206D01*
X82232886Y-19014018D01*
X82207012Y-18934383D01*
X82206101Y-18925715D01*
X82205310Y-18923108D01*
X82197606Y-18844898D01*
X82188000Y-18753500D01*
X82197604Y-18662123D01*
X82205310Y-18583891D01*
X82206101Y-18581282D01*
X82207012Y-18572617D01*
X82232882Y-18492995D01*
X82254784Y-18420793D01*
X82258756Y-18413360D01*
X82263215Y-18399639D01*
X82301976Y-18332501D01*
X82335123Y-18270490D01*
X82344082Y-18259572D01*
X82354155Y-18242127D01*
X82402096Y-18188882D01*
X82443244Y-18138744D01*
X82458555Y-18126178D01*
X82475856Y-18106964D01*
X82529140Y-18068250D01*
X82574990Y-18030623D01*
X82597467Y-18018608D01*
X82623000Y-18000058D01*
X82677914Y-17975608D01*
X82725293Y-17950284D01*
X82755106Y-17941240D01*
X82789155Y-17926081D01*
X82842372Y-17914769D01*
X82888391Y-17900810D01*
X82925017Y-17897202D01*
X82967060Y-17888266D01*
X83015745Y-17888266D01*
X83058000Y-17884104D01*
X83100255Y-17888266D01*
G37*
G36*
X85640255Y-17888266D02*
G01*
X85688940Y-17888266D01*
X85730982Y-17897202D01*
X85767608Y-17900810D01*
X85813624Y-17914768D01*
X85866845Y-17926081D01*
X85900895Y-17941241D01*
X85930706Y-17950284D01*
X85978079Y-17975605D01*
X86033000Y-18000058D01*
X86058535Y-18018610D01*
X86081009Y-18030623D01*
X86126850Y-18068244D01*
X86180144Y-18106964D01*
X86197447Y-18126181D01*
X86212755Y-18138744D01*
X86253892Y-18188869D01*
X86301845Y-18242127D01*
X86311919Y-18259576D01*
X86320876Y-18270490D01*
X86354009Y-18332478D01*
X86392785Y-18399639D01*
X86397244Y-18413365D01*
X86401215Y-18420793D01*
X86423102Y-18492948D01*
X86448988Y-18572617D01*
X86449899Y-18581287D01*
X86450689Y-18583891D01*
X86458379Y-18661964D01*
X86468000Y-18753500D01*
X86458378Y-18845043D01*
X86450689Y-18923108D01*
X86449899Y-18925710D01*
X86448988Y-18934383D01*
X86423098Y-19014065D01*
X86401215Y-19086206D01*
X86397245Y-19093631D01*
X86392785Y-19107361D01*
X86354002Y-19174533D01*
X86320876Y-19236509D01*
X86311921Y-19247420D01*
X86301845Y-19264873D01*
X86253882Y-19318140D01*
X86212755Y-19368255D01*
X86197450Y-19380814D01*
X86180144Y-19400036D01*
X86126840Y-19438763D01*
X86081009Y-19476376D01*
X86058540Y-19488385D01*
X86033000Y-19506942D01*
X85978068Y-19531399D01*
X85930706Y-19556715D01*
X85900902Y-19565755D01*
X85866845Y-19580919D01*
X85813613Y-19592233D01*
X85767608Y-19606189D01*
X85730991Y-19609795D01*
X85688940Y-19618734D01*
X85640244Y-19618734D01*
X85597999Y-19622895D01*
X85555754Y-19618734D01*
X85507060Y-19618734D01*
X85465009Y-19609795D01*
X85428391Y-19606189D01*
X85382383Y-19592233D01*
X85329155Y-19580919D01*
X85295099Y-19565756D01*
X85265293Y-19556715D01*
X85217925Y-19531396D01*
X85163000Y-19506942D01*
X85137461Y-19488387D01*
X85114990Y-19476376D01*
X85069150Y-19438756D01*
X85015856Y-19400036D01*
X84998552Y-19380817D01*
X84983244Y-19368255D01*
X84942105Y-19318127D01*
X84894155Y-19264873D01*
X84884080Y-19247424D01*
X84875123Y-19236509D01*
X84841983Y-19174510D01*
X84803215Y-19107361D01*
X84798755Y-19093636D01*
X84794784Y-19086206D01*
X84772886Y-19014018D01*
X84747012Y-18934383D01*
X84746101Y-18925715D01*
X84745310Y-18923108D01*
X84737605Y-18844891D01*
X84728000Y-18753500D01*
X84737605Y-18662116D01*
X84745310Y-18583891D01*
X84746101Y-18581282D01*
X84747012Y-18572617D01*
X84772882Y-18492995D01*
X84794784Y-18420793D01*
X84798756Y-18413360D01*
X84803215Y-18399639D01*
X84841976Y-18332501D01*
X84875123Y-18270490D01*
X84884082Y-18259572D01*
X84894155Y-18242127D01*
X84942096Y-18188882D01*
X84983244Y-18138744D01*
X84998555Y-18126178D01*
X85015856Y-18106964D01*
X85069140Y-18068250D01*
X85114990Y-18030623D01*
X85137467Y-18018608D01*
X85163000Y-18000058D01*
X85217914Y-17975608D01*
X85265293Y-17950284D01*
X85295106Y-17941240D01*
X85329155Y-17926081D01*
X85382372Y-17914769D01*
X85428391Y-17900810D01*
X85465017Y-17897202D01*
X85507060Y-17888266D01*
X85555745Y-17888266D01*
X85598000Y-17884104D01*
X85640255Y-17888266D01*
G37*
G36*
X88180254Y-17888266D02*
G01*
X88228940Y-17888266D01*
X88270982Y-17897202D01*
X88307608Y-17900810D01*
X88353624Y-17914768D01*
X88406845Y-17926081D01*
X88440895Y-17941241D01*
X88470706Y-17950284D01*
X88518079Y-17975605D01*
X88573000Y-18000058D01*
X88598535Y-18018610D01*
X88621009Y-18030623D01*
X88666850Y-18068244D01*
X88720144Y-18106964D01*
X88737447Y-18126181D01*
X88752755Y-18138744D01*
X88793892Y-18188869D01*
X88841845Y-18242127D01*
X88851919Y-18259576D01*
X88860876Y-18270490D01*
X88894009Y-18332478D01*
X88932785Y-18399639D01*
X88937244Y-18413365D01*
X88941215Y-18420793D01*
X88963102Y-18492948D01*
X88988988Y-18572617D01*
X88989899Y-18581287D01*
X88990689Y-18583891D01*
X88998379Y-18661964D01*
X89008000Y-18753500D01*
X88998378Y-18845043D01*
X88990689Y-18923108D01*
X88989899Y-18925710D01*
X88988988Y-18934383D01*
X88963098Y-19014065D01*
X88941215Y-19086206D01*
X88937245Y-19093631D01*
X88932785Y-19107361D01*
X88894002Y-19174533D01*
X88860876Y-19236509D01*
X88851921Y-19247420D01*
X88841845Y-19264873D01*
X88793882Y-19318140D01*
X88752755Y-19368255D01*
X88737450Y-19380814D01*
X88720144Y-19400036D01*
X88666840Y-19438763D01*
X88621009Y-19476376D01*
X88598540Y-19488385D01*
X88573000Y-19506942D01*
X88518068Y-19531399D01*
X88470706Y-19556715D01*
X88440902Y-19565755D01*
X88406845Y-19580919D01*
X88353613Y-19592233D01*
X88307608Y-19606189D01*
X88270991Y-19609795D01*
X88228940Y-19618734D01*
X88180245Y-19618734D01*
X88138000Y-19622895D01*
X88095755Y-19618734D01*
X88047060Y-19618734D01*
X88005009Y-19609795D01*
X87968391Y-19606189D01*
X87922383Y-19592233D01*
X87869155Y-19580919D01*
X87835099Y-19565756D01*
X87805293Y-19556715D01*
X87757925Y-19531396D01*
X87703000Y-19506942D01*
X87677461Y-19488387D01*
X87654990Y-19476376D01*
X87609150Y-19438756D01*
X87555856Y-19400036D01*
X87538552Y-19380817D01*
X87523244Y-19368255D01*
X87482105Y-19318127D01*
X87434155Y-19264873D01*
X87424080Y-19247424D01*
X87415123Y-19236509D01*
X87381983Y-19174510D01*
X87343215Y-19107361D01*
X87338755Y-19093636D01*
X87334784Y-19086206D01*
X87312886Y-19014018D01*
X87287012Y-18934383D01*
X87286101Y-18925715D01*
X87285310Y-18923108D01*
X87277605Y-18844891D01*
X87268000Y-18753500D01*
X87277605Y-18662116D01*
X87285310Y-18583891D01*
X87286101Y-18581282D01*
X87287012Y-18572617D01*
X87312882Y-18492995D01*
X87334784Y-18420793D01*
X87338756Y-18413360D01*
X87343215Y-18399639D01*
X87381976Y-18332501D01*
X87415123Y-18270490D01*
X87424082Y-18259572D01*
X87434155Y-18242127D01*
X87482096Y-18188882D01*
X87523244Y-18138744D01*
X87538555Y-18126178D01*
X87555856Y-18106964D01*
X87609140Y-18068250D01*
X87654990Y-18030623D01*
X87677467Y-18018608D01*
X87703000Y-18000058D01*
X87757914Y-17975608D01*
X87805293Y-17950284D01*
X87835106Y-17941240D01*
X87869155Y-17926081D01*
X87922372Y-17914769D01*
X87968391Y-17900810D01*
X88005018Y-17897202D01*
X88047060Y-17888266D01*
X88095744Y-17888266D01*
X88137999Y-17884104D01*
X88180254Y-17888266D01*
G37*
G36*
X90720255Y-17888266D02*
G01*
X90768940Y-17888266D01*
X90810982Y-17897202D01*
X90847608Y-17900810D01*
X90893624Y-17914768D01*
X90946845Y-17926081D01*
X90980895Y-17941241D01*
X91010706Y-17950284D01*
X91058079Y-17975605D01*
X91113000Y-18000058D01*
X91138535Y-18018610D01*
X91161009Y-18030623D01*
X91206850Y-18068244D01*
X91260144Y-18106964D01*
X91277447Y-18126181D01*
X91292755Y-18138744D01*
X91333892Y-18188869D01*
X91381845Y-18242127D01*
X91391919Y-18259576D01*
X91400876Y-18270490D01*
X91434009Y-18332478D01*
X91472785Y-18399639D01*
X91477244Y-18413365D01*
X91481215Y-18420793D01*
X91503102Y-18492948D01*
X91528988Y-18572617D01*
X91529899Y-18581287D01*
X91530689Y-18583891D01*
X91538379Y-18661971D01*
X91548000Y-18753500D01*
X91538377Y-18845050D01*
X91530689Y-18923108D01*
X91529899Y-18925710D01*
X91528988Y-18934383D01*
X91503098Y-19014065D01*
X91481215Y-19086206D01*
X91477245Y-19093631D01*
X91472785Y-19107361D01*
X91434002Y-19174533D01*
X91400876Y-19236509D01*
X91391921Y-19247420D01*
X91381845Y-19264873D01*
X91333882Y-19318140D01*
X91292755Y-19368255D01*
X91277450Y-19380814D01*
X91260144Y-19400036D01*
X91206840Y-19438763D01*
X91161009Y-19476376D01*
X91138540Y-19488385D01*
X91113000Y-19506942D01*
X91058068Y-19531399D01*
X91010706Y-19556715D01*
X90980902Y-19565755D01*
X90946845Y-19580919D01*
X90893613Y-19592233D01*
X90847608Y-19606189D01*
X90810991Y-19609795D01*
X90768940Y-19618734D01*
X90720245Y-19618734D01*
X90678000Y-19622895D01*
X90635755Y-19618734D01*
X90587060Y-19618734D01*
X90545009Y-19609795D01*
X90508391Y-19606189D01*
X90462383Y-19592233D01*
X90409155Y-19580919D01*
X90375099Y-19565756D01*
X90345293Y-19556715D01*
X90297925Y-19531396D01*
X90243000Y-19506942D01*
X90217461Y-19488387D01*
X90194990Y-19476376D01*
X90149150Y-19438756D01*
X90095856Y-19400036D01*
X90078552Y-19380817D01*
X90063244Y-19368255D01*
X90022105Y-19318127D01*
X89974155Y-19264873D01*
X89964080Y-19247424D01*
X89955123Y-19236509D01*
X89921983Y-19174510D01*
X89883215Y-19107361D01*
X89878755Y-19093636D01*
X89874784Y-19086206D01*
X89852886Y-19014018D01*
X89827012Y-18934383D01*
X89826101Y-18925715D01*
X89825310Y-18923108D01*
X89817605Y-18844891D01*
X89808000Y-18753500D01*
X89817605Y-18662116D01*
X89825310Y-18583891D01*
X89826101Y-18581282D01*
X89827012Y-18572617D01*
X89852882Y-18492995D01*
X89874784Y-18420793D01*
X89878756Y-18413360D01*
X89883215Y-18399639D01*
X89921976Y-18332501D01*
X89955123Y-18270490D01*
X89964082Y-18259572D01*
X89974155Y-18242127D01*
X90022096Y-18188882D01*
X90063244Y-18138744D01*
X90078555Y-18126178D01*
X90095856Y-18106964D01*
X90149140Y-18068250D01*
X90194990Y-18030623D01*
X90217467Y-18018608D01*
X90243000Y-18000058D01*
X90297914Y-17975608D01*
X90345293Y-17950284D01*
X90375106Y-17941240D01*
X90409155Y-17926081D01*
X90462372Y-17914769D01*
X90508391Y-17900810D01*
X90545017Y-17897202D01*
X90587060Y-17888266D01*
X90635745Y-17888266D01*
X90678000Y-17884104D01*
X90720255Y-17888266D01*
G37*
G36*
X78020255Y-10268266D02*
G01*
X78068940Y-10268266D01*
X78110982Y-10277202D01*
X78147608Y-10280810D01*
X78193624Y-10294768D01*
X78246845Y-10306081D01*
X78280895Y-10321241D01*
X78310706Y-10330284D01*
X78358079Y-10355605D01*
X78413000Y-10380058D01*
X78438535Y-10398610D01*
X78461009Y-10410623D01*
X78506850Y-10448244D01*
X78560144Y-10486964D01*
X78577447Y-10506181D01*
X78592755Y-10518744D01*
X78633892Y-10568869D01*
X78681845Y-10622127D01*
X78691919Y-10639576D01*
X78700876Y-10650490D01*
X78734009Y-10712478D01*
X78772785Y-10779639D01*
X78777244Y-10793365D01*
X78781215Y-10800793D01*
X78803102Y-10872948D01*
X78828988Y-10952617D01*
X78829899Y-10961287D01*
X78830689Y-10963891D01*
X78838379Y-11041971D01*
X78848000Y-11133500D01*
X78838377Y-11225050D01*
X78830689Y-11303108D01*
X78829899Y-11305710D01*
X78828988Y-11314383D01*
X78803098Y-11394065D01*
X78781215Y-11466206D01*
X78777245Y-11473631D01*
X78772785Y-11487361D01*
X78734002Y-11554533D01*
X78700876Y-11616509D01*
X78691921Y-11627420D01*
X78681845Y-11644873D01*
X78633882Y-11698140D01*
X78592755Y-11748255D01*
X78577450Y-11760814D01*
X78560144Y-11780036D01*
X78506840Y-11818763D01*
X78461009Y-11856376D01*
X78438540Y-11868385D01*
X78413000Y-11886942D01*
X78358068Y-11911399D01*
X78310706Y-11936715D01*
X78280902Y-11945755D01*
X78246845Y-11960919D01*
X78193613Y-11972233D01*
X78147608Y-11986189D01*
X78110991Y-11989795D01*
X78068940Y-11998734D01*
X78020245Y-11998734D01*
X77978000Y-12002895D01*
X77935755Y-11998734D01*
X77887060Y-11998734D01*
X77845009Y-11989795D01*
X77808391Y-11986189D01*
X77762383Y-11972233D01*
X77709155Y-11960919D01*
X77675099Y-11945756D01*
X77645293Y-11936715D01*
X77597925Y-11911396D01*
X77543000Y-11886942D01*
X77517461Y-11868387D01*
X77494990Y-11856376D01*
X77449150Y-11818756D01*
X77395856Y-11780036D01*
X77378552Y-11760817D01*
X77363244Y-11748255D01*
X77322105Y-11698127D01*
X77274155Y-11644873D01*
X77264080Y-11627424D01*
X77255123Y-11616509D01*
X77221983Y-11554510D01*
X77183215Y-11487361D01*
X77178755Y-11473636D01*
X77174784Y-11466206D01*
X77152886Y-11394018D01*
X77127012Y-11314383D01*
X77126101Y-11305715D01*
X77125310Y-11303108D01*
X77117605Y-11224891D01*
X77108000Y-11133500D01*
X77117605Y-11042116D01*
X77125310Y-10963891D01*
X77126101Y-10961282D01*
X77127012Y-10952617D01*
X77152882Y-10872995D01*
X77174784Y-10800793D01*
X77178756Y-10793360D01*
X77183215Y-10779639D01*
X77221976Y-10712501D01*
X77255123Y-10650490D01*
X77264082Y-10639572D01*
X77274155Y-10622127D01*
X77322096Y-10568882D01*
X77363244Y-10518744D01*
X77378555Y-10506178D01*
X77395856Y-10486964D01*
X77449140Y-10448250D01*
X77494990Y-10410623D01*
X77517467Y-10398608D01*
X77543000Y-10380058D01*
X77597914Y-10355608D01*
X77645293Y-10330284D01*
X77675106Y-10321240D01*
X77709155Y-10306081D01*
X77762372Y-10294769D01*
X77808391Y-10280810D01*
X77845017Y-10277202D01*
X77887060Y-10268266D01*
X77935745Y-10268266D01*
X77978000Y-10264104D01*
X78020255Y-10268266D01*
G37*
G36*
X80560254Y-10268266D02*
G01*
X80608940Y-10268266D01*
X80650982Y-10277202D01*
X80687608Y-10280810D01*
X80733624Y-10294768D01*
X80786845Y-10306081D01*
X80820895Y-10321241D01*
X80850706Y-10330284D01*
X80898079Y-10355605D01*
X80953000Y-10380058D01*
X80978535Y-10398610D01*
X81001009Y-10410623D01*
X81046850Y-10448244D01*
X81100144Y-10486964D01*
X81117447Y-10506181D01*
X81132755Y-10518744D01*
X81173892Y-10568869D01*
X81221845Y-10622127D01*
X81231919Y-10639576D01*
X81240876Y-10650490D01*
X81274009Y-10712478D01*
X81312785Y-10779639D01*
X81317244Y-10793365D01*
X81321215Y-10800793D01*
X81343102Y-10872948D01*
X81368988Y-10952617D01*
X81369899Y-10961287D01*
X81370689Y-10963891D01*
X81378379Y-11041971D01*
X81388000Y-11133500D01*
X81378377Y-11225050D01*
X81370689Y-11303108D01*
X81369899Y-11305710D01*
X81368988Y-11314383D01*
X81343098Y-11394065D01*
X81321215Y-11466206D01*
X81317245Y-11473631D01*
X81312785Y-11487361D01*
X81274002Y-11554533D01*
X81240876Y-11616509D01*
X81231921Y-11627420D01*
X81221845Y-11644873D01*
X81173882Y-11698140D01*
X81132755Y-11748255D01*
X81117450Y-11760814D01*
X81100144Y-11780036D01*
X81046840Y-11818763D01*
X81001009Y-11856376D01*
X80978540Y-11868385D01*
X80953000Y-11886942D01*
X80898068Y-11911399D01*
X80850706Y-11936715D01*
X80820902Y-11945755D01*
X80786845Y-11960919D01*
X80733613Y-11972233D01*
X80687608Y-11986189D01*
X80650991Y-11989795D01*
X80608940Y-11998734D01*
X80560245Y-11998734D01*
X80518000Y-12002895D01*
X80475755Y-11998734D01*
X80427060Y-11998734D01*
X80385009Y-11989795D01*
X80348391Y-11986189D01*
X80302383Y-11972233D01*
X80249155Y-11960919D01*
X80215099Y-11945756D01*
X80185293Y-11936715D01*
X80137925Y-11911396D01*
X80083000Y-11886942D01*
X80057461Y-11868387D01*
X80034990Y-11856376D01*
X79989150Y-11818756D01*
X79935856Y-11780036D01*
X79918552Y-11760817D01*
X79903244Y-11748255D01*
X79862105Y-11698127D01*
X79814155Y-11644873D01*
X79804080Y-11627424D01*
X79795123Y-11616509D01*
X79761983Y-11554510D01*
X79723215Y-11487361D01*
X79718755Y-11473636D01*
X79714784Y-11466206D01*
X79692886Y-11394018D01*
X79667012Y-11314383D01*
X79666101Y-11305715D01*
X79665310Y-11303108D01*
X79657606Y-11224898D01*
X79648000Y-11133500D01*
X79657604Y-11042123D01*
X79665310Y-10963891D01*
X79666101Y-10961282D01*
X79667012Y-10952617D01*
X79692882Y-10872995D01*
X79714784Y-10800793D01*
X79718756Y-10793360D01*
X79723215Y-10779639D01*
X79761976Y-10712501D01*
X79795123Y-10650490D01*
X79804082Y-10639572D01*
X79814155Y-10622127D01*
X79862096Y-10568882D01*
X79903244Y-10518744D01*
X79918555Y-10506178D01*
X79935856Y-10486964D01*
X79989140Y-10448250D01*
X80034990Y-10410623D01*
X80057467Y-10398608D01*
X80083000Y-10380058D01*
X80137914Y-10355608D01*
X80185293Y-10330284D01*
X80215106Y-10321240D01*
X80249155Y-10306081D01*
X80302372Y-10294769D01*
X80348391Y-10280810D01*
X80385018Y-10277202D01*
X80427060Y-10268266D01*
X80475744Y-10268266D01*
X80517999Y-10264104D01*
X80560254Y-10268266D01*
G37*
G36*
X83100254Y-10268266D02*
G01*
X83148940Y-10268266D01*
X83190982Y-10277202D01*
X83227608Y-10280810D01*
X83273624Y-10294768D01*
X83326845Y-10306081D01*
X83360895Y-10321241D01*
X83390706Y-10330284D01*
X83438079Y-10355605D01*
X83493000Y-10380058D01*
X83518535Y-10398610D01*
X83541009Y-10410623D01*
X83586850Y-10448244D01*
X83640144Y-10486964D01*
X83657447Y-10506181D01*
X83672755Y-10518744D01*
X83713892Y-10568869D01*
X83761845Y-10622127D01*
X83771919Y-10639576D01*
X83780876Y-10650490D01*
X83814009Y-10712478D01*
X83852785Y-10779639D01*
X83857244Y-10793365D01*
X83861215Y-10800793D01*
X83883102Y-10872948D01*
X83908988Y-10952617D01*
X83909899Y-10961287D01*
X83910689Y-10963891D01*
X83918379Y-11041964D01*
X83928000Y-11133500D01*
X83918378Y-11225043D01*
X83910689Y-11303108D01*
X83909899Y-11305710D01*
X83908988Y-11314383D01*
X83883098Y-11394065D01*
X83861215Y-11466206D01*
X83857245Y-11473631D01*
X83852785Y-11487361D01*
X83814002Y-11554533D01*
X83780876Y-11616509D01*
X83771921Y-11627420D01*
X83761845Y-11644873D01*
X83713882Y-11698140D01*
X83672755Y-11748255D01*
X83657450Y-11760814D01*
X83640144Y-11780036D01*
X83586840Y-11818763D01*
X83541009Y-11856376D01*
X83518540Y-11868385D01*
X83493000Y-11886942D01*
X83438068Y-11911399D01*
X83390706Y-11936715D01*
X83360902Y-11945755D01*
X83326845Y-11960919D01*
X83273613Y-11972233D01*
X83227608Y-11986189D01*
X83190991Y-11989795D01*
X83148940Y-11998734D01*
X83100245Y-11998734D01*
X83058000Y-12002895D01*
X83015755Y-11998734D01*
X82967060Y-11998734D01*
X82925009Y-11989795D01*
X82888391Y-11986189D01*
X82842383Y-11972233D01*
X82789155Y-11960919D01*
X82755099Y-11945756D01*
X82725293Y-11936715D01*
X82677925Y-11911396D01*
X82623000Y-11886942D01*
X82597461Y-11868387D01*
X82574990Y-11856376D01*
X82529150Y-11818756D01*
X82475856Y-11780036D01*
X82458552Y-11760817D01*
X82443244Y-11748255D01*
X82402105Y-11698127D01*
X82354155Y-11644873D01*
X82344080Y-11627424D01*
X82335123Y-11616509D01*
X82301983Y-11554510D01*
X82263215Y-11487361D01*
X82258755Y-11473636D01*
X82254784Y-11466206D01*
X82232886Y-11394018D01*
X82207012Y-11314383D01*
X82206101Y-11305715D01*
X82205310Y-11303108D01*
X82197606Y-11224898D01*
X82188000Y-11133500D01*
X82197604Y-11042123D01*
X82205310Y-10963891D01*
X82206101Y-10961282D01*
X82207012Y-10952617D01*
X82232882Y-10872995D01*
X82254784Y-10800793D01*
X82258756Y-10793360D01*
X82263215Y-10779639D01*
X82301976Y-10712501D01*
X82335123Y-10650490D01*
X82344082Y-10639572D01*
X82354155Y-10622127D01*
X82402096Y-10568882D01*
X82443244Y-10518744D01*
X82458555Y-10506178D01*
X82475856Y-10486964D01*
X82529140Y-10448250D01*
X82574990Y-10410623D01*
X82597467Y-10398608D01*
X82623000Y-10380058D01*
X82677914Y-10355608D01*
X82725293Y-10330284D01*
X82755106Y-10321240D01*
X82789155Y-10306081D01*
X82842372Y-10294769D01*
X82888391Y-10280810D01*
X82925018Y-10277202D01*
X82967060Y-10268266D01*
X83015744Y-10268266D01*
X83057999Y-10264104D01*
X83100254Y-10268266D01*
G37*
G36*
X85640254Y-10268266D02*
G01*
X85688940Y-10268266D01*
X85730982Y-10277202D01*
X85767608Y-10280810D01*
X85813624Y-10294768D01*
X85866845Y-10306081D01*
X85900895Y-10321241D01*
X85930706Y-10330284D01*
X85978079Y-10355605D01*
X86033000Y-10380058D01*
X86058535Y-10398610D01*
X86081009Y-10410623D01*
X86126850Y-10448244D01*
X86180144Y-10486964D01*
X86197447Y-10506181D01*
X86212755Y-10518744D01*
X86253892Y-10568869D01*
X86301845Y-10622127D01*
X86311919Y-10639576D01*
X86320876Y-10650490D01*
X86354009Y-10712478D01*
X86392785Y-10779639D01*
X86397244Y-10793365D01*
X86401215Y-10800793D01*
X86423102Y-10872948D01*
X86448988Y-10952617D01*
X86449899Y-10961287D01*
X86450689Y-10963891D01*
X86458379Y-11041971D01*
X86468000Y-11133500D01*
X86458377Y-11225050D01*
X86450689Y-11303108D01*
X86449899Y-11305710D01*
X86448988Y-11314383D01*
X86423098Y-11394065D01*
X86401215Y-11466206D01*
X86397245Y-11473631D01*
X86392785Y-11487361D01*
X86354002Y-11554533D01*
X86320876Y-11616509D01*
X86311921Y-11627420D01*
X86301845Y-11644873D01*
X86253882Y-11698140D01*
X86212755Y-11748255D01*
X86197450Y-11760814D01*
X86180144Y-11780036D01*
X86126840Y-11818763D01*
X86081009Y-11856376D01*
X86058540Y-11868385D01*
X86033000Y-11886942D01*
X85978068Y-11911399D01*
X85930706Y-11936715D01*
X85900902Y-11945755D01*
X85866845Y-11960919D01*
X85813613Y-11972233D01*
X85767608Y-11986189D01*
X85730991Y-11989795D01*
X85688940Y-11998734D01*
X85640245Y-11998734D01*
X85598000Y-12002895D01*
X85555755Y-11998734D01*
X85507060Y-11998734D01*
X85465009Y-11989795D01*
X85428391Y-11986189D01*
X85382383Y-11972233D01*
X85329155Y-11960919D01*
X85295099Y-11945756D01*
X85265293Y-11936715D01*
X85217925Y-11911396D01*
X85163000Y-11886942D01*
X85137461Y-11868387D01*
X85114990Y-11856376D01*
X85069150Y-11818756D01*
X85015856Y-11780036D01*
X84998552Y-11760817D01*
X84983244Y-11748255D01*
X84942105Y-11698127D01*
X84894155Y-11644873D01*
X84884080Y-11627424D01*
X84875123Y-11616509D01*
X84841983Y-11554510D01*
X84803215Y-11487361D01*
X84798755Y-11473636D01*
X84794784Y-11466206D01*
X84772886Y-11394018D01*
X84747012Y-11314383D01*
X84746101Y-11305715D01*
X84745310Y-11303108D01*
X84737606Y-11224898D01*
X84728000Y-11133500D01*
X84737604Y-11042123D01*
X84745310Y-10963891D01*
X84746101Y-10961282D01*
X84747012Y-10952617D01*
X84772882Y-10872995D01*
X84794784Y-10800793D01*
X84798756Y-10793360D01*
X84803215Y-10779639D01*
X84841976Y-10712501D01*
X84875123Y-10650490D01*
X84884082Y-10639572D01*
X84894155Y-10622127D01*
X84942096Y-10568882D01*
X84983244Y-10518744D01*
X84998555Y-10506178D01*
X85015856Y-10486964D01*
X85069140Y-10448250D01*
X85114990Y-10410623D01*
X85137467Y-10398608D01*
X85163000Y-10380058D01*
X85217914Y-10355608D01*
X85265293Y-10330284D01*
X85295106Y-10321240D01*
X85329155Y-10306081D01*
X85382372Y-10294769D01*
X85428391Y-10280810D01*
X85465018Y-10277202D01*
X85507060Y-10268266D01*
X85555744Y-10268266D01*
X85597999Y-10264104D01*
X85640254Y-10268266D01*
G37*
G36*
X88180254Y-10268266D02*
G01*
X88228940Y-10268266D01*
X88270982Y-10277202D01*
X88307608Y-10280810D01*
X88353624Y-10294768D01*
X88406845Y-10306081D01*
X88440895Y-10321241D01*
X88470706Y-10330284D01*
X88518079Y-10355605D01*
X88573000Y-10380058D01*
X88598535Y-10398610D01*
X88621009Y-10410623D01*
X88666850Y-10448244D01*
X88720144Y-10486964D01*
X88737447Y-10506181D01*
X88752755Y-10518744D01*
X88793892Y-10568869D01*
X88841845Y-10622127D01*
X88851919Y-10639576D01*
X88860876Y-10650490D01*
X88894009Y-10712478D01*
X88932785Y-10779639D01*
X88937244Y-10793365D01*
X88941215Y-10800793D01*
X88963102Y-10872948D01*
X88988988Y-10952617D01*
X88989899Y-10961287D01*
X88990689Y-10963891D01*
X88998379Y-11041971D01*
X89008000Y-11133500D01*
X88998377Y-11225050D01*
X88990689Y-11303108D01*
X88989899Y-11305710D01*
X88988988Y-11314383D01*
X88963098Y-11394065D01*
X88941215Y-11466206D01*
X88937245Y-11473631D01*
X88932785Y-11487361D01*
X88894002Y-11554533D01*
X88860876Y-11616509D01*
X88851921Y-11627420D01*
X88841845Y-11644873D01*
X88793882Y-11698140D01*
X88752755Y-11748255D01*
X88737450Y-11760814D01*
X88720144Y-11780036D01*
X88666840Y-11818763D01*
X88621009Y-11856376D01*
X88598540Y-11868385D01*
X88573000Y-11886942D01*
X88518068Y-11911399D01*
X88470706Y-11936715D01*
X88440902Y-11945755D01*
X88406845Y-11960919D01*
X88353613Y-11972233D01*
X88307608Y-11986189D01*
X88270991Y-11989795D01*
X88228940Y-11998734D01*
X88180245Y-11998734D01*
X88138000Y-12002895D01*
X88095755Y-11998734D01*
X88047060Y-11998734D01*
X88005009Y-11989795D01*
X87968391Y-11986189D01*
X87922383Y-11972233D01*
X87869155Y-11960919D01*
X87835099Y-11945756D01*
X87805293Y-11936715D01*
X87757925Y-11911396D01*
X87703000Y-11886942D01*
X87677461Y-11868387D01*
X87654990Y-11856376D01*
X87609150Y-11818756D01*
X87555856Y-11780036D01*
X87538552Y-11760817D01*
X87523244Y-11748255D01*
X87482105Y-11698127D01*
X87434155Y-11644873D01*
X87424080Y-11627424D01*
X87415123Y-11616509D01*
X87381983Y-11554510D01*
X87343215Y-11487361D01*
X87338755Y-11473636D01*
X87334784Y-11466206D01*
X87312886Y-11394018D01*
X87287012Y-11314383D01*
X87286101Y-11305715D01*
X87285310Y-11303108D01*
X87277606Y-11224898D01*
X87268000Y-11133500D01*
X87277604Y-11042123D01*
X87285310Y-10963891D01*
X87286101Y-10961282D01*
X87287012Y-10952617D01*
X87312882Y-10872995D01*
X87334784Y-10800793D01*
X87338756Y-10793360D01*
X87343215Y-10779639D01*
X87381976Y-10712501D01*
X87415123Y-10650490D01*
X87424082Y-10639572D01*
X87434155Y-10622127D01*
X87482096Y-10568882D01*
X87523244Y-10518744D01*
X87538555Y-10506178D01*
X87555856Y-10486964D01*
X87609140Y-10448250D01*
X87654990Y-10410623D01*
X87677467Y-10398608D01*
X87703000Y-10380058D01*
X87757914Y-10355608D01*
X87805293Y-10330284D01*
X87835106Y-10321240D01*
X87869155Y-10306081D01*
X87922372Y-10294769D01*
X87968391Y-10280810D01*
X88005018Y-10277202D01*
X88047060Y-10268266D01*
X88095744Y-10268266D01*
X88137999Y-10264104D01*
X88180254Y-10268266D01*
G37*
G36*
X90720255Y-10268266D02*
G01*
X90768940Y-10268266D01*
X90810982Y-10277202D01*
X90847608Y-10280810D01*
X90893624Y-10294768D01*
X90946845Y-10306081D01*
X90980895Y-10321241D01*
X91010706Y-10330284D01*
X91058079Y-10355605D01*
X91113000Y-10380058D01*
X91138535Y-10398610D01*
X91161009Y-10410623D01*
X91206850Y-10448244D01*
X91260144Y-10486964D01*
X91277447Y-10506181D01*
X91292755Y-10518744D01*
X91333892Y-10568869D01*
X91381845Y-10622127D01*
X91391919Y-10639576D01*
X91400876Y-10650490D01*
X91434009Y-10712478D01*
X91472785Y-10779639D01*
X91477244Y-10793365D01*
X91481215Y-10800793D01*
X91503102Y-10872948D01*
X91528988Y-10952617D01*
X91529899Y-10961287D01*
X91530689Y-10963891D01*
X91538379Y-11041971D01*
X91548000Y-11133500D01*
X91538377Y-11225050D01*
X91530689Y-11303108D01*
X91529899Y-11305710D01*
X91528988Y-11314383D01*
X91503098Y-11394065D01*
X91481215Y-11466206D01*
X91477245Y-11473631D01*
X91472785Y-11487361D01*
X91434002Y-11554533D01*
X91400876Y-11616509D01*
X91391921Y-11627420D01*
X91381845Y-11644873D01*
X91333882Y-11698140D01*
X91292755Y-11748255D01*
X91277450Y-11760814D01*
X91260144Y-11780036D01*
X91206840Y-11818763D01*
X91161009Y-11856376D01*
X91138540Y-11868385D01*
X91113000Y-11886942D01*
X91058068Y-11911399D01*
X91010706Y-11936715D01*
X90980902Y-11945755D01*
X90946845Y-11960919D01*
X90893613Y-11972233D01*
X90847608Y-11986189D01*
X90810991Y-11989795D01*
X90768940Y-11998734D01*
X90720245Y-11998734D01*
X90678000Y-12002895D01*
X90635755Y-11998734D01*
X90587060Y-11998734D01*
X90545009Y-11989795D01*
X90508391Y-11986189D01*
X90462383Y-11972233D01*
X90409155Y-11960919D01*
X90375099Y-11945756D01*
X90345293Y-11936715D01*
X90297925Y-11911396D01*
X90243000Y-11886942D01*
X90217461Y-11868387D01*
X90194990Y-11856376D01*
X90149150Y-11818756D01*
X90095856Y-11780036D01*
X90078552Y-11760817D01*
X90063244Y-11748255D01*
X90022105Y-11698127D01*
X89974155Y-11644873D01*
X89964080Y-11627424D01*
X89955123Y-11616509D01*
X89921983Y-11554510D01*
X89883215Y-11487361D01*
X89878755Y-11473636D01*
X89874784Y-11466206D01*
X89852886Y-11394018D01*
X89827012Y-11314383D01*
X89826101Y-11305715D01*
X89825310Y-11303108D01*
X89817606Y-11224898D01*
X89808000Y-11133500D01*
X89817604Y-11042123D01*
X89825310Y-10963891D01*
X89826101Y-10961282D01*
X89827012Y-10952617D01*
X89852882Y-10872995D01*
X89874784Y-10800793D01*
X89878756Y-10793360D01*
X89883215Y-10779639D01*
X89921976Y-10712501D01*
X89955123Y-10650490D01*
X89964082Y-10639572D01*
X89974155Y-10622127D01*
X90022096Y-10568882D01*
X90063244Y-10518744D01*
X90078555Y-10506178D01*
X90095856Y-10486964D01*
X90149140Y-10448250D01*
X90194990Y-10410623D01*
X90217467Y-10398608D01*
X90243000Y-10380058D01*
X90297914Y-10355608D01*
X90345293Y-10330284D01*
X90375106Y-10321240D01*
X90409155Y-10306081D01*
X90462372Y-10294769D01*
X90508391Y-10280810D01*
X90545017Y-10277202D01*
X90587060Y-10268266D01*
X90635745Y-10268266D01*
X90678000Y-10264104D01*
X90720255Y-10268266D01*
G37*
G36*
X49766228Y-3760740D02*
G01*
X49823299Y-3760740D01*
X49885663Y-3770139D01*
X49951602Y-3775329D01*
X50004746Y-3788087D01*
X50055278Y-3795704D01*
X50121310Y-3816072D01*
X50191157Y-3832841D01*
X50236318Y-3851547D01*
X50279460Y-3864855D01*
X50347196Y-3897474D01*
X50418765Y-3927120D01*
X50455502Y-3949632D01*
X50490825Y-3966643D01*
X50558014Y-4012451D01*
X50628823Y-4055843D01*
X50657174Y-4080057D01*
X50684662Y-4098798D01*
X50748837Y-4158344D01*
X50816158Y-4215842D01*
X50836604Y-4239782D01*
X50856631Y-4258364D01*
X50915180Y-4331782D01*
X50976157Y-4403177D01*
X50989566Y-4425060D01*
X51002907Y-4441788D01*
X51053221Y-4528935D01*
X51104880Y-4613235D01*
X51112467Y-4631553D01*
X51120204Y-4644953D01*
X51159662Y-4745490D01*
X51199159Y-4840843D01*
X51202424Y-4854446D01*
X51205913Y-4863334D01*
X51232033Y-4977774D01*
X51256671Y-5080398D01*
X51257310Y-5088519D01*
X51258118Y-5092059D01*
X51268658Y-5232718D01*
X51276000Y-5326000D01*
X51268658Y-5419289D01*
X51258118Y-5559940D01*
X51257310Y-5563478D01*
X51256671Y-5571602D01*
X51232028Y-5674245D01*
X51205913Y-5788665D01*
X51202425Y-5797550D01*
X51199159Y-5811157D01*
X51159654Y-5906527D01*
X51120204Y-6007046D01*
X51112469Y-6020442D01*
X51104880Y-6038765D01*
X51053211Y-6123081D01*
X51002907Y-6210211D01*
X50989569Y-6226935D01*
X50976157Y-6248823D01*
X50915168Y-6320231D01*
X50856631Y-6393635D01*
X50836608Y-6412213D01*
X50816158Y-6436158D01*
X50748823Y-6493666D01*
X50684662Y-6553201D01*
X50657180Y-6571937D01*
X50628823Y-6596157D01*
X50557999Y-6639557D01*
X50490825Y-6685356D01*
X50455509Y-6702362D01*
X50418765Y-6724880D01*
X50347181Y-6754531D01*
X50279460Y-6787144D01*
X50236327Y-6800448D01*
X50191157Y-6819159D01*
X50121296Y-6835931D01*
X50055278Y-6856295D01*
X50004755Y-6863910D01*
X49951602Y-6876671D01*
X49885659Y-6881860D01*
X49823299Y-6891260D01*
X49766228Y-6891260D01*
X49706000Y-6896000D01*
X49645772Y-6891260D01*
X49588701Y-6891260D01*
X49526339Y-6881860D01*
X49460398Y-6876671D01*
X49407245Y-6863910D01*
X49356721Y-6856295D01*
X49290699Y-6835929D01*
X49220843Y-6819159D01*
X49175675Y-6800449D01*
X49132539Y-6787144D01*
X49064813Y-6754529D01*
X48993235Y-6724880D01*
X48956490Y-6702363D01*
X48921175Y-6685356D01*
X48853996Y-6639555D01*
X48783177Y-6596157D01*
X48754822Y-6571940D01*
X48727337Y-6553201D01*
X48663163Y-6493655D01*
X48595842Y-6436158D01*
X48575394Y-6412217D01*
X48555368Y-6393635D01*
X48496816Y-6320214D01*
X48435843Y-6248823D01*
X48422433Y-6226941D01*
X48409092Y-6210211D01*
X48358771Y-6123052D01*
X48307120Y-6038765D01*
X48299533Y-6020449D01*
X48291795Y-6007046D01*
X48252325Y-5906481D01*
X48212841Y-5811157D01*
X48209576Y-5797557D01*
X48206086Y-5788665D01*
X48179951Y-5674160D01*
X48155329Y-5571602D01*
X48154690Y-5563485D01*
X48153881Y-5559940D01*
X48143321Y-5419035D01*
X48136000Y-5326000D01*
X48143319Y-5232996D01*
X48153881Y-5092059D01*
X48154690Y-5088513D01*
X48155329Y-5080398D01*
X48179946Y-4977858D01*
X48206086Y-4863334D01*
X48209576Y-4854440D01*
X48212841Y-4840843D01*
X48252318Y-4745536D01*
X48291795Y-4644953D01*
X48299534Y-4631547D01*
X48307120Y-4613235D01*
X48358761Y-4528963D01*
X48409092Y-4441788D01*
X48422436Y-4425054D01*
X48435843Y-4403177D01*
X48496804Y-4331799D01*
X48555368Y-4258364D01*
X48575399Y-4239777D01*
X48595842Y-4215842D01*
X48663150Y-4158355D01*
X48727337Y-4098798D01*
X48754828Y-4080054D01*
X48783177Y-4055843D01*
X48853982Y-4012453D01*
X48921175Y-3966643D01*
X48956498Y-3949631D01*
X48993235Y-3927120D01*
X49064799Y-3897476D01*
X49132539Y-3864855D01*
X49175684Y-3851546D01*
X49220843Y-3832841D01*
X49290684Y-3816073D01*
X49356721Y-3795704D01*
X49407254Y-3788087D01*
X49460398Y-3775329D01*
X49526335Y-3770139D01*
X49588701Y-3760740D01*
X49645772Y-3760740D01*
X49706000Y-3756000D01*
X49766228Y-3760740D01*
G37*
G36*
X71766228Y-3760740D02*
G01*
X71823299Y-3760740D01*
X71885663Y-3770139D01*
X71951602Y-3775329D01*
X72004746Y-3788087D01*
X72055278Y-3795704D01*
X72121310Y-3816072D01*
X72191157Y-3832841D01*
X72236318Y-3851547D01*
X72279460Y-3864855D01*
X72347196Y-3897474D01*
X72418765Y-3927120D01*
X72455502Y-3949632D01*
X72490825Y-3966643D01*
X72558014Y-4012451D01*
X72628823Y-4055843D01*
X72657174Y-4080057D01*
X72684662Y-4098798D01*
X72748837Y-4158344D01*
X72816158Y-4215842D01*
X72836604Y-4239782D01*
X72856631Y-4258364D01*
X72915180Y-4331782D01*
X72976157Y-4403177D01*
X72989566Y-4425060D01*
X73002907Y-4441788D01*
X73053221Y-4528935D01*
X73104880Y-4613235D01*
X73112467Y-4631553D01*
X73120204Y-4644953D01*
X73159662Y-4745490D01*
X73199159Y-4840843D01*
X73202424Y-4854446D01*
X73205913Y-4863334D01*
X73232033Y-4977774D01*
X73256671Y-5080398D01*
X73257310Y-5088519D01*
X73258118Y-5092059D01*
X73268658Y-5232718D01*
X73276000Y-5326000D01*
X73268658Y-5419289D01*
X73258118Y-5559940D01*
X73257310Y-5563478D01*
X73256671Y-5571602D01*
X73232028Y-5674245D01*
X73205913Y-5788665D01*
X73202425Y-5797550D01*
X73199159Y-5811157D01*
X73159654Y-5906527D01*
X73120204Y-6007046D01*
X73112469Y-6020442D01*
X73104880Y-6038765D01*
X73053211Y-6123081D01*
X73002907Y-6210211D01*
X72989569Y-6226935D01*
X72976157Y-6248823D01*
X72915168Y-6320231D01*
X72856631Y-6393635D01*
X72836608Y-6412213D01*
X72816158Y-6436158D01*
X72748823Y-6493666D01*
X72684662Y-6553201D01*
X72657180Y-6571937D01*
X72628823Y-6596157D01*
X72557999Y-6639557D01*
X72490825Y-6685356D01*
X72455509Y-6702362D01*
X72418765Y-6724880D01*
X72347181Y-6754531D01*
X72279460Y-6787144D01*
X72236327Y-6800448D01*
X72191157Y-6819159D01*
X72121296Y-6835931D01*
X72055278Y-6856295D01*
X72004755Y-6863910D01*
X71951602Y-6876671D01*
X71885659Y-6881860D01*
X71823299Y-6891260D01*
X71766228Y-6891260D01*
X71706000Y-6896000D01*
X71645772Y-6891260D01*
X71588701Y-6891260D01*
X71526339Y-6881860D01*
X71460398Y-6876671D01*
X71407245Y-6863910D01*
X71356721Y-6856295D01*
X71290699Y-6835929D01*
X71220843Y-6819159D01*
X71175675Y-6800449D01*
X71132539Y-6787144D01*
X71064813Y-6754529D01*
X70993235Y-6724880D01*
X70956490Y-6702363D01*
X70921175Y-6685356D01*
X70853996Y-6639555D01*
X70783177Y-6596157D01*
X70754822Y-6571940D01*
X70727337Y-6553201D01*
X70663163Y-6493655D01*
X70595842Y-6436158D01*
X70575394Y-6412217D01*
X70555368Y-6393635D01*
X70496816Y-6320214D01*
X70435843Y-6248823D01*
X70422433Y-6226941D01*
X70409092Y-6210211D01*
X70358771Y-6123052D01*
X70307120Y-6038765D01*
X70299533Y-6020449D01*
X70291795Y-6007046D01*
X70252325Y-5906481D01*
X70212841Y-5811157D01*
X70209576Y-5797557D01*
X70206086Y-5788665D01*
X70179951Y-5674160D01*
X70155329Y-5571602D01*
X70154690Y-5563485D01*
X70153881Y-5559940D01*
X70143321Y-5419023D01*
X70136000Y-5326000D01*
X70143320Y-5232984D01*
X70153881Y-5092059D01*
X70154690Y-5088513D01*
X70155329Y-5080398D01*
X70179946Y-4977858D01*
X70206086Y-4863334D01*
X70209576Y-4854440D01*
X70212841Y-4840843D01*
X70252318Y-4745536D01*
X70291795Y-4644953D01*
X70299534Y-4631547D01*
X70307120Y-4613235D01*
X70358761Y-4528963D01*
X70409092Y-4441788D01*
X70422436Y-4425054D01*
X70435843Y-4403177D01*
X70496804Y-4331799D01*
X70555368Y-4258364D01*
X70575399Y-4239777D01*
X70595842Y-4215842D01*
X70663150Y-4158355D01*
X70727337Y-4098798D01*
X70754828Y-4080054D01*
X70783177Y-4055843D01*
X70853982Y-4012453D01*
X70921175Y-3966643D01*
X70956498Y-3949631D01*
X70993235Y-3927120D01*
X71064799Y-3897476D01*
X71132539Y-3864855D01*
X71175684Y-3851546D01*
X71220843Y-3832841D01*
X71290684Y-3816073D01*
X71356721Y-3795704D01*
X71407254Y-3788087D01*
X71460398Y-3775329D01*
X71526335Y-3770139D01*
X71588701Y-3760740D01*
X71645772Y-3760740D01*
X71706000Y-3756000D01*
X71766228Y-3760740D01*
G37*
G36*
X56938255Y-3960766D02*
G01*
X56986940Y-3960766D01*
X57028982Y-3969702D01*
X57065608Y-3973310D01*
X57111624Y-3987268D01*
X57164845Y-3998581D01*
X57198895Y-4013741D01*
X57228706Y-4022784D01*
X57276079Y-4048105D01*
X57331000Y-4072558D01*
X57356535Y-4091110D01*
X57379009Y-4103123D01*
X57424850Y-4140744D01*
X57478144Y-4179464D01*
X57495447Y-4198681D01*
X57510755Y-4211244D01*
X57551892Y-4261369D01*
X57599845Y-4314627D01*
X57609919Y-4332076D01*
X57618876Y-4342990D01*
X57652009Y-4404978D01*
X57690785Y-4472139D01*
X57695244Y-4485865D01*
X57699215Y-4493293D01*
X57721102Y-4565448D01*
X57746988Y-4645117D01*
X57747899Y-4653787D01*
X57748689Y-4656391D01*
X57756379Y-4734471D01*
X57766000Y-4826000D01*
X57756377Y-4917550D01*
X57748689Y-4995608D01*
X57747899Y-4998210D01*
X57746988Y-5006883D01*
X57721098Y-5086565D01*
X57699215Y-5158706D01*
X57695245Y-5166131D01*
X57690785Y-5179861D01*
X57652002Y-5247033D01*
X57618876Y-5309009D01*
X57609921Y-5319920D01*
X57599845Y-5337373D01*
X57551882Y-5390640D01*
X57510755Y-5440755D01*
X57495450Y-5453314D01*
X57478144Y-5472536D01*
X57424840Y-5511263D01*
X57379009Y-5548876D01*
X57356540Y-5560885D01*
X57331000Y-5579442D01*
X57276068Y-5603899D01*
X57228706Y-5629215D01*
X57198902Y-5638255D01*
X57164845Y-5653419D01*
X57111613Y-5664733D01*
X57065608Y-5678689D01*
X57028991Y-5682295D01*
X56986940Y-5691234D01*
X56938244Y-5691234D01*
X56895999Y-5695395D01*
X56853754Y-5691234D01*
X56805060Y-5691234D01*
X56763009Y-5682295D01*
X56726391Y-5678689D01*
X56680383Y-5664733D01*
X56627155Y-5653419D01*
X56593099Y-5638256D01*
X56563293Y-5629215D01*
X56515925Y-5603896D01*
X56461000Y-5579442D01*
X56435461Y-5560887D01*
X56412990Y-5548876D01*
X56367150Y-5511256D01*
X56313856Y-5472536D01*
X56296552Y-5453317D01*
X56281244Y-5440755D01*
X56240105Y-5390627D01*
X56192155Y-5337373D01*
X56182080Y-5319924D01*
X56173123Y-5309009D01*
X56139983Y-5247010D01*
X56101215Y-5179861D01*
X56096755Y-5166136D01*
X56092784Y-5158706D01*
X56070886Y-5086518D01*
X56045012Y-5006883D01*
X56044101Y-4998215D01*
X56043310Y-4995608D01*
X56035605Y-4917391D01*
X56026000Y-4826000D01*
X56035605Y-4734616D01*
X56043310Y-4656391D01*
X56044101Y-4653782D01*
X56045012Y-4645117D01*
X56070882Y-4565495D01*
X56092784Y-4493293D01*
X56096756Y-4485860D01*
X56101215Y-4472139D01*
X56139976Y-4405001D01*
X56173123Y-4342990D01*
X56182082Y-4332072D01*
X56192155Y-4314627D01*
X56240096Y-4261382D01*
X56281244Y-4211244D01*
X56296555Y-4198678D01*
X56313856Y-4179464D01*
X56367140Y-4140750D01*
X56412990Y-4103123D01*
X56435467Y-4091108D01*
X56461000Y-4072558D01*
X56515914Y-4048108D01*
X56563293Y-4022784D01*
X56593106Y-4013740D01*
X56627155Y-3998581D01*
X56680372Y-3987269D01*
X56726391Y-3973310D01*
X56763017Y-3969702D01*
X56805060Y-3960766D01*
X56853745Y-3960766D01*
X56896000Y-3956604D01*
X56938255Y-3960766D01*
G37*
G36*
X59478255Y-3960766D02*
G01*
X59526940Y-3960766D01*
X59568982Y-3969702D01*
X59605608Y-3973310D01*
X59651624Y-3987268D01*
X59704845Y-3998581D01*
X59738895Y-4013741D01*
X59768706Y-4022784D01*
X59816079Y-4048105D01*
X59871000Y-4072558D01*
X59896535Y-4091110D01*
X59919009Y-4103123D01*
X59964850Y-4140744D01*
X60018144Y-4179464D01*
X60035447Y-4198681D01*
X60050755Y-4211244D01*
X60091892Y-4261369D01*
X60139845Y-4314627D01*
X60149919Y-4332076D01*
X60158876Y-4342990D01*
X60192009Y-4404978D01*
X60230785Y-4472139D01*
X60235244Y-4485865D01*
X60239215Y-4493293D01*
X60261102Y-4565448D01*
X60286988Y-4645117D01*
X60287899Y-4653787D01*
X60288689Y-4656391D01*
X60296379Y-4734471D01*
X60306000Y-4826000D01*
X60296377Y-4917550D01*
X60288689Y-4995608D01*
X60287899Y-4998210D01*
X60286988Y-5006883D01*
X60261098Y-5086565D01*
X60239215Y-5158706D01*
X60235245Y-5166131D01*
X60230785Y-5179861D01*
X60192002Y-5247033D01*
X60158876Y-5309009D01*
X60149921Y-5319920D01*
X60139845Y-5337373D01*
X60091882Y-5390640D01*
X60050755Y-5440755D01*
X60035450Y-5453314D01*
X60018144Y-5472536D01*
X59964840Y-5511263D01*
X59919009Y-5548876D01*
X59896540Y-5560885D01*
X59871000Y-5579442D01*
X59816068Y-5603899D01*
X59768706Y-5629215D01*
X59738902Y-5638255D01*
X59704845Y-5653419D01*
X59651613Y-5664733D01*
X59605608Y-5678689D01*
X59568991Y-5682295D01*
X59526940Y-5691234D01*
X59478245Y-5691234D01*
X59436000Y-5695395D01*
X59393755Y-5691234D01*
X59345060Y-5691234D01*
X59303009Y-5682295D01*
X59266391Y-5678689D01*
X59220383Y-5664733D01*
X59167155Y-5653419D01*
X59133099Y-5638256D01*
X59103293Y-5629215D01*
X59055925Y-5603896D01*
X59001000Y-5579442D01*
X58975461Y-5560887D01*
X58952990Y-5548876D01*
X58907150Y-5511256D01*
X58853856Y-5472536D01*
X58836552Y-5453317D01*
X58821244Y-5440755D01*
X58780105Y-5390627D01*
X58732155Y-5337373D01*
X58722080Y-5319924D01*
X58713123Y-5309009D01*
X58679983Y-5247010D01*
X58641215Y-5179861D01*
X58636755Y-5166136D01*
X58632784Y-5158706D01*
X58610886Y-5086518D01*
X58585012Y-5006883D01*
X58584101Y-4998215D01*
X58583310Y-4995608D01*
X58575606Y-4917398D01*
X58566000Y-4826000D01*
X58575604Y-4734623D01*
X58583310Y-4656391D01*
X58584101Y-4653782D01*
X58585012Y-4645117D01*
X58610882Y-4565495D01*
X58632784Y-4493293D01*
X58636756Y-4485860D01*
X58641215Y-4472139D01*
X58679976Y-4405001D01*
X58713123Y-4342990D01*
X58722082Y-4332072D01*
X58732155Y-4314627D01*
X58780096Y-4261382D01*
X58821244Y-4211244D01*
X58836555Y-4198678D01*
X58853856Y-4179464D01*
X58907140Y-4140750D01*
X58952990Y-4103123D01*
X58975467Y-4091108D01*
X59001000Y-4072558D01*
X59055914Y-4048108D01*
X59103293Y-4022784D01*
X59133106Y-4013740D01*
X59167155Y-3998581D01*
X59220372Y-3987269D01*
X59266391Y-3973310D01*
X59303017Y-3969702D01*
X59345060Y-3960766D01*
X59393745Y-3960766D01*
X59436000Y-3956604D01*
X59478255Y-3960766D01*
G37*
G36*
X62018254Y-3960766D02*
G01*
X62066940Y-3960766D01*
X62108982Y-3969702D01*
X62145608Y-3973310D01*
X62191624Y-3987268D01*
X62244845Y-3998581D01*
X62278895Y-4013741D01*
X62308706Y-4022784D01*
X62356079Y-4048105D01*
X62411000Y-4072558D01*
X62436535Y-4091110D01*
X62459009Y-4103123D01*
X62504850Y-4140744D01*
X62558144Y-4179464D01*
X62575447Y-4198681D01*
X62590755Y-4211244D01*
X62631892Y-4261369D01*
X62679845Y-4314627D01*
X62689919Y-4332076D01*
X62698876Y-4342990D01*
X62732009Y-4404978D01*
X62770785Y-4472139D01*
X62775244Y-4485865D01*
X62779215Y-4493293D01*
X62801102Y-4565448D01*
X62826988Y-4645117D01*
X62827899Y-4653787D01*
X62828689Y-4656391D01*
X62836379Y-4734464D01*
X62846000Y-4826000D01*
X62836378Y-4917543D01*
X62828689Y-4995608D01*
X62827899Y-4998210D01*
X62826988Y-5006883D01*
X62801098Y-5086565D01*
X62779215Y-5158706D01*
X62775245Y-5166131D01*
X62770785Y-5179861D01*
X62732002Y-5247033D01*
X62698876Y-5309009D01*
X62689921Y-5319920D01*
X62679845Y-5337373D01*
X62631882Y-5390640D01*
X62590755Y-5440755D01*
X62575450Y-5453314D01*
X62558144Y-5472536D01*
X62504840Y-5511263D01*
X62459009Y-5548876D01*
X62436540Y-5560885D01*
X62411000Y-5579442D01*
X62356068Y-5603899D01*
X62308706Y-5629215D01*
X62278902Y-5638255D01*
X62244845Y-5653419D01*
X62191613Y-5664733D01*
X62145608Y-5678689D01*
X62108991Y-5682295D01*
X62066940Y-5691234D01*
X62018245Y-5691234D01*
X61976000Y-5695395D01*
X61933755Y-5691234D01*
X61885060Y-5691234D01*
X61843009Y-5682295D01*
X61806391Y-5678689D01*
X61760383Y-5664733D01*
X61707155Y-5653419D01*
X61673099Y-5638256D01*
X61643293Y-5629215D01*
X61595925Y-5603896D01*
X61541000Y-5579442D01*
X61515461Y-5560887D01*
X61492990Y-5548876D01*
X61447150Y-5511256D01*
X61393856Y-5472536D01*
X61376552Y-5453317D01*
X61361244Y-5440755D01*
X61320105Y-5390627D01*
X61272155Y-5337373D01*
X61262080Y-5319924D01*
X61253123Y-5309009D01*
X61219983Y-5247010D01*
X61181215Y-5179861D01*
X61176755Y-5166136D01*
X61172784Y-5158706D01*
X61150886Y-5086518D01*
X61125012Y-5006883D01*
X61124101Y-4998215D01*
X61123310Y-4995608D01*
X61115606Y-4917398D01*
X61106000Y-4826000D01*
X61115604Y-4734623D01*
X61123310Y-4656391D01*
X61124101Y-4653782D01*
X61125012Y-4645117D01*
X61150882Y-4565495D01*
X61172784Y-4493293D01*
X61176756Y-4485860D01*
X61181215Y-4472139D01*
X61219976Y-4405001D01*
X61253123Y-4342990D01*
X61262082Y-4332072D01*
X61272155Y-4314627D01*
X61320096Y-4261382D01*
X61361244Y-4211244D01*
X61376555Y-4198678D01*
X61393856Y-4179464D01*
X61447140Y-4140750D01*
X61492990Y-4103123D01*
X61515467Y-4091108D01*
X61541000Y-4072558D01*
X61595914Y-4048108D01*
X61643293Y-4022784D01*
X61673106Y-4013740D01*
X61707155Y-3998581D01*
X61760372Y-3987269D01*
X61806391Y-3973310D01*
X61843018Y-3969702D01*
X61885060Y-3960766D01*
X61933744Y-3960766D01*
X61975999Y-3956604D01*
X62018254Y-3960766D01*
G37*
G36*
X64558254Y-3960766D02*
G01*
X64606940Y-3960766D01*
X64648982Y-3969702D01*
X64685608Y-3973310D01*
X64731624Y-3987268D01*
X64784845Y-3998581D01*
X64818895Y-4013741D01*
X64848706Y-4022784D01*
X64896079Y-4048105D01*
X64951000Y-4072558D01*
X64976535Y-4091110D01*
X64999009Y-4103123D01*
X65044850Y-4140744D01*
X65098144Y-4179464D01*
X65115447Y-4198681D01*
X65130755Y-4211244D01*
X65171892Y-4261369D01*
X65219845Y-4314627D01*
X65229919Y-4332076D01*
X65238876Y-4342990D01*
X65272009Y-4404978D01*
X65310785Y-4472139D01*
X65315244Y-4485865D01*
X65319215Y-4493293D01*
X65341102Y-4565448D01*
X65366988Y-4645117D01*
X65367899Y-4653787D01*
X65368689Y-4656391D01*
X65376379Y-4734464D01*
X65386000Y-4826000D01*
X65376378Y-4917543D01*
X65368689Y-4995608D01*
X65367899Y-4998210D01*
X65366988Y-5006883D01*
X65341098Y-5086565D01*
X65319215Y-5158706D01*
X65315245Y-5166131D01*
X65310785Y-5179861D01*
X65272002Y-5247033D01*
X65238876Y-5309009D01*
X65229921Y-5319920D01*
X65219845Y-5337373D01*
X65171882Y-5390640D01*
X65130755Y-5440755D01*
X65115450Y-5453314D01*
X65098144Y-5472536D01*
X65044840Y-5511263D01*
X64999009Y-5548876D01*
X64976540Y-5560885D01*
X64951000Y-5579442D01*
X64896068Y-5603899D01*
X64848706Y-5629215D01*
X64818902Y-5638255D01*
X64784845Y-5653419D01*
X64731613Y-5664733D01*
X64685608Y-5678689D01*
X64648991Y-5682295D01*
X64606940Y-5691234D01*
X64558245Y-5691234D01*
X64516000Y-5695395D01*
X64473755Y-5691234D01*
X64425060Y-5691234D01*
X64383009Y-5682295D01*
X64346391Y-5678689D01*
X64300383Y-5664733D01*
X64247155Y-5653419D01*
X64213099Y-5638256D01*
X64183293Y-5629215D01*
X64135925Y-5603896D01*
X64081000Y-5579442D01*
X64055461Y-5560887D01*
X64032990Y-5548876D01*
X63987150Y-5511256D01*
X63933856Y-5472536D01*
X63916552Y-5453317D01*
X63901244Y-5440755D01*
X63860105Y-5390627D01*
X63812155Y-5337373D01*
X63802080Y-5319924D01*
X63793123Y-5309009D01*
X63759983Y-5247010D01*
X63721215Y-5179861D01*
X63716755Y-5166136D01*
X63712784Y-5158706D01*
X63690886Y-5086518D01*
X63665012Y-5006883D01*
X63664101Y-4998215D01*
X63663310Y-4995608D01*
X63655606Y-4917398D01*
X63646000Y-4826000D01*
X63655604Y-4734623D01*
X63663310Y-4656391D01*
X63664101Y-4653782D01*
X63665012Y-4645117D01*
X63690882Y-4565495D01*
X63712784Y-4493293D01*
X63716756Y-4485860D01*
X63721215Y-4472139D01*
X63759976Y-4405001D01*
X63793123Y-4342990D01*
X63802082Y-4332072D01*
X63812155Y-4314627D01*
X63860096Y-4261382D01*
X63901244Y-4211244D01*
X63916555Y-4198678D01*
X63933856Y-4179464D01*
X63987140Y-4140750D01*
X64032990Y-4103123D01*
X64055467Y-4091108D01*
X64081000Y-4072558D01*
X64135914Y-4048108D01*
X64183293Y-4022784D01*
X64213106Y-4013740D01*
X64247155Y-3998581D01*
X64300372Y-3987269D01*
X64346391Y-3973310D01*
X64383018Y-3969702D01*
X64425060Y-3960766D01*
X64473744Y-3960766D01*
X64515999Y-3956604D01*
X64558254Y-3960766D01*
G37*
G36*
X52946788Y-355328D02*
G01*
X52969497Y-370503D01*
X52984672Y-393212D01*
X52990000Y-420000D01*
X52990000Y-2120000D01*
X52984672Y-2146788D01*
X52969497Y-2169497D01*
X52946788Y-2184672D01*
X52920000Y-2190000D01*
X51220000Y-2190000D01*
X51193212Y-2184672D01*
X51170503Y-2169497D01*
X51155328Y-2146788D01*
X51150000Y-2120000D01*
X51150000Y-420000D01*
X51155328Y-393212D01*
X51170503Y-370503D01*
X51193212Y-355328D01*
X51220000Y-350000D01*
X52920000Y-350000D01*
X52946788Y-355328D01*
G37*
G36*
X65646788Y-355328D02*
G01*
X65669497Y-370503D01*
X65684672Y-393212D01*
X65690000Y-420000D01*
X65690000Y-2120000D01*
X65684672Y-2146788D01*
X65669497Y-2169497D01*
X65646788Y-2184672D01*
X65620000Y-2190000D01*
X63920000Y-2190000D01*
X63893212Y-2184672D01*
X63870503Y-2169497D01*
X63855328Y-2146788D01*
X63850000Y-2120000D01*
X63850000Y-420000D01*
X63855328Y-393212D01*
X63870503Y-370503D01*
X63893212Y-355328D01*
X63920000Y-350000D01*
X65620000Y-350000D01*
X65646788Y-355328D01*
G37*
G36*
X78346788Y-355328D02*
G01*
X78369497Y-370503D01*
X78384672Y-393212D01*
X78390000Y-420000D01*
X78390000Y-2120000D01*
X78384672Y-2146788D01*
X78369497Y-2169497D01*
X78346788Y-2184672D01*
X78320000Y-2190000D01*
X76620000Y-2190000D01*
X76593212Y-2184672D01*
X76570503Y-2169497D01*
X76555328Y-2146788D01*
X76550000Y-2120000D01*
X76550000Y-420000D01*
X76555328Y-393212D01*
X76570503Y-370503D01*
X76593212Y-355328D01*
X76620000Y-350000D01*
X78320000Y-350000D01*
X78346788Y-355328D01*
G37*
G36*
X91046788Y-355328D02*
G01*
X91069497Y-370503D01*
X91084672Y-393212D01*
X91090000Y-420000D01*
X91090000Y-2120000D01*
X91084672Y-2146788D01*
X91069497Y-2169497D01*
X91046788Y-2184672D01*
X91020000Y-2190000D01*
X89320000Y-2190000D01*
X89293212Y-2184672D01*
X89270503Y-2169497D01*
X89255328Y-2146788D01*
X89250000Y-2120000D01*
X89250000Y-420000D01*
X89255328Y-393212D01*
X89270503Y-370503D01*
X89293212Y-355328D01*
X89320000Y-350000D01*
X91020000Y-350000D01*
X91046788Y-355328D01*
G37*
G36*
X47035041Y-355040D02*
G01*
X47086166Y-355040D01*
X47130309Y-364422D01*
X47169361Y-368269D01*
X47218421Y-383151D01*
X47274296Y-395028D01*
X47310052Y-410947D01*
X47341841Y-420591D01*
X47392360Y-447593D01*
X47450000Y-473257D01*
X47476796Y-492726D01*
X47500787Y-505549D01*
X47549723Y-545710D01*
X47605600Y-586307D01*
X47623743Y-606457D01*
X47640110Y-619889D01*
X47684092Y-673481D01*
X47734296Y-729238D01*
X47744842Y-747505D01*
X47754450Y-759212D01*
X47789987Y-825697D01*
X47830462Y-895802D01*
X47835118Y-910132D01*
X47839408Y-918158D01*
X47863065Y-996145D01*
X47889896Y-1078721D01*
X47890840Y-1087704D01*
X47891730Y-1090638D01*
X47900387Y-1178541D01*
X47910000Y-1270000D01*
X47900386Y-1361465D01*
X47891730Y-1449361D01*
X47890840Y-1452293D01*
X47889896Y-1461279D01*
X47863061Y-1543868D01*
X47839408Y-1621841D01*
X47835119Y-1629865D01*
X47830462Y-1644198D01*
X47789980Y-1714314D01*
X47754450Y-1780787D01*
X47744844Y-1792490D01*
X47734296Y-1810762D01*
X47684082Y-1866529D01*
X47640110Y-1920110D01*
X47623746Y-1933539D01*
X47605600Y-1953693D01*
X47549712Y-1994297D01*
X47500787Y-2034450D01*
X47476802Y-2047270D01*
X47450000Y-2066743D01*
X47392348Y-2092411D01*
X47341841Y-2119408D01*
X47310059Y-2129048D01*
X47274296Y-2144972D01*
X47218410Y-2156850D01*
X47169361Y-2171730D01*
X47130317Y-2175575D01*
X47086166Y-2184960D01*
X47035031Y-2184960D01*
X46990000Y-2189395D01*
X46944969Y-2184960D01*
X46893834Y-2184960D01*
X46849682Y-2175575D01*
X46810638Y-2171730D01*
X46761585Y-2156849D01*
X46705704Y-2144972D01*
X46669942Y-2129049D01*
X46638158Y-2119408D01*
X46587645Y-2092408D01*
X46530000Y-2066743D01*
X46503200Y-2047272D01*
X46479212Y-2034450D01*
X46430278Y-1994290D01*
X46374400Y-1953693D01*
X46356256Y-1933542D01*
X46339889Y-1920110D01*
X46295905Y-1866516D01*
X46245704Y-1810762D01*
X46235157Y-1792494D01*
X46225549Y-1780787D01*
X46190006Y-1714291D01*
X46149538Y-1644198D01*
X46144882Y-1629869D01*
X46140591Y-1621841D01*
X46116923Y-1543821D01*
X46090104Y-1461279D01*
X46089160Y-1452298D01*
X46088269Y-1449361D01*
X46079597Y-1361314D01*
X46070000Y-1270000D01*
X46079596Y-1178692D01*
X46088269Y-1090638D01*
X46089160Y-1087699D01*
X46090104Y-1078721D01*
X46116919Y-996192D01*
X46140591Y-918158D01*
X46144883Y-910127D01*
X46149538Y-895802D01*
X46189999Y-825721D01*
X46225549Y-759212D01*
X46235159Y-747501D01*
X46245704Y-729238D01*
X46295896Y-673493D01*
X46339889Y-619889D01*
X46356259Y-606454D01*
X46374400Y-586307D01*
X46430267Y-545716D01*
X46479212Y-505549D01*
X46503205Y-492724D01*
X46530000Y-473257D01*
X46587633Y-447596D01*
X46638158Y-420591D01*
X46669949Y-410946D01*
X46705704Y-395028D01*
X46761574Y-383152D01*
X46810638Y-368269D01*
X46849691Y-364422D01*
X46893834Y-355040D01*
X46944959Y-355040D01*
X46990000Y-350604D01*
X47035041Y-355040D01*
G37*
G36*
X49575041Y-355040D02*
G01*
X49626166Y-355040D01*
X49670309Y-364422D01*
X49709361Y-368269D01*
X49758421Y-383151D01*
X49814296Y-395028D01*
X49850052Y-410947D01*
X49881841Y-420591D01*
X49932360Y-447593D01*
X49990000Y-473257D01*
X50016796Y-492726D01*
X50040787Y-505549D01*
X50089723Y-545710D01*
X50145600Y-586307D01*
X50163743Y-606457D01*
X50180110Y-619889D01*
X50224092Y-673481D01*
X50274296Y-729238D01*
X50284842Y-747505D01*
X50294450Y-759212D01*
X50329987Y-825697D01*
X50370462Y-895802D01*
X50375118Y-910132D01*
X50379408Y-918158D01*
X50403065Y-996145D01*
X50429896Y-1078721D01*
X50430840Y-1087704D01*
X50431730Y-1090638D01*
X50440387Y-1178541D01*
X50450000Y-1270000D01*
X50440386Y-1361465D01*
X50431730Y-1449361D01*
X50430840Y-1452293D01*
X50429896Y-1461279D01*
X50403061Y-1543868D01*
X50379408Y-1621841D01*
X50375119Y-1629865D01*
X50370462Y-1644198D01*
X50329980Y-1714314D01*
X50294450Y-1780787D01*
X50284844Y-1792490D01*
X50274296Y-1810762D01*
X50224082Y-1866529D01*
X50180110Y-1920110D01*
X50163746Y-1933539D01*
X50145600Y-1953693D01*
X50089712Y-1994297D01*
X50040787Y-2034450D01*
X50016802Y-2047270D01*
X49990000Y-2066743D01*
X49932348Y-2092411D01*
X49881841Y-2119408D01*
X49850059Y-2129048D01*
X49814296Y-2144972D01*
X49758410Y-2156850D01*
X49709361Y-2171730D01*
X49670317Y-2175575D01*
X49626166Y-2184960D01*
X49575031Y-2184960D01*
X49530000Y-2189395D01*
X49484969Y-2184960D01*
X49433834Y-2184960D01*
X49389682Y-2175575D01*
X49350638Y-2171730D01*
X49301585Y-2156849D01*
X49245704Y-2144972D01*
X49209942Y-2129049D01*
X49178158Y-2119408D01*
X49127645Y-2092408D01*
X49070000Y-2066743D01*
X49043200Y-2047272D01*
X49019212Y-2034450D01*
X48970278Y-1994290D01*
X48914400Y-1953693D01*
X48896256Y-1933542D01*
X48879889Y-1920110D01*
X48835905Y-1866516D01*
X48785704Y-1810762D01*
X48775157Y-1792494D01*
X48765549Y-1780787D01*
X48730006Y-1714291D01*
X48689538Y-1644198D01*
X48684882Y-1629869D01*
X48680591Y-1621841D01*
X48656923Y-1543821D01*
X48630104Y-1461279D01*
X48629160Y-1452298D01*
X48628269Y-1449361D01*
X48619597Y-1361314D01*
X48610000Y-1270000D01*
X48619596Y-1178692D01*
X48628269Y-1090638D01*
X48629160Y-1087699D01*
X48630104Y-1078721D01*
X48656919Y-996192D01*
X48680591Y-918158D01*
X48684883Y-910127D01*
X48689538Y-895802D01*
X48729999Y-825721D01*
X48765549Y-759212D01*
X48775159Y-747501D01*
X48785704Y-729238D01*
X48835896Y-673493D01*
X48879889Y-619889D01*
X48896259Y-606454D01*
X48914400Y-586307D01*
X48970267Y-545716D01*
X49019212Y-505549D01*
X49043205Y-492724D01*
X49070000Y-473257D01*
X49127633Y-447596D01*
X49178158Y-420591D01*
X49209949Y-410946D01*
X49245704Y-395028D01*
X49301574Y-383152D01*
X49350638Y-368269D01*
X49389691Y-364422D01*
X49433834Y-355040D01*
X49484959Y-355040D01*
X49530000Y-350604D01*
X49575041Y-355040D01*
G37*
G36*
X54655040Y-355040D02*
G01*
X54706166Y-355040D01*
X54750309Y-364422D01*
X54789361Y-368269D01*
X54838421Y-383151D01*
X54894296Y-395028D01*
X54930052Y-410947D01*
X54961841Y-420591D01*
X55012360Y-447593D01*
X55070000Y-473257D01*
X55096796Y-492726D01*
X55120787Y-505549D01*
X55169723Y-545710D01*
X55225600Y-586307D01*
X55243743Y-606457D01*
X55260110Y-619889D01*
X55304092Y-673481D01*
X55354296Y-729238D01*
X55364842Y-747505D01*
X55374450Y-759212D01*
X55409987Y-825697D01*
X55450462Y-895802D01*
X55455118Y-910132D01*
X55459408Y-918158D01*
X55483065Y-996145D01*
X55509896Y-1078721D01*
X55510840Y-1087704D01*
X55511730Y-1090638D01*
X55520388Y-1178549D01*
X55530000Y-1270000D01*
X55520385Y-1361473D01*
X55511730Y-1449361D01*
X55510840Y-1452293D01*
X55509896Y-1461279D01*
X55483061Y-1543868D01*
X55459408Y-1621841D01*
X55455119Y-1629865D01*
X55450462Y-1644198D01*
X55409980Y-1714314D01*
X55374450Y-1780787D01*
X55364844Y-1792490D01*
X55354296Y-1810762D01*
X55304082Y-1866529D01*
X55260110Y-1920110D01*
X55243746Y-1933539D01*
X55225600Y-1953693D01*
X55169712Y-1994297D01*
X55120787Y-2034450D01*
X55096802Y-2047270D01*
X55070000Y-2066743D01*
X55012348Y-2092411D01*
X54961841Y-2119408D01*
X54930059Y-2129048D01*
X54894296Y-2144972D01*
X54838410Y-2156850D01*
X54789361Y-2171730D01*
X54750317Y-2175575D01*
X54706166Y-2184960D01*
X54655030Y-2184960D01*
X54609999Y-2189395D01*
X54564968Y-2184960D01*
X54513834Y-2184960D01*
X54469683Y-2175575D01*
X54430638Y-2171730D01*
X54381585Y-2156849D01*
X54325704Y-2144972D01*
X54289942Y-2129049D01*
X54258158Y-2119408D01*
X54207645Y-2092408D01*
X54150000Y-2066743D01*
X54123200Y-2047272D01*
X54099212Y-2034450D01*
X54050278Y-1994290D01*
X53994400Y-1953693D01*
X53976256Y-1933542D01*
X53959889Y-1920110D01*
X53915905Y-1866516D01*
X53865704Y-1810762D01*
X53855157Y-1792494D01*
X53845549Y-1780787D01*
X53810006Y-1714291D01*
X53769538Y-1644198D01*
X53764882Y-1629869D01*
X53760591Y-1621841D01*
X53736923Y-1543821D01*
X53710104Y-1461279D01*
X53709160Y-1452298D01*
X53708269Y-1449361D01*
X53699598Y-1361321D01*
X53690000Y-1270000D01*
X53699595Y-1178700D01*
X53708269Y-1090638D01*
X53709160Y-1087699D01*
X53710104Y-1078721D01*
X53736919Y-996192D01*
X53760591Y-918158D01*
X53764883Y-910127D01*
X53769538Y-895802D01*
X53809999Y-825721D01*
X53845549Y-759212D01*
X53855159Y-747501D01*
X53865704Y-729238D01*
X53915896Y-673493D01*
X53959889Y-619889D01*
X53976259Y-606454D01*
X53994400Y-586307D01*
X54050267Y-545716D01*
X54099212Y-505549D01*
X54123205Y-492724D01*
X54150000Y-473257D01*
X54207633Y-447596D01*
X54258158Y-420591D01*
X54289949Y-410946D01*
X54325704Y-395028D01*
X54381574Y-383152D01*
X54430638Y-368269D01*
X54469691Y-364422D01*
X54513834Y-355040D01*
X54564958Y-355040D01*
X54609999Y-350604D01*
X54655040Y-355040D01*
G37*
G36*
X57195040Y-355040D02*
G01*
X57246166Y-355040D01*
X57290309Y-364422D01*
X57329361Y-368269D01*
X57378421Y-383151D01*
X57434296Y-395028D01*
X57470052Y-410947D01*
X57501841Y-420591D01*
X57552360Y-447593D01*
X57610000Y-473257D01*
X57636796Y-492726D01*
X57660787Y-505549D01*
X57709723Y-545710D01*
X57765600Y-586307D01*
X57783743Y-606457D01*
X57800110Y-619889D01*
X57844092Y-673481D01*
X57894296Y-729238D01*
X57904842Y-747505D01*
X57914450Y-759212D01*
X57949987Y-825697D01*
X57990462Y-895802D01*
X57995118Y-910132D01*
X57999408Y-918158D01*
X58023065Y-996145D01*
X58049896Y-1078721D01*
X58050840Y-1087704D01*
X58051730Y-1090638D01*
X58060387Y-1178541D01*
X58070000Y-1270000D01*
X58060386Y-1361465D01*
X58051730Y-1449361D01*
X58050840Y-1452293D01*
X58049896Y-1461279D01*
X58023061Y-1543868D01*
X57999408Y-1621841D01*
X57995119Y-1629865D01*
X57990462Y-1644198D01*
X57949980Y-1714314D01*
X57914450Y-1780787D01*
X57904844Y-1792490D01*
X57894296Y-1810762D01*
X57844082Y-1866529D01*
X57800110Y-1920110D01*
X57783746Y-1933539D01*
X57765600Y-1953693D01*
X57709712Y-1994297D01*
X57660787Y-2034450D01*
X57636802Y-2047270D01*
X57610000Y-2066743D01*
X57552348Y-2092411D01*
X57501841Y-2119408D01*
X57470059Y-2129048D01*
X57434296Y-2144972D01*
X57378410Y-2156850D01*
X57329361Y-2171730D01*
X57290317Y-2175575D01*
X57246166Y-2184960D01*
X57195030Y-2184960D01*
X57149999Y-2189395D01*
X57104968Y-2184960D01*
X57053834Y-2184960D01*
X57009683Y-2175575D01*
X56970638Y-2171730D01*
X56921585Y-2156849D01*
X56865704Y-2144972D01*
X56829942Y-2129049D01*
X56798158Y-2119408D01*
X56747645Y-2092408D01*
X56690000Y-2066743D01*
X56663200Y-2047272D01*
X56639212Y-2034450D01*
X56590278Y-1994290D01*
X56534400Y-1953693D01*
X56516256Y-1933542D01*
X56499889Y-1920110D01*
X56455905Y-1866516D01*
X56405704Y-1810762D01*
X56395157Y-1792494D01*
X56385549Y-1780787D01*
X56350006Y-1714291D01*
X56309538Y-1644198D01*
X56304882Y-1629869D01*
X56300591Y-1621841D01*
X56276923Y-1543821D01*
X56250104Y-1461279D01*
X56249160Y-1452298D01*
X56248269Y-1449361D01*
X56239597Y-1361314D01*
X56230000Y-1270000D01*
X56239596Y-1178692D01*
X56248269Y-1090638D01*
X56249160Y-1087699D01*
X56250104Y-1078721D01*
X56276919Y-996192D01*
X56300591Y-918158D01*
X56304883Y-910127D01*
X56309538Y-895802D01*
X56349999Y-825721D01*
X56385549Y-759212D01*
X56395159Y-747501D01*
X56405704Y-729238D01*
X56455896Y-673493D01*
X56499889Y-619889D01*
X56516259Y-606454D01*
X56534400Y-586307D01*
X56590267Y-545716D01*
X56639212Y-505549D01*
X56663205Y-492724D01*
X56690000Y-473257D01*
X56747633Y-447596D01*
X56798158Y-420591D01*
X56829949Y-410946D01*
X56865704Y-395028D01*
X56921574Y-383152D01*
X56970638Y-368269D01*
X57009691Y-364422D01*
X57053834Y-355040D01*
X57104958Y-355040D01*
X57149999Y-350604D01*
X57195040Y-355040D01*
G37*
G36*
X59735040Y-355040D02*
G01*
X59786166Y-355040D01*
X59830309Y-364422D01*
X59869361Y-368269D01*
X59918421Y-383151D01*
X59974296Y-395028D01*
X60010052Y-410947D01*
X60041841Y-420591D01*
X60092360Y-447593D01*
X60150000Y-473257D01*
X60176796Y-492726D01*
X60200787Y-505549D01*
X60249723Y-545710D01*
X60305600Y-586307D01*
X60323743Y-606457D01*
X60340110Y-619889D01*
X60384092Y-673481D01*
X60434296Y-729238D01*
X60444842Y-747505D01*
X60454450Y-759212D01*
X60489987Y-825697D01*
X60530462Y-895802D01*
X60535118Y-910132D01*
X60539408Y-918158D01*
X60563065Y-996145D01*
X60589896Y-1078721D01*
X60590840Y-1087704D01*
X60591730Y-1090638D01*
X60600387Y-1178541D01*
X60610000Y-1270000D01*
X60600386Y-1361465D01*
X60591730Y-1449361D01*
X60590840Y-1452293D01*
X60589896Y-1461279D01*
X60563061Y-1543868D01*
X60539408Y-1621841D01*
X60535119Y-1629865D01*
X60530462Y-1644198D01*
X60489980Y-1714314D01*
X60454450Y-1780787D01*
X60444844Y-1792490D01*
X60434296Y-1810762D01*
X60384082Y-1866529D01*
X60340110Y-1920110D01*
X60323746Y-1933539D01*
X60305600Y-1953693D01*
X60249712Y-1994297D01*
X60200787Y-2034450D01*
X60176802Y-2047270D01*
X60150000Y-2066743D01*
X60092348Y-2092411D01*
X60041841Y-2119408D01*
X60010059Y-2129048D01*
X59974296Y-2144972D01*
X59918410Y-2156850D01*
X59869361Y-2171730D01*
X59830317Y-2175575D01*
X59786166Y-2184960D01*
X59735030Y-2184960D01*
X59689999Y-2189395D01*
X59644968Y-2184960D01*
X59593834Y-2184960D01*
X59549683Y-2175575D01*
X59510638Y-2171730D01*
X59461585Y-2156849D01*
X59405704Y-2144972D01*
X59369942Y-2129049D01*
X59338158Y-2119408D01*
X59287645Y-2092408D01*
X59230000Y-2066743D01*
X59203200Y-2047272D01*
X59179212Y-2034450D01*
X59130278Y-1994290D01*
X59074400Y-1953693D01*
X59056256Y-1933542D01*
X59039889Y-1920110D01*
X58995905Y-1866516D01*
X58945704Y-1810762D01*
X58935157Y-1792494D01*
X58925549Y-1780787D01*
X58890006Y-1714291D01*
X58849538Y-1644198D01*
X58844882Y-1629869D01*
X58840591Y-1621841D01*
X58816923Y-1543821D01*
X58790104Y-1461279D01*
X58789160Y-1452298D01*
X58788269Y-1449361D01*
X58779597Y-1361314D01*
X58770000Y-1270000D01*
X58779596Y-1178692D01*
X58788269Y-1090638D01*
X58789160Y-1087699D01*
X58790104Y-1078721D01*
X58816919Y-996192D01*
X58840591Y-918158D01*
X58844883Y-910127D01*
X58849538Y-895802D01*
X58889999Y-825721D01*
X58925549Y-759212D01*
X58935159Y-747501D01*
X58945704Y-729238D01*
X58995896Y-673493D01*
X59039889Y-619889D01*
X59056259Y-606454D01*
X59074400Y-586307D01*
X59130267Y-545716D01*
X59179212Y-505549D01*
X59203205Y-492724D01*
X59230000Y-473257D01*
X59287633Y-447596D01*
X59338158Y-420591D01*
X59369949Y-410946D01*
X59405704Y-395028D01*
X59461574Y-383152D01*
X59510638Y-368269D01*
X59549691Y-364422D01*
X59593834Y-355040D01*
X59644958Y-355040D01*
X59689999Y-350604D01*
X59735040Y-355040D01*
G37*
G36*
X62275041Y-355040D02*
G01*
X62326166Y-355040D01*
X62370309Y-364422D01*
X62409361Y-368269D01*
X62458421Y-383151D01*
X62514296Y-395028D01*
X62550052Y-410947D01*
X62581841Y-420591D01*
X62632360Y-447593D01*
X62690000Y-473257D01*
X62716796Y-492726D01*
X62740787Y-505549D01*
X62789723Y-545710D01*
X62845600Y-586307D01*
X62863743Y-606457D01*
X62880110Y-619889D01*
X62924092Y-673481D01*
X62974296Y-729238D01*
X62984842Y-747505D01*
X62994450Y-759212D01*
X63029987Y-825697D01*
X63070462Y-895802D01*
X63075118Y-910132D01*
X63079408Y-918158D01*
X63103065Y-996145D01*
X63129896Y-1078721D01*
X63130840Y-1087704D01*
X63131730Y-1090638D01*
X63140387Y-1178541D01*
X63150000Y-1270000D01*
X63140386Y-1361465D01*
X63131730Y-1449361D01*
X63130840Y-1452293D01*
X63129896Y-1461279D01*
X63103061Y-1543868D01*
X63079408Y-1621841D01*
X63075119Y-1629865D01*
X63070462Y-1644198D01*
X63029980Y-1714314D01*
X62994450Y-1780787D01*
X62984844Y-1792490D01*
X62974296Y-1810762D01*
X62924082Y-1866529D01*
X62880110Y-1920110D01*
X62863746Y-1933539D01*
X62845600Y-1953693D01*
X62789712Y-1994297D01*
X62740787Y-2034450D01*
X62716802Y-2047270D01*
X62690000Y-2066743D01*
X62632348Y-2092411D01*
X62581841Y-2119408D01*
X62550059Y-2129048D01*
X62514296Y-2144972D01*
X62458410Y-2156850D01*
X62409361Y-2171730D01*
X62370317Y-2175575D01*
X62326166Y-2184960D01*
X62275031Y-2184960D01*
X62230000Y-2189395D01*
X62184969Y-2184960D01*
X62133834Y-2184960D01*
X62089682Y-2175575D01*
X62050638Y-2171730D01*
X62001585Y-2156849D01*
X61945704Y-2144972D01*
X61909942Y-2129049D01*
X61878158Y-2119408D01*
X61827645Y-2092408D01*
X61770000Y-2066743D01*
X61743200Y-2047272D01*
X61719212Y-2034450D01*
X61670278Y-1994290D01*
X61614400Y-1953693D01*
X61596256Y-1933542D01*
X61579889Y-1920110D01*
X61535905Y-1866516D01*
X61485704Y-1810762D01*
X61475157Y-1792494D01*
X61465549Y-1780787D01*
X61430006Y-1714291D01*
X61389538Y-1644198D01*
X61384882Y-1629869D01*
X61380591Y-1621841D01*
X61356923Y-1543821D01*
X61330104Y-1461279D01*
X61329160Y-1452298D01*
X61328269Y-1449361D01*
X61319597Y-1361314D01*
X61310000Y-1270000D01*
X61319596Y-1178692D01*
X61328269Y-1090638D01*
X61329160Y-1087699D01*
X61330104Y-1078721D01*
X61356919Y-996192D01*
X61380591Y-918158D01*
X61384883Y-910127D01*
X61389538Y-895802D01*
X61429999Y-825721D01*
X61465549Y-759212D01*
X61475159Y-747501D01*
X61485704Y-729238D01*
X61535896Y-673493D01*
X61579889Y-619889D01*
X61596259Y-606454D01*
X61614400Y-586307D01*
X61670267Y-545716D01*
X61719212Y-505549D01*
X61743205Y-492724D01*
X61770000Y-473257D01*
X61827633Y-447596D01*
X61878158Y-420591D01*
X61909949Y-410946D01*
X61945704Y-395028D01*
X62001574Y-383152D01*
X62050638Y-368269D01*
X62089691Y-364422D01*
X62133834Y-355040D01*
X62184959Y-355040D01*
X62230000Y-350604D01*
X62275041Y-355040D01*
G37*
G36*
X67355040Y-355040D02*
G01*
X67406166Y-355040D01*
X67450309Y-364422D01*
X67489361Y-368269D01*
X67538421Y-383151D01*
X67594296Y-395028D01*
X67630052Y-410947D01*
X67661841Y-420591D01*
X67712360Y-447593D01*
X67770000Y-473257D01*
X67796796Y-492726D01*
X67820787Y-505549D01*
X67869723Y-545710D01*
X67925600Y-586307D01*
X67943743Y-606457D01*
X67960110Y-619889D01*
X68004092Y-673481D01*
X68054296Y-729238D01*
X68064842Y-747505D01*
X68074450Y-759212D01*
X68109987Y-825697D01*
X68150462Y-895802D01*
X68155118Y-910132D01*
X68159408Y-918158D01*
X68183065Y-996145D01*
X68209896Y-1078721D01*
X68210840Y-1087704D01*
X68211730Y-1090638D01*
X68220388Y-1178549D01*
X68230000Y-1270000D01*
X68220385Y-1361473D01*
X68211730Y-1449361D01*
X68210840Y-1452293D01*
X68209896Y-1461279D01*
X68183061Y-1543868D01*
X68159408Y-1621841D01*
X68155119Y-1629865D01*
X68150462Y-1644198D01*
X68109980Y-1714314D01*
X68074450Y-1780787D01*
X68064844Y-1792490D01*
X68054296Y-1810762D01*
X68004082Y-1866529D01*
X67960110Y-1920110D01*
X67943746Y-1933539D01*
X67925600Y-1953693D01*
X67869712Y-1994297D01*
X67820787Y-2034450D01*
X67796802Y-2047270D01*
X67770000Y-2066743D01*
X67712348Y-2092411D01*
X67661841Y-2119408D01*
X67630059Y-2129048D01*
X67594296Y-2144972D01*
X67538410Y-2156850D01*
X67489361Y-2171730D01*
X67450317Y-2175575D01*
X67406166Y-2184960D01*
X67355030Y-2184960D01*
X67309999Y-2189395D01*
X67264968Y-2184960D01*
X67213834Y-2184960D01*
X67169683Y-2175575D01*
X67130638Y-2171730D01*
X67081585Y-2156849D01*
X67025704Y-2144972D01*
X66989942Y-2129049D01*
X66958158Y-2119408D01*
X66907645Y-2092408D01*
X66850000Y-2066743D01*
X66823200Y-2047272D01*
X66799212Y-2034450D01*
X66750278Y-1994290D01*
X66694400Y-1953693D01*
X66676256Y-1933542D01*
X66659889Y-1920110D01*
X66615905Y-1866516D01*
X66565704Y-1810762D01*
X66555157Y-1792494D01*
X66545549Y-1780787D01*
X66510006Y-1714291D01*
X66469538Y-1644198D01*
X66464882Y-1629869D01*
X66460591Y-1621841D01*
X66436923Y-1543821D01*
X66410104Y-1461279D01*
X66409160Y-1452298D01*
X66408269Y-1449361D01*
X66399598Y-1361321D01*
X66390000Y-1270000D01*
X66399595Y-1178700D01*
X66408269Y-1090638D01*
X66409160Y-1087699D01*
X66410104Y-1078721D01*
X66436919Y-996192D01*
X66460591Y-918158D01*
X66464883Y-910127D01*
X66469538Y-895802D01*
X66509999Y-825721D01*
X66545549Y-759212D01*
X66555159Y-747501D01*
X66565704Y-729238D01*
X66615896Y-673493D01*
X66659889Y-619889D01*
X66676259Y-606454D01*
X66694400Y-586307D01*
X66750267Y-545716D01*
X66799212Y-505549D01*
X66823205Y-492724D01*
X66850000Y-473257D01*
X66907633Y-447596D01*
X66958158Y-420591D01*
X66989949Y-410946D01*
X67025704Y-395028D01*
X67081574Y-383152D01*
X67130638Y-368269D01*
X67169691Y-364422D01*
X67213834Y-355040D01*
X67264958Y-355040D01*
X67309999Y-350604D01*
X67355040Y-355040D01*
G37*
G36*
X69895041Y-355040D02*
G01*
X69946166Y-355040D01*
X69990309Y-364422D01*
X70029361Y-368269D01*
X70078421Y-383151D01*
X70134296Y-395028D01*
X70170052Y-410947D01*
X70201841Y-420591D01*
X70252360Y-447593D01*
X70310000Y-473257D01*
X70336796Y-492726D01*
X70360787Y-505549D01*
X70409723Y-545710D01*
X70465600Y-586307D01*
X70483743Y-606457D01*
X70500110Y-619889D01*
X70544092Y-673481D01*
X70594296Y-729238D01*
X70604842Y-747505D01*
X70614450Y-759212D01*
X70649987Y-825697D01*
X70690462Y-895802D01*
X70695118Y-910132D01*
X70699408Y-918158D01*
X70723065Y-996145D01*
X70749896Y-1078721D01*
X70750840Y-1087704D01*
X70751730Y-1090638D01*
X70760387Y-1178541D01*
X70770000Y-1270000D01*
X70760386Y-1361465D01*
X70751730Y-1449361D01*
X70750840Y-1452293D01*
X70749896Y-1461279D01*
X70723061Y-1543868D01*
X70699408Y-1621841D01*
X70695119Y-1629865D01*
X70690462Y-1644198D01*
X70649980Y-1714314D01*
X70614450Y-1780787D01*
X70604844Y-1792490D01*
X70594296Y-1810762D01*
X70544082Y-1866529D01*
X70500110Y-1920110D01*
X70483746Y-1933539D01*
X70465600Y-1953693D01*
X70409712Y-1994297D01*
X70360787Y-2034450D01*
X70336802Y-2047270D01*
X70310000Y-2066743D01*
X70252348Y-2092411D01*
X70201841Y-2119408D01*
X70170059Y-2129048D01*
X70134296Y-2144972D01*
X70078410Y-2156850D01*
X70029361Y-2171730D01*
X69990317Y-2175575D01*
X69946166Y-2184960D01*
X69895031Y-2184960D01*
X69850000Y-2189395D01*
X69804969Y-2184960D01*
X69753834Y-2184960D01*
X69709682Y-2175575D01*
X69670638Y-2171730D01*
X69621585Y-2156849D01*
X69565704Y-2144972D01*
X69529942Y-2129049D01*
X69498158Y-2119408D01*
X69447645Y-2092408D01*
X69390000Y-2066743D01*
X69363200Y-2047272D01*
X69339212Y-2034450D01*
X69290278Y-1994290D01*
X69234400Y-1953693D01*
X69216256Y-1933542D01*
X69199889Y-1920110D01*
X69155905Y-1866516D01*
X69105704Y-1810762D01*
X69095157Y-1792494D01*
X69085549Y-1780787D01*
X69050006Y-1714291D01*
X69009538Y-1644198D01*
X69004882Y-1629869D01*
X69000591Y-1621841D01*
X68976923Y-1543821D01*
X68950104Y-1461279D01*
X68949160Y-1452298D01*
X68948269Y-1449361D01*
X68939597Y-1361314D01*
X68930000Y-1270000D01*
X68939596Y-1178692D01*
X68948269Y-1090638D01*
X68949160Y-1087699D01*
X68950104Y-1078721D01*
X68976919Y-996192D01*
X69000591Y-918158D01*
X69004883Y-910127D01*
X69009538Y-895802D01*
X69049999Y-825721D01*
X69085549Y-759212D01*
X69095159Y-747501D01*
X69105704Y-729238D01*
X69155896Y-673493D01*
X69199889Y-619889D01*
X69216259Y-606454D01*
X69234400Y-586307D01*
X69290267Y-545716D01*
X69339212Y-505549D01*
X69363205Y-492724D01*
X69390000Y-473257D01*
X69447633Y-447596D01*
X69498158Y-420591D01*
X69529949Y-410946D01*
X69565704Y-395028D01*
X69621574Y-383152D01*
X69670638Y-368269D01*
X69709691Y-364422D01*
X69753834Y-355040D01*
X69804959Y-355040D01*
X69850000Y-350604D01*
X69895041Y-355040D01*
G37*
G36*
X72435041Y-355040D02*
G01*
X72486166Y-355040D01*
X72530309Y-364422D01*
X72569361Y-368269D01*
X72618421Y-383151D01*
X72674296Y-395028D01*
X72710052Y-410947D01*
X72741841Y-420591D01*
X72792360Y-447593D01*
X72850000Y-473257D01*
X72876796Y-492726D01*
X72900787Y-505549D01*
X72949723Y-545710D01*
X73005600Y-586307D01*
X73023743Y-606457D01*
X73040110Y-619889D01*
X73084092Y-673481D01*
X73134296Y-729238D01*
X73144842Y-747505D01*
X73154450Y-759212D01*
X73189987Y-825697D01*
X73230462Y-895802D01*
X73235118Y-910132D01*
X73239408Y-918158D01*
X73263065Y-996145D01*
X73289896Y-1078721D01*
X73290840Y-1087704D01*
X73291730Y-1090638D01*
X73300387Y-1178541D01*
X73310000Y-1270000D01*
X73300386Y-1361465D01*
X73291730Y-1449361D01*
X73290840Y-1452293D01*
X73289896Y-1461279D01*
X73263061Y-1543868D01*
X73239408Y-1621841D01*
X73235119Y-1629865D01*
X73230462Y-1644198D01*
X73189980Y-1714314D01*
X73154450Y-1780787D01*
X73144844Y-1792490D01*
X73134296Y-1810762D01*
X73084082Y-1866529D01*
X73040110Y-1920110D01*
X73023746Y-1933539D01*
X73005600Y-1953693D01*
X72949712Y-1994297D01*
X72900787Y-2034450D01*
X72876802Y-2047270D01*
X72850000Y-2066743D01*
X72792348Y-2092411D01*
X72741841Y-2119408D01*
X72710059Y-2129048D01*
X72674296Y-2144972D01*
X72618410Y-2156850D01*
X72569361Y-2171730D01*
X72530317Y-2175575D01*
X72486166Y-2184960D01*
X72435031Y-2184960D01*
X72390000Y-2189395D01*
X72344969Y-2184960D01*
X72293834Y-2184960D01*
X72249682Y-2175575D01*
X72210638Y-2171730D01*
X72161585Y-2156849D01*
X72105704Y-2144972D01*
X72069942Y-2129049D01*
X72038158Y-2119408D01*
X71987645Y-2092408D01*
X71930000Y-2066743D01*
X71903200Y-2047272D01*
X71879212Y-2034450D01*
X71830278Y-1994290D01*
X71774400Y-1953693D01*
X71756256Y-1933542D01*
X71739889Y-1920110D01*
X71695905Y-1866516D01*
X71645704Y-1810762D01*
X71635157Y-1792494D01*
X71625549Y-1780787D01*
X71590006Y-1714291D01*
X71549538Y-1644198D01*
X71544882Y-1629869D01*
X71540591Y-1621841D01*
X71516923Y-1543821D01*
X71490104Y-1461279D01*
X71489160Y-1452298D01*
X71488269Y-1449361D01*
X71479597Y-1361314D01*
X71470000Y-1270000D01*
X71479596Y-1178692D01*
X71488269Y-1090638D01*
X71489160Y-1087699D01*
X71490104Y-1078721D01*
X71516919Y-996192D01*
X71540591Y-918158D01*
X71544883Y-910127D01*
X71549538Y-895802D01*
X71589999Y-825721D01*
X71625549Y-759212D01*
X71635159Y-747501D01*
X71645704Y-729238D01*
X71695896Y-673493D01*
X71739889Y-619889D01*
X71756259Y-606454D01*
X71774400Y-586307D01*
X71830267Y-545716D01*
X71879212Y-505549D01*
X71903205Y-492724D01*
X71930000Y-473257D01*
X71987633Y-447596D01*
X72038158Y-420591D01*
X72069949Y-410946D01*
X72105704Y-395028D01*
X72161574Y-383152D01*
X72210638Y-368269D01*
X72249691Y-364422D01*
X72293834Y-355040D01*
X72344959Y-355040D01*
X72390000Y-350604D01*
X72435041Y-355040D01*
G37*
G36*
X74975041Y-355040D02*
G01*
X75026166Y-355040D01*
X75070309Y-364422D01*
X75109361Y-368269D01*
X75158421Y-383151D01*
X75214296Y-395028D01*
X75250052Y-410947D01*
X75281841Y-420591D01*
X75332360Y-447593D01*
X75390000Y-473257D01*
X75416796Y-492726D01*
X75440787Y-505549D01*
X75489723Y-545710D01*
X75545600Y-586307D01*
X75563743Y-606457D01*
X75580110Y-619889D01*
X75624092Y-673481D01*
X75674296Y-729238D01*
X75684842Y-747505D01*
X75694450Y-759212D01*
X75729987Y-825697D01*
X75770462Y-895802D01*
X75775118Y-910132D01*
X75779408Y-918158D01*
X75803065Y-996145D01*
X75829896Y-1078721D01*
X75830840Y-1087704D01*
X75831730Y-1090638D01*
X75840387Y-1178541D01*
X75850000Y-1270000D01*
X75840386Y-1361465D01*
X75831730Y-1449361D01*
X75830840Y-1452293D01*
X75829896Y-1461279D01*
X75803061Y-1543868D01*
X75779408Y-1621841D01*
X75775119Y-1629865D01*
X75770462Y-1644198D01*
X75729980Y-1714314D01*
X75694450Y-1780787D01*
X75684844Y-1792490D01*
X75674296Y-1810762D01*
X75624082Y-1866529D01*
X75580110Y-1920110D01*
X75563746Y-1933539D01*
X75545600Y-1953693D01*
X75489712Y-1994297D01*
X75440787Y-2034450D01*
X75416802Y-2047270D01*
X75390000Y-2066743D01*
X75332348Y-2092411D01*
X75281841Y-2119408D01*
X75250059Y-2129048D01*
X75214296Y-2144972D01*
X75158410Y-2156850D01*
X75109361Y-2171730D01*
X75070317Y-2175575D01*
X75026166Y-2184960D01*
X74975031Y-2184960D01*
X74930000Y-2189395D01*
X74884969Y-2184960D01*
X74833834Y-2184960D01*
X74789682Y-2175575D01*
X74750638Y-2171730D01*
X74701585Y-2156849D01*
X74645704Y-2144972D01*
X74609942Y-2129049D01*
X74578158Y-2119408D01*
X74527645Y-2092408D01*
X74470000Y-2066743D01*
X74443200Y-2047272D01*
X74419212Y-2034450D01*
X74370278Y-1994290D01*
X74314400Y-1953693D01*
X74296256Y-1933542D01*
X74279889Y-1920110D01*
X74235905Y-1866516D01*
X74185704Y-1810762D01*
X74175157Y-1792494D01*
X74165549Y-1780787D01*
X74130006Y-1714291D01*
X74089538Y-1644198D01*
X74084882Y-1629869D01*
X74080591Y-1621841D01*
X74056923Y-1543821D01*
X74030104Y-1461279D01*
X74029160Y-1452298D01*
X74028269Y-1449361D01*
X74019597Y-1361314D01*
X74010000Y-1270000D01*
X74019596Y-1178692D01*
X74028269Y-1090638D01*
X74029160Y-1087699D01*
X74030104Y-1078721D01*
X74056919Y-996192D01*
X74080591Y-918158D01*
X74084883Y-910127D01*
X74089538Y-895802D01*
X74129999Y-825721D01*
X74165549Y-759212D01*
X74175159Y-747501D01*
X74185704Y-729238D01*
X74235896Y-673493D01*
X74279889Y-619889D01*
X74296259Y-606454D01*
X74314400Y-586307D01*
X74370267Y-545716D01*
X74419212Y-505549D01*
X74443205Y-492724D01*
X74470000Y-473257D01*
X74527633Y-447596D01*
X74578158Y-420591D01*
X74609949Y-410946D01*
X74645704Y-395028D01*
X74701574Y-383152D01*
X74750638Y-368269D01*
X74789691Y-364422D01*
X74833834Y-355040D01*
X74884959Y-355040D01*
X74930000Y-350604D01*
X74975041Y-355040D01*
G37*
G36*
X80055040Y-355040D02*
G01*
X80106166Y-355040D01*
X80150309Y-364422D01*
X80189361Y-368269D01*
X80238421Y-383151D01*
X80294296Y-395028D01*
X80330052Y-410947D01*
X80361841Y-420591D01*
X80412360Y-447593D01*
X80470000Y-473257D01*
X80496796Y-492726D01*
X80520787Y-505549D01*
X80569723Y-545710D01*
X80625600Y-586307D01*
X80643743Y-606457D01*
X80660110Y-619889D01*
X80704092Y-673481D01*
X80754296Y-729238D01*
X80764842Y-747505D01*
X80774450Y-759212D01*
X80809987Y-825697D01*
X80850462Y-895802D01*
X80855118Y-910132D01*
X80859408Y-918158D01*
X80883065Y-996145D01*
X80909896Y-1078721D01*
X80910840Y-1087704D01*
X80911730Y-1090638D01*
X80920388Y-1178549D01*
X80930000Y-1270000D01*
X80920385Y-1361473D01*
X80911730Y-1449361D01*
X80910840Y-1452293D01*
X80909896Y-1461279D01*
X80883061Y-1543868D01*
X80859408Y-1621841D01*
X80855119Y-1629865D01*
X80850462Y-1644198D01*
X80809980Y-1714314D01*
X80774450Y-1780787D01*
X80764844Y-1792490D01*
X80754296Y-1810762D01*
X80704082Y-1866529D01*
X80660110Y-1920110D01*
X80643746Y-1933539D01*
X80625600Y-1953693D01*
X80569712Y-1994297D01*
X80520787Y-2034450D01*
X80496802Y-2047270D01*
X80470000Y-2066743D01*
X80412348Y-2092411D01*
X80361841Y-2119408D01*
X80330059Y-2129048D01*
X80294296Y-2144972D01*
X80238410Y-2156850D01*
X80189361Y-2171730D01*
X80150317Y-2175575D01*
X80106166Y-2184960D01*
X80055031Y-2184960D01*
X80010000Y-2189395D01*
X79964969Y-2184960D01*
X79913834Y-2184960D01*
X79869682Y-2175575D01*
X79830638Y-2171730D01*
X79781585Y-2156849D01*
X79725704Y-2144972D01*
X79689942Y-2129049D01*
X79658158Y-2119408D01*
X79607645Y-2092408D01*
X79550000Y-2066743D01*
X79523200Y-2047272D01*
X79499212Y-2034450D01*
X79450278Y-1994290D01*
X79394400Y-1953693D01*
X79376256Y-1933542D01*
X79359889Y-1920110D01*
X79315905Y-1866516D01*
X79265704Y-1810762D01*
X79255157Y-1792494D01*
X79245549Y-1780787D01*
X79210006Y-1714291D01*
X79169538Y-1644198D01*
X79164882Y-1629869D01*
X79160591Y-1621841D01*
X79136923Y-1543821D01*
X79110104Y-1461279D01*
X79109160Y-1452298D01*
X79108269Y-1449361D01*
X79099598Y-1361321D01*
X79090000Y-1270000D01*
X79099595Y-1178700D01*
X79108269Y-1090638D01*
X79109160Y-1087699D01*
X79110104Y-1078721D01*
X79136919Y-996192D01*
X79160591Y-918158D01*
X79164883Y-910127D01*
X79169538Y-895802D01*
X79209999Y-825721D01*
X79245549Y-759212D01*
X79255159Y-747501D01*
X79265704Y-729238D01*
X79315896Y-673493D01*
X79359889Y-619889D01*
X79376259Y-606454D01*
X79394400Y-586307D01*
X79450267Y-545716D01*
X79499212Y-505549D01*
X79523205Y-492724D01*
X79550000Y-473257D01*
X79607633Y-447596D01*
X79658158Y-420591D01*
X79689949Y-410946D01*
X79725704Y-395028D01*
X79781574Y-383152D01*
X79830638Y-368269D01*
X79869691Y-364422D01*
X79913834Y-355040D01*
X79964958Y-355040D01*
X80009999Y-350604D01*
X80055040Y-355040D01*
G37*
G36*
X82595040Y-355040D02*
G01*
X82646166Y-355040D01*
X82690309Y-364422D01*
X82729361Y-368269D01*
X82778421Y-383151D01*
X82834296Y-395028D01*
X82870052Y-410947D01*
X82901841Y-420591D01*
X82952360Y-447593D01*
X83010000Y-473257D01*
X83036796Y-492726D01*
X83060787Y-505549D01*
X83109723Y-545710D01*
X83165600Y-586307D01*
X83183743Y-606457D01*
X83200110Y-619889D01*
X83244092Y-673481D01*
X83294296Y-729238D01*
X83304842Y-747505D01*
X83314450Y-759212D01*
X83349987Y-825697D01*
X83390462Y-895802D01*
X83395118Y-910132D01*
X83399408Y-918158D01*
X83423065Y-996145D01*
X83449896Y-1078721D01*
X83450840Y-1087704D01*
X83451730Y-1090638D01*
X83460388Y-1178549D01*
X83470000Y-1270000D01*
X83460385Y-1361473D01*
X83451730Y-1449361D01*
X83450840Y-1452293D01*
X83449896Y-1461279D01*
X83423061Y-1543868D01*
X83399408Y-1621841D01*
X83395119Y-1629865D01*
X83390462Y-1644198D01*
X83349980Y-1714314D01*
X83314450Y-1780787D01*
X83304844Y-1792490D01*
X83294296Y-1810762D01*
X83244082Y-1866529D01*
X83200110Y-1920110D01*
X83183746Y-1933539D01*
X83165600Y-1953693D01*
X83109712Y-1994297D01*
X83060787Y-2034450D01*
X83036802Y-2047270D01*
X83010000Y-2066743D01*
X82952348Y-2092411D01*
X82901841Y-2119408D01*
X82870059Y-2129048D01*
X82834296Y-2144972D01*
X82778410Y-2156850D01*
X82729361Y-2171730D01*
X82690317Y-2175575D01*
X82646166Y-2184960D01*
X82595030Y-2184960D01*
X82549999Y-2189395D01*
X82504968Y-2184960D01*
X82453834Y-2184960D01*
X82409683Y-2175575D01*
X82370638Y-2171730D01*
X82321585Y-2156849D01*
X82265704Y-2144972D01*
X82229942Y-2129049D01*
X82198158Y-2119408D01*
X82147645Y-2092408D01*
X82090000Y-2066743D01*
X82063200Y-2047272D01*
X82039212Y-2034450D01*
X81990278Y-1994290D01*
X81934400Y-1953693D01*
X81916256Y-1933542D01*
X81899889Y-1920110D01*
X81855905Y-1866516D01*
X81805704Y-1810762D01*
X81795157Y-1792494D01*
X81785549Y-1780787D01*
X81750006Y-1714291D01*
X81709538Y-1644198D01*
X81704882Y-1629869D01*
X81700591Y-1621841D01*
X81676923Y-1543821D01*
X81650104Y-1461279D01*
X81649160Y-1452298D01*
X81648269Y-1449361D01*
X81639597Y-1361314D01*
X81630000Y-1270000D01*
X81639596Y-1178692D01*
X81648269Y-1090638D01*
X81649160Y-1087699D01*
X81650104Y-1078721D01*
X81676919Y-996192D01*
X81700591Y-918158D01*
X81704883Y-910127D01*
X81709538Y-895802D01*
X81749999Y-825721D01*
X81785549Y-759212D01*
X81795159Y-747501D01*
X81805704Y-729238D01*
X81855896Y-673493D01*
X81899889Y-619889D01*
X81916259Y-606454D01*
X81934400Y-586307D01*
X81990267Y-545716D01*
X82039212Y-505549D01*
X82063205Y-492724D01*
X82090000Y-473257D01*
X82147633Y-447596D01*
X82198158Y-420591D01*
X82229949Y-410946D01*
X82265704Y-395028D01*
X82321574Y-383152D01*
X82370638Y-368269D01*
X82409691Y-364422D01*
X82453834Y-355040D01*
X82504958Y-355040D01*
X82549999Y-350604D01*
X82595040Y-355040D01*
G37*
G36*
X85135040Y-355040D02*
G01*
X85186166Y-355040D01*
X85230309Y-364422D01*
X85269361Y-368269D01*
X85318421Y-383151D01*
X85374296Y-395028D01*
X85410052Y-410947D01*
X85441841Y-420591D01*
X85492360Y-447593D01*
X85550000Y-473257D01*
X85576796Y-492726D01*
X85600787Y-505549D01*
X85649723Y-545710D01*
X85705600Y-586307D01*
X85723743Y-606457D01*
X85740110Y-619889D01*
X85784092Y-673481D01*
X85834296Y-729238D01*
X85844842Y-747505D01*
X85854450Y-759212D01*
X85889987Y-825697D01*
X85930462Y-895802D01*
X85935118Y-910132D01*
X85939408Y-918158D01*
X85963065Y-996145D01*
X85989896Y-1078721D01*
X85990840Y-1087704D01*
X85991730Y-1090638D01*
X86000388Y-1178549D01*
X86010000Y-1270000D01*
X86000385Y-1361473D01*
X85991730Y-1449361D01*
X85990840Y-1452293D01*
X85989896Y-1461279D01*
X85963061Y-1543868D01*
X85939408Y-1621841D01*
X85935119Y-1629865D01*
X85930462Y-1644198D01*
X85889980Y-1714314D01*
X85854450Y-1780787D01*
X85844844Y-1792490D01*
X85834296Y-1810762D01*
X85784082Y-1866529D01*
X85740110Y-1920110D01*
X85723746Y-1933539D01*
X85705600Y-1953693D01*
X85649712Y-1994297D01*
X85600787Y-2034450D01*
X85576802Y-2047270D01*
X85550000Y-2066743D01*
X85492348Y-2092411D01*
X85441841Y-2119408D01*
X85410059Y-2129048D01*
X85374296Y-2144972D01*
X85318410Y-2156850D01*
X85269361Y-2171730D01*
X85230317Y-2175575D01*
X85186166Y-2184960D01*
X85135030Y-2184960D01*
X85089999Y-2189395D01*
X85044968Y-2184960D01*
X84993834Y-2184960D01*
X84949683Y-2175575D01*
X84910638Y-2171730D01*
X84861585Y-2156849D01*
X84805704Y-2144972D01*
X84769942Y-2129049D01*
X84738158Y-2119408D01*
X84687645Y-2092408D01*
X84630000Y-2066743D01*
X84603200Y-2047272D01*
X84579212Y-2034450D01*
X84530278Y-1994290D01*
X84474400Y-1953693D01*
X84456256Y-1933542D01*
X84439889Y-1920110D01*
X84395905Y-1866516D01*
X84345704Y-1810762D01*
X84335157Y-1792494D01*
X84325549Y-1780787D01*
X84290006Y-1714291D01*
X84249538Y-1644198D01*
X84244882Y-1629869D01*
X84240591Y-1621841D01*
X84216923Y-1543821D01*
X84190104Y-1461279D01*
X84189160Y-1452298D01*
X84188269Y-1449361D01*
X84179597Y-1361314D01*
X84170000Y-1270000D01*
X84179596Y-1178692D01*
X84188269Y-1090638D01*
X84189160Y-1087699D01*
X84190104Y-1078721D01*
X84216919Y-996192D01*
X84240591Y-918158D01*
X84244883Y-910127D01*
X84249538Y-895802D01*
X84289999Y-825721D01*
X84325549Y-759212D01*
X84335159Y-747501D01*
X84345704Y-729238D01*
X84395896Y-673493D01*
X84439889Y-619889D01*
X84456259Y-606454D01*
X84474400Y-586307D01*
X84530267Y-545716D01*
X84579212Y-505549D01*
X84603205Y-492724D01*
X84630000Y-473257D01*
X84687633Y-447596D01*
X84738158Y-420591D01*
X84769949Y-410946D01*
X84805704Y-395028D01*
X84861574Y-383152D01*
X84910638Y-368269D01*
X84949691Y-364422D01*
X84993834Y-355040D01*
X85044958Y-355040D01*
X85089999Y-350604D01*
X85135040Y-355040D01*
G37*
G36*
X87675040Y-355040D02*
G01*
X87726166Y-355040D01*
X87770309Y-364422D01*
X87809361Y-368269D01*
X87858421Y-383151D01*
X87914296Y-395028D01*
X87950052Y-410947D01*
X87981841Y-420591D01*
X88032360Y-447593D01*
X88090000Y-473257D01*
X88116796Y-492726D01*
X88140787Y-505549D01*
X88189723Y-545710D01*
X88245600Y-586307D01*
X88263743Y-606457D01*
X88280110Y-619889D01*
X88324092Y-673481D01*
X88374296Y-729238D01*
X88384842Y-747505D01*
X88394450Y-759212D01*
X88429987Y-825697D01*
X88470462Y-895802D01*
X88475118Y-910132D01*
X88479408Y-918158D01*
X88503065Y-996145D01*
X88529896Y-1078721D01*
X88530840Y-1087704D01*
X88531730Y-1090638D01*
X88540387Y-1178541D01*
X88550000Y-1270000D01*
X88540386Y-1361465D01*
X88531730Y-1449361D01*
X88530840Y-1452293D01*
X88529896Y-1461279D01*
X88503061Y-1543868D01*
X88479408Y-1621841D01*
X88475119Y-1629865D01*
X88470462Y-1644198D01*
X88429980Y-1714314D01*
X88394450Y-1780787D01*
X88384844Y-1792490D01*
X88374296Y-1810762D01*
X88324082Y-1866529D01*
X88280110Y-1920110D01*
X88263746Y-1933539D01*
X88245600Y-1953693D01*
X88189712Y-1994297D01*
X88140787Y-2034450D01*
X88116802Y-2047270D01*
X88090000Y-2066743D01*
X88032348Y-2092411D01*
X87981841Y-2119408D01*
X87950059Y-2129048D01*
X87914296Y-2144972D01*
X87858410Y-2156850D01*
X87809361Y-2171730D01*
X87770317Y-2175575D01*
X87726166Y-2184960D01*
X87675030Y-2184960D01*
X87629999Y-2189395D01*
X87584968Y-2184960D01*
X87533834Y-2184960D01*
X87489683Y-2175575D01*
X87450638Y-2171730D01*
X87401585Y-2156849D01*
X87345704Y-2144972D01*
X87309942Y-2129049D01*
X87278158Y-2119408D01*
X87227645Y-2092408D01*
X87170000Y-2066743D01*
X87143200Y-2047272D01*
X87119212Y-2034450D01*
X87070278Y-1994290D01*
X87014400Y-1953693D01*
X86996256Y-1933542D01*
X86979889Y-1920110D01*
X86935905Y-1866516D01*
X86885704Y-1810762D01*
X86875157Y-1792494D01*
X86865549Y-1780787D01*
X86830006Y-1714291D01*
X86789538Y-1644198D01*
X86784882Y-1629869D01*
X86780591Y-1621841D01*
X86756923Y-1543821D01*
X86730104Y-1461279D01*
X86729160Y-1452298D01*
X86728269Y-1449361D01*
X86719597Y-1361314D01*
X86710000Y-1270000D01*
X86719596Y-1178692D01*
X86728269Y-1090638D01*
X86729160Y-1087699D01*
X86730104Y-1078721D01*
X86756919Y-996192D01*
X86780591Y-918158D01*
X86784883Y-910127D01*
X86789538Y-895802D01*
X86829999Y-825721D01*
X86865549Y-759212D01*
X86875159Y-747501D01*
X86885704Y-729238D01*
X86935896Y-673493D01*
X86979889Y-619889D01*
X86996259Y-606454D01*
X87014400Y-586307D01*
X87070267Y-545716D01*
X87119212Y-505549D01*
X87143205Y-492724D01*
X87170000Y-473257D01*
X87227633Y-447596D01*
X87278158Y-420591D01*
X87309949Y-410946D01*
X87345704Y-395028D01*
X87401574Y-383152D01*
X87450638Y-368269D01*
X87489691Y-364422D01*
X87533834Y-355040D01*
X87584958Y-355040D01*
X87629999Y-350604D01*
X87675040Y-355040D01*
G37*
G36*
X92755041Y-355040D02*
G01*
X92806166Y-355040D01*
X92850309Y-364422D01*
X92889361Y-368269D01*
X92938421Y-383151D01*
X92994296Y-395028D01*
X93030052Y-410947D01*
X93061841Y-420591D01*
X93112360Y-447593D01*
X93170000Y-473257D01*
X93196796Y-492726D01*
X93220787Y-505549D01*
X93269723Y-545710D01*
X93325600Y-586307D01*
X93343743Y-606457D01*
X93360110Y-619889D01*
X93404092Y-673481D01*
X93454296Y-729238D01*
X93464842Y-747505D01*
X93474450Y-759212D01*
X93509987Y-825697D01*
X93550462Y-895802D01*
X93555118Y-910132D01*
X93559408Y-918158D01*
X93583065Y-996145D01*
X93609896Y-1078721D01*
X93610840Y-1087704D01*
X93611730Y-1090638D01*
X93620387Y-1178541D01*
X93630000Y-1270000D01*
X93620386Y-1361465D01*
X93611730Y-1449361D01*
X93610840Y-1452293D01*
X93609896Y-1461279D01*
X93583061Y-1543868D01*
X93559408Y-1621841D01*
X93555119Y-1629865D01*
X93550462Y-1644198D01*
X93509980Y-1714314D01*
X93474450Y-1780787D01*
X93464844Y-1792490D01*
X93454296Y-1810762D01*
X93404082Y-1866529D01*
X93360110Y-1920110D01*
X93343746Y-1933539D01*
X93325600Y-1953693D01*
X93269712Y-1994297D01*
X93220787Y-2034450D01*
X93196802Y-2047270D01*
X93170000Y-2066743D01*
X93112348Y-2092411D01*
X93061841Y-2119408D01*
X93030059Y-2129048D01*
X92994296Y-2144972D01*
X92938410Y-2156850D01*
X92889361Y-2171730D01*
X92850317Y-2175575D01*
X92806166Y-2184960D01*
X92755031Y-2184960D01*
X92710000Y-2189395D01*
X92664969Y-2184960D01*
X92613834Y-2184960D01*
X92569682Y-2175575D01*
X92530638Y-2171730D01*
X92481585Y-2156849D01*
X92425704Y-2144972D01*
X92389942Y-2129049D01*
X92358158Y-2119408D01*
X92307645Y-2092408D01*
X92250000Y-2066743D01*
X92223200Y-2047272D01*
X92199212Y-2034450D01*
X92150278Y-1994290D01*
X92094400Y-1953693D01*
X92076256Y-1933542D01*
X92059889Y-1920110D01*
X92015905Y-1866516D01*
X91965704Y-1810762D01*
X91955157Y-1792494D01*
X91945549Y-1780787D01*
X91910006Y-1714291D01*
X91869538Y-1644198D01*
X91864882Y-1629869D01*
X91860591Y-1621841D01*
X91836923Y-1543821D01*
X91810104Y-1461279D01*
X91809160Y-1452298D01*
X91808269Y-1449361D01*
X91799598Y-1361321D01*
X91790000Y-1270000D01*
X91799595Y-1178700D01*
X91808269Y-1090638D01*
X91809160Y-1087699D01*
X91810104Y-1078721D01*
X91836919Y-996192D01*
X91860591Y-918158D01*
X91864883Y-910127D01*
X91869538Y-895802D01*
X91909999Y-825721D01*
X91945549Y-759212D01*
X91955159Y-747501D01*
X91965704Y-729238D01*
X92015896Y-673493D01*
X92059889Y-619889D01*
X92076259Y-606454D01*
X92094400Y-586307D01*
X92150267Y-545716D01*
X92199212Y-505549D01*
X92223205Y-492724D01*
X92250000Y-473257D01*
X92307633Y-447596D01*
X92358158Y-420591D01*
X92389949Y-410946D01*
X92425704Y-395028D01*
X92481574Y-383152D01*
X92530638Y-368269D01*
X92569691Y-364422D01*
X92613834Y-355040D01*
X92664959Y-355040D01*
X92710000Y-350604D01*
X92755041Y-355040D01*
G37*
G36*
X95295040Y-355040D02*
G01*
X95346166Y-355040D01*
X95390309Y-364422D01*
X95429361Y-368269D01*
X95478421Y-383151D01*
X95534296Y-395028D01*
X95570052Y-410947D01*
X95601841Y-420591D01*
X95652360Y-447593D01*
X95710000Y-473257D01*
X95736796Y-492726D01*
X95760787Y-505549D01*
X95809723Y-545710D01*
X95865600Y-586307D01*
X95883743Y-606457D01*
X95900110Y-619889D01*
X95944092Y-673481D01*
X95994296Y-729238D01*
X96004842Y-747505D01*
X96014450Y-759212D01*
X96049987Y-825697D01*
X96090462Y-895802D01*
X96095118Y-910132D01*
X96099408Y-918158D01*
X96123065Y-996145D01*
X96149896Y-1078721D01*
X96150840Y-1087704D01*
X96151730Y-1090638D01*
X96160387Y-1178541D01*
X96170000Y-1270000D01*
X96160386Y-1361465D01*
X96151730Y-1449361D01*
X96150840Y-1452293D01*
X96149896Y-1461279D01*
X96123061Y-1543868D01*
X96099408Y-1621841D01*
X96095119Y-1629865D01*
X96090462Y-1644198D01*
X96049980Y-1714314D01*
X96014450Y-1780787D01*
X96004844Y-1792490D01*
X95994296Y-1810762D01*
X95944082Y-1866529D01*
X95900110Y-1920110D01*
X95883746Y-1933539D01*
X95865600Y-1953693D01*
X95809712Y-1994297D01*
X95760787Y-2034450D01*
X95736802Y-2047270D01*
X95710000Y-2066743D01*
X95652348Y-2092411D01*
X95601841Y-2119408D01*
X95570059Y-2129048D01*
X95534296Y-2144972D01*
X95478410Y-2156850D01*
X95429361Y-2171730D01*
X95390317Y-2175575D01*
X95346166Y-2184960D01*
X95295030Y-2184960D01*
X95249999Y-2189395D01*
X95204968Y-2184960D01*
X95153834Y-2184960D01*
X95109683Y-2175575D01*
X95070638Y-2171730D01*
X95021585Y-2156849D01*
X94965704Y-2144972D01*
X94929942Y-2129049D01*
X94898158Y-2119408D01*
X94847645Y-2092408D01*
X94790000Y-2066743D01*
X94763200Y-2047272D01*
X94739212Y-2034450D01*
X94690278Y-1994290D01*
X94634400Y-1953693D01*
X94616256Y-1933542D01*
X94599889Y-1920110D01*
X94555905Y-1866516D01*
X94505704Y-1810762D01*
X94495157Y-1792494D01*
X94485549Y-1780787D01*
X94450006Y-1714291D01*
X94409538Y-1644198D01*
X94404882Y-1629869D01*
X94400591Y-1621841D01*
X94376923Y-1543821D01*
X94350104Y-1461279D01*
X94349160Y-1452298D01*
X94348269Y-1449361D01*
X94339598Y-1361321D01*
X94330000Y-1270000D01*
X94339595Y-1178700D01*
X94348269Y-1090638D01*
X94349160Y-1087699D01*
X94350104Y-1078721D01*
X94376919Y-996192D01*
X94400591Y-918158D01*
X94404883Y-910127D01*
X94409538Y-895802D01*
X94449999Y-825721D01*
X94485549Y-759212D01*
X94495159Y-747501D01*
X94505704Y-729238D01*
X94555896Y-673493D01*
X94599889Y-619889D01*
X94616259Y-606454D01*
X94634400Y-586307D01*
X94690267Y-545716D01*
X94739212Y-505549D01*
X94763205Y-492724D01*
X94790000Y-473257D01*
X94847633Y-447596D01*
X94898158Y-420591D01*
X94929949Y-410946D01*
X94965704Y-395028D01*
X95021574Y-383152D01*
X95070638Y-368269D01*
X95109691Y-364422D01*
X95153834Y-355040D01*
X95204958Y-355040D01*
X95249999Y-350604D01*
X95295040Y-355040D01*
G37*
G36*
X45894732Y3858187D02*
G01*
X45941190Y3852546D01*
X45943110Y3851818D01*
X45952527Y3850578D01*
X46019217Y3822954D01*
X46069467Y3803896D01*
X46075831Y3799503D01*
X46090000Y3793634D01*
X46140738Y3754702D01*
X46182372Y3725964D01*
X46191249Y3715943D01*
X46208051Y3703051D01*
X46242860Y3657687D01*
X46273344Y3623277D01*
X46282176Y3606449D01*
X46298634Y3585000D01*
X46318109Y3537984D01*
X46337099Y3501801D01*
X46342980Y3477940D01*
X46355578Y3447527D01*
X46361425Y3403108D01*
X46369933Y3368594D01*
X46369933Y3338489D01*
X46375000Y3300000D01*
X46369933Y3261512D01*
X46369933Y3231407D01*
X46361426Y3196895D01*
X46355578Y3152473D01*
X46342980Y3122060D01*
X46337099Y3098200D01*
X46318111Y3062022D01*
X46298634Y3015000D01*
X46282174Y2993550D01*
X46273344Y2976724D01*
X46242866Y2942322D01*
X46208051Y2896949D01*
X46191247Y2884056D01*
X46182372Y2874037D01*
X46140751Y2845309D01*
X46090000Y2806366D01*
X46075828Y2800496D01*
X46069467Y2796105D01*
X46019246Y2777059D01*
X45952527Y2749422D01*
X45943106Y2748182D01*
X45941190Y2747455D01*
X45894798Y2741823D01*
X45805000Y2730000D01*
X45797436Y2730000D01*
X45212564Y2730000D01*
X45205000Y2730000D01*
X45115209Y2741821D01*
X45068809Y2747455D01*
X45066892Y2748182D01*
X45057473Y2749422D01*
X44990764Y2777054D01*
X44940532Y2796105D01*
X44934169Y2800497D01*
X44920000Y2806366D01*
X44869257Y2845302D01*
X44827627Y2874037D01*
X44818749Y2884058D01*
X44801949Y2896949D01*
X44767140Y2942313D01*
X44736655Y2976724D01*
X44727822Y2993554D01*
X44711366Y3015000D01*
X44691892Y3062013D01*
X44672900Y3098200D01*
X44667017Y3122065D01*
X44654422Y3152473D01*
X44648574Y3196893D01*
X44640067Y3231407D01*
X44640067Y3261512D01*
X44635000Y3300000D01*
X44640067Y3338489D01*
X44640067Y3368594D01*
X44648574Y3403110D01*
X44654422Y3447527D01*
X44667017Y3477935D01*
X44672900Y3501801D01*
X44691894Y3537993D01*
X44711366Y3585000D01*
X44727820Y3606445D01*
X44736655Y3623277D01*
X44767146Y3657695D01*
X44801949Y3703051D01*
X44818746Y3715941D01*
X44827627Y3725964D01*
X44869270Y3754709D01*
X44920000Y3793634D01*
X44934165Y3799502D01*
X44940532Y3803896D01*
X44990793Y3822958D01*
X45057473Y3850578D01*
X45066888Y3851818D01*
X45068809Y3852546D01*
X45115275Y3858188D01*
X45205000Y3870000D01*
X45805000Y3870000D01*
X45894732Y3858187D01*
G37*
G36*
X50324732Y12498187D02*
G01*
X50371190Y12492546D01*
X50373110Y12491818D01*
X50382527Y12490578D01*
X50449217Y12462954D01*
X50499467Y12443896D01*
X50505831Y12439503D01*
X50520000Y12433634D01*
X50570738Y12394702D01*
X50612372Y12365964D01*
X50621249Y12355943D01*
X50638051Y12343051D01*
X50672860Y12297687D01*
X50703344Y12263277D01*
X50712176Y12246449D01*
X50728634Y12225000D01*
X50748109Y12177984D01*
X50767099Y12141801D01*
X50772980Y12117940D01*
X50785578Y12087527D01*
X50791425Y12043108D01*
X50799933Y12008594D01*
X50799933Y11978489D01*
X50805000Y11940000D01*
X50799933Y11901512D01*
X50799933Y11871407D01*
X50791426Y11836895D01*
X50785578Y11792473D01*
X50772980Y11762060D01*
X50767099Y11738200D01*
X50748111Y11702022D01*
X50728634Y11655000D01*
X50712174Y11633550D01*
X50703344Y11616724D01*
X50672866Y11582322D01*
X50638051Y11536949D01*
X50621247Y11524056D01*
X50612372Y11514037D01*
X50570749Y11485308D01*
X50520000Y11446366D01*
X50505829Y11440497D01*
X50415466Y11378123D01*
X50470192Y11202500D01*
X51325000Y11202500D01*
X51351788Y11197172D01*
X51374497Y11181997D01*
X51389672Y11159288D01*
X51395000Y11132500D01*
X51395000Y10557500D01*
X51389672Y10530712D01*
X51374497Y10508003D01*
X51369278Y10504516D01*
X51363200Y10495419D01*
X51363200Y10419581D01*
X51369278Y10410485D01*
X51374497Y10406997D01*
X51389672Y10384288D01*
X51395000Y10357500D01*
X51395000Y9782500D01*
X51389672Y9755712D01*
X51374497Y9733003D01*
X51369278Y9729516D01*
X51342319Y9689169D01*
X51342319Y9613331D01*
X51369278Y9572985D01*
X51374497Y9569497D01*
X51389672Y9546788D01*
X51395000Y9520000D01*
X51395000Y9220000D01*
X51389672Y9193212D01*
X51374497Y9170503D01*
X51369278Y9167016D01*
X51363200Y9157919D01*
X51363200Y9082081D01*
X51369278Y9072985D01*
X51374497Y9069497D01*
X51389672Y9046788D01*
X51395000Y9020000D01*
X51395000Y8720000D01*
X51389672Y8693212D01*
X51374497Y8670503D01*
X51369278Y8667016D01*
X51363200Y8657919D01*
X51363200Y8582081D01*
X51369278Y8572985D01*
X51374497Y8569497D01*
X51389672Y8546788D01*
X51395000Y8520000D01*
X51395000Y8220000D01*
X51389672Y8193212D01*
X51374497Y8170503D01*
X51369278Y8167016D01*
X51363200Y8157919D01*
X51363200Y8082081D01*
X51369278Y8072985D01*
X51374497Y8069497D01*
X51389672Y8046788D01*
X51395000Y8020000D01*
X51395000Y7720000D01*
X51389672Y7693212D01*
X51374497Y7670503D01*
X51369278Y7667016D01*
X51363200Y7657919D01*
X51363200Y7582081D01*
X51369278Y7572985D01*
X51374497Y7569497D01*
X51389672Y7546788D01*
X51395000Y7520000D01*
X51395000Y7220000D01*
X51389672Y7193212D01*
X51374497Y7170503D01*
X51369278Y7167016D01*
X51363200Y7157919D01*
X51363200Y7082081D01*
X51369278Y7072985D01*
X51374497Y7069497D01*
X51389672Y7046788D01*
X51395000Y7020000D01*
X51395000Y6720000D01*
X51389672Y6693212D01*
X51374497Y6670503D01*
X51369278Y6667016D01*
X51363200Y6657919D01*
X51363200Y6582081D01*
X51369278Y6572985D01*
X51374497Y6569497D01*
X51389672Y6546788D01*
X51395000Y6520000D01*
X51395000Y6220000D01*
X51389672Y6193212D01*
X51374497Y6170503D01*
X51369278Y6167016D01*
X51363200Y6157919D01*
X51363200Y6082081D01*
X51369278Y6072985D01*
X51374497Y6069497D01*
X51389672Y6046788D01*
X51395000Y6020000D01*
X51395000Y5720000D01*
X51389672Y5693212D01*
X51374497Y5670503D01*
X51369278Y5667016D01*
X51342319Y5626669D01*
X51342319Y5550831D01*
X51369278Y5510485D01*
X51374497Y5506997D01*
X51389672Y5484288D01*
X51395000Y5457500D01*
X51395000Y4882500D01*
X51389672Y4855712D01*
X51374497Y4833003D01*
X51369278Y4829516D01*
X51363200Y4820419D01*
X51363200Y4744581D01*
X51369278Y4735485D01*
X51374497Y4731997D01*
X51389672Y4709288D01*
X51395000Y4682500D01*
X51395000Y4107500D01*
X51389672Y4080712D01*
X51374497Y4058003D01*
X51351788Y4042828D01*
X51325000Y4037500D01*
X50470192Y4037500D01*
X50415466Y3861878D01*
X50505832Y3799503D01*
X50520000Y3793634D01*
X50570739Y3754701D01*
X50612373Y3725963D01*
X50621250Y3715943D01*
X50638051Y3703051D01*
X50672860Y3657687D01*
X50703344Y3623277D01*
X50712176Y3606449D01*
X50728634Y3585000D01*
X50748109Y3537984D01*
X50767099Y3501801D01*
X50772980Y3477940D01*
X50785578Y3447527D01*
X50791425Y3403108D01*
X50799933Y3368594D01*
X50799933Y3338489D01*
X50805000Y3300000D01*
X50799933Y3261512D01*
X50799933Y3231407D01*
X50791426Y3196895D01*
X50785578Y3152473D01*
X50772980Y3122060D01*
X50767099Y3098200D01*
X50748111Y3062022D01*
X50728634Y3015000D01*
X50712174Y2993550D01*
X50703344Y2976724D01*
X50672866Y2942322D01*
X50638051Y2896949D01*
X50621247Y2884056D01*
X50612372Y2874037D01*
X50570751Y2845309D01*
X50520000Y2806366D01*
X50505828Y2800496D01*
X50499467Y2796105D01*
X50449246Y2777059D01*
X50382527Y2749422D01*
X50373106Y2748182D01*
X50371190Y2747455D01*
X50324798Y2741823D01*
X50235000Y2730000D01*
X50227436Y2730000D01*
X49142564Y2730000D01*
X49135000Y2730000D01*
X49045209Y2741821D01*
X48998809Y2747455D01*
X48996892Y2748182D01*
X48987473Y2749422D01*
X48920764Y2777054D01*
X48870532Y2796105D01*
X48864169Y2800497D01*
X48850000Y2806366D01*
X48799257Y2845302D01*
X48757627Y2874037D01*
X48748749Y2884058D01*
X48731949Y2896949D01*
X48697140Y2942313D01*
X48666655Y2976724D01*
X48657822Y2993554D01*
X48641366Y3015000D01*
X48621892Y3062013D01*
X48602900Y3098200D01*
X48597017Y3122065D01*
X48584422Y3152473D01*
X48578574Y3196893D01*
X48570067Y3231407D01*
X48570067Y3261512D01*
X48565000Y3300000D01*
X48570067Y3338489D01*
X48570067Y3368594D01*
X48578574Y3403110D01*
X48584422Y3447527D01*
X48597017Y3477935D01*
X48602900Y3501801D01*
X48621894Y3537993D01*
X48641366Y3585000D01*
X48657820Y3606445D01*
X48666655Y3623277D01*
X48697146Y3657695D01*
X48731949Y3703051D01*
X48748746Y3715941D01*
X48757627Y3725964D01*
X48799270Y3754709D01*
X48850000Y3793634D01*
X48864165Y3799502D01*
X48870532Y3803896D01*
X48920793Y3822958D01*
X48987473Y3850578D01*
X48996888Y3851818D01*
X48998809Y3852546D01*
X49045275Y3858188D01*
X49135000Y3870000D01*
X49795076Y3870000D01*
X49865711Y4002151D01*
X49830720Y4054517D01*
X49825503Y4058003D01*
X49810328Y4080712D01*
X49805000Y4107500D01*
X49805000Y4682500D01*
X49810328Y4709288D01*
X49825503Y4731997D01*
X49830717Y4735482D01*
X49836799Y4744583D01*
X49836799Y4820417D01*
X49830718Y4829519D01*
X49825503Y4833003D01*
X49810328Y4855712D01*
X49805000Y4882500D01*
X49805000Y5457500D01*
X49810328Y5484288D01*
X49825503Y5506997D01*
X49830717Y5510482D01*
X49857680Y5550834D01*
X49857680Y5626670D01*
X49830720Y5667017D01*
X49825503Y5670503D01*
X49810328Y5693212D01*
X49805000Y5720000D01*
X49805000Y6020000D01*
X49810328Y6046788D01*
X49825503Y6069497D01*
X49830716Y6072981D01*
X49836800Y6082086D01*
X49836798Y6157921D01*
X49830720Y6167017D01*
X49825503Y6170503D01*
X49810328Y6193212D01*
X49805000Y6220000D01*
X49805000Y6520000D01*
X49810328Y6546788D01*
X49825503Y6569497D01*
X49830717Y6572982D01*
X49836799Y6582083D01*
X49836799Y6657917D01*
X49830718Y6667019D01*
X49825503Y6670503D01*
X49810328Y6693212D01*
X49805000Y6720000D01*
X49805000Y7020000D01*
X49810328Y7046788D01*
X49825503Y7069497D01*
X49830716Y7072981D01*
X49836800Y7082086D01*
X49836798Y7157921D01*
X49830720Y7167017D01*
X49825503Y7170503D01*
X49810328Y7193212D01*
X49805000Y7220000D01*
X49805000Y7520000D01*
X49810328Y7546788D01*
X49825503Y7569497D01*
X49830717Y7572982D01*
X49836799Y7582083D01*
X49836799Y7657917D01*
X49830718Y7667019D01*
X49825503Y7670503D01*
X49810328Y7693212D01*
X49805000Y7720000D01*
X49805000Y8020000D01*
X49810328Y8046788D01*
X49825503Y8069497D01*
X49830716Y8072981D01*
X49836800Y8082086D01*
X49836798Y8157921D01*
X49830720Y8167017D01*
X49825503Y8170503D01*
X49810328Y8193212D01*
X49805000Y8220000D01*
X49805000Y8520000D01*
X49810328Y8546788D01*
X49825503Y8569497D01*
X49830717Y8572982D01*
X49836799Y8582083D01*
X49836799Y8657917D01*
X49830718Y8667019D01*
X49825503Y8670503D01*
X49810328Y8693212D01*
X49805000Y8720000D01*
X49805000Y9020000D01*
X49810328Y9046788D01*
X49825503Y9069497D01*
X49830716Y9072981D01*
X49836800Y9082086D01*
X49836798Y9157921D01*
X49830720Y9167017D01*
X49825503Y9170503D01*
X49810328Y9193212D01*
X49805000Y9220000D01*
X49805000Y9520000D01*
X49810328Y9546788D01*
X49825503Y9569497D01*
X49830719Y9572983D01*
X49857680Y9613332D01*
X49857680Y9689168D01*
X49830719Y9729518D01*
X49825503Y9733003D01*
X49810328Y9755712D01*
X49805000Y9782500D01*
X49805000Y10357500D01*
X49810328Y10384288D01*
X49825503Y10406997D01*
X49830717Y10410482D01*
X49836799Y10419583D01*
X49836799Y10495417D01*
X49830718Y10504519D01*
X49825503Y10508003D01*
X49810328Y10530712D01*
X49805000Y10557500D01*
X49805000Y11132500D01*
X49810328Y11159288D01*
X49825503Y11181997D01*
X49830719Y11185483D01*
X49865711Y11237849D01*
X49795076Y11370000D01*
X49142564Y11370000D01*
X49135000Y11370000D01*
X49045209Y11381821D01*
X48998809Y11387455D01*
X48996892Y11388182D01*
X48987473Y11389422D01*
X48920764Y11417054D01*
X48870532Y11436105D01*
X48864169Y11440497D01*
X48850000Y11446366D01*
X48799257Y11485302D01*
X48757627Y11514037D01*
X48748749Y11524058D01*
X48731949Y11536949D01*
X48697140Y11582313D01*
X48666655Y11616724D01*
X48657822Y11633554D01*
X48641366Y11655000D01*
X48621892Y11702013D01*
X48602900Y11738200D01*
X48597017Y11762065D01*
X48584422Y11792473D01*
X48578574Y11836893D01*
X48570067Y11871407D01*
X48570067Y11901512D01*
X48565000Y11940000D01*
X48570067Y11978489D01*
X48570067Y12008594D01*
X48578574Y12043110D01*
X48584422Y12087527D01*
X48597017Y12117935D01*
X48602900Y12141801D01*
X48621894Y12177993D01*
X48641366Y12225000D01*
X48657820Y12246445D01*
X48666655Y12263277D01*
X48697146Y12297695D01*
X48731949Y12343051D01*
X48748746Y12355941D01*
X48757627Y12365964D01*
X48799270Y12394709D01*
X48850000Y12433634D01*
X48864165Y12439502D01*
X48870532Y12443896D01*
X48920793Y12462958D01*
X48987473Y12490578D01*
X48996888Y12491818D01*
X48998809Y12492546D01*
X49045275Y12498188D01*
X49135000Y12510000D01*
X50235000Y12510000D01*
X50324732Y12498187D01*
G37*
G36*
X49195366Y5118607D02*
G01*
X49256956Y5110498D01*
X49263391Y5107833D01*
X49277062Y5105667D01*
X49313754Y5086972D01*
X49351963Y5071145D01*
X49366089Y5060306D01*
X49387175Y5049562D01*
X49410536Y5026201D01*
X49433542Y5008548D01*
X49451193Y4985544D01*
X49474562Y4962175D01*
X49485309Y4941082D01*
X49496145Y4926960D01*
X49511966Y4888765D01*
X49530667Y4852062D01*
X49532832Y4838390D01*
X49535497Y4831957D01*
X49543601Y4770400D01*
X49550000Y4730000D01*
X49543600Y4689599D01*
X49535497Y4628044D01*
X49532832Y4621612D01*
X49530667Y4607938D01*
X49511966Y4571236D01*
X49496144Y4533037D01*
X49485307Y4518915D01*
X49474562Y4497825D01*
X49451197Y4474461D01*
X49433545Y4451455D01*
X49410539Y4433803D01*
X49387175Y4410438D01*
X49366085Y4399693D01*
X49351963Y4388856D01*
X49313764Y4373034D01*
X49277062Y4354333D01*
X49263388Y4352168D01*
X49256956Y4349503D01*
X49195401Y4341400D01*
X49155000Y4335000D01*
X49114600Y4341399D01*
X49053043Y4349503D01*
X49046610Y4352168D01*
X49032938Y4354333D01*
X48996239Y4373032D01*
X48958036Y4388856D01*
X48943911Y4399695D01*
X48922825Y4410438D01*
X48899463Y4433800D01*
X48876454Y4451455D01*
X48858798Y4474465D01*
X48835438Y4497825D01*
X48824694Y4518911D01*
X48813855Y4533037D01*
X48798028Y4571246D01*
X48779333Y4607938D01*
X48777167Y4621609D01*
X48774502Y4628044D01*
X48766393Y4689637D01*
X48760000Y4730000D01*
X48766392Y4770362D01*
X48774502Y4831957D01*
X48777168Y4838394D01*
X48779333Y4852062D01*
X48798028Y4888754D01*
X48813854Y4926960D01*
X48824692Y4941085D01*
X48835438Y4962175D01*
X48858803Y4985541D01*
X48876455Y5008545D01*
X48899459Y5026197D01*
X48922825Y5049562D01*
X48943915Y5060308D01*
X48958040Y5071146D01*
X48996246Y5086972D01*
X49032938Y5105667D01*
X49046606Y5107832D01*
X49053043Y5110498D01*
X49114641Y5118608D01*
X49155000Y5125000D01*
X49195366Y5118607D01*
G37*
G36*
X101146465Y7389235D02*
G01*
X101196842Y7389235D01*
X101252363Y7379971D01*
X101312533Y7374706D01*
X101359788Y7362045D01*
X101403661Y7354723D01*
X101462516Y7334519D01*
X101526366Y7317410D01*
X101565472Y7299175D01*
X101601981Y7286641D01*
X101661972Y7254176D01*
X101727000Y7223852D01*
X101757611Y7202418D01*
X101786387Y7186845D01*
X101844963Y7141253D01*
X101908340Y7096876D01*
X101930677Y7074539D01*
X101951858Y7058053D01*
X102006268Y6998948D01*
X102064876Y6940340D01*
X102079669Y6919213D01*
X102093869Y6903788D01*
X102141242Y6831278D01*
X102191852Y6759000D01*
X102200299Y6740885D01*
X102208554Y6728250D01*
X102246013Y6642852D01*
X102285410Y6558366D01*
X102289079Y6544672D01*
X102292783Y6536228D01*
X102317586Y6438282D01*
X102342706Y6344533D01*
X102343434Y6336211D01*
X102344256Y6332965D01*
X102353888Y6216712D01*
X102362000Y6124000D01*
X102353888Y6031281D01*
X102344256Y5915036D01*
X102343434Y5911791D01*
X102342706Y5903467D01*
X102317581Y5809702D01*
X102292783Y5711773D01*
X102289080Y5703332D01*
X102285410Y5689634D01*
X102246005Y5605133D01*
X102208554Y5519751D01*
X102200301Y5507120D01*
X102191852Y5489000D01*
X102141232Y5416709D01*
X102093869Y5344213D01*
X102079672Y5328792D01*
X102064876Y5307660D01*
X102006256Y5249041D01*
X101951858Y5189948D01*
X101930681Y5173466D01*
X101908340Y5151124D01*
X101844950Y5106739D01*
X101786387Y5061156D01*
X101757617Y5045587D01*
X101727000Y5024148D01*
X101661958Y4993819D01*
X101601981Y4961360D01*
X101565480Y4948830D01*
X101526366Y4930590D01*
X101462502Y4913479D01*
X101403661Y4893278D01*
X101359796Y4885959D01*
X101312533Y4873294D01*
X101252359Y4868030D01*
X101196842Y4858765D01*
X101146465Y4858765D01*
X101092000Y4854000D01*
X101037535Y4858765D01*
X100987158Y4858765D01*
X100931639Y4868030D01*
X100871467Y4873294D01*
X100824205Y4885958D01*
X100780338Y4893278D01*
X100721492Y4913480D01*
X100657634Y4930590D01*
X100618521Y4948829D01*
X100582018Y4961360D01*
X100522033Y4993822D01*
X100457000Y5024148D01*
X100426385Y5045585D01*
X100397612Y5061156D01*
X100339039Y5106746D01*
X100275660Y5151124D01*
X100253321Y5173463D01*
X100232141Y5189948D01*
X100177730Y5249054D01*
X100119124Y5307660D01*
X100104330Y5328787D01*
X100090130Y5344213D01*
X100042752Y5416730D01*
X99992148Y5489000D01*
X99983701Y5507114D01*
X99975445Y5519751D01*
X99937977Y5605169D01*
X99898590Y5689634D01*
X99894921Y5703326D01*
X99891216Y5711773D01*
X99866400Y5809770D01*
X99841294Y5903467D01*
X99840566Y5911785D01*
X99839743Y5915036D01*
X99830092Y6031498D01*
X99822000Y6124000D01*
X99830092Y6216496D01*
X99839743Y6332965D01*
X99840566Y6336217D01*
X99841294Y6344533D01*
X99866395Y6438214D01*
X99891216Y6536228D01*
X99894922Y6544677D01*
X99898590Y6558366D01*
X99937969Y6642816D01*
X99975445Y6728250D01*
X99983702Y6740890D01*
X99992148Y6759000D01*
X100042742Y6831257D01*
X100090130Y6903788D01*
X100104333Y6919218D01*
X100119124Y6940340D01*
X100177719Y6998936D01*
X100232141Y7058053D01*
X100253326Y7074543D01*
X100275660Y7096876D01*
X100339026Y7141247D01*
X100397612Y7186845D01*
X100426392Y7202421D01*
X100457000Y7223852D01*
X100522020Y7254172D01*
X100582018Y7286641D01*
X100618529Y7299176D01*
X100657634Y7317410D01*
X100721479Y7334518D01*
X100780338Y7354723D01*
X100824212Y7362045D01*
X100871467Y7374706D01*
X100931636Y7379971D01*
X100987158Y7389235D01*
X101037535Y7389235D01*
X101092000Y7394000D01*
X101146465Y7389235D01*
G37*
G36*
X101812771Y10883025D02*
G01*
X101829978Y10877664D01*
X101840913Y10876431D01*
X101897704Y10856559D01*
X101966977Y10834973D01*
X101977398Y10828674D01*
X101982357Y10826938D01*
X102035356Y10793637D01*
X102105202Y10751413D01*
X102219413Y10637202D01*
X102261645Y10567341D01*
X102294937Y10514358D01*
X102296671Y10509401D01*
X102302973Y10498977D01*
X102324564Y10429688D01*
X102344430Y10372914D01*
X102345661Y10361983D01*
X102351025Y10344771D01*
X102362000Y10224000D01*
X102362000Y9024000D01*
X102351025Y8903229D01*
X102345661Y8886017D01*
X102344430Y8875087D01*
X102324567Y8818322D01*
X102302973Y8749023D01*
X102296670Y8738598D01*
X102294937Y8733643D01*
X102261661Y8680686D01*
X102219413Y8610798D01*
X102105202Y8496587D01*
X102035314Y8454339D01*
X101982357Y8421063D01*
X101977402Y8419330D01*
X101966977Y8413027D01*
X101897678Y8391433D01*
X101840913Y8371570D01*
X101829983Y8370339D01*
X101812771Y8364975D01*
X101692000Y8354000D01*
X100492000Y8354000D01*
X100371229Y8364975D01*
X100354017Y8370339D01*
X100343086Y8371570D01*
X100286312Y8391436D01*
X100217023Y8413027D01*
X100206599Y8419329D01*
X100201642Y8421063D01*
X100148659Y8454355D01*
X100078798Y8496587D01*
X99964587Y8610798D01*
X99922363Y8680644D01*
X99889062Y8733643D01*
X99887326Y8738602D01*
X99881027Y8749023D01*
X99859441Y8818296D01*
X99839569Y8875087D01*
X99838336Y8886022D01*
X99832975Y8903229D01*
X99822000Y9024000D01*
X99822000Y10224000D01*
X99832975Y10344771D01*
X99838336Y10361978D01*
X99839569Y10372914D01*
X99859443Y10429714D01*
X99881027Y10498977D01*
X99887326Y10509397D01*
X99889062Y10514358D01*
X99922379Y10567383D01*
X99964587Y10637202D01*
X100078798Y10751413D01*
X100148617Y10793621D01*
X100201642Y10826938D01*
X100206603Y10828674D01*
X100217023Y10834973D01*
X100286286Y10856557D01*
X100343086Y10876431D01*
X100354022Y10877664D01*
X100371229Y10883025D01*
X100492000Y10894000D01*
X101692000Y10894000D01*
X101812771Y10883025D01*
G37*
G36*
X49195366Y10898607D02*
G01*
X49256956Y10890498D01*
X49263391Y10887833D01*
X49277062Y10885667D01*
X49313754Y10866972D01*
X49351963Y10851145D01*
X49366089Y10840306D01*
X49387175Y10829562D01*
X49410536Y10806201D01*
X49433542Y10788548D01*
X49451193Y10765544D01*
X49474562Y10742175D01*
X49485309Y10721082D01*
X49496145Y10706960D01*
X49511966Y10668765D01*
X49530667Y10632062D01*
X49532832Y10618390D01*
X49535497Y10611957D01*
X49543601Y10550397D01*
X49550000Y10510000D01*
X49543600Y10469596D01*
X49535497Y10408044D01*
X49532832Y10401612D01*
X49530667Y10387938D01*
X49511966Y10351236D01*
X49496144Y10313037D01*
X49485307Y10298915D01*
X49474562Y10277825D01*
X49451197Y10254461D01*
X49433545Y10231455D01*
X49410539Y10213803D01*
X49387175Y10190438D01*
X49366085Y10179693D01*
X49351963Y10168856D01*
X49313764Y10153034D01*
X49277062Y10134333D01*
X49263388Y10132168D01*
X49256956Y10129503D01*
X49195404Y10121400D01*
X49155000Y10115000D01*
X49114603Y10121399D01*
X49053043Y10129503D01*
X49046610Y10132168D01*
X49032938Y10134333D01*
X48996239Y10153032D01*
X48958036Y10168856D01*
X48943911Y10179695D01*
X48922825Y10190438D01*
X48899463Y10213800D01*
X48876454Y10231455D01*
X48858798Y10254465D01*
X48835438Y10277825D01*
X48824694Y10298911D01*
X48813855Y10313037D01*
X48798028Y10351246D01*
X48779333Y10387938D01*
X48777167Y10401609D01*
X48774502Y10408044D01*
X48766393Y10469637D01*
X48760000Y10510000D01*
X48766392Y10550362D01*
X48774502Y10611957D01*
X48777168Y10618394D01*
X48779333Y10632062D01*
X48798028Y10668754D01*
X48813854Y10706960D01*
X48824692Y10721085D01*
X48835438Y10742175D01*
X48858803Y10765541D01*
X48876455Y10788545D01*
X48899459Y10806197D01*
X48922825Y10829562D01*
X48943915Y10840308D01*
X48958040Y10851146D01*
X48996246Y10866972D01*
X49032938Y10885667D01*
X49046606Y10887832D01*
X49053043Y10890498D01*
X49114641Y10898608D01*
X49155000Y10905000D01*
X49195366Y10898607D01*
G37*
G36*
X45894732Y12498187D02*
G01*
X45941190Y12492546D01*
X45943110Y12491818D01*
X45952527Y12490578D01*
X46019217Y12462954D01*
X46069467Y12443896D01*
X46075831Y12439503D01*
X46090000Y12433634D01*
X46140738Y12394702D01*
X46182372Y12365964D01*
X46191249Y12355943D01*
X46208051Y12343051D01*
X46242860Y12297687D01*
X46273344Y12263277D01*
X46282176Y12246449D01*
X46298634Y12225000D01*
X46318109Y12177984D01*
X46337099Y12141801D01*
X46342980Y12117940D01*
X46355578Y12087527D01*
X46361425Y12043108D01*
X46369933Y12008594D01*
X46369933Y11978489D01*
X46375000Y11940000D01*
X46369933Y11901512D01*
X46369933Y11871407D01*
X46361426Y11836895D01*
X46355578Y11792473D01*
X46342980Y11762060D01*
X46337099Y11738200D01*
X46318111Y11702022D01*
X46298634Y11655000D01*
X46282174Y11633550D01*
X46273344Y11616724D01*
X46242866Y11582322D01*
X46208051Y11536949D01*
X46191247Y11524056D01*
X46182372Y11514037D01*
X46140751Y11485309D01*
X46090000Y11446366D01*
X46075828Y11440496D01*
X46069467Y11436105D01*
X46019246Y11417059D01*
X45952527Y11389422D01*
X45943106Y11388182D01*
X45941190Y11387455D01*
X45894798Y11381823D01*
X45805000Y11370000D01*
X45797436Y11370000D01*
X45212564Y11370000D01*
X45205000Y11370000D01*
X45115209Y11381821D01*
X45068809Y11387455D01*
X45066892Y11388182D01*
X45057473Y11389422D01*
X44990764Y11417054D01*
X44940532Y11436105D01*
X44934169Y11440497D01*
X44920000Y11446366D01*
X44869257Y11485302D01*
X44827627Y11514037D01*
X44818749Y11524058D01*
X44801949Y11536949D01*
X44767140Y11582313D01*
X44736655Y11616724D01*
X44727822Y11633554D01*
X44711366Y11655000D01*
X44691892Y11702013D01*
X44672900Y11738200D01*
X44667017Y11762065D01*
X44654422Y11792473D01*
X44648574Y11836893D01*
X44640067Y11871407D01*
X44640067Y11901512D01*
X44635000Y11940000D01*
X44640067Y11978489D01*
X44640067Y12008594D01*
X44648574Y12043110D01*
X44654422Y12087527D01*
X44667017Y12117935D01*
X44672900Y12141801D01*
X44691894Y12177993D01*
X44711366Y12225000D01*
X44727820Y12246445D01*
X44736655Y12263277D01*
X44767146Y12297695D01*
X44801949Y12343051D01*
X44818746Y12355941D01*
X44827627Y12365964D01*
X44869270Y12394709D01*
X44920000Y12433634D01*
X44934165Y12439502D01*
X44940532Y12443896D01*
X44990793Y12462958D01*
X45057473Y12490578D01*
X45066888Y12491818D01*
X45068809Y12492546D01*
X45115275Y12498188D01*
X45205000Y12510000D01*
X45805000Y12510000D01*
X45894732Y12498187D01*
G37*
G36*
X52946788Y17424672D02*
G01*
X52969497Y17409497D01*
X52984672Y17386788D01*
X52990000Y17360000D01*
X52990000Y15660000D01*
X52984672Y15633212D01*
X52969497Y15610503D01*
X52946788Y15595328D01*
X52920000Y15590000D01*
X51220000Y15590000D01*
X51193212Y15595328D01*
X51170503Y15610503D01*
X51155328Y15633212D01*
X51150000Y15660000D01*
X51150000Y17360000D01*
X51155328Y17386788D01*
X51170503Y17409497D01*
X51193212Y17424672D01*
X51220000Y17430000D01*
X52920000Y17430000D01*
X52946788Y17424672D01*
G37*
G36*
X65646788Y17424672D02*
G01*
X65669497Y17409497D01*
X65684672Y17386788D01*
X65690000Y17360000D01*
X65690000Y15660000D01*
X65684672Y15633212D01*
X65669497Y15610503D01*
X65646788Y15595328D01*
X65620000Y15590000D01*
X63920000Y15590000D01*
X63893212Y15595328D01*
X63870503Y15610503D01*
X63855328Y15633212D01*
X63850000Y15660000D01*
X63850000Y17360000D01*
X63855328Y17386788D01*
X63870503Y17409497D01*
X63893212Y17424672D01*
X63920000Y17430000D01*
X65620000Y17430000D01*
X65646788Y17424672D01*
G37*
G36*
X78346788Y17424672D02*
G01*
X78369497Y17409497D01*
X78384672Y17386788D01*
X78390000Y17360000D01*
X78390000Y15660000D01*
X78384672Y15633212D01*
X78369497Y15610503D01*
X78346788Y15595328D01*
X78320000Y15590000D01*
X76620000Y15590000D01*
X76593212Y15595328D01*
X76570503Y15610503D01*
X76555328Y15633212D01*
X76550000Y15660000D01*
X76550000Y17360000D01*
X76555328Y17386788D01*
X76570503Y17409497D01*
X76593212Y17424672D01*
X76620000Y17430000D01*
X78320000Y17430000D01*
X78346788Y17424672D01*
G37*
G36*
X91046788Y17424672D02*
G01*
X91069497Y17409497D01*
X91084672Y17386788D01*
X91090000Y17360000D01*
X91090000Y15660000D01*
X91084672Y15633212D01*
X91069497Y15610503D01*
X91046788Y15595328D01*
X91020000Y15590000D01*
X89320000Y15590000D01*
X89293212Y15595328D01*
X89270503Y15610503D01*
X89255328Y15633212D01*
X89250000Y15660000D01*
X89250000Y17360000D01*
X89255328Y17386788D01*
X89270503Y17409497D01*
X89293212Y17424672D01*
X89320000Y17430000D01*
X91020000Y17430000D01*
X91046788Y17424672D01*
G37*
G36*
X47035040Y17424960D02*
G01*
X47086166Y17424960D01*
X47130309Y17415578D01*
X47169361Y17411731D01*
X47218421Y17396849D01*
X47274296Y17384972D01*
X47310052Y17369053D01*
X47341841Y17359409D01*
X47392360Y17332407D01*
X47450000Y17306743D01*
X47476796Y17287274D01*
X47500787Y17274451D01*
X47549723Y17234290D01*
X47605600Y17193693D01*
X47623743Y17173543D01*
X47640110Y17160111D01*
X47684092Y17106519D01*
X47734296Y17050762D01*
X47744842Y17032495D01*
X47754450Y17020788D01*
X47789987Y16954303D01*
X47830462Y16884198D01*
X47835118Y16869868D01*
X47839408Y16861842D01*
X47863065Y16783855D01*
X47889896Y16701279D01*
X47890840Y16692296D01*
X47891730Y16689362D01*
X47900388Y16601451D01*
X47910000Y16510000D01*
X47900385Y16418527D01*
X47891730Y16330639D01*
X47890840Y16327707D01*
X47889896Y16318721D01*
X47863061Y16236132D01*
X47839408Y16158159D01*
X47835119Y16150135D01*
X47830462Y16135802D01*
X47789980Y16065686D01*
X47754450Y15999213D01*
X47744844Y15987510D01*
X47734296Y15969238D01*
X47684082Y15913471D01*
X47640110Y15859890D01*
X47623746Y15846461D01*
X47605600Y15826307D01*
X47549712Y15785703D01*
X47500787Y15745550D01*
X47476802Y15732730D01*
X47450000Y15713257D01*
X47392348Y15687589D01*
X47341841Y15660592D01*
X47310059Y15650952D01*
X47274296Y15635028D01*
X47218410Y15623150D01*
X47169361Y15608270D01*
X47130317Y15604425D01*
X47086166Y15595040D01*
X47035030Y15595040D01*
X46989999Y15590605D01*
X46944968Y15595040D01*
X46893834Y15595040D01*
X46849683Y15604425D01*
X46810638Y15608270D01*
X46761585Y15623151D01*
X46705704Y15635028D01*
X46669942Y15650951D01*
X46638158Y15660592D01*
X46587645Y15687592D01*
X46530000Y15713257D01*
X46503200Y15732728D01*
X46479212Y15745550D01*
X46430278Y15785710D01*
X46374400Y15826307D01*
X46356256Y15846458D01*
X46339889Y15859890D01*
X46295905Y15913484D01*
X46245704Y15969238D01*
X46235157Y15987506D01*
X46225549Y15999213D01*
X46190006Y16065709D01*
X46149538Y16135802D01*
X46144882Y16150131D01*
X46140591Y16158159D01*
X46116923Y16236179D01*
X46090104Y16318721D01*
X46089160Y16327702D01*
X46088269Y16330639D01*
X46079598Y16418679D01*
X46070000Y16510000D01*
X46079595Y16601300D01*
X46088269Y16689362D01*
X46089160Y16692301D01*
X46090104Y16701279D01*
X46116919Y16783808D01*
X46140591Y16861842D01*
X46144883Y16869873D01*
X46149538Y16884198D01*
X46189999Y16954279D01*
X46225549Y17020788D01*
X46235159Y17032499D01*
X46245704Y17050762D01*
X46295896Y17106507D01*
X46339889Y17160111D01*
X46356259Y17173546D01*
X46374400Y17193693D01*
X46430267Y17234284D01*
X46479212Y17274451D01*
X46503205Y17287276D01*
X46530000Y17306743D01*
X46587633Y17332404D01*
X46638158Y17359409D01*
X46669949Y17369054D01*
X46705704Y17384972D01*
X46761574Y17396848D01*
X46810638Y17411731D01*
X46849691Y17415578D01*
X46893834Y17424960D01*
X46944958Y17424960D01*
X46989999Y17429396D01*
X47035040Y17424960D01*
G37*
G36*
X49575041Y17424960D02*
G01*
X49626166Y17424960D01*
X49670309Y17415578D01*
X49709361Y17411731D01*
X49758421Y17396849D01*
X49814296Y17384972D01*
X49850052Y17369053D01*
X49881841Y17359409D01*
X49932360Y17332407D01*
X49990000Y17306743D01*
X50016796Y17287274D01*
X50040787Y17274451D01*
X50089723Y17234290D01*
X50145600Y17193693D01*
X50163743Y17173543D01*
X50180110Y17160111D01*
X50224092Y17106519D01*
X50274296Y17050762D01*
X50284842Y17032495D01*
X50294450Y17020788D01*
X50329987Y16954303D01*
X50370462Y16884198D01*
X50375118Y16869868D01*
X50379408Y16861842D01*
X50403065Y16783855D01*
X50429896Y16701279D01*
X50430840Y16692296D01*
X50431730Y16689362D01*
X50440387Y16601459D01*
X50450000Y16510000D01*
X50440386Y16418535D01*
X50431730Y16330639D01*
X50430840Y16327707D01*
X50429896Y16318721D01*
X50403061Y16236132D01*
X50379408Y16158159D01*
X50375119Y16150135D01*
X50370462Y16135802D01*
X50329980Y16065686D01*
X50294450Y15999213D01*
X50284844Y15987510D01*
X50274296Y15969238D01*
X50224082Y15913471D01*
X50180110Y15859890D01*
X50163746Y15846461D01*
X50145600Y15826307D01*
X50089712Y15785703D01*
X50040787Y15745550D01*
X50016802Y15732730D01*
X49990000Y15713257D01*
X49932348Y15687589D01*
X49881841Y15660592D01*
X49850059Y15650952D01*
X49814296Y15635028D01*
X49758410Y15623150D01*
X49709361Y15608270D01*
X49670317Y15604425D01*
X49626166Y15595040D01*
X49575031Y15595040D01*
X49530000Y15590605D01*
X49484969Y15595040D01*
X49433834Y15595040D01*
X49389682Y15604425D01*
X49350638Y15608270D01*
X49301585Y15623151D01*
X49245704Y15635028D01*
X49209942Y15650951D01*
X49178158Y15660592D01*
X49127645Y15687592D01*
X49070000Y15713257D01*
X49043200Y15732728D01*
X49019212Y15745550D01*
X48970278Y15785710D01*
X48914400Y15826307D01*
X48896256Y15846458D01*
X48879889Y15859890D01*
X48835905Y15913484D01*
X48785704Y15969238D01*
X48775157Y15987506D01*
X48765549Y15999213D01*
X48730006Y16065709D01*
X48689538Y16135802D01*
X48684882Y16150131D01*
X48680591Y16158159D01*
X48656923Y16236179D01*
X48630104Y16318721D01*
X48629160Y16327702D01*
X48628269Y16330639D01*
X48619597Y16418686D01*
X48610000Y16510000D01*
X48619596Y16601308D01*
X48628269Y16689362D01*
X48629160Y16692301D01*
X48630104Y16701279D01*
X48656919Y16783808D01*
X48680591Y16861842D01*
X48684883Y16869873D01*
X48689538Y16884198D01*
X48729999Y16954279D01*
X48765549Y17020788D01*
X48775159Y17032499D01*
X48785704Y17050762D01*
X48835896Y17106507D01*
X48879889Y17160111D01*
X48896259Y17173546D01*
X48914400Y17193693D01*
X48970267Y17234284D01*
X49019212Y17274451D01*
X49043205Y17287276D01*
X49070000Y17306743D01*
X49127633Y17332404D01*
X49178158Y17359409D01*
X49209949Y17369054D01*
X49245704Y17384972D01*
X49301574Y17396848D01*
X49350638Y17411731D01*
X49389691Y17415578D01*
X49433834Y17424960D01*
X49484959Y17424960D01*
X49530000Y17429396D01*
X49575041Y17424960D01*
G37*
G36*
X54655040Y17424960D02*
G01*
X54706166Y17424960D01*
X54750309Y17415578D01*
X54789361Y17411731D01*
X54838421Y17396849D01*
X54894296Y17384972D01*
X54930052Y17369053D01*
X54961841Y17359409D01*
X55012360Y17332407D01*
X55070000Y17306743D01*
X55096796Y17287274D01*
X55120787Y17274451D01*
X55169723Y17234290D01*
X55225600Y17193693D01*
X55243743Y17173543D01*
X55260110Y17160111D01*
X55304092Y17106519D01*
X55354296Y17050762D01*
X55364842Y17032495D01*
X55374450Y17020788D01*
X55409987Y16954303D01*
X55450462Y16884198D01*
X55455118Y16869868D01*
X55459408Y16861842D01*
X55483065Y16783855D01*
X55509896Y16701279D01*
X55510840Y16692296D01*
X55511730Y16689362D01*
X55520388Y16601451D01*
X55530000Y16510000D01*
X55520385Y16418527D01*
X55511730Y16330639D01*
X55510840Y16327707D01*
X55509896Y16318721D01*
X55483061Y16236132D01*
X55459408Y16158159D01*
X55455119Y16150135D01*
X55450462Y16135802D01*
X55409980Y16065686D01*
X55374450Y15999213D01*
X55364844Y15987510D01*
X55354296Y15969238D01*
X55304082Y15913471D01*
X55260110Y15859890D01*
X55243746Y15846461D01*
X55225600Y15826307D01*
X55169712Y15785703D01*
X55120787Y15745550D01*
X55096802Y15732730D01*
X55070000Y15713257D01*
X55012348Y15687589D01*
X54961841Y15660592D01*
X54930059Y15650952D01*
X54894296Y15635028D01*
X54838410Y15623150D01*
X54789361Y15608270D01*
X54750317Y15604425D01*
X54706166Y15595040D01*
X54655030Y15595040D01*
X54609999Y15590605D01*
X54564968Y15595040D01*
X54513834Y15595040D01*
X54469683Y15604425D01*
X54430638Y15608270D01*
X54381585Y15623151D01*
X54325704Y15635028D01*
X54289942Y15650951D01*
X54258158Y15660592D01*
X54207645Y15687592D01*
X54150000Y15713257D01*
X54123200Y15732728D01*
X54099212Y15745550D01*
X54050278Y15785710D01*
X53994400Y15826307D01*
X53976256Y15846458D01*
X53959889Y15859890D01*
X53915905Y15913484D01*
X53865704Y15969238D01*
X53855157Y15987506D01*
X53845549Y15999213D01*
X53810006Y16065709D01*
X53769538Y16135802D01*
X53764882Y16150131D01*
X53760591Y16158159D01*
X53736923Y16236179D01*
X53710104Y16318721D01*
X53709160Y16327702D01*
X53708269Y16330639D01*
X53699598Y16418679D01*
X53690000Y16510000D01*
X53699595Y16601300D01*
X53708269Y16689362D01*
X53709160Y16692301D01*
X53710104Y16701279D01*
X53736919Y16783808D01*
X53760591Y16861842D01*
X53764883Y16869873D01*
X53769538Y16884198D01*
X53809999Y16954279D01*
X53845549Y17020788D01*
X53855159Y17032499D01*
X53865704Y17050762D01*
X53915896Y17106507D01*
X53959889Y17160111D01*
X53976259Y17173546D01*
X53994400Y17193693D01*
X54050267Y17234284D01*
X54099212Y17274451D01*
X54123205Y17287276D01*
X54150000Y17306743D01*
X54207633Y17332404D01*
X54258158Y17359409D01*
X54289949Y17369054D01*
X54325704Y17384972D01*
X54381574Y17396848D01*
X54430638Y17411731D01*
X54469691Y17415578D01*
X54513834Y17424960D01*
X54564958Y17424960D01*
X54609999Y17429396D01*
X54655040Y17424960D01*
G37*
G36*
X57195041Y17424960D02*
G01*
X57246166Y17424960D01*
X57290309Y17415578D01*
X57329361Y17411731D01*
X57378421Y17396849D01*
X57434296Y17384972D01*
X57470052Y17369053D01*
X57501841Y17359409D01*
X57552360Y17332407D01*
X57610000Y17306743D01*
X57636796Y17287274D01*
X57660787Y17274451D01*
X57709723Y17234290D01*
X57765600Y17193693D01*
X57783743Y17173543D01*
X57800110Y17160111D01*
X57844092Y17106519D01*
X57894296Y17050762D01*
X57904842Y17032495D01*
X57914450Y17020788D01*
X57949987Y16954303D01*
X57990462Y16884198D01*
X57995118Y16869868D01*
X57999408Y16861842D01*
X58023065Y16783855D01*
X58049896Y16701279D01*
X58050840Y16692296D01*
X58051730Y16689362D01*
X58060388Y16601451D01*
X58070000Y16510000D01*
X58060385Y16418527D01*
X58051730Y16330639D01*
X58050840Y16327707D01*
X58049896Y16318721D01*
X58023061Y16236132D01*
X57999408Y16158159D01*
X57995119Y16150135D01*
X57990462Y16135802D01*
X57949980Y16065686D01*
X57914450Y15999213D01*
X57904844Y15987510D01*
X57894296Y15969238D01*
X57844082Y15913471D01*
X57800110Y15859890D01*
X57783746Y15846461D01*
X57765600Y15826307D01*
X57709712Y15785703D01*
X57660787Y15745550D01*
X57636802Y15732730D01*
X57610000Y15713257D01*
X57552348Y15687589D01*
X57501841Y15660592D01*
X57470059Y15650952D01*
X57434296Y15635028D01*
X57378410Y15623150D01*
X57329361Y15608270D01*
X57290317Y15604425D01*
X57246166Y15595040D01*
X57195031Y15595040D01*
X57150000Y15590605D01*
X57104969Y15595040D01*
X57053834Y15595040D01*
X57009682Y15604425D01*
X56970638Y15608270D01*
X56921585Y15623151D01*
X56865704Y15635028D01*
X56829942Y15650951D01*
X56798158Y15660592D01*
X56747645Y15687592D01*
X56690000Y15713257D01*
X56663200Y15732728D01*
X56639212Y15745550D01*
X56590278Y15785710D01*
X56534400Y15826307D01*
X56516256Y15846458D01*
X56499889Y15859890D01*
X56455905Y15913484D01*
X56405704Y15969238D01*
X56395157Y15987506D01*
X56385549Y15999213D01*
X56350006Y16065709D01*
X56309538Y16135802D01*
X56304882Y16150131D01*
X56300591Y16158159D01*
X56276923Y16236179D01*
X56250104Y16318721D01*
X56249160Y16327702D01*
X56248269Y16330639D01*
X56239598Y16418679D01*
X56230000Y16510000D01*
X56239595Y16601300D01*
X56248269Y16689362D01*
X56249160Y16692301D01*
X56250104Y16701279D01*
X56276919Y16783808D01*
X56300591Y16861842D01*
X56304883Y16869873D01*
X56309538Y16884198D01*
X56349999Y16954279D01*
X56385549Y17020788D01*
X56395159Y17032499D01*
X56405704Y17050762D01*
X56455896Y17106507D01*
X56499889Y17160111D01*
X56516259Y17173546D01*
X56534400Y17193693D01*
X56590267Y17234284D01*
X56639212Y17274451D01*
X56663205Y17287276D01*
X56690000Y17306743D01*
X56747633Y17332404D01*
X56798158Y17359409D01*
X56829949Y17369054D01*
X56865704Y17384972D01*
X56921574Y17396848D01*
X56970638Y17411731D01*
X57009691Y17415578D01*
X57053834Y17424960D01*
X57104959Y17424960D01*
X57150000Y17429396D01*
X57195041Y17424960D01*
G37*
G36*
X59735040Y17424960D02*
G01*
X59786166Y17424960D01*
X59830309Y17415578D01*
X59869361Y17411731D01*
X59918421Y17396849D01*
X59974296Y17384972D01*
X60010052Y17369053D01*
X60041841Y17359409D01*
X60092360Y17332407D01*
X60150000Y17306743D01*
X60176796Y17287274D01*
X60200787Y17274451D01*
X60249723Y17234290D01*
X60305600Y17193693D01*
X60323743Y17173543D01*
X60340110Y17160111D01*
X60384092Y17106519D01*
X60434296Y17050762D01*
X60444842Y17032495D01*
X60454450Y17020788D01*
X60489987Y16954303D01*
X60530462Y16884198D01*
X60535118Y16869868D01*
X60539408Y16861842D01*
X60563065Y16783855D01*
X60589896Y16701279D01*
X60590840Y16692296D01*
X60591730Y16689362D01*
X60600388Y16601451D01*
X60610000Y16510000D01*
X60600385Y16418527D01*
X60591730Y16330639D01*
X60590840Y16327707D01*
X60589896Y16318721D01*
X60563061Y16236132D01*
X60539408Y16158159D01*
X60535119Y16150135D01*
X60530462Y16135802D01*
X60489980Y16065686D01*
X60454450Y15999213D01*
X60444844Y15987510D01*
X60434296Y15969238D01*
X60384082Y15913471D01*
X60340110Y15859890D01*
X60323746Y15846461D01*
X60305600Y15826307D01*
X60249712Y15785703D01*
X60200787Y15745550D01*
X60176802Y15732730D01*
X60150000Y15713257D01*
X60092348Y15687589D01*
X60041841Y15660592D01*
X60010059Y15650952D01*
X59974296Y15635028D01*
X59918410Y15623150D01*
X59869361Y15608270D01*
X59830317Y15604425D01*
X59786166Y15595040D01*
X59735031Y15595040D01*
X59690000Y15590605D01*
X59644969Y15595040D01*
X59593834Y15595040D01*
X59549682Y15604425D01*
X59510638Y15608270D01*
X59461585Y15623151D01*
X59405704Y15635028D01*
X59369942Y15650951D01*
X59338158Y15660592D01*
X59287645Y15687592D01*
X59230000Y15713257D01*
X59203200Y15732728D01*
X59179212Y15745550D01*
X59130278Y15785710D01*
X59074400Y15826307D01*
X59056256Y15846458D01*
X59039889Y15859890D01*
X58995905Y15913484D01*
X58945704Y15969238D01*
X58935157Y15987506D01*
X58925549Y15999213D01*
X58890006Y16065709D01*
X58849538Y16135802D01*
X58844882Y16150131D01*
X58840591Y16158159D01*
X58816923Y16236179D01*
X58790104Y16318721D01*
X58789160Y16327702D01*
X58788269Y16330639D01*
X58779598Y16418679D01*
X58770000Y16510000D01*
X58779595Y16601300D01*
X58788269Y16689362D01*
X58789160Y16692301D01*
X58790104Y16701279D01*
X58816919Y16783808D01*
X58840591Y16861842D01*
X58844883Y16869873D01*
X58849538Y16884198D01*
X58889999Y16954279D01*
X58925549Y17020788D01*
X58935159Y17032499D01*
X58945704Y17050762D01*
X58995896Y17106507D01*
X59039889Y17160111D01*
X59056259Y17173546D01*
X59074400Y17193693D01*
X59130267Y17234284D01*
X59179212Y17274451D01*
X59203205Y17287276D01*
X59230000Y17306743D01*
X59287633Y17332404D01*
X59338158Y17359409D01*
X59369949Y17369054D01*
X59405704Y17384972D01*
X59461574Y17396848D01*
X59510638Y17411731D01*
X59549691Y17415578D01*
X59593834Y17424960D01*
X59644958Y17424960D01*
X59689999Y17429396D01*
X59735040Y17424960D01*
G37*
G36*
X62275041Y17424960D02*
G01*
X62326166Y17424960D01*
X62370309Y17415578D01*
X62409361Y17411731D01*
X62458421Y17396849D01*
X62514296Y17384972D01*
X62550052Y17369053D01*
X62581841Y17359409D01*
X62632360Y17332407D01*
X62690000Y17306743D01*
X62716796Y17287274D01*
X62740787Y17274451D01*
X62789723Y17234290D01*
X62845600Y17193693D01*
X62863743Y17173543D01*
X62880110Y17160111D01*
X62924092Y17106519D01*
X62974296Y17050762D01*
X62984842Y17032495D01*
X62994450Y17020788D01*
X63029987Y16954303D01*
X63070462Y16884198D01*
X63075118Y16869868D01*
X63079408Y16861842D01*
X63103065Y16783855D01*
X63129896Y16701279D01*
X63130840Y16692296D01*
X63131730Y16689362D01*
X63140388Y16601451D01*
X63150000Y16510000D01*
X63140385Y16418527D01*
X63131730Y16330639D01*
X63130840Y16327707D01*
X63129896Y16318721D01*
X63103061Y16236132D01*
X63079408Y16158159D01*
X63075119Y16150135D01*
X63070462Y16135802D01*
X63029980Y16065686D01*
X62994450Y15999213D01*
X62984844Y15987510D01*
X62974296Y15969238D01*
X62924082Y15913471D01*
X62880110Y15859890D01*
X62863746Y15846461D01*
X62845600Y15826307D01*
X62789712Y15785703D01*
X62740787Y15745550D01*
X62716802Y15732730D01*
X62690000Y15713257D01*
X62632348Y15687589D01*
X62581841Y15660592D01*
X62550059Y15650952D01*
X62514296Y15635028D01*
X62458410Y15623150D01*
X62409361Y15608270D01*
X62370317Y15604425D01*
X62326166Y15595040D01*
X62275031Y15595040D01*
X62230000Y15590605D01*
X62184969Y15595040D01*
X62133834Y15595040D01*
X62089682Y15604425D01*
X62050638Y15608270D01*
X62001585Y15623151D01*
X61945704Y15635028D01*
X61909942Y15650951D01*
X61878158Y15660592D01*
X61827645Y15687592D01*
X61770000Y15713257D01*
X61743200Y15732728D01*
X61719212Y15745550D01*
X61670278Y15785710D01*
X61614400Y15826307D01*
X61596256Y15846458D01*
X61579889Y15859890D01*
X61535905Y15913484D01*
X61485704Y15969238D01*
X61475157Y15987506D01*
X61465549Y15999213D01*
X61430006Y16065709D01*
X61389538Y16135802D01*
X61384882Y16150131D01*
X61380591Y16158159D01*
X61356923Y16236179D01*
X61330104Y16318721D01*
X61329160Y16327702D01*
X61328269Y16330639D01*
X61319598Y16418679D01*
X61310000Y16510000D01*
X61319595Y16601300D01*
X61328269Y16689362D01*
X61329160Y16692301D01*
X61330104Y16701279D01*
X61356919Y16783808D01*
X61380591Y16861842D01*
X61384883Y16869873D01*
X61389538Y16884198D01*
X61429999Y16954279D01*
X61465549Y17020788D01*
X61475159Y17032499D01*
X61485704Y17050762D01*
X61535896Y17106507D01*
X61579889Y17160111D01*
X61596259Y17173546D01*
X61614400Y17193693D01*
X61670267Y17234284D01*
X61719212Y17274451D01*
X61743205Y17287276D01*
X61770000Y17306743D01*
X61827633Y17332404D01*
X61878158Y17359409D01*
X61909949Y17369054D01*
X61945704Y17384972D01*
X62001574Y17396848D01*
X62050638Y17411731D01*
X62089691Y17415578D01*
X62133834Y17424960D01*
X62184959Y17424960D01*
X62230000Y17429396D01*
X62275041Y17424960D01*
G37*
G36*
X67355040Y17424960D02*
G01*
X67406166Y17424960D01*
X67450309Y17415578D01*
X67489361Y17411731D01*
X67538421Y17396849D01*
X67594296Y17384972D01*
X67630052Y17369053D01*
X67661841Y17359409D01*
X67712360Y17332407D01*
X67770000Y17306743D01*
X67796796Y17287274D01*
X67820787Y17274451D01*
X67869723Y17234290D01*
X67925600Y17193693D01*
X67943743Y17173543D01*
X67960110Y17160111D01*
X68004092Y17106519D01*
X68054296Y17050762D01*
X68064842Y17032495D01*
X68074450Y17020788D01*
X68109987Y16954303D01*
X68150462Y16884198D01*
X68155118Y16869868D01*
X68159408Y16861842D01*
X68183065Y16783855D01*
X68209896Y16701279D01*
X68210840Y16692296D01*
X68211730Y16689362D01*
X68220388Y16601451D01*
X68230000Y16510000D01*
X68220385Y16418527D01*
X68211730Y16330639D01*
X68210840Y16327707D01*
X68209896Y16318721D01*
X68183061Y16236132D01*
X68159408Y16158159D01*
X68155119Y16150135D01*
X68150462Y16135802D01*
X68109980Y16065686D01*
X68074450Y15999213D01*
X68064844Y15987510D01*
X68054296Y15969238D01*
X68004082Y15913471D01*
X67960110Y15859890D01*
X67943746Y15846461D01*
X67925600Y15826307D01*
X67869712Y15785703D01*
X67820787Y15745550D01*
X67796802Y15732730D01*
X67770000Y15713257D01*
X67712348Y15687589D01*
X67661841Y15660592D01*
X67630059Y15650952D01*
X67594296Y15635028D01*
X67538410Y15623150D01*
X67489361Y15608270D01*
X67450317Y15604425D01*
X67406166Y15595040D01*
X67355030Y15595040D01*
X67309999Y15590605D01*
X67264968Y15595040D01*
X67213834Y15595040D01*
X67169683Y15604425D01*
X67130638Y15608270D01*
X67081585Y15623151D01*
X67025704Y15635028D01*
X66989942Y15650951D01*
X66958158Y15660592D01*
X66907645Y15687592D01*
X66850000Y15713257D01*
X66823200Y15732728D01*
X66799212Y15745550D01*
X66750278Y15785710D01*
X66694400Y15826307D01*
X66676256Y15846458D01*
X66659889Y15859890D01*
X66615905Y15913484D01*
X66565704Y15969238D01*
X66555157Y15987506D01*
X66545549Y15999213D01*
X66510006Y16065709D01*
X66469538Y16135802D01*
X66464882Y16150131D01*
X66460591Y16158159D01*
X66436923Y16236179D01*
X66410104Y16318721D01*
X66409160Y16327702D01*
X66408269Y16330639D01*
X66399598Y16418679D01*
X66390000Y16510000D01*
X66399595Y16601300D01*
X66408269Y16689362D01*
X66409160Y16692301D01*
X66410104Y16701279D01*
X66436919Y16783808D01*
X66460591Y16861842D01*
X66464883Y16869873D01*
X66469538Y16884198D01*
X66509999Y16954279D01*
X66545549Y17020788D01*
X66555159Y17032499D01*
X66565704Y17050762D01*
X66615896Y17106507D01*
X66659889Y17160111D01*
X66676259Y17173546D01*
X66694400Y17193693D01*
X66750267Y17234284D01*
X66799212Y17274451D01*
X66823205Y17287276D01*
X66850000Y17306743D01*
X66907633Y17332404D01*
X66958158Y17359409D01*
X66989949Y17369054D01*
X67025704Y17384972D01*
X67081574Y17396848D01*
X67130638Y17411731D01*
X67169691Y17415578D01*
X67213834Y17424960D01*
X67264958Y17424960D01*
X67309999Y17429396D01*
X67355040Y17424960D01*
G37*
G36*
X69895040Y17424960D02*
G01*
X69946166Y17424960D01*
X69990309Y17415578D01*
X70029361Y17411731D01*
X70078421Y17396849D01*
X70134296Y17384972D01*
X70170052Y17369053D01*
X70201841Y17359409D01*
X70252360Y17332407D01*
X70310000Y17306743D01*
X70336796Y17287274D01*
X70360787Y17274451D01*
X70409723Y17234290D01*
X70465600Y17193693D01*
X70483743Y17173543D01*
X70500110Y17160111D01*
X70544092Y17106519D01*
X70594296Y17050762D01*
X70604842Y17032495D01*
X70614450Y17020788D01*
X70649987Y16954303D01*
X70690462Y16884198D01*
X70695118Y16869868D01*
X70699408Y16861842D01*
X70723065Y16783855D01*
X70749896Y16701279D01*
X70750840Y16692296D01*
X70751730Y16689362D01*
X70760388Y16601451D01*
X70770000Y16510000D01*
X70760385Y16418527D01*
X70751730Y16330639D01*
X70750840Y16327707D01*
X70749896Y16318721D01*
X70723061Y16236132D01*
X70699408Y16158159D01*
X70695119Y16150135D01*
X70690462Y16135802D01*
X70649980Y16065686D01*
X70614450Y15999213D01*
X70604844Y15987510D01*
X70594296Y15969238D01*
X70544082Y15913471D01*
X70500110Y15859890D01*
X70483746Y15846461D01*
X70465600Y15826307D01*
X70409712Y15785703D01*
X70360787Y15745550D01*
X70336802Y15732730D01*
X70310000Y15713257D01*
X70252348Y15687589D01*
X70201841Y15660592D01*
X70170059Y15650952D01*
X70134296Y15635028D01*
X70078410Y15623150D01*
X70029361Y15608270D01*
X69990317Y15604425D01*
X69946166Y15595040D01*
X69895030Y15595040D01*
X69849999Y15590605D01*
X69804968Y15595040D01*
X69753834Y15595040D01*
X69709683Y15604425D01*
X69670638Y15608270D01*
X69621585Y15623151D01*
X69565704Y15635028D01*
X69529942Y15650951D01*
X69498158Y15660592D01*
X69447645Y15687592D01*
X69390000Y15713257D01*
X69363200Y15732728D01*
X69339212Y15745550D01*
X69290278Y15785710D01*
X69234400Y15826307D01*
X69216256Y15846458D01*
X69199889Y15859890D01*
X69155905Y15913484D01*
X69105704Y15969238D01*
X69095157Y15987506D01*
X69085549Y15999213D01*
X69050006Y16065709D01*
X69009538Y16135802D01*
X69004882Y16150131D01*
X69000591Y16158159D01*
X68976923Y16236179D01*
X68950104Y16318721D01*
X68949160Y16327702D01*
X68948269Y16330639D01*
X68939598Y16418679D01*
X68930000Y16510000D01*
X68939595Y16601300D01*
X68948269Y16689362D01*
X68949160Y16692301D01*
X68950104Y16701279D01*
X68976919Y16783808D01*
X69000591Y16861842D01*
X69004883Y16869873D01*
X69009538Y16884198D01*
X69049999Y16954279D01*
X69085549Y17020788D01*
X69095159Y17032499D01*
X69105704Y17050762D01*
X69155896Y17106507D01*
X69199889Y17160111D01*
X69216259Y17173546D01*
X69234400Y17193693D01*
X69290267Y17234284D01*
X69339212Y17274451D01*
X69363205Y17287276D01*
X69390000Y17306743D01*
X69447633Y17332404D01*
X69498158Y17359409D01*
X69529949Y17369054D01*
X69565704Y17384972D01*
X69621574Y17396848D01*
X69670638Y17411731D01*
X69709691Y17415578D01*
X69753834Y17424960D01*
X69804958Y17424960D01*
X69849999Y17429396D01*
X69895040Y17424960D01*
G37*
G36*
X72435040Y17424960D02*
G01*
X72486166Y17424960D01*
X72530309Y17415578D01*
X72569361Y17411731D01*
X72618421Y17396849D01*
X72674296Y17384972D01*
X72710052Y17369053D01*
X72741841Y17359409D01*
X72792360Y17332407D01*
X72850000Y17306743D01*
X72876796Y17287274D01*
X72900787Y17274451D01*
X72949723Y17234290D01*
X73005600Y17193693D01*
X73023743Y17173543D01*
X73040110Y17160111D01*
X73084092Y17106519D01*
X73134296Y17050762D01*
X73144842Y17032495D01*
X73154450Y17020788D01*
X73189987Y16954303D01*
X73230462Y16884198D01*
X73235118Y16869868D01*
X73239408Y16861842D01*
X73263065Y16783855D01*
X73289896Y16701279D01*
X73290840Y16692296D01*
X73291730Y16689362D01*
X73300387Y16601459D01*
X73310000Y16510000D01*
X73300386Y16418535D01*
X73291730Y16330639D01*
X73290840Y16327707D01*
X73289896Y16318721D01*
X73263061Y16236132D01*
X73239408Y16158159D01*
X73235119Y16150135D01*
X73230462Y16135802D01*
X73189980Y16065686D01*
X73154450Y15999213D01*
X73144844Y15987510D01*
X73134296Y15969238D01*
X73084082Y15913471D01*
X73040110Y15859890D01*
X73023746Y15846461D01*
X73005600Y15826307D01*
X72949712Y15785703D01*
X72900787Y15745550D01*
X72876802Y15732730D01*
X72850000Y15713257D01*
X72792348Y15687589D01*
X72741841Y15660592D01*
X72710059Y15650952D01*
X72674296Y15635028D01*
X72618410Y15623150D01*
X72569361Y15608270D01*
X72530317Y15604425D01*
X72486166Y15595040D01*
X72435030Y15595040D01*
X72389999Y15590605D01*
X72344968Y15595040D01*
X72293834Y15595040D01*
X72249683Y15604425D01*
X72210638Y15608270D01*
X72161585Y15623151D01*
X72105704Y15635028D01*
X72069942Y15650951D01*
X72038158Y15660592D01*
X71987645Y15687592D01*
X71930000Y15713257D01*
X71903200Y15732728D01*
X71879212Y15745550D01*
X71830278Y15785710D01*
X71774400Y15826307D01*
X71756256Y15846458D01*
X71739889Y15859890D01*
X71695905Y15913484D01*
X71645704Y15969238D01*
X71635157Y15987506D01*
X71625549Y15999213D01*
X71590006Y16065709D01*
X71549538Y16135802D01*
X71544882Y16150131D01*
X71540591Y16158159D01*
X71516923Y16236179D01*
X71490104Y16318721D01*
X71489160Y16327702D01*
X71488269Y16330639D01*
X71479598Y16418679D01*
X71470000Y16510000D01*
X71479595Y16601300D01*
X71488269Y16689362D01*
X71489160Y16692301D01*
X71490104Y16701279D01*
X71516919Y16783808D01*
X71540591Y16861842D01*
X71544883Y16869873D01*
X71549538Y16884198D01*
X71589999Y16954279D01*
X71625549Y17020788D01*
X71635159Y17032499D01*
X71645704Y17050762D01*
X71695896Y17106507D01*
X71739889Y17160111D01*
X71756259Y17173546D01*
X71774400Y17193693D01*
X71830267Y17234284D01*
X71879212Y17274451D01*
X71903205Y17287276D01*
X71930000Y17306743D01*
X71987633Y17332404D01*
X72038158Y17359409D01*
X72069949Y17369054D01*
X72105704Y17384972D01*
X72161574Y17396848D01*
X72210638Y17411731D01*
X72249691Y17415578D01*
X72293834Y17424960D01*
X72344958Y17424960D01*
X72389999Y17429396D01*
X72435040Y17424960D01*
G37*
G36*
X74975040Y17424960D02*
G01*
X75026166Y17424960D01*
X75070309Y17415578D01*
X75109361Y17411731D01*
X75158421Y17396849D01*
X75214296Y17384972D01*
X75250052Y17369053D01*
X75281841Y17359409D01*
X75332360Y17332407D01*
X75390000Y17306743D01*
X75416796Y17287274D01*
X75440787Y17274451D01*
X75489723Y17234290D01*
X75545600Y17193693D01*
X75563743Y17173543D01*
X75580110Y17160111D01*
X75624092Y17106519D01*
X75674296Y17050762D01*
X75684842Y17032495D01*
X75694450Y17020788D01*
X75729987Y16954303D01*
X75770462Y16884198D01*
X75775118Y16869868D01*
X75779408Y16861842D01*
X75803065Y16783855D01*
X75829896Y16701279D01*
X75830840Y16692296D01*
X75831730Y16689362D01*
X75840388Y16601451D01*
X75850000Y16510000D01*
X75840385Y16418527D01*
X75831730Y16330639D01*
X75830840Y16327707D01*
X75829896Y16318721D01*
X75803061Y16236132D01*
X75779408Y16158159D01*
X75775119Y16150135D01*
X75770462Y16135802D01*
X75729980Y16065686D01*
X75694450Y15999213D01*
X75684844Y15987510D01*
X75674296Y15969238D01*
X75624082Y15913471D01*
X75580110Y15859890D01*
X75563746Y15846461D01*
X75545600Y15826307D01*
X75489712Y15785703D01*
X75440787Y15745550D01*
X75416802Y15732730D01*
X75390000Y15713257D01*
X75332348Y15687589D01*
X75281841Y15660592D01*
X75250059Y15650952D01*
X75214296Y15635028D01*
X75158410Y15623150D01*
X75109361Y15608270D01*
X75070317Y15604425D01*
X75026166Y15595040D01*
X74975030Y15595040D01*
X74929999Y15590605D01*
X74884968Y15595040D01*
X74833834Y15595040D01*
X74789683Y15604425D01*
X74750638Y15608270D01*
X74701585Y15623151D01*
X74645704Y15635028D01*
X74609942Y15650951D01*
X74578158Y15660592D01*
X74527645Y15687592D01*
X74470000Y15713257D01*
X74443200Y15732728D01*
X74419212Y15745550D01*
X74370278Y15785710D01*
X74314400Y15826307D01*
X74296256Y15846458D01*
X74279889Y15859890D01*
X74235905Y15913484D01*
X74185704Y15969238D01*
X74175157Y15987506D01*
X74165549Y15999213D01*
X74130006Y16065709D01*
X74089538Y16135802D01*
X74084882Y16150131D01*
X74080591Y16158159D01*
X74056923Y16236179D01*
X74030104Y16318721D01*
X74029160Y16327702D01*
X74028269Y16330639D01*
X74019598Y16418679D01*
X74010000Y16510000D01*
X74019595Y16601300D01*
X74028269Y16689362D01*
X74029160Y16692301D01*
X74030104Y16701279D01*
X74056919Y16783808D01*
X74080591Y16861842D01*
X74084883Y16869873D01*
X74089538Y16884198D01*
X74129999Y16954279D01*
X74165549Y17020788D01*
X74175159Y17032499D01*
X74185704Y17050762D01*
X74235896Y17106507D01*
X74279889Y17160111D01*
X74296259Y17173546D01*
X74314400Y17193693D01*
X74370267Y17234284D01*
X74419212Y17274451D01*
X74443205Y17287276D01*
X74470000Y17306743D01*
X74527633Y17332404D01*
X74578158Y17359409D01*
X74609949Y17369054D01*
X74645704Y17384972D01*
X74701574Y17396848D01*
X74750638Y17411731D01*
X74789691Y17415578D01*
X74833834Y17424960D01*
X74884958Y17424960D01*
X74929999Y17429396D01*
X74975040Y17424960D01*
G37*
G36*
X80055041Y17424960D02*
G01*
X80106166Y17424960D01*
X80150309Y17415578D01*
X80189361Y17411731D01*
X80238421Y17396849D01*
X80294296Y17384972D01*
X80330052Y17369053D01*
X80361841Y17359409D01*
X80412360Y17332407D01*
X80470000Y17306743D01*
X80496796Y17287274D01*
X80520787Y17274451D01*
X80569723Y17234290D01*
X80625600Y17193693D01*
X80643743Y17173543D01*
X80660110Y17160111D01*
X80704092Y17106519D01*
X80754296Y17050762D01*
X80764842Y17032495D01*
X80774450Y17020788D01*
X80809987Y16954303D01*
X80850462Y16884198D01*
X80855118Y16869868D01*
X80859408Y16861842D01*
X80883065Y16783855D01*
X80909896Y16701279D01*
X80910840Y16692296D01*
X80911730Y16689362D01*
X80920388Y16601451D01*
X80930000Y16510000D01*
X80920385Y16418527D01*
X80911730Y16330639D01*
X80910840Y16327707D01*
X80909896Y16318721D01*
X80883061Y16236132D01*
X80859408Y16158159D01*
X80855119Y16150135D01*
X80850462Y16135802D01*
X80809980Y16065686D01*
X80774450Y15999213D01*
X80764844Y15987510D01*
X80754296Y15969238D01*
X80704082Y15913471D01*
X80660110Y15859890D01*
X80643746Y15846461D01*
X80625600Y15826307D01*
X80569712Y15785703D01*
X80520787Y15745550D01*
X80496802Y15732730D01*
X80470000Y15713257D01*
X80412348Y15687589D01*
X80361841Y15660592D01*
X80330059Y15650952D01*
X80294296Y15635028D01*
X80238410Y15623150D01*
X80189361Y15608270D01*
X80150317Y15604425D01*
X80106166Y15595040D01*
X80055031Y15595040D01*
X80010000Y15590605D01*
X79964969Y15595040D01*
X79913834Y15595040D01*
X79869682Y15604425D01*
X79830638Y15608270D01*
X79781585Y15623151D01*
X79725704Y15635028D01*
X79689942Y15650951D01*
X79658158Y15660592D01*
X79607645Y15687592D01*
X79550000Y15713257D01*
X79523200Y15732728D01*
X79499212Y15745550D01*
X79450278Y15785710D01*
X79394400Y15826307D01*
X79376256Y15846458D01*
X79359889Y15859890D01*
X79315905Y15913484D01*
X79265704Y15969238D01*
X79255157Y15987506D01*
X79245549Y15999213D01*
X79210006Y16065709D01*
X79169538Y16135802D01*
X79164882Y16150131D01*
X79160591Y16158159D01*
X79136923Y16236179D01*
X79110104Y16318721D01*
X79109160Y16327702D01*
X79108269Y16330639D01*
X79099598Y16418679D01*
X79090000Y16510000D01*
X79099595Y16601300D01*
X79108269Y16689362D01*
X79109160Y16692301D01*
X79110104Y16701279D01*
X79136919Y16783808D01*
X79160591Y16861842D01*
X79164883Y16869873D01*
X79169538Y16884198D01*
X79209999Y16954279D01*
X79245549Y17020788D01*
X79255159Y17032499D01*
X79265704Y17050762D01*
X79315896Y17106507D01*
X79359889Y17160111D01*
X79376259Y17173546D01*
X79394400Y17193693D01*
X79450267Y17234284D01*
X79499212Y17274451D01*
X79523205Y17287276D01*
X79550000Y17306743D01*
X79607633Y17332404D01*
X79658158Y17359409D01*
X79689949Y17369054D01*
X79725704Y17384972D01*
X79781574Y17396848D01*
X79830638Y17411731D01*
X79869691Y17415578D01*
X79913834Y17424960D01*
X79964959Y17424960D01*
X80010000Y17429396D01*
X80055041Y17424960D01*
G37*
G36*
X82595041Y17424960D02*
G01*
X82646166Y17424960D01*
X82690309Y17415578D01*
X82729361Y17411731D01*
X82778421Y17396849D01*
X82834296Y17384972D01*
X82870052Y17369053D01*
X82901841Y17359409D01*
X82952360Y17332407D01*
X83010000Y17306743D01*
X83036796Y17287274D01*
X83060787Y17274451D01*
X83109723Y17234290D01*
X83165600Y17193693D01*
X83183743Y17173543D01*
X83200110Y17160111D01*
X83244092Y17106519D01*
X83294296Y17050762D01*
X83304842Y17032495D01*
X83314450Y17020788D01*
X83349987Y16954303D01*
X83390462Y16884198D01*
X83395118Y16869868D01*
X83399408Y16861842D01*
X83423065Y16783855D01*
X83449896Y16701279D01*
X83450840Y16692296D01*
X83451730Y16689362D01*
X83460388Y16601451D01*
X83470000Y16510000D01*
X83460385Y16418527D01*
X83451730Y16330639D01*
X83450840Y16327707D01*
X83449896Y16318721D01*
X83423061Y16236132D01*
X83399408Y16158159D01*
X83395119Y16150135D01*
X83390462Y16135802D01*
X83349980Y16065686D01*
X83314450Y15999213D01*
X83304844Y15987510D01*
X83294296Y15969238D01*
X83244082Y15913471D01*
X83200110Y15859890D01*
X83183746Y15846461D01*
X83165600Y15826307D01*
X83109712Y15785703D01*
X83060787Y15745550D01*
X83036802Y15732730D01*
X83010000Y15713257D01*
X82952348Y15687589D01*
X82901841Y15660592D01*
X82870059Y15650952D01*
X82834296Y15635028D01*
X82778410Y15623150D01*
X82729361Y15608270D01*
X82690317Y15604425D01*
X82646166Y15595040D01*
X82595031Y15595040D01*
X82550000Y15590605D01*
X82504969Y15595040D01*
X82453834Y15595040D01*
X82409682Y15604425D01*
X82370638Y15608270D01*
X82321585Y15623151D01*
X82265704Y15635028D01*
X82229942Y15650951D01*
X82198158Y15660592D01*
X82147645Y15687592D01*
X82090000Y15713257D01*
X82063200Y15732728D01*
X82039212Y15745550D01*
X81990278Y15785710D01*
X81934400Y15826307D01*
X81916256Y15846458D01*
X81899889Y15859890D01*
X81855905Y15913484D01*
X81805704Y15969238D01*
X81795157Y15987506D01*
X81785549Y15999213D01*
X81750006Y16065709D01*
X81709538Y16135802D01*
X81704882Y16150131D01*
X81700591Y16158159D01*
X81676923Y16236179D01*
X81650104Y16318721D01*
X81649160Y16327702D01*
X81648269Y16330639D01*
X81639598Y16418679D01*
X81630000Y16510000D01*
X81639595Y16601300D01*
X81648269Y16689362D01*
X81649160Y16692301D01*
X81650104Y16701279D01*
X81676919Y16783808D01*
X81700591Y16861842D01*
X81704883Y16869873D01*
X81709538Y16884198D01*
X81749999Y16954279D01*
X81785549Y17020788D01*
X81795159Y17032499D01*
X81805704Y17050762D01*
X81855896Y17106507D01*
X81899889Y17160111D01*
X81916259Y17173546D01*
X81934400Y17193693D01*
X81990267Y17234284D01*
X82039212Y17274451D01*
X82063205Y17287276D01*
X82090000Y17306743D01*
X82147633Y17332404D01*
X82198158Y17359409D01*
X82229949Y17369054D01*
X82265704Y17384972D01*
X82321574Y17396848D01*
X82370638Y17411731D01*
X82409691Y17415578D01*
X82453834Y17424960D01*
X82504959Y17424960D01*
X82550000Y17429396D01*
X82595041Y17424960D01*
G37*
G36*
X85135041Y17424960D02*
G01*
X85186166Y17424960D01*
X85230309Y17415578D01*
X85269361Y17411731D01*
X85318421Y17396849D01*
X85374296Y17384972D01*
X85410052Y17369053D01*
X85441841Y17359409D01*
X85492360Y17332407D01*
X85550000Y17306743D01*
X85576796Y17287274D01*
X85600787Y17274451D01*
X85649723Y17234290D01*
X85705600Y17193693D01*
X85723743Y17173543D01*
X85740110Y17160111D01*
X85784092Y17106519D01*
X85834296Y17050762D01*
X85844842Y17032495D01*
X85854450Y17020788D01*
X85889987Y16954303D01*
X85930462Y16884198D01*
X85935118Y16869868D01*
X85939408Y16861842D01*
X85963065Y16783855D01*
X85989896Y16701279D01*
X85990840Y16692296D01*
X85991730Y16689362D01*
X86000388Y16601451D01*
X86010000Y16510000D01*
X86000385Y16418527D01*
X85991730Y16330639D01*
X85990840Y16327707D01*
X85989896Y16318721D01*
X85963061Y16236132D01*
X85939408Y16158159D01*
X85935119Y16150135D01*
X85930462Y16135802D01*
X85889980Y16065686D01*
X85854450Y15999213D01*
X85844844Y15987510D01*
X85834296Y15969238D01*
X85784082Y15913471D01*
X85740110Y15859890D01*
X85723746Y15846461D01*
X85705600Y15826307D01*
X85649712Y15785703D01*
X85600787Y15745550D01*
X85576802Y15732730D01*
X85550000Y15713257D01*
X85492348Y15687589D01*
X85441841Y15660592D01*
X85410059Y15650952D01*
X85374296Y15635028D01*
X85318410Y15623150D01*
X85269361Y15608270D01*
X85230317Y15604425D01*
X85186166Y15595040D01*
X85135031Y15595040D01*
X85090000Y15590605D01*
X85044969Y15595040D01*
X84993834Y15595040D01*
X84949682Y15604425D01*
X84910638Y15608270D01*
X84861585Y15623151D01*
X84805704Y15635028D01*
X84769942Y15650951D01*
X84738158Y15660592D01*
X84687645Y15687592D01*
X84630000Y15713257D01*
X84603200Y15732728D01*
X84579212Y15745550D01*
X84530278Y15785710D01*
X84474400Y15826307D01*
X84456256Y15846458D01*
X84439889Y15859890D01*
X84395905Y15913484D01*
X84345704Y15969238D01*
X84335157Y15987506D01*
X84325549Y15999213D01*
X84290006Y16065709D01*
X84249538Y16135802D01*
X84244882Y16150131D01*
X84240591Y16158159D01*
X84216923Y16236179D01*
X84190104Y16318721D01*
X84189160Y16327702D01*
X84188269Y16330639D01*
X84179598Y16418679D01*
X84170000Y16510000D01*
X84179595Y16601300D01*
X84188269Y16689362D01*
X84189160Y16692301D01*
X84190104Y16701279D01*
X84216919Y16783808D01*
X84240591Y16861842D01*
X84244883Y16869873D01*
X84249538Y16884198D01*
X84289999Y16954279D01*
X84325549Y17020788D01*
X84335159Y17032499D01*
X84345704Y17050762D01*
X84395896Y17106507D01*
X84439889Y17160111D01*
X84456259Y17173546D01*
X84474400Y17193693D01*
X84530267Y17234284D01*
X84579212Y17274451D01*
X84603205Y17287276D01*
X84630000Y17306743D01*
X84687633Y17332404D01*
X84738158Y17359409D01*
X84769949Y17369054D01*
X84805704Y17384972D01*
X84861574Y17396848D01*
X84910638Y17411731D01*
X84949691Y17415578D01*
X84993834Y17424960D01*
X85044959Y17424960D01*
X85090000Y17429396D01*
X85135041Y17424960D01*
G37*
G36*
X87675041Y17424960D02*
G01*
X87726166Y17424960D01*
X87770309Y17415578D01*
X87809361Y17411731D01*
X87858421Y17396849D01*
X87914296Y17384972D01*
X87950052Y17369053D01*
X87981841Y17359409D01*
X88032360Y17332407D01*
X88090000Y17306743D01*
X88116796Y17287274D01*
X88140787Y17274451D01*
X88189723Y17234290D01*
X88245600Y17193693D01*
X88263743Y17173543D01*
X88280110Y17160111D01*
X88324092Y17106519D01*
X88374296Y17050762D01*
X88384842Y17032495D01*
X88394450Y17020788D01*
X88429987Y16954303D01*
X88470462Y16884198D01*
X88475118Y16869868D01*
X88479408Y16861842D01*
X88503065Y16783855D01*
X88529896Y16701279D01*
X88530840Y16692296D01*
X88531730Y16689362D01*
X88540388Y16601451D01*
X88550000Y16510000D01*
X88540385Y16418527D01*
X88531730Y16330639D01*
X88530840Y16327707D01*
X88529896Y16318721D01*
X88503061Y16236132D01*
X88479408Y16158159D01*
X88475119Y16150135D01*
X88470462Y16135802D01*
X88429980Y16065686D01*
X88394450Y15999213D01*
X88384844Y15987510D01*
X88374296Y15969238D01*
X88324082Y15913471D01*
X88280110Y15859890D01*
X88263746Y15846461D01*
X88245600Y15826307D01*
X88189712Y15785703D01*
X88140787Y15745550D01*
X88116802Y15732730D01*
X88090000Y15713257D01*
X88032348Y15687589D01*
X87981841Y15660592D01*
X87950059Y15650952D01*
X87914296Y15635028D01*
X87858410Y15623150D01*
X87809361Y15608270D01*
X87770317Y15604425D01*
X87726166Y15595040D01*
X87675031Y15595040D01*
X87630000Y15590605D01*
X87584969Y15595040D01*
X87533834Y15595040D01*
X87489682Y15604425D01*
X87450638Y15608270D01*
X87401585Y15623151D01*
X87345704Y15635028D01*
X87309942Y15650951D01*
X87278158Y15660592D01*
X87227645Y15687592D01*
X87170000Y15713257D01*
X87143200Y15732728D01*
X87119212Y15745550D01*
X87070278Y15785710D01*
X87014400Y15826307D01*
X86996256Y15846458D01*
X86979889Y15859890D01*
X86935905Y15913484D01*
X86885704Y15969238D01*
X86875157Y15987506D01*
X86865549Y15999213D01*
X86830006Y16065709D01*
X86789538Y16135802D01*
X86784882Y16150131D01*
X86780591Y16158159D01*
X86756923Y16236179D01*
X86730104Y16318721D01*
X86729160Y16327702D01*
X86728269Y16330639D01*
X86719598Y16418679D01*
X86710000Y16510000D01*
X86719595Y16601300D01*
X86728269Y16689362D01*
X86729160Y16692301D01*
X86730104Y16701279D01*
X86756919Y16783808D01*
X86780591Y16861842D01*
X86784883Y16869873D01*
X86789538Y16884198D01*
X86829999Y16954279D01*
X86865549Y17020788D01*
X86875159Y17032499D01*
X86885704Y17050762D01*
X86935896Y17106507D01*
X86979889Y17160111D01*
X86996259Y17173546D01*
X87014400Y17193693D01*
X87070267Y17234284D01*
X87119212Y17274451D01*
X87143205Y17287276D01*
X87170000Y17306743D01*
X87227633Y17332404D01*
X87278158Y17359409D01*
X87309949Y17369054D01*
X87345704Y17384972D01*
X87401574Y17396848D01*
X87450638Y17411731D01*
X87489691Y17415578D01*
X87533834Y17424960D01*
X87584959Y17424960D01*
X87630000Y17429396D01*
X87675041Y17424960D01*
G37*
G36*
X92755040Y17424960D02*
G01*
X92806166Y17424960D01*
X92850309Y17415578D01*
X92889361Y17411731D01*
X92938421Y17396849D01*
X92994296Y17384972D01*
X93030052Y17369053D01*
X93061841Y17359409D01*
X93112360Y17332407D01*
X93170000Y17306743D01*
X93196796Y17287274D01*
X93220787Y17274451D01*
X93269723Y17234290D01*
X93325600Y17193693D01*
X93343743Y17173543D01*
X93360110Y17160111D01*
X93404092Y17106519D01*
X93454296Y17050762D01*
X93464842Y17032495D01*
X93474450Y17020788D01*
X93509987Y16954303D01*
X93550462Y16884198D01*
X93555118Y16869868D01*
X93559408Y16861842D01*
X93583065Y16783855D01*
X93609896Y16701279D01*
X93610840Y16692296D01*
X93611730Y16689362D01*
X93620387Y16601459D01*
X93630000Y16510000D01*
X93620386Y16418535D01*
X93611730Y16330639D01*
X93610840Y16327707D01*
X93609896Y16318721D01*
X93583061Y16236132D01*
X93559408Y16158159D01*
X93555119Y16150135D01*
X93550462Y16135802D01*
X93509980Y16065686D01*
X93474450Y15999213D01*
X93464844Y15987510D01*
X93454296Y15969238D01*
X93404082Y15913471D01*
X93360110Y15859890D01*
X93343746Y15846461D01*
X93325600Y15826307D01*
X93269712Y15785703D01*
X93220787Y15745550D01*
X93196802Y15732730D01*
X93170000Y15713257D01*
X93112348Y15687589D01*
X93061841Y15660592D01*
X93030059Y15650952D01*
X92994296Y15635028D01*
X92938410Y15623150D01*
X92889361Y15608270D01*
X92850317Y15604425D01*
X92806166Y15595040D01*
X92755031Y15595040D01*
X92710000Y15590605D01*
X92664969Y15595040D01*
X92613834Y15595040D01*
X92569682Y15604425D01*
X92530638Y15608270D01*
X92481585Y15623151D01*
X92425704Y15635028D01*
X92389942Y15650951D01*
X92358158Y15660592D01*
X92307645Y15687592D01*
X92250000Y15713257D01*
X92223200Y15732728D01*
X92199212Y15745550D01*
X92150278Y15785710D01*
X92094400Y15826307D01*
X92076256Y15846458D01*
X92059889Y15859890D01*
X92015905Y15913484D01*
X91965704Y15969238D01*
X91955157Y15987506D01*
X91945549Y15999213D01*
X91910006Y16065709D01*
X91869538Y16135802D01*
X91864882Y16150131D01*
X91860591Y16158159D01*
X91836923Y16236179D01*
X91810104Y16318721D01*
X91809160Y16327702D01*
X91808269Y16330639D01*
X91799598Y16418679D01*
X91790000Y16510000D01*
X91799595Y16601300D01*
X91808269Y16689362D01*
X91809160Y16692301D01*
X91810104Y16701279D01*
X91836919Y16783808D01*
X91860591Y16861842D01*
X91864883Y16869873D01*
X91869538Y16884198D01*
X91909999Y16954279D01*
X91945549Y17020788D01*
X91955159Y17032499D01*
X91965704Y17050762D01*
X92015896Y17106507D01*
X92059889Y17160111D01*
X92076259Y17173546D01*
X92094400Y17193693D01*
X92150267Y17234284D01*
X92199212Y17274451D01*
X92223205Y17287276D01*
X92250000Y17306743D01*
X92307633Y17332404D01*
X92358158Y17359409D01*
X92389949Y17369054D01*
X92425704Y17384972D01*
X92481574Y17396848D01*
X92530638Y17411731D01*
X92569691Y17415578D01*
X92613834Y17424960D01*
X92664958Y17424960D01*
X92709999Y17429396D01*
X92755040Y17424960D01*
G37*
G36*
X95295040Y17424960D02*
G01*
X95346166Y17424960D01*
X95390309Y17415578D01*
X95429361Y17411731D01*
X95478421Y17396849D01*
X95534296Y17384972D01*
X95570052Y17369053D01*
X95601841Y17359409D01*
X95652360Y17332407D01*
X95710000Y17306743D01*
X95736796Y17287274D01*
X95760787Y17274451D01*
X95809723Y17234290D01*
X95865600Y17193693D01*
X95883743Y17173543D01*
X95900110Y17160111D01*
X95944092Y17106519D01*
X95994296Y17050762D01*
X96004842Y17032495D01*
X96014450Y17020788D01*
X96049987Y16954303D01*
X96090462Y16884198D01*
X96095118Y16869868D01*
X96099408Y16861842D01*
X96123065Y16783855D01*
X96149896Y16701279D01*
X96150840Y16692296D01*
X96151730Y16689362D01*
X96160387Y16601459D01*
X96170000Y16510000D01*
X96160386Y16418535D01*
X96151730Y16330639D01*
X96150840Y16327707D01*
X96149896Y16318721D01*
X96123061Y16236132D01*
X96099408Y16158159D01*
X96095119Y16150135D01*
X96090462Y16135802D01*
X96049980Y16065686D01*
X96014450Y15999213D01*
X96004844Y15987510D01*
X95994296Y15969238D01*
X95944082Y15913471D01*
X95900110Y15859890D01*
X95883746Y15846461D01*
X95865600Y15826307D01*
X95809712Y15785703D01*
X95760787Y15745550D01*
X95736802Y15732730D01*
X95710000Y15713257D01*
X95652348Y15687589D01*
X95601841Y15660592D01*
X95570059Y15650952D01*
X95534296Y15635028D01*
X95478410Y15623150D01*
X95429361Y15608270D01*
X95390317Y15604425D01*
X95346166Y15595040D01*
X95295030Y15595040D01*
X95249999Y15590605D01*
X95204968Y15595040D01*
X95153834Y15595040D01*
X95109683Y15604425D01*
X95070638Y15608270D01*
X95021585Y15623151D01*
X94965704Y15635028D01*
X94929942Y15650951D01*
X94898158Y15660592D01*
X94847645Y15687592D01*
X94790000Y15713257D01*
X94763200Y15732728D01*
X94739212Y15745550D01*
X94690278Y15785710D01*
X94634400Y15826307D01*
X94616256Y15846458D01*
X94599889Y15859890D01*
X94555905Y15913484D01*
X94505704Y15969238D01*
X94495157Y15987506D01*
X94485549Y15999213D01*
X94450006Y16065709D01*
X94409538Y16135802D01*
X94404882Y16150131D01*
X94400591Y16158159D01*
X94376923Y16236179D01*
X94350104Y16318721D01*
X94349160Y16327702D01*
X94348269Y16330639D01*
X94339598Y16418679D01*
X94330000Y16510000D01*
X94339595Y16601300D01*
X94348269Y16689362D01*
X94349160Y16692301D01*
X94350104Y16701279D01*
X94376919Y16783808D01*
X94400591Y16861842D01*
X94404883Y16869873D01*
X94409538Y16884198D01*
X94449999Y16954279D01*
X94485549Y17020788D01*
X94495159Y17032499D01*
X94505704Y17050762D01*
X94555896Y17106507D01*
X94599889Y17160111D01*
X94616259Y17173546D01*
X94634400Y17193693D01*
X94690267Y17234284D01*
X94739212Y17274451D01*
X94763205Y17287276D01*
X94790000Y17306743D01*
X94847633Y17332404D01*
X94898158Y17359409D01*
X94929949Y17369054D01*
X94965704Y17384972D01*
X95021574Y17396848D01*
X95070638Y17411731D01*
X95109691Y17415578D01*
X95153834Y17424960D01*
X95204958Y17424960D01*
X95249999Y17429396D01*
X95295040Y17424960D01*
G37*
G36*
X46097426Y20855329D02*
G01*
X46139449Y20855329D01*
X46186245Y20846582D01*
X46239238Y20841362D01*
X46279497Y20829150D01*
X46315309Y20822455D01*
X46364912Y20803239D01*
X46421203Y20786163D01*
X46453363Y20768973D01*
X46482127Y20757830D01*
X46532099Y20726889D01*
X46588903Y20696526D01*
X46612773Y20676936D01*
X46634234Y20663648D01*
X46681782Y20620302D01*
X46735894Y20575894D01*
X46751928Y20556356D01*
X46766441Y20543126D01*
X46808578Y20487328D01*
X46856526Y20428903D01*
X46865796Y20411560D01*
X46874253Y20400361D01*
X46907897Y20332794D01*
X46946163Y20261203D01*
X46950244Y20247748D01*
X46953999Y20240208D01*
X46976179Y20162254D01*
X47001362Y20079238D01*
X47002189Y20070840D01*
X47002957Y20068141D01*
X47010940Y19981983D01*
X47020000Y19890000D01*
X47010939Y19798010D01*
X47002957Y19711860D01*
X47002189Y19709162D01*
X47001362Y19700762D01*
X46976174Y19617732D01*
X46953999Y19539793D01*
X46950245Y19532255D01*
X46946163Y19518797D01*
X46907890Y19447194D01*
X46874253Y19379640D01*
X46865798Y19368445D01*
X46856526Y19351097D01*
X46808569Y19292662D01*
X46766441Y19236875D01*
X46751931Y19223649D01*
X46735894Y19204106D01*
X46681771Y19159690D01*
X46634234Y19116353D01*
X46612778Y19103069D01*
X46588903Y19083474D01*
X46532087Y19053106D01*
X46482127Y19022171D01*
X46453370Y19011031D01*
X46421203Y18993837D01*
X46364900Y18976758D01*
X46315309Y18957546D01*
X46279503Y18950853D01*
X46239238Y18938638D01*
X46186242Y18933419D01*
X46139449Y18924671D01*
X46097426Y18924671D01*
X46050000Y18920000D01*
X46002574Y18924671D01*
X45960551Y18924671D01*
X45913757Y18933419D01*
X45860762Y18938638D01*
X45820497Y18950853D01*
X45784690Y18957546D01*
X45735094Y18976760D01*
X45678797Y18993837D01*
X45646632Y19011030D01*
X45617872Y19022171D01*
X45567905Y19053110D01*
X45511097Y19083474D01*
X45487224Y19103066D01*
X45465765Y19116353D01*
X45418218Y19159698D01*
X45364106Y19204106D01*
X45348071Y19223645D01*
X45333558Y19236875D01*
X45291418Y19292677D01*
X45243474Y19351097D01*
X45234204Y19368440D01*
X45225746Y19379640D01*
X45192095Y19447221D01*
X45153837Y19518797D01*
X45149756Y19532250D01*
X45146000Y19539793D01*
X45123809Y19617785D01*
X45098638Y19700762D01*
X45097811Y19709157D01*
X45097042Y19711860D01*
X45089043Y19798181D01*
X45080000Y19890000D01*
X45089042Y19981812D01*
X45097042Y20068141D01*
X45097811Y20070846D01*
X45098638Y20079238D01*
X45123804Y20162201D01*
X45146000Y20240208D01*
X45149756Y20247754D01*
X45153837Y20261203D01*
X45192087Y20332766D01*
X45225746Y20400361D01*
X45234206Y20411564D01*
X45243474Y20428903D01*
X45291409Y20487313D01*
X45333558Y20543126D01*
X45348074Y20556360D01*
X45364106Y20575894D01*
X45418207Y20620294D01*
X45465765Y20663648D01*
X45487229Y20676939D01*
X45511097Y20696526D01*
X45567893Y20726885D01*
X45617872Y20757830D01*
X45646638Y20768975D01*
X45678797Y20786163D01*
X45735082Y20803238D01*
X45784690Y20822455D01*
X45820504Y20829150D01*
X45860762Y20841362D01*
X45913754Y20846582D01*
X45960551Y20855329D01*
X46002574Y20855329D01*
X46050000Y20860000D01*
X46097426Y20855329D01*
G37*
G36*
X104097426Y20855329D02*
G01*
X104139449Y20855329D01*
X104186245Y20846582D01*
X104239238Y20841362D01*
X104279497Y20829150D01*
X104315309Y20822455D01*
X104364912Y20803239D01*
X104421203Y20786163D01*
X104453363Y20768973D01*
X104482127Y20757830D01*
X104532099Y20726889D01*
X104588903Y20696526D01*
X104612773Y20676936D01*
X104634234Y20663648D01*
X104681782Y20620302D01*
X104735894Y20575894D01*
X104751928Y20556356D01*
X104766441Y20543126D01*
X104808578Y20487328D01*
X104856526Y20428903D01*
X104865796Y20411560D01*
X104874253Y20400361D01*
X104907897Y20332794D01*
X104946163Y20261203D01*
X104950244Y20247748D01*
X104953999Y20240208D01*
X104976179Y20162254D01*
X105001362Y20079238D01*
X105002189Y20070840D01*
X105002957Y20068141D01*
X105010940Y19981983D01*
X105020000Y19890000D01*
X105010939Y19798010D01*
X105002957Y19711860D01*
X105002189Y19709162D01*
X105001362Y19700762D01*
X104976174Y19617732D01*
X104953999Y19539793D01*
X104950245Y19532255D01*
X104946163Y19518797D01*
X104907890Y19447194D01*
X104874253Y19379640D01*
X104865798Y19368445D01*
X104856526Y19351097D01*
X104808569Y19292662D01*
X104766441Y19236875D01*
X104751931Y19223649D01*
X104735894Y19204106D01*
X104681771Y19159690D01*
X104634234Y19116353D01*
X104612778Y19103069D01*
X104588903Y19083474D01*
X104532087Y19053106D01*
X104482127Y19022171D01*
X104453370Y19011031D01*
X104421203Y18993837D01*
X104364900Y18976758D01*
X104315309Y18957546D01*
X104279503Y18950853D01*
X104239238Y18938638D01*
X104186242Y18933419D01*
X104139449Y18924671D01*
X104097426Y18924671D01*
X104050000Y18920000D01*
X104002574Y18924671D01*
X103960551Y18924671D01*
X103913757Y18933419D01*
X103860762Y18938638D01*
X103820497Y18950853D01*
X103784690Y18957546D01*
X103735094Y18976760D01*
X103678797Y18993837D01*
X103646632Y19011030D01*
X103617872Y19022171D01*
X103567905Y19053110D01*
X103511097Y19083474D01*
X103487224Y19103066D01*
X103465765Y19116353D01*
X103418218Y19159698D01*
X103364106Y19204106D01*
X103348071Y19223645D01*
X103333558Y19236875D01*
X103291418Y19292677D01*
X103243474Y19351097D01*
X103234204Y19368440D01*
X103225746Y19379640D01*
X103192095Y19447221D01*
X103153837Y19518797D01*
X103149756Y19532250D01*
X103146000Y19539793D01*
X103123809Y19617785D01*
X103098638Y19700762D01*
X103097811Y19709157D01*
X103097042Y19711860D01*
X103089044Y19798173D01*
X103080000Y19890000D01*
X103089041Y19981804D01*
X103097042Y20068141D01*
X103097811Y20070846D01*
X103098638Y20079238D01*
X103123804Y20162201D01*
X103146000Y20240208D01*
X103149756Y20247754D01*
X103153837Y20261203D01*
X103192087Y20332766D01*
X103225746Y20400361D01*
X103234206Y20411564D01*
X103243474Y20428903D01*
X103291409Y20487313D01*
X103333558Y20543126D01*
X103348074Y20556360D01*
X103364106Y20575894D01*
X103418207Y20620294D01*
X103465765Y20663648D01*
X103487229Y20676939D01*
X103511097Y20696526D01*
X103567893Y20726885D01*
X103617872Y20757830D01*
X103646638Y20768975D01*
X103678797Y20786163D01*
X103735082Y20803238D01*
X103784690Y20822455D01*
X103820504Y20829150D01*
X103860762Y20841362D01*
X103913754Y20846582D01*
X103960551Y20855329D01*
X104002574Y20855329D01*
X104050000Y20860000D01*
X104097426Y20855329D01*
G37*
M02*
