M48
; DRILL file {KiCad 7.0.8-7.0.8~ubuntu22.04.1} date Thu 19 Oct 2023 12:27:01 PM CEST
; FORMAT={-:-/ absolute / inch / decimal}
; #@! TF.CreationDate,2023-10-19T12:27:01+02:00
; #@! TF.GenerationSoftware,Kicad,Pcbnew,7.0.8-7.0.8~ubuntu22.04.1
; #@! TF.FileFunction,Plated,1,2,PTH
FMAT,2
INCH
; #@! TA.AperFunction,Plated,PTH,ComponentDrill
T1C0.0079
; #@! TA.AperFunction,Plated,PTH,ViaDrill
T2C0.0098
; #@! TA.AperFunction,Plated,PTH,ViaDrill
T3C0.0157
; #@! TA.AperFunction,Plated,PTH,ComponentDrill
T4C0.0197
; #@! TA.AperFunction,Plated,PTH,ComponentDrill
T5C0.0236
; #@! TA.AperFunction,Plated,PTH,ComponentDrill
T6C0.0315
; #@! TA.AperFunction,Plated,PTH,ComponentDrill
T7C0.0402
; #@! TA.AperFunction,Plated,PTH,ComponentDrill
T8C0.0598
%
G90
G05
T1
X7.4642Y-3.9055
X7.4642Y-3.9469
X7.4642Y-3.9882
X7.5055Y-3.9055
X7.5055Y-3.9469
X7.5055Y-3.9882
X7.5469Y-3.9055
X7.5469Y-3.9469
X7.5469Y-3.9882
T2
X7.0305Y-4.547
X7.1104Y-3.9969
X7.1857Y-3.979
X7.2305Y-3.902
X7.2305Y-3.972
X7.242Y-3.8485
X7.2905Y-3.877
X7.2905Y-4.067
X7.3055Y-5.102
X7.3084Y-4.035
X7.3105Y-4.117
X7.3205Y-4.177
X7.3505Y-5.127
X7.3855Y-3.957
X7.3905Y-3.902
X7.3905Y-3.927
X7.4071Y-4.022
X7.4155Y-4.142
X7.4155Y-4.217
X7.5661Y-3.737
X7.6209Y-3.9343
X7.6229Y-3.9043
X7.7061Y-3.7309
X7.7255Y-3.792
X7.7455Y-3.852
X7.7861Y-3.7309
X7.8555Y-4.082
X7.8555Y-4.112
X7.8711Y-3.7309
X7.9111Y-3.877
X7.9111Y-3.902
X7.9111Y-3.927
X7.9255Y-3.802
X7.9361Y-3.7309
X7.9555Y-4.227
X7.9605Y-4.112
X7.9805Y-4.227
X7.9805Y-4.2534
X7.9955Y-4.412
X8.005Y-4.2534
X8.0058Y-4.2288
X8.0161Y-3.7309
X8.0261Y-3.9215
X8.0305Y-4.2534
X8.031Y-4.2289
X8.0655Y-5.197
X8.1033Y-3.7309
X8.1455Y-3.947
X8.1455Y-4.182
X8.1455Y-4.207
X8.1655Y-4.082
X8.1655Y-4.112
X8.1705Y-4.182
X8.1705Y-4.207
X8.1861Y-3.727
X8.2005Y-4.182
X8.2005Y-4.207
X8.2111Y-3.807
X8.2505Y-4.147
X8.2955Y-4.467
X8.4455Y-3.937
X8.4455Y-3.962
X8.4455Y-3.987
X8.4455Y-4.012
X8.4705Y-3.937
X8.4705Y-3.962
X8.4705Y-3.987
X8.4705Y-4.012
X8.4955Y-3.937
X8.4955Y-3.962
X8.4955Y-3.987
X8.4955Y-4.012
X8.5105Y-3.742
X8.5205Y-3.937
X8.5205Y-3.962
X8.5205Y-3.987
X8.5205Y-4.012
X8.5455Y-4.0371
X8.6855Y-4.0146
X8.7155Y-5.172
X8.7255Y-3.747
X8.8314Y-4.0359
X8.8955Y-4.1105
T3
X7.0005Y-3.747
T4
X8.9555Y-4.637
X8.9555Y-4.6764
X9.0305Y-4.487
X9.0555Y-4.637
X9.0555Y-4.6764
X9.1305Y-4.487
X9.1555Y-4.637
X9.1555Y-4.6764
X9.2555Y-4.637
X9.2555Y-4.6764
T6
X7.3955Y-4.477
X7.4955Y-4.477
X7.5955Y-4.477
X7.6955Y-4.477
X8.2255Y-4.7253
X8.2255Y-5.0253
X8.3255Y-4.7253
X8.3255Y-5.0253
X8.4255Y-4.7253
X8.4255Y-5.0253
X8.5255Y-4.7253
X8.5255Y-5.0253
X8.6255Y-4.7253
X8.6255Y-5.0253
X8.7255Y-4.7253
X8.7255Y-5.0253
T7
X7.0055Y-3.637
X7.0055Y-4.337
X7.1055Y-3.637
X7.1055Y-4.337
X7.2055Y-3.637
X7.2055Y-4.337
X7.3055Y-3.637
X7.3055Y-4.337
X7.4055Y-3.637
X7.4055Y-4.337
X7.5055Y-3.637
X7.5055Y-4.337
X7.6055Y-3.637
X7.6055Y-4.337
X7.7055Y-3.637
X7.7055Y-4.337
X7.8055Y-3.637
X7.8055Y-4.337
X7.9055Y-3.637
X7.9055Y-4.337
X8.0055Y-3.637
X8.0055Y-4.337
X8.1055Y-3.637
X8.1055Y-4.337
X8.2055Y-3.637
X8.2055Y-4.337
X8.3055Y-3.637
X8.3055Y-4.337
X8.4055Y-3.637
X8.4055Y-4.337
X8.5055Y-3.637
X8.5055Y-4.337
X8.6055Y-3.637
X8.6055Y-4.337
X8.7055Y-3.637
X8.7055Y-4.337
X8.8055Y-3.637
X8.8055Y-4.337
X8.9055Y-3.637
X8.9055Y-4.337
T8
X9.1555Y-3.892
X9.1555Y-4.092
T5
G00X6.9352Y-3.8169
M15
G01X6.9589Y-3.8169
M16
G05
G00X6.9352Y-4.1571
M15
G01X6.9589Y-4.1571
M16
G05
G00X7.09Y-3.8169
M15
G01X7.1333Y-3.8169
M16
G05
G00X7.09Y-4.1571
M15
G01X7.1333Y-4.1571
M16
G05
T0
M30
