%TF.GenerationSoftware,KiCad,Pcbnew,7.0.8-7.0.8~ubuntu22.04.1*%
%TF.CreationDate,2023-10-13T08:32:03+02:00*%
%TF.ProjectId,PD_Micro,50445f4d-6963-4726-9f2e-6b696361645f,rev?*%
%TF.SameCoordinates,PX7ce2370PY67d8790*%
%TF.FileFunction,Paste,Top*%
%TF.FilePolarity,Positive*%
%FSLAX46Y46*%
G04 Gerber Fmt 4.6, Leading zero omitted, Abs format (unit mm)*
G04 Created by KiCad (PCBNEW 7.0.8-7.0.8~ubuntu22.04.1) date 2023-10-13 08:32:03*
%MOMM*%
%LPD*%
G01*
G04 APERTURE LIST*
G04 Aperture macros list*
%AMRoundRect*
0 Rectangle with rounded corners*
0 $1 Rounding radius*
0 $2 $3 $4 $5 $6 $7 $8 $9 X,Y pos of 4 corners*
0 Add a 4 corners polygon primitive as box body*
4,1,4,$2,$3,$4,$5,$6,$7,$8,$9,$2,$3,0*
0 Add four circle primitives for the rounded corners*
1,1,$1+$1,$2,$3*
1,1,$1+$1,$4,$5*
1,1,$1+$1,$6,$7*
1,1,$1+$1,$8,$9*
0 Add four rect primitives between the rounded corners*
20,1,$1+$1,$2,$3,$4,$5,0*
20,1,$1+$1,$4,$5,$6,$7,0*
20,1,$1+$1,$6,$7,$8,$9,0*
20,1,$1+$1,$8,$9,$2,$3,0*%
G04 Aperture macros list end*
%ADD10RoundRect,0.140000X-0.560000X-1.810000X0.560000X-1.810000X0.560000X1.810000X-0.560000X1.810000X0*%
%ADD11RoundRect,0.250000X-0.475000X0.250000X-0.475000X-0.250000X0.475000X-0.250000X0.475000X0.250000X0*%
%ADD12RoundRect,0.250000X-0.250000X-0.475000X0.250000X-0.475000X0.250000X0.475000X-0.250000X0.475000X0*%
%ADD13R,0.650000X0.610000*%
%ADD14R,0.500000X0.250000*%
%ADD15RoundRect,0.250000X0.250000X0.475000X-0.250000X0.475000X-0.250000X-0.475000X0.250000X-0.475000X0*%
%ADD16R,1.500000X1.000000*%
%ADD17R,0.900000X1.200000*%
%ADD18RoundRect,0.250000X0.475000X-0.250000X0.475000X0.250000X-0.475000X0.250000X-0.475000X-0.250000X0*%
%ADD19RoundRect,0.130000X0.470000X0.195000X-0.470000X0.195000X-0.470000X-0.195000X0.470000X-0.195000X0*%
%ADD20RoundRect,0.250000X0.262500X0.450000X-0.262500X0.450000X-0.262500X-0.450000X0.262500X-0.450000X0*%
%ADD21RoundRect,0.125000X-0.125000X-0.275000X0.125000X-0.275000X0.125000X0.275000X-0.125000X0.275000X0*%
%ADD22RoundRect,0.250000X-0.450000X0.262500X-0.450000X-0.262500X0.450000X-0.262500X0.450000X0.262500X0*%
%ADD23RoundRect,0.250000X-0.315000X-0.315000X0.315000X-0.315000X0.315000X0.315000X-0.315000X0.315000X0*%
%ADD24RoundRect,0.062500X-0.375000X-0.062500X0.375000X-0.062500X0.375000X0.062500X-0.375000X0.062500X0*%
%ADD25RoundRect,0.062500X-0.062500X-0.375000X0.062500X-0.375000X0.062500X0.375000X-0.062500X0.375000X0*%
%ADD26RoundRect,0.250000X-0.262500X-0.450000X0.262500X-0.450000X0.262500X0.450000X-0.262500X0.450000X0*%
%ADD27R,1.000000X0.800000*%
%ADD28R,0.700000X1.500000*%
%ADD29RoundRect,0.250000X0.450000X-0.262500X0.450000X0.262500X-0.450000X0.262500X-0.450000X-0.262500X0*%
%ADD30RoundRect,0.150000X-0.825000X-0.150000X0.825000X-0.150000X0.825000X0.150000X-0.825000X0.150000X0*%
%ADD31R,1.600000X1.400000*%
%ADD32C,1.900000*%
%ADD33RoundRect,0.140000X1.810000X-0.560000X1.810000X0.560000X-1.810000X0.560000X-1.810000X-0.560000X0*%
%ADD34R,0.700000X0.380000*%
%ADD35RoundRect,0.000000X-0.414000X-0.510000X0.414000X-0.510000X0.414000X0.510000X-0.414000X0.510000X0*%
G04 APERTURE END LIST*
D10*
X71398000Y7239000D03*
X74398000Y7239000D03*
D11*
X60325000Y5014000D03*
X60325000Y3114000D03*
D12*
X79949000Y1524000D03*
X81849000Y1524000D03*
D13*
X91567000Y7277000D03*
X91567000Y6477000D03*
X91567000Y5677000D03*
D14*
X90617000Y7477000D03*
X90617000Y6977000D03*
X90617000Y6477000D03*
X90617000Y5977000D03*
X90617000Y5477000D03*
X92517000Y5477000D03*
X92517000Y5977000D03*
X92517000Y6477000D03*
X92517000Y6977000D03*
X92517000Y7477000D03*
D15*
X85405000Y2032000D03*
X83505000Y2032000D03*
D16*
X81624000Y-4750000D03*
X81624000Y-7950000D03*
X86524000Y-7950000D03*
X86524000Y-4750000D03*
D17*
X82295000Y6858000D03*
X78995000Y6858000D03*
D18*
X53735000Y12131000D03*
X53735000Y14031000D03*
D19*
X58534000Y1783000D03*
X58534000Y2733000D03*
X58534000Y3683000D03*
X56134000Y3683000D03*
X56134000Y2733000D03*
X56134000Y1783000D03*
D18*
X55767000Y12131000D03*
X55767000Y14031000D03*
D20*
X88923500Y4191000D03*
X87098500Y4191000D03*
D18*
X59831000Y12131000D03*
X59831000Y14031000D03*
D21*
X75931000Y7255000D03*
X77231000Y7255000D03*
X76581000Y9255000D03*
D22*
X49530000Y8405500D03*
X49530000Y6580500D03*
D11*
X64897000Y6919000D03*
X64897000Y5019000D03*
D23*
X59040000Y9290000D03*
X59040000Y7990000D03*
X60340000Y9290000D03*
X60340000Y7990000D03*
D24*
X57752500Y9890000D03*
X57752500Y9390000D03*
X57752500Y8890000D03*
X57752500Y8390000D03*
X57752500Y7890000D03*
X57752500Y7390000D03*
D25*
X58440000Y6702500D03*
X58940000Y6702500D03*
X59440000Y6702500D03*
X59940000Y6702500D03*
X60440000Y6702500D03*
X60940000Y6702500D03*
D24*
X61627500Y7390000D03*
X61627500Y7890000D03*
X61627500Y8390000D03*
X61627500Y8890000D03*
X61627500Y9390000D03*
X61627500Y9890000D03*
D25*
X60940000Y10577500D03*
X60440000Y10577500D03*
X59940000Y10577500D03*
X59440000Y10577500D03*
X58940000Y10577500D03*
X58440000Y10577500D03*
D26*
X64365500Y1651000D03*
X66190500Y1651000D03*
D18*
X57799000Y12131000D03*
X57799000Y14031000D03*
D12*
X51755000Y1778000D03*
X53655000Y1778000D03*
D13*
X68213000Y12357000D03*
X68213000Y11557000D03*
X68213000Y10757000D03*
D14*
X67263000Y12557000D03*
X67263000Y12057000D03*
X67263000Y11557000D03*
X67263000Y11057000D03*
X67263000Y10557000D03*
X69163000Y10557000D03*
X69163000Y11057000D03*
X69163000Y11557000D03*
X69163000Y12057000D03*
X69163000Y12557000D03*
D26*
X87098500Y2032000D03*
X88923500Y2032000D03*
D15*
X93279000Y3683000D03*
X91379000Y3683000D03*
D11*
X79008000Y11110000D03*
X79008000Y9210000D03*
D22*
X68580000Y3071500D03*
X68580000Y1246500D03*
D12*
X79949000Y3556000D03*
X81849000Y3556000D03*
D22*
X51562000Y8786500D03*
X51562000Y6961500D03*
D26*
X66792500Y6731000D03*
X68617500Y6731000D03*
D27*
X85885000Y-28209000D03*
X85885000Y-30419000D03*
X93185000Y-28209000D03*
X93185000Y-30419000D03*
D28*
X87285000Y-27559000D03*
X90285000Y-27559000D03*
X91785000Y-27559000D03*
D29*
X62498000Y12168500D03*
X62498000Y13993500D03*
D30*
X82488000Y13843000D03*
X82488000Y12573000D03*
X82488000Y11303000D03*
X82488000Y10033000D03*
X87438000Y10033000D03*
X87438000Y11303000D03*
X87438000Y12573000D03*
X87438000Y13843000D03*
D26*
X71985500Y10668000D03*
X73810500Y10668000D03*
X51783000Y3810000D03*
X53608000Y3810000D03*
D31*
X96349000Y-16026000D03*
X103549000Y-16026000D03*
X96349000Y-19026000D03*
X103549000Y-19026000D03*
D26*
X53801000Y9906000D03*
X55626000Y9906000D03*
D22*
X62484000Y4976500D03*
X62484000Y3151500D03*
D15*
X85405000Y4191000D03*
X83505000Y4191000D03*
D20*
X68617500Y8763000D03*
X66792500Y8763000D03*
D22*
X76214000Y12596500D03*
X76214000Y10771500D03*
D32*
X47040000Y6604000D03*
X47040000Y8636000D03*
D27*
X76106000Y-28176000D03*
X76106000Y-30386000D03*
X83406000Y-28176000D03*
X83406000Y-30386000D03*
D28*
X77506000Y-27526000D03*
X80506000Y-27526000D03*
X82006000Y-27526000D03*
D15*
X74356000Y3683000D03*
X72456000Y3683000D03*
D33*
X95250000Y7517000D03*
X95250000Y10517000D03*
D26*
X91416500Y1524000D03*
X93241500Y1524000D03*
D11*
X64008000Y10475000D03*
X64008000Y8575000D03*
D26*
X53801000Y7874000D03*
X55626000Y7874000D03*
D31*
X96349000Y-22610000D03*
X103549000Y-22610000D03*
X96349000Y-25610000D03*
X103549000Y-25610000D03*
D34*
X77825000Y14112000D03*
X77825000Y13462000D03*
X77825000Y12812000D03*
X80025000Y12812000D03*
X80025000Y13462000D03*
D35*
X79135000Y13462000D03*
D34*
X80025000Y14112000D03*
M02*
