M48
; DRILL file {KiCad 7.0.7} date Thu Oct 12 19:56:49 2023
; FORMAT={-:-/ absolute / inch / decimal}
; #@! TF.CreationDate,2023-10-12T19:56:49+02:00
; #@! TF.GenerationSoftware,Kicad,Pcbnew,7.0.7
; #@! TF.FileFunction,Plated,1,2,PTH
FMAT,2
INCH
; #@! TA.AperFunction,Plated,PTH,ViaDrill
T1C0.0098
; #@! TA.AperFunction,Plated,PTH,ComponentDrill
T2C0.0197
; #@! TA.AperFunction,Plated,PTH,ComponentDrill
T3C0.0236
; #@! TA.AperFunction,Plated,PTH,ComponentDrill
T4C0.0315
; #@! TA.AperFunction,Plated,PTH,ComponentDrill
T5C0.0402
; #@! TA.AperFunction,Plated,PTH,ComponentDrill
T6C0.0472
%
G90
G05
T1
X1.875Y-0.26
X1.9548Y0.2902
X2.0302Y0.3081
X2.055Y0.475
X2.075Y0.39
X2.08Y0.31
X2.135Y0.22
X2.15Y0.435
X2.15Y-0.815
X2.1541Y0.2579
X2.155Y0.17
X2.165Y0.11
X2.195Y-0.84
X2.23Y0.43
X2.23Y0.33
X2.235Y0.385
X2.235Y0.36
X2.2516Y0.265
X2.26Y0.145
X2.26Y0.07
X2.27Y0.425
X2.4106Y0.55
X2.4654Y0.3527
X2.4674Y0.3827
X2.5506Y0.5561
X2.57Y0.495
X2.59Y0.435
X2.6306Y0.5561
X2.7Y0.205
X2.7Y0.175
X2.7156Y0.5561
X2.7556Y0.41
X2.7556Y0.385
X2.7556Y0.36
X2.7606Y0.47
X2.78Y0.08
X2.7806Y0.5561
X2.805Y0.08
X2.805Y0.055
X2.83Y0.08
X2.83Y0.055
X2.84Y-0.125
X2.855Y0.08
X2.855Y0.055
X2.8606Y0.5561
X2.8706Y0.435
X2.91Y0.205
X2.91Y0.175
X2.91Y-0.91
X2.9478Y0.5561
X2.975Y0.295
X2.99Y0.105
X2.99Y0.08
X3.015Y0.105
X3.015Y0.08
X3.0306Y0.56
X3.045Y0.105
X3.045Y0.08
X3.0556Y0.48
X3.14Y-0.18
X3.29Y0.35
X3.29Y0.325
X3.29Y0.3
X3.29Y0.275
X3.315Y0.35
X3.315Y0.325
X3.315Y0.3
X3.315Y0.275
X3.34Y0.35
X3.34Y0.325
X3.34Y0.3
X3.34Y0.275
X3.355Y0.545
X3.365Y0.35
X3.365Y0.325
X3.365Y0.3
X3.365Y0.275
X3.53Y0.2724
X3.56Y-0.885
X3.57Y0.495
X3.6759Y0.2511
X3.74Y0.1765
X3.805Y0.185
T2
X3.8Y-0.35
X3.8Y-0.3894
X3.875Y-0.2
X3.9Y-0.35
X3.9Y-0.3894
X3.975Y-0.2
X4.0Y-0.35
X4.0Y-0.3894
X4.1Y-0.35
X4.1Y-0.3894
T4
X2.24Y-0.19
X2.34Y-0.19
X2.44Y-0.19
X2.54Y-0.19
X3.07Y-0.4383
X3.07Y-0.7383
X3.17Y-0.4383
X3.17Y-0.7383
X3.27Y-0.4383
X3.27Y-0.7383
X3.37Y-0.4383
X3.37Y-0.7383
X3.47Y-0.4383
X3.47Y-0.7383
X3.57Y-0.4383
X3.57Y-0.7383
T5
X1.85Y0.65
X1.85Y-0.05
X1.95Y0.65
X1.95Y-0.05
X2.05Y0.65
X2.05Y-0.05
X2.15Y0.65
X2.15Y-0.05
X2.25Y0.65
X2.25Y-0.05
X2.35Y0.65
X2.35Y-0.05
X2.45Y0.65
X2.45Y-0.05
X2.55Y0.65
X2.55Y-0.05
X2.65Y0.65
X2.65Y-0.05
X2.75Y0.65
X2.75Y-0.05
X2.85Y0.65
X2.85Y-0.05
X2.95Y0.65
X2.95Y-0.05
X3.05Y0.65
X3.05Y-0.05
X3.15Y0.65
X3.15Y-0.05
X3.25Y0.65
X3.25Y-0.05
X3.35Y0.65
X3.35Y-0.05
X3.45Y0.65
X3.45Y-0.05
X3.55Y0.65
X3.55Y-0.05
X3.65Y0.65
X3.65Y-0.05
X3.75Y0.65
X3.75Y-0.05
T6
X3.985Y0.3789
X3.985Y0.2411
T3
G00X1.7797Y0.4701
M15
G01X1.8033Y0.4701
M16
G05
G00X1.7797Y0.1299
M15
G01X1.8033Y0.1299
M16
G05
G00X1.9344Y0.4701
M15
G01X1.9778Y0.4701
M16
G05
G00X1.9344Y0.1299
M15
G01X1.9778Y0.1299
M16
G05
T0
M30
