%TF.GenerationSoftware,KiCad,Pcbnew,7.0.8-7.0.8~ubuntu22.04.1*%
%TF.CreationDate,2023-10-13T08:31:54+02:00*%
%TF.ProjectId,PD_Micro,50445f4d-6963-4726-9f2e-6b696361645f,rev?*%
%TF.SameCoordinates,PX7ce2370PY67d8790*%
%TF.FileFunction,Drillmap*%
%TF.FilePolarity,Positive*%
%FSLAX45Y45*%
G04 Gerber Fmt 4.5, Leading zero omitted, Abs format (unit mm)*
G04 Created by KiCad (PCBNEW 7.0.8-7.0.8~ubuntu22.04.1) date 2023-10-13 08:31:54*
%MOMM*%
%LPD*%
G01*
G04 APERTURE LIST*
%ADD10C,0.150000*%
%ADD11C,0.200000*%
%ADD12C,0.065000*%
%ADD13C,0.090000*%
%ADD14C,0.180000*%
%ADD15C,0.250000*%
G04 APERTURE END LIST*
D10*
X10605000Y-3111000D02*
X4405000Y-3111000D01*
X4405000Y-111000D01*
X4405000Y-61400D01*
X4405000Y1462600D01*
X4405000Y1562600D01*
X4405000Y2189000D01*
X10605000Y2189000D01*
X10605000Y-3111000D01*
D11*
D12*
X4883000Y1083500D02*
X4948000Y1018500D01*
X4948000Y1083500D02*
X4883000Y1018500D01*
X4883000Y505500D02*
X4948000Y440500D01*
X4948000Y505500D02*
X4883000Y440500D01*
D13*
X7870600Y-2928600D02*
G75*
G03*
X7870600Y-2928600I-45000J0D01*
G01*
X8170600Y-2928600D02*
G75*
G03*
X8170600Y-2928600I-45000J0D01*
G01*
X8848500Y-2931900D02*
G75*
G03*
X8848500Y-2931900I-45000J0D01*
G01*
X9148500Y-2931900D02*
G75*
G03*
X9148500Y-2931900I-45000J0D01*
G01*
D14*
X4605000Y2079000D02*
X4605000Y1899000D01*
X4515000Y1989000D02*
X4695000Y1989000D01*
X4605000Y-2821000D02*
X4605000Y-3001000D01*
X4515000Y-2911000D02*
X4695000Y-2911000D01*
X10405000Y2079000D02*
X10405000Y1899000D01*
X10315000Y1989000D02*
X10495000Y1989000D01*
X10405000Y-2821000D02*
X10405000Y-3001000D01*
X10315000Y-2911000D02*
X10495000Y-2911000D01*
D15*
X5058989Y-620989D02*
X5058989Y-444211D01*
X4882211Y-444211D01*
X4882211Y-620989D01*
X5058989Y-620989D01*
X5058989Y-2820989D02*
X5058989Y-2644211D01*
X4882211Y-2644211D01*
X4882211Y-2820989D01*
X5058989Y-2820989D01*
X7258989Y-620989D02*
X7258989Y-444211D01*
X7082211Y-444211D01*
X7082211Y-620989D01*
X7258989Y-620989D01*
X7258989Y-2820989D02*
X7258989Y-2644211D01*
X7082211Y-2644211D01*
X7082211Y-2820989D01*
X7258989Y-2820989D01*
D11*
X4658277Y-3429984D02*
X4658277Y-3229984D01*
X4658277Y-3229984D02*
X4705896Y-3229984D01*
X4705896Y-3229984D02*
X4734467Y-3239508D01*
X4734467Y-3239508D02*
X4753515Y-3258555D01*
X4753515Y-3258555D02*
X4763039Y-3277603D01*
X4763039Y-3277603D02*
X4772563Y-3315698D01*
X4772563Y-3315698D02*
X4772563Y-3344269D01*
X4772563Y-3344269D02*
X4763039Y-3382365D01*
X4763039Y-3382365D02*
X4753515Y-3401412D01*
X4753515Y-3401412D02*
X4734467Y-3420460D01*
X4734467Y-3420460D02*
X4705896Y-3429984D01*
X4705896Y-3429984D02*
X4658277Y-3429984D01*
X4858277Y-3429984D02*
X4858277Y-3296650D01*
X4858277Y-3334746D02*
X4867801Y-3315698D01*
X4867801Y-3315698D02*
X4877324Y-3306174D01*
X4877324Y-3306174D02*
X4896372Y-3296650D01*
X4896372Y-3296650D02*
X4915420Y-3296650D01*
X4982086Y-3429984D02*
X4982086Y-3296650D01*
X4982086Y-3229984D02*
X4972563Y-3239508D01*
X4972563Y-3239508D02*
X4982086Y-3249031D01*
X4982086Y-3249031D02*
X4991610Y-3239508D01*
X4991610Y-3239508D02*
X4982086Y-3229984D01*
X4982086Y-3229984D02*
X4982086Y-3249031D01*
X5105896Y-3429984D02*
X5086848Y-3420460D01*
X5086848Y-3420460D02*
X5077324Y-3401412D01*
X5077324Y-3401412D02*
X5077324Y-3229984D01*
X5210658Y-3429984D02*
X5191610Y-3420460D01*
X5191610Y-3420460D02*
X5182086Y-3401412D01*
X5182086Y-3401412D02*
X5182086Y-3229984D01*
X5439229Y-3429984D02*
X5439229Y-3229984D01*
X5439229Y-3229984D02*
X5505896Y-3372841D01*
X5505896Y-3372841D02*
X5572563Y-3229984D01*
X5572563Y-3229984D02*
X5572563Y-3429984D01*
X5753515Y-3429984D02*
X5753515Y-3325222D01*
X5753515Y-3325222D02*
X5743991Y-3306174D01*
X5743991Y-3306174D02*
X5724943Y-3296650D01*
X5724943Y-3296650D02*
X5686848Y-3296650D01*
X5686848Y-3296650D02*
X5667801Y-3306174D01*
X5753515Y-3420460D02*
X5734467Y-3429984D01*
X5734467Y-3429984D02*
X5686848Y-3429984D01*
X5686848Y-3429984D02*
X5667801Y-3420460D01*
X5667801Y-3420460D02*
X5658277Y-3401412D01*
X5658277Y-3401412D02*
X5658277Y-3382365D01*
X5658277Y-3382365D02*
X5667801Y-3363317D01*
X5667801Y-3363317D02*
X5686848Y-3353793D01*
X5686848Y-3353793D02*
X5734467Y-3353793D01*
X5734467Y-3353793D02*
X5753515Y-3344269D01*
X5848753Y-3296650D02*
X5848753Y-3496650D01*
X5848753Y-3306174D02*
X5867801Y-3296650D01*
X5867801Y-3296650D02*
X5905896Y-3296650D01*
X5905896Y-3296650D02*
X5924943Y-3306174D01*
X5924943Y-3306174D02*
X5934467Y-3315698D01*
X5934467Y-3315698D02*
X5943991Y-3334746D01*
X5943991Y-3334746D02*
X5943991Y-3391888D01*
X5943991Y-3391888D02*
X5934467Y-3410936D01*
X5934467Y-3410936D02*
X5924943Y-3420460D01*
X5924943Y-3420460D02*
X5905896Y-3429984D01*
X5905896Y-3429984D02*
X5867801Y-3429984D01*
X5867801Y-3429984D02*
X5848753Y-3420460D01*
X6029705Y-3410936D02*
X6039229Y-3420460D01*
X6039229Y-3420460D02*
X6029705Y-3429984D01*
X6029705Y-3429984D02*
X6020182Y-3420460D01*
X6020182Y-3420460D02*
X6029705Y-3410936D01*
X6029705Y-3410936D02*
X6029705Y-3429984D01*
X6029705Y-3306174D02*
X6039229Y-3315698D01*
X6039229Y-3315698D02*
X6029705Y-3325222D01*
X6029705Y-3325222D02*
X6020182Y-3315698D01*
X6020182Y-3315698D02*
X6029705Y-3306174D01*
X6029705Y-3306174D02*
X6029705Y-3325222D01*
D12*
X4332500Y-3726000D02*
X4397500Y-3791000D01*
X4397500Y-3726000D02*
X4332500Y-3791000D01*
D11*
X4696372Y-3649984D02*
X4715420Y-3649984D01*
X4715420Y-3649984D02*
X4734467Y-3659508D01*
X4734467Y-3659508D02*
X4743991Y-3669031D01*
X4743991Y-3669031D02*
X4753515Y-3688079D01*
X4753515Y-3688079D02*
X4763039Y-3726174D01*
X4763039Y-3726174D02*
X4763039Y-3773793D01*
X4763039Y-3773793D02*
X4753515Y-3811888D01*
X4753515Y-3811888D02*
X4743991Y-3830936D01*
X4743991Y-3830936D02*
X4734467Y-3840460D01*
X4734467Y-3840460D02*
X4715420Y-3849984D01*
X4715420Y-3849984D02*
X4696372Y-3849984D01*
X4696372Y-3849984D02*
X4677324Y-3840460D01*
X4677324Y-3840460D02*
X4667801Y-3830936D01*
X4667801Y-3830936D02*
X4658277Y-3811888D01*
X4658277Y-3811888D02*
X4648753Y-3773793D01*
X4648753Y-3773793D02*
X4648753Y-3726174D01*
X4648753Y-3726174D02*
X4658277Y-3688079D01*
X4658277Y-3688079D02*
X4667801Y-3669031D01*
X4667801Y-3669031D02*
X4677324Y-3659508D01*
X4677324Y-3659508D02*
X4696372Y-3649984D01*
X4848753Y-3830936D02*
X4858277Y-3840460D01*
X4858277Y-3840460D02*
X4848753Y-3849984D01*
X4848753Y-3849984D02*
X4839229Y-3840460D01*
X4839229Y-3840460D02*
X4848753Y-3830936D01*
X4848753Y-3830936D02*
X4848753Y-3849984D01*
X5029705Y-3649984D02*
X4991610Y-3649984D01*
X4991610Y-3649984D02*
X4972563Y-3659508D01*
X4972563Y-3659508D02*
X4963039Y-3669031D01*
X4963039Y-3669031D02*
X4943991Y-3697603D01*
X4943991Y-3697603D02*
X4934467Y-3735698D01*
X4934467Y-3735698D02*
X4934467Y-3811888D01*
X4934467Y-3811888D02*
X4943991Y-3830936D01*
X4943991Y-3830936D02*
X4953515Y-3840460D01*
X4953515Y-3840460D02*
X4972563Y-3849984D01*
X4972563Y-3849984D02*
X5010658Y-3849984D01*
X5010658Y-3849984D02*
X5029705Y-3840460D01*
X5029705Y-3840460D02*
X5039229Y-3830936D01*
X5039229Y-3830936D02*
X5048753Y-3811888D01*
X5048753Y-3811888D02*
X5048753Y-3764269D01*
X5048753Y-3764269D02*
X5039229Y-3745222D01*
X5039229Y-3745222D02*
X5029705Y-3735698D01*
X5029705Y-3735698D02*
X5010658Y-3726174D01*
X5010658Y-3726174D02*
X4972563Y-3726174D01*
X4972563Y-3726174D02*
X4953515Y-3735698D01*
X4953515Y-3735698D02*
X4943991Y-3745222D01*
X4943991Y-3745222D02*
X4934467Y-3764269D01*
X5229705Y-3649984D02*
X5134467Y-3649984D01*
X5134467Y-3649984D02*
X5124944Y-3745222D01*
X5124944Y-3745222D02*
X5134467Y-3735698D01*
X5134467Y-3735698D02*
X5153515Y-3726174D01*
X5153515Y-3726174D02*
X5201134Y-3726174D01*
X5201134Y-3726174D02*
X5220182Y-3735698D01*
X5220182Y-3735698D02*
X5229705Y-3745222D01*
X5229705Y-3745222D02*
X5239229Y-3764269D01*
X5239229Y-3764269D02*
X5239229Y-3811888D01*
X5239229Y-3811888D02*
X5229705Y-3830936D01*
X5229705Y-3830936D02*
X5220182Y-3840460D01*
X5220182Y-3840460D02*
X5201134Y-3849984D01*
X5201134Y-3849984D02*
X5153515Y-3849984D01*
X5153515Y-3849984D02*
X5134467Y-3840460D01*
X5134467Y-3840460D02*
X5124944Y-3830936D01*
X5363039Y-3649984D02*
X5382086Y-3649984D01*
X5382086Y-3649984D02*
X5401134Y-3659508D01*
X5401134Y-3659508D02*
X5410658Y-3669031D01*
X5410658Y-3669031D02*
X5420182Y-3688079D01*
X5420182Y-3688079D02*
X5429705Y-3726174D01*
X5429705Y-3726174D02*
X5429705Y-3773793D01*
X5429705Y-3773793D02*
X5420182Y-3811888D01*
X5420182Y-3811888D02*
X5410658Y-3830936D01*
X5410658Y-3830936D02*
X5401134Y-3840460D01*
X5401134Y-3840460D02*
X5382086Y-3849984D01*
X5382086Y-3849984D02*
X5363039Y-3849984D01*
X5363039Y-3849984D02*
X5343991Y-3840460D01*
X5343991Y-3840460D02*
X5334467Y-3830936D01*
X5334467Y-3830936D02*
X5324944Y-3811888D01*
X5324944Y-3811888D02*
X5315420Y-3773793D01*
X5315420Y-3773793D02*
X5315420Y-3726174D01*
X5315420Y-3726174D02*
X5324944Y-3688079D01*
X5324944Y-3688079D02*
X5334467Y-3669031D01*
X5334467Y-3669031D02*
X5343991Y-3659508D01*
X5343991Y-3659508D02*
X5363039Y-3649984D01*
X5515420Y-3849984D02*
X5515420Y-3716650D01*
X5515420Y-3735698D02*
X5524944Y-3726174D01*
X5524944Y-3726174D02*
X5543991Y-3716650D01*
X5543991Y-3716650D02*
X5572563Y-3716650D01*
X5572563Y-3716650D02*
X5591610Y-3726174D01*
X5591610Y-3726174D02*
X5601134Y-3745222D01*
X5601134Y-3745222D02*
X5601134Y-3849984D01*
X5601134Y-3745222D02*
X5610658Y-3726174D01*
X5610658Y-3726174D02*
X5629705Y-3716650D01*
X5629705Y-3716650D02*
X5658277Y-3716650D01*
X5658277Y-3716650D02*
X5677324Y-3726174D01*
X5677324Y-3726174D02*
X5686848Y-3745222D01*
X5686848Y-3745222D02*
X5686848Y-3849984D01*
X5782086Y-3849984D02*
X5782086Y-3716650D01*
X5782086Y-3735698D02*
X5791610Y-3726174D01*
X5791610Y-3726174D02*
X5810658Y-3716650D01*
X5810658Y-3716650D02*
X5839229Y-3716650D01*
X5839229Y-3716650D02*
X5858277Y-3726174D01*
X5858277Y-3726174D02*
X5867801Y-3745222D01*
X5867801Y-3745222D02*
X5867801Y-3849984D01*
X5867801Y-3745222D02*
X5877324Y-3726174D01*
X5877324Y-3726174D02*
X5896372Y-3716650D01*
X5896372Y-3716650D02*
X5924943Y-3716650D01*
X5924943Y-3716650D02*
X5943991Y-3726174D01*
X5943991Y-3726174D02*
X5953515Y-3745222D01*
X5953515Y-3745222D02*
X5953515Y-3849984D01*
X6343991Y-3640460D02*
X6172563Y-3897603D01*
X6601134Y-3649984D02*
X6620182Y-3649984D01*
X6620182Y-3649984D02*
X6639229Y-3659508D01*
X6639229Y-3659508D02*
X6648753Y-3669031D01*
X6648753Y-3669031D02*
X6658277Y-3688079D01*
X6658277Y-3688079D02*
X6667801Y-3726174D01*
X6667801Y-3726174D02*
X6667801Y-3773793D01*
X6667801Y-3773793D02*
X6658277Y-3811888D01*
X6658277Y-3811888D02*
X6648753Y-3830936D01*
X6648753Y-3830936D02*
X6639229Y-3840460D01*
X6639229Y-3840460D02*
X6620182Y-3849984D01*
X6620182Y-3849984D02*
X6601134Y-3849984D01*
X6601134Y-3849984D02*
X6582086Y-3840460D01*
X6582086Y-3840460D02*
X6572563Y-3830936D01*
X6572563Y-3830936D02*
X6563039Y-3811888D01*
X6563039Y-3811888D02*
X6553515Y-3773793D01*
X6553515Y-3773793D02*
X6553515Y-3726174D01*
X6553515Y-3726174D02*
X6563039Y-3688079D01*
X6563039Y-3688079D02*
X6572563Y-3669031D01*
X6572563Y-3669031D02*
X6582086Y-3659508D01*
X6582086Y-3659508D02*
X6601134Y-3649984D01*
X6753515Y-3830936D02*
X6763039Y-3840460D01*
X6763039Y-3840460D02*
X6753515Y-3849984D01*
X6753515Y-3849984D02*
X6743991Y-3840460D01*
X6743991Y-3840460D02*
X6753515Y-3830936D01*
X6753515Y-3830936D02*
X6753515Y-3849984D01*
X6886848Y-3649984D02*
X6905896Y-3649984D01*
X6905896Y-3649984D02*
X6924944Y-3659508D01*
X6924944Y-3659508D02*
X6934467Y-3669031D01*
X6934467Y-3669031D02*
X6943991Y-3688079D01*
X6943991Y-3688079D02*
X6953515Y-3726174D01*
X6953515Y-3726174D02*
X6953515Y-3773793D01*
X6953515Y-3773793D02*
X6943991Y-3811888D01*
X6943991Y-3811888D02*
X6934467Y-3830936D01*
X6934467Y-3830936D02*
X6924944Y-3840460D01*
X6924944Y-3840460D02*
X6905896Y-3849984D01*
X6905896Y-3849984D02*
X6886848Y-3849984D01*
X6886848Y-3849984D02*
X6867801Y-3840460D01*
X6867801Y-3840460D02*
X6858277Y-3830936D01*
X6858277Y-3830936D02*
X6848753Y-3811888D01*
X6848753Y-3811888D02*
X6839229Y-3773793D01*
X6839229Y-3773793D02*
X6839229Y-3726174D01*
X6839229Y-3726174D02*
X6848753Y-3688079D01*
X6848753Y-3688079D02*
X6858277Y-3669031D01*
X6858277Y-3669031D02*
X6867801Y-3659508D01*
X6867801Y-3659508D02*
X6886848Y-3649984D01*
X7029706Y-3669031D02*
X7039229Y-3659508D01*
X7039229Y-3659508D02*
X7058277Y-3649984D01*
X7058277Y-3649984D02*
X7105896Y-3649984D01*
X7105896Y-3649984D02*
X7124944Y-3659508D01*
X7124944Y-3659508D02*
X7134467Y-3669031D01*
X7134467Y-3669031D02*
X7143991Y-3688079D01*
X7143991Y-3688079D02*
X7143991Y-3707127D01*
X7143991Y-3707127D02*
X7134467Y-3735698D01*
X7134467Y-3735698D02*
X7020182Y-3849984D01*
X7020182Y-3849984D02*
X7143991Y-3849984D01*
X7324944Y-3649984D02*
X7229706Y-3649984D01*
X7229706Y-3649984D02*
X7220182Y-3745222D01*
X7220182Y-3745222D02*
X7229706Y-3735698D01*
X7229706Y-3735698D02*
X7248753Y-3726174D01*
X7248753Y-3726174D02*
X7296372Y-3726174D01*
X7296372Y-3726174D02*
X7315420Y-3735698D01*
X7315420Y-3735698D02*
X7324944Y-3745222D01*
X7324944Y-3745222D02*
X7334467Y-3764269D01*
X7334467Y-3764269D02*
X7334467Y-3811888D01*
X7334467Y-3811888D02*
X7324944Y-3830936D01*
X7324944Y-3830936D02*
X7315420Y-3840460D01*
X7315420Y-3840460D02*
X7296372Y-3849984D01*
X7296372Y-3849984D02*
X7248753Y-3849984D01*
X7248753Y-3849984D02*
X7229706Y-3840460D01*
X7229706Y-3840460D02*
X7220182Y-3830936D01*
X7505896Y-3649984D02*
X7467801Y-3649984D01*
X7467801Y-3649984D02*
X7448753Y-3659508D01*
X7448753Y-3659508D02*
X7439229Y-3669031D01*
X7439229Y-3669031D02*
X7420182Y-3697603D01*
X7420182Y-3697603D02*
X7410658Y-3735698D01*
X7410658Y-3735698D02*
X7410658Y-3811888D01*
X7410658Y-3811888D02*
X7420182Y-3830936D01*
X7420182Y-3830936D02*
X7429706Y-3840460D01*
X7429706Y-3840460D02*
X7448753Y-3849984D01*
X7448753Y-3849984D02*
X7486848Y-3849984D01*
X7486848Y-3849984D02*
X7505896Y-3840460D01*
X7505896Y-3840460D02*
X7515420Y-3830936D01*
X7515420Y-3830936D02*
X7524944Y-3811888D01*
X7524944Y-3811888D02*
X7524944Y-3764269D01*
X7524944Y-3764269D02*
X7515420Y-3745222D01*
X7515420Y-3745222D02*
X7505896Y-3735698D01*
X7505896Y-3735698D02*
X7486848Y-3726174D01*
X7486848Y-3726174D02*
X7448753Y-3726174D01*
X7448753Y-3726174D02*
X7429706Y-3735698D01*
X7429706Y-3735698D02*
X7420182Y-3745222D01*
X7420182Y-3745222D02*
X7410658Y-3764269D01*
X7601134Y-3649984D02*
X7601134Y-3688079D01*
X7677325Y-3649984D02*
X7677325Y-3688079D01*
X7972563Y-3926174D02*
X7963039Y-3916650D01*
X7963039Y-3916650D02*
X7943991Y-3888079D01*
X7943991Y-3888079D02*
X7934468Y-3869031D01*
X7934468Y-3869031D02*
X7924944Y-3840460D01*
X7924944Y-3840460D02*
X7915420Y-3792841D01*
X7915420Y-3792841D02*
X7915420Y-3754746D01*
X7915420Y-3754746D02*
X7924944Y-3707127D01*
X7924944Y-3707127D02*
X7934468Y-3678555D01*
X7934468Y-3678555D02*
X7943991Y-3659508D01*
X7943991Y-3659508D02*
X7963039Y-3630936D01*
X7963039Y-3630936D02*
X7972563Y-3621412D01*
X8039229Y-3669031D02*
X8048753Y-3659508D01*
X8048753Y-3659508D02*
X8067801Y-3649984D01*
X8067801Y-3649984D02*
X8115420Y-3649984D01*
X8115420Y-3649984D02*
X8134468Y-3659508D01*
X8134468Y-3659508D02*
X8143991Y-3669031D01*
X8143991Y-3669031D02*
X8153515Y-3688079D01*
X8153515Y-3688079D02*
X8153515Y-3707127D01*
X8153515Y-3707127D02*
X8143991Y-3735698D01*
X8143991Y-3735698D02*
X8029706Y-3849984D01*
X8029706Y-3849984D02*
X8153515Y-3849984D01*
X8391611Y-3849984D02*
X8391611Y-3649984D01*
X8477325Y-3849984D02*
X8477325Y-3745222D01*
X8477325Y-3745222D02*
X8467801Y-3726174D01*
X8467801Y-3726174D02*
X8448753Y-3716650D01*
X8448753Y-3716650D02*
X8420182Y-3716650D01*
X8420182Y-3716650D02*
X8401134Y-3726174D01*
X8401134Y-3726174D02*
X8391611Y-3735698D01*
X8601134Y-3849984D02*
X8582087Y-3840460D01*
X8582087Y-3840460D02*
X8572563Y-3830936D01*
X8572563Y-3830936D02*
X8563039Y-3811888D01*
X8563039Y-3811888D02*
X8563039Y-3754746D01*
X8563039Y-3754746D02*
X8572563Y-3735698D01*
X8572563Y-3735698D02*
X8582087Y-3726174D01*
X8582087Y-3726174D02*
X8601134Y-3716650D01*
X8601134Y-3716650D02*
X8629706Y-3716650D01*
X8629706Y-3716650D02*
X8648753Y-3726174D01*
X8648753Y-3726174D02*
X8658277Y-3735698D01*
X8658277Y-3735698D02*
X8667801Y-3754746D01*
X8667801Y-3754746D02*
X8667801Y-3811888D01*
X8667801Y-3811888D02*
X8658277Y-3830936D01*
X8658277Y-3830936D02*
X8648753Y-3840460D01*
X8648753Y-3840460D02*
X8629706Y-3849984D01*
X8629706Y-3849984D02*
X8601134Y-3849984D01*
X8782087Y-3849984D02*
X8763039Y-3840460D01*
X8763039Y-3840460D02*
X8753515Y-3821412D01*
X8753515Y-3821412D02*
X8753515Y-3649984D01*
X8934468Y-3840460D02*
X8915420Y-3849984D01*
X8915420Y-3849984D02*
X8877325Y-3849984D01*
X8877325Y-3849984D02*
X8858277Y-3840460D01*
X8858277Y-3840460D02*
X8848753Y-3821412D01*
X8848753Y-3821412D02*
X8848753Y-3745222D01*
X8848753Y-3745222D02*
X8858277Y-3726174D01*
X8858277Y-3726174D02*
X8877325Y-3716650D01*
X8877325Y-3716650D02*
X8915420Y-3716650D01*
X8915420Y-3716650D02*
X8934468Y-3726174D01*
X8934468Y-3726174D02*
X8943992Y-3745222D01*
X8943992Y-3745222D02*
X8943992Y-3764269D01*
X8943992Y-3764269D02*
X8848753Y-3783317D01*
X9020182Y-3840460D02*
X9039230Y-3849984D01*
X9039230Y-3849984D02*
X9077325Y-3849984D01*
X9077325Y-3849984D02*
X9096373Y-3840460D01*
X9096373Y-3840460D02*
X9105896Y-3821412D01*
X9105896Y-3821412D02*
X9105896Y-3811888D01*
X9105896Y-3811888D02*
X9096373Y-3792841D01*
X9096373Y-3792841D02*
X9077325Y-3783317D01*
X9077325Y-3783317D02*
X9048753Y-3783317D01*
X9048753Y-3783317D02*
X9029706Y-3773793D01*
X9029706Y-3773793D02*
X9020182Y-3754746D01*
X9020182Y-3754746D02*
X9020182Y-3745222D01*
X9020182Y-3745222D02*
X9029706Y-3726174D01*
X9029706Y-3726174D02*
X9048753Y-3716650D01*
X9048753Y-3716650D02*
X9077325Y-3716650D01*
X9077325Y-3716650D02*
X9096373Y-3726174D01*
X9172563Y-3926174D02*
X9182087Y-3916650D01*
X9182087Y-3916650D02*
X9201134Y-3888079D01*
X9201134Y-3888079D02*
X9210658Y-3869031D01*
X9210658Y-3869031D02*
X9220182Y-3840460D01*
X9220182Y-3840460D02*
X9229706Y-3792841D01*
X9229706Y-3792841D02*
X9229706Y-3754746D01*
X9229706Y-3754746D02*
X9220182Y-3707127D01*
X9220182Y-3707127D02*
X9210658Y-3678555D01*
X9210658Y-3678555D02*
X9201134Y-3659508D01*
X9201134Y-3659508D02*
X9182087Y-3630936D01*
X9182087Y-3630936D02*
X9172563Y-3621412D01*
X9534468Y-3926174D02*
X9524944Y-3916650D01*
X9524944Y-3916650D02*
X9505896Y-3888079D01*
X9505896Y-3888079D02*
X9496373Y-3869031D01*
X9496373Y-3869031D02*
X9486849Y-3840460D01*
X9486849Y-3840460D02*
X9477325Y-3792841D01*
X9477325Y-3792841D02*
X9477325Y-3754746D01*
X9477325Y-3754746D02*
X9486849Y-3707127D01*
X9486849Y-3707127D02*
X9496373Y-3678555D01*
X9496373Y-3678555D02*
X9505896Y-3659508D01*
X9505896Y-3659508D02*
X9524944Y-3630936D01*
X9524944Y-3630936D02*
X9534468Y-3621412D01*
X9610658Y-3716650D02*
X9610658Y-3849984D01*
X9610658Y-3735698D02*
X9620182Y-3726174D01*
X9620182Y-3726174D02*
X9639230Y-3716650D01*
X9639230Y-3716650D02*
X9667801Y-3716650D01*
X9667801Y-3716650D02*
X9686849Y-3726174D01*
X9686849Y-3726174D02*
X9696373Y-3745222D01*
X9696373Y-3745222D02*
X9696373Y-3849984D01*
X9820182Y-3849984D02*
X9801134Y-3840460D01*
X9801134Y-3840460D02*
X9791611Y-3830936D01*
X9791611Y-3830936D02*
X9782087Y-3811888D01*
X9782087Y-3811888D02*
X9782087Y-3754746D01*
X9782087Y-3754746D02*
X9791611Y-3735698D01*
X9791611Y-3735698D02*
X9801134Y-3726174D01*
X9801134Y-3726174D02*
X9820182Y-3716650D01*
X9820182Y-3716650D02*
X9848754Y-3716650D01*
X9848754Y-3716650D02*
X9867801Y-3726174D01*
X9867801Y-3726174D02*
X9877325Y-3735698D01*
X9877325Y-3735698D02*
X9886849Y-3754746D01*
X9886849Y-3754746D02*
X9886849Y-3811888D01*
X9886849Y-3811888D02*
X9877325Y-3830936D01*
X9877325Y-3830936D02*
X9867801Y-3840460D01*
X9867801Y-3840460D02*
X9848754Y-3849984D01*
X9848754Y-3849984D02*
X9820182Y-3849984D01*
X9943992Y-3716650D02*
X10020182Y-3716650D01*
X9972563Y-3649984D02*
X9972563Y-3821412D01*
X9972563Y-3821412D02*
X9982087Y-3840460D01*
X9982087Y-3840460D02*
X10001134Y-3849984D01*
X10001134Y-3849984D02*
X10020182Y-3849984D01*
X10239230Y-3716650D02*
X10239230Y-3916650D01*
X10239230Y-3726174D02*
X10258277Y-3716650D01*
X10258277Y-3716650D02*
X10296373Y-3716650D01*
X10296373Y-3716650D02*
X10315420Y-3726174D01*
X10315420Y-3726174D02*
X10324944Y-3735698D01*
X10324944Y-3735698D02*
X10334468Y-3754746D01*
X10334468Y-3754746D02*
X10334468Y-3811888D01*
X10334468Y-3811888D02*
X10324944Y-3830936D01*
X10324944Y-3830936D02*
X10315420Y-3840460D01*
X10315420Y-3840460D02*
X10296373Y-3849984D01*
X10296373Y-3849984D02*
X10258277Y-3849984D01*
X10258277Y-3849984D02*
X10239230Y-3840460D01*
X10448754Y-3849984D02*
X10429706Y-3840460D01*
X10429706Y-3840460D02*
X10420182Y-3821412D01*
X10420182Y-3821412D02*
X10420182Y-3649984D01*
X10610658Y-3849984D02*
X10610658Y-3745222D01*
X10610658Y-3745222D02*
X10601135Y-3726174D01*
X10601135Y-3726174D02*
X10582087Y-3716650D01*
X10582087Y-3716650D02*
X10543992Y-3716650D01*
X10543992Y-3716650D02*
X10524944Y-3726174D01*
X10610658Y-3840460D02*
X10591611Y-3849984D01*
X10591611Y-3849984D02*
X10543992Y-3849984D01*
X10543992Y-3849984D02*
X10524944Y-3840460D01*
X10524944Y-3840460D02*
X10515420Y-3821412D01*
X10515420Y-3821412D02*
X10515420Y-3802365D01*
X10515420Y-3802365D02*
X10524944Y-3783317D01*
X10524944Y-3783317D02*
X10543992Y-3773793D01*
X10543992Y-3773793D02*
X10591611Y-3773793D01*
X10591611Y-3773793D02*
X10610658Y-3764269D01*
X10677325Y-3716650D02*
X10753515Y-3716650D01*
X10705896Y-3649984D02*
X10705896Y-3821412D01*
X10705896Y-3821412D02*
X10715420Y-3840460D01*
X10715420Y-3840460D02*
X10734468Y-3849984D01*
X10734468Y-3849984D02*
X10753515Y-3849984D01*
X10896373Y-3840460D02*
X10877325Y-3849984D01*
X10877325Y-3849984D02*
X10839230Y-3849984D01*
X10839230Y-3849984D02*
X10820182Y-3840460D01*
X10820182Y-3840460D02*
X10810658Y-3821412D01*
X10810658Y-3821412D02*
X10810658Y-3745222D01*
X10810658Y-3745222D02*
X10820182Y-3726174D01*
X10820182Y-3726174D02*
X10839230Y-3716650D01*
X10839230Y-3716650D02*
X10877325Y-3716650D01*
X10877325Y-3716650D02*
X10896373Y-3726174D01*
X10896373Y-3726174D02*
X10905896Y-3745222D01*
X10905896Y-3745222D02*
X10905896Y-3764269D01*
X10905896Y-3764269D02*
X10810658Y-3783317D01*
X11077325Y-3849984D02*
X11077325Y-3649984D01*
X11077325Y-3840460D02*
X11058277Y-3849984D01*
X11058277Y-3849984D02*
X11020182Y-3849984D01*
X11020182Y-3849984D02*
X11001135Y-3840460D01*
X11001135Y-3840460D02*
X10991611Y-3830936D01*
X10991611Y-3830936D02*
X10982087Y-3811888D01*
X10982087Y-3811888D02*
X10982087Y-3754746D01*
X10982087Y-3754746D02*
X10991611Y-3735698D01*
X10991611Y-3735698D02*
X11001135Y-3726174D01*
X11001135Y-3726174D02*
X11020182Y-3716650D01*
X11020182Y-3716650D02*
X11058277Y-3716650D01*
X11058277Y-3716650D02*
X11077325Y-3726174D01*
X11153516Y-3926174D02*
X11163039Y-3916650D01*
X11163039Y-3916650D02*
X11182087Y-3888079D01*
X11182087Y-3888079D02*
X11191611Y-3869031D01*
X11191611Y-3869031D02*
X11201134Y-3840460D01*
X11201134Y-3840460D02*
X11210658Y-3792841D01*
X11210658Y-3792841D02*
X11210658Y-3754746D01*
X11210658Y-3754746D02*
X11201134Y-3707127D01*
X11201134Y-3707127D02*
X11191611Y-3678555D01*
X11191611Y-3678555D02*
X11182087Y-3659508D01*
X11182087Y-3659508D02*
X11163039Y-3630936D01*
X11163039Y-3630936D02*
X11153516Y-3621412D01*
D13*
X4397500Y-4022500D02*
G75*
G03*
X4397500Y-4022500I-45000J0D01*
G01*
D11*
X4696372Y-3913984D02*
X4715420Y-3913984D01*
X4715420Y-3913984D02*
X4734467Y-3923508D01*
X4734467Y-3923508D02*
X4743991Y-3933031D01*
X4743991Y-3933031D02*
X4753515Y-3952079D01*
X4753515Y-3952079D02*
X4763039Y-3990174D01*
X4763039Y-3990174D02*
X4763039Y-4037793D01*
X4763039Y-4037793D02*
X4753515Y-4075888D01*
X4753515Y-4075888D02*
X4743991Y-4094936D01*
X4743991Y-4094936D02*
X4734467Y-4104460D01*
X4734467Y-4104460D02*
X4715420Y-4113984D01*
X4715420Y-4113984D02*
X4696372Y-4113984D01*
X4696372Y-4113984D02*
X4677324Y-4104460D01*
X4677324Y-4104460D02*
X4667801Y-4094936D01*
X4667801Y-4094936D02*
X4658277Y-4075888D01*
X4658277Y-4075888D02*
X4648753Y-4037793D01*
X4648753Y-4037793D02*
X4648753Y-3990174D01*
X4648753Y-3990174D02*
X4658277Y-3952079D01*
X4658277Y-3952079D02*
X4667801Y-3933031D01*
X4667801Y-3933031D02*
X4677324Y-3923508D01*
X4677324Y-3923508D02*
X4696372Y-3913984D01*
X4848753Y-4094936D02*
X4858277Y-4104460D01*
X4858277Y-4104460D02*
X4848753Y-4113984D01*
X4848753Y-4113984D02*
X4839229Y-4104460D01*
X4839229Y-4104460D02*
X4848753Y-4094936D01*
X4848753Y-4094936D02*
X4848753Y-4113984D01*
X4953515Y-4113984D02*
X4991610Y-4113984D01*
X4991610Y-4113984D02*
X5010658Y-4104460D01*
X5010658Y-4104460D02*
X5020182Y-4094936D01*
X5020182Y-4094936D02*
X5039229Y-4066365D01*
X5039229Y-4066365D02*
X5048753Y-4028269D01*
X5048753Y-4028269D02*
X5048753Y-3952079D01*
X5048753Y-3952079D02*
X5039229Y-3933031D01*
X5039229Y-3933031D02*
X5029705Y-3923508D01*
X5029705Y-3923508D02*
X5010658Y-3913984D01*
X5010658Y-3913984D02*
X4972563Y-3913984D01*
X4972563Y-3913984D02*
X4953515Y-3923508D01*
X4953515Y-3923508D02*
X4943991Y-3933031D01*
X4943991Y-3933031D02*
X4934467Y-3952079D01*
X4934467Y-3952079D02*
X4934467Y-3999698D01*
X4934467Y-3999698D02*
X4943991Y-4018746D01*
X4943991Y-4018746D02*
X4953515Y-4028269D01*
X4953515Y-4028269D02*
X4972563Y-4037793D01*
X4972563Y-4037793D02*
X5010658Y-4037793D01*
X5010658Y-4037793D02*
X5029705Y-4028269D01*
X5029705Y-4028269D02*
X5039229Y-4018746D01*
X5039229Y-4018746D02*
X5048753Y-3999698D01*
X5172563Y-3913984D02*
X5191610Y-3913984D01*
X5191610Y-3913984D02*
X5210658Y-3923508D01*
X5210658Y-3923508D02*
X5220182Y-3933031D01*
X5220182Y-3933031D02*
X5229705Y-3952079D01*
X5229705Y-3952079D02*
X5239229Y-3990174D01*
X5239229Y-3990174D02*
X5239229Y-4037793D01*
X5239229Y-4037793D02*
X5229705Y-4075888D01*
X5229705Y-4075888D02*
X5220182Y-4094936D01*
X5220182Y-4094936D02*
X5210658Y-4104460D01*
X5210658Y-4104460D02*
X5191610Y-4113984D01*
X5191610Y-4113984D02*
X5172563Y-4113984D01*
X5172563Y-4113984D02*
X5153515Y-4104460D01*
X5153515Y-4104460D02*
X5143991Y-4094936D01*
X5143991Y-4094936D02*
X5134467Y-4075888D01*
X5134467Y-4075888D02*
X5124944Y-4037793D01*
X5124944Y-4037793D02*
X5124944Y-3990174D01*
X5124944Y-3990174D02*
X5134467Y-3952079D01*
X5134467Y-3952079D02*
X5143991Y-3933031D01*
X5143991Y-3933031D02*
X5153515Y-3923508D01*
X5153515Y-3923508D02*
X5172563Y-3913984D01*
X5363039Y-3913984D02*
X5382086Y-3913984D01*
X5382086Y-3913984D02*
X5401134Y-3923508D01*
X5401134Y-3923508D02*
X5410658Y-3933031D01*
X5410658Y-3933031D02*
X5420182Y-3952079D01*
X5420182Y-3952079D02*
X5429705Y-3990174D01*
X5429705Y-3990174D02*
X5429705Y-4037793D01*
X5429705Y-4037793D02*
X5420182Y-4075888D01*
X5420182Y-4075888D02*
X5410658Y-4094936D01*
X5410658Y-4094936D02*
X5401134Y-4104460D01*
X5401134Y-4104460D02*
X5382086Y-4113984D01*
X5382086Y-4113984D02*
X5363039Y-4113984D01*
X5363039Y-4113984D02*
X5343991Y-4104460D01*
X5343991Y-4104460D02*
X5334467Y-4094936D01*
X5334467Y-4094936D02*
X5324944Y-4075888D01*
X5324944Y-4075888D02*
X5315420Y-4037793D01*
X5315420Y-4037793D02*
X5315420Y-3990174D01*
X5315420Y-3990174D02*
X5324944Y-3952079D01*
X5324944Y-3952079D02*
X5334467Y-3933031D01*
X5334467Y-3933031D02*
X5343991Y-3923508D01*
X5343991Y-3923508D02*
X5363039Y-3913984D01*
X5515420Y-4113984D02*
X5515420Y-3980650D01*
X5515420Y-3999698D02*
X5524944Y-3990174D01*
X5524944Y-3990174D02*
X5543991Y-3980650D01*
X5543991Y-3980650D02*
X5572563Y-3980650D01*
X5572563Y-3980650D02*
X5591610Y-3990174D01*
X5591610Y-3990174D02*
X5601134Y-4009222D01*
X5601134Y-4009222D02*
X5601134Y-4113984D01*
X5601134Y-4009222D02*
X5610658Y-3990174D01*
X5610658Y-3990174D02*
X5629705Y-3980650D01*
X5629705Y-3980650D02*
X5658277Y-3980650D01*
X5658277Y-3980650D02*
X5677324Y-3990174D01*
X5677324Y-3990174D02*
X5686848Y-4009222D01*
X5686848Y-4009222D02*
X5686848Y-4113984D01*
X5782086Y-4113984D02*
X5782086Y-3980650D01*
X5782086Y-3999698D02*
X5791610Y-3990174D01*
X5791610Y-3990174D02*
X5810658Y-3980650D01*
X5810658Y-3980650D02*
X5839229Y-3980650D01*
X5839229Y-3980650D02*
X5858277Y-3990174D01*
X5858277Y-3990174D02*
X5867801Y-4009222D01*
X5867801Y-4009222D02*
X5867801Y-4113984D01*
X5867801Y-4009222D02*
X5877324Y-3990174D01*
X5877324Y-3990174D02*
X5896372Y-3980650D01*
X5896372Y-3980650D02*
X5924943Y-3980650D01*
X5924943Y-3980650D02*
X5943991Y-3990174D01*
X5943991Y-3990174D02*
X5953515Y-4009222D01*
X5953515Y-4009222D02*
X5953515Y-4113984D01*
X6343991Y-3904460D02*
X6172563Y-4161603D01*
X6601134Y-3913984D02*
X6620182Y-3913984D01*
X6620182Y-3913984D02*
X6639229Y-3923508D01*
X6639229Y-3923508D02*
X6648753Y-3933031D01*
X6648753Y-3933031D02*
X6658277Y-3952079D01*
X6658277Y-3952079D02*
X6667801Y-3990174D01*
X6667801Y-3990174D02*
X6667801Y-4037793D01*
X6667801Y-4037793D02*
X6658277Y-4075888D01*
X6658277Y-4075888D02*
X6648753Y-4094936D01*
X6648753Y-4094936D02*
X6639229Y-4104460D01*
X6639229Y-4104460D02*
X6620182Y-4113984D01*
X6620182Y-4113984D02*
X6601134Y-4113984D01*
X6601134Y-4113984D02*
X6582086Y-4104460D01*
X6582086Y-4104460D02*
X6572563Y-4094936D01*
X6572563Y-4094936D02*
X6563039Y-4075888D01*
X6563039Y-4075888D02*
X6553515Y-4037793D01*
X6553515Y-4037793D02*
X6553515Y-3990174D01*
X6553515Y-3990174D02*
X6563039Y-3952079D01*
X6563039Y-3952079D02*
X6572563Y-3933031D01*
X6572563Y-3933031D02*
X6582086Y-3923508D01*
X6582086Y-3923508D02*
X6601134Y-3913984D01*
X6753515Y-4094936D02*
X6763039Y-4104460D01*
X6763039Y-4104460D02*
X6753515Y-4113984D01*
X6753515Y-4113984D02*
X6743991Y-4104460D01*
X6743991Y-4104460D02*
X6753515Y-4094936D01*
X6753515Y-4094936D02*
X6753515Y-4113984D01*
X6886848Y-3913984D02*
X6905896Y-3913984D01*
X6905896Y-3913984D02*
X6924944Y-3923508D01*
X6924944Y-3923508D02*
X6934467Y-3933031D01*
X6934467Y-3933031D02*
X6943991Y-3952079D01*
X6943991Y-3952079D02*
X6953515Y-3990174D01*
X6953515Y-3990174D02*
X6953515Y-4037793D01*
X6953515Y-4037793D02*
X6943991Y-4075888D01*
X6943991Y-4075888D02*
X6934467Y-4094936D01*
X6934467Y-4094936D02*
X6924944Y-4104460D01*
X6924944Y-4104460D02*
X6905896Y-4113984D01*
X6905896Y-4113984D02*
X6886848Y-4113984D01*
X6886848Y-4113984D02*
X6867801Y-4104460D01*
X6867801Y-4104460D02*
X6858277Y-4094936D01*
X6858277Y-4094936D02*
X6848753Y-4075888D01*
X6848753Y-4075888D02*
X6839229Y-4037793D01*
X6839229Y-4037793D02*
X6839229Y-3990174D01*
X6839229Y-3990174D02*
X6848753Y-3952079D01*
X6848753Y-3952079D02*
X6858277Y-3933031D01*
X6858277Y-3933031D02*
X6867801Y-3923508D01*
X6867801Y-3923508D02*
X6886848Y-3913984D01*
X7020182Y-3913984D02*
X7143991Y-3913984D01*
X7143991Y-3913984D02*
X7077325Y-3990174D01*
X7077325Y-3990174D02*
X7105896Y-3990174D01*
X7105896Y-3990174D02*
X7124944Y-3999698D01*
X7124944Y-3999698D02*
X7134467Y-4009222D01*
X7134467Y-4009222D02*
X7143991Y-4028269D01*
X7143991Y-4028269D02*
X7143991Y-4075888D01*
X7143991Y-4075888D02*
X7134467Y-4094936D01*
X7134467Y-4094936D02*
X7124944Y-4104460D01*
X7124944Y-4104460D02*
X7105896Y-4113984D01*
X7105896Y-4113984D02*
X7048753Y-4113984D01*
X7048753Y-4113984D02*
X7029706Y-4104460D01*
X7029706Y-4104460D02*
X7020182Y-4094936D01*
X7324944Y-3913984D02*
X7229706Y-3913984D01*
X7229706Y-3913984D02*
X7220182Y-4009222D01*
X7220182Y-4009222D02*
X7229706Y-3999698D01*
X7229706Y-3999698D02*
X7248753Y-3990174D01*
X7248753Y-3990174D02*
X7296372Y-3990174D01*
X7296372Y-3990174D02*
X7315420Y-3999698D01*
X7315420Y-3999698D02*
X7324944Y-4009222D01*
X7324944Y-4009222D02*
X7334467Y-4028269D01*
X7334467Y-4028269D02*
X7334467Y-4075888D01*
X7334467Y-4075888D02*
X7324944Y-4094936D01*
X7324944Y-4094936D02*
X7315420Y-4104460D01*
X7315420Y-4104460D02*
X7296372Y-4113984D01*
X7296372Y-4113984D02*
X7248753Y-4113984D01*
X7248753Y-4113984D02*
X7229706Y-4104460D01*
X7229706Y-4104460D02*
X7220182Y-4094936D01*
X7505896Y-3980650D02*
X7505896Y-4113984D01*
X7458277Y-3904460D02*
X7410658Y-4047317D01*
X7410658Y-4047317D02*
X7534467Y-4047317D01*
X7601134Y-3913984D02*
X7601134Y-3952079D01*
X7677325Y-3913984D02*
X7677325Y-3952079D01*
X7972563Y-4190174D02*
X7963039Y-4180650D01*
X7963039Y-4180650D02*
X7943991Y-4152079D01*
X7943991Y-4152079D02*
X7934468Y-4133031D01*
X7934468Y-4133031D02*
X7924944Y-4104460D01*
X7924944Y-4104460D02*
X7915420Y-4056841D01*
X7915420Y-4056841D02*
X7915420Y-4018746D01*
X7915420Y-4018746D02*
X7924944Y-3971127D01*
X7924944Y-3971127D02*
X7934468Y-3942555D01*
X7934468Y-3942555D02*
X7943991Y-3923508D01*
X7943991Y-3923508D02*
X7963039Y-3894936D01*
X7963039Y-3894936D02*
X7972563Y-3885412D01*
X8134468Y-3980650D02*
X8134468Y-4113984D01*
X8086848Y-3904460D02*
X8039229Y-4047317D01*
X8039229Y-4047317D02*
X8163039Y-4047317D01*
X8391611Y-4113984D02*
X8391611Y-3913984D01*
X8477325Y-4113984D02*
X8477325Y-4009222D01*
X8477325Y-4009222D02*
X8467801Y-3990174D01*
X8467801Y-3990174D02*
X8448753Y-3980650D01*
X8448753Y-3980650D02*
X8420182Y-3980650D01*
X8420182Y-3980650D02*
X8401134Y-3990174D01*
X8401134Y-3990174D02*
X8391611Y-3999698D01*
X8601134Y-4113984D02*
X8582087Y-4104460D01*
X8582087Y-4104460D02*
X8572563Y-4094936D01*
X8572563Y-4094936D02*
X8563039Y-4075888D01*
X8563039Y-4075888D02*
X8563039Y-4018746D01*
X8563039Y-4018746D02*
X8572563Y-3999698D01*
X8572563Y-3999698D02*
X8582087Y-3990174D01*
X8582087Y-3990174D02*
X8601134Y-3980650D01*
X8601134Y-3980650D02*
X8629706Y-3980650D01*
X8629706Y-3980650D02*
X8648753Y-3990174D01*
X8648753Y-3990174D02*
X8658277Y-3999698D01*
X8658277Y-3999698D02*
X8667801Y-4018746D01*
X8667801Y-4018746D02*
X8667801Y-4075888D01*
X8667801Y-4075888D02*
X8658277Y-4094936D01*
X8658277Y-4094936D02*
X8648753Y-4104460D01*
X8648753Y-4104460D02*
X8629706Y-4113984D01*
X8629706Y-4113984D02*
X8601134Y-4113984D01*
X8782087Y-4113984D02*
X8763039Y-4104460D01*
X8763039Y-4104460D02*
X8753515Y-4085412D01*
X8753515Y-4085412D02*
X8753515Y-3913984D01*
X8934468Y-4104460D02*
X8915420Y-4113984D01*
X8915420Y-4113984D02*
X8877325Y-4113984D01*
X8877325Y-4113984D02*
X8858277Y-4104460D01*
X8858277Y-4104460D02*
X8848753Y-4085412D01*
X8848753Y-4085412D02*
X8848753Y-4009222D01*
X8848753Y-4009222D02*
X8858277Y-3990174D01*
X8858277Y-3990174D02*
X8877325Y-3980650D01*
X8877325Y-3980650D02*
X8915420Y-3980650D01*
X8915420Y-3980650D02*
X8934468Y-3990174D01*
X8934468Y-3990174D02*
X8943992Y-4009222D01*
X8943992Y-4009222D02*
X8943992Y-4028269D01*
X8943992Y-4028269D02*
X8848753Y-4047317D01*
X9020182Y-4104460D02*
X9039230Y-4113984D01*
X9039230Y-4113984D02*
X9077325Y-4113984D01*
X9077325Y-4113984D02*
X9096373Y-4104460D01*
X9096373Y-4104460D02*
X9105896Y-4085412D01*
X9105896Y-4085412D02*
X9105896Y-4075888D01*
X9105896Y-4075888D02*
X9096373Y-4056841D01*
X9096373Y-4056841D02*
X9077325Y-4047317D01*
X9077325Y-4047317D02*
X9048753Y-4047317D01*
X9048753Y-4047317D02*
X9029706Y-4037793D01*
X9029706Y-4037793D02*
X9020182Y-4018746D01*
X9020182Y-4018746D02*
X9020182Y-4009222D01*
X9020182Y-4009222D02*
X9029706Y-3990174D01*
X9029706Y-3990174D02*
X9048753Y-3980650D01*
X9048753Y-3980650D02*
X9077325Y-3980650D01*
X9077325Y-3980650D02*
X9096373Y-3990174D01*
X9172563Y-4190174D02*
X9182087Y-4180650D01*
X9182087Y-4180650D02*
X9201134Y-4152079D01*
X9201134Y-4152079D02*
X9210658Y-4133031D01*
X9210658Y-4133031D02*
X9220182Y-4104460D01*
X9220182Y-4104460D02*
X9229706Y-4056841D01*
X9229706Y-4056841D02*
X9229706Y-4018746D01*
X9229706Y-4018746D02*
X9220182Y-3971127D01*
X9220182Y-3971127D02*
X9210658Y-3942555D01*
X9210658Y-3942555D02*
X9201134Y-3923508D01*
X9201134Y-3923508D02*
X9182087Y-3894936D01*
X9182087Y-3894936D02*
X9172563Y-3885412D01*
X9534468Y-4190174D02*
X9524944Y-4180650D01*
X9524944Y-4180650D02*
X9505896Y-4152079D01*
X9505896Y-4152079D02*
X9496373Y-4133031D01*
X9496373Y-4133031D02*
X9486849Y-4104460D01*
X9486849Y-4104460D02*
X9477325Y-4056841D01*
X9477325Y-4056841D02*
X9477325Y-4018746D01*
X9477325Y-4018746D02*
X9486849Y-3971127D01*
X9486849Y-3971127D02*
X9496373Y-3942555D01*
X9496373Y-3942555D02*
X9505896Y-3923508D01*
X9505896Y-3923508D02*
X9524944Y-3894936D01*
X9524944Y-3894936D02*
X9534468Y-3885412D01*
X9610658Y-3980650D02*
X9610658Y-4113984D01*
X9610658Y-3999698D02*
X9620182Y-3990174D01*
X9620182Y-3990174D02*
X9639230Y-3980650D01*
X9639230Y-3980650D02*
X9667801Y-3980650D01*
X9667801Y-3980650D02*
X9686849Y-3990174D01*
X9686849Y-3990174D02*
X9696373Y-4009222D01*
X9696373Y-4009222D02*
X9696373Y-4113984D01*
X9820182Y-4113984D02*
X9801134Y-4104460D01*
X9801134Y-4104460D02*
X9791611Y-4094936D01*
X9791611Y-4094936D02*
X9782087Y-4075888D01*
X9782087Y-4075888D02*
X9782087Y-4018746D01*
X9782087Y-4018746D02*
X9791611Y-3999698D01*
X9791611Y-3999698D02*
X9801134Y-3990174D01*
X9801134Y-3990174D02*
X9820182Y-3980650D01*
X9820182Y-3980650D02*
X9848754Y-3980650D01*
X9848754Y-3980650D02*
X9867801Y-3990174D01*
X9867801Y-3990174D02*
X9877325Y-3999698D01*
X9877325Y-3999698D02*
X9886849Y-4018746D01*
X9886849Y-4018746D02*
X9886849Y-4075888D01*
X9886849Y-4075888D02*
X9877325Y-4094936D01*
X9877325Y-4094936D02*
X9867801Y-4104460D01*
X9867801Y-4104460D02*
X9848754Y-4113984D01*
X9848754Y-4113984D02*
X9820182Y-4113984D01*
X9943992Y-3980650D02*
X10020182Y-3980650D01*
X9972563Y-3913984D02*
X9972563Y-4085412D01*
X9972563Y-4085412D02*
X9982087Y-4104460D01*
X9982087Y-4104460D02*
X10001134Y-4113984D01*
X10001134Y-4113984D02*
X10020182Y-4113984D01*
X10239230Y-3980650D02*
X10239230Y-4180650D01*
X10239230Y-3990174D02*
X10258277Y-3980650D01*
X10258277Y-3980650D02*
X10296373Y-3980650D01*
X10296373Y-3980650D02*
X10315420Y-3990174D01*
X10315420Y-3990174D02*
X10324944Y-3999698D01*
X10324944Y-3999698D02*
X10334468Y-4018746D01*
X10334468Y-4018746D02*
X10334468Y-4075888D01*
X10334468Y-4075888D02*
X10324944Y-4094936D01*
X10324944Y-4094936D02*
X10315420Y-4104460D01*
X10315420Y-4104460D02*
X10296373Y-4113984D01*
X10296373Y-4113984D02*
X10258277Y-4113984D01*
X10258277Y-4113984D02*
X10239230Y-4104460D01*
X10448754Y-4113984D02*
X10429706Y-4104460D01*
X10429706Y-4104460D02*
X10420182Y-4085412D01*
X10420182Y-4085412D02*
X10420182Y-3913984D01*
X10610658Y-4113984D02*
X10610658Y-4009222D01*
X10610658Y-4009222D02*
X10601135Y-3990174D01*
X10601135Y-3990174D02*
X10582087Y-3980650D01*
X10582087Y-3980650D02*
X10543992Y-3980650D01*
X10543992Y-3980650D02*
X10524944Y-3990174D01*
X10610658Y-4104460D02*
X10591611Y-4113984D01*
X10591611Y-4113984D02*
X10543992Y-4113984D01*
X10543992Y-4113984D02*
X10524944Y-4104460D01*
X10524944Y-4104460D02*
X10515420Y-4085412D01*
X10515420Y-4085412D02*
X10515420Y-4066365D01*
X10515420Y-4066365D02*
X10524944Y-4047317D01*
X10524944Y-4047317D02*
X10543992Y-4037793D01*
X10543992Y-4037793D02*
X10591611Y-4037793D01*
X10591611Y-4037793D02*
X10610658Y-4028269D01*
X10677325Y-3980650D02*
X10753515Y-3980650D01*
X10705896Y-3913984D02*
X10705896Y-4085412D01*
X10705896Y-4085412D02*
X10715420Y-4104460D01*
X10715420Y-4104460D02*
X10734468Y-4113984D01*
X10734468Y-4113984D02*
X10753515Y-4113984D01*
X10896373Y-4104460D02*
X10877325Y-4113984D01*
X10877325Y-4113984D02*
X10839230Y-4113984D01*
X10839230Y-4113984D02*
X10820182Y-4104460D01*
X10820182Y-4104460D02*
X10810658Y-4085412D01*
X10810658Y-4085412D02*
X10810658Y-4009222D01*
X10810658Y-4009222D02*
X10820182Y-3990174D01*
X10820182Y-3990174D02*
X10839230Y-3980650D01*
X10839230Y-3980650D02*
X10877325Y-3980650D01*
X10877325Y-3980650D02*
X10896373Y-3990174D01*
X10896373Y-3990174D02*
X10905896Y-4009222D01*
X10905896Y-4009222D02*
X10905896Y-4028269D01*
X10905896Y-4028269D02*
X10810658Y-4047317D01*
X11077325Y-4113984D02*
X11077325Y-3913984D01*
X11077325Y-4104460D02*
X11058277Y-4113984D01*
X11058277Y-4113984D02*
X11020182Y-4113984D01*
X11020182Y-4113984D02*
X11001135Y-4104460D01*
X11001135Y-4104460D02*
X10991611Y-4094936D01*
X10991611Y-4094936D02*
X10982087Y-4075888D01*
X10982087Y-4075888D02*
X10982087Y-4018746D01*
X10982087Y-4018746D02*
X10991611Y-3999698D01*
X10991611Y-3999698D02*
X11001135Y-3990174D01*
X11001135Y-3990174D02*
X11020182Y-3980650D01*
X11020182Y-3980650D02*
X11058277Y-3980650D01*
X11058277Y-3980650D02*
X11077325Y-3990174D01*
X11153516Y-4190174D02*
X11163039Y-4180650D01*
X11163039Y-4180650D02*
X11182087Y-4152079D01*
X11182087Y-4152079D02*
X11191611Y-4133031D01*
X11191611Y-4133031D02*
X11201134Y-4104460D01*
X11201134Y-4104460D02*
X11210658Y-4056841D01*
X11210658Y-4056841D02*
X11210658Y-4018746D01*
X11210658Y-4018746D02*
X11201134Y-3971127D01*
X11201134Y-3971127D02*
X11191611Y-3942555D01*
X11191611Y-3942555D02*
X11182087Y-3923508D01*
X11182087Y-3923508D02*
X11163039Y-3894936D01*
X11163039Y-3894936D02*
X11153516Y-3885412D01*
D14*
X4307500Y-4196500D02*
X4307500Y-4376500D01*
X4217500Y-4286500D02*
X4397500Y-4286500D01*
D11*
X4763039Y-4377984D02*
X4648753Y-4377984D01*
X4705896Y-4377984D02*
X4705896Y-4177984D01*
X4705896Y-4177984D02*
X4686848Y-4206555D01*
X4686848Y-4206555D02*
X4667801Y-4225603D01*
X4667801Y-4225603D02*
X4648753Y-4235127D01*
X4848753Y-4358936D02*
X4858277Y-4368460D01*
X4858277Y-4368460D02*
X4848753Y-4377984D01*
X4848753Y-4377984D02*
X4839229Y-4368460D01*
X4839229Y-4368460D02*
X4848753Y-4358936D01*
X4848753Y-4358936D02*
X4848753Y-4377984D01*
X4972563Y-4263698D02*
X4953515Y-4254174D01*
X4953515Y-4254174D02*
X4943991Y-4244650D01*
X4943991Y-4244650D02*
X4934467Y-4225603D01*
X4934467Y-4225603D02*
X4934467Y-4216079D01*
X4934467Y-4216079D02*
X4943991Y-4197031D01*
X4943991Y-4197031D02*
X4953515Y-4187508D01*
X4953515Y-4187508D02*
X4972563Y-4177984D01*
X4972563Y-4177984D02*
X5010658Y-4177984D01*
X5010658Y-4177984D02*
X5029705Y-4187508D01*
X5029705Y-4187508D02*
X5039229Y-4197031D01*
X5039229Y-4197031D02*
X5048753Y-4216079D01*
X5048753Y-4216079D02*
X5048753Y-4225603D01*
X5048753Y-4225603D02*
X5039229Y-4244650D01*
X5039229Y-4244650D02*
X5029705Y-4254174D01*
X5029705Y-4254174D02*
X5010658Y-4263698D01*
X5010658Y-4263698D02*
X4972563Y-4263698D01*
X4972563Y-4263698D02*
X4953515Y-4273222D01*
X4953515Y-4273222D02*
X4943991Y-4282746D01*
X4943991Y-4282746D02*
X4934467Y-4301793D01*
X4934467Y-4301793D02*
X4934467Y-4339889D01*
X4934467Y-4339889D02*
X4943991Y-4358936D01*
X4943991Y-4358936D02*
X4953515Y-4368460D01*
X4953515Y-4368460D02*
X4972563Y-4377984D01*
X4972563Y-4377984D02*
X5010658Y-4377984D01*
X5010658Y-4377984D02*
X5029705Y-4368460D01*
X5029705Y-4368460D02*
X5039229Y-4358936D01*
X5039229Y-4358936D02*
X5048753Y-4339889D01*
X5048753Y-4339889D02*
X5048753Y-4301793D01*
X5048753Y-4301793D02*
X5039229Y-4282746D01*
X5039229Y-4282746D02*
X5029705Y-4273222D01*
X5029705Y-4273222D02*
X5010658Y-4263698D01*
X5172563Y-4177984D02*
X5191610Y-4177984D01*
X5191610Y-4177984D02*
X5210658Y-4187508D01*
X5210658Y-4187508D02*
X5220182Y-4197031D01*
X5220182Y-4197031D02*
X5229705Y-4216079D01*
X5229705Y-4216079D02*
X5239229Y-4254174D01*
X5239229Y-4254174D02*
X5239229Y-4301793D01*
X5239229Y-4301793D02*
X5229705Y-4339889D01*
X5229705Y-4339889D02*
X5220182Y-4358936D01*
X5220182Y-4358936D02*
X5210658Y-4368460D01*
X5210658Y-4368460D02*
X5191610Y-4377984D01*
X5191610Y-4377984D02*
X5172563Y-4377984D01*
X5172563Y-4377984D02*
X5153515Y-4368460D01*
X5153515Y-4368460D02*
X5143991Y-4358936D01*
X5143991Y-4358936D02*
X5134467Y-4339889D01*
X5134467Y-4339889D02*
X5124944Y-4301793D01*
X5124944Y-4301793D02*
X5124944Y-4254174D01*
X5124944Y-4254174D02*
X5134467Y-4216079D01*
X5134467Y-4216079D02*
X5143991Y-4197031D01*
X5143991Y-4197031D02*
X5153515Y-4187508D01*
X5153515Y-4187508D02*
X5172563Y-4177984D01*
X5363039Y-4177984D02*
X5382086Y-4177984D01*
X5382086Y-4177984D02*
X5401134Y-4187508D01*
X5401134Y-4187508D02*
X5410658Y-4197031D01*
X5410658Y-4197031D02*
X5420182Y-4216079D01*
X5420182Y-4216079D02*
X5429705Y-4254174D01*
X5429705Y-4254174D02*
X5429705Y-4301793D01*
X5429705Y-4301793D02*
X5420182Y-4339889D01*
X5420182Y-4339889D02*
X5410658Y-4358936D01*
X5410658Y-4358936D02*
X5401134Y-4368460D01*
X5401134Y-4368460D02*
X5382086Y-4377984D01*
X5382086Y-4377984D02*
X5363039Y-4377984D01*
X5363039Y-4377984D02*
X5343991Y-4368460D01*
X5343991Y-4368460D02*
X5334467Y-4358936D01*
X5334467Y-4358936D02*
X5324944Y-4339889D01*
X5324944Y-4339889D02*
X5315420Y-4301793D01*
X5315420Y-4301793D02*
X5315420Y-4254174D01*
X5315420Y-4254174D02*
X5324944Y-4216079D01*
X5324944Y-4216079D02*
X5334467Y-4197031D01*
X5334467Y-4197031D02*
X5343991Y-4187508D01*
X5343991Y-4187508D02*
X5363039Y-4177984D01*
X5515420Y-4377984D02*
X5515420Y-4244650D01*
X5515420Y-4263698D02*
X5524944Y-4254174D01*
X5524944Y-4254174D02*
X5543991Y-4244650D01*
X5543991Y-4244650D02*
X5572563Y-4244650D01*
X5572563Y-4244650D02*
X5591610Y-4254174D01*
X5591610Y-4254174D02*
X5601134Y-4273222D01*
X5601134Y-4273222D02*
X5601134Y-4377984D01*
X5601134Y-4273222D02*
X5610658Y-4254174D01*
X5610658Y-4254174D02*
X5629705Y-4244650D01*
X5629705Y-4244650D02*
X5658277Y-4244650D01*
X5658277Y-4244650D02*
X5677324Y-4254174D01*
X5677324Y-4254174D02*
X5686848Y-4273222D01*
X5686848Y-4273222D02*
X5686848Y-4377984D01*
X5782086Y-4377984D02*
X5782086Y-4244650D01*
X5782086Y-4263698D02*
X5791610Y-4254174D01*
X5791610Y-4254174D02*
X5810658Y-4244650D01*
X5810658Y-4244650D02*
X5839229Y-4244650D01*
X5839229Y-4244650D02*
X5858277Y-4254174D01*
X5858277Y-4254174D02*
X5867801Y-4273222D01*
X5867801Y-4273222D02*
X5867801Y-4377984D01*
X5867801Y-4273222D02*
X5877324Y-4254174D01*
X5877324Y-4254174D02*
X5896372Y-4244650D01*
X5896372Y-4244650D02*
X5924943Y-4244650D01*
X5924943Y-4244650D02*
X5943991Y-4254174D01*
X5943991Y-4254174D02*
X5953515Y-4273222D01*
X5953515Y-4273222D02*
X5953515Y-4377984D01*
X6343991Y-4168460D02*
X6172563Y-4425603D01*
X6601134Y-4177984D02*
X6620182Y-4177984D01*
X6620182Y-4177984D02*
X6639229Y-4187508D01*
X6639229Y-4187508D02*
X6648753Y-4197031D01*
X6648753Y-4197031D02*
X6658277Y-4216079D01*
X6658277Y-4216079D02*
X6667801Y-4254174D01*
X6667801Y-4254174D02*
X6667801Y-4301793D01*
X6667801Y-4301793D02*
X6658277Y-4339889D01*
X6658277Y-4339889D02*
X6648753Y-4358936D01*
X6648753Y-4358936D02*
X6639229Y-4368460D01*
X6639229Y-4368460D02*
X6620182Y-4377984D01*
X6620182Y-4377984D02*
X6601134Y-4377984D01*
X6601134Y-4377984D02*
X6582086Y-4368460D01*
X6582086Y-4368460D02*
X6572563Y-4358936D01*
X6572563Y-4358936D02*
X6563039Y-4339889D01*
X6563039Y-4339889D02*
X6553515Y-4301793D01*
X6553515Y-4301793D02*
X6553515Y-4254174D01*
X6553515Y-4254174D02*
X6563039Y-4216079D01*
X6563039Y-4216079D02*
X6572563Y-4197031D01*
X6572563Y-4197031D02*
X6582086Y-4187508D01*
X6582086Y-4187508D02*
X6601134Y-4177984D01*
X6753515Y-4358936D02*
X6763039Y-4368460D01*
X6763039Y-4368460D02*
X6753515Y-4377984D01*
X6753515Y-4377984D02*
X6743991Y-4368460D01*
X6743991Y-4368460D02*
X6753515Y-4358936D01*
X6753515Y-4358936D02*
X6753515Y-4377984D01*
X6886848Y-4177984D02*
X6905896Y-4177984D01*
X6905896Y-4177984D02*
X6924944Y-4187508D01*
X6924944Y-4187508D02*
X6934467Y-4197031D01*
X6934467Y-4197031D02*
X6943991Y-4216079D01*
X6943991Y-4216079D02*
X6953515Y-4254174D01*
X6953515Y-4254174D02*
X6953515Y-4301793D01*
X6953515Y-4301793D02*
X6943991Y-4339889D01*
X6943991Y-4339889D02*
X6934467Y-4358936D01*
X6934467Y-4358936D02*
X6924944Y-4368460D01*
X6924944Y-4368460D02*
X6905896Y-4377984D01*
X6905896Y-4377984D02*
X6886848Y-4377984D01*
X6886848Y-4377984D02*
X6867801Y-4368460D01*
X6867801Y-4368460D02*
X6858277Y-4358936D01*
X6858277Y-4358936D02*
X6848753Y-4339889D01*
X6848753Y-4339889D02*
X6839229Y-4301793D01*
X6839229Y-4301793D02*
X6839229Y-4254174D01*
X6839229Y-4254174D02*
X6848753Y-4216079D01*
X6848753Y-4216079D02*
X6858277Y-4197031D01*
X6858277Y-4197031D02*
X6867801Y-4187508D01*
X6867801Y-4187508D02*
X6886848Y-4177984D01*
X7020182Y-4177984D02*
X7153515Y-4177984D01*
X7153515Y-4177984D02*
X7067801Y-4377984D01*
X7267801Y-4177984D02*
X7286848Y-4177984D01*
X7286848Y-4177984D02*
X7305896Y-4187508D01*
X7305896Y-4187508D02*
X7315420Y-4197031D01*
X7315420Y-4197031D02*
X7324944Y-4216079D01*
X7324944Y-4216079D02*
X7334467Y-4254174D01*
X7334467Y-4254174D02*
X7334467Y-4301793D01*
X7334467Y-4301793D02*
X7324944Y-4339889D01*
X7324944Y-4339889D02*
X7315420Y-4358936D01*
X7315420Y-4358936D02*
X7305896Y-4368460D01*
X7305896Y-4368460D02*
X7286848Y-4377984D01*
X7286848Y-4377984D02*
X7267801Y-4377984D01*
X7267801Y-4377984D02*
X7248753Y-4368460D01*
X7248753Y-4368460D02*
X7239229Y-4358936D01*
X7239229Y-4358936D02*
X7229706Y-4339889D01*
X7229706Y-4339889D02*
X7220182Y-4301793D01*
X7220182Y-4301793D02*
X7220182Y-4254174D01*
X7220182Y-4254174D02*
X7229706Y-4216079D01*
X7229706Y-4216079D02*
X7239229Y-4197031D01*
X7239229Y-4197031D02*
X7248753Y-4187508D01*
X7248753Y-4187508D02*
X7267801Y-4177984D01*
X7429706Y-4377984D02*
X7467801Y-4377984D01*
X7467801Y-4377984D02*
X7486848Y-4368460D01*
X7486848Y-4368460D02*
X7496372Y-4358936D01*
X7496372Y-4358936D02*
X7515420Y-4330365D01*
X7515420Y-4330365D02*
X7524944Y-4292270D01*
X7524944Y-4292270D02*
X7524944Y-4216079D01*
X7524944Y-4216079D02*
X7515420Y-4197031D01*
X7515420Y-4197031D02*
X7505896Y-4187508D01*
X7505896Y-4187508D02*
X7486848Y-4177984D01*
X7486848Y-4177984D02*
X7448753Y-4177984D01*
X7448753Y-4177984D02*
X7429706Y-4187508D01*
X7429706Y-4187508D02*
X7420182Y-4197031D01*
X7420182Y-4197031D02*
X7410658Y-4216079D01*
X7410658Y-4216079D02*
X7410658Y-4263698D01*
X7410658Y-4263698D02*
X7420182Y-4282746D01*
X7420182Y-4282746D02*
X7429706Y-4292270D01*
X7429706Y-4292270D02*
X7448753Y-4301793D01*
X7448753Y-4301793D02*
X7486848Y-4301793D01*
X7486848Y-4301793D02*
X7505896Y-4292270D01*
X7505896Y-4292270D02*
X7515420Y-4282746D01*
X7515420Y-4282746D02*
X7524944Y-4263698D01*
X7601134Y-4177984D02*
X7601134Y-4216079D01*
X7677325Y-4177984D02*
X7677325Y-4216079D01*
X7972563Y-4454174D02*
X7963039Y-4444650D01*
X7963039Y-4444650D02*
X7943991Y-4416079D01*
X7943991Y-4416079D02*
X7934468Y-4397031D01*
X7934468Y-4397031D02*
X7924944Y-4368460D01*
X7924944Y-4368460D02*
X7915420Y-4320841D01*
X7915420Y-4320841D02*
X7915420Y-4282746D01*
X7915420Y-4282746D02*
X7924944Y-4235127D01*
X7924944Y-4235127D02*
X7934468Y-4206555D01*
X7934468Y-4206555D02*
X7943991Y-4187508D01*
X7943991Y-4187508D02*
X7963039Y-4158936D01*
X7963039Y-4158936D02*
X7972563Y-4149412D01*
X8134468Y-4244650D02*
X8134468Y-4377984D01*
X8086848Y-4168460D02*
X8039229Y-4311317D01*
X8039229Y-4311317D02*
X8163039Y-4311317D01*
X8391611Y-4377984D02*
X8391611Y-4177984D01*
X8477325Y-4377984D02*
X8477325Y-4273222D01*
X8477325Y-4273222D02*
X8467801Y-4254174D01*
X8467801Y-4254174D02*
X8448753Y-4244650D01*
X8448753Y-4244650D02*
X8420182Y-4244650D01*
X8420182Y-4244650D02*
X8401134Y-4254174D01*
X8401134Y-4254174D02*
X8391611Y-4263698D01*
X8601134Y-4377984D02*
X8582087Y-4368460D01*
X8582087Y-4368460D02*
X8572563Y-4358936D01*
X8572563Y-4358936D02*
X8563039Y-4339889D01*
X8563039Y-4339889D02*
X8563039Y-4282746D01*
X8563039Y-4282746D02*
X8572563Y-4263698D01*
X8572563Y-4263698D02*
X8582087Y-4254174D01*
X8582087Y-4254174D02*
X8601134Y-4244650D01*
X8601134Y-4244650D02*
X8629706Y-4244650D01*
X8629706Y-4244650D02*
X8648753Y-4254174D01*
X8648753Y-4254174D02*
X8658277Y-4263698D01*
X8658277Y-4263698D02*
X8667801Y-4282746D01*
X8667801Y-4282746D02*
X8667801Y-4339889D01*
X8667801Y-4339889D02*
X8658277Y-4358936D01*
X8658277Y-4358936D02*
X8648753Y-4368460D01*
X8648753Y-4368460D02*
X8629706Y-4377984D01*
X8629706Y-4377984D02*
X8601134Y-4377984D01*
X8782087Y-4377984D02*
X8763039Y-4368460D01*
X8763039Y-4368460D02*
X8753515Y-4349412D01*
X8753515Y-4349412D02*
X8753515Y-4177984D01*
X8934468Y-4368460D02*
X8915420Y-4377984D01*
X8915420Y-4377984D02*
X8877325Y-4377984D01*
X8877325Y-4377984D02*
X8858277Y-4368460D01*
X8858277Y-4368460D02*
X8848753Y-4349412D01*
X8848753Y-4349412D02*
X8848753Y-4273222D01*
X8848753Y-4273222D02*
X8858277Y-4254174D01*
X8858277Y-4254174D02*
X8877325Y-4244650D01*
X8877325Y-4244650D02*
X8915420Y-4244650D01*
X8915420Y-4244650D02*
X8934468Y-4254174D01*
X8934468Y-4254174D02*
X8943992Y-4273222D01*
X8943992Y-4273222D02*
X8943992Y-4292270D01*
X8943992Y-4292270D02*
X8848753Y-4311317D01*
X9020182Y-4368460D02*
X9039230Y-4377984D01*
X9039230Y-4377984D02*
X9077325Y-4377984D01*
X9077325Y-4377984D02*
X9096373Y-4368460D01*
X9096373Y-4368460D02*
X9105896Y-4349412D01*
X9105896Y-4349412D02*
X9105896Y-4339889D01*
X9105896Y-4339889D02*
X9096373Y-4320841D01*
X9096373Y-4320841D02*
X9077325Y-4311317D01*
X9077325Y-4311317D02*
X9048753Y-4311317D01*
X9048753Y-4311317D02*
X9029706Y-4301793D01*
X9029706Y-4301793D02*
X9020182Y-4282746D01*
X9020182Y-4282746D02*
X9020182Y-4273222D01*
X9020182Y-4273222D02*
X9029706Y-4254174D01*
X9029706Y-4254174D02*
X9048753Y-4244650D01*
X9048753Y-4244650D02*
X9077325Y-4244650D01*
X9077325Y-4244650D02*
X9096373Y-4254174D01*
X9172563Y-4454174D02*
X9182087Y-4444650D01*
X9182087Y-4444650D02*
X9201134Y-4416079D01*
X9201134Y-4416079D02*
X9210658Y-4397031D01*
X9210658Y-4397031D02*
X9220182Y-4368460D01*
X9220182Y-4368460D02*
X9229706Y-4320841D01*
X9229706Y-4320841D02*
X9229706Y-4282746D01*
X9229706Y-4282746D02*
X9220182Y-4235127D01*
X9220182Y-4235127D02*
X9210658Y-4206555D01*
X9210658Y-4206555D02*
X9201134Y-4187508D01*
X9201134Y-4187508D02*
X9182087Y-4158936D01*
X9182087Y-4158936D02*
X9172563Y-4149412D01*
X9534468Y-4454174D02*
X9524944Y-4444650D01*
X9524944Y-4444650D02*
X9505896Y-4416079D01*
X9505896Y-4416079D02*
X9496373Y-4397031D01*
X9496373Y-4397031D02*
X9486849Y-4368460D01*
X9486849Y-4368460D02*
X9477325Y-4320841D01*
X9477325Y-4320841D02*
X9477325Y-4282746D01*
X9477325Y-4282746D02*
X9486849Y-4235127D01*
X9486849Y-4235127D02*
X9496373Y-4206555D01*
X9496373Y-4206555D02*
X9505896Y-4187508D01*
X9505896Y-4187508D02*
X9524944Y-4158936D01*
X9524944Y-4158936D02*
X9534468Y-4149412D01*
X9610658Y-4244650D02*
X9610658Y-4377984D01*
X9610658Y-4263698D02*
X9620182Y-4254174D01*
X9620182Y-4254174D02*
X9639230Y-4244650D01*
X9639230Y-4244650D02*
X9667801Y-4244650D01*
X9667801Y-4244650D02*
X9686849Y-4254174D01*
X9686849Y-4254174D02*
X9696373Y-4273222D01*
X9696373Y-4273222D02*
X9696373Y-4377984D01*
X9820182Y-4377984D02*
X9801134Y-4368460D01*
X9801134Y-4368460D02*
X9791611Y-4358936D01*
X9791611Y-4358936D02*
X9782087Y-4339889D01*
X9782087Y-4339889D02*
X9782087Y-4282746D01*
X9782087Y-4282746D02*
X9791611Y-4263698D01*
X9791611Y-4263698D02*
X9801134Y-4254174D01*
X9801134Y-4254174D02*
X9820182Y-4244650D01*
X9820182Y-4244650D02*
X9848754Y-4244650D01*
X9848754Y-4244650D02*
X9867801Y-4254174D01*
X9867801Y-4254174D02*
X9877325Y-4263698D01*
X9877325Y-4263698D02*
X9886849Y-4282746D01*
X9886849Y-4282746D02*
X9886849Y-4339889D01*
X9886849Y-4339889D02*
X9877325Y-4358936D01*
X9877325Y-4358936D02*
X9867801Y-4368460D01*
X9867801Y-4368460D02*
X9848754Y-4377984D01*
X9848754Y-4377984D02*
X9820182Y-4377984D01*
X9943992Y-4244650D02*
X10020182Y-4244650D01*
X9972563Y-4177984D02*
X9972563Y-4349412D01*
X9972563Y-4349412D02*
X9982087Y-4368460D01*
X9982087Y-4368460D02*
X10001134Y-4377984D01*
X10001134Y-4377984D02*
X10020182Y-4377984D01*
X10239230Y-4244650D02*
X10239230Y-4444650D01*
X10239230Y-4254174D02*
X10258277Y-4244650D01*
X10258277Y-4244650D02*
X10296373Y-4244650D01*
X10296373Y-4244650D02*
X10315420Y-4254174D01*
X10315420Y-4254174D02*
X10324944Y-4263698D01*
X10324944Y-4263698D02*
X10334468Y-4282746D01*
X10334468Y-4282746D02*
X10334468Y-4339889D01*
X10334468Y-4339889D02*
X10324944Y-4358936D01*
X10324944Y-4358936D02*
X10315420Y-4368460D01*
X10315420Y-4368460D02*
X10296373Y-4377984D01*
X10296373Y-4377984D02*
X10258277Y-4377984D01*
X10258277Y-4377984D02*
X10239230Y-4368460D01*
X10448754Y-4377984D02*
X10429706Y-4368460D01*
X10429706Y-4368460D02*
X10420182Y-4349412D01*
X10420182Y-4349412D02*
X10420182Y-4177984D01*
X10610658Y-4377984D02*
X10610658Y-4273222D01*
X10610658Y-4273222D02*
X10601135Y-4254174D01*
X10601135Y-4254174D02*
X10582087Y-4244650D01*
X10582087Y-4244650D02*
X10543992Y-4244650D01*
X10543992Y-4244650D02*
X10524944Y-4254174D01*
X10610658Y-4368460D02*
X10591611Y-4377984D01*
X10591611Y-4377984D02*
X10543992Y-4377984D01*
X10543992Y-4377984D02*
X10524944Y-4368460D01*
X10524944Y-4368460D02*
X10515420Y-4349412D01*
X10515420Y-4349412D02*
X10515420Y-4330365D01*
X10515420Y-4330365D02*
X10524944Y-4311317D01*
X10524944Y-4311317D02*
X10543992Y-4301793D01*
X10543992Y-4301793D02*
X10591611Y-4301793D01*
X10591611Y-4301793D02*
X10610658Y-4292270D01*
X10677325Y-4244650D02*
X10753515Y-4244650D01*
X10705896Y-4177984D02*
X10705896Y-4349412D01*
X10705896Y-4349412D02*
X10715420Y-4368460D01*
X10715420Y-4368460D02*
X10734468Y-4377984D01*
X10734468Y-4377984D02*
X10753515Y-4377984D01*
X10896373Y-4368460D02*
X10877325Y-4377984D01*
X10877325Y-4377984D02*
X10839230Y-4377984D01*
X10839230Y-4377984D02*
X10820182Y-4368460D01*
X10820182Y-4368460D02*
X10810658Y-4349412D01*
X10810658Y-4349412D02*
X10810658Y-4273222D01*
X10810658Y-4273222D02*
X10820182Y-4254174D01*
X10820182Y-4254174D02*
X10839230Y-4244650D01*
X10839230Y-4244650D02*
X10877325Y-4244650D01*
X10877325Y-4244650D02*
X10896373Y-4254174D01*
X10896373Y-4254174D02*
X10905896Y-4273222D01*
X10905896Y-4273222D02*
X10905896Y-4292270D01*
X10905896Y-4292270D02*
X10810658Y-4311317D01*
X11077325Y-4377984D02*
X11077325Y-4177984D01*
X11077325Y-4368460D02*
X11058277Y-4377984D01*
X11058277Y-4377984D02*
X11020182Y-4377984D01*
X11020182Y-4377984D02*
X11001135Y-4368460D01*
X11001135Y-4368460D02*
X10991611Y-4358936D01*
X10991611Y-4358936D02*
X10982087Y-4339889D01*
X10982087Y-4339889D02*
X10982087Y-4282746D01*
X10982087Y-4282746D02*
X10991611Y-4263698D01*
X10991611Y-4263698D02*
X11001135Y-4254174D01*
X11001135Y-4254174D02*
X11020182Y-4244650D01*
X11020182Y-4244650D02*
X11058277Y-4244650D01*
X11058277Y-4244650D02*
X11077325Y-4254174D01*
X11153516Y-4454174D02*
X11163039Y-4444650D01*
X11163039Y-4444650D02*
X11182087Y-4416079D01*
X11182087Y-4416079D02*
X11191611Y-4397031D01*
X11191611Y-4397031D02*
X11201134Y-4368460D01*
X11201134Y-4368460D02*
X11210658Y-4320841D01*
X11210658Y-4320841D02*
X11210658Y-4282746D01*
X11210658Y-4282746D02*
X11201134Y-4235127D01*
X11201134Y-4235127D02*
X11191611Y-4206555D01*
X11191611Y-4206555D02*
X11182087Y-4187508D01*
X11182087Y-4187508D02*
X11163039Y-4158936D01*
X11163039Y-4158936D02*
X11153516Y-4149412D01*
X4368211Y-4657211D02*
X4368211Y-4515789D01*
X4226789Y-4515789D01*
X4226789Y-4657211D01*
X4368211Y-4657211D01*
X4648753Y-4497031D02*
X4658277Y-4487508D01*
X4658277Y-4487508D02*
X4677324Y-4477984D01*
X4677324Y-4477984D02*
X4724944Y-4477984D01*
X4724944Y-4477984D02*
X4743991Y-4487508D01*
X4743991Y-4487508D02*
X4753515Y-4497031D01*
X4753515Y-4497031D02*
X4763039Y-4516079D01*
X4763039Y-4516079D02*
X4763039Y-4535127D01*
X4763039Y-4535127D02*
X4753515Y-4563698D01*
X4753515Y-4563698D02*
X4639229Y-4677984D01*
X4639229Y-4677984D02*
X4763039Y-4677984D01*
X4848753Y-4658936D02*
X4858277Y-4668460D01*
X4858277Y-4668460D02*
X4848753Y-4677984D01*
X4848753Y-4677984D02*
X4839229Y-4668460D01*
X4839229Y-4668460D02*
X4848753Y-4658936D01*
X4848753Y-4658936D02*
X4848753Y-4677984D01*
X5039229Y-4477984D02*
X4943991Y-4477984D01*
X4943991Y-4477984D02*
X4934467Y-4573222D01*
X4934467Y-4573222D02*
X4943991Y-4563698D01*
X4943991Y-4563698D02*
X4963039Y-4554174D01*
X4963039Y-4554174D02*
X5010658Y-4554174D01*
X5010658Y-4554174D02*
X5029705Y-4563698D01*
X5029705Y-4563698D02*
X5039229Y-4573222D01*
X5039229Y-4573222D02*
X5048753Y-4592270D01*
X5048753Y-4592270D02*
X5048753Y-4639889D01*
X5048753Y-4639889D02*
X5039229Y-4658936D01*
X5039229Y-4658936D02*
X5029705Y-4668460D01*
X5029705Y-4668460D02*
X5010658Y-4677984D01*
X5010658Y-4677984D02*
X4963039Y-4677984D01*
X4963039Y-4677984D02*
X4943991Y-4668460D01*
X4943991Y-4668460D02*
X4934467Y-4658936D01*
X5172563Y-4477984D02*
X5191610Y-4477984D01*
X5191610Y-4477984D02*
X5210658Y-4487508D01*
X5210658Y-4487508D02*
X5220182Y-4497031D01*
X5220182Y-4497031D02*
X5229705Y-4516079D01*
X5229705Y-4516079D02*
X5239229Y-4554174D01*
X5239229Y-4554174D02*
X5239229Y-4601793D01*
X5239229Y-4601793D02*
X5229705Y-4639889D01*
X5229705Y-4639889D02*
X5220182Y-4658936D01*
X5220182Y-4658936D02*
X5210658Y-4668460D01*
X5210658Y-4668460D02*
X5191610Y-4677984D01*
X5191610Y-4677984D02*
X5172563Y-4677984D01*
X5172563Y-4677984D02*
X5153515Y-4668460D01*
X5153515Y-4668460D02*
X5143991Y-4658936D01*
X5143991Y-4658936D02*
X5134467Y-4639889D01*
X5134467Y-4639889D02*
X5124944Y-4601793D01*
X5124944Y-4601793D02*
X5124944Y-4554174D01*
X5124944Y-4554174D02*
X5134467Y-4516079D01*
X5134467Y-4516079D02*
X5143991Y-4497031D01*
X5143991Y-4497031D02*
X5153515Y-4487508D01*
X5153515Y-4487508D02*
X5172563Y-4477984D01*
X5363039Y-4477984D02*
X5382086Y-4477984D01*
X5382086Y-4477984D02*
X5401134Y-4487508D01*
X5401134Y-4487508D02*
X5410658Y-4497031D01*
X5410658Y-4497031D02*
X5420182Y-4516079D01*
X5420182Y-4516079D02*
X5429705Y-4554174D01*
X5429705Y-4554174D02*
X5429705Y-4601793D01*
X5429705Y-4601793D02*
X5420182Y-4639889D01*
X5420182Y-4639889D02*
X5410658Y-4658936D01*
X5410658Y-4658936D02*
X5401134Y-4668460D01*
X5401134Y-4668460D02*
X5382086Y-4677984D01*
X5382086Y-4677984D02*
X5363039Y-4677984D01*
X5363039Y-4677984D02*
X5343991Y-4668460D01*
X5343991Y-4668460D02*
X5334467Y-4658936D01*
X5334467Y-4658936D02*
X5324944Y-4639889D01*
X5324944Y-4639889D02*
X5315420Y-4601793D01*
X5315420Y-4601793D02*
X5315420Y-4554174D01*
X5315420Y-4554174D02*
X5324944Y-4516079D01*
X5324944Y-4516079D02*
X5334467Y-4497031D01*
X5334467Y-4497031D02*
X5343991Y-4487508D01*
X5343991Y-4487508D02*
X5363039Y-4477984D01*
X5515420Y-4677984D02*
X5515420Y-4544650D01*
X5515420Y-4563698D02*
X5524944Y-4554174D01*
X5524944Y-4554174D02*
X5543991Y-4544650D01*
X5543991Y-4544650D02*
X5572563Y-4544650D01*
X5572563Y-4544650D02*
X5591610Y-4554174D01*
X5591610Y-4554174D02*
X5601134Y-4573222D01*
X5601134Y-4573222D02*
X5601134Y-4677984D01*
X5601134Y-4573222D02*
X5610658Y-4554174D01*
X5610658Y-4554174D02*
X5629705Y-4544650D01*
X5629705Y-4544650D02*
X5658277Y-4544650D01*
X5658277Y-4544650D02*
X5677324Y-4554174D01*
X5677324Y-4554174D02*
X5686848Y-4573222D01*
X5686848Y-4573222D02*
X5686848Y-4677984D01*
X5782086Y-4677984D02*
X5782086Y-4544650D01*
X5782086Y-4563698D02*
X5791610Y-4554174D01*
X5791610Y-4554174D02*
X5810658Y-4544650D01*
X5810658Y-4544650D02*
X5839229Y-4544650D01*
X5839229Y-4544650D02*
X5858277Y-4554174D01*
X5858277Y-4554174D02*
X5867801Y-4573222D01*
X5867801Y-4573222D02*
X5867801Y-4677984D01*
X5867801Y-4573222D02*
X5877324Y-4554174D01*
X5877324Y-4554174D02*
X5896372Y-4544650D01*
X5896372Y-4544650D02*
X5924943Y-4544650D01*
X5924943Y-4544650D02*
X5943991Y-4554174D01*
X5943991Y-4554174D02*
X5953515Y-4573222D01*
X5953515Y-4573222D02*
X5953515Y-4677984D01*
X6343991Y-4468460D02*
X6172563Y-4725603D01*
X6601134Y-4477984D02*
X6620182Y-4477984D01*
X6620182Y-4477984D02*
X6639229Y-4487508D01*
X6639229Y-4487508D02*
X6648753Y-4497031D01*
X6648753Y-4497031D02*
X6658277Y-4516079D01*
X6658277Y-4516079D02*
X6667801Y-4554174D01*
X6667801Y-4554174D02*
X6667801Y-4601793D01*
X6667801Y-4601793D02*
X6658277Y-4639889D01*
X6658277Y-4639889D02*
X6648753Y-4658936D01*
X6648753Y-4658936D02*
X6639229Y-4668460D01*
X6639229Y-4668460D02*
X6620182Y-4677984D01*
X6620182Y-4677984D02*
X6601134Y-4677984D01*
X6601134Y-4677984D02*
X6582086Y-4668460D01*
X6582086Y-4668460D02*
X6572563Y-4658936D01*
X6572563Y-4658936D02*
X6563039Y-4639889D01*
X6563039Y-4639889D02*
X6553515Y-4601793D01*
X6553515Y-4601793D02*
X6553515Y-4554174D01*
X6553515Y-4554174D02*
X6563039Y-4516079D01*
X6563039Y-4516079D02*
X6572563Y-4497031D01*
X6572563Y-4497031D02*
X6582086Y-4487508D01*
X6582086Y-4487508D02*
X6601134Y-4477984D01*
X6753515Y-4658936D02*
X6763039Y-4668460D01*
X6763039Y-4668460D02*
X6753515Y-4677984D01*
X6753515Y-4677984D02*
X6743991Y-4668460D01*
X6743991Y-4668460D02*
X6753515Y-4658936D01*
X6753515Y-4658936D02*
X6753515Y-4677984D01*
X6886848Y-4477984D02*
X6905896Y-4477984D01*
X6905896Y-4477984D02*
X6924944Y-4487508D01*
X6924944Y-4487508D02*
X6934467Y-4497031D01*
X6934467Y-4497031D02*
X6943991Y-4516079D01*
X6943991Y-4516079D02*
X6953515Y-4554174D01*
X6953515Y-4554174D02*
X6953515Y-4601793D01*
X6953515Y-4601793D02*
X6943991Y-4639889D01*
X6943991Y-4639889D02*
X6934467Y-4658936D01*
X6934467Y-4658936D02*
X6924944Y-4668460D01*
X6924944Y-4668460D02*
X6905896Y-4677984D01*
X6905896Y-4677984D02*
X6886848Y-4677984D01*
X6886848Y-4677984D02*
X6867801Y-4668460D01*
X6867801Y-4668460D02*
X6858277Y-4658936D01*
X6858277Y-4658936D02*
X6848753Y-4639889D01*
X6848753Y-4639889D02*
X6839229Y-4601793D01*
X6839229Y-4601793D02*
X6839229Y-4554174D01*
X6839229Y-4554174D02*
X6848753Y-4516079D01*
X6848753Y-4516079D02*
X6858277Y-4497031D01*
X6858277Y-4497031D02*
X6867801Y-4487508D01*
X6867801Y-4487508D02*
X6886848Y-4477984D01*
X7048753Y-4677984D02*
X7086848Y-4677984D01*
X7086848Y-4677984D02*
X7105896Y-4668460D01*
X7105896Y-4668460D02*
X7115420Y-4658936D01*
X7115420Y-4658936D02*
X7134467Y-4630365D01*
X7134467Y-4630365D02*
X7143991Y-4592270D01*
X7143991Y-4592270D02*
X7143991Y-4516079D01*
X7143991Y-4516079D02*
X7134467Y-4497031D01*
X7134467Y-4497031D02*
X7124944Y-4487508D01*
X7124944Y-4487508D02*
X7105896Y-4477984D01*
X7105896Y-4477984D02*
X7067801Y-4477984D01*
X7067801Y-4477984D02*
X7048753Y-4487508D01*
X7048753Y-4487508D02*
X7039229Y-4497031D01*
X7039229Y-4497031D02*
X7029706Y-4516079D01*
X7029706Y-4516079D02*
X7029706Y-4563698D01*
X7029706Y-4563698D02*
X7039229Y-4582746D01*
X7039229Y-4582746D02*
X7048753Y-4592270D01*
X7048753Y-4592270D02*
X7067801Y-4601793D01*
X7067801Y-4601793D02*
X7105896Y-4601793D01*
X7105896Y-4601793D02*
X7124944Y-4592270D01*
X7124944Y-4592270D02*
X7134467Y-4582746D01*
X7134467Y-4582746D02*
X7143991Y-4563698D01*
X7258277Y-4563698D02*
X7239229Y-4554174D01*
X7239229Y-4554174D02*
X7229706Y-4544650D01*
X7229706Y-4544650D02*
X7220182Y-4525603D01*
X7220182Y-4525603D02*
X7220182Y-4516079D01*
X7220182Y-4516079D02*
X7229706Y-4497031D01*
X7229706Y-4497031D02*
X7239229Y-4487508D01*
X7239229Y-4487508D02*
X7258277Y-4477984D01*
X7258277Y-4477984D02*
X7296372Y-4477984D01*
X7296372Y-4477984D02*
X7315420Y-4487508D01*
X7315420Y-4487508D02*
X7324944Y-4497031D01*
X7324944Y-4497031D02*
X7334467Y-4516079D01*
X7334467Y-4516079D02*
X7334467Y-4525603D01*
X7334467Y-4525603D02*
X7324944Y-4544650D01*
X7324944Y-4544650D02*
X7315420Y-4554174D01*
X7315420Y-4554174D02*
X7296372Y-4563698D01*
X7296372Y-4563698D02*
X7258277Y-4563698D01*
X7258277Y-4563698D02*
X7239229Y-4573222D01*
X7239229Y-4573222D02*
X7229706Y-4582746D01*
X7229706Y-4582746D02*
X7220182Y-4601793D01*
X7220182Y-4601793D02*
X7220182Y-4639889D01*
X7220182Y-4639889D02*
X7229706Y-4658936D01*
X7229706Y-4658936D02*
X7239229Y-4668460D01*
X7239229Y-4668460D02*
X7258277Y-4677984D01*
X7258277Y-4677984D02*
X7296372Y-4677984D01*
X7296372Y-4677984D02*
X7315420Y-4668460D01*
X7315420Y-4668460D02*
X7324944Y-4658936D01*
X7324944Y-4658936D02*
X7334467Y-4639889D01*
X7334467Y-4639889D02*
X7334467Y-4601793D01*
X7334467Y-4601793D02*
X7324944Y-4582746D01*
X7324944Y-4582746D02*
X7315420Y-4573222D01*
X7315420Y-4573222D02*
X7296372Y-4563698D01*
X7505896Y-4544650D02*
X7505896Y-4677984D01*
X7458277Y-4468460D02*
X7410658Y-4611317D01*
X7410658Y-4611317D02*
X7534467Y-4611317D01*
X7601134Y-4477984D02*
X7601134Y-4516079D01*
X7677325Y-4477984D02*
X7677325Y-4516079D01*
X7972563Y-4754174D02*
X7963039Y-4744650D01*
X7963039Y-4744650D02*
X7943991Y-4716079D01*
X7943991Y-4716079D02*
X7934468Y-4697031D01*
X7934468Y-4697031D02*
X7924944Y-4668460D01*
X7924944Y-4668460D02*
X7915420Y-4620841D01*
X7915420Y-4620841D02*
X7915420Y-4582746D01*
X7915420Y-4582746D02*
X7924944Y-4535127D01*
X7924944Y-4535127D02*
X7934468Y-4506555D01*
X7934468Y-4506555D02*
X7943991Y-4487508D01*
X7943991Y-4487508D02*
X7963039Y-4458936D01*
X7963039Y-4458936D02*
X7972563Y-4449412D01*
X8134468Y-4544650D02*
X8134468Y-4677984D01*
X8086848Y-4468460D02*
X8039229Y-4611317D01*
X8039229Y-4611317D02*
X8163039Y-4611317D01*
X8391611Y-4677984D02*
X8391611Y-4477984D01*
X8477325Y-4677984D02*
X8477325Y-4573222D01*
X8477325Y-4573222D02*
X8467801Y-4554174D01*
X8467801Y-4554174D02*
X8448753Y-4544650D01*
X8448753Y-4544650D02*
X8420182Y-4544650D01*
X8420182Y-4544650D02*
X8401134Y-4554174D01*
X8401134Y-4554174D02*
X8391611Y-4563698D01*
X8601134Y-4677984D02*
X8582087Y-4668460D01*
X8582087Y-4668460D02*
X8572563Y-4658936D01*
X8572563Y-4658936D02*
X8563039Y-4639889D01*
X8563039Y-4639889D02*
X8563039Y-4582746D01*
X8563039Y-4582746D02*
X8572563Y-4563698D01*
X8572563Y-4563698D02*
X8582087Y-4554174D01*
X8582087Y-4554174D02*
X8601134Y-4544650D01*
X8601134Y-4544650D02*
X8629706Y-4544650D01*
X8629706Y-4544650D02*
X8648753Y-4554174D01*
X8648753Y-4554174D02*
X8658277Y-4563698D01*
X8658277Y-4563698D02*
X8667801Y-4582746D01*
X8667801Y-4582746D02*
X8667801Y-4639889D01*
X8667801Y-4639889D02*
X8658277Y-4658936D01*
X8658277Y-4658936D02*
X8648753Y-4668460D01*
X8648753Y-4668460D02*
X8629706Y-4677984D01*
X8629706Y-4677984D02*
X8601134Y-4677984D01*
X8782087Y-4677984D02*
X8763039Y-4668460D01*
X8763039Y-4668460D02*
X8753515Y-4649412D01*
X8753515Y-4649412D02*
X8753515Y-4477984D01*
X8934468Y-4668460D02*
X8915420Y-4677984D01*
X8915420Y-4677984D02*
X8877325Y-4677984D01*
X8877325Y-4677984D02*
X8858277Y-4668460D01*
X8858277Y-4668460D02*
X8848753Y-4649412D01*
X8848753Y-4649412D02*
X8848753Y-4573222D01*
X8848753Y-4573222D02*
X8858277Y-4554174D01*
X8858277Y-4554174D02*
X8877325Y-4544650D01*
X8877325Y-4544650D02*
X8915420Y-4544650D01*
X8915420Y-4544650D02*
X8934468Y-4554174D01*
X8934468Y-4554174D02*
X8943992Y-4573222D01*
X8943992Y-4573222D02*
X8943992Y-4592270D01*
X8943992Y-4592270D02*
X8848753Y-4611317D01*
X9020182Y-4668460D02*
X9039230Y-4677984D01*
X9039230Y-4677984D02*
X9077325Y-4677984D01*
X9077325Y-4677984D02*
X9096373Y-4668460D01*
X9096373Y-4668460D02*
X9105896Y-4649412D01*
X9105896Y-4649412D02*
X9105896Y-4639889D01*
X9105896Y-4639889D02*
X9096373Y-4620841D01*
X9096373Y-4620841D02*
X9077325Y-4611317D01*
X9077325Y-4611317D02*
X9048753Y-4611317D01*
X9048753Y-4611317D02*
X9029706Y-4601793D01*
X9029706Y-4601793D02*
X9020182Y-4582746D01*
X9020182Y-4582746D02*
X9020182Y-4573222D01*
X9020182Y-4573222D02*
X9029706Y-4554174D01*
X9029706Y-4554174D02*
X9048753Y-4544650D01*
X9048753Y-4544650D02*
X9077325Y-4544650D01*
X9077325Y-4544650D02*
X9096373Y-4554174D01*
X9172563Y-4754174D02*
X9182087Y-4744650D01*
X9182087Y-4744650D02*
X9201134Y-4716079D01*
X9201134Y-4716079D02*
X9210658Y-4697031D01*
X9210658Y-4697031D02*
X9220182Y-4668460D01*
X9220182Y-4668460D02*
X9229706Y-4620841D01*
X9229706Y-4620841D02*
X9229706Y-4582746D01*
X9229706Y-4582746D02*
X9220182Y-4535127D01*
X9220182Y-4535127D02*
X9210658Y-4506555D01*
X9210658Y-4506555D02*
X9201134Y-4487508D01*
X9201134Y-4487508D02*
X9182087Y-4458936D01*
X9182087Y-4458936D02*
X9172563Y-4449412D01*
X9534468Y-4754174D02*
X9524944Y-4744650D01*
X9524944Y-4744650D02*
X9505896Y-4716079D01*
X9505896Y-4716079D02*
X9496373Y-4697031D01*
X9496373Y-4697031D02*
X9486849Y-4668460D01*
X9486849Y-4668460D02*
X9477325Y-4620841D01*
X9477325Y-4620841D02*
X9477325Y-4582746D01*
X9477325Y-4582746D02*
X9486849Y-4535127D01*
X9486849Y-4535127D02*
X9496373Y-4506555D01*
X9496373Y-4506555D02*
X9505896Y-4487508D01*
X9505896Y-4487508D02*
X9524944Y-4458936D01*
X9524944Y-4458936D02*
X9534468Y-4449412D01*
X9610658Y-4544650D02*
X9610658Y-4677984D01*
X9610658Y-4563698D02*
X9620182Y-4554174D01*
X9620182Y-4554174D02*
X9639230Y-4544650D01*
X9639230Y-4544650D02*
X9667801Y-4544650D01*
X9667801Y-4544650D02*
X9686849Y-4554174D01*
X9686849Y-4554174D02*
X9696373Y-4573222D01*
X9696373Y-4573222D02*
X9696373Y-4677984D01*
X9820182Y-4677984D02*
X9801134Y-4668460D01*
X9801134Y-4668460D02*
X9791611Y-4658936D01*
X9791611Y-4658936D02*
X9782087Y-4639889D01*
X9782087Y-4639889D02*
X9782087Y-4582746D01*
X9782087Y-4582746D02*
X9791611Y-4563698D01*
X9791611Y-4563698D02*
X9801134Y-4554174D01*
X9801134Y-4554174D02*
X9820182Y-4544650D01*
X9820182Y-4544650D02*
X9848754Y-4544650D01*
X9848754Y-4544650D02*
X9867801Y-4554174D01*
X9867801Y-4554174D02*
X9877325Y-4563698D01*
X9877325Y-4563698D02*
X9886849Y-4582746D01*
X9886849Y-4582746D02*
X9886849Y-4639889D01*
X9886849Y-4639889D02*
X9877325Y-4658936D01*
X9877325Y-4658936D02*
X9867801Y-4668460D01*
X9867801Y-4668460D02*
X9848754Y-4677984D01*
X9848754Y-4677984D02*
X9820182Y-4677984D01*
X9943992Y-4544650D02*
X10020182Y-4544650D01*
X9972563Y-4477984D02*
X9972563Y-4649412D01*
X9972563Y-4649412D02*
X9982087Y-4668460D01*
X9982087Y-4668460D02*
X10001134Y-4677984D01*
X10001134Y-4677984D02*
X10020182Y-4677984D01*
X10239230Y-4544650D02*
X10239230Y-4744650D01*
X10239230Y-4554174D02*
X10258277Y-4544650D01*
X10258277Y-4544650D02*
X10296373Y-4544650D01*
X10296373Y-4544650D02*
X10315420Y-4554174D01*
X10315420Y-4554174D02*
X10324944Y-4563698D01*
X10324944Y-4563698D02*
X10334468Y-4582746D01*
X10334468Y-4582746D02*
X10334468Y-4639889D01*
X10334468Y-4639889D02*
X10324944Y-4658936D01*
X10324944Y-4658936D02*
X10315420Y-4668460D01*
X10315420Y-4668460D02*
X10296373Y-4677984D01*
X10296373Y-4677984D02*
X10258277Y-4677984D01*
X10258277Y-4677984D02*
X10239230Y-4668460D01*
X10448754Y-4677984D02*
X10429706Y-4668460D01*
X10429706Y-4668460D02*
X10420182Y-4649412D01*
X10420182Y-4649412D02*
X10420182Y-4477984D01*
X10610658Y-4677984D02*
X10610658Y-4573222D01*
X10610658Y-4573222D02*
X10601135Y-4554174D01*
X10601135Y-4554174D02*
X10582087Y-4544650D01*
X10582087Y-4544650D02*
X10543992Y-4544650D01*
X10543992Y-4544650D02*
X10524944Y-4554174D01*
X10610658Y-4668460D02*
X10591611Y-4677984D01*
X10591611Y-4677984D02*
X10543992Y-4677984D01*
X10543992Y-4677984D02*
X10524944Y-4668460D01*
X10524944Y-4668460D02*
X10515420Y-4649412D01*
X10515420Y-4649412D02*
X10515420Y-4630365D01*
X10515420Y-4630365D02*
X10524944Y-4611317D01*
X10524944Y-4611317D02*
X10543992Y-4601793D01*
X10543992Y-4601793D02*
X10591611Y-4601793D01*
X10591611Y-4601793D02*
X10610658Y-4592270D01*
X10677325Y-4544650D02*
X10753515Y-4544650D01*
X10705896Y-4477984D02*
X10705896Y-4649412D01*
X10705896Y-4649412D02*
X10715420Y-4668460D01*
X10715420Y-4668460D02*
X10734468Y-4677984D01*
X10734468Y-4677984D02*
X10753515Y-4677984D01*
X10896373Y-4668460D02*
X10877325Y-4677984D01*
X10877325Y-4677984D02*
X10839230Y-4677984D01*
X10839230Y-4677984D02*
X10820182Y-4668460D01*
X10820182Y-4668460D02*
X10810658Y-4649412D01*
X10810658Y-4649412D02*
X10810658Y-4573222D01*
X10810658Y-4573222D02*
X10820182Y-4554174D01*
X10820182Y-4554174D02*
X10839230Y-4544650D01*
X10839230Y-4544650D02*
X10877325Y-4544650D01*
X10877325Y-4544650D02*
X10896373Y-4554174D01*
X10896373Y-4554174D02*
X10905896Y-4573222D01*
X10905896Y-4573222D02*
X10905896Y-4592270D01*
X10905896Y-4592270D02*
X10810658Y-4611317D01*
X11077325Y-4677984D02*
X11077325Y-4477984D01*
X11077325Y-4668460D02*
X11058277Y-4677984D01*
X11058277Y-4677984D02*
X11020182Y-4677984D01*
X11020182Y-4677984D02*
X11001135Y-4668460D01*
X11001135Y-4668460D02*
X10991611Y-4658936D01*
X10991611Y-4658936D02*
X10982087Y-4639889D01*
X10982087Y-4639889D02*
X10982087Y-4582746D01*
X10982087Y-4582746D02*
X10991611Y-4563698D01*
X10991611Y-4563698D02*
X11001135Y-4554174D01*
X11001135Y-4554174D02*
X11020182Y-4544650D01*
X11020182Y-4544650D02*
X11058277Y-4544650D01*
X11058277Y-4544650D02*
X11077325Y-4554174D01*
X11153516Y-4754174D02*
X11163039Y-4744650D01*
X11163039Y-4744650D02*
X11182087Y-4716079D01*
X11182087Y-4716079D02*
X11191611Y-4697031D01*
X11191611Y-4697031D02*
X11201134Y-4668460D01*
X11201134Y-4668460D02*
X11210658Y-4620841D01*
X11210658Y-4620841D02*
X11210658Y-4582746D01*
X11210658Y-4582746D02*
X11201134Y-4535127D01*
X11201134Y-4535127D02*
X11191611Y-4506555D01*
X11191611Y-4506555D02*
X11182087Y-4487508D01*
X11182087Y-4487508D02*
X11163039Y-4458936D01*
X11163039Y-4458936D02*
X11153516Y-4449412D01*
M02*
