G04 #@! TF.GenerationSoftware,KiCad,Pcbnew,7.0.7-7.0.7~ubuntu22.04.1*
G04 #@! TF.CreationDate,2023-10-11T07:58:01+02:00*
G04 #@! TF.ProjectId,PD_Micro,50445f4d-6963-4726-9f2e-6b696361645f,rev?*
G04 #@! TF.SameCoordinates,PX7ce2370PY67d8790*
G04 #@! TF.FileFunction,Legend,Top*
G04 #@! TF.FilePolarity,Positive*
%FSLAX46Y46*%
G04 Gerber Fmt 4.6, Leading zero omitted, Abs format (unit mm)*
G04 Created by KiCad (PCBNEW 7.0.7-7.0.7~ubuntu22.04.1) date 2023-10-11 07:58:01*
%MOMM*%
%LPD*%
G01*
G04 APERTURE LIST*
%ADD10C,0.150000*%
%ADD11C,0.100000*%
%ADD12C,0.120000*%
%ADD13C,0.400000*%
%ADD14C,0.300000*%
%ADD15C,0.200000*%
G04 APERTURE END LIST*
D10*
X85613952Y-21282819D02*
X85042524Y-21282819D01*
X85328238Y-21282819D02*
X85328238Y-20282819D01*
X85328238Y-20282819D02*
X85233000Y-20425676D01*
X85233000Y-20425676D02*
X85137762Y-20520914D01*
X85137762Y-20520914D02*
X85042524Y-20568533D01*
X86518714Y-20282819D02*
X86042524Y-20282819D01*
X86042524Y-20282819D02*
X85994905Y-20759009D01*
X85994905Y-20759009D02*
X86042524Y-20711390D01*
X86042524Y-20711390D02*
X86137762Y-20663771D01*
X86137762Y-20663771D02*
X86375857Y-20663771D01*
X86375857Y-20663771D02*
X86471095Y-20711390D01*
X86471095Y-20711390D02*
X86518714Y-20759009D01*
X86518714Y-20759009D02*
X86566333Y-20854247D01*
X86566333Y-20854247D02*
X86566333Y-21092342D01*
X86566333Y-21092342D02*
X86518714Y-21187580D01*
X86518714Y-21187580D02*
X86471095Y-21235200D01*
X86471095Y-21235200D02*
X86375857Y-21282819D01*
X86375857Y-21282819D02*
X86137762Y-21282819D01*
X86137762Y-21282819D02*
X86042524Y-21235200D01*
X86042524Y-21235200D02*
X85994905Y-21187580D01*
X86852048Y-20282819D02*
X87185381Y-21282819D01*
X87185381Y-21282819D02*
X87518714Y-20282819D01*
X99036286Y-11900819D02*
X99036286Y-12710342D01*
X99036286Y-12710342D02*
X99083905Y-12805580D01*
X99083905Y-12805580D02*
X99131524Y-12853200D01*
X99131524Y-12853200D02*
X99226762Y-12900819D01*
X99226762Y-12900819D02*
X99417238Y-12900819D01*
X99417238Y-12900819D02*
X99512476Y-12853200D01*
X99512476Y-12853200D02*
X99560095Y-12805580D01*
X99560095Y-12805580D02*
X99607714Y-12710342D01*
X99607714Y-12710342D02*
X99607714Y-11900819D01*
X100083905Y-12900819D02*
X100083905Y-11900819D01*
X100083905Y-11900819D02*
X100464857Y-11900819D01*
X100464857Y-11900819D02*
X100560095Y-11948438D01*
X100560095Y-11948438D02*
X100607714Y-11996057D01*
X100607714Y-11996057D02*
X100655333Y-12091295D01*
X100655333Y-12091295D02*
X100655333Y-12234152D01*
X100655333Y-12234152D02*
X100607714Y-12329390D01*
X100607714Y-12329390D02*
X100560095Y-12377009D01*
X100560095Y-12377009D02*
X100464857Y-12424628D01*
X100464857Y-12424628D02*
X100083905Y-12424628D01*
X91702095Y-21366819D02*
X91702095Y-20366819D01*
X91702095Y-20366819D02*
X92083047Y-20366819D01*
X92083047Y-20366819D02*
X92178285Y-20414438D01*
X92178285Y-20414438D02*
X92225904Y-20462057D01*
X92225904Y-20462057D02*
X92273523Y-20557295D01*
X92273523Y-20557295D02*
X92273523Y-20700152D01*
X92273523Y-20700152D02*
X92225904Y-20795390D01*
X92225904Y-20795390D02*
X92178285Y-20843009D01*
X92178285Y-20843009D02*
X92083047Y-20890628D01*
X92083047Y-20890628D02*
X91702095Y-20890628D01*
X92654476Y-21319200D02*
X92797333Y-21366819D01*
X92797333Y-21366819D02*
X93035428Y-21366819D01*
X93035428Y-21366819D02*
X93130666Y-21319200D01*
X93130666Y-21319200D02*
X93178285Y-21271580D01*
X93178285Y-21271580D02*
X93225904Y-21176342D01*
X93225904Y-21176342D02*
X93225904Y-21081104D01*
X93225904Y-21081104D02*
X93178285Y-20985866D01*
X93178285Y-20985866D02*
X93130666Y-20938247D01*
X93130666Y-20938247D02*
X93035428Y-20890628D01*
X93035428Y-20890628D02*
X92844952Y-20843009D01*
X92844952Y-20843009D02*
X92749714Y-20795390D01*
X92749714Y-20795390D02*
X92702095Y-20747771D01*
X92702095Y-20747771D02*
X92654476Y-20652533D01*
X92654476Y-20652533D02*
X92654476Y-20557295D01*
X92654476Y-20557295D02*
X92702095Y-20462057D01*
X92702095Y-20462057D02*
X92749714Y-20414438D01*
X92749714Y-20414438D02*
X92844952Y-20366819D01*
X92844952Y-20366819D02*
X93083047Y-20366819D01*
X93083047Y-20366819D02*
X93225904Y-20414438D01*
X93654476Y-20366819D02*
X93654476Y-21176342D01*
X93654476Y-21176342D02*
X93702095Y-21271580D01*
X93702095Y-21271580D02*
X93749714Y-21319200D01*
X93749714Y-21319200D02*
X93844952Y-21366819D01*
X93844952Y-21366819D02*
X94035428Y-21366819D01*
X94035428Y-21366819D02*
X94130666Y-21319200D01*
X94130666Y-21319200D02*
X94178285Y-21271580D01*
X94178285Y-21271580D02*
X94225904Y-21176342D01*
X94225904Y-21176342D02*
X94225904Y-20366819D01*
X91297333Y-22976819D02*
X91297333Y-21976819D01*
X91297333Y-21976819D02*
X91630666Y-22691104D01*
X91630666Y-22691104D02*
X91963999Y-21976819D01*
X91963999Y-21976819D02*
X91963999Y-22976819D01*
X92583047Y-22976819D02*
X92487809Y-22929200D01*
X92487809Y-22929200D02*
X92440190Y-22881580D01*
X92440190Y-22881580D02*
X92392571Y-22786342D01*
X92392571Y-22786342D02*
X92392571Y-22500628D01*
X92392571Y-22500628D02*
X92440190Y-22405390D01*
X92440190Y-22405390D02*
X92487809Y-22357771D01*
X92487809Y-22357771D02*
X92583047Y-22310152D01*
X92583047Y-22310152D02*
X92725904Y-22310152D01*
X92725904Y-22310152D02*
X92821142Y-22357771D01*
X92821142Y-22357771D02*
X92868761Y-22405390D01*
X92868761Y-22405390D02*
X92916380Y-22500628D01*
X92916380Y-22500628D02*
X92916380Y-22786342D01*
X92916380Y-22786342D02*
X92868761Y-22881580D01*
X92868761Y-22881580D02*
X92821142Y-22929200D01*
X92821142Y-22929200D02*
X92725904Y-22976819D01*
X92725904Y-22976819D02*
X92583047Y-22976819D01*
X93773523Y-22976819D02*
X93773523Y-21976819D01*
X93773523Y-22929200D02*
X93678285Y-22976819D01*
X93678285Y-22976819D02*
X93487809Y-22976819D01*
X93487809Y-22976819D02*
X93392571Y-22929200D01*
X93392571Y-22929200D02*
X93344952Y-22881580D01*
X93344952Y-22881580D02*
X93297333Y-22786342D01*
X93297333Y-22786342D02*
X93297333Y-22500628D01*
X93297333Y-22500628D02*
X93344952Y-22405390D01*
X93344952Y-22405390D02*
X93392571Y-22357771D01*
X93392571Y-22357771D02*
X93487809Y-22310152D01*
X93487809Y-22310152D02*
X93678285Y-22310152D01*
X93678285Y-22310152D02*
X93773523Y-22357771D01*
X94630666Y-22929200D02*
X94535428Y-22976819D01*
X94535428Y-22976819D02*
X94344952Y-22976819D01*
X94344952Y-22976819D02*
X94249714Y-22929200D01*
X94249714Y-22929200D02*
X94202095Y-22833961D01*
X94202095Y-22833961D02*
X94202095Y-22453009D01*
X94202095Y-22453009D02*
X94249714Y-22357771D01*
X94249714Y-22357771D02*
X94344952Y-22310152D01*
X94344952Y-22310152D02*
X94535428Y-22310152D01*
X94535428Y-22310152D02*
X94630666Y-22357771D01*
X94630666Y-22357771D02*
X94678285Y-22453009D01*
X94678285Y-22453009D02*
X94678285Y-22548247D01*
X94678285Y-22548247D02*
X94202095Y-22643485D01*
X82565952Y-21282819D02*
X81994524Y-21282819D01*
X82280238Y-21282819D02*
X82280238Y-20282819D01*
X82280238Y-20282819D02*
X82185000Y-20425676D01*
X82185000Y-20425676D02*
X82089762Y-20520914D01*
X82089762Y-20520914D02*
X81994524Y-20568533D01*
X82946905Y-20378057D02*
X82994524Y-20330438D01*
X82994524Y-20330438D02*
X83089762Y-20282819D01*
X83089762Y-20282819D02*
X83327857Y-20282819D01*
X83327857Y-20282819D02*
X83423095Y-20330438D01*
X83423095Y-20330438D02*
X83470714Y-20378057D01*
X83470714Y-20378057D02*
X83518333Y-20473295D01*
X83518333Y-20473295D02*
X83518333Y-20568533D01*
X83518333Y-20568533D02*
X83470714Y-20711390D01*
X83470714Y-20711390D02*
X82899286Y-21282819D01*
X82899286Y-21282819D02*
X83518333Y-21282819D01*
X83804048Y-20282819D02*
X84137381Y-21282819D01*
X84137381Y-21282819D02*
X84470714Y-20282819D01*
X79771952Y-21282819D02*
X79962428Y-21282819D01*
X79962428Y-21282819D02*
X80057666Y-21235200D01*
X80057666Y-21235200D02*
X80105285Y-21187580D01*
X80105285Y-21187580D02*
X80200523Y-21044723D01*
X80200523Y-21044723D02*
X80248142Y-20854247D01*
X80248142Y-20854247D02*
X80248142Y-20473295D01*
X80248142Y-20473295D02*
X80200523Y-20378057D01*
X80200523Y-20378057D02*
X80152904Y-20330438D01*
X80152904Y-20330438D02*
X80057666Y-20282819D01*
X80057666Y-20282819D02*
X79867190Y-20282819D01*
X79867190Y-20282819D02*
X79771952Y-20330438D01*
X79771952Y-20330438D02*
X79724333Y-20378057D01*
X79724333Y-20378057D02*
X79676714Y-20473295D01*
X79676714Y-20473295D02*
X79676714Y-20711390D01*
X79676714Y-20711390D02*
X79724333Y-20806628D01*
X79724333Y-20806628D02*
X79771952Y-20854247D01*
X79771952Y-20854247D02*
X79867190Y-20901866D01*
X79867190Y-20901866D02*
X80057666Y-20901866D01*
X80057666Y-20901866D02*
X80152904Y-20854247D01*
X80152904Y-20854247D02*
X80200523Y-20806628D01*
X80200523Y-20806628D02*
X80248142Y-20711390D01*
X80533857Y-20282819D02*
X80867190Y-21282819D01*
X80867190Y-21282819D02*
X81200523Y-20282819D01*
X77406523Y-20409819D02*
X76930333Y-20409819D01*
X76930333Y-20409819D02*
X76882714Y-20886009D01*
X76882714Y-20886009D02*
X76930333Y-20838390D01*
X76930333Y-20838390D02*
X77025571Y-20790771D01*
X77025571Y-20790771D02*
X77263666Y-20790771D01*
X77263666Y-20790771D02*
X77358904Y-20838390D01*
X77358904Y-20838390D02*
X77406523Y-20886009D01*
X77406523Y-20886009D02*
X77454142Y-20981247D01*
X77454142Y-20981247D02*
X77454142Y-21219342D01*
X77454142Y-21219342D02*
X77406523Y-21314580D01*
X77406523Y-21314580D02*
X77358904Y-21362200D01*
X77358904Y-21362200D02*
X77263666Y-21409819D01*
X77263666Y-21409819D02*
X77025571Y-21409819D01*
X77025571Y-21409819D02*
X76930333Y-21362200D01*
X76930333Y-21362200D02*
X76882714Y-21314580D01*
X77739857Y-20409819D02*
X78073190Y-21409819D01*
X78073190Y-21409819D02*
X78406523Y-20409819D01*
X87836524Y-20378057D02*
X87884143Y-20330438D01*
X87884143Y-20330438D02*
X87979381Y-20282819D01*
X87979381Y-20282819D02*
X88217476Y-20282819D01*
X88217476Y-20282819D02*
X88312714Y-20330438D01*
X88312714Y-20330438D02*
X88360333Y-20378057D01*
X88360333Y-20378057D02*
X88407952Y-20473295D01*
X88407952Y-20473295D02*
X88407952Y-20568533D01*
X88407952Y-20568533D02*
X88360333Y-20711390D01*
X88360333Y-20711390D02*
X87788905Y-21282819D01*
X87788905Y-21282819D02*
X88407952Y-21282819D01*
X89027000Y-20282819D02*
X89122238Y-20282819D01*
X89122238Y-20282819D02*
X89217476Y-20330438D01*
X89217476Y-20330438D02*
X89265095Y-20378057D01*
X89265095Y-20378057D02*
X89312714Y-20473295D01*
X89312714Y-20473295D02*
X89360333Y-20663771D01*
X89360333Y-20663771D02*
X89360333Y-20901866D01*
X89360333Y-20901866D02*
X89312714Y-21092342D01*
X89312714Y-21092342D02*
X89265095Y-21187580D01*
X89265095Y-21187580D02*
X89217476Y-21235200D01*
X89217476Y-21235200D02*
X89122238Y-21282819D01*
X89122238Y-21282819D02*
X89027000Y-21282819D01*
X89027000Y-21282819D02*
X88931762Y-21235200D01*
X88931762Y-21235200D02*
X88884143Y-21187580D01*
X88884143Y-21187580D02*
X88836524Y-21092342D01*
X88836524Y-21092342D02*
X88788905Y-20901866D01*
X88788905Y-20901866D02*
X88788905Y-20663771D01*
X88788905Y-20663771D02*
X88836524Y-20473295D01*
X88836524Y-20473295D02*
X88884143Y-20378057D01*
X88884143Y-20378057D02*
X88931762Y-20330438D01*
X88931762Y-20330438D02*
X89027000Y-20282819D01*
X89646048Y-20282819D02*
X89979381Y-21282819D01*
X89979381Y-21282819D02*
X90312714Y-20282819D01*
X98068048Y-28013819D02*
X98068048Y-27013819D01*
X98068048Y-27013819D02*
X98306143Y-27013819D01*
X98306143Y-27013819D02*
X98449000Y-27061438D01*
X98449000Y-27061438D02*
X98544238Y-27156676D01*
X98544238Y-27156676D02*
X98591857Y-27251914D01*
X98591857Y-27251914D02*
X98639476Y-27442390D01*
X98639476Y-27442390D02*
X98639476Y-27585247D01*
X98639476Y-27585247D02*
X98591857Y-27775723D01*
X98591857Y-27775723D02*
X98544238Y-27870961D01*
X98544238Y-27870961D02*
X98449000Y-27966200D01*
X98449000Y-27966200D02*
X98306143Y-28013819D01*
X98306143Y-28013819D02*
X98068048Y-28013819D01*
X99258524Y-27013819D02*
X99449000Y-27013819D01*
X99449000Y-27013819D02*
X99544238Y-27061438D01*
X99544238Y-27061438D02*
X99639476Y-27156676D01*
X99639476Y-27156676D02*
X99687095Y-27347152D01*
X99687095Y-27347152D02*
X99687095Y-27680485D01*
X99687095Y-27680485D02*
X99639476Y-27870961D01*
X99639476Y-27870961D02*
X99544238Y-27966200D01*
X99544238Y-27966200D02*
X99449000Y-28013819D01*
X99449000Y-28013819D02*
X99258524Y-28013819D01*
X99258524Y-28013819D02*
X99163286Y-27966200D01*
X99163286Y-27966200D02*
X99068048Y-27870961D01*
X99068048Y-27870961D02*
X99020429Y-27680485D01*
X99020429Y-27680485D02*
X99020429Y-27347152D01*
X99020429Y-27347152D02*
X99068048Y-27156676D01*
X99068048Y-27156676D02*
X99163286Y-27061438D01*
X99163286Y-27061438D02*
X99258524Y-27013819D01*
X100020429Y-27013819D02*
X100258524Y-28013819D01*
X100258524Y-28013819D02*
X100449000Y-27299533D01*
X100449000Y-27299533D02*
X100639476Y-28013819D01*
X100639476Y-28013819D02*
X100877572Y-27013819D01*
X101258524Y-28013819D02*
X101258524Y-27013819D01*
X101258524Y-27013819D02*
X101829952Y-28013819D01*
X101829952Y-28013819D02*
X101829952Y-27013819D01*
X81851619Y-24854819D02*
X82042095Y-24854819D01*
X82042095Y-24854819D02*
X82137333Y-24902438D01*
X82137333Y-24902438D02*
X82232571Y-24997676D01*
X82232571Y-24997676D02*
X82280190Y-25188152D01*
X82280190Y-25188152D02*
X82280190Y-25521485D01*
X82280190Y-25521485D02*
X82232571Y-25711961D01*
X82232571Y-25711961D02*
X82137333Y-25807200D01*
X82137333Y-25807200D02*
X82042095Y-25854819D01*
X82042095Y-25854819D02*
X81851619Y-25854819D01*
X81851619Y-25854819D02*
X81756381Y-25807200D01*
X81756381Y-25807200D02*
X81661143Y-25711961D01*
X81661143Y-25711961D02*
X81613524Y-25521485D01*
X81613524Y-25521485D02*
X81613524Y-25188152D01*
X81613524Y-25188152D02*
X81661143Y-24997676D01*
X81661143Y-24997676D02*
X81756381Y-24902438D01*
X81756381Y-24902438D02*
X81851619Y-24854819D01*
X83042095Y-25331009D02*
X82708762Y-25331009D01*
X82708762Y-25854819D02*
X82708762Y-24854819D01*
X82708762Y-24854819D02*
X83184952Y-24854819D01*
X83899238Y-25331009D02*
X83565905Y-25331009D01*
X83565905Y-25854819D02*
X83565905Y-24854819D01*
X83565905Y-24854819D02*
X84042095Y-24854819D01*
X86280667Y-24981819D02*
X86614000Y-25981819D01*
X86614000Y-25981819D02*
X86947333Y-24981819D01*
X90583000Y-25981819D02*
X90583000Y-24981819D01*
X90583000Y-24981819D02*
X90916333Y-25696104D01*
X90916333Y-25696104D02*
X91249666Y-24981819D01*
X91249666Y-24981819D02*
X91249666Y-25981819D01*
X92154428Y-25981819D02*
X92154428Y-25458009D01*
X92154428Y-25458009D02*
X92106809Y-25362771D01*
X92106809Y-25362771D02*
X92011571Y-25315152D01*
X92011571Y-25315152D02*
X91821095Y-25315152D01*
X91821095Y-25315152D02*
X91725857Y-25362771D01*
X92154428Y-25934200D02*
X92059190Y-25981819D01*
X92059190Y-25981819D02*
X91821095Y-25981819D01*
X91821095Y-25981819D02*
X91725857Y-25934200D01*
X91725857Y-25934200D02*
X91678238Y-25838961D01*
X91678238Y-25838961D02*
X91678238Y-25743723D01*
X91678238Y-25743723D02*
X91725857Y-25648485D01*
X91725857Y-25648485D02*
X91821095Y-25600866D01*
X91821095Y-25600866D02*
X92059190Y-25600866D01*
X92059190Y-25600866D02*
X92154428Y-25553247D01*
X92535381Y-25981819D02*
X93059190Y-25315152D01*
X92535381Y-25315152D02*
X93059190Y-25981819D01*
X94154429Y-25696104D02*
X94630619Y-25696104D01*
X94059191Y-25981819D02*
X94392524Y-24981819D01*
X94392524Y-24981819D02*
X94725857Y-25981819D01*
D11*
X89029265Y-4922895D02*
X89029265Y-4122895D01*
X89029265Y-4503847D02*
X89486408Y-4503847D01*
X89486408Y-4922895D02*
X89486408Y-4122895D01*
X89753074Y-4122895D02*
X90210217Y-4122895D01*
X89981645Y-4922895D02*
X89981645Y-4122895D01*
X90857836Y-4922895D02*
X90476884Y-4922895D01*
X90476884Y-4922895D02*
X90476884Y-4122895D01*
X91124503Y-4618133D02*
X91734027Y-4618133D01*
X92572122Y-4922895D02*
X92305455Y-4541942D01*
X92114979Y-4922895D02*
X92114979Y-4122895D01*
X92114979Y-4122895D02*
X92419741Y-4122895D01*
X92419741Y-4122895D02*
X92495931Y-4160990D01*
X92495931Y-4160990D02*
X92534026Y-4199085D01*
X92534026Y-4199085D02*
X92572122Y-4275276D01*
X92572122Y-4275276D02*
X92572122Y-4389561D01*
X92572122Y-4389561D02*
X92534026Y-4465752D01*
X92534026Y-4465752D02*
X92495931Y-4503847D01*
X92495931Y-4503847D02*
X92419741Y-4541942D01*
X92419741Y-4541942D02*
X92114979Y-4541942D01*
X93257836Y-4922895D02*
X93257836Y-4503847D01*
X93257836Y-4503847D02*
X93219741Y-4427657D01*
X93219741Y-4427657D02*
X93143550Y-4389561D01*
X93143550Y-4389561D02*
X92991169Y-4389561D01*
X92991169Y-4389561D02*
X92914979Y-4427657D01*
X93257836Y-4884800D02*
X93181645Y-4922895D01*
X93181645Y-4922895D02*
X92991169Y-4922895D01*
X92991169Y-4922895D02*
X92914979Y-4884800D01*
X92914979Y-4884800D02*
X92876883Y-4808609D01*
X92876883Y-4808609D02*
X92876883Y-4732419D01*
X92876883Y-4732419D02*
X92914979Y-4656228D01*
X92914979Y-4656228D02*
X92991169Y-4618133D01*
X92991169Y-4618133D02*
X93181645Y-4618133D01*
X93181645Y-4618133D02*
X93257836Y-4580038D01*
X93638789Y-4389561D02*
X93638789Y-4922895D01*
X93638789Y-4465752D02*
X93676884Y-4427657D01*
X93676884Y-4427657D02*
X93753074Y-4389561D01*
X93753074Y-4389561D02*
X93867360Y-4389561D01*
X93867360Y-4389561D02*
X93943551Y-4427657D01*
X93943551Y-4427657D02*
X93981646Y-4503847D01*
X93981646Y-4503847D02*
X93981646Y-4922895D01*
X94362599Y-4922895D02*
X94362599Y-4122895D01*
X94438789Y-4618133D02*
X94667361Y-4922895D01*
X94667361Y-4389561D02*
X94362599Y-4694323D01*
X94934027Y-4389561D02*
X95086408Y-4922895D01*
X95086408Y-4922895D02*
X95238789Y-4541942D01*
X95238789Y-4541942D02*
X95391170Y-4922895D01*
X95391170Y-4922895D02*
X95543551Y-4389561D01*
X96153075Y-4884800D02*
X96076884Y-4922895D01*
X96076884Y-4922895D02*
X95924503Y-4922895D01*
X95924503Y-4922895D02*
X95848313Y-4884800D01*
X95848313Y-4884800D02*
X95810217Y-4808609D01*
X95810217Y-4808609D02*
X95810217Y-4503847D01*
X95810217Y-4503847D02*
X95848313Y-4427657D01*
X95848313Y-4427657D02*
X95924503Y-4389561D01*
X95924503Y-4389561D02*
X96076884Y-4389561D01*
X96076884Y-4389561D02*
X96153075Y-4427657D01*
X96153075Y-4427657D02*
X96191170Y-4503847D01*
X96191170Y-4503847D02*
X96191170Y-4580038D01*
X96191170Y-4580038D02*
X95810217Y-4656228D01*
X96534027Y-4922895D02*
X96534027Y-4389561D01*
X96534027Y-4122895D02*
X96495931Y-4160990D01*
X96495931Y-4160990D02*
X96534027Y-4199085D01*
X96534027Y-4199085D02*
X96572122Y-4160990D01*
X96572122Y-4160990D02*
X96534027Y-4122895D01*
X96534027Y-4122895D02*
X96534027Y-4199085D01*
X97029264Y-4922895D02*
X96953074Y-4884800D01*
X96953074Y-4884800D02*
X96914979Y-4808609D01*
X96914979Y-4808609D02*
X96914979Y-4122895D01*
X98286408Y-4389561D02*
X98286408Y-4922895D01*
X98095932Y-4084800D02*
X97905455Y-4656228D01*
X97905455Y-4656228D02*
X98400694Y-4656228D01*
X98667360Y-4694323D02*
X99048313Y-4694323D01*
X98591170Y-4922895D02*
X98857837Y-4122895D01*
X98857837Y-4122895D02*
X99124503Y-4922895D01*
X99391170Y-4922895D02*
X99391170Y-4122895D01*
X99391170Y-4503847D02*
X99848313Y-4503847D01*
X99848313Y-4922895D02*
X99848313Y-4122895D01*
X100229265Y-4503847D02*
X100495931Y-4503847D01*
X100610217Y-4922895D02*
X100229265Y-4922895D01*
X100229265Y-4922895D02*
X100229265Y-4122895D01*
X100229265Y-4122895D02*
X100610217Y-4122895D01*
X101334027Y-4922895D02*
X100953075Y-4922895D01*
X100953075Y-4922895D02*
X100953075Y-4122895D01*
X89029265Y-6210895D02*
X89029265Y-5410895D01*
X89029265Y-5410895D02*
X89295931Y-5982323D01*
X89295931Y-5982323D02*
X89562598Y-5410895D01*
X89562598Y-5410895D02*
X89562598Y-6210895D01*
X90286408Y-6210895D02*
X90286408Y-5791847D01*
X90286408Y-5791847D02*
X90248313Y-5715657D01*
X90248313Y-5715657D02*
X90172122Y-5677561D01*
X90172122Y-5677561D02*
X90019741Y-5677561D01*
X90019741Y-5677561D02*
X89943551Y-5715657D01*
X90286408Y-6172800D02*
X90210217Y-6210895D01*
X90210217Y-6210895D02*
X90019741Y-6210895D01*
X90019741Y-6210895D02*
X89943551Y-6172800D01*
X89943551Y-6172800D02*
X89905455Y-6096609D01*
X89905455Y-6096609D02*
X89905455Y-6020419D01*
X89905455Y-6020419D02*
X89943551Y-5944228D01*
X89943551Y-5944228D02*
X90019741Y-5906133D01*
X90019741Y-5906133D02*
X90210217Y-5906133D01*
X90210217Y-5906133D02*
X90286408Y-5868038D01*
X90667361Y-5677561D02*
X90667361Y-6210895D01*
X90667361Y-5753752D02*
X90705456Y-5715657D01*
X90705456Y-5715657D02*
X90781646Y-5677561D01*
X90781646Y-5677561D02*
X90895932Y-5677561D01*
X90895932Y-5677561D02*
X90972123Y-5715657D01*
X90972123Y-5715657D02*
X91010218Y-5791847D01*
X91010218Y-5791847D02*
X91010218Y-6210895D01*
X91734028Y-5677561D02*
X91734028Y-6210895D01*
X91391171Y-5677561D02*
X91391171Y-6096609D01*
X91391171Y-6096609D02*
X91429266Y-6172800D01*
X91429266Y-6172800D02*
X91505456Y-6210895D01*
X91505456Y-6210895D02*
X91619742Y-6210895D01*
X91619742Y-6210895D02*
X91695933Y-6172800D01*
X91695933Y-6172800D02*
X91734028Y-6134704D01*
X92419743Y-6172800D02*
X92343552Y-6210895D01*
X92343552Y-6210895D02*
X92191171Y-6210895D01*
X92191171Y-6210895D02*
X92114981Y-6172800D01*
X92114981Y-6172800D02*
X92076885Y-6096609D01*
X92076885Y-6096609D02*
X92076885Y-5791847D01*
X92076885Y-5791847D02*
X92114981Y-5715657D01*
X92114981Y-5715657D02*
X92191171Y-5677561D01*
X92191171Y-5677561D02*
X92343552Y-5677561D01*
X92343552Y-5677561D02*
X92419743Y-5715657D01*
X92419743Y-5715657D02*
X92457838Y-5791847D01*
X92457838Y-5791847D02*
X92457838Y-5868038D01*
X92457838Y-5868038D02*
X92076885Y-5944228D01*
X92914980Y-6210895D02*
X92838790Y-6172800D01*
X92838790Y-6172800D02*
X92800695Y-6096609D01*
X92800695Y-6096609D02*
X92800695Y-5410895D01*
X93829267Y-6210895D02*
X93829267Y-5410895D01*
X93829267Y-5410895D02*
X94095933Y-5982323D01*
X94095933Y-5982323D02*
X94362600Y-5410895D01*
X94362600Y-5410895D02*
X94362600Y-6210895D01*
X95086410Y-6210895D02*
X95086410Y-5791847D01*
X95086410Y-5791847D02*
X95048315Y-5715657D01*
X95048315Y-5715657D02*
X94972124Y-5677561D01*
X94972124Y-5677561D02*
X94819743Y-5677561D01*
X94819743Y-5677561D02*
X94743553Y-5715657D01*
X95086410Y-6172800D02*
X95010219Y-6210895D01*
X95010219Y-6210895D02*
X94819743Y-6210895D01*
X94819743Y-6210895D02*
X94743553Y-6172800D01*
X94743553Y-6172800D02*
X94705457Y-6096609D01*
X94705457Y-6096609D02*
X94705457Y-6020419D01*
X94705457Y-6020419D02*
X94743553Y-5944228D01*
X94743553Y-5944228D02*
X94819743Y-5906133D01*
X94819743Y-5906133D02*
X95010219Y-5906133D01*
X95010219Y-5906133D02*
X95086410Y-5868038D01*
X95391172Y-5677561D02*
X95581648Y-6210895D01*
X95772125Y-5677561D02*
X95581648Y-6210895D01*
X95581648Y-6210895D02*
X95505458Y-6401371D01*
X95505458Y-6401371D02*
X95467363Y-6439466D01*
X95467363Y-6439466D02*
X95391172Y-6477561D01*
X96076887Y-6210895D02*
X96076887Y-5677561D01*
X96076887Y-5829942D02*
X96114982Y-5753752D01*
X96114982Y-5753752D02*
X96153077Y-5715657D01*
X96153077Y-5715657D02*
X96229268Y-5677561D01*
X96229268Y-5677561D02*
X96305458Y-5677561D01*
X96572125Y-6210895D02*
X96572125Y-5410895D01*
X96914982Y-6210895D02*
X96914982Y-5791847D01*
X96914982Y-5791847D02*
X96876887Y-5715657D01*
X96876887Y-5715657D02*
X96800696Y-5677561D01*
X96800696Y-5677561D02*
X96686410Y-5677561D01*
X96686410Y-5677561D02*
X96610220Y-5715657D01*
X96610220Y-5715657D02*
X96572125Y-5753752D01*
X97410220Y-6210895D02*
X97334030Y-6172800D01*
X97334030Y-6172800D02*
X97295935Y-6134704D01*
X97295935Y-6134704D02*
X97257839Y-6058514D01*
X97257839Y-6058514D02*
X97257839Y-5829942D01*
X97257839Y-5829942D02*
X97295935Y-5753752D01*
X97295935Y-5753752D02*
X97334030Y-5715657D01*
X97334030Y-5715657D02*
X97410220Y-5677561D01*
X97410220Y-5677561D02*
X97524506Y-5677561D01*
X97524506Y-5677561D02*
X97600697Y-5715657D01*
X97600697Y-5715657D02*
X97638792Y-5753752D01*
X97638792Y-5753752D02*
X97676887Y-5829942D01*
X97676887Y-5829942D02*
X97676887Y-6058514D01*
X97676887Y-6058514D02*
X97638792Y-6134704D01*
X97638792Y-6134704D02*
X97600697Y-6172800D01*
X97600697Y-6172800D02*
X97524506Y-6210895D01*
X97524506Y-6210895D02*
X97410220Y-6210895D01*
X97905459Y-5677561D02*
X98210221Y-5677561D01*
X98019745Y-6210895D02*
X98019745Y-5525180D01*
X98019745Y-5525180D02*
X98057840Y-5448990D01*
X98057840Y-5448990D02*
X98134030Y-5410895D01*
X98134030Y-5410895D02*
X98210221Y-5410895D01*
X98781650Y-6172800D02*
X98705459Y-6210895D01*
X98705459Y-6210895D02*
X98553078Y-6210895D01*
X98553078Y-6210895D02*
X98476888Y-6172800D01*
X98476888Y-6172800D02*
X98438792Y-6096609D01*
X98438792Y-6096609D02*
X98438792Y-5791847D01*
X98438792Y-5791847D02*
X98476888Y-5715657D01*
X98476888Y-5715657D02*
X98553078Y-5677561D01*
X98553078Y-5677561D02*
X98705459Y-5677561D01*
X98705459Y-5677561D02*
X98781650Y-5715657D01*
X98781650Y-5715657D02*
X98819745Y-5791847D01*
X98819745Y-5791847D02*
X98819745Y-5868038D01*
X98819745Y-5868038D02*
X98438792Y-5944228D01*
X99162602Y-6210895D02*
X99162602Y-5677561D01*
X99162602Y-5829942D02*
X99200697Y-5753752D01*
X99200697Y-5753752D02*
X99238792Y-5715657D01*
X99238792Y-5715657D02*
X99314983Y-5677561D01*
X99314983Y-5677561D02*
X99391173Y-5677561D01*
X89257836Y-6698895D02*
X89257836Y-7270323D01*
X89257836Y-7270323D02*
X89219741Y-7384609D01*
X89219741Y-7384609D02*
X89143550Y-7460800D01*
X89143550Y-7460800D02*
X89029265Y-7498895D01*
X89029265Y-7498895D02*
X88953074Y-7498895D01*
X89753074Y-7498895D02*
X89676884Y-7460800D01*
X89676884Y-7460800D02*
X89638789Y-7422704D01*
X89638789Y-7422704D02*
X89600693Y-7346514D01*
X89600693Y-7346514D02*
X89600693Y-7117942D01*
X89600693Y-7117942D02*
X89638789Y-7041752D01*
X89638789Y-7041752D02*
X89676884Y-7003657D01*
X89676884Y-7003657D02*
X89753074Y-6965561D01*
X89753074Y-6965561D02*
X89867360Y-6965561D01*
X89867360Y-6965561D02*
X89943551Y-7003657D01*
X89943551Y-7003657D02*
X89981646Y-7041752D01*
X89981646Y-7041752D02*
X90019741Y-7117942D01*
X90019741Y-7117942D02*
X90019741Y-7346514D01*
X90019741Y-7346514D02*
X89981646Y-7422704D01*
X89981646Y-7422704D02*
X89943551Y-7460800D01*
X89943551Y-7460800D02*
X89867360Y-7498895D01*
X89867360Y-7498895D02*
X89753074Y-7498895D01*
X90362599Y-7498895D02*
X90362599Y-6698895D01*
X90705456Y-7498895D02*
X90705456Y-7079847D01*
X90705456Y-7079847D02*
X90667361Y-7003657D01*
X90667361Y-7003657D02*
X90591170Y-6965561D01*
X90591170Y-6965561D02*
X90476884Y-6965561D01*
X90476884Y-6965561D02*
X90400694Y-7003657D01*
X90400694Y-7003657D02*
X90362599Y-7041752D01*
X91429266Y-7498895D02*
X91429266Y-7079847D01*
X91429266Y-7079847D02*
X91391171Y-7003657D01*
X91391171Y-7003657D02*
X91314980Y-6965561D01*
X91314980Y-6965561D02*
X91162599Y-6965561D01*
X91162599Y-6965561D02*
X91086409Y-7003657D01*
X91429266Y-7460800D02*
X91353075Y-7498895D01*
X91353075Y-7498895D02*
X91162599Y-7498895D01*
X91162599Y-7498895D02*
X91086409Y-7460800D01*
X91086409Y-7460800D02*
X91048313Y-7384609D01*
X91048313Y-7384609D02*
X91048313Y-7308419D01*
X91048313Y-7308419D02*
X91086409Y-7232228D01*
X91086409Y-7232228D02*
X91162599Y-7194133D01*
X91162599Y-7194133D02*
X91353075Y-7194133D01*
X91353075Y-7194133D02*
X91429266Y-7156038D01*
X91810219Y-6965561D02*
X91810219Y-7498895D01*
X91810219Y-7041752D02*
X91848314Y-7003657D01*
X91848314Y-7003657D02*
X91924504Y-6965561D01*
X91924504Y-6965561D02*
X92038790Y-6965561D01*
X92038790Y-6965561D02*
X92114981Y-7003657D01*
X92114981Y-7003657D02*
X92153076Y-7079847D01*
X92153076Y-7079847D02*
X92153076Y-7498895D01*
X92534029Y-6965561D02*
X92534029Y-7498895D01*
X92534029Y-7041752D02*
X92572124Y-7003657D01*
X92572124Y-7003657D02*
X92648314Y-6965561D01*
X92648314Y-6965561D02*
X92762600Y-6965561D01*
X92762600Y-6965561D02*
X92838791Y-7003657D01*
X92838791Y-7003657D02*
X92876886Y-7079847D01*
X92876886Y-7079847D02*
X92876886Y-7498895D01*
X93562601Y-7460800D02*
X93486410Y-7498895D01*
X93486410Y-7498895D02*
X93334029Y-7498895D01*
X93334029Y-7498895D02*
X93257839Y-7460800D01*
X93257839Y-7460800D02*
X93219743Y-7384609D01*
X93219743Y-7384609D02*
X93219743Y-7079847D01*
X93219743Y-7079847D02*
X93257839Y-7003657D01*
X93257839Y-7003657D02*
X93334029Y-6965561D01*
X93334029Y-6965561D02*
X93486410Y-6965561D01*
X93486410Y-6965561D02*
X93562601Y-7003657D01*
X93562601Y-7003657D02*
X93600696Y-7079847D01*
X93600696Y-7079847D02*
X93600696Y-7156038D01*
X93600696Y-7156038D02*
X93219743Y-7232228D01*
X93905457Y-7460800D02*
X93981648Y-7498895D01*
X93981648Y-7498895D02*
X94134029Y-7498895D01*
X94134029Y-7498895D02*
X94210219Y-7460800D01*
X94210219Y-7460800D02*
X94248315Y-7384609D01*
X94248315Y-7384609D02*
X94248315Y-7346514D01*
X94248315Y-7346514D02*
X94210219Y-7270323D01*
X94210219Y-7270323D02*
X94134029Y-7232228D01*
X94134029Y-7232228D02*
X94019743Y-7232228D01*
X94019743Y-7232228D02*
X93943553Y-7194133D01*
X93943553Y-7194133D02*
X93905457Y-7117942D01*
X93905457Y-7117942D02*
X93905457Y-7079847D01*
X93905457Y-7079847D02*
X93943553Y-7003657D01*
X93943553Y-7003657D02*
X94019743Y-6965561D01*
X94019743Y-6965561D02*
X94134029Y-6965561D01*
X94134029Y-6965561D02*
X94210219Y-7003657D01*
X95200696Y-7498895D02*
X95200696Y-6698895D01*
X95200696Y-6698895D02*
X95467362Y-7270323D01*
X95467362Y-7270323D02*
X95734029Y-6698895D01*
X95734029Y-6698895D02*
X95734029Y-7498895D01*
X96419744Y-7460800D02*
X96343553Y-7498895D01*
X96343553Y-7498895D02*
X96191172Y-7498895D01*
X96191172Y-7498895D02*
X96114982Y-7460800D01*
X96114982Y-7460800D02*
X96076886Y-7384609D01*
X96076886Y-7384609D02*
X96076886Y-7079847D01*
X96076886Y-7079847D02*
X96114982Y-7003657D01*
X96114982Y-7003657D02*
X96191172Y-6965561D01*
X96191172Y-6965561D02*
X96343553Y-6965561D01*
X96343553Y-6965561D02*
X96419744Y-7003657D01*
X96419744Y-7003657D02*
X96457839Y-7079847D01*
X96457839Y-7079847D02*
X96457839Y-7156038D01*
X96457839Y-7156038D02*
X96076886Y-7232228D01*
X96914981Y-7498895D02*
X96838791Y-7460800D01*
X96838791Y-7460800D02*
X96800696Y-7384609D01*
X96800696Y-7384609D02*
X96800696Y-6698895D01*
X97562601Y-7460800D02*
X97486410Y-7498895D01*
X97486410Y-7498895D02*
X97334029Y-7498895D01*
X97334029Y-7498895D02*
X97257839Y-7460800D01*
X97257839Y-7460800D02*
X97219744Y-7422704D01*
X97219744Y-7422704D02*
X97181648Y-7346514D01*
X97181648Y-7346514D02*
X97181648Y-7117942D01*
X97181648Y-7117942D02*
X97219744Y-7041752D01*
X97219744Y-7041752D02*
X97257839Y-7003657D01*
X97257839Y-7003657D02*
X97334029Y-6965561D01*
X97334029Y-6965561D02*
X97486410Y-6965561D01*
X97486410Y-6965561D02*
X97562601Y-7003657D01*
X97905458Y-7498895D02*
X97905458Y-6698895D01*
X98248315Y-7498895D02*
X98248315Y-7079847D01*
X98248315Y-7079847D02*
X98210220Y-7003657D01*
X98210220Y-7003657D02*
X98134029Y-6965561D01*
X98134029Y-6965561D02*
X98019743Y-6965561D01*
X98019743Y-6965561D02*
X97943553Y-7003657D01*
X97943553Y-7003657D02*
X97905458Y-7041752D01*
X98934030Y-7460800D02*
X98857839Y-7498895D01*
X98857839Y-7498895D02*
X98705458Y-7498895D01*
X98705458Y-7498895D02*
X98629268Y-7460800D01*
X98629268Y-7460800D02*
X98591172Y-7384609D01*
X98591172Y-7384609D02*
X98591172Y-7079847D01*
X98591172Y-7079847D02*
X98629268Y-7003657D01*
X98629268Y-7003657D02*
X98705458Y-6965561D01*
X98705458Y-6965561D02*
X98857839Y-6965561D01*
X98857839Y-6965561D02*
X98934030Y-7003657D01*
X98934030Y-7003657D02*
X98972125Y-7079847D01*
X98972125Y-7079847D02*
X98972125Y-7156038D01*
X98972125Y-7156038D02*
X98591172Y-7232228D01*
X99314982Y-7498895D02*
X99314982Y-6965561D01*
X99314982Y-7117942D02*
X99353077Y-7041752D01*
X99353077Y-7041752D02*
X99391172Y-7003657D01*
X99391172Y-7003657D02*
X99467363Y-6965561D01*
X99467363Y-6965561D02*
X99543553Y-6965561D01*
X99810220Y-7194133D02*
X100419744Y-7194133D01*
X100800696Y-7498895D02*
X100800696Y-6698895D01*
X100800696Y-6698895D02*
X101067362Y-7270323D01*
X101067362Y-7270323D02*
X101334029Y-6698895D01*
X101334029Y-6698895D02*
X101334029Y-7498895D01*
X101714982Y-7498895D02*
X101714982Y-6965561D01*
X101714982Y-6698895D02*
X101676886Y-6736990D01*
X101676886Y-6736990D02*
X101714982Y-6775085D01*
X101714982Y-6775085D02*
X101753077Y-6736990D01*
X101753077Y-6736990D02*
X101714982Y-6698895D01*
X101714982Y-6698895D02*
X101714982Y-6775085D01*
X102210219Y-7498895D02*
X102134029Y-7460800D01*
X102134029Y-7460800D02*
X102095934Y-7384609D01*
X102095934Y-7384609D02*
X102095934Y-6698895D01*
X102629267Y-7498895D02*
X102553077Y-7460800D01*
X102553077Y-7460800D02*
X102514982Y-7384609D01*
X102514982Y-7384609D02*
X102514982Y-6698895D01*
X102934030Y-6965561D02*
X102934030Y-7498895D01*
X102934030Y-7041752D02*
X102972125Y-7003657D01*
X102972125Y-7003657D02*
X103048315Y-6965561D01*
X103048315Y-6965561D02*
X103162601Y-6965561D01*
X103162601Y-6965561D02*
X103238792Y-7003657D01*
X103238792Y-7003657D02*
X103276887Y-7079847D01*
X103276887Y-7079847D02*
X103276887Y-7498895D01*
X103962602Y-7460800D02*
X103886411Y-7498895D01*
X103886411Y-7498895D02*
X103734030Y-7498895D01*
X103734030Y-7498895D02*
X103657840Y-7460800D01*
X103657840Y-7460800D02*
X103619744Y-7384609D01*
X103619744Y-7384609D02*
X103619744Y-7079847D01*
X103619744Y-7079847D02*
X103657840Y-7003657D01*
X103657840Y-7003657D02*
X103734030Y-6965561D01*
X103734030Y-6965561D02*
X103886411Y-6965561D01*
X103886411Y-6965561D02*
X103962602Y-7003657D01*
X103962602Y-7003657D02*
X104000697Y-7079847D01*
X104000697Y-7079847D02*
X104000697Y-7156038D01*
X104000697Y-7156038D02*
X103619744Y-7232228D01*
X104343554Y-7498895D02*
X104343554Y-6965561D01*
X104343554Y-7117942D02*
X104381649Y-7041752D01*
X104381649Y-7041752D02*
X104419744Y-7003657D01*
X104419744Y-7003657D02*
X104495935Y-6965561D01*
X104495935Y-6965561D02*
X104572125Y-6965561D01*
X89029265Y-7986895D02*
X89029265Y-8634514D01*
X89029265Y-8634514D02*
X89067360Y-8710704D01*
X89067360Y-8710704D02*
X89105455Y-8748800D01*
X89105455Y-8748800D02*
X89181646Y-8786895D01*
X89181646Y-8786895D02*
X89334027Y-8786895D01*
X89334027Y-8786895D02*
X89410217Y-8748800D01*
X89410217Y-8748800D02*
X89448312Y-8710704D01*
X89448312Y-8710704D02*
X89486408Y-8634514D01*
X89486408Y-8634514D02*
X89486408Y-7986895D01*
X89829264Y-8748800D02*
X89943550Y-8786895D01*
X89943550Y-8786895D02*
X90134026Y-8786895D01*
X90134026Y-8786895D02*
X90210217Y-8748800D01*
X90210217Y-8748800D02*
X90248312Y-8710704D01*
X90248312Y-8710704D02*
X90286407Y-8634514D01*
X90286407Y-8634514D02*
X90286407Y-8558323D01*
X90286407Y-8558323D02*
X90248312Y-8482133D01*
X90248312Y-8482133D02*
X90210217Y-8444038D01*
X90210217Y-8444038D02*
X90134026Y-8405942D01*
X90134026Y-8405942D02*
X89981645Y-8367847D01*
X89981645Y-8367847D02*
X89905455Y-8329752D01*
X89905455Y-8329752D02*
X89867360Y-8291657D01*
X89867360Y-8291657D02*
X89829264Y-8215466D01*
X89829264Y-8215466D02*
X89829264Y-8139276D01*
X89829264Y-8139276D02*
X89867360Y-8063085D01*
X89867360Y-8063085D02*
X89905455Y-8024990D01*
X89905455Y-8024990D02*
X89981645Y-7986895D01*
X89981645Y-7986895D02*
X90172122Y-7986895D01*
X90172122Y-7986895D02*
X90286407Y-8024990D01*
X90895931Y-8367847D02*
X91010217Y-8405942D01*
X91010217Y-8405942D02*
X91048312Y-8444038D01*
X91048312Y-8444038D02*
X91086408Y-8520228D01*
X91086408Y-8520228D02*
X91086408Y-8634514D01*
X91086408Y-8634514D02*
X91048312Y-8710704D01*
X91048312Y-8710704D02*
X91010217Y-8748800D01*
X91010217Y-8748800D02*
X90934027Y-8786895D01*
X90934027Y-8786895D02*
X90629265Y-8786895D01*
X90629265Y-8786895D02*
X90629265Y-7986895D01*
X90629265Y-7986895D02*
X90895931Y-7986895D01*
X90895931Y-7986895D02*
X90972122Y-8024990D01*
X90972122Y-8024990D02*
X91010217Y-8063085D01*
X91010217Y-8063085D02*
X91048312Y-8139276D01*
X91048312Y-8139276D02*
X91048312Y-8215466D01*
X91048312Y-8215466D02*
X91010217Y-8291657D01*
X91010217Y-8291657D02*
X90972122Y-8329752D01*
X90972122Y-8329752D02*
X90895931Y-8367847D01*
X90895931Y-8367847D02*
X90629265Y-8367847D01*
X91886408Y-8710704D02*
X91848312Y-8748800D01*
X91848312Y-8748800D02*
X91734027Y-8786895D01*
X91734027Y-8786895D02*
X91657836Y-8786895D01*
X91657836Y-8786895D02*
X91543550Y-8748800D01*
X91543550Y-8748800D02*
X91467360Y-8672609D01*
X91467360Y-8672609D02*
X91429265Y-8596419D01*
X91429265Y-8596419D02*
X91391169Y-8444038D01*
X91391169Y-8444038D02*
X91391169Y-8329752D01*
X91391169Y-8329752D02*
X91429265Y-8177371D01*
X91429265Y-8177371D02*
X91467360Y-8101180D01*
X91467360Y-8101180D02*
X91543550Y-8024990D01*
X91543550Y-8024990D02*
X91657836Y-7986895D01*
X91657836Y-7986895D02*
X91734027Y-7986895D01*
X91734027Y-7986895D02*
X91848312Y-8024990D01*
X91848312Y-8024990D02*
X91886408Y-8063085D01*
X92038789Y-8863085D02*
X92648312Y-8863085D01*
X92838789Y-8786895D02*
X92838789Y-7986895D01*
X92838789Y-7986895D02*
X93143551Y-7986895D01*
X93143551Y-7986895D02*
X93219741Y-8024990D01*
X93219741Y-8024990D02*
X93257836Y-8063085D01*
X93257836Y-8063085D02*
X93295932Y-8139276D01*
X93295932Y-8139276D02*
X93295932Y-8253561D01*
X93295932Y-8253561D02*
X93257836Y-8329752D01*
X93257836Y-8329752D02*
X93219741Y-8367847D01*
X93219741Y-8367847D02*
X93143551Y-8405942D01*
X93143551Y-8405942D02*
X92838789Y-8405942D01*
X93638789Y-8786895D02*
X93638789Y-7986895D01*
X93638789Y-7986895D02*
X93829265Y-7986895D01*
X93829265Y-7986895D02*
X93943551Y-8024990D01*
X93943551Y-8024990D02*
X94019741Y-8101180D01*
X94019741Y-8101180D02*
X94057836Y-8177371D01*
X94057836Y-8177371D02*
X94095932Y-8329752D01*
X94095932Y-8329752D02*
X94095932Y-8444038D01*
X94095932Y-8444038D02*
X94057836Y-8596419D01*
X94057836Y-8596419D02*
X94019741Y-8672609D01*
X94019741Y-8672609D02*
X93943551Y-8748800D01*
X93943551Y-8748800D02*
X93829265Y-8786895D01*
X93829265Y-8786895D02*
X93638789Y-8786895D01*
X94438789Y-8482133D02*
X95048313Y-8482133D01*
X95314979Y-7986895D02*
X95772122Y-7986895D01*
X95543550Y-8786895D02*
X95543550Y-7986895D01*
X96038789Y-8786895D02*
X96038789Y-8253561D01*
X96038789Y-8405942D02*
X96076884Y-8329752D01*
X96076884Y-8329752D02*
X96114979Y-8291657D01*
X96114979Y-8291657D02*
X96191170Y-8253561D01*
X96191170Y-8253561D02*
X96267360Y-8253561D01*
X96534027Y-8786895D02*
X96534027Y-8253561D01*
X96534027Y-7986895D02*
X96495931Y-8024990D01*
X96495931Y-8024990D02*
X96534027Y-8063085D01*
X96534027Y-8063085D02*
X96572122Y-8024990D01*
X96572122Y-8024990D02*
X96534027Y-7986895D01*
X96534027Y-7986895D02*
X96534027Y-8063085D01*
X97257836Y-8253561D02*
X97257836Y-8901180D01*
X97257836Y-8901180D02*
X97219741Y-8977371D01*
X97219741Y-8977371D02*
X97181645Y-9015466D01*
X97181645Y-9015466D02*
X97105455Y-9053561D01*
X97105455Y-9053561D02*
X96991169Y-9053561D01*
X96991169Y-9053561D02*
X96914979Y-9015466D01*
X97257836Y-8748800D02*
X97181645Y-8786895D01*
X97181645Y-8786895D02*
X97029264Y-8786895D01*
X97029264Y-8786895D02*
X96953074Y-8748800D01*
X96953074Y-8748800D02*
X96914979Y-8710704D01*
X96914979Y-8710704D02*
X96876883Y-8634514D01*
X96876883Y-8634514D02*
X96876883Y-8405942D01*
X96876883Y-8405942D02*
X96914979Y-8329752D01*
X96914979Y-8329752D02*
X96953074Y-8291657D01*
X96953074Y-8291657D02*
X97029264Y-8253561D01*
X97029264Y-8253561D02*
X97181645Y-8253561D01*
X97181645Y-8253561D02*
X97257836Y-8291657D01*
X97981646Y-8253561D02*
X97981646Y-8901180D01*
X97981646Y-8901180D02*
X97943551Y-8977371D01*
X97943551Y-8977371D02*
X97905455Y-9015466D01*
X97905455Y-9015466D02*
X97829265Y-9053561D01*
X97829265Y-9053561D02*
X97714979Y-9053561D01*
X97714979Y-9053561D02*
X97638789Y-9015466D01*
X97981646Y-8748800D02*
X97905455Y-8786895D01*
X97905455Y-8786895D02*
X97753074Y-8786895D01*
X97753074Y-8786895D02*
X97676884Y-8748800D01*
X97676884Y-8748800D02*
X97638789Y-8710704D01*
X97638789Y-8710704D02*
X97600693Y-8634514D01*
X97600693Y-8634514D02*
X97600693Y-8405942D01*
X97600693Y-8405942D02*
X97638789Y-8329752D01*
X97638789Y-8329752D02*
X97676884Y-8291657D01*
X97676884Y-8291657D02*
X97753074Y-8253561D01*
X97753074Y-8253561D02*
X97905455Y-8253561D01*
X97905455Y-8253561D02*
X97981646Y-8291657D01*
X98667361Y-8748800D02*
X98591170Y-8786895D01*
X98591170Y-8786895D02*
X98438789Y-8786895D01*
X98438789Y-8786895D02*
X98362599Y-8748800D01*
X98362599Y-8748800D02*
X98324503Y-8672609D01*
X98324503Y-8672609D02*
X98324503Y-8367847D01*
X98324503Y-8367847D02*
X98362599Y-8291657D01*
X98362599Y-8291657D02*
X98438789Y-8253561D01*
X98438789Y-8253561D02*
X98591170Y-8253561D01*
X98591170Y-8253561D02*
X98667361Y-8291657D01*
X98667361Y-8291657D02*
X98705456Y-8367847D01*
X98705456Y-8367847D02*
X98705456Y-8444038D01*
X98705456Y-8444038D02*
X98324503Y-8520228D01*
X99048313Y-8786895D02*
X99048313Y-8253561D01*
X99048313Y-8405942D02*
X99086408Y-8329752D01*
X99086408Y-8329752D02*
X99124503Y-8291657D01*
X99124503Y-8291657D02*
X99200694Y-8253561D01*
X99200694Y-8253561D02*
X99276884Y-8253561D01*
D10*
X75326952Y-24981819D02*
X75517428Y-24981819D01*
X75517428Y-24981819D02*
X75612666Y-25029438D01*
X75612666Y-25029438D02*
X75707904Y-25124676D01*
X75707904Y-25124676D02*
X75755523Y-25315152D01*
X75755523Y-25315152D02*
X75755523Y-25648485D01*
X75755523Y-25648485D02*
X75707904Y-25838961D01*
X75707904Y-25838961D02*
X75612666Y-25934200D01*
X75612666Y-25934200D02*
X75517428Y-25981819D01*
X75517428Y-25981819D02*
X75326952Y-25981819D01*
X75326952Y-25981819D02*
X75231714Y-25934200D01*
X75231714Y-25934200D02*
X75136476Y-25838961D01*
X75136476Y-25838961D02*
X75088857Y-25648485D01*
X75088857Y-25648485D02*
X75088857Y-25315152D01*
X75088857Y-25315152D02*
X75136476Y-25124676D01*
X75136476Y-25124676D02*
X75231714Y-25029438D01*
X75231714Y-25029438D02*
X75326952Y-24981819D01*
X76184095Y-25981819D02*
X76184095Y-24981819D01*
X76184095Y-24981819D02*
X76755523Y-25981819D01*
X76755523Y-25981819D02*
X76755523Y-24981819D01*
X71494666Y13607705D02*
X71113714Y13607705D01*
X71113714Y13607705D02*
X71113714Y14407705D01*
X72180380Y13607705D02*
X71723237Y13607705D01*
X71951809Y13607705D02*
X71951809Y14407705D01*
X71951809Y14407705D02*
X71875618Y14293420D01*
X71875618Y14293420D02*
X71799428Y14217229D01*
X71799428Y14217229D02*
X71723237Y14179134D01*
X73906142Y3196420D02*
X73858523Y3148800D01*
X73858523Y3148800D02*
X73715666Y3101181D01*
X73715666Y3101181D02*
X73620428Y3101181D01*
X73620428Y3101181D02*
X73477571Y3148800D01*
X73477571Y3148800D02*
X73382333Y3244039D01*
X73382333Y3244039D02*
X73334714Y3339277D01*
X73334714Y3339277D02*
X73287095Y3529753D01*
X73287095Y3529753D02*
X73287095Y3672610D01*
X73287095Y3672610D02*
X73334714Y3863086D01*
X73334714Y3863086D02*
X73382333Y3958324D01*
X73382333Y3958324D02*
X73477571Y4053562D01*
X73477571Y4053562D02*
X73620428Y4101181D01*
X73620428Y4101181D02*
X73715666Y4101181D01*
X73715666Y4101181D02*
X73858523Y4053562D01*
X73858523Y4053562D02*
X73906142Y4005943D01*
X74858523Y3101181D02*
X74287095Y3101181D01*
X74572809Y3101181D02*
X74572809Y4101181D01*
X74572809Y4101181D02*
X74477571Y3958324D01*
X74477571Y3958324D02*
X74382333Y3863086D01*
X74382333Y3863086D02*
X74287095Y3815467D01*
X75810904Y3101181D02*
X75239476Y3101181D01*
X75525190Y3101181D02*
X75525190Y4101181D01*
X75525190Y4101181D02*
X75429952Y3958324D01*
X75429952Y3958324D02*
X75334714Y3863086D01*
X75334714Y3863086D02*
X75239476Y3815467D01*
X63398476Y10343705D02*
X63398476Y9696086D01*
X63398476Y9696086D02*
X63436571Y9619896D01*
X63436571Y9619896D02*
X63474666Y9581800D01*
X63474666Y9581800D02*
X63550857Y9543705D01*
X63550857Y9543705D02*
X63703238Y9543705D01*
X63703238Y9543705D02*
X63779428Y9581800D01*
X63779428Y9581800D02*
X63817523Y9619896D01*
X63817523Y9619896D02*
X63855619Y9696086D01*
X63855619Y9696086D02*
X63855619Y10343705D01*
X64579428Y10077039D02*
X64579428Y9543705D01*
X64388952Y10381800D02*
X64198475Y9810372D01*
X64198475Y9810372D02*
X64693714Y9810372D01*
D11*
X54222667Y7331296D02*
X54184571Y7293200D01*
X54184571Y7293200D02*
X54070286Y7255105D01*
X54070286Y7255105D02*
X53994095Y7255105D01*
X53994095Y7255105D02*
X53879809Y7293200D01*
X53879809Y7293200D02*
X53803619Y7369391D01*
X53803619Y7369391D02*
X53765524Y7445581D01*
X53765524Y7445581D02*
X53727428Y7597962D01*
X53727428Y7597962D02*
X53727428Y7712248D01*
X53727428Y7712248D02*
X53765524Y7864629D01*
X53765524Y7864629D02*
X53803619Y7940820D01*
X53803619Y7940820D02*
X53879809Y8017010D01*
X53879809Y8017010D02*
X53994095Y8055105D01*
X53994095Y8055105D02*
X54070286Y8055105D01*
X54070286Y8055105D02*
X54184571Y8017010D01*
X54184571Y8017010D02*
X54222667Y7978915D01*
X54489333Y8055105D02*
X54984571Y8055105D01*
X54984571Y8055105D02*
X54717905Y7750343D01*
X54717905Y7750343D02*
X54832190Y7750343D01*
X54832190Y7750343D02*
X54908381Y7712248D01*
X54908381Y7712248D02*
X54946476Y7674153D01*
X54946476Y7674153D02*
X54984571Y7597962D01*
X54984571Y7597962D02*
X54984571Y7407486D01*
X54984571Y7407486D02*
X54946476Y7331296D01*
X54946476Y7331296D02*
X54908381Y7293200D01*
X54908381Y7293200D02*
X54832190Y7255105D01*
X54832190Y7255105D02*
X54603619Y7255105D01*
X54603619Y7255105D02*
X54527428Y7293200D01*
X54527428Y7293200D02*
X54489333Y7331296D01*
D10*
X78509905Y-7312819D02*
X78509905Y-6312819D01*
X78509905Y-6312819D02*
X78748000Y-6312819D01*
X78748000Y-6312819D02*
X78890857Y-6360438D01*
X78890857Y-6360438D02*
X78986095Y-6455676D01*
X78986095Y-6455676D02*
X79033714Y-6550914D01*
X79033714Y-6550914D02*
X79081333Y-6741390D01*
X79081333Y-6741390D02*
X79081333Y-6884247D01*
X79081333Y-6884247D02*
X79033714Y-7074723D01*
X79033714Y-7074723D02*
X78986095Y-7169961D01*
X78986095Y-7169961D02*
X78890857Y-7265200D01*
X78890857Y-7265200D02*
X78748000Y-7312819D01*
X78748000Y-7312819D02*
X78509905Y-7312819D01*
X79462286Y-6408057D02*
X79509905Y-6360438D01*
X79509905Y-6360438D02*
X79605143Y-6312819D01*
X79605143Y-6312819D02*
X79843238Y-6312819D01*
X79843238Y-6312819D02*
X79938476Y-6360438D01*
X79938476Y-6360438D02*
X79986095Y-6408057D01*
X79986095Y-6408057D02*
X80033714Y-6503295D01*
X80033714Y-6503295D02*
X80033714Y-6598533D01*
X80033714Y-6598533D02*
X79986095Y-6741390D01*
X79986095Y-6741390D02*
X79414667Y-7312819D01*
X79414667Y-7312819D02*
X80033714Y-7312819D01*
X80068524Y477705D02*
X80068524Y1277705D01*
X80068524Y1277705D02*
X80259000Y1277705D01*
X80259000Y1277705D02*
X80373286Y1239610D01*
X80373286Y1239610D02*
X80449476Y1163420D01*
X80449476Y1163420D02*
X80487571Y1087229D01*
X80487571Y1087229D02*
X80525667Y934848D01*
X80525667Y934848D02*
X80525667Y820562D01*
X80525667Y820562D02*
X80487571Y668181D01*
X80487571Y668181D02*
X80449476Y591991D01*
X80449476Y591991D02*
X80373286Y515800D01*
X80373286Y515800D02*
X80259000Y477705D01*
X80259000Y477705D02*
X80068524Y477705D01*
X81287571Y477705D02*
X80830428Y477705D01*
X81059000Y477705D02*
X81059000Y1277705D01*
X81059000Y1277705D02*
X80982809Y1163420D01*
X80982809Y1163420D02*
X80906619Y1087229D01*
X80906619Y1087229D02*
X80830428Y1049134D01*
D11*
X52698667Y10379296D02*
X52660571Y10341200D01*
X52660571Y10341200D02*
X52546286Y10303105D01*
X52546286Y10303105D02*
X52470095Y10303105D01*
X52470095Y10303105D02*
X52355809Y10341200D01*
X52355809Y10341200D02*
X52279619Y10417391D01*
X52279619Y10417391D02*
X52241524Y10493581D01*
X52241524Y10493581D02*
X52203428Y10645962D01*
X52203428Y10645962D02*
X52203428Y10760248D01*
X52203428Y10760248D02*
X52241524Y10912629D01*
X52241524Y10912629D02*
X52279619Y10988820D01*
X52279619Y10988820D02*
X52355809Y11065010D01*
X52355809Y11065010D02*
X52470095Y11103105D01*
X52470095Y11103105D02*
X52546286Y11103105D01*
X52546286Y11103105D02*
X52660571Y11065010D01*
X52660571Y11065010D02*
X52698667Y11026915D01*
X53384381Y10836439D02*
X53384381Y10303105D01*
X53193905Y11141200D02*
X53003428Y10569772D01*
X53003428Y10569772D02*
X53498667Y10569772D01*
D10*
X58064476Y5657705D02*
X58064476Y5010086D01*
X58064476Y5010086D02*
X58102571Y4933896D01*
X58102571Y4933896D02*
X58140666Y4895800D01*
X58140666Y4895800D02*
X58216857Y4857705D01*
X58216857Y4857705D02*
X58369238Y4857705D01*
X58369238Y4857705D02*
X58445428Y4895800D01*
X58445428Y4895800D02*
X58483523Y4933896D01*
X58483523Y4933896D02*
X58521619Y5010086D01*
X58521619Y5010086D02*
X58521619Y5657705D01*
X59321618Y4857705D02*
X58864475Y4857705D01*
X59093047Y4857705D02*
X59093047Y5657705D01*
X59093047Y5657705D02*
X59016856Y5543420D01*
X59016856Y5543420D02*
X58940666Y5467229D01*
X58940666Y5467229D02*
X58864475Y5429134D01*
X56221333Y4056420D02*
X56173714Y4008800D01*
X56173714Y4008800D02*
X56030857Y3961181D01*
X56030857Y3961181D02*
X55935619Y3961181D01*
X55935619Y3961181D02*
X55792762Y4008800D01*
X55792762Y4008800D02*
X55697524Y4104039D01*
X55697524Y4104039D02*
X55649905Y4199277D01*
X55649905Y4199277D02*
X55602286Y4389753D01*
X55602286Y4389753D02*
X55602286Y4532610D01*
X55602286Y4532610D02*
X55649905Y4723086D01*
X55649905Y4723086D02*
X55697524Y4818324D01*
X55697524Y4818324D02*
X55792762Y4913562D01*
X55792762Y4913562D02*
X55935619Y4961181D01*
X55935619Y4961181D02*
X56030857Y4961181D01*
X56030857Y4961181D02*
X56173714Y4913562D01*
X56173714Y4913562D02*
X56221333Y4865943D01*
X57126095Y4961181D02*
X56649905Y4961181D01*
X56649905Y4961181D02*
X56602286Y4484991D01*
X56602286Y4484991D02*
X56649905Y4532610D01*
X56649905Y4532610D02*
X56745143Y4580229D01*
X56745143Y4580229D02*
X56983238Y4580229D01*
X56983238Y4580229D02*
X57078476Y4532610D01*
X57078476Y4532610D02*
X57126095Y4484991D01*
X57126095Y4484991D02*
X57173714Y4389753D01*
X57173714Y4389753D02*
X57173714Y4151658D01*
X57173714Y4151658D02*
X57126095Y4056420D01*
X57126095Y4056420D02*
X57078476Y4008800D01*
X57078476Y4008800D02*
X56983238Y3961181D01*
X56983238Y3961181D02*
X56745143Y3961181D01*
X56745143Y3961181D02*
X56649905Y4008800D01*
X56649905Y4008800D02*
X56602286Y4056420D01*
X94514200Y-16446332D02*
X94561819Y-16303475D01*
X94561819Y-16303475D02*
X94561819Y-16065380D01*
X94561819Y-16065380D02*
X94514200Y-15970142D01*
X94514200Y-15970142D02*
X94466580Y-15922523D01*
X94466580Y-15922523D02*
X94371342Y-15874904D01*
X94371342Y-15874904D02*
X94276104Y-15874904D01*
X94276104Y-15874904D02*
X94180866Y-15922523D01*
X94180866Y-15922523D02*
X94133247Y-15970142D01*
X94133247Y-15970142D02*
X94085628Y-16065380D01*
X94085628Y-16065380D02*
X94038009Y-16255856D01*
X94038009Y-16255856D02*
X93990390Y-16351094D01*
X93990390Y-16351094D02*
X93942771Y-16398713D01*
X93942771Y-16398713D02*
X93847533Y-16446332D01*
X93847533Y-16446332D02*
X93752295Y-16446332D01*
X93752295Y-16446332D02*
X93657057Y-16398713D01*
X93657057Y-16398713D02*
X93609438Y-16351094D01*
X93609438Y-16351094D02*
X93561819Y-16255856D01*
X93561819Y-16255856D02*
X93561819Y-16017761D01*
X93561819Y-16017761D02*
X93609438Y-15874904D01*
X93561819Y-15541570D02*
X94561819Y-15303475D01*
X94561819Y-15303475D02*
X93847533Y-15112999D01*
X93847533Y-15112999D02*
X94561819Y-14922523D01*
X94561819Y-14922523D02*
X93561819Y-14684428D01*
X94561819Y-13779666D02*
X94561819Y-14351094D01*
X94561819Y-14065380D02*
X93561819Y-14065380D01*
X93561819Y-14065380D02*
X93704676Y-14160618D01*
X93704676Y-14160618D02*
X93799914Y-14255856D01*
X93799914Y-14255856D02*
X93847533Y-14351094D01*
X60825142Y3958420D02*
X60777523Y3910800D01*
X60777523Y3910800D02*
X60634666Y3863181D01*
X60634666Y3863181D02*
X60539428Y3863181D01*
X60539428Y3863181D02*
X60396571Y3910800D01*
X60396571Y3910800D02*
X60301333Y4006039D01*
X60301333Y4006039D02*
X60253714Y4101277D01*
X60253714Y4101277D02*
X60206095Y4291753D01*
X60206095Y4291753D02*
X60206095Y4434610D01*
X60206095Y4434610D02*
X60253714Y4625086D01*
X60253714Y4625086D02*
X60301333Y4720324D01*
X60301333Y4720324D02*
X60396571Y4815562D01*
X60396571Y4815562D02*
X60539428Y4863181D01*
X60539428Y4863181D02*
X60634666Y4863181D01*
X60634666Y4863181D02*
X60777523Y4815562D01*
X60777523Y4815562D02*
X60825142Y4767943D01*
X61777523Y3863181D02*
X61206095Y3863181D01*
X61491809Y3863181D02*
X61491809Y4863181D01*
X61491809Y4863181D02*
X61396571Y4720324D01*
X61396571Y4720324D02*
X61301333Y4625086D01*
X61301333Y4625086D02*
X61206095Y4577467D01*
X62158476Y4767943D02*
X62206095Y4815562D01*
X62206095Y4815562D02*
X62301333Y4863181D01*
X62301333Y4863181D02*
X62539428Y4863181D01*
X62539428Y4863181D02*
X62634666Y4815562D01*
X62634666Y4815562D02*
X62682285Y4767943D01*
X62682285Y4767943D02*
X62729904Y4672705D01*
X62729904Y4672705D02*
X62729904Y4577467D01*
X62729904Y4577467D02*
X62682285Y4434610D01*
X62682285Y4434610D02*
X62110857Y3863181D01*
X62110857Y3863181D02*
X62729904Y3863181D01*
D11*
X54984667Y10379296D02*
X54946571Y10341200D01*
X54946571Y10341200D02*
X54832286Y10303105D01*
X54832286Y10303105D02*
X54756095Y10303105D01*
X54756095Y10303105D02*
X54641809Y10341200D01*
X54641809Y10341200D02*
X54565619Y10417391D01*
X54565619Y10417391D02*
X54527524Y10493581D01*
X54527524Y10493581D02*
X54489428Y10645962D01*
X54489428Y10645962D02*
X54489428Y10760248D01*
X54489428Y10760248D02*
X54527524Y10912629D01*
X54527524Y10912629D02*
X54565619Y10988820D01*
X54565619Y10988820D02*
X54641809Y11065010D01*
X54641809Y11065010D02*
X54756095Y11103105D01*
X54756095Y11103105D02*
X54832286Y11103105D01*
X54832286Y11103105D02*
X54946571Y11065010D01*
X54946571Y11065010D02*
X54984667Y11026915D01*
X55670381Y11103105D02*
X55518000Y11103105D01*
X55518000Y11103105D02*
X55441809Y11065010D01*
X55441809Y11065010D02*
X55403714Y11026915D01*
X55403714Y11026915D02*
X55327524Y10912629D01*
X55327524Y10912629D02*
X55289428Y10760248D01*
X55289428Y10760248D02*
X55289428Y10455486D01*
X55289428Y10455486D02*
X55327524Y10379296D01*
X55327524Y10379296D02*
X55365619Y10341200D01*
X55365619Y10341200D02*
X55441809Y10303105D01*
X55441809Y10303105D02*
X55594190Y10303105D01*
X55594190Y10303105D02*
X55670381Y10341200D01*
X55670381Y10341200D02*
X55708476Y10379296D01*
X55708476Y10379296D02*
X55746571Y10455486D01*
X55746571Y10455486D02*
X55746571Y10645962D01*
X55746571Y10645962D02*
X55708476Y10722153D01*
X55708476Y10722153D02*
X55670381Y10760248D01*
X55670381Y10760248D02*
X55594190Y10798343D01*
X55594190Y10798343D02*
X55441809Y10798343D01*
X55441809Y10798343D02*
X55365619Y10760248D01*
X55365619Y10760248D02*
X55327524Y10722153D01*
X55327524Y10722153D02*
X55289428Y10645962D01*
X58921714Y10379296D02*
X58883618Y10341200D01*
X58883618Y10341200D02*
X58769333Y10303105D01*
X58769333Y10303105D02*
X58693142Y10303105D01*
X58693142Y10303105D02*
X58578856Y10341200D01*
X58578856Y10341200D02*
X58502666Y10417391D01*
X58502666Y10417391D02*
X58464571Y10493581D01*
X58464571Y10493581D02*
X58426475Y10645962D01*
X58426475Y10645962D02*
X58426475Y10760248D01*
X58426475Y10760248D02*
X58464571Y10912629D01*
X58464571Y10912629D02*
X58502666Y10988820D01*
X58502666Y10988820D02*
X58578856Y11065010D01*
X58578856Y11065010D02*
X58693142Y11103105D01*
X58693142Y11103105D02*
X58769333Y11103105D01*
X58769333Y11103105D02*
X58883618Y11065010D01*
X58883618Y11065010D02*
X58921714Y11026915D01*
X59683618Y10303105D02*
X59226475Y10303105D01*
X59455047Y10303105D02*
X59455047Y11103105D01*
X59455047Y11103105D02*
X59378856Y10988820D01*
X59378856Y10988820D02*
X59302666Y10912629D01*
X59302666Y10912629D02*
X59226475Y10874534D01*
X60178857Y11103105D02*
X60255047Y11103105D01*
X60255047Y11103105D02*
X60331238Y11065010D01*
X60331238Y11065010D02*
X60369333Y11026915D01*
X60369333Y11026915D02*
X60407428Y10950724D01*
X60407428Y10950724D02*
X60445523Y10798343D01*
X60445523Y10798343D02*
X60445523Y10607867D01*
X60445523Y10607867D02*
X60407428Y10455486D01*
X60407428Y10455486D02*
X60369333Y10379296D01*
X60369333Y10379296D02*
X60331238Y10341200D01*
X60331238Y10341200D02*
X60255047Y10303105D01*
X60255047Y10303105D02*
X60178857Y10303105D01*
X60178857Y10303105D02*
X60102666Y10341200D01*
X60102666Y10341200D02*
X60064571Y10379296D01*
X60064571Y10379296D02*
X60026476Y10455486D01*
X60026476Y10455486D02*
X59988380Y10607867D01*
X59988380Y10607867D02*
X59988380Y10798343D01*
X59988380Y10798343D02*
X60026476Y10950724D01*
X60026476Y10950724D02*
X60064571Y11026915D01*
X60064571Y11026915D02*
X60102666Y11065010D01*
X60102666Y11065010D02*
X60178857Y11103105D01*
D10*
X78409809Y6673515D02*
X78333619Y6711610D01*
X78333619Y6711610D02*
X78257428Y6787800D01*
X78257428Y6787800D02*
X78143142Y6902086D01*
X78143142Y6902086D02*
X78066952Y6940181D01*
X78066952Y6940181D02*
X77990761Y6940181D01*
X78028857Y6749705D02*
X77952666Y6787800D01*
X77952666Y6787800D02*
X77876476Y6863991D01*
X77876476Y6863991D02*
X77838380Y7016372D01*
X77838380Y7016372D02*
X77838380Y7283039D01*
X77838380Y7283039D02*
X77876476Y7435420D01*
X77876476Y7435420D02*
X77952666Y7511610D01*
X77952666Y7511610D02*
X78028857Y7549705D01*
X78028857Y7549705D02*
X78181238Y7549705D01*
X78181238Y7549705D02*
X78257428Y7511610D01*
X78257428Y7511610D02*
X78333619Y7435420D01*
X78333619Y7435420D02*
X78371714Y7283039D01*
X78371714Y7283039D02*
X78371714Y7016372D01*
X78371714Y7016372D02*
X78333619Y6863991D01*
X78333619Y6863991D02*
X78257428Y6787800D01*
X78257428Y6787800D02*
X78181238Y6749705D01*
X78181238Y6749705D02*
X78028857Y6749705D01*
X78676475Y7473515D02*
X78714571Y7511610D01*
X78714571Y7511610D02*
X78790761Y7549705D01*
X78790761Y7549705D02*
X78981237Y7549705D01*
X78981237Y7549705D02*
X79057428Y7511610D01*
X79057428Y7511610D02*
X79095523Y7473515D01*
X79095523Y7473515D02*
X79133618Y7397324D01*
X79133618Y7397324D02*
X79133618Y7321134D01*
X79133618Y7321134D02*
X79095523Y7206848D01*
X79095523Y7206848D02*
X78638380Y6749705D01*
X78638380Y6749705D02*
X79133618Y6749705D01*
D11*
X50402895Y9772668D02*
X50021942Y9506001D01*
X50402895Y9315525D02*
X49602895Y9315525D01*
X49602895Y9315525D02*
X49602895Y9620287D01*
X49602895Y9620287D02*
X49640990Y9696477D01*
X49640990Y9696477D02*
X49679085Y9734572D01*
X49679085Y9734572D02*
X49755276Y9772668D01*
X49755276Y9772668D02*
X49869561Y9772668D01*
X49869561Y9772668D02*
X49945752Y9734572D01*
X49945752Y9734572D02*
X49983847Y9696477D01*
X49983847Y9696477D02*
X50021942Y9620287D01*
X50021942Y9620287D02*
X50021942Y9315525D01*
X49679085Y10077429D02*
X49640990Y10115525D01*
X49640990Y10115525D02*
X49602895Y10191715D01*
X49602895Y10191715D02*
X49602895Y10382191D01*
X49602895Y10382191D02*
X49640990Y10458382D01*
X49640990Y10458382D02*
X49679085Y10496477D01*
X49679085Y10496477D02*
X49755276Y10534572D01*
X49755276Y10534572D02*
X49831466Y10534572D01*
X49831466Y10534572D02*
X49945752Y10496477D01*
X49945752Y10496477D02*
X50402895Y10039334D01*
X50402895Y10039334D02*
X50402895Y10534572D01*
D10*
X61555333Y1323181D02*
X61222000Y1799372D01*
X60983905Y1323181D02*
X60983905Y2323181D01*
X60983905Y2323181D02*
X61364857Y2323181D01*
X61364857Y2323181D02*
X61460095Y2275562D01*
X61460095Y2275562D02*
X61507714Y2227943D01*
X61507714Y2227943D02*
X61555333Y2132705D01*
X61555333Y2132705D02*
X61555333Y1989848D01*
X61555333Y1989848D02*
X61507714Y1894610D01*
X61507714Y1894610D02*
X61460095Y1846991D01*
X61460095Y1846991D02*
X61364857Y1799372D01*
X61364857Y1799372D02*
X60983905Y1799372D01*
X62031524Y1323181D02*
X62222000Y1323181D01*
X62222000Y1323181D02*
X62317238Y1370800D01*
X62317238Y1370800D02*
X62364857Y1418420D01*
X62364857Y1418420D02*
X62460095Y1561277D01*
X62460095Y1561277D02*
X62507714Y1751753D01*
X62507714Y1751753D02*
X62507714Y2132705D01*
X62507714Y2132705D02*
X62460095Y2227943D01*
X62460095Y2227943D02*
X62412476Y2275562D01*
X62412476Y2275562D02*
X62317238Y2323181D01*
X62317238Y2323181D02*
X62126762Y2323181D01*
X62126762Y2323181D02*
X62031524Y2275562D01*
X62031524Y2275562D02*
X61983905Y2227943D01*
X61983905Y2227943D02*
X61936286Y2132705D01*
X61936286Y2132705D02*
X61936286Y1894610D01*
X61936286Y1894610D02*
X61983905Y1799372D01*
X61983905Y1799372D02*
X62031524Y1751753D01*
X62031524Y1751753D02*
X62126762Y1704134D01*
X62126762Y1704134D02*
X62317238Y1704134D01*
X62317238Y1704134D02*
X62412476Y1751753D01*
X62412476Y1751753D02*
X62460095Y1799372D01*
X62460095Y1799372D02*
X62507714Y1894610D01*
D11*
X57143667Y10379296D02*
X57105571Y10341200D01*
X57105571Y10341200D02*
X56991286Y10303105D01*
X56991286Y10303105D02*
X56915095Y10303105D01*
X56915095Y10303105D02*
X56800809Y10341200D01*
X56800809Y10341200D02*
X56724619Y10417391D01*
X56724619Y10417391D02*
X56686524Y10493581D01*
X56686524Y10493581D02*
X56648428Y10645962D01*
X56648428Y10645962D02*
X56648428Y10760248D01*
X56648428Y10760248D02*
X56686524Y10912629D01*
X56686524Y10912629D02*
X56724619Y10988820D01*
X56724619Y10988820D02*
X56800809Y11065010D01*
X56800809Y11065010D02*
X56915095Y11103105D01*
X56915095Y11103105D02*
X56991286Y11103105D01*
X56991286Y11103105D02*
X57105571Y11065010D01*
X57105571Y11065010D02*
X57143667Y11026915D01*
X57448428Y11026915D02*
X57486524Y11065010D01*
X57486524Y11065010D02*
X57562714Y11103105D01*
X57562714Y11103105D02*
X57753190Y11103105D01*
X57753190Y11103105D02*
X57829381Y11065010D01*
X57829381Y11065010D02*
X57867476Y11026915D01*
X57867476Y11026915D02*
X57905571Y10950724D01*
X57905571Y10950724D02*
X57905571Y10874534D01*
X57905571Y10874534D02*
X57867476Y10760248D01*
X57867476Y10760248D02*
X57410333Y10303105D01*
X57410333Y10303105D02*
X57905571Y10303105D01*
D10*
X48855333Y1037420D02*
X48807714Y989800D01*
X48807714Y989800D02*
X48664857Y942181D01*
X48664857Y942181D02*
X48569619Y942181D01*
X48569619Y942181D02*
X48426762Y989800D01*
X48426762Y989800D02*
X48331524Y1085039D01*
X48331524Y1085039D02*
X48283905Y1180277D01*
X48283905Y1180277D02*
X48236286Y1370753D01*
X48236286Y1370753D02*
X48236286Y1513610D01*
X48236286Y1513610D02*
X48283905Y1704086D01*
X48283905Y1704086D02*
X48331524Y1799324D01*
X48331524Y1799324D02*
X48426762Y1894562D01*
X48426762Y1894562D02*
X48569619Y1942181D01*
X48569619Y1942181D02*
X48664857Y1942181D01*
X48664857Y1942181D02*
X48807714Y1894562D01*
X48807714Y1894562D02*
X48855333Y1846943D01*
X49807714Y942181D02*
X49236286Y942181D01*
X49522000Y942181D02*
X49522000Y1942181D01*
X49522000Y1942181D02*
X49426762Y1799324D01*
X49426762Y1799324D02*
X49331524Y1704086D01*
X49331524Y1704086D02*
X49236286Y1656467D01*
X67335476Y14394705D02*
X67335476Y13747086D01*
X67335476Y13747086D02*
X67373571Y13670896D01*
X67373571Y13670896D02*
X67411666Y13632800D01*
X67411666Y13632800D02*
X67487857Y13594705D01*
X67487857Y13594705D02*
X67640238Y13594705D01*
X67640238Y13594705D02*
X67716428Y13632800D01*
X67716428Y13632800D02*
X67754523Y13670896D01*
X67754523Y13670896D02*
X67792619Y13747086D01*
X67792619Y13747086D02*
X67792619Y14394705D01*
X68097380Y14394705D02*
X68592618Y14394705D01*
X68592618Y14394705D02*
X68325952Y14089943D01*
X68325952Y14089943D02*
X68440237Y14089943D01*
X68440237Y14089943D02*
X68516428Y14051848D01*
X68516428Y14051848D02*
X68554523Y14013753D01*
X68554523Y14013753D02*
X68592618Y13937562D01*
X68592618Y13937562D02*
X68592618Y13747086D01*
X68592618Y13747086D02*
X68554523Y13670896D01*
X68554523Y13670896D02*
X68516428Y13632800D01*
X68516428Y13632800D02*
X68440237Y13594705D01*
X68440237Y13594705D02*
X68211666Y13594705D01*
X68211666Y13594705D02*
X68135475Y13632800D01*
X68135475Y13632800D02*
X68097380Y13670896D01*
X80369580Y7199334D02*
X80417200Y7151715D01*
X80417200Y7151715D02*
X80464819Y7008858D01*
X80464819Y7008858D02*
X80464819Y6913620D01*
X80464819Y6913620D02*
X80417200Y6770763D01*
X80417200Y6770763D02*
X80321961Y6675525D01*
X80321961Y6675525D02*
X80226723Y6627906D01*
X80226723Y6627906D02*
X80036247Y6580287D01*
X80036247Y6580287D02*
X79893390Y6580287D01*
X79893390Y6580287D02*
X79702914Y6627906D01*
X79702914Y6627906D02*
X79607676Y6675525D01*
X79607676Y6675525D02*
X79512438Y6770763D01*
X79512438Y6770763D02*
X79464819Y6913620D01*
X79464819Y6913620D02*
X79464819Y7008858D01*
X79464819Y7008858D02*
X79512438Y7151715D01*
X79512438Y7151715D02*
X79560057Y7199334D01*
X79464819Y7532668D02*
X79464819Y8199334D01*
X79464819Y8199334D02*
X80464819Y7770763D01*
X70953333Y815181D02*
X70620000Y1291372D01*
X70381905Y815181D02*
X70381905Y1815181D01*
X70381905Y1815181D02*
X70762857Y1815181D01*
X70762857Y1815181D02*
X70858095Y1767562D01*
X70858095Y1767562D02*
X70905714Y1719943D01*
X70905714Y1719943D02*
X70953333Y1624705D01*
X70953333Y1624705D02*
X70953333Y1481848D01*
X70953333Y1481848D02*
X70905714Y1386610D01*
X70905714Y1386610D02*
X70858095Y1338991D01*
X70858095Y1338991D02*
X70762857Y1291372D01*
X70762857Y1291372D02*
X70381905Y1291372D01*
X71810476Y1481848D02*
X71810476Y815181D01*
X71572381Y1862800D02*
X71334286Y1148515D01*
X71334286Y1148515D02*
X71953333Y1148515D01*
D11*
X74075704Y7486668D02*
X74113800Y7448572D01*
X74113800Y7448572D02*
X74151895Y7334287D01*
X74151895Y7334287D02*
X74151895Y7258096D01*
X74151895Y7258096D02*
X74113800Y7143810D01*
X74113800Y7143810D02*
X74037609Y7067620D01*
X74037609Y7067620D02*
X73961419Y7029525D01*
X73961419Y7029525D02*
X73809038Y6991429D01*
X73809038Y6991429D02*
X73694752Y6991429D01*
X73694752Y6991429D02*
X73542371Y7029525D01*
X73542371Y7029525D02*
X73466180Y7067620D01*
X73466180Y7067620D02*
X73389990Y7143810D01*
X73389990Y7143810D02*
X73351895Y7258096D01*
X73351895Y7258096D02*
X73351895Y7334287D01*
X73351895Y7334287D02*
X73389990Y7448572D01*
X73389990Y7448572D02*
X73428085Y7486668D01*
X73694752Y7943810D02*
X73656657Y7867620D01*
X73656657Y7867620D02*
X73618561Y7829525D01*
X73618561Y7829525D02*
X73542371Y7791429D01*
X73542371Y7791429D02*
X73504276Y7791429D01*
X73504276Y7791429D02*
X73428085Y7829525D01*
X73428085Y7829525D02*
X73389990Y7867620D01*
X73389990Y7867620D02*
X73351895Y7943810D01*
X73351895Y7943810D02*
X73351895Y8096191D01*
X73351895Y8096191D02*
X73389990Y8172382D01*
X73389990Y8172382D02*
X73428085Y8210477D01*
X73428085Y8210477D02*
X73504276Y8248572D01*
X73504276Y8248572D02*
X73542371Y8248572D01*
X73542371Y8248572D02*
X73618561Y8210477D01*
X73618561Y8210477D02*
X73656657Y8172382D01*
X73656657Y8172382D02*
X73694752Y8096191D01*
X73694752Y8096191D02*
X73694752Y7943810D01*
X73694752Y7943810D02*
X73732847Y7867620D01*
X73732847Y7867620D02*
X73770942Y7829525D01*
X73770942Y7829525D02*
X73847133Y7791429D01*
X73847133Y7791429D02*
X73999514Y7791429D01*
X73999514Y7791429D02*
X74075704Y7829525D01*
X74075704Y7829525D02*
X74113800Y7867620D01*
X74113800Y7867620D02*
X74151895Y7943810D01*
X74151895Y7943810D02*
X74151895Y8096191D01*
X74151895Y8096191D02*
X74113800Y8172382D01*
X74113800Y8172382D02*
X74075704Y8210477D01*
X74075704Y8210477D02*
X73999514Y8248572D01*
X73999514Y8248572D02*
X73847133Y8248572D01*
X73847133Y8248572D02*
X73770942Y8210477D01*
X73770942Y8210477D02*
X73732847Y8172382D01*
X73732847Y8172382D02*
X73694752Y8096191D01*
X51428667Y5223105D02*
X51162000Y5604058D01*
X50971524Y5223105D02*
X50971524Y6023105D01*
X50971524Y6023105D02*
X51276286Y6023105D01*
X51276286Y6023105D02*
X51352476Y5985010D01*
X51352476Y5985010D02*
X51390571Y5946915D01*
X51390571Y5946915D02*
X51428667Y5870724D01*
X51428667Y5870724D02*
X51428667Y5756439D01*
X51428667Y5756439D02*
X51390571Y5680248D01*
X51390571Y5680248D02*
X51352476Y5642153D01*
X51352476Y5642153D02*
X51276286Y5604058D01*
X51276286Y5604058D02*
X50971524Y5604058D01*
X51695333Y6023105D02*
X52190571Y6023105D01*
X52190571Y6023105D02*
X51923905Y5718343D01*
X51923905Y5718343D02*
X52038190Y5718343D01*
X52038190Y5718343D02*
X52114381Y5680248D01*
X52114381Y5680248D02*
X52152476Y5642153D01*
X52152476Y5642153D02*
X52190571Y5565962D01*
X52190571Y5565962D02*
X52190571Y5375486D01*
X52190571Y5375486D02*
X52152476Y5299296D01*
X52152476Y5299296D02*
X52114381Y5261200D01*
X52114381Y5261200D02*
X52038190Y5223105D01*
X52038190Y5223105D02*
X51809619Y5223105D01*
X51809619Y5223105D02*
X51733428Y5261200D01*
X51733428Y5261200D02*
X51695333Y5299296D01*
D10*
X67270333Y4371181D02*
X66937000Y4847372D01*
X66698905Y4371181D02*
X66698905Y5371181D01*
X66698905Y5371181D02*
X67079857Y5371181D01*
X67079857Y5371181D02*
X67175095Y5323562D01*
X67175095Y5323562D02*
X67222714Y5275943D01*
X67222714Y5275943D02*
X67270333Y5180705D01*
X67270333Y5180705D02*
X67270333Y5037848D01*
X67270333Y5037848D02*
X67222714Y4942610D01*
X67222714Y4942610D02*
X67175095Y4894991D01*
X67175095Y4894991D02*
X67079857Y4847372D01*
X67079857Y4847372D02*
X66698905Y4847372D01*
X68175095Y5371181D02*
X67698905Y5371181D01*
X67698905Y5371181D02*
X67651286Y4894991D01*
X67651286Y4894991D02*
X67698905Y4942610D01*
X67698905Y4942610D02*
X67794143Y4990229D01*
X67794143Y4990229D02*
X68032238Y4990229D01*
X68032238Y4990229D02*
X68127476Y4942610D01*
X68127476Y4942610D02*
X68175095Y4894991D01*
X68175095Y4894991D02*
X68222714Y4799753D01*
X68222714Y4799753D02*
X68222714Y4561658D01*
X68222714Y4561658D02*
X68175095Y4466420D01*
X68175095Y4466420D02*
X68127476Y4418800D01*
X68127476Y4418800D02*
X68032238Y4371181D01*
X68032238Y4371181D02*
X67794143Y4371181D01*
X67794143Y4371181D02*
X67698905Y4418800D01*
X67698905Y4418800D02*
X67651286Y4466420D01*
X86804667Y-23394200D02*
X86947524Y-23441819D01*
X86947524Y-23441819D02*
X87185619Y-23441819D01*
X87185619Y-23441819D02*
X87280857Y-23394200D01*
X87280857Y-23394200D02*
X87328476Y-23346580D01*
X87328476Y-23346580D02*
X87376095Y-23251342D01*
X87376095Y-23251342D02*
X87376095Y-23156104D01*
X87376095Y-23156104D02*
X87328476Y-23060866D01*
X87328476Y-23060866D02*
X87280857Y-23013247D01*
X87280857Y-23013247D02*
X87185619Y-22965628D01*
X87185619Y-22965628D02*
X86995143Y-22918009D01*
X86995143Y-22918009D02*
X86899905Y-22870390D01*
X86899905Y-22870390D02*
X86852286Y-22822771D01*
X86852286Y-22822771D02*
X86804667Y-22727533D01*
X86804667Y-22727533D02*
X86804667Y-22632295D01*
X86804667Y-22632295D02*
X86852286Y-22537057D01*
X86852286Y-22537057D02*
X86899905Y-22489438D01*
X86899905Y-22489438D02*
X86995143Y-22441819D01*
X86995143Y-22441819D02*
X87233238Y-22441819D01*
X87233238Y-22441819D02*
X87376095Y-22489438D01*
X87709429Y-22441819D02*
X87947524Y-23441819D01*
X87947524Y-23441819D02*
X88138000Y-22727533D01*
X88138000Y-22727533D02*
X88328476Y-23441819D01*
X88328476Y-23441819D02*
X88566572Y-22441819D01*
X89423714Y-22441819D02*
X88947524Y-22441819D01*
X88947524Y-22441819D02*
X88899905Y-22918009D01*
X88899905Y-22918009D02*
X88947524Y-22870390D01*
X88947524Y-22870390D02*
X89042762Y-22822771D01*
X89042762Y-22822771D02*
X89280857Y-22822771D01*
X89280857Y-22822771D02*
X89376095Y-22870390D01*
X89376095Y-22870390D02*
X89423714Y-22918009D01*
X89423714Y-22918009D02*
X89471333Y-23013247D01*
X89471333Y-23013247D02*
X89471333Y-23251342D01*
X89471333Y-23251342D02*
X89423714Y-23346580D01*
X89423714Y-23346580D02*
X89376095Y-23394200D01*
X89376095Y-23394200D02*
X89280857Y-23441819D01*
X89280857Y-23441819D02*
X89042762Y-23441819D01*
X89042762Y-23441819D02*
X88947524Y-23394200D01*
X88947524Y-23394200D02*
X88899905Y-23346580D01*
D11*
X62350667Y10303105D02*
X62084000Y10684058D01*
X61893524Y10303105D02*
X61893524Y11103105D01*
X61893524Y11103105D02*
X62198286Y11103105D01*
X62198286Y11103105D02*
X62274476Y11065010D01*
X62274476Y11065010D02*
X62312571Y11026915D01*
X62312571Y11026915D02*
X62350667Y10950724D01*
X62350667Y10950724D02*
X62350667Y10836439D01*
X62350667Y10836439D02*
X62312571Y10760248D01*
X62312571Y10760248D02*
X62274476Y10722153D01*
X62274476Y10722153D02*
X62198286Y10684058D01*
X62198286Y10684058D02*
X61893524Y10684058D01*
X63036381Y11103105D02*
X62884000Y11103105D01*
X62884000Y11103105D02*
X62807809Y11065010D01*
X62807809Y11065010D02*
X62769714Y11026915D01*
X62769714Y11026915D02*
X62693524Y10912629D01*
X62693524Y10912629D02*
X62655428Y10760248D01*
X62655428Y10760248D02*
X62655428Y10455486D01*
X62655428Y10455486D02*
X62693524Y10379296D01*
X62693524Y10379296D02*
X62731619Y10341200D01*
X62731619Y10341200D02*
X62807809Y10303105D01*
X62807809Y10303105D02*
X62960190Y10303105D01*
X62960190Y10303105D02*
X63036381Y10341200D01*
X63036381Y10341200D02*
X63074476Y10379296D01*
X63074476Y10379296D02*
X63112571Y10455486D01*
X63112571Y10455486D02*
X63112571Y10645962D01*
X63112571Y10645962D02*
X63074476Y10722153D01*
X63074476Y10722153D02*
X63036381Y10760248D01*
X63036381Y10760248D02*
X62960190Y10798343D01*
X62960190Y10798343D02*
X62807809Y10798343D01*
X62807809Y10798343D02*
X62731619Y10760248D01*
X62731619Y10760248D02*
X62693524Y10722153D01*
X62693524Y10722153D02*
X62655428Y10645962D01*
D10*
X84582095Y13470181D02*
X84582095Y12660658D01*
X84582095Y12660658D02*
X84629714Y12565420D01*
X84629714Y12565420D02*
X84677333Y12517800D01*
X84677333Y12517800D02*
X84772571Y12470181D01*
X84772571Y12470181D02*
X84963047Y12470181D01*
X84963047Y12470181D02*
X85058285Y12517800D01*
X85058285Y12517800D02*
X85105904Y12565420D01*
X85105904Y12565420D02*
X85153523Y12660658D01*
X85153523Y12660658D02*
X85153523Y13470181D01*
X86105904Y13470181D02*
X85629714Y13470181D01*
X85629714Y13470181D02*
X85582095Y12993991D01*
X85582095Y12993991D02*
X85629714Y13041610D01*
X85629714Y13041610D02*
X85724952Y13089229D01*
X85724952Y13089229D02*
X85963047Y13089229D01*
X85963047Y13089229D02*
X86058285Y13041610D01*
X86058285Y13041610D02*
X86105904Y12993991D01*
X86105904Y12993991D02*
X86153523Y12898753D01*
X86153523Y12898753D02*
X86153523Y12660658D01*
X86153523Y12660658D02*
X86105904Y12565420D01*
X86105904Y12565420D02*
X86058285Y12517800D01*
X86058285Y12517800D02*
X85963047Y12470181D01*
X85963047Y12470181D02*
X85724952Y12470181D01*
X85724952Y12470181D02*
X85629714Y12517800D01*
X85629714Y12517800D02*
X85582095Y12565420D01*
X55205333Y2593181D02*
X54872000Y3069372D01*
X54633905Y2593181D02*
X54633905Y3593181D01*
X54633905Y3593181D02*
X55014857Y3593181D01*
X55014857Y3593181D02*
X55110095Y3545562D01*
X55110095Y3545562D02*
X55157714Y3497943D01*
X55157714Y3497943D02*
X55205333Y3402705D01*
X55205333Y3402705D02*
X55205333Y3259848D01*
X55205333Y3259848D02*
X55157714Y3164610D01*
X55157714Y3164610D02*
X55110095Y3116991D01*
X55110095Y3116991D02*
X55014857Y3069372D01*
X55014857Y3069372D02*
X54633905Y3069372D01*
X56157714Y2593181D02*
X55586286Y2593181D01*
X55872000Y2593181D02*
X55872000Y3593181D01*
X55872000Y3593181D02*
X55776762Y3450324D01*
X55776762Y3450324D02*
X55681524Y3355086D01*
X55681524Y3355086D02*
X55586286Y3307467D01*
X98615667Y-14733200D02*
X98758524Y-14780819D01*
X98758524Y-14780819D02*
X98996619Y-14780819D01*
X98996619Y-14780819D02*
X99091857Y-14733200D01*
X99091857Y-14733200D02*
X99139476Y-14685580D01*
X99139476Y-14685580D02*
X99187095Y-14590342D01*
X99187095Y-14590342D02*
X99187095Y-14495104D01*
X99187095Y-14495104D02*
X99139476Y-14399866D01*
X99139476Y-14399866D02*
X99091857Y-14352247D01*
X99091857Y-14352247D02*
X98996619Y-14304628D01*
X98996619Y-14304628D02*
X98806143Y-14257009D01*
X98806143Y-14257009D02*
X98710905Y-14209390D01*
X98710905Y-14209390D02*
X98663286Y-14161771D01*
X98663286Y-14161771D02*
X98615667Y-14066533D01*
X98615667Y-14066533D02*
X98615667Y-13971295D01*
X98615667Y-13971295D02*
X98663286Y-13876057D01*
X98663286Y-13876057D02*
X98710905Y-13828438D01*
X98710905Y-13828438D02*
X98806143Y-13780819D01*
X98806143Y-13780819D02*
X99044238Y-13780819D01*
X99044238Y-13780819D02*
X99187095Y-13828438D01*
X99520429Y-13780819D02*
X99758524Y-14780819D01*
X99758524Y-14780819D02*
X99949000Y-14066533D01*
X99949000Y-14066533D02*
X100139476Y-14780819D01*
X100139476Y-14780819D02*
X100377572Y-13780819D01*
X100663286Y-13780819D02*
X101282333Y-13780819D01*
X101282333Y-13780819D02*
X100949000Y-14161771D01*
X100949000Y-14161771D02*
X101091857Y-14161771D01*
X101091857Y-14161771D02*
X101187095Y-14209390D01*
X101187095Y-14209390D02*
X101234714Y-14257009D01*
X101234714Y-14257009D02*
X101282333Y-14352247D01*
X101282333Y-14352247D02*
X101282333Y-14590342D01*
X101282333Y-14590342D02*
X101234714Y-14685580D01*
X101234714Y-14685580D02*
X101187095Y-14733200D01*
X101187095Y-14733200D02*
X101091857Y-14780819D01*
X101091857Y-14780819D02*
X100806143Y-14780819D01*
X100806143Y-14780819D02*
X100710905Y-14733200D01*
X100710905Y-14733200D02*
X100663286Y-14685580D01*
D11*
X65906667Y9795105D02*
X65640000Y10176058D01*
X65449524Y9795105D02*
X65449524Y10595105D01*
X65449524Y10595105D02*
X65754286Y10595105D01*
X65754286Y10595105D02*
X65830476Y10557010D01*
X65830476Y10557010D02*
X65868571Y10518915D01*
X65868571Y10518915D02*
X65906667Y10442724D01*
X65906667Y10442724D02*
X65906667Y10328439D01*
X65906667Y10328439D02*
X65868571Y10252248D01*
X65868571Y10252248D02*
X65830476Y10214153D01*
X65830476Y10214153D02*
X65754286Y10176058D01*
X65754286Y10176058D02*
X65449524Y10176058D01*
X66173333Y10595105D02*
X66706667Y10595105D01*
X66706667Y10595105D02*
X66363809Y9795105D01*
X77580895Y9010668D02*
X77199942Y8744001D01*
X77580895Y8553525D02*
X76780895Y8553525D01*
X76780895Y8553525D02*
X76780895Y8858287D01*
X76780895Y8858287D02*
X76818990Y8934477D01*
X76818990Y8934477D02*
X76857085Y8972572D01*
X76857085Y8972572D02*
X76933276Y9010668D01*
X76933276Y9010668D02*
X77047561Y9010668D01*
X77047561Y9010668D02*
X77123752Y8972572D01*
X77123752Y8972572D02*
X77161847Y8934477D01*
X77161847Y8934477D02*
X77199942Y8858287D01*
X77199942Y8858287D02*
X77199942Y8553525D01*
X77123752Y9467810D02*
X77085657Y9391620D01*
X77085657Y9391620D02*
X77047561Y9353525D01*
X77047561Y9353525D02*
X76971371Y9315429D01*
X76971371Y9315429D02*
X76933276Y9315429D01*
X76933276Y9315429D02*
X76857085Y9353525D01*
X76857085Y9353525D02*
X76818990Y9391620D01*
X76818990Y9391620D02*
X76780895Y9467810D01*
X76780895Y9467810D02*
X76780895Y9620191D01*
X76780895Y9620191D02*
X76818990Y9696382D01*
X76818990Y9696382D02*
X76857085Y9734477D01*
X76857085Y9734477D02*
X76933276Y9772572D01*
X76933276Y9772572D02*
X76971371Y9772572D01*
X76971371Y9772572D02*
X77047561Y9734477D01*
X77047561Y9734477D02*
X77085657Y9696382D01*
X77085657Y9696382D02*
X77123752Y9620191D01*
X77123752Y9620191D02*
X77123752Y9467810D01*
X77123752Y9467810D02*
X77161847Y9391620D01*
X77161847Y9391620D02*
X77199942Y9353525D01*
X77199942Y9353525D02*
X77276133Y9315429D01*
X77276133Y9315429D02*
X77428514Y9315429D01*
X77428514Y9315429D02*
X77504704Y9353525D01*
X77504704Y9353525D02*
X77542800Y9391620D01*
X77542800Y9391620D02*
X77580895Y9467810D01*
X77580895Y9467810D02*
X77580895Y9620191D01*
X77580895Y9620191D02*
X77542800Y9696382D01*
X77542800Y9696382D02*
X77504704Y9734477D01*
X77504704Y9734477D02*
X77428514Y9772572D01*
X77428514Y9772572D02*
X77276133Y9772572D01*
X77276133Y9772572D02*
X77199942Y9734477D01*
X77199942Y9734477D02*
X77161847Y9696382D01*
X77161847Y9696382D02*
X77123752Y9620191D01*
D10*
X97282095Y-978819D02*
X97282095Y-1788342D01*
X97282095Y-1788342D02*
X97329714Y-1883580D01*
X97329714Y-1883580D02*
X97377333Y-1931200D01*
X97377333Y-1931200D02*
X97472571Y-1978819D01*
X97472571Y-1978819D02*
X97663047Y-1978819D01*
X97663047Y-1978819D02*
X97758285Y-1931200D01*
X97758285Y-1931200D02*
X97805904Y-1883580D01*
X97805904Y-1883580D02*
X97853523Y-1788342D01*
X97853523Y-1788342D02*
X97853523Y-978819D01*
X98282095Y-1074057D02*
X98329714Y-1026438D01*
X98329714Y-1026438D02*
X98424952Y-978819D01*
X98424952Y-978819D02*
X98663047Y-978819D01*
X98663047Y-978819D02*
X98758285Y-1026438D01*
X98758285Y-1026438D02*
X98805904Y-1074057D01*
X98805904Y-1074057D02*
X98853523Y-1169295D01*
X98853523Y-1169295D02*
X98853523Y-1264533D01*
X98853523Y-1264533D02*
X98805904Y-1407390D01*
X98805904Y-1407390D02*
X98234476Y-1978819D01*
X98234476Y-1978819D02*
X98853523Y-1978819D01*
X78422667Y-23394200D02*
X78565524Y-23441819D01*
X78565524Y-23441819D02*
X78803619Y-23441819D01*
X78803619Y-23441819D02*
X78898857Y-23394200D01*
X78898857Y-23394200D02*
X78946476Y-23346580D01*
X78946476Y-23346580D02*
X78994095Y-23251342D01*
X78994095Y-23251342D02*
X78994095Y-23156104D01*
X78994095Y-23156104D02*
X78946476Y-23060866D01*
X78946476Y-23060866D02*
X78898857Y-23013247D01*
X78898857Y-23013247D02*
X78803619Y-22965628D01*
X78803619Y-22965628D02*
X78613143Y-22918009D01*
X78613143Y-22918009D02*
X78517905Y-22870390D01*
X78517905Y-22870390D02*
X78470286Y-22822771D01*
X78470286Y-22822771D02*
X78422667Y-22727533D01*
X78422667Y-22727533D02*
X78422667Y-22632295D01*
X78422667Y-22632295D02*
X78470286Y-22537057D01*
X78470286Y-22537057D02*
X78517905Y-22489438D01*
X78517905Y-22489438D02*
X78613143Y-22441819D01*
X78613143Y-22441819D02*
X78851238Y-22441819D01*
X78851238Y-22441819D02*
X78994095Y-22489438D01*
X79327429Y-22441819D02*
X79565524Y-23441819D01*
X79565524Y-23441819D02*
X79756000Y-22727533D01*
X79756000Y-22727533D02*
X79946476Y-23441819D01*
X79946476Y-23441819D02*
X80184572Y-22441819D01*
X80517905Y-22537057D02*
X80565524Y-22489438D01*
X80565524Y-22489438D02*
X80660762Y-22441819D01*
X80660762Y-22441819D02*
X80898857Y-22441819D01*
X80898857Y-22441819D02*
X80994095Y-22489438D01*
X80994095Y-22489438D02*
X81041714Y-22537057D01*
X81041714Y-22537057D02*
X81089333Y-22632295D01*
X81089333Y-22632295D02*
X81089333Y-22727533D01*
X81089333Y-22727533D02*
X81041714Y-22870390D01*
X81041714Y-22870390D02*
X80470286Y-23441819D01*
X80470286Y-23441819D02*
X81089333Y-23441819D01*
X74001333Y1926420D02*
X73953714Y1878800D01*
X73953714Y1878800D02*
X73810857Y1831181D01*
X73810857Y1831181D02*
X73715619Y1831181D01*
X73715619Y1831181D02*
X73572762Y1878800D01*
X73572762Y1878800D02*
X73477524Y1974039D01*
X73477524Y1974039D02*
X73429905Y2069277D01*
X73429905Y2069277D02*
X73382286Y2259753D01*
X73382286Y2259753D02*
X73382286Y2402610D01*
X73382286Y2402610D02*
X73429905Y2593086D01*
X73429905Y2593086D02*
X73477524Y2688324D01*
X73477524Y2688324D02*
X73572762Y2783562D01*
X73572762Y2783562D02*
X73715619Y2831181D01*
X73715619Y2831181D02*
X73810857Y2831181D01*
X73810857Y2831181D02*
X73953714Y2783562D01*
X73953714Y2783562D02*
X74001333Y2735943D01*
X74477524Y1831181D02*
X74668000Y1831181D01*
X74668000Y1831181D02*
X74763238Y1878800D01*
X74763238Y1878800D02*
X74810857Y1926420D01*
X74810857Y1926420D02*
X74906095Y2069277D01*
X74906095Y2069277D02*
X74953714Y2259753D01*
X74953714Y2259753D02*
X74953714Y2640705D01*
X74953714Y2640705D02*
X74906095Y2735943D01*
X74906095Y2735943D02*
X74858476Y2783562D01*
X74858476Y2783562D02*
X74763238Y2831181D01*
X74763238Y2831181D02*
X74572762Y2831181D01*
X74572762Y2831181D02*
X74477524Y2783562D01*
X74477524Y2783562D02*
X74429905Y2735943D01*
X74429905Y2735943D02*
X74382286Y2640705D01*
X74382286Y2640705D02*
X74382286Y2402610D01*
X74382286Y2402610D02*
X74429905Y2307372D01*
X74429905Y2307372D02*
X74477524Y2259753D01*
X74477524Y2259753D02*
X74572762Y2212134D01*
X74572762Y2212134D02*
X74763238Y2212134D01*
X74763238Y2212134D02*
X74858476Y2259753D01*
X74858476Y2259753D02*
X74906095Y2307372D01*
X74906095Y2307372D02*
X74953714Y2402610D01*
X98615667Y-21317200D02*
X98758524Y-21364819D01*
X98758524Y-21364819D02*
X98996619Y-21364819D01*
X98996619Y-21364819D02*
X99091857Y-21317200D01*
X99091857Y-21317200D02*
X99139476Y-21269580D01*
X99139476Y-21269580D02*
X99187095Y-21174342D01*
X99187095Y-21174342D02*
X99187095Y-21079104D01*
X99187095Y-21079104D02*
X99139476Y-20983866D01*
X99139476Y-20983866D02*
X99091857Y-20936247D01*
X99091857Y-20936247D02*
X98996619Y-20888628D01*
X98996619Y-20888628D02*
X98806143Y-20841009D01*
X98806143Y-20841009D02*
X98710905Y-20793390D01*
X98710905Y-20793390D02*
X98663286Y-20745771D01*
X98663286Y-20745771D02*
X98615667Y-20650533D01*
X98615667Y-20650533D02*
X98615667Y-20555295D01*
X98615667Y-20555295D02*
X98663286Y-20460057D01*
X98663286Y-20460057D02*
X98710905Y-20412438D01*
X98710905Y-20412438D02*
X98806143Y-20364819D01*
X98806143Y-20364819D02*
X99044238Y-20364819D01*
X99044238Y-20364819D02*
X99187095Y-20412438D01*
X99520429Y-20364819D02*
X99758524Y-21364819D01*
X99758524Y-21364819D02*
X99949000Y-20650533D01*
X99949000Y-20650533D02*
X100139476Y-21364819D01*
X100139476Y-21364819D02*
X100377572Y-20364819D01*
X101187095Y-20698152D02*
X101187095Y-21364819D01*
X100949000Y-20317200D02*
X100710905Y-21031485D01*
X100710905Y-21031485D02*
X101329952Y-21031485D01*
X76123809Y13785515D02*
X76047619Y13823610D01*
X76047619Y13823610D02*
X75971428Y13899800D01*
X75971428Y13899800D02*
X75857142Y14014086D01*
X75857142Y14014086D02*
X75780952Y14052181D01*
X75780952Y14052181D02*
X75704761Y14052181D01*
X75742857Y13861705D02*
X75666666Y13899800D01*
X75666666Y13899800D02*
X75590476Y13975991D01*
X75590476Y13975991D02*
X75552380Y14128372D01*
X75552380Y14128372D02*
X75552380Y14395039D01*
X75552380Y14395039D02*
X75590476Y14547420D01*
X75590476Y14547420D02*
X75666666Y14623610D01*
X75666666Y14623610D02*
X75742857Y14661705D01*
X75742857Y14661705D02*
X75895238Y14661705D01*
X75895238Y14661705D02*
X75971428Y14623610D01*
X75971428Y14623610D02*
X76047619Y14547420D01*
X76047619Y14547420D02*
X76085714Y14395039D01*
X76085714Y14395039D02*
X76085714Y14128372D01*
X76085714Y14128372D02*
X76047619Y13975991D01*
X76047619Y13975991D02*
X75971428Y13899800D01*
X75971428Y13899800D02*
X75895238Y13861705D01*
X75895238Y13861705D02*
X75742857Y13861705D01*
X76847618Y13861705D02*
X76390475Y13861705D01*
X76619047Y13861705D02*
X76619047Y14661705D01*
X76619047Y14661705D02*
X76542856Y14547420D01*
X76542856Y14547420D02*
X76466666Y14471229D01*
X76466666Y14471229D02*
X76390475Y14433134D01*
X59944095Y-11780819D02*
X59944095Y-12590342D01*
X59944095Y-12590342D02*
X59991714Y-12685580D01*
X59991714Y-12685580D02*
X60039333Y-12733200D01*
X60039333Y-12733200D02*
X60134571Y-12780819D01*
X60134571Y-12780819D02*
X60325047Y-12780819D01*
X60325047Y-12780819D02*
X60420285Y-12733200D01*
X60420285Y-12733200D02*
X60467904Y-12685580D01*
X60467904Y-12685580D02*
X60515523Y-12590342D01*
X60515523Y-12590342D02*
X60515523Y-11780819D01*
X61420285Y-11780819D02*
X61229809Y-11780819D01*
X61229809Y-11780819D02*
X61134571Y-11828438D01*
X61134571Y-11828438D02*
X61086952Y-11876057D01*
X61086952Y-11876057D02*
X60991714Y-12018914D01*
X60991714Y-12018914D02*
X60944095Y-12209390D01*
X60944095Y-12209390D02*
X60944095Y-12590342D01*
X60944095Y-12590342D02*
X60991714Y-12685580D01*
X60991714Y-12685580D02*
X61039333Y-12733200D01*
X61039333Y-12733200D02*
X61134571Y-12780819D01*
X61134571Y-12780819D02*
X61325047Y-12780819D01*
X61325047Y-12780819D02*
X61420285Y-12733200D01*
X61420285Y-12733200D02*
X61467904Y-12685580D01*
X61467904Y-12685580D02*
X61515523Y-12590342D01*
X61515523Y-12590342D02*
X61515523Y-12352247D01*
X61515523Y-12352247D02*
X61467904Y-12257009D01*
X61467904Y-12257009D02*
X61420285Y-12209390D01*
X61420285Y-12209390D02*
X61325047Y-12161771D01*
X61325047Y-12161771D02*
X61134571Y-12161771D01*
X61134571Y-12161771D02*
X61039333Y-12209390D01*
X61039333Y-12209390D02*
X60991714Y-12257009D01*
X60991714Y-12257009D02*
X60944095Y-12352247D01*
X100612295Y2623334D02*
X101183723Y2623334D01*
X101183723Y2623334D02*
X101298009Y2585239D01*
X101298009Y2585239D02*
X101374200Y2509048D01*
X101374200Y2509048D02*
X101412295Y2394763D01*
X101412295Y2394763D02*
X101412295Y2318572D01*
X101412295Y3423334D02*
X101412295Y2966191D01*
X101412295Y3194763D02*
X100612295Y3194763D01*
X100612295Y3194763D02*
X100726580Y3118572D01*
X100726580Y3118572D02*
X100802771Y3042382D01*
X100802771Y3042382D02*
X100840866Y2966191D01*
D12*
X74785000Y8949000D02*
X70785000Y8949000D01*
X74785000Y13149000D02*
X70785000Y13149000D01*
X71126748Y6196000D02*
X71649252Y6196000D01*
X71126748Y4726000D02*
X71649252Y4726000D01*
X61749000Y8990000D02*
X62209000Y8990000D01*
X61749000Y8780000D02*
X61749000Y8990000D01*
X61749000Y6460000D02*
X61749000Y6250000D01*
X64489000Y8990000D02*
X64029000Y8990000D01*
X64489000Y8780000D02*
X64489000Y8990000D01*
X64489000Y6460000D02*
X64489000Y6250000D01*
X64489000Y6250000D02*
X64029000Y6250000D01*
D13*
X61619000Y5920000D02*
G75*
G03*
X61619000Y5920000I-100000J0D01*
G01*
D12*
X54744252Y8409000D02*
X54221748Y8409000D01*
X54744252Y9879000D02*
X54221748Y9879000D01*
X80424000Y-3600000D02*
X87724000Y-3600000D01*
X80424000Y-9100000D02*
X87724000Y-9100000D01*
X87724000Y-9100000D02*
X87724000Y-7950000D01*
X83009000Y1540000D02*
X83009000Y3540000D01*
X83009000Y1540000D02*
X79009000Y1540000D01*
X83009000Y1640000D02*
X82159000Y1640000D01*
X83009000Y1740000D02*
X82159000Y1740000D01*
X83009000Y1840000D02*
X82159000Y1840000D01*
X83009000Y3240000D02*
X82159000Y3240000D01*
X83009000Y3340000D02*
X82159000Y3340000D01*
X83009000Y3440000D02*
X82159000Y3440000D01*
X83009000Y3540000D02*
X79009000Y3540000D01*
X82909000Y1540000D02*
X82909000Y3540000D01*
X82159000Y1540000D02*
X82159000Y1840000D01*
X82159000Y3240000D02*
X82159000Y3540000D01*
X53000000Y12819748D02*
X53000000Y13342252D01*
X54470000Y12819748D02*
X54470000Y13342252D01*
X59574000Y9230000D02*
X57124000Y9230000D01*
X57774000Y6010000D02*
X59574000Y6010000D01*
D13*
X57224000Y9320000D02*
G75*
G03*
X57224000Y9320000I-150000J0D01*
G01*
D12*
X54744252Y5361000D02*
X54221748Y5361000D01*
X54744252Y6831000D02*
X54221748Y6831000D01*
X75318000Y-20133500D02*
X76701000Y-20133500D01*
X75318000Y-20133500D02*
X75318000Y-18749500D01*
X75558000Y-19893500D02*
X93098000Y-19893500D01*
X75558000Y-19893500D02*
X75558000Y-9993500D01*
X93098000Y-19893500D02*
X93098000Y-9993500D01*
X77343000Y-16973500D02*
X78613000Y-16973500D01*
X77463000Y-16973500D02*
X77463000Y-15620167D01*
X77583000Y-16973500D02*
X77583000Y-15620167D01*
X77703000Y-16973500D02*
X77703000Y-15620167D01*
X77823000Y-16973500D02*
X77823000Y-15620167D01*
X77943000Y-16973500D02*
X77943000Y-15620167D01*
X78063000Y-16973500D02*
X78063000Y-15620167D01*
X78183000Y-16973500D02*
X78183000Y-15620167D01*
X78303000Y-16973500D02*
X78303000Y-15620167D01*
X78423000Y-16973500D02*
X78423000Y-15620167D01*
X78543000Y-16973500D02*
X78543000Y-15620167D01*
X78613000Y-16973500D02*
X78613000Y-12913500D01*
X79883000Y-16973500D02*
X81153000Y-16973500D01*
X80003000Y-16973500D02*
X80003000Y-15620167D01*
X80123000Y-16973500D02*
X80123000Y-15620167D01*
X80243000Y-16973500D02*
X80243000Y-15620167D01*
X80363000Y-16973500D02*
X80363000Y-15620167D01*
X80483000Y-16973500D02*
X80483000Y-15620167D01*
X80603000Y-16973500D02*
X80603000Y-15620167D01*
X80723000Y-16973500D02*
X80723000Y-15620167D01*
X80843000Y-16973500D02*
X80843000Y-15620167D01*
X80963000Y-16973500D02*
X80963000Y-15620167D01*
X81083000Y-16973500D02*
X81083000Y-15620167D01*
X81153000Y-16973500D02*
X81153000Y-12913500D01*
X82423000Y-16973500D02*
X83693000Y-16973500D01*
X82543000Y-16973500D02*
X82543000Y-15620167D01*
X82663000Y-16973500D02*
X82663000Y-15620167D01*
X82783000Y-16973500D02*
X82783000Y-15620167D01*
X82903000Y-16973500D02*
X82903000Y-15620167D01*
X83023000Y-16973500D02*
X83023000Y-15620167D01*
X83143000Y-16973500D02*
X83143000Y-15620167D01*
X83263000Y-16973500D02*
X83263000Y-15620167D01*
X83383000Y-16973500D02*
X83383000Y-15620167D01*
X83503000Y-16973500D02*
X83503000Y-15620167D01*
X83623000Y-16973500D02*
X83623000Y-15620167D01*
X83693000Y-16973500D02*
X83693000Y-12913500D01*
X84963000Y-16973500D02*
X86233000Y-16973500D01*
X85083000Y-16973500D02*
X85083000Y-15620167D01*
X85203000Y-16973500D02*
X85203000Y-15620167D01*
X85323000Y-16973500D02*
X85323000Y-15620167D01*
X85443000Y-16973500D02*
X85443000Y-15620167D01*
X85563000Y-16973500D02*
X85563000Y-15620167D01*
X85683000Y-16973500D02*
X85683000Y-15620167D01*
X85803000Y-16973500D02*
X85803000Y-15620167D01*
X85923000Y-16973500D02*
X85923000Y-15620167D01*
X86043000Y-16973500D02*
X86043000Y-15620167D01*
X86163000Y-16973500D02*
X86163000Y-15620167D01*
X86233000Y-16973500D02*
X86233000Y-12913500D01*
X87503000Y-16973500D02*
X88773000Y-16973500D01*
X87623000Y-16973500D02*
X87623000Y-15620167D01*
X87743000Y-16973500D02*
X87743000Y-15620167D01*
X87863000Y-16973500D02*
X87863000Y-15620167D01*
X87983000Y-16973500D02*
X87983000Y-15620167D01*
X88103000Y-16973500D02*
X88103000Y-15620167D01*
X88223000Y-16973500D02*
X88223000Y-15620167D01*
X88343000Y-16973500D02*
X88343000Y-15620167D01*
X88463000Y-16973500D02*
X88463000Y-15620167D01*
X88583000Y-16973500D02*
X88583000Y-15620167D01*
X88703000Y-16973500D02*
X88703000Y-15620167D01*
X88773000Y-16973500D02*
X88773000Y-12913500D01*
X90043000Y-16973500D02*
X91313000Y-16973500D01*
X90163000Y-16973500D02*
X90163000Y-15620167D01*
X90283000Y-16973500D02*
X90283000Y-15620167D01*
X90403000Y-16973500D02*
X90403000Y-15620167D01*
X90523000Y-16973500D02*
X90523000Y-15620167D01*
X90643000Y-16973500D02*
X90643000Y-15620167D01*
X90763000Y-16973500D02*
X90763000Y-15620167D01*
X90883000Y-16973500D02*
X90883000Y-15620167D01*
X91003000Y-16973500D02*
X91003000Y-15620167D01*
X91123000Y-16973500D02*
X91123000Y-15620167D01*
X91243000Y-16973500D02*
X91243000Y-15620167D01*
X91313000Y-16973500D02*
X91313000Y-12913500D01*
X77343000Y-15620167D02*
X78613000Y-15620167D01*
X79883000Y-15620167D02*
X81153000Y-15620167D01*
X82423000Y-15620167D02*
X83693000Y-15620167D01*
X84963000Y-15620167D02*
X86233000Y-15620167D01*
X87503000Y-15620167D02*
X88773000Y-15620167D01*
X90043000Y-15620167D02*
X91313000Y-15620167D01*
X77343000Y-12913500D02*
X77343000Y-16973500D01*
X78613000Y-12913500D02*
X77343000Y-12913500D01*
X79883000Y-12913500D02*
X79883000Y-16973500D01*
X81153000Y-12913500D02*
X79883000Y-12913500D01*
X82423000Y-12913500D02*
X82423000Y-16973500D01*
X83693000Y-12913500D02*
X82423000Y-12913500D01*
X84963000Y-12913500D02*
X84963000Y-16973500D01*
X86233000Y-12913500D02*
X84963000Y-12913500D01*
X87503000Y-12913500D02*
X87503000Y-16973500D01*
X88773000Y-12913500D02*
X87503000Y-12913500D01*
X90043000Y-12913500D02*
X90043000Y-16973500D01*
X91313000Y-12913500D02*
X90043000Y-12913500D01*
X75558000Y-9993500D02*
X93098000Y-9993500D01*
X64508748Y5053000D02*
X65031252Y5053000D01*
X64508748Y3583000D02*
X65031252Y3583000D01*
X55032000Y12819748D02*
X55032000Y13342252D01*
X56502000Y12819748D02*
X56502000Y13342252D01*
X59096000Y12819748D02*
X59096000Y13342252D01*
X60566000Y12819748D02*
X60566000Y13342252D01*
D10*
X77314000Y6813000D02*
X77314000Y8193000D01*
X75114000Y8193000D02*
X75114000Y6193000D01*
X75114000Y8193000D02*
X75714000Y8193000D01*
X76714000Y8193000D02*
X77314000Y8193000D01*
D12*
X50265000Y7720064D02*
X50265000Y7265936D01*
X48795000Y7720064D02*
X48795000Y7265936D01*
X65050936Y2386000D02*
X65505064Y2386000D01*
X65050936Y916000D02*
X65505064Y916000D01*
X57064000Y12819748D02*
X57064000Y13342252D01*
X58534000Y12819748D02*
X58534000Y13342252D01*
X51554748Y2513000D02*
X52077252Y2513000D01*
X51554748Y1043000D02*
X52077252Y1043000D01*
D10*
X66863000Y13182000D02*
X68788000Y13182000D01*
X67638000Y9932000D02*
X68788000Y9932000D01*
D14*
X66713000Y12957000D02*
G75*
G03*
X66713000Y12957000I-100000J0D01*
G01*
D12*
X79743000Y10421252D02*
X79743000Y9898748D01*
X78273000Y10421252D02*
X78273000Y9898748D01*
X69315000Y2386064D02*
X69315000Y1931936D01*
X67845000Y2386064D02*
X67845000Y1931936D01*
X71126748Y8355000D02*
X71649252Y8355000D01*
X71126748Y6885000D02*
X71649252Y6885000D01*
X52297000Y8101064D02*
X52297000Y7646936D01*
X50827000Y8101064D02*
X50827000Y7646936D01*
X67477936Y7466000D02*
X67932064Y7466000D01*
X67477936Y5996000D02*
X67932064Y5996000D01*
X86085000Y-28919000D02*
X86085000Y-29709000D01*
X86685000Y-30719000D02*
X92385000Y-30719000D01*
X87935000Y-27869000D02*
X89635000Y-27869000D01*
X88135000Y-30719000D02*
X88135000Y-32009000D01*
X88135000Y-32009000D02*
X88335000Y-32219000D01*
X88335000Y-32219000D02*
X89235000Y-32219000D01*
X89435000Y-32009000D02*
X89235000Y-32219000D01*
X89435000Y-32009000D02*
X89435000Y-30719000D01*
X90935000Y-27869000D02*
X91135000Y-27869000D01*
X92985000Y-29709000D02*
X92985000Y-28919000D01*
G36*
X103870481Y-158176D02*
G01*
X103911915Y-158276D01*
X103949623Y-158440D01*
X103983391Y-158667D01*
X104013007Y-158952D01*
X104038256Y-159295D01*
X104058924Y-159693D01*
X104074799Y-160143D01*
X104085666Y-160644D01*
X104089728Y-160972D01*
X104141939Y-169113D01*
X104191543Y-181891D01*
X104238571Y-199325D01*
X104283053Y-221437D01*
X104325022Y-248246D01*
X104364508Y-279774D01*
X104401542Y-316041D01*
X104436155Y-357068D01*
X104468377Y-402875D01*
X104478679Y-419353D01*
X104502014Y-460431D01*
X104523790Y-504331D01*
X104544166Y-551476D01*
X104563304Y-602290D01*
X104581363Y-657195D01*
X104598506Y-716617D01*
X104613091Y-773513D01*
X104632380Y-856437D01*
X104648940Y-935415D01*
X104662853Y-1011051D01*
X104674201Y-1083953D01*
X104683066Y-1154726D01*
X104689530Y-1223976D01*
X104693676Y-1292310D01*
X104695584Y-1360334D01*
X104695739Y-1384801D01*
X104694416Y-1460713D01*
X104690231Y-1533772D01*
X104683026Y-1604935D01*
X104672641Y-1675163D01*
X104658918Y-1745413D01*
X104641697Y-1816646D01*
X104620819Y-1889820D01*
X104602526Y-1946968D01*
X104580818Y-2009855D01*
X104559351Y-2067692D01*
X104537987Y-2120766D01*
X104516588Y-2169363D01*
X104495017Y-2213772D01*
X104473138Y-2254280D01*
X104450811Y-2291173D01*
X104427900Y-2324738D01*
X104411214Y-2346694D01*
X104396646Y-2363834D01*
X104379529Y-2382063D01*
X104360991Y-2400315D01*
X104342156Y-2417524D01*
X104324152Y-2432625D01*
X104308104Y-2444552D01*
X104307064Y-2445253D01*
X104270484Y-2467559D01*
X104233219Y-2485816D01*
X104194474Y-2500282D01*
X104153452Y-2511216D01*
X104109357Y-2518877D01*
X104067551Y-2523105D01*
X104060987Y-2523379D01*
X104049139Y-2523640D01*
X104032075Y-2523887D01*
X104009861Y-2524120D01*
X103982564Y-2524339D01*
X103950252Y-2524544D01*
X103912991Y-2524734D01*
X103870848Y-2524910D01*
X103823891Y-2525071D01*
X103772186Y-2525217D01*
X103715801Y-2525348D01*
X103654802Y-2525464D01*
X103589257Y-2525563D01*
X103519232Y-2525647D01*
X103444795Y-2525715D01*
X103366012Y-2525767D01*
X103282951Y-2525802D01*
X103195678Y-2525821D01*
X103153242Y-2525824D01*
X102276388Y-2525848D01*
X102276388Y-2599420D01*
X102276388Y-2672993D01*
X102859619Y-2672993D01*
X103442851Y-2672993D01*
X103442813Y-2886354D01*
X103442776Y-2932928D01*
X103442673Y-2974519D01*
X103442492Y-3011497D01*
X103442219Y-3044231D01*
X103441841Y-3073088D01*
X103441345Y-3098438D01*
X103440719Y-3120649D01*
X103439949Y-3140089D01*
X103439022Y-3157128D01*
X103437925Y-3172133D01*
X103436645Y-3185474D01*
X103435169Y-3197519D01*
X103433484Y-3208636D01*
X103431577Y-3219195D01*
X103430923Y-3222490D01*
X103418227Y-3271968D01*
X103400603Y-3319388D01*
X103378066Y-3364737D01*
X103350633Y-3408002D01*
X103318318Y-3449168D01*
X103281138Y-3488223D01*
X103239110Y-3525153D01*
X103192248Y-3559945D01*
X103140569Y-3592586D01*
X103084089Y-3623062D01*
X103022824Y-3651360D01*
X102956789Y-3677466D01*
X102886002Y-3701368D01*
X102844211Y-3713807D01*
X102742252Y-3740478D01*
X102641459Y-3762167D01*
X102541308Y-3778969D01*
X102441279Y-3790982D01*
X102407481Y-3793969D01*
X102395630Y-3794723D01*
X102379647Y-3795446D01*
X102360462Y-3796122D01*
X102339003Y-3796734D01*
X102316200Y-3797266D01*
X102292981Y-3797699D01*
X102270276Y-3798018D01*
X102249014Y-3798206D01*
X102230124Y-3798245D01*
X102214535Y-3798118D01*
X102203176Y-3797810D01*
X102201477Y-3797723D01*
X102120167Y-3791889D01*
X102042446Y-3783707D01*
X101966990Y-3772951D01*
X101892474Y-3759395D01*
X101817576Y-3742810D01*
X101740971Y-3722971D01*
X101703858Y-3712415D01*
X101633463Y-3690201D01*
X101567858Y-3666043D01*
X101506804Y-3639825D01*
X101450063Y-3611432D01*
X101397395Y-3580749D01*
X101348563Y-3547660D01*
X101322633Y-3527901D01*
X101279578Y-3490815D01*
X101241517Y-3451942D01*
X101208361Y-3411179D01*
X101180025Y-3368420D01*
X101160654Y-3332473D01*
X101144742Y-3296791D01*
X101132337Y-3261834D01*
X101123079Y-3226201D01*
X101116754Y-3189340D01*
X102714208Y-3189340D01*
X102714502Y-3203624D01*
X102715336Y-3217787D01*
X102716571Y-3229898D01*
X102717607Y-3236159D01*
X102727235Y-3268721D01*
X102741487Y-3299263D01*
X102759952Y-3327246D01*
X102782217Y-3352134D01*
X102807873Y-3373389D01*
X102835224Y-3389834D01*
X102866851Y-3402841D01*
X102899429Y-3410618D01*
X102932655Y-3413130D01*
X102966226Y-3410346D01*
X102986095Y-3406200D01*
X103017050Y-3395620D01*
X103045583Y-3380600D01*
X103071369Y-3361621D01*
X103094085Y-3339164D01*
X103113407Y-3313711D01*
X103129011Y-3285743D01*
X103140574Y-3255741D01*
X103147773Y-3224187D01*
X103150283Y-3191562D01*
X103148628Y-3164442D01*
X103142021Y-3130680D01*
X103130849Y-3099580D01*
X103114943Y-3070799D01*
X103094134Y-3043992D01*
X103084587Y-3033932D01*
X103063763Y-3015042D01*
X103042656Y-3000179D01*
X103019494Y-2988233D01*
X102998739Y-2980185D01*
X102988759Y-2976825D01*
X102980609Y-2974454D01*
X102972977Y-2972899D01*
X102964552Y-2971990D01*
X102954024Y-2971554D01*
X102940081Y-2971419D01*
X102931854Y-2971410D01*
X102915789Y-2971465D01*
X102903776Y-2971741D01*
X102894518Y-2972405D01*
X102886716Y-2973624D01*
X102879073Y-2975566D01*
X102870291Y-2978398D01*
X102865912Y-2979906D01*
X102833618Y-2993755D01*
X102804617Y-3011555D01*
X102779170Y-3032949D01*
X102757538Y-3057576D01*
X102739980Y-3085077D01*
X102726758Y-3115092D01*
X102718132Y-3147261D01*
X102714361Y-3181226D01*
X102714208Y-3189340D01*
X101116754Y-3189340D01*
X101116608Y-3188492D01*
X101112561Y-3147308D01*
X101112421Y-3145197D01*
X101112046Y-3136511D01*
X101111708Y-3122487D01*
X101111406Y-3103137D01*
X101111142Y-3078474D01*
X101110915Y-3048508D01*
X101110724Y-3013254D01*
X101110571Y-2972724D01*
X101110454Y-2926928D01*
X101110375Y-2875881D01*
X101110333Y-2819594D01*
X101110328Y-2758079D01*
X101110360Y-2691350D01*
X101110429Y-2619417D01*
X101110536Y-2542294D01*
X101110558Y-2528523D01*
X101110667Y-2462989D01*
X101110773Y-2402586D01*
X101110877Y-2347091D01*
X101110983Y-2296286D01*
X101111091Y-2249949D01*
X101111205Y-2207860D01*
X101111326Y-2169798D01*
X101111457Y-2135542D01*
X101111598Y-2104872D01*
X101111753Y-2077567D01*
X101111924Y-2053407D01*
X101112112Y-2032171D01*
X101112321Y-2013638D01*
X101112551Y-1997589D01*
X101112804Y-1983801D01*
X101113084Y-1972055D01*
X101113392Y-1962129D01*
X101113731Y-1953804D01*
X101114101Y-1946859D01*
X101114506Y-1941073D01*
X101114947Y-1936225D01*
X101115427Y-1932096D01*
X101115948Y-1928463D01*
X101116258Y-1926564D01*
X101128365Y-1868735D01*
X101144559Y-1814257D01*
X101164955Y-1762897D01*
X101189666Y-1714423D01*
X101218808Y-1668600D01*
X101252496Y-1625195D01*
X101278101Y-1596897D01*
X101319681Y-1557271D01*
X101363863Y-1522301D01*
X101410567Y-1492027D01*
X101459716Y-1466495D01*
X101511231Y-1445745D01*
X101565033Y-1429822D01*
X101596136Y-1423028D01*
X101627610Y-1416996D01*
X102271037Y-1415455D01*
X102341301Y-1415289D01*
X102406428Y-1415138D01*
X102466632Y-1414998D01*
X102522128Y-1414861D01*
X102573128Y-1414725D01*
X102619848Y-1414583D01*
X102662501Y-1414430D01*
X102701300Y-1414262D01*
X102736461Y-1414073D01*
X102768196Y-1413858D01*
X102796721Y-1413613D01*
X102822248Y-1413331D01*
X102844992Y-1413009D01*
X102865167Y-1412640D01*
X102882986Y-1412220D01*
X102898664Y-1411744D01*
X102912414Y-1411207D01*
X102924452Y-1410603D01*
X102934989Y-1409928D01*
X102944241Y-1409176D01*
X102952422Y-1408343D01*
X102959745Y-1407423D01*
X102966424Y-1406411D01*
X102972674Y-1405302D01*
X102978707Y-1404091D01*
X102984740Y-1402773D01*
X102990984Y-1401343D01*
X102997654Y-1399796D01*
X103004964Y-1398126D01*
X103005427Y-1398022D01*
X103064386Y-1382075D01*
X103121673Y-1361167D01*
X103177014Y-1335503D01*
X103230135Y-1305286D01*
X103280761Y-1270721D01*
X103328617Y-1232011D01*
X103373430Y-1189362D01*
X103414925Y-1142976D01*
X103452827Y-1093060D01*
X103486862Y-1039815D01*
X103486900Y-1039750D01*
X103516075Y-984489D01*
X103540331Y-927203D01*
X103559587Y-868147D01*
X103573765Y-807577D01*
X103582785Y-745750D01*
X103584601Y-725321D01*
X103585019Y-716975D01*
X103585413Y-703647D01*
X103585780Y-685707D01*
X103586115Y-663525D01*
X103586416Y-637470D01*
X103586680Y-607910D01*
X103586902Y-575217D01*
X103587080Y-539758D01*
X103587210Y-501903D01*
X103587289Y-462022D01*
X103587315Y-423673D01*
X103587321Y-158142D01*
X103825535Y-158142D01*
X103870481Y-158176D01*
G37*
G36*
X102310791Y1087746D02*
G01*
X102316518Y1087663D01*
X102372437Y1086559D01*
X102424250Y1084980D01*
X102473190Y1082850D01*
X102520486Y1080095D01*
X102567369Y1076640D01*
X102615071Y1072412D01*
X102664822Y1067335D01*
X102680369Y1065631D01*
X102732567Y1059510D01*
X102779944Y1053253D01*
X102823030Y1046741D01*
X102862356Y1039861D01*
X102898451Y1032495D01*
X102931845Y1024527D01*
X102963069Y1015842D01*
X102992653Y1006322D01*
X103021126Y995852D01*
X103046561Y985383D01*
X103100054Y959739D01*
X103150454Y930466D01*
X103197549Y897810D01*
X103241131Y862016D01*
X103280990Y823330D01*
X103316918Y781995D01*
X103348704Y738257D01*
X103376140Y692363D01*
X103399017Y644555D01*
X103417124Y595081D01*
X103430254Y544185D01*
X103432340Y533442D01*
X103433529Y526671D01*
X103434628Y519698D01*
X103435640Y512302D01*
X103436567Y504265D01*
X103437413Y495365D01*
X103438181Y485384D01*
X103438874Y474102D01*
X103439495Y461298D01*
X103440048Y446754D01*
X103440534Y430248D01*
X103440958Y411561D01*
X103441323Y390474D01*
X103441632Y366766D01*
X103441887Y340218D01*
X103442092Y310610D01*
X103442250Y277721D01*
X103442364Y241333D01*
X103442438Y201225D01*
X103442473Y157178D01*
X103442475Y108971D01*
X103442445Y56384D01*
X103442386Y-801D01*
X103442302Y-62805D01*
X103442197Y-129848D01*
X103442147Y-159479D01*
X103442036Y-225020D01*
X103441936Y-285441D01*
X103441841Y-340972D01*
X103441744Y-391846D01*
X103441642Y-438293D01*
X103441527Y-480543D01*
X103441395Y-518827D01*
X103441240Y-553377D01*
X103441057Y-584424D01*
X103440840Y-612197D01*
X103440584Y-636929D01*
X103440283Y-658849D01*
X103439931Y-678189D01*
X103439524Y-695180D01*
X103439056Y-710052D01*
X103438520Y-723037D01*
X103437912Y-734366D01*
X103437227Y-744268D01*
X103436458Y-752975D01*
X103435600Y-760719D01*
X103434649Y-767729D01*
X103433597Y-774236D01*
X103432440Y-780473D01*
X103431172Y-786669D01*
X103429788Y-793055D01*
X103428282Y-799862D01*
X103426736Y-806920D01*
X103416680Y-845347D01*
X103403007Y-885354D01*
X103386376Y-925302D01*
X103367445Y-963557D01*
X103354421Y-986405D01*
X103323882Y-1031908D01*
X103289313Y-1074187D01*
X103251067Y-1112976D01*
X103209499Y-1148011D01*
X103164963Y-1179028D01*
X103117813Y-1205762D01*
X103068402Y-1227948D01*
X103017085Y-1245322D01*
X103002752Y-1249204D01*
X102995624Y-1251069D01*
X102989186Y-1252797D01*
X102983226Y-1254396D01*
X102977531Y-1255869D01*
X102971889Y-1257223D01*
X102966088Y-1258463D01*
X102959916Y-1259595D01*
X102953159Y-1260624D01*
X102945606Y-1261556D01*
X102937044Y-1262396D01*
X102927261Y-1263150D01*
X102916044Y-1263824D01*
X102903182Y-1264422D01*
X102888460Y-1264952D01*
X102871668Y-1265417D01*
X102852593Y-1265825D01*
X102831023Y-1266179D01*
X102806744Y-1266486D01*
X102779545Y-1266752D01*
X102749214Y-1266982D01*
X102715537Y-1267181D01*
X102678303Y-1267355D01*
X102637299Y-1267510D01*
X102592313Y-1267652D01*
X102543132Y-1267784D01*
X102489544Y-1267915D01*
X102431337Y-1268048D01*
X102368298Y-1268189D01*
X102300215Y-1268344D01*
X102268362Y-1268419D01*
X102198056Y-1268582D01*
X102132886Y-1268727D01*
X102072639Y-1268860D01*
X102017099Y-1268988D01*
X101966054Y-1269116D01*
X101919289Y-1269250D01*
X101876589Y-1269396D01*
X101837740Y-1269560D01*
X101802529Y-1269748D01*
X101770740Y-1269965D01*
X101742160Y-1270218D01*
X101716575Y-1270513D01*
X101693770Y-1270854D01*
X101673531Y-1271249D01*
X101655644Y-1271703D01*
X101639895Y-1272221D01*
X101626070Y-1272811D01*
X101613954Y-1273477D01*
X101603333Y-1274226D01*
X101593993Y-1275064D01*
X101585720Y-1275995D01*
X101578300Y-1277027D01*
X101571518Y-1278166D01*
X101565160Y-1279416D01*
X101559012Y-1280784D01*
X101552860Y-1282276D01*
X101546490Y-1283898D01*
X101539687Y-1285655D01*
X101532237Y-1287553D01*
X101527283Y-1288784D01*
X101469148Y-1305795D01*
X101412250Y-1328007D01*
X101356609Y-1355411D01*
X101302244Y-1387997D01*
X101259746Y-1417744D01*
X101242233Y-1431709D01*
X101222470Y-1448987D01*
X101201420Y-1468614D01*
X101180046Y-1489625D01*
X101159311Y-1511055D01*
X101140180Y-1531940D01*
X101123616Y-1551315D01*
X101113623Y-1564051D01*
X101077313Y-1616897D01*
X101046029Y-1671348D01*
X101019812Y-1727302D01*
X100998703Y-1784656D01*
X100982741Y-1843306D01*
X100971967Y-1903150D01*
X100968320Y-1935928D01*
X100967843Y-1944221D01*
X100967403Y-1957632D01*
X100967004Y-1975931D01*
X100966645Y-1998885D01*
X100966331Y-2026261D01*
X100966063Y-2057830D01*
X100965843Y-2093357D01*
X100965673Y-2132612D01*
X100965556Y-2175362D01*
X100965493Y-2221377D01*
X100965482Y-2246940D01*
X100965455Y-2525848D01*
X100756107Y-2525454D01*
X100722267Y-2525365D01*
X100689363Y-2525228D01*
X100657879Y-2525048D01*
X100628298Y-2524831D01*
X100601106Y-2524582D01*
X100576787Y-2524305D01*
X100555824Y-2524006D01*
X100538703Y-2523689D01*
X100525908Y-2523360D01*
X100517923Y-2523024D01*
X100517329Y-2522984D01*
X100462078Y-2516533D01*
X100408798Y-2505128D01*
X100357558Y-2488795D01*
X100308423Y-2467559D01*
X100261459Y-2441444D01*
X100217688Y-2411204D01*
X100204947Y-2400739D01*
X100189866Y-2387155D01*
X100173480Y-2371484D01*
X100156826Y-2354759D01*
X100140941Y-2338011D01*
X100126859Y-2322271D01*
X100119233Y-2313155D01*
X100109024Y-2300028D01*
X100097445Y-2284375D01*
X100085961Y-2268211D01*
X100076522Y-2254297D01*
X100066105Y-2237456D01*
X100054360Y-2216789D01*
X100041874Y-2193465D01*
X100029233Y-2168654D01*
X100017022Y-2143528D01*
X100005828Y-2119257D01*
X99996236Y-2097011D01*
X99990471Y-2082425D01*
X99978488Y-2048226D01*
X99966376Y-2009395D01*
X99954289Y-1966643D01*
X99942382Y-1920683D01*
X99930811Y-1872225D01*
X99919730Y-1821981D01*
X99909294Y-1770662D01*
X99899659Y-1718979D01*
X99890978Y-1667644D01*
X99883409Y-1617369D01*
X99877104Y-1568865D01*
X99875474Y-1554687D01*
X99872586Y-1527894D01*
X99870245Y-1503961D01*
X99868398Y-1481819D01*
X99866992Y-1460401D01*
X99865974Y-1438639D01*
X99865290Y-1415464D01*
X99864889Y-1389808D01*
X99864716Y-1360604D01*
X99864702Y-1337982D01*
X99864849Y-1302811D01*
X99865269Y-1271834D01*
X99866032Y-1243897D01*
X99867207Y-1217848D01*
X99868862Y-1192532D01*
X99871069Y-1166798D01*
X99873895Y-1139490D01*
X99877411Y-1109457D01*
X99879433Y-1093185D01*
X99884800Y-1053836D01*
X99891181Y-1012516D01*
X99898430Y-969898D01*
X99906402Y-926658D01*
X99914950Y-883469D01*
X99923927Y-841006D01*
X99933187Y-799943D01*
X99942584Y-760954D01*
X99951971Y-724713D01*
X99961203Y-691894D01*
X99970133Y-663172D01*
X99977086Y-643259D01*
X100002201Y-582930D01*
X100031255Y-526100D01*
X100064099Y-472880D01*
X100100587Y-423387D01*
X100140571Y-377733D01*
X100183905Y-336033D01*
X100230439Y-298401D01*
X100280028Y-264952D01*
X100332524Y-235798D01*
X100387779Y-211054D01*
X100445647Y-190834D01*
X100505979Y-175253D01*
X100568628Y-164423D01*
X100600266Y-160874D01*
X100606217Y-160578D01*
X100617482Y-160298D01*
X100634026Y-160035D01*
X100655811Y-159788D01*
X100682803Y-159559D01*
X100714964Y-159346D01*
X100752259Y-159150D01*
X100794651Y-158971D01*
X100842103Y-158809D01*
X100894581Y-158665D01*
X100952048Y-158537D01*
X101014466Y-158428D01*
X101081801Y-158336D01*
X101154016Y-158262D01*
X101231075Y-158206D01*
X101312942Y-158167D01*
X101399579Y-158147D01*
X101453041Y-158144D01*
X102276388Y-158142D01*
X102276388Y-83231D01*
X102276388Y-8321D01*
X101693156Y-8321D01*
X101109925Y-8321D01*
X101109962Y219755D01*
X101110007Y271261D01*
X101110138Y317775D01*
X101110368Y359656D01*
X101110715Y397262D01*
X101111194Y430952D01*
X101111820Y461085D01*
X101112611Y488019D01*
X101113582Y512112D01*
X101113656Y513485D01*
X101402381Y513485D01*
X101403975Y480147D01*
X101408563Y454519D01*
X101414027Y437035D01*
X101422284Y417491D01*
X101432416Y397685D01*
X101443507Y379414D01*
X101454126Y365085D01*
X101477674Y341245D01*
X101504635Y321208D01*
X101534306Y305364D01*
X101565979Y294104D01*
X101592643Y288606D01*
X101610369Y287322D01*
X101630980Y287772D01*
X101652341Y289835D01*
X101670403Y292965D01*
X101686675Y297791D01*
X101705188Y305337D01*
X101724212Y314735D01*
X101742020Y325114D01*
X101756884Y335608D01*
X101759412Y337696D01*
X101783724Y361796D01*
X101803679Y388571D01*
X101819213Y417500D01*
X101830263Y448065D01*
X101836766Y479748D01*
X101838657Y512028D01*
X101835874Y544387D01*
X101828353Y576306D01*
X101816030Y607266D01*
X101798842Y636748D01*
X101796408Y640220D01*
X101775370Y665199D01*
X101750902Y686491D01*
X101723623Y703862D01*
X101694154Y717078D01*
X101663115Y725908D01*
X101631127Y730118D01*
X101598808Y729476D01*
X101571123Y724841D01*
X101539320Y714596D01*
X101510154Y700001D01*
X101483894Y681500D01*
X101460808Y659540D01*
X101441164Y634568D01*
X101425231Y607030D01*
X101413277Y577373D01*
X101405571Y546042D01*
X101402381Y513485D01*
X101113656Y513485D01*
X101114748Y533724D01*
X101116126Y553212D01*
X101117732Y570935D01*
X101119580Y587253D01*
X101121689Y602523D01*
X101124072Y617103D01*
X101126747Y631353D01*
X101128617Y640457D01*
X101140167Y685628D01*
X101155110Y727597D01*
X101173601Y766510D01*
X101195797Y802510D01*
X101221854Y835743D01*
X101251929Y866352D01*
X101286178Y894481D01*
X101324756Y920276D01*
X101367822Y943879D01*
X101415530Y965436D01*
X101468038Y985091D01*
X101519781Y1001346D01*
X101576269Y1016355D01*
X101637439Y1030106D01*
X101702758Y1042542D01*
X101771695Y1053605D01*
X101843715Y1063236D01*
X101918288Y1071379D01*
X101994880Y1077976D01*
X102072959Y1082969D01*
X102151992Y1086300D01*
X102231446Y1087911D01*
X102310791Y1087746D01*
G37*
X61763000Y12853936D02*
X61763000Y13308064D01*
X63233000Y12853936D02*
X63233000Y13308064D01*
X85344000Y12085000D02*
X81894000Y12085000D01*
X85344000Y12085000D02*
X87294000Y12085000D01*
X85344000Y6965000D02*
X83394000Y6965000D01*
X85344000Y6965000D02*
X87294000Y6965000D01*
X52468436Y4799000D02*
X52922564Y4799000D01*
X52468436Y3329000D02*
X52922564Y3329000D01*
X97579000Y-15156000D02*
X97579000Y-15556000D01*
X97579000Y-15156000D02*
X102319000Y-15156000D01*
X97579000Y-18556000D02*
X97579000Y-16496000D01*
X97579000Y-19896000D02*
X97579000Y-19496000D01*
X97579000Y-19896000D02*
X102319000Y-19896000D01*
X102319000Y-15156000D02*
X102319000Y-15556000D01*
X102319000Y-18556000D02*
X102319000Y-16496000D01*
X102319000Y-19896000D02*
X102319000Y-19496000D01*
X67932064Y8028000D02*
X67477936Y8028000D01*
X67932064Y9498000D02*
X67477936Y9498000D01*
X76949000Y11911064D02*
X76949000Y11456936D01*
X75479000Y11911064D02*
X75479000Y11456936D01*
X45620000Y-2880000D02*
X45920000Y-2880000D01*
X45620000Y-2880000D02*
X45620000Y18120000D01*
X48020000Y-2880000D02*
X48420000Y-2880000D01*
X48287000Y-2880000D02*
X48287000Y127000D01*
X50620000Y-2880000D02*
X51020000Y-2880000D01*
X53120000Y-2880000D02*
X53520000Y-2880000D01*
X55720000Y-2880000D02*
X56120000Y-2880000D01*
X58220000Y-2880000D02*
X58620000Y-2880000D01*
X60720000Y-2880000D02*
X61120000Y-2880000D01*
X63320000Y-2880000D02*
X63720000Y-2880000D01*
X65820000Y-2880000D02*
X66220000Y-2880000D01*
X68420000Y-2880000D02*
X68820000Y-2880000D01*
X70920000Y-2880000D02*
X71320000Y-2880000D01*
X73420000Y-2880000D02*
X73820000Y-2880000D01*
X76020000Y-2880000D02*
X76420000Y-2880000D01*
X78520000Y-2880000D02*
X78920000Y-2880000D01*
X81120000Y-2880000D02*
X81520000Y-2880000D01*
X83620000Y-2880000D02*
X84020000Y-2880000D01*
X86220000Y-2880000D02*
X86620000Y-2880000D01*
X88720000Y-2880000D02*
X89120000Y-2880000D01*
X91220000Y-2880000D02*
X91620000Y-2880000D01*
X93820000Y-2880000D02*
X94220000Y-2880000D01*
X48287000Y127000D02*
X45620000Y127000D01*
X96620000Y3920000D02*
X96620000Y-2880000D01*
X96620000Y6120000D02*
X96620000Y6520000D01*
X96620000Y8720000D02*
X96620000Y9120000D01*
X45620000Y18120000D02*
X45920000Y18120000D01*
X48020000Y18120000D02*
X48420000Y18120000D01*
X50620000Y18120000D02*
X51020000Y18120000D01*
X53120000Y18120000D02*
X53520000Y18120000D01*
X55720000Y18120000D02*
X56120000Y18120000D01*
X58220000Y18120000D02*
X58620000Y18120000D01*
X60720000Y18120000D02*
X61120000Y18120000D01*
X63320000Y18120000D02*
X63720000Y18120000D01*
X65820000Y18120000D02*
X66220000Y18120000D01*
X68420000Y18120000D02*
X68820000Y18120000D01*
X70920000Y18120000D02*
X71320000Y18120000D01*
X73420000Y18120000D02*
X73820000Y18120000D01*
X76020000Y18120000D02*
X76420000Y18120000D01*
X78520000Y18120000D02*
X78920000Y18120000D01*
X81120000Y18120000D02*
X81520000Y18120000D01*
X83620000Y18120000D02*
X84020000Y18120000D01*
X86220000Y18120000D02*
X86620000Y18120000D01*
X88720000Y18120000D02*
X89120000Y18120000D01*
X91220000Y18120000D02*
X91620000Y18120000D01*
X93820000Y18120000D02*
X94220000Y18120000D01*
X96620000Y18120000D02*
X96620000Y11320000D01*
X76306000Y-28886000D02*
X76306000Y-29676000D01*
X76906000Y-30686000D02*
X82606000Y-30686000D01*
X78156000Y-27836000D02*
X79856000Y-27836000D01*
X78356000Y-30686000D02*
X78356000Y-31976000D01*
X78356000Y-31976000D02*
X78556000Y-32186000D01*
X78556000Y-32186000D02*
X79456000Y-32186000D01*
X79656000Y-31976000D02*
X79456000Y-32186000D01*
X79656000Y-31976000D02*
X79656000Y-30686000D01*
X81156000Y-27836000D02*
X81356000Y-27836000D01*
X83206000Y-29676000D02*
X83206000Y-28886000D01*
X71112748Y4037000D02*
X71635252Y4037000D01*
X71112748Y2567000D02*
X71635252Y2567000D01*
X97579000Y-21740000D02*
X97579000Y-22140000D01*
X97579000Y-21740000D02*
X102319000Y-21740000D01*
X97579000Y-25140000D02*
X97579000Y-23080000D01*
X97579000Y-26480000D02*
X97579000Y-26080000D01*
X97579000Y-26480000D02*
X102319000Y-26480000D01*
X102319000Y-21740000D02*
X102319000Y-22140000D01*
X102319000Y-25140000D02*
X102319000Y-23080000D01*
X102319000Y-26480000D02*
X102319000Y-26080000D01*
D15*
X77625000Y14812000D02*
X77625000Y14562000D01*
X77625000Y14812000D02*
X80225000Y14812000D01*
X77625000Y12112000D02*
X77625000Y12362000D01*
X80225000Y14812000D02*
X80225000Y14562000D01*
X80225000Y12112000D02*
X77625000Y12112000D01*
X80225000Y12112000D02*
X80225000Y12362000D01*
D14*
X77375000Y14812000D02*
G75*
G03*
X77375000Y14812000I-150000J0D01*
G01*
D12*
X47706000Y-3326000D02*
X47706000Y-29326000D01*
X47706000Y-29326000D02*
X53706000Y-29326000D01*
X48336000Y-7896000D02*
X48336000Y-24796000D01*
X48336000Y-24796000D02*
X73036000Y-24796000D01*
X49836000Y-9376000D02*
X49836000Y-20236000D01*
X49836000Y-20236000D02*
X71576000Y-20236000D01*
X53706000Y-27326000D02*
X67706000Y-27326000D01*
X53706000Y-29326000D02*
X53706000Y-27326000D01*
X67706000Y-27326000D02*
X67706000Y-29326000D01*
X67706000Y-29326000D02*
X73706000Y-29326000D01*
X71576000Y-9376000D02*
X49836000Y-9376000D01*
X71576000Y-20236000D02*
X71576000Y-9376000D01*
X73036000Y-7896000D02*
X48336000Y-7896000D01*
X73036000Y-24796000D02*
X73036000Y-7896000D01*
X73706000Y-3326000D02*
X47706000Y-3326000D01*
X73706000Y-29326000D02*
X73706000Y-3326000D01*
D10*
X104892000Y11474000D02*
X97592000Y11474000D01*
X104892000Y11474000D02*
X104892000Y4274000D01*
X98992000Y11474000D02*
X98992000Y4274000D01*
X97592000Y11474000D02*
X97592000Y4274000D01*
X97592000Y10074000D02*
X98992000Y11474000D01*
X104892000Y4274000D02*
X97592000Y4274000D01*
X101700000Y11056000D02*
G75*
G03*
X100484258Y11056109I-607999J-1432003D01*
G01*
X102524000Y9016000D02*
G75*
G03*
X102524109Y10231742I-1432003J607999D01*
G01*
X99660001Y10232000D02*
G75*
G03*
X99536508Y9596989I1431987J-607998D01*
G01*
X99537001Y9624000D02*
G75*
G03*
X99660616Y9016413I1554996J-1D01*
G01*
X100484000Y8192000D02*
G75*
G03*
X101699742Y8191891I607999J1432003D01*
G01*
X102647000Y6124000D02*
G75*
G03*
X102647000Y6124000I-1555000J0D01*
G01*
M02*
