G04 #@! TF.GenerationSoftware,KiCad,Pcbnew,7.0.8-7.0.8~ubuntu22.04.1*
G04 #@! TF.CreationDate,2023-10-11T18:06:27+02:00*
G04 #@! TF.ProjectId,PD_Micro,50445f4d-6963-4726-9f2e-6b696361645f,rev?*
G04 #@! TF.SameCoordinates,PX7ce2370PY67d8790*
G04 #@! TF.FileFunction,Other,User*
%FSLAX46Y46*%
G04 Gerber Fmt 4.6, Leading zero omitted, Abs format (unit mm)*
G04 Created by KiCad (PCBNEW 7.0.8-7.0.8~ubuntu22.04.1) date 2023-10-11 18:06:27*
%MOMM*%
%LPD*%
G01*
G04 APERTURE LIST*
%ADD10C,0.050000*%
%ADD11C,0.120000*%
G04 APERTURE END LIST*
D10*
X85135000Y-26539000D02*
X93935000Y-26539000D01*
X85135000Y-31089000D02*
X85135000Y-26539000D01*
X93935000Y-26539000D02*
X93935000Y-31089000D01*
X93935000Y-31089000D02*
X85135000Y-31089000D01*
X75356000Y-26506000D02*
X84156000Y-26506000D01*
X75356000Y-31056000D02*
X75356000Y-26506000D01*
X84156000Y-26506000D02*
X84156000Y-31056000D01*
X84156000Y-31056000D02*
X75356000Y-31056000D01*
X75035000Y8799000D02*
X75035000Y13299000D01*
X75035000Y13299000D02*
X70535000Y13299000D01*
X70535000Y8799000D02*
X75035000Y8799000D01*
X70535000Y13299000D02*
X70535000Y8799000D01*
X69688000Y6441000D02*
X73088000Y6441000D01*
X69688000Y4481000D02*
X69688000Y6441000D01*
X73088000Y6441000D02*
X73088000Y4481000D01*
X73088000Y4481000D02*
X69688000Y4481000D01*
X61359000Y9380000D02*
X64879000Y9380000D01*
X61359000Y5860000D02*
X61359000Y9380000D01*
X64879000Y9380000D02*
X64879000Y5860000D01*
X64879000Y5860000D02*
X61359000Y5860000D01*
X56183000Y8164000D02*
X52783000Y8164000D01*
X56183000Y10124000D02*
X56183000Y8164000D01*
X52783000Y8164000D02*
X52783000Y10124000D01*
X52783000Y10124000D02*
X56183000Y10124000D01*
X80624000Y-3600000D02*
X80624000Y-9100000D01*
X80624000Y-9100000D02*
X87524000Y-9100000D01*
X87524000Y-3600000D02*
X80624000Y-3600000D01*
X87524000Y-9100000D02*
X87524000Y-3600000D01*
X83009000Y1390000D02*
X83009000Y3690000D01*
X83009000Y1390000D02*
X78309000Y1390000D01*
X78309000Y1390000D02*
X78309000Y3690000D01*
X78309000Y3690000D02*
X83009000Y3690000D01*
X52755000Y11381000D02*
X52755000Y14781000D01*
X54715000Y11381000D02*
X52755000Y11381000D01*
X52755000Y14781000D02*
X54715000Y14781000D01*
X54715000Y14781000D02*
X54715000Y11381000D01*
X60574000Y6120000D02*
X60574000Y9120000D01*
X60574000Y9120000D02*
X59774000Y9120000D01*
X59774000Y5820000D02*
X59774000Y6120000D01*
X59774000Y6120000D02*
X60574000Y6120000D01*
X59774000Y9420000D02*
X59774000Y9120000D01*
X59774000Y9420000D02*
X57574000Y9420000D01*
X57574000Y5820000D02*
X59774000Y5820000D01*
X57574000Y5820000D02*
X57574000Y6120000D01*
X57574000Y9120000D02*
X56774000Y9120000D01*
X57574000Y9420000D02*
X57574000Y9120000D01*
X56774000Y6120000D02*
X57574000Y6120000D01*
X56774000Y9120000D02*
X56774000Y6120000D01*
X56183000Y5116000D02*
X52783000Y5116000D01*
X56183000Y7076000D02*
X56183000Y5116000D01*
X52783000Y5116000D02*
X52783000Y7076000D01*
X52783000Y7076000D02*
X56183000Y7076000D01*
X75278000Y-20103500D02*
X93378000Y-20103500D01*
X93378000Y-20103500D02*
X93378000Y-9803500D01*
X75278000Y-9803500D02*
X75278000Y-20103500D01*
X93378000Y-9803500D02*
X75278000Y-9803500D01*
X63070000Y5298000D02*
X66470000Y5298000D01*
X63070000Y3338000D02*
X63070000Y5298000D01*
X66470000Y5298000D02*
X66470000Y3338000D01*
X66470000Y3338000D02*
X63070000Y3338000D01*
X54787000Y11381000D02*
X54787000Y14781000D01*
X56747000Y11381000D02*
X54787000Y11381000D01*
X54787000Y14781000D02*
X56747000Y14781000D01*
X56747000Y14781000D02*
X56747000Y11381000D01*
X58851000Y11381000D02*
X58851000Y14781000D01*
X60811000Y11381000D02*
X58851000Y11381000D01*
X58851000Y14781000D02*
X60811000Y14781000D01*
X60811000Y14781000D02*
X60811000Y11381000D01*
X75014000Y5993000D02*
X75014000Y8393000D01*
X77414000Y5993000D02*
X75014000Y5993000D01*
X75014000Y8393000D02*
X75814000Y8393000D01*
X75814000Y8393000D02*
X75814000Y8993000D01*
X76614000Y8393000D02*
X77414000Y8393000D01*
X76614000Y8393000D02*
X76614000Y8993000D01*
X77414000Y8393000D02*
X77414000Y5993000D01*
X76614000Y8993000D02*
X75814000Y8993000D01*
X50480000Y9173000D02*
X50480000Y5813000D01*
X48580000Y9173000D02*
X50480000Y9173000D01*
X50480000Y5813000D02*
X48580000Y5813000D01*
X48580000Y5813000D02*
X48580000Y9173000D01*
X63598000Y2601000D02*
X66958000Y2601000D01*
X63598000Y701000D02*
X63598000Y2601000D01*
X66958000Y2601000D02*
X66958000Y701000D01*
X66958000Y701000D02*
X63598000Y701000D01*
X56819000Y11381000D02*
X56819000Y14781000D01*
X58779000Y11381000D02*
X56819000Y11381000D01*
X56819000Y14781000D02*
X58779000Y14781000D01*
X58779000Y14781000D02*
X58779000Y11381000D01*
X50116000Y2758000D02*
X53516000Y2758000D01*
X50116000Y798000D02*
X50116000Y2758000D01*
X53516000Y2758000D02*
X53516000Y798000D01*
X53516000Y798000D02*
X50116000Y798000D01*
X66913000Y13257000D02*
X66913000Y9857000D01*
X66913000Y13257000D02*
X69513000Y13257000D01*
X66913000Y9857000D02*
X69513000Y9857000D01*
X69513000Y13257000D02*
X69513000Y9857000D01*
X79988000Y11860000D02*
X79988000Y8460000D01*
X78028000Y11860000D02*
X79988000Y11860000D01*
X79988000Y8460000D02*
X78028000Y8460000D01*
X78028000Y8460000D02*
X78028000Y11860000D01*
X69530000Y3839000D02*
X69530000Y479000D01*
X67630000Y3839000D02*
X69530000Y3839000D01*
X69530000Y479000D02*
X67630000Y479000D01*
X67630000Y479000D02*
X67630000Y3839000D01*
X69688000Y8600000D02*
X73088000Y8600000D01*
X69688000Y6640000D02*
X69688000Y8600000D01*
X73088000Y8600000D02*
X73088000Y6640000D01*
X73088000Y6640000D02*
X69688000Y6640000D01*
X52512000Y9554000D02*
X52512000Y6194000D01*
X50612000Y9554000D02*
X52512000Y9554000D01*
X52512000Y6194000D02*
X50612000Y6194000D01*
X50612000Y6194000D02*
X50612000Y9554000D01*
X66025000Y7681000D02*
X69385000Y7681000D01*
X66025000Y5781000D02*
X66025000Y7681000D01*
X69385000Y7681000D02*
X69385000Y5781000D01*
X69385000Y5781000D02*
X66025000Y5781000D01*
X61548000Y11401000D02*
X61548000Y14761000D01*
X63448000Y11401000D02*
X61548000Y11401000D01*
X61548000Y14761000D02*
X63448000Y14761000D01*
X63448000Y14761000D02*
X63448000Y11401000D01*
X81644000Y12225000D02*
X81644000Y6825000D01*
X81644000Y6825000D02*
X89044000Y6825000D01*
X89044000Y12225000D02*
X81644000Y12225000D01*
X89044000Y6825000D02*
X89044000Y12225000D01*
X51015500Y5014000D02*
X54375500Y5014000D01*
X51015500Y3114000D02*
X51015500Y5014000D01*
X54375500Y5014000D02*
X54375500Y3114000D01*
X54375500Y3114000D02*
X51015500Y3114000D01*
X95299000Y-15026000D02*
X104599000Y-15026000D01*
X95299000Y-20026000D02*
X95299000Y-15026000D01*
X104599000Y-15026000D02*
X104599000Y-20026000D01*
X104599000Y-20026000D02*
X95299000Y-20026000D01*
X69385000Y7813000D02*
X66025000Y7813000D01*
X69385000Y9713000D02*
X69385000Y7813000D01*
X66025000Y7813000D02*
X66025000Y9713000D01*
X66025000Y9713000D02*
X69385000Y9713000D01*
X77164000Y13364000D02*
X77164000Y10004000D01*
X75264000Y13364000D02*
X77164000Y13364000D01*
X77164000Y10004000D02*
X75264000Y10004000D01*
X75264000Y10004000D02*
X75264000Y13364000D01*
D11*
X45466000Y-2794000D02*
X45466000Y254000D01*
X96774000Y-2794000D02*
X45466000Y-2794000D01*
X45466000Y254000D02*
X96774000Y254000D01*
X96774000Y254000D02*
X96774000Y-2794000D01*
D10*
X45974000Y5334000D02*
X45974000Y9906000D01*
X48260000Y5334000D02*
X45974000Y5334000D01*
X45974000Y9906000D02*
X48260000Y9906000D01*
X48260000Y9906000D02*
X48260000Y5334000D01*
D11*
X45466000Y14986000D02*
X45466000Y18034000D01*
X96774000Y14986000D02*
X45466000Y14986000D01*
X45466000Y18034000D02*
X96774000Y18034000D01*
X96774000Y18034000D02*
X96774000Y14986000D01*
D10*
X69674000Y4282000D02*
X73074000Y4282000D01*
X69674000Y2322000D02*
X69674000Y4282000D01*
X73074000Y4282000D02*
X73074000Y2322000D01*
X73074000Y2322000D02*
X69674000Y2322000D01*
X95299000Y-21610000D02*
X104599000Y-21610000D01*
X95299000Y-26610000D02*
X95299000Y-21610000D01*
X104599000Y-21610000D02*
X104599000Y-26610000D01*
X104599000Y-26610000D02*
X95299000Y-26610000D01*
X77426400Y14833600D02*
X77426400Y12090400D01*
X77426400Y14833600D02*
X80423600Y14833600D01*
X77426400Y12090400D02*
X80423600Y12090400D01*
X80423600Y14833600D02*
X80423600Y12090400D01*
X47706000Y-3326000D02*
X47706000Y-29326000D01*
X47706000Y-29326000D02*
X53706000Y-29326000D01*
X53706000Y-27326000D02*
X67706000Y-27326000D01*
X53706000Y-29326000D02*
X53706000Y-27326000D01*
X67706000Y-27326000D02*
X67706000Y-29326000D01*
X67706000Y-29326000D02*
X73706000Y-29326000D01*
X73706000Y-3326000D02*
X47706000Y-3326000D01*
X73706000Y-29326000D02*
X73706000Y-3326000D01*
X104992000Y11574000D02*
X97492000Y11574000D01*
X97492000Y11574000D02*
X97492000Y4174000D01*
X104992000Y4174000D02*
X104992000Y11574000D01*
X97492000Y4174000D02*
X104992000Y4174000D01*
M02*
