%TF.GenerationSoftware,KiCad,Pcbnew,7.0.8-7.0.8~ubuntu22.04.1*%
%TF.CreationDate,2023-10-19T12:27:06+02:00*%
%TF.ProjectId,PD_Micro,50445f4d-6963-4726-9f2e-6b696361645f,rev?*%
%TF.SameCoordinates,Original*%
%TF.FileFunction,Legend,Bot*%
%TF.FilePolarity,Positive*%
%FSLAX46Y46*%
G04 Gerber Fmt 4.6, Leading zero omitted, Abs format (unit mm)*
G04 Created by KiCad (PCBNEW 7.0.8-7.0.8~ubuntu22.04.1) date 2023-10-19 12:27:06*
%MOMM*%
%LPD*%
G01*
G04 APERTURE LIST*
G04 Aperture macros list*
%AMRoundRect*
0 Rectangle with rounded corners*
0 $1 Rounding radius*
0 $2 $3 $4 $5 $6 $7 $8 $9 X,Y pos of 4 corners*
0 Add a 4 corners polygon primitive as box body*
4,1,4,$2,$3,$4,$5,$6,$7,$8,$9,$2,$3,0*
0 Add four circle primitives for the rounded corners*
1,1,$1+$1,$2,$3*
1,1,$1+$1,$4,$5*
1,1,$1+$1,$6,$7*
1,1,$1+$1,$8,$9*
0 Add four rect primitives between the rounded corners*
20,1,$1+$1,$2,$3,$4,$5,0*
20,1,$1+$1,$4,$5,$6,$7,0*
20,1,$1+$1,$6,$7,$8,$9,0*
20,1,$1+$1,$8,$9,$2,$3,0*%
G04 Aperture macros list end*
%ADD10C,0.100000*%
%ADD11C,0.150000*%
%ADD12RoundRect,0.070000X-0.425000X-0.425000X0.425000X-0.425000X0.425000X0.425000X-0.425000X0.425000X0*%
%ADD13O,0.990000X0.990000*%
%ADD14RoundRect,0.070000X0.800000X-0.800000X0.800000X0.800000X-0.800000X0.800000X-0.800000X-0.800000X0*%
%ADD15O,1.740000X1.740000*%
%ADD16C,1.940000*%
%ADD17C,1.040000*%
%ADD18O,1.840000X1.840000*%
%ADD19RoundRect,0.070000X0.850000X-0.850000X0.850000X0.850000X-0.850000X0.850000X-0.850000X-0.850000X0*%
%ADD20C,3.140000*%
%ADD21C,1.740000*%
%ADD22RoundRect,0.070000X-1.500000X1.500000X-1.500000X-1.500000X1.500000X-1.500000X1.500000X1.500000X0*%
%ADD23C,0.790000*%
%ADD24RoundRect,0.070000X0.725000X-0.287500X0.725000X0.287500X-0.725000X0.287500X-0.725000X-0.287500X0*%
%ADD25RoundRect,0.070000X0.725000X-0.150000X0.725000X0.150000X-0.725000X0.150000X-0.725000X-0.150000X0*%
%ADD26O,1.740000X1.140000*%
%ADD27O,2.240000X1.140000*%
G04 APERTURE END LIST*
D10*
X201813734Y-118874895D02*
X201813734Y-118074895D01*
X201813734Y-118455847D02*
X201356591Y-118455847D01*
X201356591Y-118874895D02*
X201356591Y-118074895D01*
X201089925Y-118074895D02*
X200632782Y-118074895D01*
X200861354Y-118874895D02*
X200861354Y-118074895D01*
X199985163Y-118874895D02*
X200366115Y-118874895D01*
X200366115Y-118874895D02*
X200366115Y-118074895D01*
X199718496Y-118570133D02*
X199108973Y-118570133D01*
X198270877Y-118874895D02*
X198537544Y-118493942D01*
X198728020Y-118874895D02*
X198728020Y-118074895D01*
X198728020Y-118074895D02*
X198423258Y-118074895D01*
X198423258Y-118074895D02*
X198347068Y-118112990D01*
X198347068Y-118112990D02*
X198308973Y-118151085D01*
X198308973Y-118151085D02*
X198270877Y-118227276D01*
X198270877Y-118227276D02*
X198270877Y-118341561D01*
X198270877Y-118341561D02*
X198308973Y-118417752D01*
X198308973Y-118417752D02*
X198347068Y-118455847D01*
X198347068Y-118455847D02*
X198423258Y-118493942D01*
X198423258Y-118493942D02*
X198728020Y-118493942D01*
X197585163Y-118874895D02*
X197585163Y-118455847D01*
X197585163Y-118455847D02*
X197623258Y-118379657D01*
X197623258Y-118379657D02*
X197699449Y-118341561D01*
X197699449Y-118341561D02*
X197851830Y-118341561D01*
X197851830Y-118341561D02*
X197928020Y-118379657D01*
X197585163Y-118836800D02*
X197661354Y-118874895D01*
X197661354Y-118874895D02*
X197851830Y-118874895D01*
X197851830Y-118874895D02*
X197928020Y-118836800D01*
X197928020Y-118836800D02*
X197966116Y-118760609D01*
X197966116Y-118760609D02*
X197966116Y-118684419D01*
X197966116Y-118684419D02*
X197928020Y-118608228D01*
X197928020Y-118608228D02*
X197851830Y-118570133D01*
X197851830Y-118570133D02*
X197661354Y-118570133D01*
X197661354Y-118570133D02*
X197585163Y-118532038D01*
X197204210Y-118341561D02*
X197204210Y-118874895D01*
X197204210Y-118417752D02*
X197166115Y-118379657D01*
X197166115Y-118379657D02*
X197089925Y-118341561D01*
X197089925Y-118341561D02*
X196975639Y-118341561D01*
X196975639Y-118341561D02*
X196899448Y-118379657D01*
X196899448Y-118379657D02*
X196861353Y-118455847D01*
X196861353Y-118455847D02*
X196861353Y-118874895D01*
X196480400Y-118874895D02*
X196480400Y-118074895D01*
X196404210Y-118570133D02*
X196175638Y-118874895D01*
X196175638Y-118341561D02*
X196480400Y-118646323D01*
X195908972Y-118341561D02*
X195756591Y-118874895D01*
X195756591Y-118874895D02*
X195604210Y-118493942D01*
X195604210Y-118493942D02*
X195451829Y-118874895D01*
X195451829Y-118874895D02*
X195299448Y-118341561D01*
X194689924Y-118836800D02*
X194766115Y-118874895D01*
X194766115Y-118874895D02*
X194918496Y-118874895D01*
X194918496Y-118874895D02*
X194994686Y-118836800D01*
X194994686Y-118836800D02*
X195032782Y-118760609D01*
X195032782Y-118760609D02*
X195032782Y-118455847D01*
X195032782Y-118455847D02*
X194994686Y-118379657D01*
X194994686Y-118379657D02*
X194918496Y-118341561D01*
X194918496Y-118341561D02*
X194766115Y-118341561D01*
X194766115Y-118341561D02*
X194689924Y-118379657D01*
X194689924Y-118379657D02*
X194651829Y-118455847D01*
X194651829Y-118455847D02*
X194651829Y-118532038D01*
X194651829Y-118532038D02*
X195032782Y-118608228D01*
X194308972Y-118874895D02*
X194308972Y-118341561D01*
X194308972Y-118074895D02*
X194347068Y-118112990D01*
X194347068Y-118112990D02*
X194308972Y-118151085D01*
X194308972Y-118151085D02*
X194270877Y-118112990D01*
X194270877Y-118112990D02*
X194308972Y-118074895D01*
X194308972Y-118074895D02*
X194308972Y-118151085D01*
X193813735Y-118874895D02*
X193889925Y-118836800D01*
X193889925Y-118836800D02*
X193928020Y-118760609D01*
X193928020Y-118760609D02*
X193928020Y-118074895D01*
X192556591Y-118341561D02*
X192556591Y-118874895D01*
X192747067Y-118036800D02*
X192937544Y-118608228D01*
X192937544Y-118608228D02*
X192442305Y-118608228D01*
X192175639Y-118646323D02*
X191794686Y-118646323D01*
X192251829Y-118874895D02*
X191985162Y-118074895D01*
X191985162Y-118074895D02*
X191718496Y-118874895D01*
X191451829Y-118874895D02*
X191451829Y-118074895D01*
X191451829Y-118455847D02*
X190994686Y-118455847D01*
X190994686Y-118874895D02*
X190994686Y-118074895D01*
X190613734Y-118455847D02*
X190347068Y-118455847D01*
X190232782Y-118874895D02*
X190613734Y-118874895D01*
X190613734Y-118874895D02*
X190613734Y-118074895D01*
X190613734Y-118074895D02*
X190232782Y-118074895D01*
X189508972Y-118874895D02*
X189889924Y-118874895D01*
X189889924Y-118874895D02*
X189889924Y-118074895D01*
X201813734Y-120162895D02*
X201813734Y-119362895D01*
X201813734Y-119362895D02*
X201547068Y-119934323D01*
X201547068Y-119934323D02*
X201280401Y-119362895D01*
X201280401Y-119362895D02*
X201280401Y-120162895D01*
X200556591Y-120162895D02*
X200556591Y-119743847D01*
X200556591Y-119743847D02*
X200594686Y-119667657D01*
X200594686Y-119667657D02*
X200670877Y-119629561D01*
X200670877Y-119629561D02*
X200823258Y-119629561D01*
X200823258Y-119629561D02*
X200899448Y-119667657D01*
X200556591Y-120124800D02*
X200632782Y-120162895D01*
X200632782Y-120162895D02*
X200823258Y-120162895D01*
X200823258Y-120162895D02*
X200899448Y-120124800D01*
X200899448Y-120124800D02*
X200937544Y-120048609D01*
X200937544Y-120048609D02*
X200937544Y-119972419D01*
X200937544Y-119972419D02*
X200899448Y-119896228D01*
X200899448Y-119896228D02*
X200823258Y-119858133D01*
X200823258Y-119858133D02*
X200632782Y-119858133D01*
X200632782Y-119858133D02*
X200556591Y-119820038D01*
X200175638Y-119629561D02*
X200175638Y-120162895D01*
X200175638Y-119705752D02*
X200137543Y-119667657D01*
X200137543Y-119667657D02*
X200061353Y-119629561D01*
X200061353Y-119629561D02*
X199947067Y-119629561D01*
X199947067Y-119629561D02*
X199870876Y-119667657D01*
X199870876Y-119667657D02*
X199832781Y-119743847D01*
X199832781Y-119743847D02*
X199832781Y-120162895D01*
X199108971Y-119629561D02*
X199108971Y-120162895D01*
X199451828Y-119629561D02*
X199451828Y-120048609D01*
X199451828Y-120048609D02*
X199413733Y-120124800D01*
X199413733Y-120124800D02*
X199337543Y-120162895D01*
X199337543Y-120162895D02*
X199223257Y-120162895D01*
X199223257Y-120162895D02*
X199147066Y-120124800D01*
X199147066Y-120124800D02*
X199108971Y-120086704D01*
X198423256Y-120124800D02*
X198499447Y-120162895D01*
X198499447Y-120162895D02*
X198651828Y-120162895D01*
X198651828Y-120162895D02*
X198728018Y-120124800D01*
X198728018Y-120124800D02*
X198766114Y-120048609D01*
X198766114Y-120048609D02*
X198766114Y-119743847D01*
X198766114Y-119743847D02*
X198728018Y-119667657D01*
X198728018Y-119667657D02*
X198651828Y-119629561D01*
X198651828Y-119629561D02*
X198499447Y-119629561D01*
X198499447Y-119629561D02*
X198423256Y-119667657D01*
X198423256Y-119667657D02*
X198385161Y-119743847D01*
X198385161Y-119743847D02*
X198385161Y-119820038D01*
X198385161Y-119820038D02*
X198766114Y-119896228D01*
X197928019Y-120162895D02*
X198004209Y-120124800D01*
X198004209Y-120124800D02*
X198042304Y-120048609D01*
X198042304Y-120048609D02*
X198042304Y-119362895D01*
X197013732Y-120162895D02*
X197013732Y-119362895D01*
X197013732Y-119362895D02*
X196747066Y-119934323D01*
X196747066Y-119934323D02*
X196480399Y-119362895D01*
X196480399Y-119362895D02*
X196480399Y-120162895D01*
X195756589Y-120162895D02*
X195756589Y-119743847D01*
X195756589Y-119743847D02*
X195794684Y-119667657D01*
X195794684Y-119667657D02*
X195870875Y-119629561D01*
X195870875Y-119629561D02*
X196023256Y-119629561D01*
X196023256Y-119629561D02*
X196099446Y-119667657D01*
X195756589Y-120124800D02*
X195832780Y-120162895D01*
X195832780Y-120162895D02*
X196023256Y-120162895D01*
X196023256Y-120162895D02*
X196099446Y-120124800D01*
X196099446Y-120124800D02*
X196137542Y-120048609D01*
X196137542Y-120048609D02*
X196137542Y-119972419D01*
X196137542Y-119972419D02*
X196099446Y-119896228D01*
X196099446Y-119896228D02*
X196023256Y-119858133D01*
X196023256Y-119858133D02*
X195832780Y-119858133D01*
X195832780Y-119858133D02*
X195756589Y-119820038D01*
X195451827Y-119629561D02*
X195261351Y-120162895D01*
X195070874Y-119629561D02*
X195261351Y-120162895D01*
X195261351Y-120162895D02*
X195337541Y-120353371D01*
X195337541Y-120353371D02*
X195375636Y-120391466D01*
X195375636Y-120391466D02*
X195451827Y-120429561D01*
X194766112Y-120162895D02*
X194766112Y-119629561D01*
X194766112Y-119781942D02*
X194728017Y-119705752D01*
X194728017Y-119705752D02*
X194689922Y-119667657D01*
X194689922Y-119667657D02*
X194613731Y-119629561D01*
X194613731Y-119629561D02*
X194537541Y-119629561D01*
X194270874Y-120162895D02*
X194270874Y-119362895D01*
X193928017Y-120162895D02*
X193928017Y-119743847D01*
X193928017Y-119743847D02*
X193966112Y-119667657D01*
X193966112Y-119667657D02*
X194042303Y-119629561D01*
X194042303Y-119629561D02*
X194156589Y-119629561D01*
X194156589Y-119629561D02*
X194232779Y-119667657D01*
X194232779Y-119667657D02*
X194270874Y-119705752D01*
X193432779Y-120162895D02*
X193508969Y-120124800D01*
X193508969Y-120124800D02*
X193547064Y-120086704D01*
X193547064Y-120086704D02*
X193585160Y-120010514D01*
X193585160Y-120010514D02*
X193585160Y-119781942D01*
X193585160Y-119781942D02*
X193547064Y-119705752D01*
X193547064Y-119705752D02*
X193508969Y-119667657D01*
X193508969Y-119667657D02*
X193432779Y-119629561D01*
X193432779Y-119629561D02*
X193318493Y-119629561D01*
X193318493Y-119629561D02*
X193242302Y-119667657D01*
X193242302Y-119667657D02*
X193204207Y-119705752D01*
X193204207Y-119705752D02*
X193166112Y-119781942D01*
X193166112Y-119781942D02*
X193166112Y-120010514D01*
X193166112Y-120010514D02*
X193204207Y-120086704D01*
X193204207Y-120086704D02*
X193242302Y-120124800D01*
X193242302Y-120124800D02*
X193318493Y-120162895D01*
X193318493Y-120162895D02*
X193432779Y-120162895D01*
X192937540Y-119629561D02*
X192632778Y-119629561D01*
X192823254Y-120162895D02*
X192823254Y-119477180D01*
X192823254Y-119477180D02*
X192785159Y-119400990D01*
X192785159Y-119400990D02*
X192708969Y-119362895D01*
X192708969Y-119362895D02*
X192632778Y-119362895D01*
X192061349Y-120124800D02*
X192137540Y-120162895D01*
X192137540Y-120162895D02*
X192289921Y-120162895D01*
X192289921Y-120162895D02*
X192366111Y-120124800D01*
X192366111Y-120124800D02*
X192404207Y-120048609D01*
X192404207Y-120048609D02*
X192404207Y-119743847D01*
X192404207Y-119743847D02*
X192366111Y-119667657D01*
X192366111Y-119667657D02*
X192289921Y-119629561D01*
X192289921Y-119629561D02*
X192137540Y-119629561D01*
X192137540Y-119629561D02*
X192061349Y-119667657D01*
X192061349Y-119667657D02*
X192023254Y-119743847D01*
X192023254Y-119743847D02*
X192023254Y-119820038D01*
X192023254Y-119820038D02*
X192404207Y-119896228D01*
X191680397Y-120162895D02*
X191680397Y-119629561D01*
X191680397Y-119781942D02*
X191642302Y-119705752D01*
X191642302Y-119705752D02*
X191604207Y-119667657D01*
X191604207Y-119667657D02*
X191528016Y-119629561D01*
X191528016Y-119629561D02*
X191451826Y-119629561D01*
X201585163Y-120650895D02*
X201585163Y-121222323D01*
X201585163Y-121222323D02*
X201623258Y-121336609D01*
X201623258Y-121336609D02*
X201699449Y-121412800D01*
X201699449Y-121412800D02*
X201813734Y-121450895D01*
X201813734Y-121450895D02*
X201889925Y-121450895D01*
X201089925Y-121450895D02*
X201166115Y-121412800D01*
X201166115Y-121412800D02*
X201204210Y-121374704D01*
X201204210Y-121374704D02*
X201242306Y-121298514D01*
X201242306Y-121298514D02*
X201242306Y-121069942D01*
X201242306Y-121069942D02*
X201204210Y-120993752D01*
X201204210Y-120993752D02*
X201166115Y-120955657D01*
X201166115Y-120955657D02*
X201089925Y-120917561D01*
X201089925Y-120917561D02*
X200975639Y-120917561D01*
X200975639Y-120917561D02*
X200899448Y-120955657D01*
X200899448Y-120955657D02*
X200861353Y-120993752D01*
X200861353Y-120993752D02*
X200823258Y-121069942D01*
X200823258Y-121069942D02*
X200823258Y-121298514D01*
X200823258Y-121298514D02*
X200861353Y-121374704D01*
X200861353Y-121374704D02*
X200899448Y-121412800D01*
X200899448Y-121412800D02*
X200975639Y-121450895D01*
X200975639Y-121450895D02*
X201089925Y-121450895D01*
X200480400Y-121450895D02*
X200480400Y-120650895D01*
X200137543Y-121450895D02*
X200137543Y-121031847D01*
X200137543Y-121031847D02*
X200175638Y-120955657D01*
X200175638Y-120955657D02*
X200251829Y-120917561D01*
X200251829Y-120917561D02*
X200366115Y-120917561D01*
X200366115Y-120917561D02*
X200442305Y-120955657D01*
X200442305Y-120955657D02*
X200480400Y-120993752D01*
X199413733Y-121450895D02*
X199413733Y-121031847D01*
X199413733Y-121031847D02*
X199451828Y-120955657D01*
X199451828Y-120955657D02*
X199528019Y-120917561D01*
X199528019Y-120917561D02*
X199680400Y-120917561D01*
X199680400Y-120917561D02*
X199756590Y-120955657D01*
X199413733Y-121412800D02*
X199489924Y-121450895D01*
X199489924Y-121450895D02*
X199680400Y-121450895D01*
X199680400Y-121450895D02*
X199756590Y-121412800D01*
X199756590Y-121412800D02*
X199794686Y-121336609D01*
X199794686Y-121336609D02*
X199794686Y-121260419D01*
X199794686Y-121260419D02*
X199756590Y-121184228D01*
X199756590Y-121184228D02*
X199680400Y-121146133D01*
X199680400Y-121146133D02*
X199489924Y-121146133D01*
X199489924Y-121146133D02*
X199413733Y-121108038D01*
X199032780Y-120917561D02*
X199032780Y-121450895D01*
X199032780Y-120993752D02*
X198994685Y-120955657D01*
X198994685Y-120955657D02*
X198918495Y-120917561D01*
X198918495Y-120917561D02*
X198804209Y-120917561D01*
X198804209Y-120917561D02*
X198728018Y-120955657D01*
X198728018Y-120955657D02*
X198689923Y-121031847D01*
X198689923Y-121031847D02*
X198689923Y-121450895D01*
X198308970Y-120917561D02*
X198308970Y-121450895D01*
X198308970Y-120993752D02*
X198270875Y-120955657D01*
X198270875Y-120955657D02*
X198194685Y-120917561D01*
X198194685Y-120917561D02*
X198080399Y-120917561D01*
X198080399Y-120917561D02*
X198004208Y-120955657D01*
X198004208Y-120955657D02*
X197966113Y-121031847D01*
X197966113Y-121031847D02*
X197966113Y-121450895D01*
X197280398Y-121412800D02*
X197356589Y-121450895D01*
X197356589Y-121450895D02*
X197508970Y-121450895D01*
X197508970Y-121450895D02*
X197585160Y-121412800D01*
X197585160Y-121412800D02*
X197623256Y-121336609D01*
X197623256Y-121336609D02*
X197623256Y-121031847D01*
X197623256Y-121031847D02*
X197585160Y-120955657D01*
X197585160Y-120955657D02*
X197508970Y-120917561D01*
X197508970Y-120917561D02*
X197356589Y-120917561D01*
X197356589Y-120917561D02*
X197280398Y-120955657D01*
X197280398Y-120955657D02*
X197242303Y-121031847D01*
X197242303Y-121031847D02*
X197242303Y-121108038D01*
X197242303Y-121108038D02*
X197623256Y-121184228D01*
X196937542Y-121412800D02*
X196861351Y-121450895D01*
X196861351Y-121450895D02*
X196708970Y-121450895D01*
X196708970Y-121450895D02*
X196632780Y-121412800D01*
X196632780Y-121412800D02*
X196594684Y-121336609D01*
X196594684Y-121336609D02*
X196594684Y-121298514D01*
X196594684Y-121298514D02*
X196632780Y-121222323D01*
X196632780Y-121222323D02*
X196708970Y-121184228D01*
X196708970Y-121184228D02*
X196823256Y-121184228D01*
X196823256Y-121184228D02*
X196899446Y-121146133D01*
X196899446Y-121146133D02*
X196937542Y-121069942D01*
X196937542Y-121069942D02*
X196937542Y-121031847D01*
X196937542Y-121031847D02*
X196899446Y-120955657D01*
X196899446Y-120955657D02*
X196823256Y-120917561D01*
X196823256Y-120917561D02*
X196708970Y-120917561D01*
X196708970Y-120917561D02*
X196632780Y-120955657D01*
X195642303Y-121450895D02*
X195642303Y-120650895D01*
X195642303Y-120650895D02*
X195375637Y-121222323D01*
X195375637Y-121222323D02*
X195108970Y-120650895D01*
X195108970Y-120650895D02*
X195108970Y-121450895D01*
X194423255Y-121412800D02*
X194499446Y-121450895D01*
X194499446Y-121450895D02*
X194651827Y-121450895D01*
X194651827Y-121450895D02*
X194728017Y-121412800D01*
X194728017Y-121412800D02*
X194766113Y-121336609D01*
X194766113Y-121336609D02*
X194766113Y-121031847D01*
X194766113Y-121031847D02*
X194728017Y-120955657D01*
X194728017Y-120955657D02*
X194651827Y-120917561D01*
X194651827Y-120917561D02*
X194499446Y-120917561D01*
X194499446Y-120917561D02*
X194423255Y-120955657D01*
X194423255Y-120955657D02*
X194385160Y-121031847D01*
X194385160Y-121031847D02*
X194385160Y-121108038D01*
X194385160Y-121108038D02*
X194766113Y-121184228D01*
X193928018Y-121450895D02*
X194004208Y-121412800D01*
X194004208Y-121412800D02*
X194042303Y-121336609D01*
X194042303Y-121336609D02*
X194042303Y-120650895D01*
X193280398Y-121412800D02*
X193356589Y-121450895D01*
X193356589Y-121450895D02*
X193508970Y-121450895D01*
X193508970Y-121450895D02*
X193585160Y-121412800D01*
X193585160Y-121412800D02*
X193623255Y-121374704D01*
X193623255Y-121374704D02*
X193661351Y-121298514D01*
X193661351Y-121298514D02*
X193661351Y-121069942D01*
X193661351Y-121069942D02*
X193623255Y-120993752D01*
X193623255Y-120993752D02*
X193585160Y-120955657D01*
X193585160Y-120955657D02*
X193508970Y-120917561D01*
X193508970Y-120917561D02*
X193356589Y-120917561D01*
X193356589Y-120917561D02*
X193280398Y-120955657D01*
X192937541Y-121450895D02*
X192937541Y-120650895D01*
X192594684Y-121450895D02*
X192594684Y-121031847D01*
X192594684Y-121031847D02*
X192632779Y-120955657D01*
X192632779Y-120955657D02*
X192708970Y-120917561D01*
X192708970Y-120917561D02*
X192823256Y-120917561D01*
X192823256Y-120917561D02*
X192899446Y-120955657D01*
X192899446Y-120955657D02*
X192937541Y-120993752D01*
X191908969Y-121412800D02*
X191985160Y-121450895D01*
X191985160Y-121450895D02*
X192137541Y-121450895D01*
X192137541Y-121450895D02*
X192213731Y-121412800D01*
X192213731Y-121412800D02*
X192251827Y-121336609D01*
X192251827Y-121336609D02*
X192251827Y-121031847D01*
X192251827Y-121031847D02*
X192213731Y-120955657D01*
X192213731Y-120955657D02*
X192137541Y-120917561D01*
X192137541Y-120917561D02*
X191985160Y-120917561D01*
X191985160Y-120917561D02*
X191908969Y-120955657D01*
X191908969Y-120955657D02*
X191870874Y-121031847D01*
X191870874Y-121031847D02*
X191870874Y-121108038D01*
X191870874Y-121108038D02*
X192251827Y-121184228D01*
X191528017Y-121450895D02*
X191528017Y-120917561D01*
X191528017Y-121069942D02*
X191489922Y-120993752D01*
X191489922Y-120993752D02*
X191451827Y-120955657D01*
X191451827Y-120955657D02*
X191375636Y-120917561D01*
X191375636Y-120917561D02*
X191299446Y-120917561D01*
X191032779Y-121146133D02*
X190423256Y-121146133D01*
X190042303Y-121450895D02*
X190042303Y-120650895D01*
X190042303Y-120650895D02*
X189775637Y-121222323D01*
X189775637Y-121222323D02*
X189508970Y-120650895D01*
X189508970Y-120650895D02*
X189508970Y-121450895D01*
X189128017Y-121450895D02*
X189128017Y-120917561D01*
X189128017Y-120650895D02*
X189166113Y-120688990D01*
X189166113Y-120688990D02*
X189128017Y-120727085D01*
X189128017Y-120727085D02*
X189089922Y-120688990D01*
X189089922Y-120688990D02*
X189128017Y-120650895D01*
X189128017Y-120650895D02*
X189128017Y-120727085D01*
X188632780Y-121450895D02*
X188708970Y-121412800D01*
X188708970Y-121412800D02*
X188747065Y-121336609D01*
X188747065Y-121336609D02*
X188747065Y-120650895D01*
X188213732Y-121450895D02*
X188289922Y-121412800D01*
X188289922Y-121412800D02*
X188328017Y-121336609D01*
X188328017Y-121336609D02*
X188328017Y-120650895D01*
X187908969Y-120917561D02*
X187908969Y-121450895D01*
X187908969Y-120993752D02*
X187870874Y-120955657D01*
X187870874Y-120955657D02*
X187794684Y-120917561D01*
X187794684Y-120917561D02*
X187680398Y-120917561D01*
X187680398Y-120917561D02*
X187604207Y-120955657D01*
X187604207Y-120955657D02*
X187566112Y-121031847D01*
X187566112Y-121031847D02*
X187566112Y-121450895D01*
X186880397Y-121412800D02*
X186956588Y-121450895D01*
X186956588Y-121450895D02*
X187108969Y-121450895D01*
X187108969Y-121450895D02*
X187185159Y-121412800D01*
X187185159Y-121412800D02*
X187223255Y-121336609D01*
X187223255Y-121336609D02*
X187223255Y-121031847D01*
X187223255Y-121031847D02*
X187185159Y-120955657D01*
X187185159Y-120955657D02*
X187108969Y-120917561D01*
X187108969Y-120917561D02*
X186956588Y-120917561D01*
X186956588Y-120917561D02*
X186880397Y-120955657D01*
X186880397Y-120955657D02*
X186842302Y-121031847D01*
X186842302Y-121031847D02*
X186842302Y-121108038D01*
X186842302Y-121108038D02*
X187223255Y-121184228D01*
X186499445Y-121450895D02*
X186499445Y-120917561D01*
X186499445Y-121069942D02*
X186461350Y-120993752D01*
X186461350Y-120993752D02*
X186423255Y-120955657D01*
X186423255Y-120955657D02*
X186347064Y-120917561D01*
X186347064Y-120917561D02*
X186270874Y-120917561D01*
X201813734Y-121938895D02*
X201813734Y-122586514D01*
X201813734Y-122586514D02*
X201775639Y-122662704D01*
X201775639Y-122662704D02*
X201737544Y-122700800D01*
X201737544Y-122700800D02*
X201661353Y-122738895D01*
X201661353Y-122738895D02*
X201508972Y-122738895D01*
X201508972Y-122738895D02*
X201432782Y-122700800D01*
X201432782Y-122700800D02*
X201394687Y-122662704D01*
X201394687Y-122662704D02*
X201356591Y-122586514D01*
X201356591Y-122586514D02*
X201356591Y-121938895D01*
X201013735Y-122700800D02*
X200899449Y-122738895D01*
X200899449Y-122738895D02*
X200708973Y-122738895D01*
X200708973Y-122738895D02*
X200632782Y-122700800D01*
X200632782Y-122700800D02*
X200594687Y-122662704D01*
X200594687Y-122662704D02*
X200556592Y-122586514D01*
X200556592Y-122586514D02*
X200556592Y-122510323D01*
X200556592Y-122510323D02*
X200594687Y-122434133D01*
X200594687Y-122434133D02*
X200632782Y-122396038D01*
X200632782Y-122396038D02*
X200708973Y-122357942D01*
X200708973Y-122357942D02*
X200861354Y-122319847D01*
X200861354Y-122319847D02*
X200937544Y-122281752D01*
X200937544Y-122281752D02*
X200975639Y-122243657D01*
X200975639Y-122243657D02*
X201013735Y-122167466D01*
X201013735Y-122167466D02*
X201013735Y-122091276D01*
X201013735Y-122091276D02*
X200975639Y-122015085D01*
X200975639Y-122015085D02*
X200937544Y-121976990D01*
X200937544Y-121976990D02*
X200861354Y-121938895D01*
X200861354Y-121938895D02*
X200670877Y-121938895D01*
X200670877Y-121938895D02*
X200556592Y-121976990D01*
X199947068Y-122319847D02*
X199832782Y-122357942D01*
X199832782Y-122357942D02*
X199794687Y-122396038D01*
X199794687Y-122396038D02*
X199756591Y-122472228D01*
X199756591Y-122472228D02*
X199756591Y-122586514D01*
X199756591Y-122586514D02*
X199794687Y-122662704D01*
X199794687Y-122662704D02*
X199832782Y-122700800D01*
X199832782Y-122700800D02*
X199908972Y-122738895D01*
X199908972Y-122738895D02*
X200213734Y-122738895D01*
X200213734Y-122738895D02*
X200213734Y-121938895D01*
X200213734Y-121938895D02*
X199947068Y-121938895D01*
X199947068Y-121938895D02*
X199870877Y-121976990D01*
X199870877Y-121976990D02*
X199832782Y-122015085D01*
X199832782Y-122015085D02*
X199794687Y-122091276D01*
X199794687Y-122091276D02*
X199794687Y-122167466D01*
X199794687Y-122167466D02*
X199832782Y-122243657D01*
X199832782Y-122243657D02*
X199870877Y-122281752D01*
X199870877Y-122281752D02*
X199947068Y-122319847D01*
X199947068Y-122319847D02*
X200213734Y-122319847D01*
X198956591Y-122662704D02*
X198994687Y-122700800D01*
X198994687Y-122700800D02*
X199108972Y-122738895D01*
X199108972Y-122738895D02*
X199185163Y-122738895D01*
X199185163Y-122738895D02*
X199299449Y-122700800D01*
X199299449Y-122700800D02*
X199375639Y-122624609D01*
X199375639Y-122624609D02*
X199413734Y-122548419D01*
X199413734Y-122548419D02*
X199451830Y-122396038D01*
X199451830Y-122396038D02*
X199451830Y-122281752D01*
X199451830Y-122281752D02*
X199413734Y-122129371D01*
X199413734Y-122129371D02*
X199375639Y-122053180D01*
X199375639Y-122053180D02*
X199299449Y-121976990D01*
X199299449Y-121976990D02*
X199185163Y-121938895D01*
X199185163Y-121938895D02*
X199108972Y-121938895D01*
X199108972Y-121938895D02*
X198994687Y-121976990D01*
X198994687Y-121976990D02*
X198956591Y-122015085D01*
X198804211Y-122815085D02*
X198194687Y-122815085D01*
X198004210Y-122738895D02*
X198004210Y-121938895D01*
X198004210Y-121938895D02*
X197699448Y-121938895D01*
X197699448Y-121938895D02*
X197623258Y-121976990D01*
X197623258Y-121976990D02*
X197585163Y-122015085D01*
X197585163Y-122015085D02*
X197547067Y-122091276D01*
X197547067Y-122091276D02*
X197547067Y-122205561D01*
X197547067Y-122205561D02*
X197585163Y-122281752D01*
X197585163Y-122281752D02*
X197623258Y-122319847D01*
X197623258Y-122319847D02*
X197699448Y-122357942D01*
X197699448Y-122357942D02*
X198004210Y-122357942D01*
X197204210Y-122738895D02*
X197204210Y-121938895D01*
X197204210Y-121938895D02*
X197013734Y-121938895D01*
X197013734Y-121938895D02*
X196899448Y-121976990D01*
X196899448Y-121976990D02*
X196823258Y-122053180D01*
X196823258Y-122053180D02*
X196785163Y-122129371D01*
X196785163Y-122129371D02*
X196747067Y-122281752D01*
X196747067Y-122281752D02*
X196747067Y-122396038D01*
X196747067Y-122396038D02*
X196785163Y-122548419D01*
X196785163Y-122548419D02*
X196823258Y-122624609D01*
X196823258Y-122624609D02*
X196899448Y-122700800D01*
X196899448Y-122700800D02*
X197013734Y-122738895D01*
X197013734Y-122738895D02*
X197204210Y-122738895D01*
X196404210Y-122434133D02*
X195794687Y-122434133D01*
X195528020Y-121938895D02*
X195070877Y-121938895D01*
X195299449Y-122738895D02*
X195299449Y-121938895D01*
X194804210Y-122738895D02*
X194804210Y-122205561D01*
X194804210Y-122357942D02*
X194766115Y-122281752D01*
X194766115Y-122281752D02*
X194728020Y-122243657D01*
X194728020Y-122243657D02*
X194651829Y-122205561D01*
X194651829Y-122205561D02*
X194575639Y-122205561D01*
X194308972Y-122738895D02*
X194308972Y-122205561D01*
X194308972Y-121938895D02*
X194347068Y-121976990D01*
X194347068Y-121976990D02*
X194308972Y-122015085D01*
X194308972Y-122015085D02*
X194270877Y-121976990D01*
X194270877Y-121976990D02*
X194308972Y-121938895D01*
X194308972Y-121938895D02*
X194308972Y-122015085D01*
X193585163Y-122205561D02*
X193585163Y-122853180D01*
X193585163Y-122853180D02*
X193623258Y-122929371D01*
X193623258Y-122929371D02*
X193661354Y-122967466D01*
X193661354Y-122967466D02*
X193737544Y-123005561D01*
X193737544Y-123005561D02*
X193851830Y-123005561D01*
X193851830Y-123005561D02*
X193928020Y-122967466D01*
X193585163Y-122700800D02*
X193661354Y-122738895D01*
X193661354Y-122738895D02*
X193813735Y-122738895D01*
X193813735Y-122738895D02*
X193889925Y-122700800D01*
X193889925Y-122700800D02*
X193928020Y-122662704D01*
X193928020Y-122662704D02*
X193966116Y-122586514D01*
X193966116Y-122586514D02*
X193966116Y-122357942D01*
X193966116Y-122357942D02*
X193928020Y-122281752D01*
X193928020Y-122281752D02*
X193889925Y-122243657D01*
X193889925Y-122243657D02*
X193813735Y-122205561D01*
X193813735Y-122205561D02*
X193661354Y-122205561D01*
X193661354Y-122205561D02*
X193585163Y-122243657D01*
X192861353Y-122205561D02*
X192861353Y-122853180D01*
X192861353Y-122853180D02*
X192899448Y-122929371D01*
X192899448Y-122929371D02*
X192937544Y-122967466D01*
X192937544Y-122967466D02*
X193013734Y-123005561D01*
X193013734Y-123005561D02*
X193128020Y-123005561D01*
X193128020Y-123005561D02*
X193204210Y-122967466D01*
X192861353Y-122700800D02*
X192937544Y-122738895D01*
X192937544Y-122738895D02*
X193089925Y-122738895D01*
X193089925Y-122738895D02*
X193166115Y-122700800D01*
X193166115Y-122700800D02*
X193204210Y-122662704D01*
X193204210Y-122662704D02*
X193242306Y-122586514D01*
X193242306Y-122586514D02*
X193242306Y-122357942D01*
X193242306Y-122357942D02*
X193204210Y-122281752D01*
X193204210Y-122281752D02*
X193166115Y-122243657D01*
X193166115Y-122243657D02*
X193089925Y-122205561D01*
X193089925Y-122205561D02*
X192937544Y-122205561D01*
X192937544Y-122205561D02*
X192861353Y-122243657D01*
X192175638Y-122700800D02*
X192251829Y-122738895D01*
X192251829Y-122738895D02*
X192404210Y-122738895D01*
X192404210Y-122738895D02*
X192480400Y-122700800D01*
X192480400Y-122700800D02*
X192518496Y-122624609D01*
X192518496Y-122624609D02*
X192518496Y-122319847D01*
X192518496Y-122319847D02*
X192480400Y-122243657D01*
X192480400Y-122243657D02*
X192404210Y-122205561D01*
X192404210Y-122205561D02*
X192251829Y-122205561D01*
X192251829Y-122205561D02*
X192175638Y-122243657D01*
X192175638Y-122243657D02*
X192137543Y-122319847D01*
X192137543Y-122319847D02*
X192137543Y-122396038D01*
X192137543Y-122396038D02*
X192518496Y-122472228D01*
X191794686Y-122738895D02*
X191794686Y-122205561D01*
X191794686Y-122357942D02*
X191756591Y-122281752D01*
X191756591Y-122281752D02*
X191718496Y-122243657D01*
X191718496Y-122243657D02*
X191642305Y-122205561D01*
X191642305Y-122205561D02*
X191566115Y-122205561D01*
X190766115Y-122205561D02*
X190575639Y-122738895D01*
X190575639Y-122738895D02*
X190385162Y-122205561D01*
X190118496Y-122015085D02*
X190080400Y-121976990D01*
X190080400Y-121976990D02*
X190004210Y-121938895D01*
X190004210Y-121938895D02*
X189813734Y-121938895D01*
X189813734Y-121938895D02*
X189737543Y-121976990D01*
X189737543Y-121976990D02*
X189699448Y-122015085D01*
X189699448Y-122015085D02*
X189661353Y-122091276D01*
X189661353Y-122091276D02*
X189661353Y-122167466D01*
X189661353Y-122167466D02*
X189699448Y-122281752D01*
X189699448Y-122281752D02*
X190156591Y-122738895D01*
X190156591Y-122738895D02*
X189661353Y-122738895D01*
X189318495Y-122662704D02*
X189280400Y-122700800D01*
X189280400Y-122700800D02*
X189318495Y-122738895D01*
X189318495Y-122738895D02*
X189356591Y-122700800D01*
X189356591Y-122700800D02*
X189318495Y-122662704D01*
X189318495Y-122662704D02*
X189318495Y-122738895D01*
X188518496Y-122738895D02*
X188975639Y-122738895D01*
X188747067Y-122738895D02*
X188747067Y-121938895D01*
X188747067Y-121938895D02*
X188823258Y-122053180D01*
X188823258Y-122053180D02*
X188899448Y-122129371D01*
X188899448Y-122129371D02*
X188975639Y-122167466D01*
D11*
X175978295Y-99879524D02*
X176625914Y-99879524D01*
X176625914Y-99879524D02*
X176702104Y-99917619D01*
X176702104Y-99917619D02*
X176740200Y-99955714D01*
X176740200Y-99955714D02*
X176778295Y-100031905D01*
X176778295Y-100031905D02*
X176778295Y-100184286D01*
X176778295Y-100184286D02*
X176740200Y-100260476D01*
X176740200Y-100260476D02*
X176702104Y-100298571D01*
X176702104Y-100298571D02*
X176625914Y-100336667D01*
X176625914Y-100336667D02*
X175978295Y-100336667D01*
X176740200Y-100679523D02*
X176778295Y-100793809D01*
X176778295Y-100793809D02*
X176778295Y-100984285D01*
X176778295Y-100984285D02*
X176740200Y-101060476D01*
X176740200Y-101060476D02*
X176702104Y-101098571D01*
X176702104Y-101098571D02*
X176625914Y-101136666D01*
X176625914Y-101136666D02*
X176549723Y-101136666D01*
X176549723Y-101136666D02*
X176473533Y-101098571D01*
X176473533Y-101098571D02*
X176435438Y-101060476D01*
X176435438Y-101060476D02*
X176397342Y-100984285D01*
X176397342Y-100984285D02*
X176359247Y-100831904D01*
X176359247Y-100831904D02*
X176321152Y-100755714D01*
X176321152Y-100755714D02*
X176283057Y-100717619D01*
X176283057Y-100717619D02*
X176206866Y-100679523D01*
X176206866Y-100679523D02*
X176130676Y-100679523D01*
X176130676Y-100679523D02*
X176054485Y-100717619D01*
X176054485Y-100717619D02*
X176016390Y-100755714D01*
X176016390Y-100755714D02*
X175978295Y-100831904D01*
X175978295Y-100831904D02*
X175978295Y-101022381D01*
X175978295Y-101022381D02*
X176016390Y-101136666D01*
X176359247Y-101746190D02*
X176397342Y-101860476D01*
X176397342Y-101860476D02*
X176435438Y-101898571D01*
X176435438Y-101898571D02*
X176511628Y-101936667D01*
X176511628Y-101936667D02*
X176625914Y-101936667D01*
X176625914Y-101936667D02*
X176702104Y-101898571D01*
X176702104Y-101898571D02*
X176740200Y-101860476D01*
X176740200Y-101860476D02*
X176778295Y-101784286D01*
X176778295Y-101784286D02*
X176778295Y-101479524D01*
X176778295Y-101479524D02*
X175978295Y-101479524D01*
X175978295Y-101479524D02*
X175978295Y-101746190D01*
X175978295Y-101746190D02*
X176016390Y-101822381D01*
X176016390Y-101822381D02*
X176054485Y-101860476D01*
X176054485Y-101860476D02*
X176130676Y-101898571D01*
X176130676Y-101898571D02*
X176206866Y-101898571D01*
X176206866Y-101898571D02*
X176283057Y-101860476D01*
X176283057Y-101860476D02*
X176321152Y-101822381D01*
X176321152Y-101822381D02*
X176359247Y-101746190D01*
X176359247Y-101746190D02*
X176359247Y-101479524D01*
X176778295Y-102698571D02*
X176778295Y-102241428D01*
X176778295Y-102470000D02*
X175978295Y-102470000D01*
X175978295Y-102470000D02*
X176092580Y-102393809D01*
X176092580Y-102393809D02*
X176168771Y-102317619D01*
X176168771Y-102317619D02*
X176206866Y-102241428D01*
%LPC*%
D12*
X231915000Y-113970000D03*
X235090000Y-117780000D03*
D13*
X235090000Y-118780000D03*
D14*
X208928000Y-127643500D03*
D15*
X211468000Y-127643500D03*
X214008000Y-127643500D03*
X216548000Y-127643500D03*
X219088000Y-127643500D03*
X221628000Y-127643500D03*
X221628000Y-120023500D03*
X219088000Y-120023500D03*
X216548000Y-120023500D03*
X214008000Y-120023500D03*
X211468000Y-120023500D03*
X208928000Y-120023500D03*
D16*
X235000000Y-138000000D03*
D12*
X227470000Y-117780000D03*
D13*
X227470000Y-118780000D03*
D16*
X235000000Y-89000000D03*
D17*
X218985000Y-138209000D03*
X221985000Y-138209000D03*
D12*
X229375000Y-113970000D03*
D16*
X177000000Y-89000000D03*
X177000000Y-138000000D03*
D18*
X177940000Y-110160000D03*
X180480000Y-110160000D03*
D19*
X183020000Y-110160000D03*
D18*
X185560000Y-110160000D03*
X188100000Y-110160000D03*
X190640000Y-110160000D03*
X193180000Y-110160000D03*
D19*
X195720000Y-110160000D03*
D18*
X198260000Y-110160000D03*
X200800000Y-110160000D03*
X203340000Y-110160000D03*
X205880000Y-110160000D03*
D19*
X208420000Y-110160000D03*
D18*
X210960000Y-110160000D03*
X213500000Y-110160000D03*
X216040000Y-110160000D03*
X218580000Y-110160000D03*
D19*
X221120000Y-110160000D03*
D18*
X223660000Y-110160000D03*
X226200000Y-110160000D03*
X226200000Y-92380000D03*
X223660000Y-92380000D03*
D19*
X221120000Y-92380000D03*
D18*
X218580000Y-92380000D03*
X216040000Y-92380000D03*
X213500000Y-92380000D03*
X210960000Y-92380000D03*
D19*
X208420000Y-92380000D03*
D18*
X205880000Y-92380000D03*
X203340000Y-92380000D03*
X200800000Y-92380000D03*
X198260000Y-92380000D03*
D19*
X195720000Y-92380000D03*
D18*
X193180000Y-92380000D03*
X190640000Y-92380000D03*
X188100000Y-92380000D03*
X185560000Y-92380000D03*
D19*
X183020000Y-92380000D03*
D18*
X180480000Y-92380000D03*
X177940000Y-92380000D03*
D17*
X209206000Y-138176000D03*
X212206000Y-138176000D03*
D12*
X232550000Y-117780000D03*
D13*
X232550000Y-118780000D03*
D20*
X180656000Y-114216000D03*
X180656000Y-136216000D03*
X202656000Y-114216000D03*
X202656000Y-136216000D03*
D21*
X187846000Y-113716000D03*
X190386000Y-113716000D03*
X192926000Y-113716000D03*
X195466000Y-113716000D03*
D12*
X230010000Y-117780000D03*
D13*
X230010000Y-118780000D03*
D22*
X232550000Y-98857000D03*
D20*
X232550000Y-103937000D03*
D23*
X180105000Y-104160000D03*
X180105000Y-98380000D03*
D24*
X181550000Y-104495000D03*
X181550000Y-103720000D03*
D25*
X181550000Y-103020000D03*
X181550000Y-102520000D03*
X181550000Y-102020000D03*
X181550000Y-101520000D03*
X181550000Y-101020000D03*
X181550000Y-100520000D03*
X181550000Y-100020000D03*
X181550000Y-99520000D03*
D24*
X181550000Y-98820000D03*
X181550000Y-98045000D03*
D26*
X176455000Y-105590000D03*
D27*
X180635000Y-105590000D03*
D26*
X176455000Y-96950000D03*
D27*
X180635000Y-96950000D03*
%LPD*%
M02*
