%TF.GenerationSoftware,KiCad,Pcbnew,7.0.7*%
%TF.CreationDate,2023-10-12T19:56:55+02:00*%
%TF.ProjectId,PD_Micro,50445f4d-6963-4726-9f2e-6b696361645f,rev?*%
%TF.SameCoordinates,PX7ce2370PY67d8790*%
%TF.FileFunction,Legend,Top*%
%TF.FilePolarity,Positive*%
%FSLAX46Y46*%
G04 Gerber Fmt 4.6, Leading zero omitted, Abs format (unit mm)*
G04 Created by KiCad (PCBNEW 7.0.7) date 2023-10-12 19:56:55*
%MOMM*%
%LPD*%
G01*
G04 APERTURE LIST*
G04 Aperture macros list*
%AMRoundRect*
0 Rectangle with rounded corners*
0 $1 Rounding radius*
0 $2 $3 $4 $5 $6 $7 $8 $9 X,Y pos of 4 corners*
0 Add a 4 corners polygon primitive as box body*
4,1,4,$2,$3,$4,$5,$6,$7,$8,$9,$2,$3,0*
0 Add four circle primitives for the rounded corners*
1,1,$1+$1,$2,$3*
1,1,$1+$1,$4,$5*
1,1,$1+$1,$6,$7*
1,1,$1+$1,$8,$9*
0 Add four rect primitives between the rounded corners*
20,1,$1+$1,$2,$3,$4,$5,0*
20,1,$1+$1,$4,$5,$6,$7,0*
20,1,$1+$1,$6,$7,$8,$9,0*
20,1,$1+$1,$8,$9,$2,$3,0*%
G04 Aperture macros list end*
%ADD10C,0.100000*%
%ADD11C,0.150000*%
%ADD12C,0.120000*%
%ADD13C,0.300000*%
%ADD14C,0.400000*%
%ADD15C,0.200000*%
%ADD16C,1.140000*%
%ADD17RoundRect,0.132500X-0.375000X-0.062500X0.375000X-0.062500X0.375000X0.062500X-0.375000X0.062500X0*%
%ADD18RoundRect,0.132500X-0.062500X-0.375000X0.062500X-0.375000X0.062500X0.375000X-0.062500X0.375000X0*%
%ADD19RoundRect,0.070000X-1.300000X-1.300000X1.300000X-1.300000X1.300000X1.300000X-1.300000X1.300000X0*%
%ADD20RoundRect,0.210000X0.560000X1.810000X-0.560000X1.810000X-0.560000X-1.810000X0.560000X-1.810000X0*%
%ADD21RoundRect,0.320000X-0.475000X0.250000X-0.475000X-0.250000X0.475000X-0.250000X0.475000X0.250000X0*%
%ADD22RoundRect,0.320000X-0.250000X-0.475000X0.250000X-0.475000X0.250000X0.475000X-0.250000X0.475000X0*%
%ADD23RoundRect,0.070000X-0.425000X-0.425000X0.425000X-0.425000X0.425000X0.425000X-0.425000X0.425000X0*%
%ADD24O,0.220000X0.020000*%
%ADD25RoundRect,0.070000X-0.250000X-0.125000X0.250000X-0.125000X0.250000X0.125000X-0.250000X0.125000X0*%
%ADD26RoundRect,0.070000X-0.420000X-1.200000X0.420000X-1.200000X0.420000X1.200000X-0.420000X1.200000X0*%
%ADD27RoundRect,0.320000X0.250000X0.475000X-0.250000X0.475000X-0.250000X-0.475000X0.250000X-0.475000X0*%
%ADD28RoundRect,0.070000X-0.750000X-0.500000X0.750000X-0.500000X0.750000X0.500000X-0.750000X0.500000X0*%
%ADD29RoundRect,0.070000X0.450000X0.600000X-0.450000X0.600000X-0.450000X-0.600000X0.450000X-0.600000X0*%
%ADD30RoundRect,0.320000X0.475000X-0.250000X0.475000X0.250000X-0.475000X0.250000X-0.475000X-0.250000X0*%
%ADD31RoundRect,0.200000X0.470000X0.195000X-0.470000X0.195000X-0.470000X-0.195000X0.470000X-0.195000X0*%
%ADD32O,0.990000X0.990000*%
%ADD33RoundRect,0.070000X0.800000X-0.800000X0.800000X0.800000X-0.800000X0.800000X-0.800000X-0.800000X0*%
%ADD34O,1.740000X1.740000*%
%ADD35C,1.940000*%
%ADD36RoundRect,0.320000X0.262500X0.450000X-0.262500X0.450000X-0.262500X-0.450000X0.262500X-0.450000X0*%
%ADD37RoundRect,0.195000X-0.125000X-0.275000X0.125000X-0.275000X0.125000X0.275000X-0.125000X0.275000X0*%
%ADD38RoundRect,0.320000X-0.450000X0.262500X-0.450000X-0.262500X0.450000X-0.262500X0.450000X0.262500X0*%
%ADD39RoundRect,0.320000X-0.262500X-0.450000X0.262500X-0.450000X0.262500X0.450000X-0.262500X0.450000X0*%
%ADD40RoundRect,0.070000X-0.500000X-0.400000X0.500000X-0.400000X0.500000X0.400000X-0.500000X0.400000X0*%
%ADD41C,1.040000*%
%ADD42RoundRect,0.070000X-0.350000X-0.750000X0.350000X-0.750000X0.350000X0.750000X-0.350000X0.750000X0*%
%ADD43RoundRect,0.320000X0.450000X-0.262500X0.450000X0.262500X-0.450000X0.262500X-0.450000X-0.262500X0*%
%ADD44RoundRect,0.220000X-0.825000X-0.150000X0.825000X-0.150000X0.825000X0.150000X-0.825000X0.150000X0*%
%ADD45RoundRect,0.070000X-0.800000X-0.700000X0.800000X-0.700000X0.800000X0.700000X-0.800000X0.700000X0*%
%ADD46O,1.840000X1.840000*%
%ADD47C,2.440000*%
%ADD48RoundRect,0.070000X0.850000X-0.850000X0.850000X0.850000X-0.850000X0.850000X-0.850000X-0.850000X0*%
%ADD49RoundRect,0.070000X1.150000X-1.150000X1.150000X1.150000X-1.150000X1.150000X-1.150000X-1.150000X0*%
%ADD50C,2.040000*%
%ADD51RoundRect,0.210000X1.810000X-0.560000X1.810000X0.560000X-1.810000X0.560000X-1.810000X-0.560000X0*%
%ADD52RoundRect,0.070000X-0.350000X-0.190000X0.350000X-0.190000X0.350000X0.190000X-0.350000X0.190000X0*%
%ADD53RoundRect,0.270100X-0.489900X-0.649900X0.489900X-0.649900X0.489900X0.649900X-0.489900X0.649900X0*%
%ADD54C,3.140000*%
%ADD55C,1.740000*%
%ADD56RoundRect,0.670000X-0.600000X0.600000X-0.600000X-0.600000X0.600000X-0.600000X0.600000X0.600000X0*%
%ADD57C,2.540000*%
%ADD58C,0.790000*%
%ADD59O,1.740000X1.140000*%
%ADD60O,2.240000X1.140000*%
G04 APERTURE END LIST*
D10*
X94375979Y-11288895D02*
X94642646Y-12088895D01*
X94642646Y-12088895D02*
X94909312Y-11288895D01*
X95442645Y-11669847D02*
X95556931Y-11707942D01*
X95556931Y-11707942D02*
X95595026Y-11746038D01*
X95595026Y-11746038D02*
X95633122Y-11822228D01*
X95633122Y-11822228D02*
X95633122Y-11936514D01*
X95633122Y-11936514D02*
X95595026Y-12012704D01*
X95595026Y-12012704D02*
X95556931Y-12050800D01*
X95556931Y-12050800D02*
X95480741Y-12088895D01*
X95480741Y-12088895D02*
X95175979Y-12088895D01*
X95175979Y-12088895D02*
X95175979Y-11288895D01*
X95175979Y-11288895D02*
X95442645Y-11288895D01*
X95442645Y-11288895D02*
X95518836Y-11326990D01*
X95518836Y-11326990D02*
X95556931Y-11365085D01*
X95556931Y-11365085D02*
X95595026Y-11441276D01*
X95595026Y-11441276D02*
X95595026Y-11517466D01*
X95595026Y-11517466D02*
X95556931Y-11593657D01*
X95556931Y-11593657D02*
X95518836Y-11631752D01*
X95518836Y-11631752D02*
X95442645Y-11669847D01*
X95442645Y-11669847D02*
X95175979Y-11669847D01*
X95975979Y-11288895D02*
X95975979Y-11936514D01*
X95975979Y-11936514D02*
X96014074Y-12012704D01*
X96014074Y-12012704D02*
X96052169Y-12050800D01*
X96052169Y-12050800D02*
X96128360Y-12088895D01*
X96128360Y-12088895D02*
X96280741Y-12088895D01*
X96280741Y-12088895D02*
X96356931Y-12050800D01*
X96356931Y-12050800D02*
X96395026Y-12012704D01*
X96395026Y-12012704D02*
X96433122Y-11936514D01*
X96433122Y-11936514D02*
X96433122Y-11288895D01*
X96775978Y-12050800D02*
X96890264Y-12088895D01*
X96890264Y-12088895D02*
X97080740Y-12088895D01*
X97080740Y-12088895D02*
X97156931Y-12050800D01*
X97156931Y-12050800D02*
X97195026Y-12012704D01*
X97195026Y-12012704D02*
X97233121Y-11936514D01*
X97233121Y-11936514D02*
X97233121Y-11860323D01*
X97233121Y-11860323D02*
X97195026Y-11784133D01*
X97195026Y-11784133D02*
X97156931Y-11746038D01*
X97156931Y-11746038D02*
X97080740Y-11707942D01*
X97080740Y-11707942D02*
X96928359Y-11669847D01*
X96928359Y-11669847D02*
X96852169Y-11631752D01*
X96852169Y-11631752D02*
X96814074Y-11593657D01*
X96814074Y-11593657D02*
X96775978Y-11517466D01*
X96775978Y-11517466D02*
X96775978Y-11441276D01*
X96775978Y-11441276D02*
X96814074Y-11365085D01*
X96814074Y-11365085D02*
X96852169Y-11326990D01*
X96852169Y-11326990D02*
X96928359Y-11288895D01*
X96928359Y-11288895D02*
X97118836Y-11288895D01*
X97118836Y-11288895D02*
X97233121Y-11326990D01*
X98566455Y-11288895D02*
X98185503Y-11288895D01*
X98185503Y-11288895D02*
X98147407Y-11669847D01*
X98147407Y-11669847D02*
X98185503Y-11631752D01*
X98185503Y-11631752D02*
X98261693Y-11593657D01*
X98261693Y-11593657D02*
X98452169Y-11593657D01*
X98452169Y-11593657D02*
X98528360Y-11631752D01*
X98528360Y-11631752D02*
X98566455Y-11669847D01*
X98566455Y-11669847D02*
X98604550Y-11746038D01*
X98604550Y-11746038D02*
X98604550Y-11936514D01*
X98604550Y-11936514D02*
X98566455Y-12012704D01*
X98566455Y-12012704D02*
X98528360Y-12050800D01*
X98528360Y-12050800D02*
X98452169Y-12088895D01*
X98452169Y-12088895D02*
X98261693Y-12088895D01*
X98261693Y-12088895D02*
X98185503Y-12050800D01*
X98185503Y-12050800D02*
X98147407Y-12012704D01*
X98833122Y-11288895D02*
X99099789Y-12088895D01*
X99099789Y-12088895D02*
X99366455Y-11288895D01*
X100166455Y-11288895D02*
X100661693Y-11288895D01*
X100661693Y-11288895D02*
X100395027Y-11593657D01*
X100395027Y-11593657D02*
X100509312Y-11593657D01*
X100509312Y-11593657D02*
X100585503Y-11631752D01*
X100585503Y-11631752D02*
X100623598Y-11669847D01*
X100623598Y-11669847D02*
X100661693Y-11746038D01*
X100661693Y-11746038D02*
X100661693Y-11936514D01*
X100661693Y-11936514D02*
X100623598Y-12012704D01*
X100623598Y-12012704D02*
X100585503Y-12050800D01*
X100585503Y-12050800D02*
X100509312Y-12088895D01*
X100509312Y-12088895D02*
X100280741Y-12088895D01*
X100280741Y-12088895D02*
X100204550Y-12050800D01*
X100204550Y-12050800D02*
X100166455Y-12012704D01*
X101004551Y-12012704D02*
X101042646Y-12050800D01*
X101042646Y-12050800D02*
X101004551Y-12088895D01*
X101004551Y-12088895D02*
X100966455Y-12050800D01*
X100966455Y-12050800D02*
X101004551Y-12012704D01*
X101004551Y-12012704D02*
X101004551Y-12088895D01*
X101309312Y-11288895D02*
X101804550Y-11288895D01*
X101804550Y-11288895D02*
X101537884Y-11593657D01*
X101537884Y-11593657D02*
X101652169Y-11593657D01*
X101652169Y-11593657D02*
X101728360Y-11631752D01*
X101728360Y-11631752D02*
X101766455Y-11669847D01*
X101766455Y-11669847D02*
X101804550Y-11746038D01*
X101804550Y-11746038D02*
X101804550Y-11936514D01*
X101804550Y-11936514D02*
X101766455Y-12012704D01*
X101766455Y-12012704D02*
X101728360Y-12050800D01*
X101728360Y-12050800D02*
X101652169Y-12088895D01*
X101652169Y-12088895D02*
X101423598Y-12088895D01*
X101423598Y-12088895D02*
X101347407Y-12050800D01*
X101347407Y-12050800D02*
X101309312Y-12012704D01*
X102033122Y-11288895D02*
X102299789Y-12088895D01*
X102299789Y-12088895D02*
X102566455Y-11288895D01*
X103861693Y-11326990D02*
X103785503Y-11288895D01*
X103785503Y-11288895D02*
X103671217Y-11288895D01*
X103671217Y-11288895D02*
X103556931Y-11326990D01*
X103556931Y-11326990D02*
X103480741Y-11403180D01*
X103480741Y-11403180D02*
X103442646Y-11479371D01*
X103442646Y-11479371D02*
X103404550Y-11631752D01*
X103404550Y-11631752D02*
X103404550Y-11746038D01*
X103404550Y-11746038D02*
X103442646Y-11898419D01*
X103442646Y-11898419D02*
X103480741Y-11974609D01*
X103480741Y-11974609D02*
X103556931Y-12050800D01*
X103556931Y-12050800D02*
X103671217Y-12088895D01*
X103671217Y-12088895D02*
X103747408Y-12088895D01*
X103747408Y-12088895D02*
X103861693Y-12050800D01*
X103861693Y-12050800D02*
X103899789Y-12012704D01*
X103899789Y-12012704D02*
X103899789Y-11746038D01*
X103899789Y-11746038D02*
X103747408Y-11746038D01*
X104242646Y-12088895D02*
X104242646Y-11288895D01*
X104242646Y-11288895D02*
X104699789Y-12088895D01*
X104699789Y-12088895D02*
X104699789Y-11288895D01*
X105080741Y-12088895D02*
X105080741Y-11288895D01*
X105080741Y-11288895D02*
X105271217Y-11288895D01*
X105271217Y-11288895D02*
X105385503Y-11326990D01*
X105385503Y-11326990D02*
X105461693Y-11403180D01*
X105461693Y-11403180D02*
X105499788Y-11479371D01*
X105499788Y-11479371D02*
X105537884Y-11631752D01*
X105537884Y-11631752D02*
X105537884Y-11746038D01*
X105537884Y-11746038D02*
X105499788Y-11898419D01*
X105499788Y-11898419D02*
X105461693Y-11974609D01*
X105461693Y-11974609D02*
X105385503Y-12050800D01*
X105385503Y-12050800D02*
X105271217Y-12088895D01*
X105271217Y-12088895D02*
X105080741Y-12088895D01*
D11*
X85613952Y-21282819D02*
X85042524Y-21282819D01*
X85328238Y-21282819D02*
X85328238Y-20282819D01*
X85328238Y-20282819D02*
X85233000Y-20425676D01*
X85233000Y-20425676D02*
X85137762Y-20520914D01*
X85137762Y-20520914D02*
X85042524Y-20568533D01*
X86518714Y-20282819D02*
X86042524Y-20282819D01*
X86042524Y-20282819D02*
X85994905Y-20759009D01*
X85994905Y-20759009D02*
X86042524Y-20711390D01*
X86042524Y-20711390D02*
X86137762Y-20663771D01*
X86137762Y-20663771D02*
X86375857Y-20663771D01*
X86375857Y-20663771D02*
X86471095Y-20711390D01*
X86471095Y-20711390D02*
X86518714Y-20759009D01*
X86518714Y-20759009D02*
X86566333Y-20854247D01*
X86566333Y-20854247D02*
X86566333Y-21092342D01*
X86566333Y-21092342D02*
X86518714Y-21187580D01*
X86518714Y-21187580D02*
X86471095Y-21235200D01*
X86471095Y-21235200D02*
X86375857Y-21282819D01*
X86375857Y-21282819D02*
X86137762Y-21282819D01*
X86137762Y-21282819D02*
X86042524Y-21235200D01*
X86042524Y-21235200D02*
X85994905Y-21187580D01*
X86852048Y-20282819D02*
X87185381Y-21282819D01*
X87185381Y-21282819D02*
X87518714Y-20282819D01*
D10*
X90197646Y-7605895D02*
X90350027Y-7605895D01*
X90350027Y-7605895D02*
X90426217Y-7643990D01*
X90426217Y-7643990D02*
X90502408Y-7720180D01*
X90502408Y-7720180D02*
X90540503Y-7872561D01*
X90540503Y-7872561D02*
X90540503Y-8139228D01*
X90540503Y-8139228D02*
X90502408Y-8291609D01*
X90502408Y-8291609D02*
X90426217Y-8367800D01*
X90426217Y-8367800D02*
X90350027Y-8405895D01*
X90350027Y-8405895D02*
X90197646Y-8405895D01*
X90197646Y-8405895D02*
X90121455Y-8367800D01*
X90121455Y-8367800D02*
X90045265Y-8291609D01*
X90045265Y-8291609D02*
X90007169Y-8139228D01*
X90007169Y-8139228D02*
X90007169Y-7872561D01*
X90007169Y-7872561D02*
X90045265Y-7720180D01*
X90045265Y-7720180D02*
X90121455Y-7643990D01*
X90121455Y-7643990D02*
X90197646Y-7605895D01*
X90883360Y-7605895D02*
X90883360Y-8253514D01*
X90883360Y-8253514D02*
X90921455Y-8329704D01*
X90921455Y-8329704D02*
X90959550Y-8367800D01*
X90959550Y-8367800D02*
X91035741Y-8405895D01*
X91035741Y-8405895D02*
X91188122Y-8405895D01*
X91188122Y-8405895D02*
X91264312Y-8367800D01*
X91264312Y-8367800D02*
X91302407Y-8329704D01*
X91302407Y-8329704D02*
X91340503Y-8253514D01*
X91340503Y-8253514D02*
X91340503Y-7605895D01*
X91607169Y-7605895D02*
X92064312Y-7605895D01*
X91835740Y-8405895D02*
X91835740Y-7605895D01*
X92330979Y-7986847D02*
X92597645Y-7986847D01*
X92711931Y-8405895D02*
X92330979Y-8405895D01*
X92330979Y-8405895D02*
X92330979Y-7605895D01*
X92330979Y-7605895D02*
X92711931Y-7605895D01*
X93054789Y-8405895D02*
X93054789Y-7605895D01*
X93054789Y-7605895D02*
X93511932Y-8405895D01*
X93511932Y-8405895D02*
X93511932Y-7605895D01*
D11*
X99036286Y-12281819D02*
X99036286Y-13091342D01*
X99036286Y-13091342D02*
X99083905Y-13186580D01*
X99083905Y-13186580D02*
X99131524Y-13234200D01*
X99131524Y-13234200D02*
X99226762Y-13281819D01*
X99226762Y-13281819D02*
X99417238Y-13281819D01*
X99417238Y-13281819D02*
X99512476Y-13234200D01*
X99512476Y-13234200D02*
X99560095Y-13186580D01*
X99560095Y-13186580D02*
X99607714Y-13091342D01*
X99607714Y-13091342D02*
X99607714Y-12281819D01*
X100083905Y-13281819D02*
X100083905Y-12281819D01*
X100083905Y-12281819D02*
X100464857Y-12281819D01*
X100464857Y-12281819D02*
X100560095Y-12329438D01*
X100560095Y-12329438D02*
X100607714Y-12377057D01*
X100607714Y-12377057D02*
X100655333Y-12472295D01*
X100655333Y-12472295D02*
X100655333Y-12615152D01*
X100655333Y-12615152D02*
X100607714Y-12710390D01*
X100607714Y-12710390D02*
X100560095Y-12758009D01*
X100560095Y-12758009D02*
X100464857Y-12805628D01*
X100464857Y-12805628D02*
X100083905Y-12805628D01*
X91702095Y-21366819D02*
X91702095Y-20366819D01*
X91702095Y-20366819D02*
X92083047Y-20366819D01*
X92083047Y-20366819D02*
X92178285Y-20414438D01*
X92178285Y-20414438D02*
X92225904Y-20462057D01*
X92225904Y-20462057D02*
X92273523Y-20557295D01*
X92273523Y-20557295D02*
X92273523Y-20700152D01*
X92273523Y-20700152D02*
X92225904Y-20795390D01*
X92225904Y-20795390D02*
X92178285Y-20843009D01*
X92178285Y-20843009D02*
X92083047Y-20890628D01*
X92083047Y-20890628D02*
X91702095Y-20890628D01*
X92654476Y-21319200D02*
X92797333Y-21366819D01*
X92797333Y-21366819D02*
X93035428Y-21366819D01*
X93035428Y-21366819D02*
X93130666Y-21319200D01*
X93130666Y-21319200D02*
X93178285Y-21271580D01*
X93178285Y-21271580D02*
X93225904Y-21176342D01*
X93225904Y-21176342D02*
X93225904Y-21081104D01*
X93225904Y-21081104D02*
X93178285Y-20985866D01*
X93178285Y-20985866D02*
X93130666Y-20938247D01*
X93130666Y-20938247D02*
X93035428Y-20890628D01*
X93035428Y-20890628D02*
X92844952Y-20843009D01*
X92844952Y-20843009D02*
X92749714Y-20795390D01*
X92749714Y-20795390D02*
X92702095Y-20747771D01*
X92702095Y-20747771D02*
X92654476Y-20652533D01*
X92654476Y-20652533D02*
X92654476Y-20557295D01*
X92654476Y-20557295D02*
X92702095Y-20462057D01*
X92702095Y-20462057D02*
X92749714Y-20414438D01*
X92749714Y-20414438D02*
X92844952Y-20366819D01*
X92844952Y-20366819D02*
X93083047Y-20366819D01*
X93083047Y-20366819D02*
X93225904Y-20414438D01*
X93654476Y-20366819D02*
X93654476Y-21176342D01*
X93654476Y-21176342D02*
X93702095Y-21271580D01*
X93702095Y-21271580D02*
X93749714Y-21319200D01*
X93749714Y-21319200D02*
X93844952Y-21366819D01*
X93844952Y-21366819D02*
X94035428Y-21366819D01*
X94035428Y-21366819D02*
X94130666Y-21319200D01*
X94130666Y-21319200D02*
X94178285Y-21271580D01*
X94178285Y-21271580D02*
X94225904Y-21176342D01*
X94225904Y-21176342D02*
X94225904Y-20366819D01*
X91297333Y-22976819D02*
X91297333Y-21976819D01*
X91297333Y-21976819D02*
X91630666Y-22691104D01*
X91630666Y-22691104D02*
X91963999Y-21976819D01*
X91963999Y-21976819D02*
X91963999Y-22976819D01*
X92583047Y-22976819D02*
X92487809Y-22929200D01*
X92487809Y-22929200D02*
X92440190Y-22881580D01*
X92440190Y-22881580D02*
X92392571Y-22786342D01*
X92392571Y-22786342D02*
X92392571Y-22500628D01*
X92392571Y-22500628D02*
X92440190Y-22405390D01*
X92440190Y-22405390D02*
X92487809Y-22357771D01*
X92487809Y-22357771D02*
X92583047Y-22310152D01*
X92583047Y-22310152D02*
X92725904Y-22310152D01*
X92725904Y-22310152D02*
X92821142Y-22357771D01*
X92821142Y-22357771D02*
X92868761Y-22405390D01*
X92868761Y-22405390D02*
X92916380Y-22500628D01*
X92916380Y-22500628D02*
X92916380Y-22786342D01*
X92916380Y-22786342D02*
X92868761Y-22881580D01*
X92868761Y-22881580D02*
X92821142Y-22929200D01*
X92821142Y-22929200D02*
X92725904Y-22976819D01*
X92725904Y-22976819D02*
X92583047Y-22976819D01*
X93773523Y-22976819D02*
X93773523Y-21976819D01*
X93773523Y-22929200D02*
X93678285Y-22976819D01*
X93678285Y-22976819D02*
X93487809Y-22976819D01*
X93487809Y-22976819D02*
X93392571Y-22929200D01*
X93392571Y-22929200D02*
X93344952Y-22881580D01*
X93344952Y-22881580D02*
X93297333Y-22786342D01*
X93297333Y-22786342D02*
X93297333Y-22500628D01*
X93297333Y-22500628D02*
X93344952Y-22405390D01*
X93344952Y-22405390D02*
X93392571Y-22357771D01*
X93392571Y-22357771D02*
X93487809Y-22310152D01*
X93487809Y-22310152D02*
X93678285Y-22310152D01*
X93678285Y-22310152D02*
X93773523Y-22357771D01*
X94630666Y-22929200D02*
X94535428Y-22976819D01*
X94535428Y-22976819D02*
X94344952Y-22976819D01*
X94344952Y-22976819D02*
X94249714Y-22929200D01*
X94249714Y-22929200D02*
X94202095Y-22833961D01*
X94202095Y-22833961D02*
X94202095Y-22453009D01*
X94202095Y-22453009D02*
X94249714Y-22357771D01*
X94249714Y-22357771D02*
X94344952Y-22310152D01*
X94344952Y-22310152D02*
X94535428Y-22310152D01*
X94535428Y-22310152D02*
X94630666Y-22357771D01*
X94630666Y-22357771D02*
X94678285Y-22453009D01*
X94678285Y-22453009D02*
X94678285Y-22548247D01*
X94678285Y-22548247D02*
X94202095Y-22643485D01*
X82565952Y-21282819D02*
X81994524Y-21282819D01*
X82280238Y-21282819D02*
X82280238Y-20282819D01*
X82280238Y-20282819D02*
X82185000Y-20425676D01*
X82185000Y-20425676D02*
X82089762Y-20520914D01*
X82089762Y-20520914D02*
X81994524Y-20568533D01*
X82946905Y-20378057D02*
X82994524Y-20330438D01*
X82994524Y-20330438D02*
X83089762Y-20282819D01*
X83089762Y-20282819D02*
X83327857Y-20282819D01*
X83327857Y-20282819D02*
X83423095Y-20330438D01*
X83423095Y-20330438D02*
X83470714Y-20378057D01*
X83470714Y-20378057D02*
X83518333Y-20473295D01*
X83518333Y-20473295D02*
X83518333Y-20568533D01*
X83518333Y-20568533D02*
X83470714Y-20711390D01*
X83470714Y-20711390D02*
X82899286Y-21282819D01*
X82899286Y-21282819D02*
X83518333Y-21282819D01*
X83804048Y-20282819D02*
X84137381Y-21282819D01*
X84137381Y-21282819D02*
X84470714Y-20282819D01*
X79771952Y-21282819D02*
X79962428Y-21282819D01*
X79962428Y-21282819D02*
X80057666Y-21235200D01*
X80057666Y-21235200D02*
X80105285Y-21187580D01*
X80105285Y-21187580D02*
X80200523Y-21044723D01*
X80200523Y-21044723D02*
X80248142Y-20854247D01*
X80248142Y-20854247D02*
X80248142Y-20473295D01*
X80248142Y-20473295D02*
X80200523Y-20378057D01*
X80200523Y-20378057D02*
X80152904Y-20330438D01*
X80152904Y-20330438D02*
X80057666Y-20282819D01*
X80057666Y-20282819D02*
X79867190Y-20282819D01*
X79867190Y-20282819D02*
X79771952Y-20330438D01*
X79771952Y-20330438D02*
X79724333Y-20378057D01*
X79724333Y-20378057D02*
X79676714Y-20473295D01*
X79676714Y-20473295D02*
X79676714Y-20711390D01*
X79676714Y-20711390D02*
X79724333Y-20806628D01*
X79724333Y-20806628D02*
X79771952Y-20854247D01*
X79771952Y-20854247D02*
X79867190Y-20901866D01*
X79867190Y-20901866D02*
X80057666Y-20901866D01*
X80057666Y-20901866D02*
X80152904Y-20854247D01*
X80152904Y-20854247D02*
X80200523Y-20806628D01*
X80200523Y-20806628D02*
X80248142Y-20711390D01*
X80533857Y-20282819D02*
X80867190Y-21282819D01*
X80867190Y-21282819D02*
X81200523Y-20282819D01*
X77406523Y-20409819D02*
X76930333Y-20409819D01*
X76930333Y-20409819D02*
X76882714Y-20886009D01*
X76882714Y-20886009D02*
X76930333Y-20838390D01*
X76930333Y-20838390D02*
X77025571Y-20790771D01*
X77025571Y-20790771D02*
X77263666Y-20790771D01*
X77263666Y-20790771D02*
X77358904Y-20838390D01*
X77358904Y-20838390D02*
X77406523Y-20886009D01*
X77406523Y-20886009D02*
X77454142Y-20981247D01*
X77454142Y-20981247D02*
X77454142Y-21219342D01*
X77454142Y-21219342D02*
X77406523Y-21314580D01*
X77406523Y-21314580D02*
X77358904Y-21362200D01*
X77358904Y-21362200D02*
X77263666Y-21409819D01*
X77263666Y-21409819D02*
X77025571Y-21409819D01*
X77025571Y-21409819D02*
X76930333Y-21362200D01*
X76930333Y-21362200D02*
X76882714Y-21314580D01*
X77739857Y-20409819D02*
X78073190Y-21409819D01*
X78073190Y-21409819D02*
X78406523Y-20409819D01*
X87836524Y-20378057D02*
X87884143Y-20330438D01*
X87884143Y-20330438D02*
X87979381Y-20282819D01*
X87979381Y-20282819D02*
X88217476Y-20282819D01*
X88217476Y-20282819D02*
X88312714Y-20330438D01*
X88312714Y-20330438D02*
X88360333Y-20378057D01*
X88360333Y-20378057D02*
X88407952Y-20473295D01*
X88407952Y-20473295D02*
X88407952Y-20568533D01*
X88407952Y-20568533D02*
X88360333Y-20711390D01*
X88360333Y-20711390D02*
X87788905Y-21282819D01*
X87788905Y-21282819D02*
X88407952Y-21282819D01*
X89027000Y-20282819D02*
X89122238Y-20282819D01*
X89122238Y-20282819D02*
X89217476Y-20330438D01*
X89217476Y-20330438D02*
X89265095Y-20378057D01*
X89265095Y-20378057D02*
X89312714Y-20473295D01*
X89312714Y-20473295D02*
X89360333Y-20663771D01*
X89360333Y-20663771D02*
X89360333Y-20901866D01*
X89360333Y-20901866D02*
X89312714Y-21092342D01*
X89312714Y-21092342D02*
X89265095Y-21187580D01*
X89265095Y-21187580D02*
X89217476Y-21235200D01*
X89217476Y-21235200D02*
X89122238Y-21282819D01*
X89122238Y-21282819D02*
X89027000Y-21282819D01*
X89027000Y-21282819D02*
X88931762Y-21235200D01*
X88931762Y-21235200D02*
X88884143Y-21187580D01*
X88884143Y-21187580D02*
X88836524Y-21092342D01*
X88836524Y-21092342D02*
X88788905Y-20901866D01*
X88788905Y-20901866D02*
X88788905Y-20663771D01*
X88788905Y-20663771D02*
X88836524Y-20473295D01*
X88836524Y-20473295D02*
X88884143Y-20378057D01*
X88884143Y-20378057D02*
X88931762Y-20330438D01*
X88931762Y-20330438D02*
X89027000Y-20282819D01*
X89646048Y-20282819D02*
X89979381Y-21282819D01*
X89979381Y-21282819D02*
X90312714Y-20282819D01*
D10*
X101297408Y-3503704D02*
X101259312Y-3541800D01*
X101259312Y-3541800D02*
X101145027Y-3579895D01*
X101145027Y-3579895D02*
X101068836Y-3579895D01*
X101068836Y-3579895D02*
X100954550Y-3541800D01*
X100954550Y-3541800D02*
X100878360Y-3465609D01*
X100878360Y-3465609D02*
X100840265Y-3389419D01*
X100840265Y-3389419D02*
X100802169Y-3237038D01*
X100802169Y-3237038D02*
X100802169Y-3122752D01*
X100802169Y-3122752D02*
X100840265Y-2970371D01*
X100840265Y-2970371D02*
X100878360Y-2894180D01*
X100878360Y-2894180D02*
X100954550Y-2817990D01*
X100954550Y-2817990D02*
X101068836Y-2779895D01*
X101068836Y-2779895D02*
X101145027Y-2779895D01*
X101145027Y-2779895D02*
X101259312Y-2817990D01*
X101259312Y-2817990D02*
X101297408Y-2856085D01*
X102097408Y-3503704D02*
X102059312Y-3541800D01*
X102059312Y-3541800D02*
X101945027Y-3579895D01*
X101945027Y-3579895D02*
X101868836Y-3579895D01*
X101868836Y-3579895D02*
X101754550Y-3541800D01*
X101754550Y-3541800D02*
X101678360Y-3465609D01*
X101678360Y-3465609D02*
X101640265Y-3389419D01*
X101640265Y-3389419D02*
X101602169Y-3237038D01*
X101602169Y-3237038D02*
X101602169Y-3122752D01*
X101602169Y-3122752D02*
X101640265Y-2970371D01*
X101640265Y-2970371D02*
X101678360Y-2894180D01*
X101678360Y-2894180D02*
X101754550Y-2817990D01*
X101754550Y-2817990D02*
X101868836Y-2779895D01*
X101868836Y-2779895D02*
X101945027Y-2779895D01*
X101945027Y-2779895D02*
X102059312Y-2817990D01*
X102059312Y-2817990D02*
X102097408Y-2856085D01*
X102402169Y-2856085D02*
X102440265Y-2817990D01*
X102440265Y-2817990D02*
X102516455Y-2779895D01*
X102516455Y-2779895D02*
X102706931Y-2779895D01*
X102706931Y-2779895D02*
X102783122Y-2817990D01*
X102783122Y-2817990D02*
X102821217Y-2856085D01*
X102821217Y-2856085D02*
X102859312Y-2932276D01*
X102859312Y-2932276D02*
X102859312Y-3008466D01*
X102859312Y-3008466D02*
X102821217Y-3122752D01*
X102821217Y-3122752D02*
X102364074Y-3579895D01*
X102364074Y-3579895D02*
X102859312Y-3579895D01*
D11*
X98068048Y-28013819D02*
X98068048Y-27013819D01*
X98068048Y-27013819D02*
X98306143Y-27013819D01*
X98306143Y-27013819D02*
X98449000Y-27061438D01*
X98449000Y-27061438D02*
X98544238Y-27156676D01*
X98544238Y-27156676D02*
X98591857Y-27251914D01*
X98591857Y-27251914D02*
X98639476Y-27442390D01*
X98639476Y-27442390D02*
X98639476Y-27585247D01*
X98639476Y-27585247D02*
X98591857Y-27775723D01*
X98591857Y-27775723D02*
X98544238Y-27870961D01*
X98544238Y-27870961D02*
X98449000Y-27966200D01*
X98449000Y-27966200D02*
X98306143Y-28013819D01*
X98306143Y-28013819D02*
X98068048Y-28013819D01*
X99258524Y-27013819D02*
X99449000Y-27013819D01*
X99449000Y-27013819D02*
X99544238Y-27061438D01*
X99544238Y-27061438D02*
X99639476Y-27156676D01*
X99639476Y-27156676D02*
X99687095Y-27347152D01*
X99687095Y-27347152D02*
X99687095Y-27680485D01*
X99687095Y-27680485D02*
X99639476Y-27870961D01*
X99639476Y-27870961D02*
X99544238Y-27966200D01*
X99544238Y-27966200D02*
X99449000Y-28013819D01*
X99449000Y-28013819D02*
X99258524Y-28013819D01*
X99258524Y-28013819D02*
X99163286Y-27966200D01*
X99163286Y-27966200D02*
X99068048Y-27870961D01*
X99068048Y-27870961D02*
X99020429Y-27680485D01*
X99020429Y-27680485D02*
X99020429Y-27347152D01*
X99020429Y-27347152D02*
X99068048Y-27156676D01*
X99068048Y-27156676D02*
X99163286Y-27061438D01*
X99163286Y-27061438D02*
X99258524Y-27013819D01*
X100020429Y-27013819D02*
X100258524Y-28013819D01*
X100258524Y-28013819D02*
X100449000Y-27299533D01*
X100449000Y-27299533D02*
X100639476Y-28013819D01*
X100639476Y-28013819D02*
X100877572Y-27013819D01*
X101258524Y-28013819D02*
X101258524Y-27013819D01*
X101258524Y-27013819D02*
X101829952Y-28013819D01*
X101829952Y-28013819D02*
X101829952Y-27013819D01*
D10*
X98503408Y-3503704D02*
X98465312Y-3541800D01*
X98465312Y-3541800D02*
X98351027Y-3579895D01*
X98351027Y-3579895D02*
X98274836Y-3579895D01*
X98274836Y-3579895D02*
X98160550Y-3541800D01*
X98160550Y-3541800D02*
X98084360Y-3465609D01*
X98084360Y-3465609D02*
X98046265Y-3389419D01*
X98046265Y-3389419D02*
X98008169Y-3237038D01*
X98008169Y-3237038D02*
X98008169Y-3122752D01*
X98008169Y-3122752D02*
X98046265Y-2970371D01*
X98046265Y-2970371D02*
X98084360Y-2894180D01*
X98084360Y-2894180D02*
X98160550Y-2817990D01*
X98160550Y-2817990D02*
X98274836Y-2779895D01*
X98274836Y-2779895D02*
X98351027Y-2779895D01*
X98351027Y-2779895D02*
X98465312Y-2817990D01*
X98465312Y-2817990D02*
X98503408Y-2856085D01*
X99303408Y-3503704D02*
X99265312Y-3541800D01*
X99265312Y-3541800D02*
X99151027Y-3579895D01*
X99151027Y-3579895D02*
X99074836Y-3579895D01*
X99074836Y-3579895D02*
X98960550Y-3541800D01*
X98960550Y-3541800D02*
X98884360Y-3465609D01*
X98884360Y-3465609D02*
X98846265Y-3389419D01*
X98846265Y-3389419D02*
X98808169Y-3237038D01*
X98808169Y-3237038D02*
X98808169Y-3122752D01*
X98808169Y-3122752D02*
X98846265Y-2970371D01*
X98846265Y-2970371D02*
X98884360Y-2894180D01*
X98884360Y-2894180D02*
X98960550Y-2817990D01*
X98960550Y-2817990D02*
X99074836Y-2779895D01*
X99074836Y-2779895D02*
X99151027Y-2779895D01*
X99151027Y-2779895D02*
X99265312Y-2817990D01*
X99265312Y-2817990D02*
X99303408Y-2856085D01*
X100065312Y-3579895D02*
X99608169Y-3579895D01*
X99836741Y-3579895D02*
X99836741Y-2779895D01*
X99836741Y-2779895D02*
X99760550Y-2894180D01*
X99760550Y-2894180D02*
X99684360Y-2970371D01*
X99684360Y-2970371D02*
X99608169Y-3008466D01*
D11*
X81851619Y-24854819D02*
X82042095Y-24854819D01*
X82042095Y-24854819D02*
X82137333Y-24902438D01*
X82137333Y-24902438D02*
X82232571Y-24997676D01*
X82232571Y-24997676D02*
X82280190Y-25188152D01*
X82280190Y-25188152D02*
X82280190Y-25521485D01*
X82280190Y-25521485D02*
X82232571Y-25711961D01*
X82232571Y-25711961D02*
X82137333Y-25807200D01*
X82137333Y-25807200D02*
X82042095Y-25854819D01*
X82042095Y-25854819D02*
X81851619Y-25854819D01*
X81851619Y-25854819D02*
X81756381Y-25807200D01*
X81756381Y-25807200D02*
X81661143Y-25711961D01*
X81661143Y-25711961D02*
X81613524Y-25521485D01*
X81613524Y-25521485D02*
X81613524Y-25188152D01*
X81613524Y-25188152D02*
X81661143Y-24997676D01*
X81661143Y-24997676D02*
X81756381Y-24902438D01*
X81756381Y-24902438D02*
X81851619Y-24854819D01*
X83042095Y-25331009D02*
X82708762Y-25331009D01*
X82708762Y-25854819D02*
X82708762Y-24854819D01*
X82708762Y-24854819D02*
X83184952Y-24854819D01*
X83899238Y-25331009D02*
X83565905Y-25331009D01*
X83565905Y-25854819D02*
X83565905Y-24854819D01*
X83565905Y-24854819D02*
X84042095Y-24854819D01*
X86280667Y-24981819D02*
X86614000Y-25981819D01*
X86614000Y-25981819D02*
X86947333Y-24981819D01*
X90583000Y-25981819D02*
X90583000Y-24981819D01*
X90583000Y-24981819D02*
X90916333Y-25696104D01*
X90916333Y-25696104D02*
X91249666Y-24981819D01*
X91249666Y-24981819D02*
X91249666Y-25981819D01*
X92154428Y-25981819D02*
X92154428Y-25458009D01*
X92154428Y-25458009D02*
X92106809Y-25362771D01*
X92106809Y-25362771D02*
X92011571Y-25315152D01*
X92011571Y-25315152D02*
X91821095Y-25315152D01*
X91821095Y-25315152D02*
X91725857Y-25362771D01*
X92154428Y-25934200D02*
X92059190Y-25981819D01*
X92059190Y-25981819D02*
X91821095Y-25981819D01*
X91821095Y-25981819D02*
X91725857Y-25934200D01*
X91725857Y-25934200D02*
X91678238Y-25838961D01*
X91678238Y-25838961D02*
X91678238Y-25743723D01*
X91678238Y-25743723D02*
X91725857Y-25648485D01*
X91725857Y-25648485D02*
X91821095Y-25600866D01*
X91821095Y-25600866D02*
X92059190Y-25600866D01*
X92059190Y-25600866D02*
X92154428Y-25553247D01*
X92535381Y-25981819D02*
X93059190Y-25315152D01*
X92535381Y-25315152D02*
X93059190Y-25981819D01*
X94154429Y-25696104D02*
X94630619Y-25696104D01*
X94059191Y-25981819D02*
X94392524Y-24981819D01*
X94392524Y-24981819D02*
X94725857Y-25981819D01*
X75326952Y-24981819D02*
X75517428Y-24981819D01*
X75517428Y-24981819D02*
X75612666Y-25029438D01*
X75612666Y-25029438D02*
X75707904Y-25124676D01*
X75707904Y-25124676D02*
X75755523Y-25315152D01*
X75755523Y-25315152D02*
X75755523Y-25648485D01*
X75755523Y-25648485D02*
X75707904Y-25838961D01*
X75707904Y-25838961D02*
X75612666Y-25934200D01*
X75612666Y-25934200D02*
X75517428Y-25981819D01*
X75517428Y-25981819D02*
X75326952Y-25981819D01*
X75326952Y-25981819D02*
X75231714Y-25934200D01*
X75231714Y-25934200D02*
X75136476Y-25838961D01*
X75136476Y-25838961D02*
X75088857Y-25648485D01*
X75088857Y-25648485D02*
X75088857Y-25315152D01*
X75088857Y-25315152D02*
X75136476Y-25124676D01*
X75136476Y-25124676D02*
X75231714Y-25029438D01*
X75231714Y-25029438D02*
X75326952Y-24981819D01*
X76184095Y-25981819D02*
X76184095Y-24981819D01*
X76184095Y-24981819D02*
X76755523Y-25981819D01*
X76755523Y-25981819D02*
X76755523Y-24981819D01*
X-131186904Y109858180D02*
X-130615477Y109858180D01*
X-130901191Y108858181D02*
X-130901191Y109858180D01*
X-130282143Y108858181D02*
X-130282143Y109858180D01*
X-130282143Y109858180D02*
X-129901191Y109858180D01*
X-129901191Y109858180D02*
X-129805953Y109810561D01*
X-129805953Y109810561D02*
X-129758334Y109762942D01*
X-129758334Y109762942D02*
X-129710715Y109667704D01*
X-129710715Y109667704D02*
X-129710715Y109524847D01*
X-129710715Y109524847D02*
X-129758334Y109429609D01*
X-129758334Y109429609D02*
X-129805953Y109381990D01*
X-129805953Y109381990D02*
X-129901191Y109334371D01*
X-129901191Y109334371D02*
X-130282143Y109334371D01*
X-129377381Y109858180D02*
X-128758334Y109858180D01*
X-128758334Y109858180D02*
X-129091667Y109477228D01*
X-129091667Y109477228D02*
X-128948810Y109477228D01*
X-128948810Y109477228D02*
X-128853572Y109429609D01*
X-128853572Y109429609D02*
X-128805953Y109381990D01*
X-128805953Y109381990D02*
X-128758334Y109286752D01*
X-128758334Y109286752D02*
X-128758334Y109048657D01*
X-128758334Y109048657D02*
X-128805953Y108953419D01*
X-128805953Y108953419D02*
X-128853572Y108905800D01*
X-128853572Y108905800D02*
X-128948810Y108858181D01*
X-128948810Y108858181D02*
X-129234524Y108858181D01*
X-129234524Y108858181D02*
X-129329762Y108905800D01*
X-129329762Y108905800D02*
X-129377381Y108953419D01*
X62230095Y7022181D02*
X62230095Y6212658D01*
X62230095Y6212658D02*
X62277714Y6117420D01*
X62277714Y6117420D02*
X62325333Y6069800D01*
X62325333Y6069800D02*
X62420571Y6022181D01*
X62420571Y6022181D02*
X62611047Y6022181D01*
X62611047Y6022181D02*
X62706285Y6069800D01*
X62706285Y6069800D02*
X62753904Y6117420D01*
X62753904Y6117420D02*
X62801523Y6212658D01*
X62801523Y6212658D02*
X62801523Y7022181D01*
X63182476Y7022181D02*
X63849142Y7022181D01*
X63849142Y7022181D02*
X63420571Y6022181D01*
X71494666Y13607705D02*
X71113714Y13607705D01*
X71113714Y13607705D02*
X71113714Y14407705D01*
X72180380Y13607705D02*
X71723237Y13607705D01*
X71951809Y13607705D02*
X71951809Y14407705D01*
X71951809Y14407705D02*
X71875618Y14293420D01*
X71875618Y14293420D02*
X71799428Y14217229D01*
X71799428Y14217229D02*
X71723237Y14179134D01*
X59936142Y529420D02*
X59888523Y481800D01*
X59888523Y481800D02*
X59745666Y434181D01*
X59745666Y434181D02*
X59650428Y434181D01*
X59650428Y434181D02*
X59507571Y481800D01*
X59507571Y481800D02*
X59412333Y577039D01*
X59412333Y577039D02*
X59364714Y672277D01*
X59364714Y672277D02*
X59317095Y862753D01*
X59317095Y862753D02*
X59317095Y1005610D01*
X59317095Y1005610D02*
X59364714Y1196086D01*
X59364714Y1196086D02*
X59412333Y1291324D01*
X59412333Y1291324D02*
X59507571Y1386562D01*
X59507571Y1386562D02*
X59650428Y1434181D01*
X59650428Y1434181D02*
X59745666Y1434181D01*
X59745666Y1434181D02*
X59888523Y1386562D01*
X59888523Y1386562D02*
X59936142Y1338943D01*
X60888523Y434181D02*
X60317095Y434181D01*
X60602809Y434181D02*
X60602809Y1434181D01*
X60602809Y1434181D02*
X60507571Y1291324D01*
X60507571Y1291324D02*
X60412333Y1196086D01*
X60412333Y1196086D02*
X60317095Y1148467D01*
X61793285Y1434181D02*
X61317095Y1434181D01*
X61317095Y1434181D02*
X61269476Y957991D01*
X61269476Y957991D02*
X61317095Y1005610D01*
X61317095Y1005610D02*
X61412333Y1053229D01*
X61412333Y1053229D02*
X61650428Y1053229D01*
X61650428Y1053229D02*
X61745666Y1005610D01*
X61745666Y1005610D02*
X61793285Y957991D01*
X61793285Y957991D02*
X61840904Y862753D01*
X61840904Y862753D02*
X61840904Y624658D01*
X61840904Y624658D02*
X61793285Y529420D01*
X61793285Y529420D02*
X61745666Y481800D01*
X61745666Y481800D02*
X61650428Y434181D01*
X61650428Y434181D02*
X61412333Y434181D01*
X61412333Y434181D02*
X61317095Y481800D01*
X61317095Y481800D02*
X61269476Y529420D01*
X73906142Y3196420D02*
X73858523Y3148800D01*
X73858523Y3148800D02*
X73715666Y3101181D01*
X73715666Y3101181D02*
X73620428Y3101181D01*
X73620428Y3101181D02*
X73477571Y3148800D01*
X73477571Y3148800D02*
X73382333Y3244039D01*
X73382333Y3244039D02*
X73334714Y3339277D01*
X73334714Y3339277D02*
X73287095Y3529753D01*
X73287095Y3529753D02*
X73287095Y3672610D01*
X73287095Y3672610D02*
X73334714Y3863086D01*
X73334714Y3863086D02*
X73382333Y3958324D01*
X73382333Y3958324D02*
X73477571Y4053562D01*
X73477571Y4053562D02*
X73620428Y4101181D01*
X73620428Y4101181D02*
X73715666Y4101181D01*
X73715666Y4101181D02*
X73858523Y4053562D01*
X73858523Y4053562D02*
X73906142Y4005943D01*
X74858523Y3101181D02*
X74287095Y3101181D01*
X74572809Y3101181D02*
X74572809Y4101181D01*
X74572809Y4101181D02*
X74477571Y3958324D01*
X74477571Y3958324D02*
X74382333Y3863086D01*
X74382333Y3863086D02*
X74287095Y3815467D01*
X75810904Y3101181D02*
X75239476Y3101181D01*
X75525190Y3101181D02*
X75525190Y4101181D01*
X75525190Y4101181D02*
X75429952Y3958324D01*
X75429952Y3958324D02*
X75334714Y3863086D01*
X75334714Y3863086D02*
X75239476Y3815467D01*
X96782095Y-4534819D02*
X97353523Y-4534819D01*
X97067809Y-5534819D02*
X97067809Y-4534819D01*
X97686857Y-5534819D02*
X97686857Y-4534819D01*
X97686857Y-4534819D02*
X98067809Y-4534819D01*
X98067809Y-4534819D02*
X98163047Y-4582438D01*
X98163047Y-4582438D02*
X98210666Y-4630057D01*
X98210666Y-4630057D02*
X98258285Y-4725295D01*
X98258285Y-4725295D02*
X98258285Y-4868152D01*
X98258285Y-4868152D02*
X98210666Y-4963390D01*
X98210666Y-4963390D02*
X98163047Y-5011009D01*
X98163047Y-5011009D02*
X98067809Y-5058628D01*
X98067809Y-5058628D02*
X97686857Y-5058628D01*
X99210666Y-5534819D02*
X98639238Y-5534819D01*
X98924952Y-5534819D02*
X98924952Y-4534819D01*
X98924952Y-4534819D02*
X98829714Y-4677676D01*
X98829714Y-4677676D02*
X98734476Y-4772914D01*
X98734476Y-4772914D02*
X98639238Y-4820533D01*
X89179476Y9327705D02*
X89179476Y8680086D01*
X89179476Y8680086D02*
X89217571Y8603896D01*
X89217571Y8603896D02*
X89255666Y8565800D01*
X89255666Y8565800D02*
X89331857Y8527705D01*
X89331857Y8527705D02*
X89484238Y8527705D01*
X89484238Y8527705D02*
X89560428Y8565800D01*
X89560428Y8565800D02*
X89598523Y8603896D01*
X89598523Y8603896D02*
X89636619Y8680086D01*
X89636619Y8680086D02*
X89636619Y9327705D01*
X90360428Y9061039D02*
X90360428Y8527705D01*
X90169952Y9365800D02*
X89979475Y8794372D01*
X89979475Y8794372D02*
X90474714Y8794372D01*
D10*
X84255667Y1108296D02*
X84217571Y1070200D01*
X84217571Y1070200D02*
X84103286Y1032105D01*
X84103286Y1032105D02*
X84027095Y1032105D01*
X84027095Y1032105D02*
X83912809Y1070200D01*
X83912809Y1070200D02*
X83836619Y1146391D01*
X83836619Y1146391D02*
X83798524Y1222581D01*
X83798524Y1222581D02*
X83760428Y1374962D01*
X83760428Y1374962D02*
X83760428Y1489248D01*
X83760428Y1489248D02*
X83798524Y1641629D01*
X83798524Y1641629D02*
X83836619Y1717820D01*
X83836619Y1717820D02*
X83912809Y1794010D01*
X83912809Y1794010D02*
X84027095Y1832105D01*
X84027095Y1832105D02*
X84103286Y1832105D01*
X84103286Y1832105D02*
X84217571Y1794010D01*
X84217571Y1794010D02*
X84255667Y1755915D01*
X84522333Y1832105D02*
X85017571Y1832105D01*
X85017571Y1832105D02*
X84750905Y1527343D01*
X84750905Y1527343D02*
X84865190Y1527343D01*
X84865190Y1527343D02*
X84941381Y1489248D01*
X84941381Y1489248D02*
X84979476Y1451153D01*
X84979476Y1451153D02*
X85017571Y1374962D01*
X85017571Y1374962D02*
X85017571Y1184486D01*
X85017571Y1184486D02*
X84979476Y1108296D01*
X84979476Y1108296D02*
X84941381Y1070200D01*
X84941381Y1070200D02*
X84865190Y1032105D01*
X84865190Y1032105D02*
X84636619Y1032105D01*
X84636619Y1032105D02*
X84560428Y1070200D01*
X84560428Y1070200D02*
X84522333Y1108296D01*
D11*
X78509905Y-7312819D02*
X78509905Y-6312819D01*
X78509905Y-6312819D02*
X78748000Y-6312819D01*
X78748000Y-6312819D02*
X78890857Y-6360438D01*
X78890857Y-6360438D02*
X78986095Y-6455676D01*
X78986095Y-6455676D02*
X79033714Y-6550914D01*
X79033714Y-6550914D02*
X79081333Y-6741390D01*
X79081333Y-6741390D02*
X79081333Y-6884247D01*
X79081333Y-6884247D02*
X79033714Y-7074723D01*
X79033714Y-7074723D02*
X78986095Y-7169961D01*
X78986095Y-7169961D02*
X78890857Y-7265200D01*
X78890857Y-7265200D02*
X78748000Y-7312819D01*
X78748000Y-7312819D02*
X78509905Y-7312819D01*
X79462286Y-6408057D02*
X79509905Y-6360438D01*
X79509905Y-6360438D02*
X79605143Y-6312819D01*
X79605143Y-6312819D02*
X79843238Y-6312819D01*
X79843238Y-6312819D02*
X79938476Y-6360438D01*
X79938476Y-6360438D02*
X79986095Y-6408057D01*
X79986095Y-6408057D02*
X80033714Y-6503295D01*
X80033714Y-6503295D02*
X80033714Y-6598533D01*
X80033714Y-6598533D02*
X79986095Y-6741390D01*
X79986095Y-6741390D02*
X79414667Y-7312819D01*
X79414667Y-7312819D02*
X80033714Y-7312819D01*
X80054524Y4795705D02*
X80054524Y5595705D01*
X80054524Y5595705D02*
X80245000Y5595705D01*
X80245000Y5595705D02*
X80359286Y5557610D01*
X80359286Y5557610D02*
X80435476Y5481420D01*
X80435476Y5481420D02*
X80473571Y5405229D01*
X80473571Y5405229D02*
X80511667Y5252848D01*
X80511667Y5252848D02*
X80511667Y5138562D01*
X80511667Y5138562D02*
X80473571Y4986181D01*
X80473571Y4986181D02*
X80435476Y4909991D01*
X80435476Y4909991D02*
X80359286Y4833800D01*
X80359286Y4833800D02*
X80245000Y4795705D01*
X80245000Y4795705D02*
X80054524Y4795705D01*
X81273571Y4795705D02*
X80816428Y4795705D01*
X81045000Y4795705D02*
X81045000Y5595705D01*
X81045000Y5595705D02*
X80968809Y5481420D01*
X80968809Y5481420D02*
X80892619Y5405229D01*
X80892619Y5405229D02*
X80816428Y5367134D01*
D10*
X53587667Y18634296D02*
X53549571Y18596200D01*
X53549571Y18596200D02*
X53435286Y18558105D01*
X53435286Y18558105D02*
X53359095Y18558105D01*
X53359095Y18558105D02*
X53244809Y18596200D01*
X53244809Y18596200D02*
X53168619Y18672391D01*
X53168619Y18672391D02*
X53130524Y18748581D01*
X53130524Y18748581D02*
X53092428Y18900962D01*
X53092428Y18900962D02*
X53092428Y19015248D01*
X53092428Y19015248D02*
X53130524Y19167629D01*
X53130524Y19167629D02*
X53168619Y19243820D01*
X53168619Y19243820D02*
X53244809Y19320010D01*
X53244809Y19320010D02*
X53359095Y19358105D01*
X53359095Y19358105D02*
X53435286Y19358105D01*
X53435286Y19358105D02*
X53549571Y19320010D01*
X53549571Y19320010D02*
X53587667Y19281915D01*
X54273381Y19091439D02*
X54273381Y18558105D01*
X54082905Y19396200D02*
X53892428Y18824772D01*
X53892428Y18824772D02*
X54387667Y18824772D01*
D11*
X56724476Y5570705D02*
X56724476Y4923086D01*
X56724476Y4923086D02*
X56762571Y4846896D01*
X56762571Y4846896D02*
X56800666Y4808800D01*
X56800666Y4808800D02*
X56876857Y4770705D01*
X56876857Y4770705D02*
X57029238Y4770705D01*
X57029238Y4770705D02*
X57105428Y4808800D01*
X57105428Y4808800D02*
X57143523Y4846896D01*
X57143523Y4846896D02*
X57181619Y4923086D01*
X57181619Y4923086D02*
X57181619Y5570705D01*
X57981618Y4770705D02*
X57524475Y4770705D01*
X57753047Y4770705D02*
X57753047Y5570705D01*
X57753047Y5570705D02*
X57676856Y5456420D01*
X57676856Y5456420D02*
X57600666Y5380229D01*
X57600666Y5380229D02*
X57524475Y5342134D01*
X103806666Y-6820819D02*
X103806666Y-7535104D01*
X103806666Y-7535104D02*
X103759047Y-7677961D01*
X103759047Y-7677961D02*
X103663809Y-7773200D01*
X103663809Y-7773200D02*
X103520952Y-7820819D01*
X103520952Y-7820819D02*
X103425714Y-7820819D01*
X104759047Y-6820819D02*
X104282857Y-6820819D01*
X104282857Y-6820819D02*
X104235238Y-7297009D01*
X104235238Y-7297009D02*
X104282857Y-7249390D01*
X104282857Y-7249390D02*
X104378095Y-7201771D01*
X104378095Y-7201771D02*
X104616190Y-7201771D01*
X104616190Y-7201771D02*
X104711428Y-7249390D01*
X104711428Y-7249390D02*
X104759047Y-7297009D01*
X104759047Y-7297009D02*
X104806666Y-7392247D01*
X104806666Y-7392247D02*
X104806666Y-7630342D01*
X104806666Y-7630342D02*
X104759047Y-7725580D01*
X104759047Y-7725580D02*
X104711428Y-7773200D01*
X104711428Y-7773200D02*
X104616190Y-7820819D01*
X104616190Y-7820819D02*
X104378095Y-7820819D01*
X104378095Y-7820819D02*
X104282857Y-7773200D01*
X104282857Y-7773200D02*
X104235238Y-7725580D01*
X94514200Y-16446332D02*
X94561819Y-16303475D01*
X94561819Y-16303475D02*
X94561819Y-16065380D01*
X94561819Y-16065380D02*
X94514200Y-15970142D01*
X94514200Y-15970142D02*
X94466580Y-15922523D01*
X94466580Y-15922523D02*
X94371342Y-15874904D01*
X94371342Y-15874904D02*
X94276104Y-15874904D01*
X94276104Y-15874904D02*
X94180866Y-15922523D01*
X94180866Y-15922523D02*
X94133247Y-15970142D01*
X94133247Y-15970142D02*
X94085628Y-16065380D01*
X94085628Y-16065380D02*
X94038009Y-16255856D01*
X94038009Y-16255856D02*
X93990390Y-16351094D01*
X93990390Y-16351094D02*
X93942771Y-16398713D01*
X93942771Y-16398713D02*
X93847533Y-16446332D01*
X93847533Y-16446332D02*
X93752295Y-16446332D01*
X93752295Y-16446332D02*
X93657057Y-16398713D01*
X93657057Y-16398713D02*
X93609438Y-16351094D01*
X93609438Y-16351094D02*
X93561819Y-16255856D01*
X93561819Y-16255856D02*
X93561819Y-16017761D01*
X93561819Y-16017761D02*
X93609438Y-15874904D01*
X93561819Y-15541570D02*
X94561819Y-15303475D01*
X94561819Y-15303475D02*
X93847533Y-15112999D01*
X93847533Y-15112999D02*
X94561819Y-14922523D01*
X94561819Y-14922523D02*
X93561819Y-14684428D01*
X94561819Y-13779666D02*
X94561819Y-14351094D01*
X94561819Y-14065380D02*
X93561819Y-14065380D01*
X93561819Y-14065380D02*
X93704676Y-14160618D01*
X93704676Y-14160618D02*
X93799914Y-14255856D01*
X93799914Y-14255856D02*
X93847533Y-14351094D01*
D10*
X55365667Y18761296D02*
X55327571Y18723200D01*
X55327571Y18723200D02*
X55213286Y18685105D01*
X55213286Y18685105D02*
X55137095Y18685105D01*
X55137095Y18685105D02*
X55022809Y18723200D01*
X55022809Y18723200D02*
X54946619Y18799391D01*
X54946619Y18799391D02*
X54908524Y18875581D01*
X54908524Y18875581D02*
X54870428Y19027962D01*
X54870428Y19027962D02*
X54870428Y19142248D01*
X54870428Y19142248D02*
X54908524Y19294629D01*
X54908524Y19294629D02*
X54946619Y19370820D01*
X54946619Y19370820D02*
X55022809Y19447010D01*
X55022809Y19447010D02*
X55137095Y19485105D01*
X55137095Y19485105D02*
X55213286Y19485105D01*
X55213286Y19485105D02*
X55327571Y19447010D01*
X55327571Y19447010D02*
X55365667Y19408915D01*
X56051381Y19485105D02*
X55899000Y19485105D01*
X55899000Y19485105D02*
X55822809Y19447010D01*
X55822809Y19447010D02*
X55784714Y19408915D01*
X55784714Y19408915D02*
X55708524Y19294629D01*
X55708524Y19294629D02*
X55670428Y19142248D01*
X55670428Y19142248D02*
X55670428Y18837486D01*
X55670428Y18837486D02*
X55708524Y18761296D01*
X55708524Y18761296D02*
X55746619Y18723200D01*
X55746619Y18723200D02*
X55822809Y18685105D01*
X55822809Y18685105D02*
X55975190Y18685105D01*
X55975190Y18685105D02*
X56051381Y18723200D01*
X56051381Y18723200D02*
X56089476Y18761296D01*
X56089476Y18761296D02*
X56127571Y18837486D01*
X56127571Y18837486D02*
X56127571Y19027962D01*
X56127571Y19027962D02*
X56089476Y19104153D01*
X56089476Y19104153D02*
X56051381Y19142248D01*
X56051381Y19142248D02*
X55975190Y19180343D01*
X55975190Y19180343D02*
X55822809Y19180343D01*
X55822809Y19180343D02*
X55746619Y19142248D01*
X55746619Y19142248D02*
X55708524Y19104153D01*
X55708524Y19104153D02*
X55670428Y19027962D01*
D11*
X87495142Y6784181D02*
X87161809Y7260372D01*
X86923714Y6784181D02*
X86923714Y7784181D01*
X86923714Y7784181D02*
X87304666Y7784181D01*
X87304666Y7784181D02*
X87399904Y7736562D01*
X87399904Y7736562D02*
X87447523Y7688943D01*
X87447523Y7688943D02*
X87495142Y7593705D01*
X87495142Y7593705D02*
X87495142Y7450848D01*
X87495142Y7450848D02*
X87447523Y7355610D01*
X87447523Y7355610D02*
X87399904Y7307991D01*
X87399904Y7307991D02*
X87304666Y7260372D01*
X87304666Y7260372D02*
X86923714Y7260372D01*
X88447523Y6784181D02*
X87876095Y6784181D01*
X88161809Y6784181D02*
X88161809Y7784181D01*
X88161809Y7784181D02*
X88066571Y7641324D01*
X88066571Y7641324D02*
X87971333Y7546086D01*
X87971333Y7546086D02*
X87876095Y7498467D01*
X89304666Y7450848D02*
X89304666Y6784181D01*
X89066571Y7831800D02*
X88828476Y7117515D01*
X88828476Y7117515D02*
X89447523Y7117515D01*
X96186666Y-6784819D02*
X96186666Y-7499104D01*
X96186666Y-7499104D02*
X96139047Y-7641961D01*
X96139047Y-7641961D02*
X96043809Y-7737200D01*
X96043809Y-7737200D02*
X95900952Y-7784819D01*
X95900952Y-7784819D02*
X95805714Y-7784819D01*
X96615238Y-6880057D02*
X96662857Y-6832438D01*
X96662857Y-6832438D02*
X96758095Y-6784819D01*
X96758095Y-6784819D02*
X96996190Y-6784819D01*
X96996190Y-6784819D02*
X97091428Y-6832438D01*
X97091428Y-6832438D02*
X97139047Y-6880057D01*
X97139047Y-6880057D02*
X97186666Y-6975295D01*
X97186666Y-6975295D02*
X97186666Y-7070533D01*
X97186666Y-7070533D02*
X97139047Y-7213390D01*
X97139047Y-7213390D02*
X96567619Y-7784819D01*
X96567619Y-7784819D02*
X97186666Y-7784819D01*
D10*
X59556714Y18634296D02*
X59518618Y18596200D01*
X59518618Y18596200D02*
X59404333Y18558105D01*
X59404333Y18558105D02*
X59328142Y18558105D01*
X59328142Y18558105D02*
X59213856Y18596200D01*
X59213856Y18596200D02*
X59137666Y18672391D01*
X59137666Y18672391D02*
X59099571Y18748581D01*
X59099571Y18748581D02*
X59061475Y18900962D01*
X59061475Y18900962D02*
X59061475Y19015248D01*
X59061475Y19015248D02*
X59099571Y19167629D01*
X59099571Y19167629D02*
X59137666Y19243820D01*
X59137666Y19243820D02*
X59213856Y19320010D01*
X59213856Y19320010D02*
X59328142Y19358105D01*
X59328142Y19358105D02*
X59404333Y19358105D01*
X59404333Y19358105D02*
X59518618Y19320010D01*
X59518618Y19320010D02*
X59556714Y19281915D01*
X60318618Y18558105D02*
X59861475Y18558105D01*
X60090047Y18558105D02*
X60090047Y19358105D01*
X60090047Y19358105D02*
X60013856Y19243820D01*
X60013856Y19243820D02*
X59937666Y19167629D01*
X59937666Y19167629D02*
X59861475Y19129534D01*
X60813857Y19358105D02*
X60890047Y19358105D01*
X60890047Y19358105D02*
X60966238Y19320010D01*
X60966238Y19320010D02*
X61004333Y19281915D01*
X61004333Y19281915D02*
X61042428Y19205724D01*
X61042428Y19205724D02*
X61080523Y19053343D01*
X61080523Y19053343D02*
X61080523Y18862867D01*
X61080523Y18862867D02*
X61042428Y18710486D01*
X61042428Y18710486D02*
X61004333Y18634296D01*
X61004333Y18634296D02*
X60966238Y18596200D01*
X60966238Y18596200D02*
X60890047Y18558105D01*
X60890047Y18558105D02*
X60813857Y18558105D01*
X60813857Y18558105D02*
X60737666Y18596200D01*
X60737666Y18596200D02*
X60699571Y18634296D01*
X60699571Y18634296D02*
X60661476Y18710486D01*
X60661476Y18710486D02*
X60623380Y18862867D01*
X60623380Y18862867D02*
X60623380Y19053343D01*
X60623380Y19053343D02*
X60661476Y19205724D01*
X60661476Y19205724D02*
X60699571Y19281915D01*
X60699571Y19281915D02*
X60737666Y19320010D01*
X60737666Y19320010D02*
X60813857Y19358105D01*
D11*
X76123809Y4641515D02*
X76047619Y4679610D01*
X76047619Y4679610D02*
X75971428Y4755800D01*
X75971428Y4755800D02*
X75857142Y4870086D01*
X75857142Y4870086D02*
X75780952Y4908181D01*
X75780952Y4908181D02*
X75704761Y4908181D01*
X75742857Y4717705D02*
X75666666Y4755800D01*
X75666666Y4755800D02*
X75590476Y4831991D01*
X75590476Y4831991D02*
X75552380Y4984372D01*
X75552380Y4984372D02*
X75552380Y5251039D01*
X75552380Y5251039D02*
X75590476Y5403420D01*
X75590476Y5403420D02*
X75666666Y5479610D01*
X75666666Y5479610D02*
X75742857Y5517705D01*
X75742857Y5517705D02*
X75895238Y5517705D01*
X75895238Y5517705D02*
X75971428Y5479610D01*
X75971428Y5479610D02*
X76047619Y5403420D01*
X76047619Y5403420D02*
X76085714Y5251039D01*
X76085714Y5251039D02*
X76085714Y4984372D01*
X76085714Y4984372D02*
X76047619Y4831991D01*
X76047619Y4831991D02*
X75971428Y4755800D01*
X75971428Y4755800D02*
X75895238Y4717705D01*
X75895238Y4717705D02*
X75742857Y4717705D01*
X76390475Y5441515D02*
X76428571Y5479610D01*
X76428571Y5479610D02*
X76504761Y5517705D01*
X76504761Y5517705D02*
X76695237Y5517705D01*
X76695237Y5517705D02*
X76771428Y5479610D01*
X76771428Y5479610D02*
X76809523Y5441515D01*
X76809523Y5441515D02*
X76847618Y5365324D01*
X76847618Y5365324D02*
X76847618Y5289134D01*
X76847618Y5289134D02*
X76809523Y5174848D01*
X76809523Y5174848D02*
X76352380Y4717705D01*
X76352380Y4717705D02*
X76847618Y4717705D01*
D10*
X50402895Y9772668D02*
X50021942Y9506001D01*
X50402895Y9315525D02*
X49602895Y9315525D01*
X49602895Y9315525D02*
X49602895Y9620287D01*
X49602895Y9620287D02*
X49640990Y9696477D01*
X49640990Y9696477D02*
X49679085Y9734572D01*
X49679085Y9734572D02*
X49755276Y9772668D01*
X49755276Y9772668D02*
X49869561Y9772668D01*
X49869561Y9772668D02*
X49945752Y9734572D01*
X49945752Y9734572D02*
X49983847Y9696477D01*
X49983847Y9696477D02*
X50021942Y9620287D01*
X50021942Y9620287D02*
X50021942Y9315525D01*
X49679085Y10077429D02*
X49640990Y10115525D01*
X49640990Y10115525D02*
X49602895Y10191715D01*
X49602895Y10191715D02*
X49602895Y10382191D01*
X49602895Y10382191D02*
X49640990Y10458382D01*
X49640990Y10458382D02*
X49679085Y10496477D01*
X49679085Y10496477D02*
X49755276Y10534572D01*
X49755276Y10534572D02*
X49831466Y10534572D01*
X49831466Y10534572D02*
X49945752Y10496477D01*
X49945752Y10496477D02*
X50402895Y10039334D01*
X50402895Y10039334D02*
X50402895Y10534572D01*
D11*
X66162285Y3597372D02*
X66133713Y3568800D01*
X66133713Y3568800D02*
X66047999Y3540229D01*
X66047999Y3540229D02*
X65990856Y3540229D01*
X65990856Y3540229D02*
X65905142Y3568800D01*
X65905142Y3568800D02*
X65847999Y3625943D01*
X65847999Y3625943D02*
X65819428Y3683086D01*
X65819428Y3683086D02*
X65790856Y3797372D01*
X65790856Y3797372D02*
X65790856Y3883086D01*
X65790856Y3883086D02*
X65819428Y3997372D01*
X65819428Y3997372D02*
X65847999Y4054515D01*
X65847999Y4054515D02*
X65905142Y4111658D01*
X65905142Y4111658D02*
X65990856Y4140229D01*
X65990856Y4140229D02*
X66047999Y4140229D01*
X66047999Y4140229D02*
X66133713Y4111658D01*
X66133713Y4111658D02*
X66162285Y4083086D01*
X66733713Y3540229D02*
X66390856Y3540229D01*
X66562285Y3540229D02*
X66562285Y4140229D01*
X66562285Y4140229D02*
X66505142Y4054515D01*
X66505142Y4054515D02*
X66447999Y3997372D01*
X66447999Y3997372D02*
X66390856Y3968800D01*
X66933714Y4140229D02*
X67305142Y4140229D01*
X67305142Y4140229D02*
X67105142Y3911658D01*
X67105142Y3911658D02*
X67190857Y3911658D01*
X67190857Y3911658D02*
X67248000Y3883086D01*
X67248000Y3883086D02*
X67276571Y3854515D01*
X67276571Y3854515D02*
X67305142Y3797372D01*
X67305142Y3797372D02*
X67305142Y3654515D01*
X67305142Y3654515D02*
X67276571Y3597372D01*
X67276571Y3597372D02*
X67248000Y3568800D01*
X67248000Y3568800D02*
X67190857Y3540229D01*
X67190857Y3540229D02*
X67019428Y3540229D01*
X67019428Y3540229D02*
X66962285Y3568800D01*
X66962285Y3568800D02*
X66933714Y3597372D01*
X62571333Y942181D02*
X62238000Y1418372D01*
X61999905Y942181D02*
X61999905Y1942181D01*
X61999905Y1942181D02*
X62380857Y1942181D01*
X62380857Y1942181D02*
X62476095Y1894562D01*
X62476095Y1894562D02*
X62523714Y1846943D01*
X62523714Y1846943D02*
X62571333Y1751705D01*
X62571333Y1751705D02*
X62571333Y1608848D01*
X62571333Y1608848D02*
X62523714Y1513610D01*
X62523714Y1513610D02*
X62476095Y1465991D01*
X62476095Y1465991D02*
X62380857Y1418372D01*
X62380857Y1418372D02*
X61999905Y1418372D01*
X63047524Y942181D02*
X63238000Y942181D01*
X63238000Y942181D02*
X63333238Y989800D01*
X63333238Y989800D02*
X63380857Y1037420D01*
X63380857Y1037420D02*
X63476095Y1180277D01*
X63476095Y1180277D02*
X63523714Y1370753D01*
X63523714Y1370753D02*
X63523714Y1751705D01*
X63523714Y1751705D02*
X63476095Y1846943D01*
X63476095Y1846943D02*
X63428476Y1894562D01*
X63428476Y1894562D02*
X63333238Y1942181D01*
X63333238Y1942181D02*
X63142762Y1942181D01*
X63142762Y1942181D02*
X63047524Y1894562D01*
X63047524Y1894562D02*
X62999905Y1846943D01*
X62999905Y1846943D02*
X62952286Y1751705D01*
X62952286Y1751705D02*
X62952286Y1513610D01*
X62952286Y1513610D02*
X62999905Y1418372D01*
X62999905Y1418372D02*
X63047524Y1370753D01*
X63047524Y1370753D02*
X63142762Y1323134D01*
X63142762Y1323134D02*
X63333238Y1323134D01*
X63333238Y1323134D02*
X63428476Y1370753D01*
X63428476Y1370753D02*
X63476095Y1418372D01*
X63476095Y1418372D02*
X63523714Y1513610D01*
D10*
X57524667Y18761296D02*
X57486571Y18723200D01*
X57486571Y18723200D02*
X57372286Y18685105D01*
X57372286Y18685105D02*
X57296095Y18685105D01*
X57296095Y18685105D02*
X57181809Y18723200D01*
X57181809Y18723200D02*
X57105619Y18799391D01*
X57105619Y18799391D02*
X57067524Y18875581D01*
X57067524Y18875581D02*
X57029428Y19027962D01*
X57029428Y19027962D02*
X57029428Y19142248D01*
X57029428Y19142248D02*
X57067524Y19294629D01*
X57067524Y19294629D02*
X57105619Y19370820D01*
X57105619Y19370820D02*
X57181809Y19447010D01*
X57181809Y19447010D02*
X57296095Y19485105D01*
X57296095Y19485105D02*
X57372286Y19485105D01*
X57372286Y19485105D02*
X57486571Y19447010D01*
X57486571Y19447010D02*
X57524667Y19408915D01*
X57829428Y19408915D02*
X57867524Y19447010D01*
X57867524Y19447010D02*
X57943714Y19485105D01*
X57943714Y19485105D02*
X58134190Y19485105D01*
X58134190Y19485105D02*
X58210381Y19447010D01*
X58210381Y19447010D02*
X58248476Y19408915D01*
X58248476Y19408915D02*
X58286571Y19332724D01*
X58286571Y19332724D02*
X58286571Y19256534D01*
X58286571Y19256534D02*
X58248476Y19142248D01*
X58248476Y19142248D02*
X57791333Y18685105D01*
X57791333Y18685105D02*
X58286571Y18685105D01*
D11*
X49998333Y1291420D02*
X49950714Y1243800D01*
X49950714Y1243800D02*
X49807857Y1196181D01*
X49807857Y1196181D02*
X49712619Y1196181D01*
X49712619Y1196181D02*
X49569762Y1243800D01*
X49569762Y1243800D02*
X49474524Y1339039D01*
X49474524Y1339039D02*
X49426905Y1434277D01*
X49426905Y1434277D02*
X49379286Y1624753D01*
X49379286Y1624753D02*
X49379286Y1767610D01*
X49379286Y1767610D02*
X49426905Y1958086D01*
X49426905Y1958086D02*
X49474524Y2053324D01*
X49474524Y2053324D02*
X49569762Y2148562D01*
X49569762Y2148562D02*
X49712619Y2196181D01*
X49712619Y2196181D02*
X49807857Y2196181D01*
X49807857Y2196181D02*
X49950714Y2148562D01*
X49950714Y2148562D02*
X49998333Y2100943D01*
X50950714Y1196181D02*
X50379286Y1196181D01*
X50665000Y1196181D02*
X50665000Y2196181D01*
X50665000Y2196181D02*
X50569762Y2053324D01*
X50569762Y2053324D02*
X50474524Y1958086D01*
X50474524Y1958086D02*
X50379286Y1910467D01*
X67335476Y14394705D02*
X67335476Y13747086D01*
X67335476Y13747086D02*
X67373571Y13670896D01*
X67373571Y13670896D02*
X67411666Y13632800D01*
X67411666Y13632800D02*
X67487857Y13594705D01*
X67487857Y13594705D02*
X67640238Y13594705D01*
X67640238Y13594705D02*
X67716428Y13632800D01*
X67716428Y13632800D02*
X67754523Y13670896D01*
X67754523Y13670896D02*
X67792619Y13747086D01*
X67792619Y13747086D02*
X67792619Y14394705D01*
X68097380Y14394705D02*
X68592618Y14394705D01*
X68592618Y14394705D02*
X68325952Y14089943D01*
X68325952Y14089943D02*
X68440237Y14089943D01*
X68440237Y14089943D02*
X68516428Y14051848D01*
X68516428Y14051848D02*
X68554523Y14013753D01*
X68554523Y14013753D02*
X68592618Y13937562D01*
X68592618Y13937562D02*
X68592618Y13747086D01*
X68592618Y13747086D02*
X68554523Y13670896D01*
X68554523Y13670896D02*
X68516428Y13632800D01*
X68516428Y13632800D02*
X68440237Y13594705D01*
X68440237Y13594705D02*
X68211666Y13594705D01*
X68211666Y13594705D02*
X68135475Y13632800D01*
X68135475Y13632800D02*
X68097380Y13670896D01*
X87725642Y815181D02*
X87392309Y1291372D01*
X87154214Y815181D02*
X87154214Y1815181D01*
X87154214Y1815181D02*
X87535166Y1815181D01*
X87535166Y1815181D02*
X87630404Y1767562D01*
X87630404Y1767562D02*
X87678023Y1719943D01*
X87678023Y1719943D02*
X87725642Y1624705D01*
X87725642Y1624705D02*
X87725642Y1481848D01*
X87725642Y1481848D02*
X87678023Y1386610D01*
X87678023Y1386610D02*
X87630404Y1338991D01*
X87630404Y1338991D02*
X87535166Y1291372D01*
X87535166Y1291372D02*
X87154214Y1291372D01*
X88678023Y815181D02*
X88106595Y815181D01*
X88392309Y815181D02*
X88392309Y1815181D01*
X88392309Y1815181D02*
X88297071Y1672324D01*
X88297071Y1672324D02*
X88201833Y1577086D01*
X88201833Y1577086D02*
X88106595Y1529467D01*
X89058976Y1719943D02*
X89106595Y1767562D01*
X89106595Y1767562D02*
X89201833Y1815181D01*
X89201833Y1815181D02*
X89439928Y1815181D01*
X89439928Y1815181D02*
X89535166Y1767562D01*
X89535166Y1767562D02*
X89582785Y1719943D01*
X89582785Y1719943D02*
X89630404Y1624705D01*
X89630404Y1624705D02*
X89630404Y1529467D01*
X89630404Y1529467D02*
X89582785Y1386610D01*
X89582785Y1386610D02*
X89011357Y815181D01*
X89011357Y815181D02*
X89630404Y815181D01*
X94988142Y3196420D02*
X94940523Y3148800D01*
X94940523Y3148800D02*
X94797666Y3101181D01*
X94797666Y3101181D02*
X94702428Y3101181D01*
X94702428Y3101181D02*
X94559571Y3148800D01*
X94559571Y3148800D02*
X94464333Y3244039D01*
X94464333Y3244039D02*
X94416714Y3339277D01*
X94416714Y3339277D02*
X94369095Y3529753D01*
X94369095Y3529753D02*
X94369095Y3672610D01*
X94369095Y3672610D02*
X94416714Y3863086D01*
X94416714Y3863086D02*
X94464333Y3958324D01*
X94464333Y3958324D02*
X94559571Y4053562D01*
X94559571Y4053562D02*
X94702428Y4101181D01*
X94702428Y4101181D02*
X94797666Y4101181D01*
X94797666Y4101181D02*
X94940523Y4053562D01*
X94940523Y4053562D02*
X94988142Y4005943D01*
X95940523Y3101181D02*
X95369095Y3101181D01*
X95654809Y3101181D02*
X95654809Y4101181D01*
X95654809Y4101181D02*
X95559571Y3958324D01*
X95559571Y3958324D02*
X95464333Y3863086D01*
X95464333Y3863086D02*
X95369095Y3815467D01*
X96797666Y4101181D02*
X96607190Y4101181D01*
X96607190Y4101181D02*
X96511952Y4053562D01*
X96511952Y4053562D02*
X96464333Y4005943D01*
X96464333Y4005943D02*
X96369095Y3863086D01*
X96369095Y3863086D02*
X96321476Y3672610D01*
X96321476Y3672610D02*
X96321476Y3291658D01*
X96321476Y3291658D02*
X96369095Y3196420D01*
X96369095Y3196420D02*
X96416714Y3148800D01*
X96416714Y3148800D02*
X96511952Y3101181D01*
X96511952Y3101181D02*
X96702428Y3101181D01*
X96702428Y3101181D02*
X96797666Y3148800D01*
X96797666Y3148800D02*
X96845285Y3196420D01*
X96845285Y3196420D02*
X96892904Y3291658D01*
X96892904Y3291658D02*
X96892904Y3529753D01*
X96892904Y3529753D02*
X96845285Y3624991D01*
X96845285Y3624991D02*
X96797666Y3672610D01*
X96797666Y3672610D02*
X96702428Y3720229D01*
X96702428Y3720229D02*
X96511952Y3720229D01*
X96511952Y3720229D02*
X96416714Y3672610D01*
X96416714Y3672610D02*
X96369095Y3624991D01*
X96369095Y3624991D02*
X96321476Y3529753D01*
X81131580Y9358334D02*
X81179200Y9310715D01*
X81179200Y9310715D02*
X81226819Y9167858D01*
X81226819Y9167858D02*
X81226819Y9072620D01*
X81226819Y9072620D02*
X81179200Y8929763D01*
X81179200Y8929763D02*
X81083961Y8834525D01*
X81083961Y8834525D02*
X80988723Y8786906D01*
X80988723Y8786906D02*
X80798247Y8739287D01*
X80798247Y8739287D02*
X80655390Y8739287D01*
X80655390Y8739287D02*
X80464914Y8786906D01*
X80464914Y8786906D02*
X80369676Y8834525D01*
X80369676Y8834525D02*
X80274438Y8929763D01*
X80274438Y8929763D02*
X80226819Y9072620D01*
X80226819Y9072620D02*
X80226819Y9167858D01*
X80226819Y9167858D02*
X80274438Y9310715D01*
X80274438Y9310715D02*
X80322057Y9358334D01*
X80226819Y9691668D02*
X80226819Y10358334D01*
X80226819Y10358334D02*
X81226819Y9929763D01*
X70953333Y815181D02*
X70620000Y1291372D01*
X70381905Y815181D02*
X70381905Y1815181D01*
X70381905Y1815181D02*
X70762857Y1815181D01*
X70762857Y1815181D02*
X70858095Y1767562D01*
X70858095Y1767562D02*
X70905714Y1719943D01*
X70905714Y1719943D02*
X70953333Y1624705D01*
X70953333Y1624705D02*
X70953333Y1481848D01*
X70953333Y1481848D02*
X70905714Y1386610D01*
X70905714Y1386610D02*
X70858095Y1338991D01*
X70858095Y1338991D02*
X70762857Y1291372D01*
X70762857Y1291372D02*
X70381905Y1291372D01*
X71810476Y1481848D02*
X71810476Y815181D01*
X71572381Y1862800D02*
X71334286Y1148515D01*
X71334286Y1148515D02*
X71953333Y1148515D01*
D10*
X74075704Y7486668D02*
X74113800Y7448572D01*
X74113800Y7448572D02*
X74151895Y7334287D01*
X74151895Y7334287D02*
X74151895Y7258096D01*
X74151895Y7258096D02*
X74113800Y7143810D01*
X74113800Y7143810D02*
X74037609Y7067620D01*
X74037609Y7067620D02*
X73961419Y7029525D01*
X73961419Y7029525D02*
X73809038Y6991429D01*
X73809038Y6991429D02*
X73694752Y6991429D01*
X73694752Y6991429D02*
X73542371Y7029525D01*
X73542371Y7029525D02*
X73466180Y7067620D01*
X73466180Y7067620D02*
X73389990Y7143810D01*
X73389990Y7143810D02*
X73351895Y7258096D01*
X73351895Y7258096D02*
X73351895Y7334287D01*
X73351895Y7334287D02*
X73389990Y7448572D01*
X73389990Y7448572D02*
X73428085Y7486668D01*
X73694752Y7943810D02*
X73656657Y7867620D01*
X73656657Y7867620D02*
X73618561Y7829525D01*
X73618561Y7829525D02*
X73542371Y7791429D01*
X73542371Y7791429D02*
X73504276Y7791429D01*
X73504276Y7791429D02*
X73428085Y7829525D01*
X73428085Y7829525D02*
X73389990Y7867620D01*
X73389990Y7867620D02*
X73351895Y7943810D01*
X73351895Y7943810D02*
X73351895Y8096191D01*
X73351895Y8096191D02*
X73389990Y8172382D01*
X73389990Y8172382D02*
X73428085Y8210477D01*
X73428085Y8210477D02*
X73504276Y8248572D01*
X73504276Y8248572D02*
X73542371Y8248572D01*
X73542371Y8248572D02*
X73618561Y8210477D01*
X73618561Y8210477D02*
X73656657Y8172382D01*
X73656657Y8172382D02*
X73694752Y8096191D01*
X73694752Y8096191D02*
X73694752Y7943810D01*
X73694752Y7943810D02*
X73732847Y7867620D01*
X73732847Y7867620D02*
X73770942Y7829525D01*
X73770942Y7829525D02*
X73847133Y7791429D01*
X73847133Y7791429D02*
X73999514Y7791429D01*
X73999514Y7791429D02*
X74075704Y7829525D01*
X74075704Y7829525D02*
X74113800Y7867620D01*
X74113800Y7867620D02*
X74151895Y7943810D01*
X74151895Y7943810D02*
X74151895Y8096191D01*
X74151895Y8096191D02*
X74113800Y8172382D01*
X74113800Y8172382D02*
X74075704Y8210477D01*
X74075704Y8210477D02*
X73999514Y8248572D01*
X73999514Y8248572D02*
X73847133Y8248572D01*
X73847133Y8248572D02*
X73770942Y8210477D01*
X73770942Y8210477D02*
X73732847Y8172382D01*
X73732847Y8172382D02*
X73694752Y8096191D01*
X51428667Y5223105D02*
X51162000Y5604058D01*
X50971524Y5223105D02*
X50971524Y6023105D01*
X50971524Y6023105D02*
X51276286Y6023105D01*
X51276286Y6023105D02*
X51352476Y5985010D01*
X51352476Y5985010D02*
X51390571Y5946915D01*
X51390571Y5946915D02*
X51428667Y5870724D01*
X51428667Y5870724D02*
X51428667Y5756439D01*
X51428667Y5756439D02*
X51390571Y5680248D01*
X51390571Y5680248D02*
X51352476Y5642153D01*
X51352476Y5642153D02*
X51276286Y5604058D01*
X51276286Y5604058D02*
X50971524Y5604058D01*
X51695333Y6023105D02*
X52190571Y6023105D01*
X52190571Y6023105D02*
X51923905Y5718343D01*
X51923905Y5718343D02*
X52038190Y5718343D01*
X52038190Y5718343D02*
X52114381Y5680248D01*
X52114381Y5680248D02*
X52152476Y5642153D01*
X52152476Y5642153D02*
X52190571Y5565962D01*
X52190571Y5565962D02*
X52190571Y5375486D01*
X52190571Y5375486D02*
X52152476Y5299296D01*
X52152476Y5299296D02*
X52114381Y5261200D01*
X52114381Y5261200D02*
X52038190Y5223105D01*
X52038190Y5223105D02*
X51809619Y5223105D01*
X51809619Y5223105D02*
X51733428Y5261200D01*
X51733428Y5261200D02*
X51695333Y5299296D01*
D11*
X67270333Y4625181D02*
X66937000Y5101372D01*
X66698905Y4625181D02*
X66698905Y5625181D01*
X66698905Y5625181D02*
X67079857Y5625181D01*
X67079857Y5625181D02*
X67175095Y5577562D01*
X67175095Y5577562D02*
X67222714Y5529943D01*
X67222714Y5529943D02*
X67270333Y5434705D01*
X67270333Y5434705D02*
X67270333Y5291848D01*
X67270333Y5291848D02*
X67222714Y5196610D01*
X67222714Y5196610D02*
X67175095Y5148991D01*
X67175095Y5148991D02*
X67079857Y5101372D01*
X67079857Y5101372D02*
X66698905Y5101372D01*
X68175095Y5625181D02*
X67698905Y5625181D01*
X67698905Y5625181D02*
X67651286Y5148991D01*
X67651286Y5148991D02*
X67698905Y5196610D01*
X67698905Y5196610D02*
X67794143Y5244229D01*
X67794143Y5244229D02*
X68032238Y5244229D01*
X68032238Y5244229D02*
X68127476Y5196610D01*
X68127476Y5196610D02*
X68175095Y5148991D01*
X68175095Y5148991D02*
X68222714Y5053753D01*
X68222714Y5053753D02*
X68222714Y4815658D01*
X68222714Y4815658D02*
X68175095Y4720420D01*
X68175095Y4720420D02*
X68127476Y4672800D01*
X68127476Y4672800D02*
X68032238Y4625181D01*
X68032238Y4625181D02*
X67794143Y4625181D01*
X67794143Y4625181D02*
X67698905Y4672800D01*
X67698905Y4672800D02*
X67651286Y4720420D01*
X86804667Y-23394200D02*
X86947524Y-23441819D01*
X86947524Y-23441819D02*
X87185619Y-23441819D01*
X87185619Y-23441819D02*
X87280857Y-23394200D01*
X87280857Y-23394200D02*
X87328476Y-23346580D01*
X87328476Y-23346580D02*
X87376095Y-23251342D01*
X87376095Y-23251342D02*
X87376095Y-23156104D01*
X87376095Y-23156104D02*
X87328476Y-23060866D01*
X87328476Y-23060866D02*
X87280857Y-23013247D01*
X87280857Y-23013247D02*
X87185619Y-22965628D01*
X87185619Y-22965628D02*
X86995143Y-22918009D01*
X86995143Y-22918009D02*
X86899905Y-22870390D01*
X86899905Y-22870390D02*
X86852286Y-22822771D01*
X86852286Y-22822771D02*
X86804667Y-22727533D01*
X86804667Y-22727533D02*
X86804667Y-22632295D01*
X86804667Y-22632295D02*
X86852286Y-22537057D01*
X86852286Y-22537057D02*
X86899905Y-22489438D01*
X86899905Y-22489438D02*
X86995143Y-22441819D01*
X86995143Y-22441819D02*
X87233238Y-22441819D01*
X87233238Y-22441819D02*
X87376095Y-22489438D01*
X87709429Y-22441819D02*
X87947524Y-23441819D01*
X87947524Y-23441819D02*
X88138000Y-22727533D01*
X88138000Y-22727533D02*
X88328476Y-23441819D01*
X88328476Y-23441819D02*
X88566572Y-22441819D01*
X89423714Y-22441819D02*
X88947524Y-22441819D01*
X88947524Y-22441819D02*
X88899905Y-22918009D01*
X88899905Y-22918009D02*
X88947524Y-22870390D01*
X88947524Y-22870390D02*
X89042762Y-22822771D01*
X89042762Y-22822771D02*
X89280857Y-22822771D01*
X89280857Y-22822771D02*
X89376095Y-22870390D01*
X89376095Y-22870390D02*
X89423714Y-22918009D01*
X89423714Y-22918009D02*
X89471333Y-23013247D01*
X89471333Y-23013247D02*
X89471333Y-23251342D01*
X89471333Y-23251342D02*
X89423714Y-23346580D01*
X89423714Y-23346580D02*
X89376095Y-23394200D01*
X89376095Y-23394200D02*
X89280857Y-23441819D01*
X89280857Y-23441819D02*
X89042762Y-23441819D01*
X89042762Y-23441819D02*
X88947524Y-23394200D01*
X88947524Y-23394200D02*
X88899905Y-23346580D01*
X99703095Y-4661819D02*
X100274523Y-4661819D01*
X99988809Y-5661819D02*
X99988809Y-4661819D01*
X100607857Y-5661819D02*
X100607857Y-4661819D01*
X100607857Y-4661819D02*
X100988809Y-4661819D01*
X100988809Y-4661819D02*
X101084047Y-4709438D01*
X101084047Y-4709438D02*
X101131666Y-4757057D01*
X101131666Y-4757057D02*
X101179285Y-4852295D01*
X101179285Y-4852295D02*
X101179285Y-4995152D01*
X101179285Y-4995152D02*
X101131666Y-5090390D01*
X101131666Y-5090390D02*
X101084047Y-5138009D01*
X101084047Y-5138009D02*
X100988809Y-5185628D01*
X100988809Y-5185628D02*
X100607857Y-5185628D01*
X101560238Y-4757057D02*
X101607857Y-4709438D01*
X101607857Y-4709438D02*
X101703095Y-4661819D01*
X101703095Y-4661819D02*
X101941190Y-4661819D01*
X101941190Y-4661819D02*
X102036428Y-4709438D01*
X102036428Y-4709438D02*
X102084047Y-4757057D01*
X102084047Y-4757057D02*
X102131666Y-4852295D01*
X102131666Y-4852295D02*
X102131666Y-4947533D01*
X102131666Y-4947533D02*
X102084047Y-5090390D01*
X102084047Y-5090390D02*
X101512619Y-5661819D01*
X101512619Y-5661819D02*
X102131666Y-5661819D01*
D10*
X64001667Y12462105D02*
X63735000Y12843058D01*
X63544524Y12462105D02*
X63544524Y13262105D01*
X63544524Y13262105D02*
X63849286Y13262105D01*
X63849286Y13262105D02*
X63925476Y13224010D01*
X63925476Y13224010D02*
X63963571Y13185915D01*
X63963571Y13185915D02*
X64001667Y13109724D01*
X64001667Y13109724D02*
X64001667Y12995439D01*
X64001667Y12995439D02*
X63963571Y12919248D01*
X63963571Y12919248D02*
X63925476Y12881153D01*
X63925476Y12881153D02*
X63849286Y12843058D01*
X63849286Y12843058D02*
X63544524Y12843058D01*
X64687381Y13262105D02*
X64535000Y13262105D01*
X64535000Y13262105D02*
X64458809Y13224010D01*
X64458809Y13224010D02*
X64420714Y13185915D01*
X64420714Y13185915D02*
X64344524Y13071629D01*
X64344524Y13071629D02*
X64306428Y12919248D01*
X64306428Y12919248D02*
X64306428Y12614486D01*
X64306428Y12614486D02*
X64344524Y12538296D01*
X64344524Y12538296D02*
X64382619Y12500200D01*
X64382619Y12500200D02*
X64458809Y12462105D01*
X64458809Y12462105D02*
X64611190Y12462105D01*
X64611190Y12462105D02*
X64687381Y12500200D01*
X64687381Y12500200D02*
X64725476Y12538296D01*
X64725476Y12538296D02*
X64763571Y12614486D01*
X64763571Y12614486D02*
X64763571Y12804962D01*
X64763571Y12804962D02*
X64725476Y12881153D01*
X64725476Y12881153D02*
X64687381Y12919248D01*
X64687381Y12919248D02*
X64611190Y12957343D01*
X64611190Y12957343D02*
X64458809Y12957343D01*
X64458809Y12957343D02*
X64382619Y12919248D01*
X64382619Y12919248D02*
X64344524Y12881153D01*
X64344524Y12881153D02*
X64306428Y12804962D01*
D11*
X88900095Y14134181D02*
X88900095Y13324658D01*
X88900095Y13324658D02*
X88947714Y13229420D01*
X88947714Y13229420D02*
X88995333Y13181800D01*
X88995333Y13181800D02*
X89090571Y13134181D01*
X89090571Y13134181D02*
X89281047Y13134181D01*
X89281047Y13134181D02*
X89376285Y13181800D01*
X89376285Y13181800D02*
X89423904Y13229420D01*
X89423904Y13229420D02*
X89471523Y13324658D01*
X89471523Y13324658D02*
X89471523Y14134181D01*
X90423904Y14134181D02*
X89947714Y14134181D01*
X89947714Y14134181D02*
X89900095Y13657991D01*
X89900095Y13657991D02*
X89947714Y13705610D01*
X89947714Y13705610D02*
X90042952Y13753229D01*
X90042952Y13753229D02*
X90281047Y13753229D01*
X90281047Y13753229D02*
X90376285Y13705610D01*
X90376285Y13705610D02*
X90423904Y13657991D01*
X90423904Y13657991D02*
X90471523Y13562753D01*
X90471523Y13562753D02*
X90471523Y13324658D01*
X90471523Y13324658D02*
X90423904Y13229420D01*
X90423904Y13229420D02*
X90376285Y13181800D01*
X90376285Y13181800D02*
X90281047Y13134181D01*
X90281047Y13134181D02*
X90042952Y13134181D01*
X90042952Y13134181D02*
X89947714Y13181800D01*
X89947714Y13181800D02*
X89900095Y13229420D01*
X53046333Y4879181D02*
X52713000Y5355372D01*
X52474905Y4879181D02*
X52474905Y5879181D01*
X52474905Y5879181D02*
X52855857Y5879181D01*
X52855857Y5879181D02*
X52951095Y5831562D01*
X52951095Y5831562D02*
X52998714Y5783943D01*
X52998714Y5783943D02*
X53046333Y5688705D01*
X53046333Y5688705D02*
X53046333Y5545848D01*
X53046333Y5545848D02*
X52998714Y5450610D01*
X52998714Y5450610D02*
X52951095Y5402991D01*
X52951095Y5402991D02*
X52855857Y5355372D01*
X52855857Y5355372D02*
X52474905Y5355372D01*
X53998714Y4879181D02*
X53427286Y4879181D01*
X53713000Y4879181D02*
X53713000Y5879181D01*
X53713000Y5879181D02*
X53617762Y5736324D01*
X53617762Y5736324D02*
X53522524Y5641086D01*
X53522524Y5641086D02*
X53427286Y5593467D01*
X98615667Y-14733200D02*
X98758524Y-14780819D01*
X98758524Y-14780819D02*
X98996619Y-14780819D01*
X98996619Y-14780819D02*
X99091857Y-14733200D01*
X99091857Y-14733200D02*
X99139476Y-14685580D01*
X99139476Y-14685580D02*
X99187095Y-14590342D01*
X99187095Y-14590342D02*
X99187095Y-14495104D01*
X99187095Y-14495104D02*
X99139476Y-14399866D01*
X99139476Y-14399866D02*
X99091857Y-14352247D01*
X99091857Y-14352247D02*
X98996619Y-14304628D01*
X98996619Y-14304628D02*
X98806143Y-14257009D01*
X98806143Y-14257009D02*
X98710905Y-14209390D01*
X98710905Y-14209390D02*
X98663286Y-14161771D01*
X98663286Y-14161771D02*
X98615667Y-14066533D01*
X98615667Y-14066533D02*
X98615667Y-13971295D01*
X98615667Y-13971295D02*
X98663286Y-13876057D01*
X98663286Y-13876057D02*
X98710905Y-13828438D01*
X98710905Y-13828438D02*
X98806143Y-13780819D01*
X98806143Y-13780819D02*
X99044238Y-13780819D01*
X99044238Y-13780819D02*
X99187095Y-13828438D01*
X99520429Y-13780819D02*
X99758524Y-14780819D01*
X99758524Y-14780819D02*
X99949000Y-14066533D01*
X99949000Y-14066533D02*
X100139476Y-14780819D01*
X100139476Y-14780819D02*
X100377572Y-13780819D01*
X100663286Y-13780819D02*
X101282333Y-13780819D01*
X101282333Y-13780819D02*
X100949000Y-14161771D01*
X100949000Y-14161771D02*
X101091857Y-14161771D01*
X101091857Y-14161771D02*
X101187095Y-14209390D01*
X101187095Y-14209390D02*
X101234714Y-14257009D01*
X101234714Y-14257009D02*
X101282333Y-14352247D01*
X101282333Y-14352247D02*
X101282333Y-14590342D01*
X101282333Y-14590342D02*
X101234714Y-14685580D01*
X101234714Y-14685580D02*
X101187095Y-14733200D01*
X101187095Y-14733200D02*
X101091857Y-14780819D01*
X101091857Y-14780819D02*
X100806143Y-14780819D01*
X100806143Y-14780819D02*
X100710905Y-14733200D01*
X100710905Y-14733200D02*
X100663286Y-14685580D01*
X51300142Y10340181D02*
X50966809Y10816372D01*
X50728714Y10340181D02*
X50728714Y11340181D01*
X50728714Y11340181D02*
X51109666Y11340181D01*
X51109666Y11340181D02*
X51204904Y11292562D01*
X51204904Y11292562D02*
X51252523Y11244943D01*
X51252523Y11244943D02*
X51300142Y11149705D01*
X51300142Y11149705D02*
X51300142Y11006848D01*
X51300142Y11006848D02*
X51252523Y10911610D01*
X51252523Y10911610D02*
X51204904Y10863991D01*
X51204904Y10863991D02*
X51109666Y10816372D01*
X51109666Y10816372D02*
X50728714Y10816372D01*
X52252523Y10340181D02*
X51681095Y10340181D01*
X51966809Y10340181D02*
X51966809Y11340181D01*
X51966809Y11340181D02*
X51871571Y11197324D01*
X51871571Y11197324D02*
X51776333Y11102086D01*
X51776333Y11102086D02*
X51681095Y11054467D01*
X53204904Y10340181D02*
X52633476Y10340181D01*
X52919190Y10340181D02*
X52919190Y11340181D01*
X52919190Y11340181D02*
X52823952Y11197324D01*
X52823952Y11197324D02*
X52728714Y11102086D01*
X52728714Y11102086D02*
X52633476Y11054467D01*
X63614428Y3739705D02*
X64071571Y3739705D01*
X63842999Y2939705D02*
X63842999Y3739705D01*
X64338238Y2939705D02*
X64338238Y3739705D01*
X64338238Y3358753D02*
X64795381Y3358753D01*
X64795381Y2939705D02*
X64795381Y3739705D01*
X65595380Y2939705D02*
X65138237Y2939705D01*
X65366809Y2939705D02*
X65366809Y3739705D01*
X65366809Y3739705D02*
X65290618Y3625420D01*
X65290618Y3625420D02*
X65214428Y3549229D01*
X65214428Y3549229D02*
X65138237Y3511134D01*
D10*
X70341895Y9264668D02*
X69960942Y8998001D01*
X70341895Y8807525D02*
X69541895Y8807525D01*
X69541895Y8807525D02*
X69541895Y9112287D01*
X69541895Y9112287D02*
X69579990Y9188477D01*
X69579990Y9188477D02*
X69618085Y9226572D01*
X69618085Y9226572D02*
X69694276Y9264668D01*
X69694276Y9264668D02*
X69808561Y9264668D01*
X69808561Y9264668D02*
X69884752Y9226572D01*
X69884752Y9226572D02*
X69922847Y9188477D01*
X69922847Y9188477D02*
X69960942Y9112287D01*
X69960942Y9112287D02*
X69960942Y8807525D01*
X69541895Y9531334D02*
X69541895Y10064668D01*
X69541895Y10064668D02*
X70341895Y9721810D01*
X77580895Y9010668D02*
X77199942Y8744001D01*
X77580895Y8553525D02*
X76780895Y8553525D01*
X76780895Y8553525D02*
X76780895Y8858287D01*
X76780895Y8858287D02*
X76818990Y8934477D01*
X76818990Y8934477D02*
X76857085Y8972572D01*
X76857085Y8972572D02*
X76933276Y9010668D01*
X76933276Y9010668D02*
X77047561Y9010668D01*
X77047561Y9010668D02*
X77123752Y8972572D01*
X77123752Y8972572D02*
X77161847Y8934477D01*
X77161847Y8934477D02*
X77199942Y8858287D01*
X77199942Y8858287D02*
X77199942Y8553525D01*
X77123752Y9467810D02*
X77085657Y9391620D01*
X77085657Y9391620D02*
X77047561Y9353525D01*
X77047561Y9353525D02*
X76971371Y9315429D01*
X76971371Y9315429D02*
X76933276Y9315429D01*
X76933276Y9315429D02*
X76857085Y9353525D01*
X76857085Y9353525D02*
X76818990Y9391620D01*
X76818990Y9391620D02*
X76780895Y9467810D01*
X76780895Y9467810D02*
X76780895Y9620191D01*
X76780895Y9620191D02*
X76818990Y9696382D01*
X76818990Y9696382D02*
X76857085Y9734477D01*
X76857085Y9734477D02*
X76933276Y9772572D01*
X76933276Y9772572D02*
X76971371Y9772572D01*
X76971371Y9772572D02*
X77047561Y9734477D01*
X77047561Y9734477D02*
X77085657Y9696382D01*
X77085657Y9696382D02*
X77123752Y9620191D01*
X77123752Y9620191D02*
X77123752Y9467810D01*
X77123752Y9467810D02*
X77161847Y9391620D01*
X77161847Y9391620D02*
X77199942Y9353525D01*
X77199942Y9353525D02*
X77276133Y9315429D01*
X77276133Y9315429D02*
X77428514Y9315429D01*
X77428514Y9315429D02*
X77504704Y9353525D01*
X77504704Y9353525D02*
X77542800Y9391620D01*
X77542800Y9391620D02*
X77580895Y9467810D01*
X77580895Y9467810D02*
X77580895Y9620191D01*
X77580895Y9620191D02*
X77542800Y9696382D01*
X77542800Y9696382D02*
X77504704Y9734477D01*
X77504704Y9734477D02*
X77428514Y9772572D01*
X77428514Y9772572D02*
X77276133Y9772572D01*
X77276133Y9772572D02*
X77199942Y9734477D01*
X77199942Y9734477D02*
X77161847Y9696382D01*
X77161847Y9696382D02*
X77123752Y9620191D01*
D11*
X97282095Y-978819D02*
X97282095Y-1788342D01*
X97282095Y-1788342D02*
X97329714Y-1883580D01*
X97329714Y-1883580D02*
X97377333Y-1931200D01*
X97377333Y-1931200D02*
X97472571Y-1978819D01*
X97472571Y-1978819D02*
X97663047Y-1978819D01*
X97663047Y-1978819D02*
X97758285Y-1931200D01*
X97758285Y-1931200D02*
X97805904Y-1883580D01*
X97805904Y-1883580D02*
X97853523Y-1788342D01*
X97853523Y-1788342D02*
X97853523Y-978819D01*
X98282095Y-1074057D02*
X98329714Y-1026438D01*
X98329714Y-1026438D02*
X98424952Y-978819D01*
X98424952Y-978819D02*
X98663047Y-978819D01*
X98663047Y-978819D02*
X98758285Y-1026438D01*
X98758285Y-1026438D02*
X98805904Y-1074057D01*
X98805904Y-1074057D02*
X98853523Y-1169295D01*
X98853523Y-1169295D02*
X98853523Y-1264533D01*
X98853523Y-1264533D02*
X98805904Y-1407390D01*
X98805904Y-1407390D02*
X98234476Y-1978819D01*
X98234476Y-1978819D02*
X98853523Y-1978819D01*
X78422667Y-23394200D02*
X78565524Y-23441819D01*
X78565524Y-23441819D02*
X78803619Y-23441819D01*
X78803619Y-23441819D02*
X78898857Y-23394200D01*
X78898857Y-23394200D02*
X78946476Y-23346580D01*
X78946476Y-23346580D02*
X78994095Y-23251342D01*
X78994095Y-23251342D02*
X78994095Y-23156104D01*
X78994095Y-23156104D02*
X78946476Y-23060866D01*
X78946476Y-23060866D02*
X78898857Y-23013247D01*
X78898857Y-23013247D02*
X78803619Y-22965628D01*
X78803619Y-22965628D02*
X78613143Y-22918009D01*
X78613143Y-22918009D02*
X78517905Y-22870390D01*
X78517905Y-22870390D02*
X78470286Y-22822771D01*
X78470286Y-22822771D02*
X78422667Y-22727533D01*
X78422667Y-22727533D02*
X78422667Y-22632295D01*
X78422667Y-22632295D02*
X78470286Y-22537057D01*
X78470286Y-22537057D02*
X78517905Y-22489438D01*
X78517905Y-22489438D02*
X78613143Y-22441819D01*
X78613143Y-22441819D02*
X78851238Y-22441819D01*
X78851238Y-22441819D02*
X78994095Y-22489438D01*
X79327429Y-22441819D02*
X79565524Y-23441819D01*
X79565524Y-23441819D02*
X79756000Y-22727533D01*
X79756000Y-22727533D02*
X79946476Y-23441819D01*
X79946476Y-23441819D02*
X80184572Y-22441819D01*
X80517905Y-22537057D02*
X80565524Y-22489438D01*
X80565524Y-22489438D02*
X80660762Y-22441819D01*
X80660762Y-22441819D02*
X80898857Y-22441819D01*
X80898857Y-22441819D02*
X80994095Y-22489438D01*
X80994095Y-22489438D02*
X81041714Y-22537057D01*
X81041714Y-22537057D02*
X81089333Y-22632295D01*
X81089333Y-22632295D02*
X81089333Y-22727533D01*
X81089333Y-22727533D02*
X81041714Y-22870390D01*
X81041714Y-22870390D02*
X80470286Y-23441819D01*
X80470286Y-23441819D02*
X81089333Y-23441819D01*
X74001333Y1926420D02*
X73953714Y1878800D01*
X73953714Y1878800D02*
X73810857Y1831181D01*
X73810857Y1831181D02*
X73715619Y1831181D01*
X73715619Y1831181D02*
X73572762Y1878800D01*
X73572762Y1878800D02*
X73477524Y1974039D01*
X73477524Y1974039D02*
X73429905Y2069277D01*
X73429905Y2069277D02*
X73382286Y2259753D01*
X73382286Y2259753D02*
X73382286Y2402610D01*
X73382286Y2402610D02*
X73429905Y2593086D01*
X73429905Y2593086D02*
X73477524Y2688324D01*
X73477524Y2688324D02*
X73572762Y2783562D01*
X73572762Y2783562D02*
X73715619Y2831181D01*
X73715619Y2831181D02*
X73810857Y2831181D01*
X73810857Y2831181D02*
X73953714Y2783562D01*
X73953714Y2783562D02*
X74001333Y2735943D01*
X74477524Y1831181D02*
X74668000Y1831181D01*
X74668000Y1831181D02*
X74763238Y1878800D01*
X74763238Y1878800D02*
X74810857Y1926420D01*
X74810857Y1926420D02*
X74906095Y2069277D01*
X74906095Y2069277D02*
X74953714Y2259753D01*
X74953714Y2259753D02*
X74953714Y2640705D01*
X74953714Y2640705D02*
X74906095Y2735943D01*
X74906095Y2735943D02*
X74858476Y2783562D01*
X74858476Y2783562D02*
X74763238Y2831181D01*
X74763238Y2831181D02*
X74572762Y2831181D01*
X74572762Y2831181D02*
X74477524Y2783562D01*
X74477524Y2783562D02*
X74429905Y2735943D01*
X74429905Y2735943D02*
X74382286Y2640705D01*
X74382286Y2640705D02*
X74382286Y2402610D01*
X74382286Y2402610D02*
X74429905Y2307372D01*
X74429905Y2307372D02*
X74477524Y2259753D01*
X74477524Y2259753D02*
X74572762Y2212134D01*
X74572762Y2212134D02*
X74763238Y2212134D01*
X74763238Y2212134D02*
X74858476Y2259753D01*
X74858476Y2259753D02*
X74906095Y2307372D01*
X74906095Y2307372D02*
X74953714Y2402610D01*
X92691295Y9010667D02*
X92691295Y8629715D01*
X92691295Y8629715D02*
X91891295Y8629715D01*
X91967485Y9239238D02*
X91929390Y9277334D01*
X91929390Y9277334D02*
X91891295Y9353524D01*
X91891295Y9353524D02*
X91891295Y9544000D01*
X91891295Y9544000D02*
X91929390Y9620191D01*
X91929390Y9620191D02*
X91967485Y9658286D01*
X91967485Y9658286D02*
X92043676Y9696381D01*
X92043676Y9696381D02*
X92119866Y9696381D01*
X92119866Y9696381D02*
X92234152Y9658286D01*
X92234152Y9658286D02*
X92691295Y9201143D01*
X92691295Y9201143D02*
X92691295Y9696381D01*
X94861142Y1196181D02*
X94527809Y1672372D01*
X94289714Y1196181D02*
X94289714Y2196181D01*
X94289714Y2196181D02*
X94670666Y2196181D01*
X94670666Y2196181D02*
X94765904Y2148562D01*
X94765904Y2148562D02*
X94813523Y2100943D01*
X94813523Y2100943D02*
X94861142Y2005705D01*
X94861142Y2005705D02*
X94861142Y1862848D01*
X94861142Y1862848D02*
X94813523Y1767610D01*
X94813523Y1767610D02*
X94765904Y1719991D01*
X94765904Y1719991D02*
X94670666Y1672372D01*
X94670666Y1672372D02*
X94289714Y1672372D01*
X95813523Y1196181D02*
X95242095Y1196181D01*
X95527809Y1196181D02*
X95527809Y2196181D01*
X95527809Y2196181D02*
X95432571Y2053324D01*
X95432571Y2053324D02*
X95337333Y1958086D01*
X95337333Y1958086D02*
X95242095Y1910467D01*
X96146857Y2196181D02*
X96765904Y2196181D01*
X96765904Y2196181D02*
X96432571Y1815229D01*
X96432571Y1815229D02*
X96575428Y1815229D01*
X96575428Y1815229D02*
X96670666Y1767610D01*
X96670666Y1767610D02*
X96718285Y1719991D01*
X96718285Y1719991D02*
X96765904Y1624753D01*
X96765904Y1624753D02*
X96765904Y1386658D01*
X96765904Y1386658D02*
X96718285Y1291420D01*
X96718285Y1291420D02*
X96670666Y1243800D01*
X96670666Y1243800D02*
X96575428Y1196181D01*
X96575428Y1196181D02*
X96289714Y1196181D01*
X96289714Y1196181D02*
X96194476Y1243800D01*
X96194476Y1243800D02*
X96146857Y1291420D01*
X66047580Y8882143D02*
X66095200Y8834524D01*
X66095200Y8834524D02*
X66142819Y8691667D01*
X66142819Y8691667D02*
X66142819Y8596429D01*
X66142819Y8596429D02*
X66095200Y8453572D01*
X66095200Y8453572D02*
X65999961Y8358334D01*
X65999961Y8358334D02*
X65904723Y8310715D01*
X65904723Y8310715D02*
X65714247Y8263096D01*
X65714247Y8263096D02*
X65571390Y8263096D01*
X65571390Y8263096D02*
X65380914Y8310715D01*
X65380914Y8310715D02*
X65285676Y8358334D01*
X65285676Y8358334D02*
X65190438Y8453572D01*
X65190438Y8453572D02*
X65142819Y8596429D01*
X65142819Y8596429D02*
X65142819Y8691667D01*
X65142819Y8691667D02*
X65190438Y8834524D01*
X65190438Y8834524D02*
X65238057Y8882143D01*
X66142819Y9834524D02*
X66142819Y9263096D01*
X66142819Y9548810D02*
X65142819Y9548810D01*
X65142819Y9548810D02*
X65285676Y9453572D01*
X65285676Y9453572D02*
X65380914Y9358334D01*
X65380914Y9358334D02*
X65428533Y9263096D01*
X65476152Y10691667D02*
X66142819Y10691667D01*
X65095200Y10453572D02*
X65809485Y10215477D01*
X65809485Y10215477D02*
X65809485Y10834524D01*
X54348142Y5895181D02*
X54014809Y6371372D01*
X53776714Y5895181D02*
X53776714Y6895181D01*
X53776714Y6895181D02*
X54157666Y6895181D01*
X54157666Y6895181D02*
X54252904Y6847562D01*
X54252904Y6847562D02*
X54300523Y6799943D01*
X54300523Y6799943D02*
X54348142Y6704705D01*
X54348142Y6704705D02*
X54348142Y6561848D01*
X54348142Y6561848D02*
X54300523Y6466610D01*
X54300523Y6466610D02*
X54252904Y6418991D01*
X54252904Y6418991D02*
X54157666Y6371372D01*
X54157666Y6371372D02*
X53776714Y6371372D01*
X55300523Y5895181D02*
X54729095Y5895181D01*
X55014809Y5895181D02*
X55014809Y6895181D01*
X55014809Y6895181D02*
X54919571Y6752324D01*
X54919571Y6752324D02*
X54824333Y6657086D01*
X54824333Y6657086D02*
X54729095Y6609467D01*
X55919571Y6895181D02*
X56014809Y6895181D01*
X56014809Y6895181D02*
X56110047Y6847562D01*
X56110047Y6847562D02*
X56157666Y6799943D01*
X56157666Y6799943D02*
X56205285Y6704705D01*
X56205285Y6704705D02*
X56252904Y6514229D01*
X56252904Y6514229D02*
X56252904Y6276134D01*
X56252904Y6276134D02*
X56205285Y6085658D01*
X56205285Y6085658D02*
X56157666Y5990420D01*
X56157666Y5990420D02*
X56110047Y5942800D01*
X56110047Y5942800D02*
X56014809Y5895181D01*
X56014809Y5895181D02*
X55919571Y5895181D01*
X55919571Y5895181D02*
X55824333Y5942800D01*
X55824333Y5942800D02*
X55776714Y5990420D01*
X55776714Y5990420D02*
X55729095Y6085658D01*
X55729095Y6085658D02*
X55681476Y6276134D01*
X55681476Y6276134D02*
X55681476Y6514229D01*
X55681476Y6514229D02*
X55729095Y6704705D01*
X55729095Y6704705D02*
X55776714Y6799943D01*
X55776714Y6799943D02*
X55824333Y6847562D01*
X55824333Y6847562D02*
X55919571Y6895181D01*
X98615667Y-21317200D02*
X98758524Y-21364819D01*
X98758524Y-21364819D02*
X98996619Y-21364819D01*
X98996619Y-21364819D02*
X99091857Y-21317200D01*
X99091857Y-21317200D02*
X99139476Y-21269580D01*
X99139476Y-21269580D02*
X99187095Y-21174342D01*
X99187095Y-21174342D02*
X99187095Y-21079104D01*
X99187095Y-21079104D02*
X99139476Y-20983866D01*
X99139476Y-20983866D02*
X99091857Y-20936247D01*
X99091857Y-20936247D02*
X98996619Y-20888628D01*
X98996619Y-20888628D02*
X98806143Y-20841009D01*
X98806143Y-20841009D02*
X98710905Y-20793390D01*
X98710905Y-20793390D02*
X98663286Y-20745771D01*
X98663286Y-20745771D02*
X98615667Y-20650533D01*
X98615667Y-20650533D02*
X98615667Y-20555295D01*
X98615667Y-20555295D02*
X98663286Y-20460057D01*
X98663286Y-20460057D02*
X98710905Y-20412438D01*
X98710905Y-20412438D02*
X98806143Y-20364819D01*
X98806143Y-20364819D02*
X99044238Y-20364819D01*
X99044238Y-20364819D02*
X99187095Y-20412438D01*
X99520429Y-20364819D02*
X99758524Y-21364819D01*
X99758524Y-21364819D02*
X99949000Y-20650533D01*
X99949000Y-20650533D02*
X100139476Y-21364819D01*
X100139476Y-21364819D02*
X100377572Y-20364819D01*
X101187095Y-20698152D02*
X101187095Y-21364819D01*
X100949000Y-20317200D02*
X100710905Y-21031485D01*
X100710905Y-21031485D02*
X101329952Y-21031485D01*
X76123809Y13785515D02*
X76047619Y13823610D01*
X76047619Y13823610D02*
X75971428Y13899800D01*
X75971428Y13899800D02*
X75857142Y14014086D01*
X75857142Y14014086D02*
X75780952Y14052181D01*
X75780952Y14052181D02*
X75704761Y14052181D01*
X75742857Y13861705D02*
X75666666Y13899800D01*
X75666666Y13899800D02*
X75590476Y13975991D01*
X75590476Y13975991D02*
X75552380Y14128372D01*
X75552380Y14128372D02*
X75552380Y14395039D01*
X75552380Y14395039D02*
X75590476Y14547420D01*
X75590476Y14547420D02*
X75666666Y14623610D01*
X75666666Y14623610D02*
X75742857Y14661705D01*
X75742857Y14661705D02*
X75895238Y14661705D01*
X75895238Y14661705D02*
X75971428Y14623610D01*
X75971428Y14623610D02*
X76047619Y14547420D01*
X76047619Y14547420D02*
X76085714Y14395039D01*
X76085714Y14395039D02*
X76085714Y14128372D01*
X76085714Y14128372D02*
X76047619Y13975991D01*
X76047619Y13975991D02*
X75971428Y13899800D01*
X75971428Y13899800D02*
X75895238Y13861705D01*
X75895238Y13861705D02*
X75742857Y13861705D01*
X76847618Y13861705D02*
X76390475Y13861705D01*
X76619047Y13861705D02*
X76619047Y14661705D01*
X76619047Y14661705D02*
X76542856Y14547420D01*
X76542856Y14547420D02*
X76466666Y14471229D01*
X76466666Y14471229D02*
X76390475Y14433134D01*
X101266666Y-6784819D02*
X101266666Y-7499104D01*
X101266666Y-7499104D02*
X101219047Y-7641961D01*
X101219047Y-7641961D02*
X101123809Y-7737200D01*
X101123809Y-7737200D02*
X100980952Y-7784819D01*
X100980952Y-7784819D02*
X100885714Y-7784819D01*
X101647619Y-6784819D02*
X102266666Y-6784819D01*
X102266666Y-6784819D02*
X101933333Y-7165771D01*
X101933333Y-7165771D02*
X102076190Y-7165771D01*
X102076190Y-7165771D02*
X102171428Y-7213390D01*
X102171428Y-7213390D02*
X102219047Y-7261009D01*
X102219047Y-7261009D02*
X102266666Y-7356247D01*
X102266666Y-7356247D02*
X102266666Y-7594342D01*
X102266666Y-7594342D02*
X102219047Y-7689580D01*
X102219047Y-7689580D02*
X102171428Y-7737200D01*
X102171428Y-7737200D02*
X102076190Y-7784819D01*
X102076190Y-7784819D02*
X101790476Y-7784819D01*
X101790476Y-7784819D02*
X101695238Y-7737200D01*
X101695238Y-7737200D02*
X101647619Y-7689580D01*
X59944095Y-11780819D02*
X59944095Y-12590342D01*
X59944095Y-12590342D02*
X59991714Y-12685580D01*
X59991714Y-12685580D02*
X60039333Y-12733200D01*
X60039333Y-12733200D02*
X60134571Y-12780819D01*
X60134571Y-12780819D02*
X60325047Y-12780819D01*
X60325047Y-12780819D02*
X60420285Y-12733200D01*
X60420285Y-12733200D02*
X60467904Y-12685580D01*
X60467904Y-12685580D02*
X60515523Y-12590342D01*
X60515523Y-12590342D02*
X60515523Y-11780819D01*
X61420285Y-11780819D02*
X61229809Y-11780819D01*
X61229809Y-11780819D02*
X61134571Y-11828438D01*
X61134571Y-11828438D02*
X61086952Y-11876057D01*
X61086952Y-11876057D02*
X60991714Y-12018914D01*
X60991714Y-12018914D02*
X60944095Y-12209390D01*
X60944095Y-12209390D02*
X60944095Y-12590342D01*
X60944095Y-12590342D02*
X60991714Y-12685580D01*
X60991714Y-12685580D02*
X61039333Y-12733200D01*
X61039333Y-12733200D02*
X61134571Y-12780819D01*
X61134571Y-12780819D02*
X61325047Y-12780819D01*
X61325047Y-12780819D02*
X61420285Y-12733200D01*
X61420285Y-12733200D02*
X61467904Y-12685580D01*
X61467904Y-12685580D02*
X61515523Y-12590342D01*
X61515523Y-12590342D02*
X61515523Y-12352247D01*
X61515523Y-12352247D02*
X61467904Y-12257009D01*
X61467904Y-12257009D02*
X61420285Y-12209390D01*
X61420285Y-12209390D02*
X61325047Y-12161771D01*
X61325047Y-12161771D02*
X61134571Y-12161771D01*
X61134571Y-12161771D02*
X61039333Y-12209390D01*
X61039333Y-12209390D02*
X60991714Y-12257009D01*
X60991714Y-12257009D02*
X60944095Y-12352247D01*
X98726666Y-6784819D02*
X98726666Y-7499104D01*
X98726666Y-7499104D02*
X98679047Y-7641961D01*
X98679047Y-7641961D02*
X98583809Y-7737200D01*
X98583809Y-7737200D02*
X98440952Y-7784819D01*
X98440952Y-7784819D02*
X98345714Y-7784819D01*
X99631428Y-7118152D02*
X99631428Y-7784819D01*
X99393333Y-6737200D02*
X99155238Y-7451485D01*
X99155238Y-7451485D02*
X99774285Y-7451485D01*
X100019295Y2273334D02*
X100590723Y2273334D01*
X100590723Y2273334D02*
X100705009Y2235239D01*
X100705009Y2235239D02*
X100781200Y2159048D01*
X100781200Y2159048D02*
X100819295Y2044763D01*
X100819295Y2044763D02*
X100819295Y1968572D01*
X100819295Y3073334D02*
X100819295Y2616191D01*
X100819295Y2844763D02*
X100019295Y2844763D01*
X100019295Y2844763D02*
X100133580Y2768572D01*
X100133580Y2768572D02*
X100209771Y2692382D01*
X100209771Y2692382D02*
X100247866Y2616191D01*
D12*
X-129225000Y107865000D02*
G75*
G03*
X-129225000Y107865000I-700000J0D01*
G01*
X58055000Y6530000D02*
X57580000Y6530000D01*
X61325000Y10750000D02*
X61800000Y10750000D01*
X61800000Y6530000D02*
X61800000Y7005000D01*
X61800000Y10750000D02*
X61800000Y10275000D01*
X61325000Y6530000D02*
X61800000Y6530000D01*
X58055000Y10750000D02*
X57580000Y10750000D01*
X57580000Y6530000D02*
X57580000Y7005000D01*
X74785000Y8949000D02*
X70785000Y8949000D01*
X74785000Y13149000D02*
X70785000Y13149000D01*
X61060000Y4325252D02*
X61060000Y3802748D01*
X59590000Y4325252D02*
X59590000Y3802748D01*
X71126748Y6196000D02*
X71649252Y6196000D01*
X71126748Y4726000D02*
X71649252Y4726000D01*
X101660000Y-5765000D02*
X101660000Y-5640000D01*
X101573276Y-5765000D02*
X101660000Y-5765000D01*
X100270000Y-5765000D02*
X101660000Y-5765000D01*
X100270000Y-5765000D02*
X100356724Y-5765000D01*
X100270000Y-5765000D02*
X100270000Y-5640000D01*
X100270000Y-5080000D02*
X100270000Y-4395000D01*
X100270000Y-4395000D02*
X100965000Y-4395000D01*
D11*
X90217000Y8102000D02*
X92142000Y8102000D01*
X90992000Y4852000D02*
X92142000Y4852000D01*
D13*
X90067000Y7877000D02*
G75*
G03*
X90067000Y7877000I-100000J0D01*
G01*
D12*
X84777252Y3656000D02*
X84254748Y3656000D01*
X84777252Y2186000D02*
X84254748Y2186000D01*
X80424000Y-3600000D02*
X87724000Y-3600000D01*
X80424000Y-9100000D02*
X87724000Y-9100000D01*
X87724000Y-9100000D02*
X87724000Y-7950000D01*
X82995000Y5858000D02*
X82995000Y7858000D01*
X82995000Y5858000D02*
X78995000Y5858000D01*
X82995000Y5958000D02*
X82145000Y5958000D01*
X82995000Y6058000D02*
X82145000Y6058000D01*
X82995000Y6158000D02*
X82145000Y6158000D01*
X82995000Y7558000D02*
X82145000Y7558000D01*
X82995000Y7658000D02*
X82145000Y7658000D01*
X82995000Y7758000D02*
X82145000Y7758000D01*
X82995000Y7858000D02*
X78995000Y7858000D01*
X82895000Y5858000D02*
X82895000Y7858000D01*
X82145000Y5858000D02*
X82145000Y6158000D01*
X82145000Y7558000D02*
X82145000Y7858000D01*
X53000000Y12819748D02*
X53000000Y13342252D01*
X54470000Y12819748D02*
X54470000Y13342252D01*
X56434000Y1123000D02*
X58884000Y1123000D01*
X58234000Y4343000D02*
X56434000Y4343000D01*
D14*
X59084000Y1033000D02*
G75*
G03*
X59084000Y1033000I-150000J0D01*
G01*
D12*
X103445000Y-8205000D02*
X104140000Y-8205000D01*
X103445000Y-8890000D02*
X103445000Y-8205000D01*
X103445000Y-9575000D02*
X103445000Y-10450000D01*
X103445000Y-9575000D02*
X103531724Y-9575000D01*
X103445000Y-10450000D02*
X103745507Y-10450000D01*
X104534493Y-10450000D02*
X104835000Y-10450000D01*
X104748276Y-9575000D02*
X104835000Y-9575000D01*
X104835000Y-9575000D02*
X104835000Y-10450000D01*
X75318000Y-20133500D02*
X76701000Y-20133500D01*
X75318000Y-20133500D02*
X75318000Y-18749500D01*
X75558000Y-19893500D02*
X93098000Y-19893500D01*
X75558000Y-19893500D02*
X75558000Y-9993500D01*
X93098000Y-19893500D02*
X93098000Y-9993500D01*
X77343000Y-16973500D02*
X78613000Y-16973500D01*
X77463000Y-16973500D02*
X77463000Y-15620167D01*
X77583000Y-16973500D02*
X77583000Y-15620167D01*
X77703000Y-16973500D02*
X77703000Y-15620167D01*
X77823000Y-16973500D02*
X77823000Y-15620167D01*
X77943000Y-16973500D02*
X77943000Y-15620167D01*
X78063000Y-16973500D02*
X78063000Y-15620167D01*
X78183000Y-16973500D02*
X78183000Y-15620167D01*
X78303000Y-16973500D02*
X78303000Y-15620167D01*
X78423000Y-16973500D02*
X78423000Y-15620167D01*
X78543000Y-16973500D02*
X78543000Y-15620167D01*
X78613000Y-16973500D02*
X78613000Y-12913500D01*
X79883000Y-16973500D02*
X81153000Y-16973500D01*
X80003000Y-16973500D02*
X80003000Y-15620167D01*
X80123000Y-16973500D02*
X80123000Y-15620167D01*
X80243000Y-16973500D02*
X80243000Y-15620167D01*
X80363000Y-16973500D02*
X80363000Y-15620167D01*
X80483000Y-16973500D02*
X80483000Y-15620167D01*
X80603000Y-16973500D02*
X80603000Y-15620167D01*
X80723000Y-16973500D02*
X80723000Y-15620167D01*
X80843000Y-16973500D02*
X80843000Y-15620167D01*
X80963000Y-16973500D02*
X80963000Y-15620167D01*
X81083000Y-16973500D02*
X81083000Y-15620167D01*
X81153000Y-16973500D02*
X81153000Y-12913500D01*
X82423000Y-16973500D02*
X83693000Y-16973500D01*
X82543000Y-16973500D02*
X82543000Y-15620167D01*
X82663000Y-16973500D02*
X82663000Y-15620167D01*
X82783000Y-16973500D02*
X82783000Y-15620167D01*
X82903000Y-16973500D02*
X82903000Y-15620167D01*
X83023000Y-16973500D02*
X83023000Y-15620167D01*
X83143000Y-16973500D02*
X83143000Y-15620167D01*
X83263000Y-16973500D02*
X83263000Y-15620167D01*
X83383000Y-16973500D02*
X83383000Y-15620167D01*
X83503000Y-16973500D02*
X83503000Y-15620167D01*
X83623000Y-16973500D02*
X83623000Y-15620167D01*
X83693000Y-16973500D02*
X83693000Y-12913500D01*
X84963000Y-16973500D02*
X86233000Y-16973500D01*
X85083000Y-16973500D02*
X85083000Y-15620167D01*
X85203000Y-16973500D02*
X85203000Y-15620167D01*
X85323000Y-16973500D02*
X85323000Y-15620167D01*
X85443000Y-16973500D02*
X85443000Y-15620167D01*
X85563000Y-16973500D02*
X85563000Y-15620167D01*
X85683000Y-16973500D02*
X85683000Y-15620167D01*
X85803000Y-16973500D02*
X85803000Y-15620167D01*
X85923000Y-16973500D02*
X85923000Y-15620167D01*
X86043000Y-16973500D02*
X86043000Y-15620167D01*
X86163000Y-16973500D02*
X86163000Y-15620167D01*
X86233000Y-16973500D02*
X86233000Y-12913500D01*
X87503000Y-16973500D02*
X88773000Y-16973500D01*
X87623000Y-16973500D02*
X87623000Y-15620167D01*
X87743000Y-16973500D02*
X87743000Y-15620167D01*
X87863000Y-16973500D02*
X87863000Y-15620167D01*
X87983000Y-16973500D02*
X87983000Y-15620167D01*
X88103000Y-16973500D02*
X88103000Y-15620167D01*
X88223000Y-16973500D02*
X88223000Y-15620167D01*
X88343000Y-16973500D02*
X88343000Y-15620167D01*
X88463000Y-16973500D02*
X88463000Y-15620167D01*
X88583000Y-16973500D02*
X88583000Y-15620167D01*
X88703000Y-16973500D02*
X88703000Y-15620167D01*
X88773000Y-16973500D02*
X88773000Y-12913500D01*
X90043000Y-16973500D02*
X91313000Y-16973500D01*
X90163000Y-16973500D02*
X90163000Y-15620167D01*
X90283000Y-16973500D02*
X90283000Y-15620167D01*
X90403000Y-16973500D02*
X90403000Y-15620167D01*
X90523000Y-16973500D02*
X90523000Y-15620167D01*
X90643000Y-16973500D02*
X90643000Y-15620167D01*
X90763000Y-16973500D02*
X90763000Y-15620167D01*
X90883000Y-16973500D02*
X90883000Y-15620167D01*
X91003000Y-16973500D02*
X91003000Y-15620167D01*
X91123000Y-16973500D02*
X91123000Y-15620167D01*
X91243000Y-16973500D02*
X91243000Y-15620167D01*
X91313000Y-16973500D02*
X91313000Y-12913500D01*
X77343000Y-15620167D02*
X78613000Y-15620167D01*
X79883000Y-15620167D02*
X81153000Y-15620167D01*
X82423000Y-15620167D02*
X83693000Y-15620167D01*
X84963000Y-15620167D02*
X86233000Y-15620167D01*
X87503000Y-15620167D02*
X88773000Y-15620167D01*
X90043000Y-15620167D02*
X91313000Y-15620167D01*
X77343000Y-12913500D02*
X77343000Y-16973500D01*
X78613000Y-12913500D02*
X77343000Y-12913500D01*
X79883000Y-12913500D02*
X79883000Y-16973500D01*
X81153000Y-12913500D02*
X79883000Y-12913500D01*
X82423000Y-12913500D02*
X82423000Y-16973500D01*
X83693000Y-12913500D02*
X82423000Y-12913500D01*
X84963000Y-12913500D02*
X84963000Y-16973500D01*
X86233000Y-12913500D02*
X84963000Y-12913500D01*
X87503000Y-12913500D02*
X87503000Y-16973500D01*
X88773000Y-12913500D02*
X87503000Y-12913500D01*
X90043000Y-12913500D02*
X90043000Y-16973500D01*
X91313000Y-12913500D02*
X90043000Y-12913500D01*
X75558000Y-9993500D02*
X93098000Y-9993500D01*
X55032000Y12819748D02*
X55032000Y13342252D01*
X56502000Y12819748D02*
X56502000Y13342252D01*
X88492064Y4726000D02*
X88037936Y4726000D01*
X88492064Y6196000D02*
X88037936Y6196000D01*
X95825000Y-8205000D02*
X96520000Y-8205000D01*
X95825000Y-8890000D02*
X95825000Y-8205000D01*
X95825000Y-9575000D02*
X95825000Y-10450000D01*
X95825000Y-9575000D02*
X95911724Y-9575000D01*
X95825000Y-10450000D02*
X96125507Y-10450000D01*
X96914493Y-10450000D02*
X97215000Y-10450000D01*
X97128276Y-9575000D02*
X97215000Y-9575000D01*
X97215000Y-9575000D02*
X97215000Y-10450000D01*
X59096000Y12819748D02*
X59096000Y13342252D01*
X60566000Y12819748D02*
X60566000Y13342252D01*
D11*
X77314000Y6813000D02*
X77314000Y8193000D01*
X75114000Y8193000D02*
X75114000Y6193000D01*
X75114000Y8193000D02*
X75714000Y8193000D01*
X76714000Y8193000D02*
X77314000Y8193000D01*
D12*
X50265000Y7720064D02*
X50265000Y7265936D01*
X48795000Y7720064D02*
X48795000Y7265936D01*
X65632000Y6230252D02*
X65632000Y5707748D01*
X64162000Y6230252D02*
X64162000Y5707748D01*
X65050936Y2386000D02*
X65505064Y2386000D01*
X65050936Y916000D02*
X65505064Y916000D01*
X57064000Y12819748D02*
X57064000Y13342252D01*
X58534000Y12819748D02*
X58534000Y13342252D01*
X52443748Y2513000D02*
X52966252Y2513000D01*
X52443748Y1043000D02*
X52966252Y1043000D01*
D11*
X66863000Y13182000D02*
X68788000Y13182000D01*
X67638000Y9932000D02*
X68788000Y9932000D01*
D13*
X66713000Y12957000D02*
G75*
G03*
X66713000Y12957000I-100000J0D01*
G01*
D12*
X88141436Y3656000D02*
X88595564Y3656000D01*
X88141436Y2186000D02*
X88595564Y2186000D01*
X92590252Y4418000D02*
X92067748Y4418000D01*
X92590252Y2948000D02*
X92067748Y2948000D01*
X79743000Y10421252D02*
X79743000Y9898748D01*
X78273000Y10421252D02*
X78273000Y9898748D01*
X69315000Y2386064D02*
X69315000Y1931936D01*
X67845000Y2386064D02*
X67845000Y1931936D01*
X71126748Y8355000D02*
X71649252Y8355000D01*
X71126748Y6885000D02*
X71649252Y6885000D01*
X52297000Y8101064D02*
X52297000Y7646936D01*
X50827000Y8101064D02*
X50827000Y7646936D01*
X67477936Y7466000D02*
X67932064Y7466000D01*
X67477936Y5996000D02*
X67932064Y5996000D01*
X86085000Y-28919000D02*
X86085000Y-29709000D01*
X86685000Y-30719000D02*
X92385000Y-30719000D01*
X87935000Y-27869000D02*
X89635000Y-27869000D01*
X90935000Y-27869000D02*
X91135000Y-27869000D01*
X92985000Y-29709000D02*
X92985000Y-28919000D01*
G36*
X104714261Y1577991D02*
G01*
X104755695Y1577891D01*
X104793403Y1577727D01*
X104827171Y1577500D01*
X104856787Y1577215D01*
X104882036Y1576872D01*
X104902704Y1576474D01*
X104918579Y1576024D01*
X104929446Y1575523D01*
X104933508Y1575195D01*
X104985719Y1567054D01*
X105035323Y1554276D01*
X105082351Y1536842D01*
X105126833Y1514730D01*
X105168802Y1487921D01*
X105208288Y1456393D01*
X105245322Y1420126D01*
X105279935Y1379099D01*
X105312157Y1333292D01*
X105322459Y1316814D01*
X105345794Y1275736D01*
X105367570Y1231836D01*
X105387946Y1184691D01*
X105407084Y1133877D01*
X105425143Y1078972D01*
X105442286Y1019550D01*
X105456871Y962654D01*
X105476160Y879730D01*
X105492720Y800752D01*
X105506633Y725116D01*
X105517981Y652214D01*
X105526846Y581441D01*
X105533310Y512191D01*
X105537456Y443857D01*
X105539364Y375833D01*
X105539519Y351366D01*
X105538196Y275454D01*
X105534011Y202395D01*
X105526806Y131232D01*
X105516421Y61004D01*
X105502698Y-9246D01*
X105485477Y-80479D01*
X105464599Y-153653D01*
X105446306Y-210801D01*
X105424598Y-273688D01*
X105403131Y-331525D01*
X105381767Y-384599D01*
X105360368Y-433196D01*
X105338797Y-477605D01*
X105316918Y-518113D01*
X105294591Y-555006D01*
X105271680Y-588571D01*
X105254994Y-610527D01*
X105240426Y-627667D01*
X105223309Y-645896D01*
X105204771Y-664148D01*
X105185936Y-681357D01*
X105167932Y-696458D01*
X105151884Y-708385D01*
X105150844Y-709086D01*
X105114264Y-731392D01*
X105076999Y-749649D01*
X105038254Y-764115D01*
X104997232Y-775049D01*
X104953137Y-782710D01*
X104911331Y-786938D01*
X104904767Y-787212D01*
X104892919Y-787473D01*
X104875855Y-787720D01*
X104853641Y-787953D01*
X104826344Y-788172D01*
X104794032Y-788377D01*
X104756771Y-788567D01*
X104714628Y-788743D01*
X104667671Y-788904D01*
X104615966Y-789050D01*
X104559581Y-789181D01*
X104498582Y-789297D01*
X104433037Y-789396D01*
X104363012Y-789480D01*
X104288575Y-789548D01*
X104209792Y-789600D01*
X104126731Y-789635D01*
X104039458Y-789654D01*
X103997022Y-789657D01*
X103120168Y-789681D01*
X103120168Y-863253D01*
X103120168Y-936826D01*
X103703399Y-936826D01*
X104286631Y-936826D01*
X104286593Y-1150187D01*
X104286556Y-1196761D01*
X104286453Y-1238352D01*
X104286272Y-1275330D01*
X104285999Y-1308064D01*
X104285621Y-1336921D01*
X104285125Y-1362271D01*
X104284499Y-1384482D01*
X104283729Y-1403922D01*
X104282802Y-1420961D01*
X104281705Y-1435966D01*
X104280425Y-1449307D01*
X104278949Y-1461352D01*
X104277264Y-1472469D01*
X104275357Y-1483028D01*
X104274703Y-1486323D01*
X104262007Y-1535801D01*
X104244383Y-1583221D01*
X104221846Y-1628570D01*
X104194413Y-1671835D01*
X104162098Y-1713001D01*
X104124918Y-1752056D01*
X104082890Y-1788986D01*
X104036028Y-1823778D01*
X103984349Y-1856419D01*
X103927869Y-1886895D01*
X103866604Y-1915193D01*
X103800569Y-1941299D01*
X103729782Y-1965201D01*
X103687991Y-1977640D01*
X103586032Y-2004311D01*
X103485239Y-2026000D01*
X103385088Y-2042802D01*
X103285059Y-2054815D01*
X103251261Y-2057802D01*
X103239410Y-2058556D01*
X103223427Y-2059279D01*
X103204242Y-2059955D01*
X103182783Y-2060567D01*
X103159980Y-2061099D01*
X103136761Y-2061532D01*
X103114056Y-2061851D01*
X103092794Y-2062039D01*
X103073904Y-2062078D01*
X103058315Y-2061951D01*
X103046956Y-2061643D01*
X103045257Y-2061556D01*
X102963947Y-2055722D01*
X102886226Y-2047540D01*
X102810770Y-2036784D01*
X102736254Y-2023228D01*
X102661356Y-2006643D01*
X102584751Y-1986804D01*
X102547638Y-1976248D01*
X102477243Y-1954034D01*
X102411638Y-1929876D01*
X102350584Y-1903658D01*
X102293843Y-1875265D01*
X102241175Y-1844582D01*
X102192343Y-1811493D01*
X102166413Y-1791734D01*
X102123358Y-1754648D01*
X102085297Y-1715775D01*
X102052141Y-1675012D01*
X102023805Y-1632253D01*
X102004434Y-1596306D01*
X101988522Y-1560624D01*
X101976117Y-1525667D01*
X101966859Y-1490034D01*
X101960534Y-1453173D01*
X103557988Y-1453173D01*
X103558282Y-1467457D01*
X103559116Y-1481620D01*
X103560351Y-1493731D01*
X103561387Y-1499992D01*
X103571015Y-1532554D01*
X103585267Y-1563096D01*
X103603732Y-1591079D01*
X103625997Y-1615967D01*
X103651653Y-1637222D01*
X103679004Y-1653667D01*
X103710631Y-1666674D01*
X103743209Y-1674451D01*
X103776435Y-1676963D01*
X103810006Y-1674179D01*
X103829875Y-1670033D01*
X103860830Y-1659453D01*
X103889363Y-1644433D01*
X103915149Y-1625454D01*
X103937865Y-1602997D01*
X103957187Y-1577544D01*
X103972791Y-1549576D01*
X103984354Y-1519574D01*
X103991553Y-1488020D01*
X103994063Y-1455395D01*
X103992408Y-1428275D01*
X103985801Y-1394513D01*
X103974629Y-1363413D01*
X103958723Y-1334632D01*
X103937914Y-1307825D01*
X103928367Y-1297765D01*
X103907543Y-1278875D01*
X103886436Y-1264012D01*
X103863274Y-1252066D01*
X103842519Y-1244018D01*
X103832539Y-1240658D01*
X103824389Y-1238287D01*
X103816757Y-1236732D01*
X103808332Y-1235823D01*
X103797804Y-1235387D01*
X103783861Y-1235252D01*
X103775634Y-1235243D01*
X103759569Y-1235298D01*
X103747556Y-1235574D01*
X103738298Y-1236238D01*
X103730496Y-1237457D01*
X103722853Y-1239399D01*
X103714071Y-1242231D01*
X103709692Y-1243739D01*
X103677398Y-1257588D01*
X103648397Y-1275388D01*
X103622950Y-1296782D01*
X103601318Y-1321409D01*
X103583760Y-1348910D01*
X103570538Y-1378925D01*
X103561912Y-1411094D01*
X103558141Y-1445059D01*
X103557988Y-1453173D01*
X101960534Y-1453173D01*
X101960388Y-1452325D01*
X101956341Y-1411141D01*
X101956201Y-1409030D01*
X101955826Y-1400344D01*
X101955488Y-1386320D01*
X101955186Y-1366970D01*
X101954922Y-1342307D01*
X101954695Y-1312341D01*
X101954504Y-1277087D01*
X101954351Y-1236557D01*
X101954234Y-1190761D01*
X101954155Y-1139714D01*
X101954113Y-1083427D01*
X101954108Y-1021912D01*
X101954140Y-955183D01*
X101954209Y-883250D01*
X101954316Y-806127D01*
X101954338Y-792356D01*
X101954447Y-726822D01*
X101954553Y-666419D01*
X101954657Y-610924D01*
X101954763Y-560119D01*
X101954871Y-513782D01*
X101954985Y-471693D01*
X101955106Y-433631D01*
X101955237Y-399375D01*
X101955378Y-368705D01*
X101955533Y-341400D01*
X101955704Y-317240D01*
X101955892Y-296004D01*
X101956101Y-277471D01*
X101956331Y-261422D01*
X101956584Y-247634D01*
X101956864Y-235888D01*
X101957172Y-225962D01*
X101957511Y-217637D01*
X101957881Y-210692D01*
X101958286Y-204906D01*
X101958727Y-200058D01*
X101959207Y-195929D01*
X101959728Y-192296D01*
X101960038Y-190397D01*
X101972145Y-132568D01*
X101988339Y-78090D01*
X102008735Y-26730D01*
X102033446Y21744D01*
X102062588Y67567D01*
X102096276Y110972D01*
X102121881Y139270D01*
X102163461Y178896D01*
X102207643Y213866D01*
X102254347Y244140D01*
X102303496Y269672D01*
X102355011Y290422D01*
X102408813Y306345D01*
X102439916Y313139D01*
X102471390Y319171D01*
X103114817Y320712D01*
X103185081Y320878D01*
X103250208Y321029D01*
X103310412Y321169D01*
X103365908Y321306D01*
X103416908Y321442D01*
X103463628Y321584D01*
X103506281Y321737D01*
X103545080Y321905D01*
X103580241Y322094D01*
X103611976Y322309D01*
X103640501Y322554D01*
X103666028Y322836D01*
X103688772Y323158D01*
X103708947Y323527D01*
X103726766Y323947D01*
X103742444Y324423D01*
X103756194Y324960D01*
X103768232Y325564D01*
X103778769Y326239D01*
X103788021Y326991D01*
X103796202Y327824D01*
X103803525Y328744D01*
X103810204Y329756D01*
X103816454Y330865D01*
X103822487Y332076D01*
X103828520Y333394D01*
X103834764Y334824D01*
X103841434Y336371D01*
X103848744Y338041D01*
X103849207Y338145D01*
X103908166Y354092D01*
X103965453Y375000D01*
X104020794Y400664D01*
X104073915Y430881D01*
X104124541Y465446D01*
X104172397Y504156D01*
X104217210Y546805D01*
X104258705Y593191D01*
X104296607Y643107D01*
X104330642Y696352D01*
X104330680Y696417D01*
X104359855Y751678D01*
X104384111Y808964D01*
X104403367Y868020D01*
X104417545Y928590D01*
X104426565Y990417D01*
X104428381Y1010846D01*
X104428799Y1019192D01*
X104429193Y1032520D01*
X104429560Y1050460D01*
X104429895Y1072642D01*
X104430196Y1098697D01*
X104430460Y1128257D01*
X104430682Y1160950D01*
X104430860Y1196409D01*
X104430990Y1234264D01*
X104431069Y1274145D01*
X104431095Y1312494D01*
X104431101Y1578025D01*
X104669315Y1578025D01*
X104714261Y1577991D01*
G37*
G36*
X103154571Y2823913D02*
G01*
X103160298Y2823830D01*
X103216217Y2822726D01*
X103268030Y2821147D01*
X103316970Y2819017D01*
X103364266Y2816262D01*
X103411149Y2812807D01*
X103458851Y2808579D01*
X103508602Y2803502D01*
X103524149Y2801798D01*
X103576347Y2795677D01*
X103623724Y2789420D01*
X103666810Y2782908D01*
X103706136Y2776028D01*
X103742231Y2768662D01*
X103775625Y2760694D01*
X103806849Y2752009D01*
X103836433Y2742489D01*
X103864906Y2732019D01*
X103890341Y2721550D01*
X103943834Y2695906D01*
X103994234Y2666633D01*
X104041329Y2633977D01*
X104084911Y2598183D01*
X104124770Y2559497D01*
X104160698Y2518162D01*
X104192484Y2474424D01*
X104219920Y2428530D01*
X104242797Y2380722D01*
X104260904Y2331248D01*
X104274034Y2280352D01*
X104276120Y2269609D01*
X104277309Y2262838D01*
X104278408Y2255865D01*
X104279420Y2248469D01*
X104280347Y2240432D01*
X104281193Y2231532D01*
X104281961Y2221551D01*
X104282654Y2210269D01*
X104283275Y2197465D01*
X104283828Y2182921D01*
X104284314Y2166415D01*
X104284738Y2147728D01*
X104285103Y2126641D01*
X104285412Y2102933D01*
X104285667Y2076385D01*
X104285872Y2046777D01*
X104286030Y2013888D01*
X104286144Y1977500D01*
X104286218Y1937392D01*
X104286253Y1893345D01*
X104286255Y1845138D01*
X104286225Y1792551D01*
X104286166Y1735366D01*
X104286082Y1673362D01*
X104285977Y1606319D01*
X104285927Y1576688D01*
X104285816Y1511147D01*
X104285716Y1450726D01*
X104285621Y1395195D01*
X104285524Y1344321D01*
X104285422Y1297874D01*
X104285307Y1255624D01*
X104285175Y1217340D01*
X104285020Y1182790D01*
X104284837Y1151743D01*
X104284620Y1123970D01*
X104284364Y1099238D01*
X104284063Y1077318D01*
X104283711Y1057978D01*
X104283304Y1040987D01*
X104282836Y1026115D01*
X104282300Y1013130D01*
X104281692Y1001801D01*
X104281007Y991899D01*
X104280238Y983192D01*
X104279380Y975448D01*
X104278429Y968438D01*
X104277377Y961931D01*
X104276220Y955694D01*
X104274952Y949498D01*
X104273568Y943112D01*
X104272062Y936305D01*
X104270516Y929247D01*
X104260460Y890820D01*
X104246787Y850813D01*
X104230156Y810865D01*
X104211225Y772610D01*
X104198201Y749762D01*
X104167662Y704259D01*
X104133093Y661980D01*
X104094847Y623191D01*
X104053279Y588156D01*
X104008743Y557139D01*
X103961593Y530405D01*
X103912182Y508219D01*
X103860865Y490845D01*
X103846532Y486963D01*
X103839404Y485098D01*
X103832966Y483370D01*
X103827006Y481771D01*
X103821311Y480298D01*
X103815669Y478944D01*
X103809868Y477704D01*
X103803696Y476572D01*
X103796939Y475543D01*
X103789386Y474611D01*
X103780824Y473771D01*
X103771041Y473017D01*
X103759824Y472343D01*
X103746962Y471745D01*
X103732240Y471215D01*
X103715448Y470750D01*
X103696373Y470342D01*
X103674803Y469988D01*
X103650524Y469681D01*
X103623325Y469415D01*
X103592994Y469185D01*
X103559317Y468986D01*
X103522083Y468812D01*
X103481079Y468657D01*
X103436093Y468515D01*
X103386912Y468383D01*
X103333324Y468252D01*
X103275117Y468119D01*
X103212078Y467978D01*
X103143995Y467823D01*
X103112142Y467748D01*
X103041836Y467585D01*
X102976666Y467440D01*
X102916419Y467307D01*
X102860879Y467179D01*
X102809834Y467051D01*
X102763069Y466917D01*
X102720369Y466771D01*
X102681520Y466607D01*
X102646309Y466419D01*
X102614520Y466202D01*
X102585940Y465949D01*
X102560355Y465654D01*
X102537550Y465313D01*
X102517311Y464918D01*
X102499424Y464464D01*
X102483675Y463946D01*
X102469850Y463356D01*
X102457734Y462690D01*
X102447113Y461941D01*
X102437773Y461103D01*
X102429500Y460172D01*
X102422080Y459140D01*
X102415298Y458001D01*
X102408940Y456751D01*
X102402792Y455383D01*
X102396640Y453891D01*
X102390270Y452269D01*
X102383467Y450512D01*
X102376017Y448614D01*
X102371063Y447383D01*
X102312928Y430372D01*
X102256030Y408160D01*
X102200389Y380756D01*
X102146024Y348170D01*
X102103526Y318423D01*
X102086013Y304458D01*
X102066250Y287180D01*
X102045200Y267553D01*
X102023826Y246542D01*
X102003091Y225112D01*
X101983960Y204227D01*
X101967396Y184852D01*
X101957403Y172116D01*
X101921093Y119270D01*
X101889809Y64819D01*
X101863592Y8865D01*
X101842483Y-48489D01*
X101826521Y-107139D01*
X101815747Y-166983D01*
X101812100Y-199761D01*
X101811623Y-208054D01*
X101811183Y-221465D01*
X101810784Y-239764D01*
X101810425Y-262718D01*
X101810111Y-290094D01*
X101809843Y-321663D01*
X101809623Y-357190D01*
X101809453Y-396445D01*
X101809336Y-439195D01*
X101809273Y-485210D01*
X101809262Y-510773D01*
X101809235Y-789681D01*
X101599887Y-789287D01*
X101566047Y-789198D01*
X101533143Y-789061D01*
X101501659Y-788881D01*
X101472078Y-788664D01*
X101444886Y-788415D01*
X101420567Y-788138D01*
X101399604Y-787839D01*
X101382483Y-787522D01*
X101369688Y-787193D01*
X101361703Y-786857D01*
X101361109Y-786817D01*
X101305858Y-780366D01*
X101252578Y-768961D01*
X101201338Y-752628D01*
X101152203Y-731392D01*
X101105239Y-705277D01*
X101061468Y-675037D01*
X101048727Y-664572D01*
X101033646Y-650988D01*
X101017260Y-635317D01*
X101000606Y-618592D01*
X100984721Y-601844D01*
X100970639Y-586104D01*
X100963013Y-576988D01*
X100952804Y-563861D01*
X100941225Y-548208D01*
X100929741Y-532044D01*
X100920302Y-518130D01*
X100909885Y-501289D01*
X100898140Y-480622D01*
X100885654Y-457298D01*
X100873013Y-432487D01*
X100860802Y-407361D01*
X100849608Y-383090D01*
X100840016Y-360844D01*
X100834251Y-346258D01*
X100822268Y-312059D01*
X100810156Y-273228D01*
X100798069Y-230476D01*
X100786162Y-184516D01*
X100774591Y-136058D01*
X100763510Y-85814D01*
X100753074Y-34495D01*
X100743439Y17188D01*
X100734758Y68523D01*
X100727189Y118798D01*
X100720884Y167302D01*
X100719254Y181480D01*
X100716366Y208273D01*
X100714025Y232206D01*
X100712178Y254348D01*
X100710772Y275766D01*
X100709754Y297528D01*
X100709070Y320703D01*
X100708669Y346359D01*
X100708496Y375563D01*
X100708482Y398185D01*
X100708629Y433356D01*
X100709049Y464333D01*
X100709812Y492270D01*
X100710987Y518319D01*
X100712642Y543635D01*
X100714849Y569369D01*
X100717675Y596677D01*
X100721191Y626710D01*
X100723213Y642982D01*
X100728580Y682331D01*
X100734961Y723651D01*
X100742210Y766269D01*
X100750182Y809509D01*
X100758730Y852698D01*
X100767707Y895161D01*
X100776967Y936224D01*
X100786364Y975213D01*
X100795751Y1011454D01*
X100804983Y1044273D01*
X100813913Y1072995D01*
X100820866Y1092908D01*
X100845981Y1153237D01*
X100875035Y1210067D01*
X100907879Y1263287D01*
X100944367Y1312780D01*
X100984351Y1358434D01*
X101027685Y1400134D01*
X101074219Y1437766D01*
X101123808Y1471215D01*
X101176304Y1500369D01*
X101231559Y1525113D01*
X101289427Y1545333D01*
X101349759Y1560914D01*
X101412408Y1571744D01*
X101444046Y1575293D01*
X101449997Y1575589D01*
X101461262Y1575869D01*
X101477806Y1576132D01*
X101499591Y1576379D01*
X101526583Y1576608D01*
X101558744Y1576821D01*
X101596039Y1577017D01*
X101638431Y1577196D01*
X101685883Y1577358D01*
X101738361Y1577502D01*
X101795828Y1577630D01*
X101858246Y1577739D01*
X101925581Y1577831D01*
X101997796Y1577905D01*
X102074855Y1577961D01*
X102156722Y1578000D01*
X102243359Y1578020D01*
X102296821Y1578023D01*
X103120168Y1578025D01*
X103120168Y1652936D01*
X103120168Y1727846D01*
X102536936Y1727846D01*
X101953705Y1727846D01*
X101953742Y1955922D01*
X101953787Y2007428D01*
X101953918Y2053942D01*
X101954148Y2095823D01*
X101954495Y2133429D01*
X101954974Y2167119D01*
X101955600Y2197252D01*
X101956391Y2224186D01*
X101957362Y2248279D01*
X101957436Y2249652D01*
X102246161Y2249652D01*
X102247755Y2216314D01*
X102252343Y2190686D01*
X102257807Y2173202D01*
X102266064Y2153658D01*
X102276196Y2133852D01*
X102287287Y2115581D01*
X102297906Y2101252D01*
X102321454Y2077412D01*
X102348415Y2057375D01*
X102378086Y2041531D01*
X102409759Y2030271D01*
X102436423Y2024773D01*
X102454149Y2023489D01*
X102474760Y2023939D01*
X102496121Y2026002D01*
X102514183Y2029132D01*
X102530455Y2033958D01*
X102548968Y2041504D01*
X102567992Y2050902D01*
X102585800Y2061281D01*
X102600664Y2071775D01*
X102603192Y2073863D01*
X102627504Y2097963D01*
X102647459Y2124738D01*
X102662993Y2153667D01*
X102674043Y2184232D01*
X102680546Y2215915D01*
X102682437Y2248195D01*
X102679654Y2280554D01*
X102672133Y2312473D01*
X102659810Y2343433D01*
X102642622Y2372915D01*
X102640188Y2376387D01*
X102619150Y2401366D01*
X102594682Y2422658D01*
X102567403Y2440029D01*
X102537934Y2453245D01*
X102506895Y2462075D01*
X102474907Y2466285D01*
X102442588Y2465643D01*
X102414903Y2461008D01*
X102383100Y2450763D01*
X102353934Y2436168D01*
X102327674Y2417667D01*
X102304588Y2395707D01*
X102284944Y2370735D01*
X102269011Y2343197D01*
X102257057Y2313540D01*
X102249351Y2282209D01*
X102246161Y2249652D01*
X101957436Y2249652D01*
X101958528Y2269891D01*
X101959906Y2289379D01*
X101961512Y2307102D01*
X101963360Y2323420D01*
X101965469Y2338690D01*
X101967852Y2353270D01*
X101970527Y2367520D01*
X101972397Y2376624D01*
X101983947Y2421795D01*
X101998890Y2463764D01*
X102017381Y2502677D01*
X102039577Y2538677D01*
X102065634Y2571910D01*
X102095709Y2602519D01*
X102129958Y2630648D01*
X102168536Y2656443D01*
X102211602Y2680046D01*
X102259310Y2701603D01*
X102311818Y2721258D01*
X102363561Y2737513D01*
X102420049Y2752522D01*
X102481219Y2766273D01*
X102546538Y2778709D01*
X102615475Y2789772D01*
X102687495Y2799403D01*
X102762068Y2807546D01*
X102838660Y2814143D01*
X102916739Y2819136D01*
X102995772Y2822467D01*
X103075226Y2824078D01*
X103154571Y2823913D01*
G37*
X97730000Y-4395000D02*
X98425000Y-4395000D01*
X97730000Y-5080000D02*
X97730000Y-4395000D01*
X97730000Y-5765000D02*
X97730000Y-5640000D01*
X97730000Y-5765000D02*
X97816724Y-5765000D01*
X97730000Y-5765000D02*
X99120000Y-5765000D01*
X99033276Y-5765000D02*
X99120000Y-5765000D01*
X99120000Y-5765000D02*
X99120000Y-5640000D01*
X61763000Y12853936D02*
X61763000Y13308064D01*
X63233000Y12853936D02*
X63233000Y13308064D01*
X84963000Y14498000D02*
X81513000Y14498000D01*
X84963000Y14498000D02*
X86913000Y14498000D01*
X84963000Y9378000D02*
X83013000Y9378000D01*
X84963000Y9378000D02*
X86913000Y9378000D01*
X52468436Y4545000D02*
X52922564Y4545000D01*
X52468436Y3075000D02*
X52922564Y3075000D01*
X97579000Y-15156000D02*
X97579000Y-15556000D01*
X97579000Y-15156000D02*
X102319000Y-15156000D01*
X97579000Y-18556000D02*
X97579000Y-16496000D01*
X97579000Y-19896000D02*
X97579000Y-19496000D01*
X97579000Y-19896000D02*
X102319000Y-19896000D01*
X102319000Y-15156000D02*
X102319000Y-15556000D01*
X102319000Y-18556000D02*
X102319000Y-16496000D01*
X102319000Y-19896000D02*
X102319000Y-19496000D01*
X54486436Y10641000D02*
X54940564Y10641000D01*
X54486436Y9171000D02*
X54940564Y9171000D01*
X63219000Y4291064D02*
X63219000Y3836936D01*
X61749000Y4291064D02*
X61749000Y3836936D01*
X67932064Y8028000D02*
X67477936Y8028000D01*
X67932064Y9498000D02*
X67477936Y9498000D01*
X76949000Y11911064D02*
X76949000Y11456936D01*
X75479000Y11911064D02*
X75479000Y11456936D01*
X45620000Y-2880000D02*
X45920000Y-2880000D01*
X45620000Y-2880000D02*
X45620000Y18120000D01*
X48020000Y-2880000D02*
X48420000Y-2880000D01*
X48287000Y-2880000D02*
X48287000Y127000D01*
X50620000Y-2880000D02*
X51020000Y-2880000D01*
X53120000Y-2880000D02*
X53520000Y-2880000D01*
X55720000Y-2880000D02*
X56120000Y-2880000D01*
X58220000Y-2880000D02*
X58620000Y-2880000D01*
X60720000Y-2880000D02*
X61120000Y-2880000D01*
X63320000Y-2880000D02*
X63720000Y-2880000D01*
X65820000Y-2880000D02*
X66220000Y-2880000D01*
X68420000Y-2880000D02*
X68820000Y-2880000D01*
X70920000Y-2880000D02*
X71320000Y-2880000D01*
X73420000Y-2880000D02*
X73820000Y-2880000D01*
X76020000Y-2880000D02*
X76420000Y-2880000D01*
X78520000Y-2880000D02*
X78920000Y-2880000D01*
X81120000Y-2880000D02*
X81520000Y-2880000D01*
X83620000Y-2880000D02*
X84020000Y-2880000D01*
X86220000Y-2880000D02*
X86620000Y-2880000D01*
X88720000Y-2880000D02*
X89120000Y-2880000D01*
X91220000Y-2880000D02*
X91620000Y-2880000D01*
X93820000Y-2880000D02*
X94220000Y-2880000D01*
X48287000Y127000D02*
X45620000Y127000D01*
X96620000Y3920000D02*
X96620000Y-2880000D01*
X96620000Y6120000D02*
X96620000Y6520000D01*
X96620000Y8720000D02*
X96620000Y9120000D01*
X45620000Y18120000D02*
X45920000Y18120000D01*
X48020000Y18120000D02*
X48420000Y18120000D01*
X50620000Y18120000D02*
X51020000Y18120000D01*
X53120000Y18120000D02*
X53520000Y18120000D01*
X55720000Y18120000D02*
X56120000Y18120000D01*
X58220000Y18120000D02*
X58620000Y18120000D01*
X60720000Y18120000D02*
X61120000Y18120000D01*
X63320000Y18120000D02*
X63720000Y18120000D01*
X65820000Y18120000D02*
X66220000Y18120000D01*
X68420000Y18120000D02*
X68820000Y18120000D01*
X70920000Y18120000D02*
X71320000Y18120000D01*
X73420000Y18120000D02*
X73820000Y18120000D01*
X76020000Y18120000D02*
X76420000Y18120000D01*
X78520000Y18120000D02*
X78920000Y18120000D01*
X81120000Y18120000D02*
X81520000Y18120000D01*
X83620000Y18120000D02*
X84020000Y18120000D01*
X86220000Y18120000D02*
X86620000Y18120000D01*
X88720000Y18120000D02*
X89120000Y18120000D01*
X91220000Y18120000D02*
X91620000Y18120000D01*
X93820000Y18120000D02*
X94220000Y18120000D01*
X96620000Y18120000D02*
X96620000Y11320000D01*
X76306000Y-28886000D02*
X76306000Y-29676000D01*
X76906000Y-30686000D02*
X82606000Y-30686000D01*
X78156000Y-27836000D02*
X79856000Y-27836000D01*
X81156000Y-27836000D02*
X81356000Y-27836000D01*
X83206000Y-29676000D02*
X83206000Y-28886000D01*
X71112748Y4037000D02*
X71635252Y4037000D01*
X71112748Y2567000D02*
X71635252Y2567000D01*
X93150000Y7017000D02*
X93150000Y11017000D01*
X97350000Y7017000D02*
X97350000Y11017000D01*
X92101936Y2259000D02*
X92556064Y2259000D01*
X92101936Y789000D02*
X92556064Y789000D01*
X64743000Y9786252D02*
X64743000Y9263748D01*
X63273000Y9786252D02*
X63273000Y9263748D01*
X54486436Y8609000D02*
X54940564Y8609000D01*
X54486436Y7139000D02*
X54940564Y7139000D01*
X97579000Y-21740000D02*
X97579000Y-22140000D01*
X97579000Y-21740000D02*
X102319000Y-21740000D01*
X97579000Y-25140000D02*
X97579000Y-23080000D01*
X97579000Y-26480000D02*
X97579000Y-26080000D01*
X97579000Y-26480000D02*
X102319000Y-26480000D01*
X102319000Y-21740000D02*
X102319000Y-22140000D01*
X102319000Y-25140000D02*
X102319000Y-23080000D01*
X102319000Y-26480000D02*
X102319000Y-26080000D01*
D15*
X77625000Y14812000D02*
X77625000Y14562000D01*
X77625000Y14812000D02*
X80225000Y14812000D01*
X77625000Y12112000D02*
X77625000Y12362000D01*
X80225000Y14812000D02*
X80225000Y14562000D01*
X80225000Y12112000D02*
X77625000Y12112000D01*
X80225000Y12112000D02*
X80225000Y12362000D01*
D13*
X77375000Y14812000D02*
G75*
G03*
X77375000Y14812000I-150000J0D01*
G01*
D12*
X100905000Y-8205000D02*
X101600000Y-8205000D01*
X100905000Y-8890000D02*
X100905000Y-8205000D01*
X100905000Y-9575000D02*
X100905000Y-10450000D01*
X100905000Y-9575000D02*
X100991724Y-9575000D01*
X100905000Y-10450000D02*
X101205507Y-10450000D01*
X101994493Y-10450000D02*
X102295000Y-10450000D01*
X102208276Y-9575000D02*
X102295000Y-9575000D01*
X102295000Y-9575000D02*
X102295000Y-10450000D01*
X47706000Y-3326000D02*
X47706000Y-29326000D01*
X47706000Y-29326000D02*
X53706000Y-29326000D01*
X48336000Y-7896000D02*
X48336000Y-24796000D01*
X48336000Y-24796000D02*
X73036000Y-24796000D01*
X49836000Y-9376000D02*
X49836000Y-20236000D01*
X49836000Y-20236000D02*
X71576000Y-20236000D01*
X53706000Y-27326000D02*
X67706000Y-27326000D01*
X53706000Y-29326000D02*
X53706000Y-27326000D01*
X67706000Y-27326000D02*
X67706000Y-29326000D01*
X67706000Y-29326000D02*
X73706000Y-29326000D01*
X71576000Y-9376000D02*
X49836000Y-9376000D01*
X71576000Y-20236000D02*
X71576000Y-9376000D01*
X73036000Y-7896000D02*
X48336000Y-7896000D01*
X73036000Y-24796000D02*
X73036000Y-7896000D01*
X73706000Y-3326000D02*
X47706000Y-3326000D01*
X73706000Y-29326000D02*
X73706000Y-3326000D01*
X98365000Y-8205000D02*
X99060000Y-8205000D01*
X98365000Y-8890000D02*
X98365000Y-8205000D01*
X98365000Y-9575000D02*
X98365000Y-10450000D01*
X98365000Y-9575000D02*
X98451724Y-9575000D01*
X98365000Y-10450000D02*
X98665507Y-10450000D01*
X99454493Y-10450000D02*
X99755000Y-10450000D01*
X99668276Y-9575000D02*
X99755000Y-9575000D01*
X99755000Y-9575000D02*
X99755000Y-10450000D01*
D11*
X105019000Y11474000D02*
X97719000Y11474000D01*
X105019000Y11474000D02*
X105019000Y4274000D01*
X99119000Y11474000D02*
X99119000Y4274000D01*
X97719000Y11474000D02*
X97719000Y4274000D01*
X97719000Y10074000D02*
X99119000Y11474000D01*
X105019000Y4274000D02*
X97719000Y4274000D01*
X101827000Y11056000D02*
G75*
G03*
X100611258Y11056109I-607999J-1432003D01*
G01*
X102651000Y9016000D02*
G75*
G03*
X102651109Y10231742I-1432003J607999D01*
G01*
X99787001Y10232000D02*
G75*
G03*
X99663508Y9596989I1431987J-607998D01*
G01*
X99664001Y9624000D02*
G75*
G03*
X99787616Y9016413I1554996J-1D01*
G01*
X100611000Y8192000D02*
G75*
G03*
X101826742Y8191891I607999J1432003D01*
G01*
X102774000Y6124000D02*
G75*
G03*
X102774000Y6124000I-1555000J0D01*
G01*
%LPC*%
D16*
X-129925000Y107865000D03*
D17*
X57752500Y9890000D03*
X57752500Y9390000D03*
X57752500Y8890000D03*
X57752500Y8390000D03*
X57752500Y7890000D03*
X57752500Y7390000D03*
D18*
X58440000Y6702500D03*
X58940000Y6702500D03*
X59440000Y6702500D03*
X59940000Y6702500D03*
X60440000Y6702500D03*
X60940000Y6702500D03*
D17*
X61627500Y7390000D03*
X61627500Y7890000D03*
X61627500Y8390000D03*
X61627500Y8890000D03*
X61627500Y9390000D03*
X61627500Y9890000D03*
D18*
X60940000Y10577500D03*
X60440000Y10577500D03*
X59940000Y10577500D03*
X59440000Y10577500D03*
X58940000Y10577500D03*
X58440000Y10577500D03*
D19*
X59690000Y8640000D03*
D20*
X74285000Y11049000D03*
X71285000Y11049000D03*
D21*
X60325000Y5014000D03*
X60325000Y3114000D03*
D22*
X70438000Y5461000D03*
X72338000Y5461000D03*
D23*
X100965000Y-5080000D03*
D24*
X90467000Y7477000D03*
D25*
X90617000Y7477000D03*
D24*
X90467000Y6977000D03*
D25*
X90617000Y6977000D03*
D24*
X90467000Y6477000D03*
D25*
X90617000Y6477000D03*
D24*
X90467000Y5977000D03*
D25*
X90617000Y5977000D03*
D24*
X90467000Y5477000D03*
D25*
X90617000Y5477000D03*
X92517000Y5477000D03*
D24*
X92667000Y5477000D03*
D25*
X92517000Y5977000D03*
D24*
X92667000Y5977000D03*
D25*
X92517000Y6477000D03*
D24*
X92667000Y6477000D03*
D25*
X92517000Y6977000D03*
D24*
X92667000Y6977000D03*
D25*
X92517000Y7477000D03*
D24*
X92667000Y7477000D03*
D26*
X91567000Y6477000D03*
D27*
X83566000Y2921000D03*
X85466000Y2921000D03*
D28*
X81624000Y-4750000D03*
X81624000Y-7950000D03*
X86524000Y-7950000D03*
X86524000Y-4750000D03*
D29*
X82295000Y6858000D03*
X78995000Y6858000D03*
D30*
X53735000Y12131000D03*
X53735000Y14031000D03*
D31*
X58534000Y1783000D03*
X58534000Y2733000D03*
X58534000Y3683000D03*
X56134000Y3683000D03*
X56134000Y2733000D03*
X56134000Y1783000D03*
D23*
X104140000Y-8890000D03*
D32*
X104140000Y-9890000D03*
D33*
X77978000Y-18753500D03*
D34*
X80518000Y-18753500D03*
X83058000Y-18753500D03*
X85598000Y-18753500D03*
X88138000Y-18753500D03*
X90678000Y-18753500D03*
X90678000Y-11133500D03*
X88138000Y-11133500D03*
X85598000Y-11133500D03*
X83058000Y-11133500D03*
X80518000Y-11133500D03*
X77978000Y-11133500D03*
D35*
X104050000Y-29110000D03*
D30*
X55767000Y12131000D03*
X55767000Y14031000D03*
D36*
X89177500Y5461000D03*
X87352500Y5461000D03*
D23*
X96520000Y-8890000D03*
D32*
X96520000Y-9890000D03*
D30*
X59831000Y12131000D03*
X59831000Y14031000D03*
D37*
X75564000Y6493000D03*
X76864000Y6493000D03*
X76214000Y8493000D03*
D38*
X49530000Y8405500D03*
X49530000Y6580500D03*
D35*
X104050000Y19890000D03*
D21*
X64897000Y6919000D03*
X64897000Y5019000D03*
D39*
X64365500Y1651000D03*
X66190500Y1651000D03*
D30*
X57799000Y12131000D03*
X57799000Y14031000D03*
D22*
X51755000Y1778000D03*
X53655000Y1778000D03*
D24*
X67113000Y12557000D03*
D25*
X67263000Y12557000D03*
D24*
X67113000Y12057000D03*
D25*
X67263000Y12057000D03*
D24*
X67113000Y11557000D03*
D25*
X67263000Y11557000D03*
D24*
X67113000Y11057000D03*
D25*
X67263000Y11057000D03*
D24*
X67113000Y10557000D03*
D25*
X67263000Y10557000D03*
X69163000Y10557000D03*
D24*
X69313000Y10557000D03*
D25*
X69163000Y11057000D03*
D24*
X69313000Y11057000D03*
D25*
X69163000Y11557000D03*
D24*
X69313000Y11557000D03*
D25*
X69163000Y12057000D03*
D24*
X69313000Y12057000D03*
D25*
X69163000Y12557000D03*
D24*
X69313000Y12557000D03*
D26*
X68213000Y11557000D03*
D39*
X87456000Y2921000D03*
X89281000Y2921000D03*
D27*
X91379000Y3683000D03*
X93279000Y3683000D03*
D21*
X79008000Y11110000D03*
X79008000Y9210000D03*
D38*
X68580000Y3071500D03*
X68580000Y1246500D03*
D22*
X70438000Y7620000D03*
X72338000Y7620000D03*
D38*
X51562000Y8786500D03*
X51562000Y6961500D03*
D39*
X66792500Y6731000D03*
X68617500Y6731000D03*
D40*
X85885000Y-28209000D03*
X85885000Y-30419000D03*
D41*
X88035000Y-29319000D03*
X91035000Y-29319000D03*
D40*
X93185000Y-28209000D03*
X93185000Y-30419000D03*
D42*
X87285000Y-27559000D03*
X90285000Y-27559000D03*
X91785000Y-27559000D03*
D23*
X98425000Y-5080000D03*
D43*
X62498000Y12168500D03*
X62498000Y13993500D03*
D44*
X82488000Y13843000D03*
X82488000Y12573000D03*
X82488000Y11303000D03*
X82488000Y10033000D03*
X87438000Y10033000D03*
X87438000Y11303000D03*
X87438000Y12573000D03*
X87438000Y13843000D03*
D39*
X51783000Y3810000D03*
X53608000Y3810000D03*
D45*
X96349000Y-16026000D03*
X103549000Y-16026000D03*
X96349000Y-19026000D03*
X103549000Y-19026000D03*
D39*
X53801000Y9906000D03*
X55626000Y9906000D03*
D38*
X62484000Y4976500D03*
X62484000Y3151500D03*
D35*
X46050000Y19890000D03*
X46050000Y-29110000D03*
D36*
X68617500Y8763000D03*
X66792500Y8763000D03*
D38*
X76214000Y12596500D03*
X76214000Y10771500D03*
D46*
X46990000Y-1270000D03*
D47*
X46990000Y-1270000D03*
D46*
X49530000Y-1270000D03*
D47*
X49530000Y-1270000D03*
D48*
X52070000Y-1270000D03*
D49*
X52070000Y-1270000D03*
D46*
X54610000Y-1270000D03*
D47*
X54610000Y-1270000D03*
D46*
X57150000Y-1270000D03*
D47*
X57150000Y-1270000D03*
D46*
X59690000Y-1270000D03*
D47*
X59690000Y-1270000D03*
D46*
X62230000Y-1270000D03*
D47*
X62230000Y-1270000D03*
D48*
X64770000Y-1270000D03*
D49*
X64770000Y-1270000D03*
D46*
X67310000Y-1270000D03*
D47*
X67310000Y-1270000D03*
D46*
X69850000Y-1270000D03*
D47*
X69850000Y-1270000D03*
D46*
X72390000Y-1270000D03*
D47*
X72390000Y-1270000D03*
D46*
X74930000Y-1270000D03*
D47*
X74930000Y-1270000D03*
D48*
X77470000Y-1270000D03*
D49*
X77470000Y-1270000D03*
D46*
X80010000Y-1270000D03*
D47*
X80010000Y-1270000D03*
D46*
X82550000Y-1270000D03*
D47*
X82550000Y-1270000D03*
D46*
X85090000Y-1270000D03*
D47*
X85090000Y-1270000D03*
D46*
X87630000Y-1270000D03*
D47*
X87630000Y-1270000D03*
D48*
X90170000Y-1270000D03*
D49*
X90170000Y-1270000D03*
D46*
X92710000Y-1270000D03*
D47*
X92710000Y-1270000D03*
D46*
X95250000Y-1270000D03*
D47*
X95250000Y-1270000D03*
D46*
X95250000Y16510000D03*
D47*
X95250000Y16510000D03*
D46*
X92710000Y16510000D03*
D47*
X92710000Y16510000D03*
D48*
X90170000Y16510000D03*
D49*
X90170000Y16510000D03*
D46*
X87630000Y16510000D03*
D47*
X87630000Y16510000D03*
D46*
X85090000Y16510000D03*
D47*
X85090000Y16510000D03*
D46*
X82550000Y16510000D03*
D47*
X82550000Y16510000D03*
D46*
X80010000Y16510000D03*
D47*
X80010000Y16510000D03*
D48*
X77470000Y16510000D03*
D49*
X77470000Y16510000D03*
D46*
X74930000Y16510000D03*
D47*
X74930000Y16510000D03*
D46*
X72390000Y16510000D03*
D47*
X72390000Y16510000D03*
D46*
X69850000Y16510000D03*
D47*
X69850000Y16510000D03*
D46*
X67310000Y16510000D03*
D47*
X67310000Y16510000D03*
D48*
X64770000Y16510000D03*
D49*
X64770000Y16510000D03*
D46*
X62230000Y16510000D03*
D47*
X62230000Y16510000D03*
D46*
X59690000Y16510000D03*
D47*
X59690000Y16510000D03*
D46*
X57150000Y16510000D03*
D47*
X57150000Y16510000D03*
D46*
X54610000Y16510000D03*
D47*
X54610000Y16510000D03*
D48*
X52070000Y16510000D03*
D49*
X52070000Y16510000D03*
D46*
X49530000Y16510000D03*
D47*
X49530000Y16510000D03*
D46*
X46990000Y16510000D03*
D47*
X46990000Y16510000D03*
D50*
X47040000Y6604000D03*
X47040000Y8636000D03*
D40*
X76106000Y-28176000D03*
X76106000Y-30386000D03*
D41*
X78256000Y-29286000D03*
X81256000Y-29286000D03*
D40*
X83406000Y-28176000D03*
X83406000Y-30386000D03*
D42*
X77506000Y-27526000D03*
X80506000Y-27526000D03*
X82006000Y-27526000D03*
D22*
X70424000Y3302000D03*
X72324000Y3302000D03*
D51*
X95250000Y7517000D03*
X95250000Y10517000D03*
D39*
X91416500Y1524000D03*
X93241500Y1524000D03*
D21*
X64008000Y10475000D03*
X64008000Y8575000D03*
D39*
X53801000Y7874000D03*
X55626000Y7874000D03*
D45*
X96349000Y-22610000D03*
X103549000Y-22610000D03*
X96349000Y-25610000D03*
X103549000Y-25610000D03*
D52*
X77825000Y14112000D03*
X77825000Y13462000D03*
X77825000Y12812000D03*
X80025000Y12812000D03*
X80025000Y13462000D03*
D53*
X79135000Y13462000D03*
D52*
X80025000Y14112000D03*
D23*
X101600000Y-8890000D03*
D32*
X101600000Y-9890000D03*
D54*
X49706000Y-5326000D03*
X49706000Y-27326000D03*
X71706000Y-5326000D03*
X71706000Y-27326000D03*
D55*
X56896000Y-4826000D03*
X59436000Y-4826000D03*
X61976000Y-4826000D03*
X64516000Y-4826000D03*
D23*
X99060000Y-8890000D03*
D32*
X99060000Y-9890000D03*
D56*
X101219000Y9624000D03*
D57*
X101219000Y6124000D03*
D58*
X49155000Y4730000D03*
X49155000Y10510000D03*
D59*
X45505000Y3300000D03*
D60*
X49685000Y3300000D03*
D59*
X45505000Y11940000D03*
D60*
X49685000Y11940000D03*
%LPD*%
M02*
