%TF.GenerationSoftware,KiCad,Pcbnew,7.0.8-7.0.8~ubuntu22.04.1*%
%TF.CreationDate,2023-10-13T08:31:54+02:00*%
%TF.ProjectId,PD_Micro,50445f4d-6963-4726-9f2e-6b696361645f,rev?*%
%TF.SameCoordinates,PX7ce2370PY67d8790*%
%TF.FileFunction,Drillmap*%
%TF.FilePolarity,Positive*%
%FSLAX45Y45*%
G04 Gerber Fmt 4.5, Leading zero omitted, Abs format (unit mm)*
G04 Created by KiCad (PCBNEW 7.0.8-7.0.8~ubuntu22.04.1) date 2023-10-13 08:31:54*
%MOMM*%
%LPD*%
G01*
G04 APERTURE LIST*
%ADD10C,0.150000*%
%ADD11C,0.200000*%
%ADD12C,0.020000*%
%ADD13C,0.025000*%
%ADD14C,0.050000*%
%ADD15C,0.060000*%
%ADD16C,0.080000*%
%ADD17C,0.102000*%
%ADD18C,0.120000*%
G04 APERTURE END LIST*
D10*
X10605000Y-3111000D02*
X4405000Y-3111000D01*
X4405000Y-111000D01*
X4405000Y-61400D01*
X4405000Y1462600D01*
X4405000Y1562600D01*
X4405000Y2189000D01*
X10605000Y2189000D01*
X10605000Y-3111000D01*
D11*
D12*
X5854000Y979000D02*
X5874000Y959000D01*
X5874000Y979000D02*
X5854000Y959000D01*
X5854000Y874000D02*
X5874000Y854000D01*
X5874000Y874000D02*
X5854000Y854000D01*
X5854000Y769000D02*
X5874000Y749000D01*
X5874000Y769000D02*
X5854000Y749000D01*
X5959000Y979000D02*
X5979000Y959000D01*
X5979000Y979000D02*
X5959000Y959000D01*
X5959000Y874000D02*
X5979000Y854000D01*
X5979000Y874000D02*
X5959000Y854000D01*
X5959000Y769000D02*
X5979000Y749000D01*
X5979000Y769000D02*
X5959000Y749000D01*
X6064000Y979000D02*
X6084000Y959000D01*
X6084000Y979000D02*
X6064000Y959000D01*
X6064000Y874000D02*
X6084000Y854000D01*
X6084000Y874000D02*
X6064000Y854000D01*
X6064000Y769000D02*
X6084000Y749000D01*
X6084000Y769000D02*
X6064000Y749000D01*
D13*
X4775000Y-660400D02*
G75*
G03*
X4775000Y-660400I-12500J0D01*
G01*
X4977800Y737000D02*
G75*
G03*
X4977800Y737000I-12500J0D01*
G01*
X5169100Y782450D02*
G75*
G03*
X5169100Y782450I-12500J0D01*
G01*
X5232200Y1206500D02*
G75*
G03*
X5232200Y1206500I-12500J0D01*
G01*
X5283000Y990600D02*
G75*
G03*
X5283000Y990600I-12500J0D01*
G01*
X5295700Y787400D02*
G75*
G03*
X5295700Y787400I-12500J0D01*
G01*
X5435400Y558800D02*
G75*
G03*
X5435400Y558800I-12500J0D01*
G01*
X5473500Y1104900D02*
G75*
G03*
X5473500Y1104900I-12500J0D01*
G01*
X5473500Y-2070100D02*
G75*
G03*
X5473500Y-2070100I-12500J0D01*
G01*
X5483827Y654988D02*
G75*
G03*
X5483827Y654988I-12500J0D01*
G01*
X5486200Y431800D02*
G75*
G03*
X5486200Y431800I-12500J0D01*
G01*
X5511600Y279400D02*
G75*
G03*
X5511600Y279400I-12500J0D01*
G01*
X5587800Y-2133600D02*
G75*
G03*
X5587800Y-2133600I-12500J0D01*
G01*
X5676700Y1092200D02*
G75*
G03*
X5676700Y1092200I-12500J0D01*
G01*
X5676700Y838200D02*
G75*
G03*
X5676700Y838200I-12500J0D01*
G01*
X5689400Y977900D02*
G75*
G03*
X5689400Y977900I-12500J0D01*
G01*
X5689400Y914400D02*
G75*
G03*
X5689400Y914400I-12500J0D01*
G01*
X5731650Y673100D02*
G75*
G03*
X5731650Y673100I-12500J0D01*
G01*
X5752900Y368300D02*
G75*
G03*
X5752900Y368300I-12500J0D01*
G01*
X5752900Y177800D02*
G75*
G03*
X5752900Y177800I-12500J0D01*
G01*
X5778300Y1079500D02*
G75*
G03*
X5778300Y1079500I-12500J0D01*
G01*
X6135300Y1397000D02*
G75*
G03*
X6135300Y1397000I-12500J0D01*
G01*
X6274611Y895831D02*
G75*
G03*
X6274611Y895831I-12500J0D01*
G01*
X6279641Y972048D02*
G75*
G03*
X6279641Y972048I-12500J0D01*
G01*
X6490900Y1412450D02*
G75*
G03*
X6490900Y1412450I-12500J0D01*
G01*
X6540300Y1257300D02*
G75*
G03*
X6540300Y1257300I-12500J0D01*
G01*
X6591100Y1104900D02*
G75*
G03*
X6591100Y1104900I-12500J0D01*
G01*
X6694100Y1412450D02*
G75*
G03*
X6694100Y1412450I-12500J0D01*
G01*
X6870500Y520700D02*
G75*
G03*
X6870500Y520700I-12500J0D01*
G01*
X6870500Y444500D02*
G75*
G03*
X6870500Y444500I-12500J0D01*
G01*
X6910000Y1412450D02*
G75*
G03*
X6910000Y1412450I-12500J0D01*
G01*
X7011600Y1041400D02*
G75*
G03*
X7011600Y1041400I-12500J0D01*
G01*
X7011600Y977900D02*
G75*
G03*
X7011600Y977900I-12500J0D01*
G01*
X7011600Y914400D02*
G75*
G03*
X7011600Y914400I-12500J0D01*
G01*
X7048300Y1231900D02*
G75*
G03*
X7048300Y1231900I-12500J0D01*
G01*
X7075100Y1412450D02*
G75*
G03*
X7075100Y1412450I-12500J0D01*
G01*
X7124500Y152400D02*
G75*
G03*
X7124500Y152400I-12500J0D01*
G01*
X7137200Y444500D02*
G75*
G03*
X7137200Y444500I-12500J0D01*
G01*
X7188000Y152400D02*
G75*
G03*
X7188000Y152400I-12500J0D01*
G01*
X7188000Y85350D02*
G75*
G03*
X7188000Y85350I-12500J0D01*
G01*
X7226100Y-317500D02*
G75*
G03*
X7226100Y-317500I-12500J0D01*
G01*
X7250285Y85350D02*
G75*
G03*
X7250285Y85350I-12500J0D01*
G01*
X7252106Y147774D02*
G75*
G03*
X7252106Y147774I-12500J0D01*
G01*
X7278300Y1412450D02*
G75*
G03*
X7278300Y1412450I-12500J0D01*
G01*
X7303686Y928486D02*
G75*
G03*
X7303686Y928486I-12500J0D01*
G01*
X7315000Y85350D02*
G75*
G03*
X7315000Y85350I-12500J0D01*
G01*
X7316126Y147708D02*
G75*
G03*
X7316126Y147708I-12500J0D01*
G01*
X7403900Y-2311400D02*
G75*
G03*
X7403900Y-2311400I-12500J0D01*
G01*
X7499864Y1412450D02*
G75*
G03*
X7499864Y1412450I-12500J0D01*
G01*
X7607100Y863600D02*
G75*
G03*
X7607100Y863600I-12500J0D01*
G01*
X7607100Y266700D02*
G75*
G03*
X7607100Y266700I-12500J0D01*
G01*
X7607100Y203200D02*
G75*
G03*
X7607100Y203200I-12500J0D01*
G01*
X7657900Y520700D02*
G75*
G03*
X7657900Y520700I-12500J0D01*
G01*
X7657900Y444500D02*
G75*
G03*
X7657900Y444500I-12500J0D01*
G01*
X7670600Y266700D02*
G75*
G03*
X7670600Y266700I-12500J0D01*
G01*
X7670600Y203200D02*
G75*
G03*
X7670600Y203200I-12500J0D01*
G01*
X7710100Y1422400D02*
G75*
G03*
X7710100Y1422400I-12500J0D01*
G01*
X7746800Y266700D02*
G75*
G03*
X7746800Y266700I-12500J0D01*
G01*
X7746800Y203200D02*
G75*
G03*
X7746800Y203200I-12500J0D01*
G01*
X7773600Y1219200D02*
G75*
G03*
X7773600Y1219200I-12500J0D01*
G01*
X7873800Y355600D02*
G75*
G03*
X7873800Y355600I-12500J0D01*
G01*
X7988100Y-457200D02*
G75*
G03*
X7988100Y-457200I-12500J0D01*
G01*
X8369100Y889000D02*
G75*
G03*
X8369100Y889000I-12500J0D01*
G01*
X8369100Y825500D02*
G75*
G03*
X8369100Y825500I-12500J0D01*
G01*
X8369100Y762000D02*
G75*
G03*
X8369100Y762000I-12500J0D01*
G01*
X8369100Y698500D02*
G75*
G03*
X8369100Y698500I-12500J0D01*
G01*
X8432600Y889000D02*
G75*
G03*
X8432600Y889000I-12500J0D01*
G01*
X8432600Y825500D02*
G75*
G03*
X8432600Y825500I-12500J0D01*
G01*
X8432600Y762000D02*
G75*
G03*
X8432600Y762000I-12500J0D01*
G01*
X8432600Y698500D02*
G75*
G03*
X8432600Y698500I-12500J0D01*
G01*
X8496100Y889000D02*
G75*
G03*
X8496100Y889000I-12500J0D01*
G01*
X8496100Y825500D02*
G75*
G03*
X8496100Y825500I-12500J0D01*
G01*
X8496100Y762000D02*
G75*
G03*
X8496100Y762000I-12500J0D01*
G01*
X8496100Y698500D02*
G75*
G03*
X8496100Y698500I-12500J0D01*
G01*
X8534200Y1384300D02*
G75*
G03*
X8534200Y1384300I-12500J0D01*
G01*
X8559600Y889000D02*
G75*
G03*
X8559600Y889000I-12500J0D01*
G01*
X8559600Y825500D02*
G75*
G03*
X8559600Y825500I-12500J0D01*
G01*
X8559600Y762000D02*
G75*
G03*
X8559600Y762000I-12500J0D01*
G01*
X8559600Y698500D02*
G75*
G03*
X8559600Y698500I-12500J0D01*
G01*
X8623100Y634750D02*
G75*
G03*
X8623100Y634750I-12500J0D01*
G01*
X8978700Y691800D02*
G75*
G03*
X8978700Y691800I-12500J0D01*
G01*
X9054900Y-2247900D02*
G75*
G03*
X9054900Y-2247900I-12500J0D01*
G01*
X9080300Y1371600D02*
G75*
G03*
X9080300Y1371600I-12500J0D01*
G01*
X9349253Y637787D02*
G75*
G03*
X9349253Y637787I-12500J0D01*
G01*
X9512150Y448327D02*
G75*
G03*
X9512150Y448327I-12500J0D01*
G01*
X9677200Y469900D02*
G75*
G03*
X9677200Y469900I-12500J0D01*
G01*
D14*
X9652000Y-864000D02*
X9652000Y-914000D01*
X9627000Y-889000D02*
X9677000Y-889000D01*
X9652000Y-964000D02*
X9652000Y-1014000D01*
X9627000Y-989000D02*
X9677000Y-989000D01*
X9842500Y-483000D02*
X9842500Y-533000D01*
X9817500Y-508000D02*
X9867500Y-508000D01*
X9906000Y-864000D02*
X9906000Y-914000D01*
X9881000Y-889000D02*
X9931000Y-889000D01*
X9906000Y-964000D02*
X9906000Y-1014000D01*
X9881000Y-989000D02*
X9931000Y-989000D01*
X10096500Y-483000D02*
X10096500Y-533000D01*
X10071500Y-508000D02*
X10121500Y-508000D01*
X10160000Y-864000D02*
X10160000Y-914000D01*
X10135000Y-889000D02*
X10185000Y-889000D01*
X10160000Y-964000D02*
X10160000Y-1014000D01*
X10135000Y-989000D02*
X10185000Y-989000D01*
X10414000Y-864000D02*
X10414000Y-914000D01*
X10389000Y-889000D02*
X10439000Y-889000D01*
X10414000Y-964000D02*
X10414000Y-1014000D01*
X10389000Y-989000D02*
X10439000Y-989000D01*
D15*
X4571713Y1172787D02*
X4571713Y1215213D01*
X4529287Y1215213D01*
X4529287Y1172787D01*
X4571713Y1172787D01*
D11*
X4520500Y1164000D02*
X4580500Y1164000D01*
X4580500Y1164000D02*
G75*
G03*
X4580500Y1224000I0J30000D01*
G01*
X4580500Y1224000D02*
X4520500Y1224000D01*
X4520500Y1224000D02*
G75*
G03*
X4520500Y1164000I0J-30000D01*
G01*
D15*
X4571713Y308787D02*
X4571713Y351213D01*
X4529287Y351213D01*
X4529287Y308787D01*
X4571713Y308787D01*
D11*
X4520500Y300000D02*
X4580500Y300000D01*
X4580500Y300000D02*
G75*
G03*
X4580500Y360000I0J30000D01*
G01*
X4580500Y360000D02*
X4520500Y360000D01*
X4520500Y360000D02*
G75*
G03*
X4520500Y300000I0J-30000D01*
G01*
D15*
X4989713Y1172787D02*
X4989713Y1215213D01*
X4947287Y1215213D01*
X4947287Y1172787D01*
X4989713Y1172787D01*
D11*
X4913500Y1164000D02*
X5023500Y1164000D01*
X5023500Y1164000D02*
G75*
G03*
X5023500Y1224000I0J30000D01*
G01*
X5023500Y1224000D02*
X4913500Y1224000D01*
X4913500Y1224000D02*
G75*
G03*
X4913500Y1164000I0J-30000D01*
G01*
D15*
X4989713Y308787D02*
X4989713Y351213D01*
X4947287Y351213D01*
X4947287Y308787D01*
X4989713Y308787D01*
D11*
X4913500Y300000D02*
X5023500Y300000D01*
X5023500Y300000D02*
G75*
G03*
X5023500Y360000I0J30000D01*
G01*
X5023500Y360000D02*
X4913500Y360000D01*
X4913500Y360000D02*
G75*
G03*
X4913500Y300000I0J-30000D01*
G01*
D16*
X5689600Y-522600D02*
X5729600Y-482600D01*
X5689600Y-442600D01*
X5649600Y-482600D01*
X5689600Y-522600D01*
X5943600Y-522600D02*
X5983600Y-482600D01*
X5943600Y-442600D01*
X5903600Y-482600D01*
X5943600Y-522600D01*
X6197600Y-522600D02*
X6237600Y-482600D01*
X6197600Y-442600D01*
X6157600Y-482600D01*
X6197600Y-522600D01*
X6451600Y-522600D02*
X6491600Y-482600D01*
X6451600Y-442600D01*
X6411600Y-482600D01*
X6451600Y-522600D01*
X7797800Y-1153350D02*
X7837800Y-1113350D01*
X7797800Y-1073350D01*
X7757800Y-1113350D01*
X7797800Y-1153350D01*
X7797800Y-1915350D02*
X7837800Y-1875350D01*
X7797800Y-1835350D01*
X7757800Y-1875350D01*
X7797800Y-1915350D01*
X8051800Y-1153350D02*
X8091800Y-1113350D01*
X8051800Y-1073350D01*
X8011800Y-1113350D01*
X8051800Y-1153350D01*
X8051800Y-1915350D02*
X8091800Y-1875350D01*
X8051800Y-1835350D01*
X8011800Y-1875350D01*
X8051800Y-1915350D01*
X8305800Y-1153350D02*
X8345800Y-1113350D01*
X8305800Y-1073350D01*
X8265800Y-1113350D01*
X8305800Y-1153350D01*
X8305800Y-1915350D02*
X8345800Y-1875350D01*
X8305800Y-1835350D01*
X8265800Y-1875350D01*
X8305800Y-1915350D01*
X8559800Y-1153350D02*
X8599800Y-1113350D01*
X8559800Y-1073350D01*
X8519800Y-1113350D01*
X8559800Y-1153350D01*
X8559800Y-1915350D02*
X8599800Y-1875350D01*
X8559800Y-1835350D01*
X8519800Y-1875350D01*
X8559800Y-1915350D01*
X8813800Y-1153350D02*
X8853800Y-1113350D01*
X8813800Y-1073350D01*
X8773800Y-1113350D01*
X8813800Y-1153350D01*
X8813800Y-1915350D02*
X8853800Y-1875350D01*
X8813800Y-1835350D01*
X8773800Y-1875350D01*
X8813800Y-1915350D01*
X9067800Y-1153350D02*
X9107800Y-1113350D01*
X9067800Y-1073350D01*
X9027800Y-1113350D01*
X9067800Y-1153350D01*
X9067800Y-1915350D02*
X9107800Y-1875350D01*
X9067800Y-1835350D01*
X9027800Y-1875350D01*
X9067800Y-1915350D01*
D17*
X4648000Y1702000D02*
X4750000Y1600000D01*
X4750000Y1702000D02*
X4648000Y1600000D01*
X4750000Y1651000D02*
G75*
G03*
X4750000Y1651000I-51000J0D01*
G01*
X4648000Y-76000D02*
X4750000Y-178000D01*
X4750000Y-76000D02*
X4648000Y-178000D01*
X4750000Y-127000D02*
G75*
G03*
X4750000Y-127000I-51000J0D01*
G01*
X4902000Y1702000D02*
X5004000Y1600000D01*
X5004000Y1702000D02*
X4902000Y1600000D01*
X5004000Y1651000D02*
G75*
G03*
X5004000Y1651000I-51000J0D01*
G01*
X4902000Y-76000D02*
X5004000Y-178000D01*
X5004000Y-76000D02*
X4902000Y-178000D01*
X5004000Y-127000D02*
G75*
G03*
X5004000Y-127000I-51000J0D01*
G01*
X5156000Y1702000D02*
X5258000Y1600000D01*
X5258000Y1702000D02*
X5156000Y1600000D01*
X5258000Y1651000D02*
G75*
G03*
X5258000Y1651000I-51000J0D01*
G01*
X5156000Y-76000D02*
X5258000Y-178000D01*
X5258000Y-76000D02*
X5156000Y-178000D01*
X5258000Y-127000D02*
G75*
G03*
X5258000Y-127000I-51000J0D01*
G01*
X5410000Y1702000D02*
X5512000Y1600000D01*
X5512000Y1702000D02*
X5410000Y1600000D01*
X5512000Y1651000D02*
G75*
G03*
X5512000Y1651000I-51000J0D01*
G01*
X5410000Y-76000D02*
X5512000Y-178000D01*
X5512000Y-76000D02*
X5410000Y-178000D01*
X5512000Y-127000D02*
G75*
G03*
X5512000Y-127000I-51000J0D01*
G01*
X5664000Y1702000D02*
X5766000Y1600000D01*
X5766000Y1702000D02*
X5664000Y1600000D01*
X5766000Y1651000D02*
G75*
G03*
X5766000Y1651000I-51000J0D01*
G01*
X5664000Y-76000D02*
X5766000Y-178000D01*
X5766000Y-76000D02*
X5664000Y-178000D01*
X5766000Y-127000D02*
G75*
G03*
X5766000Y-127000I-51000J0D01*
G01*
X5918000Y1702000D02*
X6020000Y1600000D01*
X6020000Y1702000D02*
X5918000Y1600000D01*
X6020000Y1651000D02*
G75*
G03*
X6020000Y1651000I-51000J0D01*
G01*
X5918000Y-76000D02*
X6020000Y-178000D01*
X6020000Y-76000D02*
X5918000Y-178000D01*
X6020000Y-127000D02*
G75*
G03*
X6020000Y-127000I-51000J0D01*
G01*
X6172000Y1702000D02*
X6274000Y1600000D01*
X6274000Y1702000D02*
X6172000Y1600000D01*
X6274000Y1651000D02*
G75*
G03*
X6274000Y1651000I-51000J0D01*
G01*
X6172000Y-76000D02*
X6274000Y-178000D01*
X6274000Y-76000D02*
X6172000Y-178000D01*
X6274000Y-127000D02*
G75*
G03*
X6274000Y-127000I-51000J0D01*
G01*
X6426000Y1702000D02*
X6528000Y1600000D01*
X6528000Y1702000D02*
X6426000Y1600000D01*
X6528000Y1651000D02*
G75*
G03*
X6528000Y1651000I-51000J0D01*
G01*
X6426000Y-76000D02*
X6528000Y-178000D01*
X6528000Y-76000D02*
X6426000Y-178000D01*
X6528000Y-127000D02*
G75*
G03*
X6528000Y-127000I-51000J0D01*
G01*
X6680000Y1702000D02*
X6782000Y1600000D01*
X6782000Y1702000D02*
X6680000Y1600000D01*
X6782000Y1651000D02*
G75*
G03*
X6782000Y1651000I-51000J0D01*
G01*
X6680000Y-76000D02*
X6782000Y-178000D01*
X6782000Y-76000D02*
X6680000Y-178000D01*
X6782000Y-127000D02*
G75*
G03*
X6782000Y-127000I-51000J0D01*
G01*
X6934000Y1702000D02*
X7036000Y1600000D01*
X7036000Y1702000D02*
X6934000Y1600000D01*
X7036000Y1651000D02*
G75*
G03*
X7036000Y1651000I-51000J0D01*
G01*
X6934000Y-76000D02*
X7036000Y-178000D01*
X7036000Y-76000D02*
X6934000Y-178000D01*
X7036000Y-127000D02*
G75*
G03*
X7036000Y-127000I-51000J0D01*
G01*
X7188000Y1702000D02*
X7290000Y1600000D01*
X7290000Y1702000D02*
X7188000Y1600000D01*
X7290000Y1651000D02*
G75*
G03*
X7290000Y1651000I-51000J0D01*
G01*
X7188000Y-76000D02*
X7290000Y-178000D01*
X7290000Y-76000D02*
X7188000Y-178000D01*
X7290000Y-127000D02*
G75*
G03*
X7290000Y-127000I-51000J0D01*
G01*
X7442000Y1702000D02*
X7544000Y1600000D01*
X7544000Y1702000D02*
X7442000Y1600000D01*
X7544000Y1651000D02*
G75*
G03*
X7544000Y1651000I-51000J0D01*
G01*
X7442000Y-76000D02*
X7544000Y-178000D01*
X7544000Y-76000D02*
X7442000Y-178000D01*
X7544000Y-127000D02*
G75*
G03*
X7544000Y-127000I-51000J0D01*
G01*
X7696000Y1702000D02*
X7798000Y1600000D01*
X7798000Y1702000D02*
X7696000Y1600000D01*
X7798000Y1651000D02*
G75*
G03*
X7798000Y1651000I-51000J0D01*
G01*
X7696000Y-76000D02*
X7798000Y-178000D01*
X7798000Y-76000D02*
X7696000Y-178000D01*
X7798000Y-127000D02*
G75*
G03*
X7798000Y-127000I-51000J0D01*
G01*
X7950000Y1702000D02*
X8052000Y1600000D01*
X8052000Y1702000D02*
X7950000Y1600000D01*
X8052000Y1651000D02*
G75*
G03*
X8052000Y1651000I-51000J0D01*
G01*
X7950000Y-76000D02*
X8052000Y-178000D01*
X8052000Y-76000D02*
X7950000Y-178000D01*
X8052000Y-127000D02*
G75*
G03*
X8052000Y-127000I-51000J0D01*
G01*
X8204000Y1702000D02*
X8306000Y1600000D01*
X8306000Y1702000D02*
X8204000Y1600000D01*
X8306000Y1651000D02*
G75*
G03*
X8306000Y1651000I-51000J0D01*
G01*
X8204000Y-76000D02*
X8306000Y-178000D01*
X8306000Y-76000D02*
X8204000Y-178000D01*
X8306000Y-127000D02*
G75*
G03*
X8306000Y-127000I-51000J0D01*
G01*
X8458000Y1702000D02*
X8560000Y1600000D01*
X8560000Y1702000D02*
X8458000Y1600000D01*
X8560000Y1651000D02*
G75*
G03*
X8560000Y1651000I-51000J0D01*
G01*
X8458000Y-76000D02*
X8560000Y-178000D01*
X8560000Y-76000D02*
X8458000Y-178000D01*
X8560000Y-127000D02*
G75*
G03*
X8560000Y-127000I-51000J0D01*
G01*
X8712000Y1702000D02*
X8814000Y1600000D01*
X8814000Y1702000D02*
X8712000Y1600000D01*
X8814000Y1651000D02*
G75*
G03*
X8814000Y1651000I-51000J0D01*
G01*
X8712000Y-76000D02*
X8814000Y-178000D01*
X8814000Y-76000D02*
X8712000Y-178000D01*
X8814000Y-127000D02*
G75*
G03*
X8814000Y-127000I-51000J0D01*
G01*
X8966000Y1702000D02*
X9068000Y1600000D01*
X9068000Y1702000D02*
X8966000Y1600000D01*
X9068000Y1651000D02*
G75*
G03*
X9068000Y1651000I-51000J0D01*
G01*
X8966000Y-76000D02*
X9068000Y-178000D01*
X9068000Y-76000D02*
X8966000Y-178000D01*
X9068000Y-127000D02*
G75*
G03*
X9068000Y-127000I-51000J0D01*
G01*
X9220000Y1702000D02*
X9322000Y1600000D01*
X9322000Y1702000D02*
X9220000Y1600000D01*
X9322000Y1651000D02*
G75*
G03*
X9322000Y1651000I-51000J0D01*
G01*
X9220000Y-76000D02*
X9322000Y-178000D01*
X9322000Y-76000D02*
X9220000Y-178000D01*
X9322000Y-127000D02*
G75*
G03*
X9322000Y-127000I-51000J0D01*
G01*
X9474000Y1702000D02*
X9576000Y1600000D01*
X9576000Y1702000D02*
X9474000Y1600000D01*
X9576000Y1651000D02*
G75*
G03*
X9576000Y1651000I-51000J0D01*
G01*
X9474000Y-76000D02*
X9576000Y-178000D01*
X9576000Y-76000D02*
X9474000Y-178000D01*
X9576000Y-127000D02*
G75*
G03*
X9576000Y-127000I-51000J0D01*
G01*
D18*
X10061900Y1022400D02*
X10181900Y902400D01*
X10181900Y1022400D02*
X10061900Y902400D01*
X10121900Y1022400D02*
X10121900Y902400D01*
X10061900Y962400D02*
X10181900Y962400D01*
X10061900Y672400D02*
X10181900Y552400D01*
X10181900Y672400D02*
X10061900Y552400D01*
X10121900Y672400D02*
X10121900Y552400D01*
X10061900Y612400D02*
X10181900Y612400D01*
D11*
X4658277Y-3429984D02*
X4658277Y-3229984D01*
X4658277Y-3229984D02*
X4705896Y-3229984D01*
X4705896Y-3229984D02*
X4734467Y-3239508D01*
X4734467Y-3239508D02*
X4753515Y-3258555D01*
X4753515Y-3258555D02*
X4763039Y-3277603D01*
X4763039Y-3277603D02*
X4772563Y-3315698D01*
X4772563Y-3315698D02*
X4772563Y-3344269D01*
X4772563Y-3344269D02*
X4763039Y-3382365D01*
X4763039Y-3382365D02*
X4753515Y-3401412D01*
X4753515Y-3401412D02*
X4734467Y-3420460D01*
X4734467Y-3420460D02*
X4705896Y-3429984D01*
X4705896Y-3429984D02*
X4658277Y-3429984D01*
X4858277Y-3429984D02*
X4858277Y-3296650D01*
X4858277Y-3334746D02*
X4867801Y-3315698D01*
X4867801Y-3315698D02*
X4877324Y-3306174D01*
X4877324Y-3306174D02*
X4896372Y-3296650D01*
X4896372Y-3296650D02*
X4915420Y-3296650D01*
X4982086Y-3429984D02*
X4982086Y-3296650D01*
X4982086Y-3229984D02*
X4972563Y-3239508D01*
X4972563Y-3239508D02*
X4982086Y-3249031D01*
X4982086Y-3249031D02*
X4991610Y-3239508D01*
X4991610Y-3239508D02*
X4982086Y-3229984D01*
X4982086Y-3229984D02*
X4982086Y-3249031D01*
X5105896Y-3429984D02*
X5086848Y-3420460D01*
X5086848Y-3420460D02*
X5077324Y-3401412D01*
X5077324Y-3401412D02*
X5077324Y-3229984D01*
X5210658Y-3429984D02*
X5191610Y-3420460D01*
X5191610Y-3420460D02*
X5182086Y-3401412D01*
X5182086Y-3401412D02*
X5182086Y-3229984D01*
X5439229Y-3429984D02*
X5439229Y-3229984D01*
X5439229Y-3229984D02*
X5505896Y-3372841D01*
X5505896Y-3372841D02*
X5572563Y-3229984D01*
X5572563Y-3229984D02*
X5572563Y-3429984D01*
X5753515Y-3429984D02*
X5753515Y-3325222D01*
X5753515Y-3325222D02*
X5743991Y-3306174D01*
X5743991Y-3306174D02*
X5724943Y-3296650D01*
X5724943Y-3296650D02*
X5686848Y-3296650D01*
X5686848Y-3296650D02*
X5667801Y-3306174D01*
X5753515Y-3420460D02*
X5734467Y-3429984D01*
X5734467Y-3429984D02*
X5686848Y-3429984D01*
X5686848Y-3429984D02*
X5667801Y-3420460D01*
X5667801Y-3420460D02*
X5658277Y-3401412D01*
X5658277Y-3401412D02*
X5658277Y-3382365D01*
X5658277Y-3382365D02*
X5667801Y-3363317D01*
X5667801Y-3363317D02*
X5686848Y-3353793D01*
X5686848Y-3353793D02*
X5734467Y-3353793D01*
X5734467Y-3353793D02*
X5753515Y-3344269D01*
X5848753Y-3296650D02*
X5848753Y-3496650D01*
X5848753Y-3306174D02*
X5867801Y-3296650D01*
X5867801Y-3296650D02*
X5905896Y-3296650D01*
X5905896Y-3296650D02*
X5924943Y-3306174D01*
X5924943Y-3306174D02*
X5934467Y-3315698D01*
X5934467Y-3315698D02*
X5943991Y-3334746D01*
X5943991Y-3334746D02*
X5943991Y-3391888D01*
X5943991Y-3391888D02*
X5934467Y-3410936D01*
X5934467Y-3410936D02*
X5924943Y-3420460D01*
X5924943Y-3420460D02*
X5905896Y-3429984D01*
X5905896Y-3429984D02*
X5867801Y-3429984D01*
X5867801Y-3429984D02*
X5848753Y-3420460D01*
X6029705Y-3410936D02*
X6039229Y-3420460D01*
X6039229Y-3420460D02*
X6029705Y-3429984D01*
X6029705Y-3429984D02*
X6020182Y-3420460D01*
X6020182Y-3420460D02*
X6029705Y-3410936D01*
X6029705Y-3410936D02*
X6029705Y-3429984D01*
X6029705Y-3306174D02*
X6039229Y-3315698D01*
X6039229Y-3315698D02*
X6029705Y-3325222D01*
X6029705Y-3325222D02*
X6020182Y-3315698D01*
X6020182Y-3315698D02*
X6029705Y-3306174D01*
X6029705Y-3306174D02*
X6029705Y-3325222D01*
D12*
X4377500Y-3748500D02*
X4397500Y-3768500D01*
X4397500Y-3748500D02*
X4377500Y-3768500D01*
D11*
X4696372Y-3649984D02*
X4715420Y-3649984D01*
X4715420Y-3649984D02*
X4734467Y-3659508D01*
X4734467Y-3659508D02*
X4743991Y-3669031D01*
X4743991Y-3669031D02*
X4753515Y-3688079D01*
X4753515Y-3688079D02*
X4763039Y-3726174D01*
X4763039Y-3726174D02*
X4763039Y-3773793D01*
X4763039Y-3773793D02*
X4753515Y-3811888D01*
X4753515Y-3811888D02*
X4743991Y-3830936D01*
X4743991Y-3830936D02*
X4734467Y-3840460D01*
X4734467Y-3840460D02*
X4715420Y-3849984D01*
X4715420Y-3849984D02*
X4696372Y-3849984D01*
X4696372Y-3849984D02*
X4677324Y-3840460D01*
X4677324Y-3840460D02*
X4667801Y-3830936D01*
X4667801Y-3830936D02*
X4658277Y-3811888D01*
X4658277Y-3811888D02*
X4648753Y-3773793D01*
X4648753Y-3773793D02*
X4648753Y-3726174D01*
X4648753Y-3726174D02*
X4658277Y-3688079D01*
X4658277Y-3688079D02*
X4667801Y-3669031D01*
X4667801Y-3669031D02*
X4677324Y-3659508D01*
X4677324Y-3659508D02*
X4696372Y-3649984D01*
X4848753Y-3830936D02*
X4858277Y-3840460D01*
X4858277Y-3840460D02*
X4848753Y-3849984D01*
X4848753Y-3849984D02*
X4839229Y-3840460D01*
X4839229Y-3840460D02*
X4848753Y-3830936D01*
X4848753Y-3830936D02*
X4848753Y-3849984D01*
X4934467Y-3669031D02*
X4943991Y-3659508D01*
X4943991Y-3659508D02*
X4963039Y-3649984D01*
X4963039Y-3649984D02*
X5010658Y-3649984D01*
X5010658Y-3649984D02*
X5029705Y-3659508D01*
X5029705Y-3659508D02*
X5039229Y-3669031D01*
X5039229Y-3669031D02*
X5048753Y-3688079D01*
X5048753Y-3688079D02*
X5048753Y-3707127D01*
X5048753Y-3707127D02*
X5039229Y-3735698D01*
X5039229Y-3735698D02*
X4924944Y-3849984D01*
X4924944Y-3849984D02*
X5048753Y-3849984D01*
X5172563Y-3649984D02*
X5191610Y-3649984D01*
X5191610Y-3649984D02*
X5210658Y-3659508D01*
X5210658Y-3659508D02*
X5220182Y-3669031D01*
X5220182Y-3669031D02*
X5229705Y-3688079D01*
X5229705Y-3688079D02*
X5239229Y-3726174D01*
X5239229Y-3726174D02*
X5239229Y-3773793D01*
X5239229Y-3773793D02*
X5229705Y-3811888D01*
X5229705Y-3811888D02*
X5220182Y-3830936D01*
X5220182Y-3830936D02*
X5210658Y-3840460D01*
X5210658Y-3840460D02*
X5191610Y-3849984D01*
X5191610Y-3849984D02*
X5172563Y-3849984D01*
X5172563Y-3849984D02*
X5153515Y-3840460D01*
X5153515Y-3840460D02*
X5143991Y-3830936D01*
X5143991Y-3830936D02*
X5134467Y-3811888D01*
X5134467Y-3811888D02*
X5124944Y-3773793D01*
X5124944Y-3773793D02*
X5124944Y-3726174D01*
X5124944Y-3726174D02*
X5134467Y-3688079D01*
X5134467Y-3688079D02*
X5143991Y-3669031D01*
X5143991Y-3669031D02*
X5153515Y-3659508D01*
X5153515Y-3659508D02*
X5172563Y-3649984D01*
X5363039Y-3649984D02*
X5382086Y-3649984D01*
X5382086Y-3649984D02*
X5401134Y-3659508D01*
X5401134Y-3659508D02*
X5410658Y-3669031D01*
X5410658Y-3669031D02*
X5420182Y-3688079D01*
X5420182Y-3688079D02*
X5429705Y-3726174D01*
X5429705Y-3726174D02*
X5429705Y-3773793D01*
X5429705Y-3773793D02*
X5420182Y-3811888D01*
X5420182Y-3811888D02*
X5410658Y-3830936D01*
X5410658Y-3830936D02*
X5401134Y-3840460D01*
X5401134Y-3840460D02*
X5382086Y-3849984D01*
X5382086Y-3849984D02*
X5363039Y-3849984D01*
X5363039Y-3849984D02*
X5343991Y-3840460D01*
X5343991Y-3840460D02*
X5334467Y-3830936D01*
X5334467Y-3830936D02*
X5324944Y-3811888D01*
X5324944Y-3811888D02*
X5315420Y-3773793D01*
X5315420Y-3773793D02*
X5315420Y-3726174D01*
X5315420Y-3726174D02*
X5324944Y-3688079D01*
X5324944Y-3688079D02*
X5334467Y-3669031D01*
X5334467Y-3669031D02*
X5343991Y-3659508D01*
X5343991Y-3659508D02*
X5363039Y-3649984D01*
X5515420Y-3849984D02*
X5515420Y-3716650D01*
X5515420Y-3735698D02*
X5524944Y-3726174D01*
X5524944Y-3726174D02*
X5543991Y-3716650D01*
X5543991Y-3716650D02*
X5572563Y-3716650D01*
X5572563Y-3716650D02*
X5591610Y-3726174D01*
X5591610Y-3726174D02*
X5601134Y-3745222D01*
X5601134Y-3745222D02*
X5601134Y-3849984D01*
X5601134Y-3745222D02*
X5610658Y-3726174D01*
X5610658Y-3726174D02*
X5629705Y-3716650D01*
X5629705Y-3716650D02*
X5658277Y-3716650D01*
X5658277Y-3716650D02*
X5677324Y-3726174D01*
X5677324Y-3726174D02*
X5686848Y-3745222D01*
X5686848Y-3745222D02*
X5686848Y-3849984D01*
X5782086Y-3849984D02*
X5782086Y-3716650D01*
X5782086Y-3735698D02*
X5791610Y-3726174D01*
X5791610Y-3726174D02*
X5810658Y-3716650D01*
X5810658Y-3716650D02*
X5839229Y-3716650D01*
X5839229Y-3716650D02*
X5858277Y-3726174D01*
X5858277Y-3726174D02*
X5867801Y-3745222D01*
X5867801Y-3745222D02*
X5867801Y-3849984D01*
X5867801Y-3745222D02*
X5877324Y-3726174D01*
X5877324Y-3726174D02*
X5896372Y-3716650D01*
X5896372Y-3716650D02*
X5924943Y-3716650D01*
X5924943Y-3716650D02*
X5943991Y-3726174D01*
X5943991Y-3726174D02*
X5953515Y-3745222D01*
X5953515Y-3745222D02*
X5953515Y-3849984D01*
X6343991Y-3640460D02*
X6172563Y-3897603D01*
X6601134Y-3649984D02*
X6620182Y-3649984D01*
X6620182Y-3649984D02*
X6639229Y-3659508D01*
X6639229Y-3659508D02*
X6648753Y-3669031D01*
X6648753Y-3669031D02*
X6658277Y-3688079D01*
X6658277Y-3688079D02*
X6667801Y-3726174D01*
X6667801Y-3726174D02*
X6667801Y-3773793D01*
X6667801Y-3773793D02*
X6658277Y-3811888D01*
X6658277Y-3811888D02*
X6648753Y-3830936D01*
X6648753Y-3830936D02*
X6639229Y-3840460D01*
X6639229Y-3840460D02*
X6620182Y-3849984D01*
X6620182Y-3849984D02*
X6601134Y-3849984D01*
X6601134Y-3849984D02*
X6582086Y-3840460D01*
X6582086Y-3840460D02*
X6572563Y-3830936D01*
X6572563Y-3830936D02*
X6563039Y-3811888D01*
X6563039Y-3811888D02*
X6553515Y-3773793D01*
X6553515Y-3773793D02*
X6553515Y-3726174D01*
X6553515Y-3726174D02*
X6563039Y-3688079D01*
X6563039Y-3688079D02*
X6572563Y-3669031D01*
X6572563Y-3669031D02*
X6582086Y-3659508D01*
X6582086Y-3659508D02*
X6601134Y-3649984D01*
X6753515Y-3830936D02*
X6763039Y-3840460D01*
X6763039Y-3840460D02*
X6753515Y-3849984D01*
X6753515Y-3849984D02*
X6743991Y-3840460D01*
X6743991Y-3840460D02*
X6753515Y-3830936D01*
X6753515Y-3830936D02*
X6753515Y-3849984D01*
X6886848Y-3649984D02*
X6905896Y-3649984D01*
X6905896Y-3649984D02*
X6924944Y-3659508D01*
X6924944Y-3659508D02*
X6934467Y-3669031D01*
X6934467Y-3669031D02*
X6943991Y-3688079D01*
X6943991Y-3688079D02*
X6953515Y-3726174D01*
X6953515Y-3726174D02*
X6953515Y-3773793D01*
X6953515Y-3773793D02*
X6943991Y-3811888D01*
X6943991Y-3811888D02*
X6934467Y-3830936D01*
X6934467Y-3830936D02*
X6924944Y-3840460D01*
X6924944Y-3840460D02*
X6905896Y-3849984D01*
X6905896Y-3849984D02*
X6886848Y-3849984D01*
X6886848Y-3849984D02*
X6867801Y-3840460D01*
X6867801Y-3840460D02*
X6858277Y-3830936D01*
X6858277Y-3830936D02*
X6848753Y-3811888D01*
X6848753Y-3811888D02*
X6839229Y-3773793D01*
X6839229Y-3773793D02*
X6839229Y-3726174D01*
X6839229Y-3726174D02*
X6848753Y-3688079D01*
X6848753Y-3688079D02*
X6858277Y-3669031D01*
X6858277Y-3669031D02*
X6867801Y-3659508D01*
X6867801Y-3659508D02*
X6886848Y-3649984D01*
X7077325Y-3649984D02*
X7096372Y-3649984D01*
X7096372Y-3649984D02*
X7115420Y-3659508D01*
X7115420Y-3659508D02*
X7124944Y-3669031D01*
X7124944Y-3669031D02*
X7134467Y-3688079D01*
X7134467Y-3688079D02*
X7143991Y-3726174D01*
X7143991Y-3726174D02*
X7143991Y-3773793D01*
X7143991Y-3773793D02*
X7134467Y-3811888D01*
X7134467Y-3811888D02*
X7124944Y-3830936D01*
X7124944Y-3830936D02*
X7115420Y-3840460D01*
X7115420Y-3840460D02*
X7096372Y-3849984D01*
X7096372Y-3849984D02*
X7077325Y-3849984D01*
X7077325Y-3849984D02*
X7058277Y-3840460D01*
X7058277Y-3840460D02*
X7048753Y-3830936D01*
X7048753Y-3830936D02*
X7039229Y-3811888D01*
X7039229Y-3811888D02*
X7029706Y-3773793D01*
X7029706Y-3773793D02*
X7029706Y-3726174D01*
X7029706Y-3726174D02*
X7039229Y-3688079D01*
X7039229Y-3688079D02*
X7048753Y-3669031D01*
X7048753Y-3669031D02*
X7058277Y-3659508D01*
X7058277Y-3659508D02*
X7077325Y-3649984D01*
X7210658Y-3649984D02*
X7343991Y-3649984D01*
X7343991Y-3649984D02*
X7258277Y-3849984D01*
X7429706Y-3849984D02*
X7467801Y-3849984D01*
X7467801Y-3849984D02*
X7486848Y-3840460D01*
X7486848Y-3840460D02*
X7496372Y-3830936D01*
X7496372Y-3830936D02*
X7515420Y-3802365D01*
X7515420Y-3802365D02*
X7524944Y-3764269D01*
X7524944Y-3764269D02*
X7524944Y-3688079D01*
X7524944Y-3688079D02*
X7515420Y-3669031D01*
X7515420Y-3669031D02*
X7505896Y-3659508D01*
X7505896Y-3659508D02*
X7486848Y-3649984D01*
X7486848Y-3649984D02*
X7448753Y-3649984D01*
X7448753Y-3649984D02*
X7429706Y-3659508D01*
X7429706Y-3659508D02*
X7420182Y-3669031D01*
X7420182Y-3669031D02*
X7410658Y-3688079D01*
X7410658Y-3688079D02*
X7410658Y-3735698D01*
X7410658Y-3735698D02*
X7420182Y-3754746D01*
X7420182Y-3754746D02*
X7429706Y-3764269D01*
X7429706Y-3764269D02*
X7448753Y-3773793D01*
X7448753Y-3773793D02*
X7486848Y-3773793D01*
X7486848Y-3773793D02*
X7505896Y-3764269D01*
X7505896Y-3764269D02*
X7515420Y-3754746D01*
X7515420Y-3754746D02*
X7524944Y-3735698D01*
X7601134Y-3649984D02*
X7601134Y-3688079D01*
X7677325Y-3649984D02*
X7677325Y-3688079D01*
X7972563Y-3926174D02*
X7963039Y-3916650D01*
X7963039Y-3916650D02*
X7943991Y-3888079D01*
X7943991Y-3888079D02*
X7934468Y-3869031D01*
X7934468Y-3869031D02*
X7924944Y-3840460D01*
X7924944Y-3840460D02*
X7915420Y-3792841D01*
X7915420Y-3792841D02*
X7915420Y-3754746D01*
X7915420Y-3754746D02*
X7924944Y-3707127D01*
X7924944Y-3707127D02*
X7934468Y-3678555D01*
X7934468Y-3678555D02*
X7943991Y-3659508D01*
X7943991Y-3659508D02*
X7963039Y-3630936D01*
X7963039Y-3630936D02*
X7972563Y-3621412D01*
X8058277Y-3849984D02*
X8096372Y-3849984D01*
X8096372Y-3849984D02*
X8115420Y-3840460D01*
X8115420Y-3840460D02*
X8124944Y-3830936D01*
X8124944Y-3830936D02*
X8143991Y-3802365D01*
X8143991Y-3802365D02*
X8153515Y-3764269D01*
X8153515Y-3764269D02*
X8153515Y-3688079D01*
X8153515Y-3688079D02*
X8143991Y-3669031D01*
X8143991Y-3669031D02*
X8134468Y-3659508D01*
X8134468Y-3659508D02*
X8115420Y-3649984D01*
X8115420Y-3649984D02*
X8077325Y-3649984D01*
X8077325Y-3649984D02*
X8058277Y-3659508D01*
X8058277Y-3659508D02*
X8048753Y-3669031D01*
X8048753Y-3669031D02*
X8039229Y-3688079D01*
X8039229Y-3688079D02*
X8039229Y-3735698D01*
X8039229Y-3735698D02*
X8048753Y-3754746D01*
X8048753Y-3754746D02*
X8058277Y-3764269D01*
X8058277Y-3764269D02*
X8077325Y-3773793D01*
X8077325Y-3773793D02*
X8115420Y-3773793D01*
X8115420Y-3773793D02*
X8134468Y-3764269D01*
X8134468Y-3764269D02*
X8143991Y-3754746D01*
X8143991Y-3754746D02*
X8153515Y-3735698D01*
X8391611Y-3849984D02*
X8391611Y-3649984D01*
X8477325Y-3849984D02*
X8477325Y-3745222D01*
X8477325Y-3745222D02*
X8467801Y-3726174D01*
X8467801Y-3726174D02*
X8448753Y-3716650D01*
X8448753Y-3716650D02*
X8420182Y-3716650D01*
X8420182Y-3716650D02*
X8401134Y-3726174D01*
X8401134Y-3726174D02*
X8391611Y-3735698D01*
X8601134Y-3849984D02*
X8582087Y-3840460D01*
X8582087Y-3840460D02*
X8572563Y-3830936D01*
X8572563Y-3830936D02*
X8563039Y-3811888D01*
X8563039Y-3811888D02*
X8563039Y-3754746D01*
X8563039Y-3754746D02*
X8572563Y-3735698D01*
X8572563Y-3735698D02*
X8582087Y-3726174D01*
X8582087Y-3726174D02*
X8601134Y-3716650D01*
X8601134Y-3716650D02*
X8629706Y-3716650D01*
X8629706Y-3716650D02*
X8648753Y-3726174D01*
X8648753Y-3726174D02*
X8658277Y-3735698D01*
X8658277Y-3735698D02*
X8667801Y-3754746D01*
X8667801Y-3754746D02*
X8667801Y-3811888D01*
X8667801Y-3811888D02*
X8658277Y-3830936D01*
X8658277Y-3830936D02*
X8648753Y-3840460D01*
X8648753Y-3840460D02*
X8629706Y-3849984D01*
X8629706Y-3849984D02*
X8601134Y-3849984D01*
X8782087Y-3849984D02*
X8763039Y-3840460D01*
X8763039Y-3840460D02*
X8753515Y-3821412D01*
X8753515Y-3821412D02*
X8753515Y-3649984D01*
X8934468Y-3840460D02*
X8915420Y-3849984D01*
X8915420Y-3849984D02*
X8877325Y-3849984D01*
X8877325Y-3849984D02*
X8858277Y-3840460D01*
X8858277Y-3840460D02*
X8848753Y-3821412D01*
X8848753Y-3821412D02*
X8848753Y-3745222D01*
X8848753Y-3745222D02*
X8858277Y-3726174D01*
X8858277Y-3726174D02*
X8877325Y-3716650D01*
X8877325Y-3716650D02*
X8915420Y-3716650D01*
X8915420Y-3716650D02*
X8934468Y-3726174D01*
X8934468Y-3726174D02*
X8943992Y-3745222D01*
X8943992Y-3745222D02*
X8943992Y-3764269D01*
X8943992Y-3764269D02*
X8848753Y-3783317D01*
X9020182Y-3840460D02*
X9039230Y-3849984D01*
X9039230Y-3849984D02*
X9077325Y-3849984D01*
X9077325Y-3849984D02*
X9096373Y-3840460D01*
X9096373Y-3840460D02*
X9105896Y-3821412D01*
X9105896Y-3821412D02*
X9105896Y-3811888D01*
X9105896Y-3811888D02*
X9096373Y-3792841D01*
X9096373Y-3792841D02*
X9077325Y-3783317D01*
X9077325Y-3783317D02*
X9048753Y-3783317D01*
X9048753Y-3783317D02*
X9029706Y-3773793D01*
X9029706Y-3773793D02*
X9020182Y-3754746D01*
X9020182Y-3754746D02*
X9020182Y-3745222D01*
X9020182Y-3745222D02*
X9029706Y-3726174D01*
X9029706Y-3726174D02*
X9048753Y-3716650D01*
X9048753Y-3716650D02*
X9077325Y-3716650D01*
X9077325Y-3716650D02*
X9096373Y-3726174D01*
X9172563Y-3926174D02*
X9182087Y-3916650D01*
X9182087Y-3916650D02*
X9201134Y-3888079D01*
X9201134Y-3888079D02*
X9210658Y-3869031D01*
X9210658Y-3869031D02*
X9220182Y-3840460D01*
X9220182Y-3840460D02*
X9229706Y-3792841D01*
X9229706Y-3792841D02*
X9229706Y-3754746D01*
X9229706Y-3754746D02*
X9220182Y-3707127D01*
X9220182Y-3707127D02*
X9210658Y-3678555D01*
X9210658Y-3678555D02*
X9201134Y-3659508D01*
X9201134Y-3659508D02*
X9182087Y-3630936D01*
X9182087Y-3630936D02*
X9172563Y-3621412D01*
D13*
X4397500Y-4022500D02*
G75*
G03*
X4397500Y-4022500I-12500J0D01*
G01*
D11*
X4696372Y-3913984D02*
X4715420Y-3913984D01*
X4715420Y-3913984D02*
X4734467Y-3923508D01*
X4734467Y-3923508D02*
X4743991Y-3933031D01*
X4743991Y-3933031D02*
X4753515Y-3952079D01*
X4753515Y-3952079D02*
X4763039Y-3990174D01*
X4763039Y-3990174D02*
X4763039Y-4037793D01*
X4763039Y-4037793D02*
X4753515Y-4075888D01*
X4753515Y-4075888D02*
X4743991Y-4094936D01*
X4743991Y-4094936D02*
X4734467Y-4104460D01*
X4734467Y-4104460D02*
X4715420Y-4113984D01*
X4715420Y-4113984D02*
X4696372Y-4113984D01*
X4696372Y-4113984D02*
X4677324Y-4104460D01*
X4677324Y-4104460D02*
X4667801Y-4094936D01*
X4667801Y-4094936D02*
X4658277Y-4075888D01*
X4658277Y-4075888D02*
X4648753Y-4037793D01*
X4648753Y-4037793D02*
X4648753Y-3990174D01*
X4648753Y-3990174D02*
X4658277Y-3952079D01*
X4658277Y-3952079D02*
X4667801Y-3933031D01*
X4667801Y-3933031D02*
X4677324Y-3923508D01*
X4677324Y-3923508D02*
X4696372Y-3913984D01*
X4848753Y-4094936D02*
X4858277Y-4104460D01*
X4858277Y-4104460D02*
X4848753Y-4113984D01*
X4848753Y-4113984D02*
X4839229Y-4104460D01*
X4839229Y-4104460D02*
X4848753Y-4094936D01*
X4848753Y-4094936D02*
X4848753Y-4113984D01*
X4934467Y-3933031D02*
X4943991Y-3923508D01*
X4943991Y-3923508D02*
X4963039Y-3913984D01*
X4963039Y-3913984D02*
X5010658Y-3913984D01*
X5010658Y-3913984D02*
X5029705Y-3923508D01*
X5029705Y-3923508D02*
X5039229Y-3933031D01*
X5039229Y-3933031D02*
X5048753Y-3952079D01*
X5048753Y-3952079D02*
X5048753Y-3971127D01*
X5048753Y-3971127D02*
X5039229Y-3999698D01*
X5039229Y-3999698D02*
X4924944Y-4113984D01*
X4924944Y-4113984D02*
X5048753Y-4113984D01*
X5229705Y-3913984D02*
X5134467Y-3913984D01*
X5134467Y-3913984D02*
X5124944Y-4009222D01*
X5124944Y-4009222D02*
X5134467Y-3999698D01*
X5134467Y-3999698D02*
X5153515Y-3990174D01*
X5153515Y-3990174D02*
X5201134Y-3990174D01*
X5201134Y-3990174D02*
X5220182Y-3999698D01*
X5220182Y-3999698D02*
X5229705Y-4009222D01*
X5229705Y-4009222D02*
X5239229Y-4028269D01*
X5239229Y-4028269D02*
X5239229Y-4075888D01*
X5239229Y-4075888D02*
X5229705Y-4094936D01*
X5229705Y-4094936D02*
X5220182Y-4104460D01*
X5220182Y-4104460D02*
X5201134Y-4113984D01*
X5201134Y-4113984D02*
X5153515Y-4113984D01*
X5153515Y-4113984D02*
X5134467Y-4104460D01*
X5134467Y-4104460D02*
X5124944Y-4094936D01*
X5363039Y-3913984D02*
X5382086Y-3913984D01*
X5382086Y-3913984D02*
X5401134Y-3923508D01*
X5401134Y-3923508D02*
X5410658Y-3933031D01*
X5410658Y-3933031D02*
X5420182Y-3952079D01*
X5420182Y-3952079D02*
X5429705Y-3990174D01*
X5429705Y-3990174D02*
X5429705Y-4037793D01*
X5429705Y-4037793D02*
X5420182Y-4075888D01*
X5420182Y-4075888D02*
X5410658Y-4094936D01*
X5410658Y-4094936D02*
X5401134Y-4104460D01*
X5401134Y-4104460D02*
X5382086Y-4113984D01*
X5382086Y-4113984D02*
X5363039Y-4113984D01*
X5363039Y-4113984D02*
X5343991Y-4104460D01*
X5343991Y-4104460D02*
X5334467Y-4094936D01*
X5334467Y-4094936D02*
X5324944Y-4075888D01*
X5324944Y-4075888D02*
X5315420Y-4037793D01*
X5315420Y-4037793D02*
X5315420Y-3990174D01*
X5315420Y-3990174D02*
X5324944Y-3952079D01*
X5324944Y-3952079D02*
X5334467Y-3933031D01*
X5334467Y-3933031D02*
X5343991Y-3923508D01*
X5343991Y-3923508D02*
X5363039Y-3913984D01*
X5515420Y-4113984D02*
X5515420Y-3980650D01*
X5515420Y-3999698D02*
X5524944Y-3990174D01*
X5524944Y-3990174D02*
X5543991Y-3980650D01*
X5543991Y-3980650D02*
X5572563Y-3980650D01*
X5572563Y-3980650D02*
X5591610Y-3990174D01*
X5591610Y-3990174D02*
X5601134Y-4009222D01*
X5601134Y-4009222D02*
X5601134Y-4113984D01*
X5601134Y-4009222D02*
X5610658Y-3990174D01*
X5610658Y-3990174D02*
X5629705Y-3980650D01*
X5629705Y-3980650D02*
X5658277Y-3980650D01*
X5658277Y-3980650D02*
X5677324Y-3990174D01*
X5677324Y-3990174D02*
X5686848Y-4009222D01*
X5686848Y-4009222D02*
X5686848Y-4113984D01*
X5782086Y-4113984D02*
X5782086Y-3980650D01*
X5782086Y-3999698D02*
X5791610Y-3990174D01*
X5791610Y-3990174D02*
X5810658Y-3980650D01*
X5810658Y-3980650D02*
X5839229Y-3980650D01*
X5839229Y-3980650D02*
X5858277Y-3990174D01*
X5858277Y-3990174D02*
X5867801Y-4009222D01*
X5867801Y-4009222D02*
X5867801Y-4113984D01*
X5867801Y-4009222D02*
X5877324Y-3990174D01*
X5877324Y-3990174D02*
X5896372Y-3980650D01*
X5896372Y-3980650D02*
X5924943Y-3980650D01*
X5924943Y-3980650D02*
X5943991Y-3990174D01*
X5943991Y-3990174D02*
X5953515Y-4009222D01*
X5953515Y-4009222D02*
X5953515Y-4113984D01*
X6343991Y-3904460D02*
X6172563Y-4161603D01*
X6601134Y-3913984D02*
X6620182Y-3913984D01*
X6620182Y-3913984D02*
X6639229Y-3923508D01*
X6639229Y-3923508D02*
X6648753Y-3933031D01*
X6648753Y-3933031D02*
X6658277Y-3952079D01*
X6658277Y-3952079D02*
X6667801Y-3990174D01*
X6667801Y-3990174D02*
X6667801Y-4037793D01*
X6667801Y-4037793D02*
X6658277Y-4075888D01*
X6658277Y-4075888D02*
X6648753Y-4094936D01*
X6648753Y-4094936D02*
X6639229Y-4104460D01*
X6639229Y-4104460D02*
X6620182Y-4113984D01*
X6620182Y-4113984D02*
X6601134Y-4113984D01*
X6601134Y-4113984D02*
X6582086Y-4104460D01*
X6582086Y-4104460D02*
X6572563Y-4094936D01*
X6572563Y-4094936D02*
X6563039Y-4075888D01*
X6563039Y-4075888D02*
X6553515Y-4037793D01*
X6553515Y-4037793D02*
X6553515Y-3990174D01*
X6553515Y-3990174D02*
X6563039Y-3952079D01*
X6563039Y-3952079D02*
X6572563Y-3933031D01*
X6572563Y-3933031D02*
X6582086Y-3923508D01*
X6582086Y-3923508D02*
X6601134Y-3913984D01*
X6753515Y-4094936D02*
X6763039Y-4104460D01*
X6763039Y-4104460D02*
X6753515Y-4113984D01*
X6753515Y-4113984D02*
X6743991Y-4104460D01*
X6743991Y-4104460D02*
X6753515Y-4094936D01*
X6753515Y-4094936D02*
X6753515Y-4113984D01*
X6886848Y-3913984D02*
X6905896Y-3913984D01*
X6905896Y-3913984D02*
X6924944Y-3923508D01*
X6924944Y-3923508D02*
X6934467Y-3933031D01*
X6934467Y-3933031D02*
X6943991Y-3952079D01*
X6943991Y-3952079D02*
X6953515Y-3990174D01*
X6953515Y-3990174D02*
X6953515Y-4037793D01*
X6953515Y-4037793D02*
X6943991Y-4075888D01*
X6943991Y-4075888D02*
X6934467Y-4094936D01*
X6934467Y-4094936D02*
X6924944Y-4104460D01*
X6924944Y-4104460D02*
X6905896Y-4113984D01*
X6905896Y-4113984D02*
X6886848Y-4113984D01*
X6886848Y-4113984D02*
X6867801Y-4104460D01*
X6867801Y-4104460D02*
X6858277Y-4094936D01*
X6858277Y-4094936D02*
X6848753Y-4075888D01*
X6848753Y-4075888D02*
X6839229Y-4037793D01*
X6839229Y-4037793D02*
X6839229Y-3990174D01*
X6839229Y-3990174D02*
X6848753Y-3952079D01*
X6848753Y-3952079D02*
X6858277Y-3933031D01*
X6858277Y-3933031D02*
X6867801Y-3923508D01*
X6867801Y-3923508D02*
X6886848Y-3913984D01*
X7077325Y-3913984D02*
X7096372Y-3913984D01*
X7096372Y-3913984D02*
X7115420Y-3923508D01*
X7115420Y-3923508D02*
X7124944Y-3933031D01*
X7124944Y-3933031D02*
X7134467Y-3952079D01*
X7134467Y-3952079D02*
X7143991Y-3990174D01*
X7143991Y-3990174D02*
X7143991Y-4037793D01*
X7143991Y-4037793D02*
X7134467Y-4075888D01*
X7134467Y-4075888D02*
X7124944Y-4094936D01*
X7124944Y-4094936D02*
X7115420Y-4104460D01*
X7115420Y-4104460D02*
X7096372Y-4113984D01*
X7096372Y-4113984D02*
X7077325Y-4113984D01*
X7077325Y-4113984D02*
X7058277Y-4104460D01*
X7058277Y-4104460D02*
X7048753Y-4094936D01*
X7048753Y-4094936D02*
X7039229Y-4075888D01*
X7039229Y-4075888D02*
X7029706Y-4037793D01*
X7029706Y-4037793D02*
X7029706Y-3990174D01*
X7029706Y-3990174D02*
X7039229Y-3952079D01*
X7039229Y-3952079D02*
X7048753Y-3933031D01*
X7048753Y-3933031D02*
X7058277Y-3923508D01*
X7058277Y-3923508D02*
X7077325Y-3913984D01*
X7239229Y-4113984D02*
X7277325Y-4113984D01*
X7277325Y-4113984D02*
X7296372Y-4104460D01*
X7296372Y-4104460D02*
X7305896Y-4094936D01*
X7305896Y-4094936D02*
X7324944Y-4066365D01*
X7324944Y-4066365D02*
X7334467Y-4028269D01*
X7334467Y-4028269D02*
X7334467Y-3952079D01*
X7334467Y-3952079D02*
X7324944Y-3933031D01*
X7324944Y-3933031D02*
X7315420Y-3923508D01*
X7315420Y-3923508D02*
X7296372Y-3913984D01*
X7296372Y-3913984D02*
X7258277Y-3913984D01*
X7258277Y-3913984D02*
X7239229Y-3923508D01*
X7239229Y-3923508D02*
X7229706Y-3933031D01*
X7229706Y-3933031D02*
X7220182Y-3952079D01*
X7220182Y-3952079D02*
X7220182Y-3999698D01*
X7220182Y-3999698D02*
X7229706Y-4018746D01*
X7229706Y-4018746D02*
X7239229Y-4028269D01*
X7239229Y-4028269D02*
X7258277Y-4037793D01*
X7258277Y-4037793D02*
X7296372Y-4037793D01*
X7296372Y-4037793D02*
X7315420Y-4028269D01*
X7315420Y-4028269D02*
X7324944Y-4018746D01*
X7324944Y-4018746D02*
X7334467Y-3999698D01*
X7448753Y-3999698D02*
X7429706Y-3990174D01*
X7429706Y-3990174D02*
X7420182Y-3980650D01*
X7420182Y-3980650D02*
X7410658Y-3961603D01*
X7410658Y-3961603D02*
X7410658Y-3952079D01*
X7410658Y-3952079D02*
X7420182Y-3933031D01*
X7420182Y-3933031D02*
X7429706Y-3923508D01*
X7429706Y-3923508D02*
X7448753Y-3913984D01*
X7448753Y-3913984D02*
X7486848Y-3913984D01*
X7486848Y-3913984D02*
X7505896Y-3923508D01*
X7505896Y-3923508D02*
X7515420Y-3933031D01*
X7515420Y-3933031D02*
X7524944Y-3952079D01*
X7524944Y-3952079D02*
X7524944Y-3961603D01*
X7524944Y-3961603D02*
X7515420Y-3980650D01*
X7515420Y-3980650D02*
X7505896Y-3990174D01*
X7505896Y-3990174D02*
X7486848Y-3999698D01*
X7486848Y-3999698D02*
X7448753Y-3999698D01*
X7448753Y-3999698D02*
X7429706Y-4009222D01*
X7429706Y-4009222D02*
X7420182Y-4018746D01*
X7420182Y-4018746D02*
X7410658Y-4037793D01*
X7410658Y-4037793D02*
X7410658Y-4075888D01*
X7410658Y-4075888D02*
X7420182Y-4094936D01*
X7420182Y-4094936D02*
X7429706Y-4104460D01*
X7429706Y-4104460D02*
X7448753Y-4113984D01*
X7448753Y-4113984D02*
X7486848Y-4113984D01*
X7486848Y-4113984D02*
X7505896Y-4104460D01*
X7505896Y-4104460D02*
X7515420Y-4094936D01*
X7515420Y-4094936D02*
X7524944Y-4075888D01*
X7524944Y-4075888D02*
X7524944Y-4037793D01*
X7524944Y-4037793D02*
X7515420Y-4018746D01*
X7515420Y-4018746D02*
X7505896Y-4009222D01*
X7505896Y-4009222D02*
X7486848Y-3999698D01*
X7601134Y-3913984D02*
X7601134Y-3952079D01*
X7677325Y-3913984D02*
X7677325Y-3952079D01*
X7972563Y-4190174D02*
X7963039Y-4180650D01*
X7963039Y-4180650D02*
X7943991Y-4152079D01*
X7943991Y-4152079D02*
X7934468Y-4133031D01*
X7934468Y-4133031D02*
X7924944Y-4104460D01*
X7924944Y-4104460D02*
X7915420Y-4056841D01*
X7915420Y-4056841D02*
X7915420Y-4018746D01*
X7915420Y-4018746D02*
X7924944Y-3971127D01*
X7924944Y-3971127D02*
X7934468Y-3942555D01*
X7934468Y-3942555D02*
X7943991Y-3923508D01*
X7943991Y-3923508D02*
X7963039Y-3894936D01*
X7963039Y-3894936D02*
X7972563Y-3885412D01*
X8077325Y-3999698D02*
X8058277Y-3990174D01*
X8058277Y-3990174D02*
X8048753Y-3980650D01*
X8048753Y-3980650D02*
X8039229Y-3961603D01*
X8039229Y-3961603D02*
X8039229Y-3952079D01*
X8039229Y-3952079D02*
X8048753Y-3933031D01*
X8048753Y-3933031D02*
X8058277Y-3923508D01*
X8058277Y-3923508D02*
X8077325Y-3913984D01*
X8077325Y-3913984D02*
X8115420Y-3913984D01*
X8115420Y-3913984D02*
X8134468Y-3923508D01*
X8134468Y-3923508D02*
X8143991Y-3933031D01*
X8143991Y-3933031D02*
X8153515Y-3952079D01*
X8153515Y-3952079D02*
X8153515Y-3961603D01*
X8153515Y-3961603D02*
X8143991Y-3980650D01*
X8143991Y-3980650D02*
X8134468Y-3990174D01*
X8134468Y-3990174D02*
X8115420Y-3999698D01*
X8115420Y-3999698D02*
X8077325Y-3999698D01*
X8077325Y-3999698D02*
X8058277Y-4009222D01*
X8058277Y-4009222D02*
X8048753Y-4018746D01*
X8048753Y-4018746D02*
X8039229Y-4037793D01*
X8039229Y-4037793D02*
X8039229Y-4075888D01*
X8039229Y-4075888D02*
X8048753Y-4094936D01*
X8048753Y-4094936D02*
X8058277Y-4104460D01*
X8058277Y-4104460D02*
X8077325Y-4113984D01*
X8077325Y-4113984D02*
X8115420Y-4113984D01*
X8115420Y-4113984D02*
X8134468Y-4104460D01*
X8134468Y-4104460D02*
X8143991Y-4094936D01*
X8143991Y-4094936D02*
X8153515Y-4075888D01*
X8153515Y-4075888D02*
X8153515Y-4037793D01*
X8153515Y-4037793D02*
X8143991Y-4018746D01*
X8143991Y-4018746D02*
X8134468Y-4009222D01*
X8134468Y-4009222D02*
X8115420Y-3999698D01*
X8324944Y-3913984D02*
X8286848Y-3913984D01*
X8286848Y-3913984D02*
X8267801Y-3923508D01*
X8267801Y-3923508D02*
X8258277Y-3933031D01*
X8258277Y-3933031D02*
X8239229Y-3961603D01*
X8239229Y-3961603D02*
X8229706Y-3999698D01*
X8229706Y-3999698D02*
X8229706Y-4075888D01*
X8229706Y-4075888D02*
X8239229Y-4094936D01*
X8239229Y-4094936D02*
X8248753Y-4104460D01*
X8248753Y-4104460D02*
X8267801Y-4113984D01*
X8267801Y-4113984D02*
X8305896Y-4113984D01*
X8305896Y-4113984D02*
X8324944Y-4104460D01*
X8324944Y-4104460D02*
X8334468Y-4094936D01*
X8334468Y-4094936D02*
X8343991Y-4075888D01*
X8343991Y-4075888D02*
X8343991Y-4028269D01*
X8343991Y-4028269D02*
X8334468Y-4009222D01*
X8334468Y-4009222D02*
X8324944Y-3999698D01*
X8324944Y-3999698D02*
X8305896Y-3990174D01*
X8305896Y-3990174D02*
X8267801Y-3990174D01*
X8267801Y-3990174D02*
X8248753Y-3999698D01*
X8248753Y-3999698D02*
X8239229Y-4009222D01*
X8239229Y-4009222D02*
X8229706Y-4028269D01*
X8582087Y-4113984D02*
X8582087Y-3913984D01*
X8667801Y-4113984D02*
X8667801Y-4009222D01*
X8667801Y-4009222D02*
X8658277Y-3990174D01*
X8658277Y-3990174D02*
X8639230Y-3980650D01*
X8639230Y-3980650D02*
X8610658Y-3980650D01*
X8610658Y-3980650D02*
X8591611Y-3990174D01*
X8591611Y-3990174D02*
X8582087Y-3999698D01*
X8791611Y-4113984D02*
X8772563Y-4104460D01*
X8772563Y-4104460D02*
X8763039Y-4094936D01*
X8763039Y-4094936D02*
X8753515Y-4075888D01*
X8753515Y-4075888D02*
X8753515Y-4018746D01*
X8753515Y-4018746D02*
X8763039Y-3999698D01*
X8763039Y-3999698D02*
X8772563Y-3990174D01*
X8772563Y-3990174D02*
X8791611Y-3980650D01*
X8791611Y-3980650D02*
X8820182Y-3980650D01*
X8820182Y-3980650D02*
X8839230Y-3990174D01*
X8839230Y-3990174D02*
X8848753Y-3999698D01*
X8848753Y-3999698D02*
X8858277Y-4018746D01*
X8858277Y-4018746D02*
X8858277Y-4075888D01*
X8858277Y-4075888D02*
X8848753Y-4094936D01*
X8848753Y-4094936D02*
X8839230Y-4104460D01*
X8839230Y-4104460D02*
X8820182Y-4113984D01*
X8820182Y-4113984D02*
X8791611Y-4113984D01*
X8972563Y-4113984D02*
X8953515Y-4104460D01*
X8953515Y-4104460D02*
X8943992Y-4085412D01*
X8943992Y-4085412D02*
X8943992Y-3913984D01*
X9124944Y-4104460D02*
X9105896Y-4113984D01*
X9105896Y-4113984D02*
X9067801Y-4113984D01*
X9067801Y-4113984D02*
X9048753Y-4104460D01*
X9048753Y-4104460D02*
X9039230Y-4085412D01*
X9039230Y-4085412D02*
X9039230Y-4009222D01*
X9039230Y-4009222D02*
X9048753Y-3990174D01*
X9048753Y-3990174D02*
X9067801Y-3980650D01*
X9067801Y-3980650D02*
X9105896Y-3980650D01*
X9105896Y-3980650D02*
X9124944Y-3990174D01*
X9124944Y-3990174D02*
X9134468Y-4009222D01*
X9134468Y-4009222D02*
X9134468Y-4028269D01*
X9134468Y-4028269D02*
X9039230Y-4047317D01*
X9210658Y-4104460D02*
X9229706Y-4113984D01*
X9229706Y-4113984D02*
X9267801Y-4113984D01*
X9267801Y-4113984D02*
X9286849Y-4104460D01*
X9286849Y-4104460D02*
X9296373Y-4085412D01*
X9296373Y-4085412D02*
X9296373Y-4075888D01*
X9296373Y-4075888D02*
X9286849Y-4056841D01*
X9286849Y-4056841D02*
X9267801Y-4047317D01*
X9267801Y-4047317D02*
X9239230Y-4047317D01*
X9239230Y-4047317D02*
X9220182Y-4037793D01*
X9220182Y-4037793D02*
X9210658Y-4018746D01*
X9210658Y-4018746D02*
X9210658Y-4009222D01*
X9210658Y-4009222D02*
X9220182Y-3990174D01*
X9220182Y-3990174D02*
X9239230Y-3980650D01*
X9239230Y-3980650D02*
X9267801Y-3980650D01*
X9267801Y-3980650D02*
X9286849Y-3990174D01*
X9363039Y-4190174D02*
X9372563Y-4180650D01*
X9372563Y-4180650D02*
X9391611Y-4152079D01*
X9391611Y-4152079D02*
X9401134Y-4133031D01*
X9401134Y-4133031D02*
X9410658Y-4104460D01*
X9410658Y-4104460D02*
X9420182Y-4056841D01*
X9420182Y-4056841D02*
X9420182Y-4018746D01*
X9420182Y-4018746D02*
X9410658Y-3971127D01*
X9410658Y-3971127D02*
X9401134Y-3942555D01*
X9401134Y-3942555D02*
X9391611Y-3923508D01*
X9391611Y-3923508D02*
X9372563Y-3894936D01*
X9372563Y-3894936D02*
X9363039Y-3885412D01*
D14*
X4372500Y-4261500D02*
X4372500Y-4311500D01*
X4347500Y-4286500D02*
X4397500Y-4286500D01*
D11*
X4696372Y-4177984D02*
X4715420Y-4177984D01*
X4715420Y-4177984D02*
X4734467Y-4187508D01*
X4734467Y-4187508D02*
X4743991Y-4197031D01*
X4743991Y-4197031D02*
X4753515Y-4216079D01*
X4753515Y-4216079D02*
X4763039Y-4254174D01*
X4763039Y-4254174D02*
X4763039Y-4301793D01*
X4763039Y-4301793D02*
X4753515Y-4339889D01*
X4753515Y-4339889D02*
X4743991Y-4358936D01*
X4743991Y-4358936D02*
X4734467Y-4368460D01*
X4734467Y-4368460D02*
X4715420Y-4377984D01*
X4715420Y-4377984D02*
X4696372Y-4377984D01*
X4696372Y-4377984D02*
X4677324Y-4368460D01*
X4677324Y-4368460D02*
X4667801Y-4358936D01*
X4667801Y-4358936D02*
X4658277Y-4339889D01*
X4658277Y-4339889D02*
X4648753Y-4301793D01*
X4648753Y-4301793D02*
X4648753Y-4254174D01*
X4648753Y-4254174D02*
X4658277Y-4216079D01*
X4658277Y-4216079D02*
X4667801Y-4197031D01*
X4667801Y-4197031D02*
X4677324Y-4187508D01*
X4677324Y-4187508D02*
X4696372Y-4177984D01*
X4848753Y-4358936D02*
X4858277Y-4368460D01*
X4858277Y-4368460D02*
X4848753Y-4377984D01*
X4848753Y-4377984D02*
X4839229Y-4368460D01*
X4839229Y-4368460D02*
X4848753Y-4358936D01*
X4848753Y-4358936D02*
X4848753Y-4377984D01*
X5039229Y-4177984D02*
X4943991Y-4177984D01*
X4943991Y-4177984D02*
X4934467Y-4273222D01*
X4934467Y-4273222D02*
X4943991Y-4263698D01*
X4943991Y-4263698D02*
X4963039Y-4254174D01*
X4963039Y-4254174D02*
X5010658Y-4254174D01*
X5010658Y-4254174D02*
X5029705Y-4263698D01*
X5029705Y-4263698D02*
X5039229Y-4273222D01*
X5039229Y-4273222D02*
X5048753Y-4292270D01*
X5048753Y-4292270D02*
X5048753Y-4339889D01*
X5048753Y-4339889D02*
X5039229Y-4358936D01*
X5039229Y-4358936D02*
X5029705Y-4368460D01*
X5029705Y-4368460D02*
X5010658Y-4377984D01*
X5010658Y-4377984D02*
X4963039Y-4377984D01*
X4963039Y-4377984D02*
X4943991Y-4368460D01*
X4943991Y-4368460D02*
X4934467Y-4358936D01*
X5172563Y-4177984D02*
X5191610Y-4177984D01*
X5191610Y-4177984D02*
X5210658Y-4187508D01*
X5210658Y-4187508D02*
X5220182Y-4197031D01*
X5220182Y-4197031D02*
X5229705Y-4216079D01*
X5229705Y-4216079D02*
X5239229Y-4254174D01*
X5239229Y-4254174D02*
X5239229Y-4301793D01*
X5239229Y-4301793D02*
X5229705Y-4339889D01*
X5229705Y-4339889D02*
X5220182Y-4358936D01*
X5220182Y-4358936D02*
X5210658Y-4368460D01*
X5210658Y-4368460D02*
X5191610Y-4377984D01*
X5191610Y-4377984D02*
X5172563Y-4377984D01*
X5172563Y-4377984D02*
X5153515Y-4368460D01*
X5153515Y-4368460D02*
X5143991Y-4358936D01*
X5143991Y-4358936D02*
X5134467Y-4339889D01*
X5134467Y-4339889D02*
X5124944Y-4301793D01*
X5124944Y-4301793D02*
X5124944Y-4254174D01*
X5124944Y-4254174D02*
X5134467Y-4216079D01*
X5134467Y-4216079D02*
X5143991Y-4197031D01*
X5143991Y-4197031D02*
X5153515Y-4187508D01*
X5153515Y-4187508D02*
X5172563Y-4177984D01*
X5363039Y-4177984D02*
X5382086Y-4177984D01*
X5382086Y-4177984D02*
X5401134Y-4187508D01*
X5401134Y-4187508D02*
X5410658Y-4197031D01*
X5410658Y-4197031D02*
X5420182Y-4216079D01*
X5420182Y-4216079D02*
X5429705Y-4254174D01*
X5429705Y-4254174D02*
X5429705Y-4301793D01*
X5429705Y-4301793D02*
X5420182Y-4339889D01*
X5420182Y-4339889D02*
X5410658Y-4358936D01*
X5410658Y-4358936D02*
X5401134Y-4368460D01*
X5401134Y-4368460D02*
X5382086Y-4377984D01*
X5382086Y-4377984D02*
X5363039Y-4377984D01*
X5363039Y-4377984D02*
X5343991Y-4368460D01*
X5343991Y-4368460D02*
X5334467Y-4358936D01*
X5334467Y-4358936D02*
X5324944Y-4339889D01*
X5324944Y-4339889D02*
X5315420Y-4301793D01*
X5315420Y-4301793D02*
X5315420Y-4254174D01*
X5315420Y-4254174D02*
X5324944Y-4216079D01*
X5324944Y-4216079D02*
X5334467Y-4197031D01*
X5334467Y-4197031D02*
X5343991Y-4187508D01*
X5343991Y-4187508D02*
X5363039Y-4177984D01*
X5515420Y-4377984D02*
X5515420Y-4244650D01*
X5515420Y-4263698D02*
X5524944Y-4254174D01*
X5524944Y-4254174D02*
X5543991Y-4244650D01*
X5543991Y-4244650D02*
X5572563Y-4244650D01*
X5572563Y-4244650D02*
X5591610Y-4254174D01*
X5591610Y-4254174D02*
X5601134Y-4273222D01*
X5601134Y-4273222D02*
X5601134Y-4377984D01*
X5601134Y-4273222D02*
X5610658Y-4254174D01*
X5610658Y-4254174D02*
X5629705Y-4244650D01*
X5629705Y-4244650D02*
X5658277Y-4244650D01*
X5658277Y-4244650D02*
X5677324Y-4254174D01*
X5677324Y-4254174D02*
X5686848Y-4273222D01*
X5686848Y-4273222D02*
X5686848Y-4377984D01*
X5782086Y-4377984D02*
X5782086Y-4244650D01*
X5782086Y-4263698D02*
X5791610Y-4254174D01*
X5791610Y-4254174D02*
X5810658Y-4244650D01*
X5810658Y-4244650D02*
X5839229Y-4244650D01*
X5839229Y-4244650D02*
X5858277Y-4254174D01*
X5858277Y-4254174D02*
X5867801Y-4273222D01*
X5867801Y-4273222D02*
X5867801Y-4377984D01*
X5867801Y-4273222D02*
X5877324Y-4254174D01*
X5877324Y-4254174D02*
X5896372Y-4244650D01*
X5896372Y-4244650D02*
X5924943Y-4244650D01*
X5924943Y-4244650D02*
X5943991Y-4254174D01*
X5943991Y-4254174D02*
X5953515Y-4273222D01*
X5953515Y-4273222D02*
X5953515Y-4377984D01*
X6343991Y-4168460D02*
X6172563Y-4425603D01*
X6601134Y-4177984D02*
X6620182Y-4177984D01*
X6620182Y-4177984D02*
X6639229Y-4187508D01*
X6639229Y-4187508D02*
X6648753Y-4197031D01*
X6648753Y-4197031D02*
X6658277Y-4216079D01*
X6658277Y-4216079D02*
X6667801Y-4254174D01*
X6667801Y-4254174D02*
X6667801Y-4301793D01*
X6667801Y-4301793D02*
X6658277Y-4339889D01*
X6658277Y-4339889D02*
X6648753Y-4358936D01*
X6648753Y-4358936D02*
X6639229Y-4368460D01*
X6639229Y-4368460D02*
X6620182Y-4377984D01*
X6620182Y-4377984D02*
X6601134Y-4377984D01*
X6601134Y-4377984D02*
X6582086Y-4368460D01*
X6582086Y-4368460D02*
X6572563Y-4358936D01*
X6572563Y-4358936D02*
X6563039Y-4339889D01*
X6563039Y-4339889D02*
X6553515Y-4301793D01*
X6553515Y-4301793D02*
X6553515Y-4254174D01*
X6553515Y-4254174D02*
X6563039Y-4216079D01*
X6563039Y-4216079D02*
X6572563Y-4197031D01*
X6572563Y-4197031D02*
X6582086Y-4187508D01*
X6582086Y-4187508D02*
X6601134Y-4177984D01*
X6753515Y-4358936D02*
X6763039Y-4368460D01*
X6763039Y-4368460D02*
X6753515Y-4377984D01*
X6753515Y-4377984D02*
X6743991Y-4368460D01*
X6743991Y-4368460D02*
X6753515Y-4358936D01*
X6753515Y-4358936D02*
X6753515Y-4377984D01*
X6886848Y-4177984D02*
X6905896Y-4177984D01*
X6905896Y-4177984D02*
X6924944Y-4187508D01*
X6924944Y-4187508D02*
X6934467Y-4197031D01*
X6934467Y-4197031D02*
X6943991Y-4216079D01*
X6943991Y-4216079D02*
X6953515Y-4254174D01*
X6953515Y-4254174D02*
X6953515Y-4301793D01*
X6953515Y-4301793D02*
X6943991Y-4339889D01*
X6943991Y-4339889D02*
X6934467Y-4358936D01*
X6934467Y-4358936D02*
X6924944Y-4368460D01*
X6924944Y-4368460D02*
X6905896Y-4377984D01*
X6905896Y-4377984D02*
X6886848Y-4377984D01*
X6886848Y-4377984D02*
X6867801Y-4368460D01*
X6867801Y-4368460D02*
X6858277Y-4358936D01*
X6858277Y-4358936D02*
X6848753Y-4339889D01*
X6848753Y-4339889D02*
X6839229Y-4301793D01*
X6839229Y-4301793D02*
X6839229Y-4254174D01*
X6839229Y-4254174D02*
X6848753Y-4216079D01*
X6848753Y-4216079D02*
X6858277Y-4197031D01*
X6858277Y-4197031D02*
X6867801Y-4187508D01*
X6867801Y-4187508D02*
X6886848Y-4177984D01*
X7143991Y-4377984D02*
X7029706Y-4377984D01*
X7086848Y-4377984D02*
X7086848Y-4177984D01*
X7086848Y-4177984D02*
X7067801Y-4206555D01*
X7067801Y-4206555D02*
X7048753Y-4225603D01*
X7048753Y-4225603D02*
X7029706Y-4235127D01*
X7239229Y-4377984D02*
X7277325Y-4377984D01*
X7277325Y-4377984D02*
X7296372Y-4368460D01*
X7296372Y-4368460D02*
X7305896Y-4358936D01*
X7305896Y-4358936D02*
X7324944Y-4330365D01*
X7324944Y-4330365D02*
X7334467Y-4292270D01*
X7334467Y-4292270D02*
X7334467Y-4216079D01*
X7334467Y-4216079D02*
X7324944Y-4197031D01*
X7324944Y-4197031D02*
X7315420Y-4187508D01*
X7315420Y-4187508D02*
X7296372Y-4177984D01*
X7296372Y-4177984D02*
X7258277Y-4177984D01*
X7258277Y-4177984D02*
X7239229Y-4187508D01*
X7239229Y-4187508D02*
X7229706Y-4197031D01*
X7229706Y-4197031D02*
X7220182Y-4216079D01*
X7220182Y-4216079D02*
X7220182Y-4263698D01*
X7220182Y-4263698D02*
X7229706Y-4282746D01*
X7229706Y-4282746D02*
X7239229Y-4292270D01*
X7239229Y-4292270D02*
X7258277Y-4301793D01*
X7258277Y-4301793D02*
X7296372Y-4301793D01*
X7296372Y-4301793D02*
X7315420Y-4292270D01*
X7315420Y-4292270D02*
X7324944Y-4282746D01*
X7324944Y-4282746D02*
X7334467Y-4263698D01*
X7401134Y-4177984D02*
X7534467Y-4177984D01*
X7534467Y-4177984D02*
X7448753Y-4377984D01*
X7601134Y-4177984D02*
X7601134Y-4216079D01*
X7677325Y-4177984D02*
X7677325Y-4216079D01*
X7972563Y-4454174D02*
X7963039Y-4444650D01*
X7963039Y-4444650D02*
X7943991Y-4416079D01*
X7943991Y-4416079D02*
X7934468Y-4397031D01*
X7934468Y-4397031D02*
X7924944Y-4368460D01*
X7924944Y-4368460D02*
X7915420Y-4320841D01*
X7915420Y-4320841D02*
X7915420Y-4282746D01*
X7915420Y-4282746D02*
X7924944Y-4235127D01*
X7924944Y-4235127D02*
X7934468Y-4206555D01*
X7934468Y-4206555D02*
X7943991Y-4187508D01*
X7943991Y-4187508D02*
X7963039Y-4158936D01*
X7963039Y-4158936D02*
X7972563Y-4149412D01*
X8153515Y-4377984D02*
X8039229Y-4377984D01*
X8096372Y-4377984D02*
X8096372Y-4177984D01*
X8096372Y-4177984D02*
X8077325Y-4206555D01*
X8077325Y-4206555D02*
X8058277Y-4225603D01*
X8058277Y-4225603D02*
X8039229Y-4235127D01*
X8277325Y-4177984D02*
X8296372Y-4177984D01*
X8296372Y-4177984D02*
X8315420Y-4187508D01*
X8315420Y-4187508D02*
X8324944Y-4197031D01*
X8324944Y-4197031D02*
X8334468Y-4216079D01*
X8334468Y-4216079D02*
X8343991Y-4254174D01*
X8343991Y-4254174D02*
X8343991Y-4301793D01*
X8343991Y-4301793D02*
X8334468Y-4339889D01*
X8334468Y-4339889D02*
X8324944Y-4358936D01*
X8324944Y-4358936D02*
X8315420Y-4368460D01*
X8315420Y-4368460D02*
X8296372Y-4377984D01*
X8296372Y-4377984D02*
X8277325Y-4377984D01*
X8277325Y-4377984D02*
X8258277Y-4368460D01*
X8258277Y-4368460D02*
X8248753Y-4358936D01*
X8248753Y-4358936D02*
X8239229Y-4339889D01*
X8239229Y-4339889D02*
X8229706Y-4301793D01*
X8229706Y-4301793D02*
X8229706Y-4254174D01*
X8229706Y-4254174D02*
X8239229Y-4216079D01*
X8239229Y-4216079D02*
X8248753Y-4197031D01*
X8248753Y-4197031D02*
X8258277Y-4187508D01*
X8258277Y-4187508D02*
X8277325Y-4177984D01*
X8582087Y-4377984D02*
X8582087Y-4177984D01*
X8667801Y-4377984D02*
X8667801Y-4273222D01*
X8667801Y-4273222D02*
X8658277Y-4254174D01*
X8658277Y-4254174D02*
X8639230Y-4244650D01*
X8639230Y-4244650D02*
X8610658Y-4244650D01*
X8610658Y-4244650D02*
X8591611Y-4254174D01*
X8591611Y-4254174D02*
X8582087Y-4263698D01*
X8791611Y-4377984D02*
X8772563Y-4368460D01*
X8772563Y-4368460D02*
X8763039Y-4358936D01*
X8763039Y-4358936D02*
X8753515Y-4339889D01*
X8753515Y-4339889D02*
X8753515Y-4282746D01*
X8753515Y-4282746D02*
X8763039Y-4263698D01*
X8763039Y-4263698D02*
X8772563Y-4254174D01*
X8772563Y-4254174D02*
X8791611Y-4244650D01*
X8791611Y-4244650D02*
X8820182Y-4244650D01*
X8820182Y-4244650D02*
X8839230Y-4254174D01*
X8839230Y-4254174D02*
X8848753Y-4263698D01*
X8848753Y-4263698D02*
X8858277Y-4282746D01*
X8858277Y-4282746D02*
X8858277Y-4339889D01*
X8858277Y-4339889D02*
X8848753Y-4358936D01*
X8848753Y-4358936D02*
X8839230Y-4368460D01*
X8839230Y-4368460D02*
X8820182Y-4377984D01*
X8820182Y-4377984D02*
X8791611Y-4377984D01*
X8972563Y-4377984D02*
X8953515Y-4368460D01*
X8953515Y-4368460D02*
X8943992Y-4349412D01*
X8943992Y-4349412D02*
X8943992Y-4177984D01*
X9124944Y-4368460D02*
X9105896Y-4377984D01*
X9105896Y-4377984D02*
X9067801Y-4377984D01*
X9067801Y-4377984D02*
X9048753Y-4368460D01*
X9048753Y-4368460D02*
X9039230Y-4349412D01*
X9039230Y-4349412D02*
X9039230Y-4273222D01*
X9039230Y-4273222D02*
X9048753Y-4254174D01*
X9048753Y-4254174D02*
X9067801Y-4244650D01*
X9067801Y-4244650D02*
X9105896Y-4244650D01*
X9105896Y-4244650D02*
X9124944Y-4254174D01*
X9124944Y-4254174D02*
X9134468Y-4273222D01*
X9134468Y-4273222D02*
X9134468Y-4292270D01*
X9134468Y-4292270D02*
X9039230Y-4311317D01*
X9210658Y-4368460D02*
X9229706Y-4377984D01*
X9229706Y-4377984D02*
X9267801Y-4377984D01*
X9267801Y-4377984D02*
X9286849Y-4368460D01*
X9286849Y-4368460D02*
X9296373Y-4349412D01*
X9296373Y-4349412D02*
X9296373Y-4339889D01*
X9296373Y-4339889D02*
X9286849Y-4320841D01*
X9286849Y-4320841D02*
X9267801Y-4311317D01*
X9267801Y-4311317D02*
X9239230Y-4311317D01*
X9239230Y-4311317D02*
X9220182Y-4301793D01*
X9220182Y-4301793D02*
X9210658Y-4282746D01*
X9210658Y-4282746D02*
X9210658Y-4273222D01*
X9210658Y-4273222D02*
X9220182Y-4254174D01*
X9220182Y-4254174D02*
X9239230Y-4244650D01*
X9239230Y-4244650D02*
X9267801Y-4244650D01*
X9267801Y-4244650D02*
X9286849Y-4254174D01*
X9363039Y-4454174D02*
X9372563Y-4444650D01*
X9372563Y-4444650D02*
X9391611Y-4416079D01*
X9391611Y-4416079D02*
X9401134Y-4397031D01*
X9401134Y-4397031D02*
X9410658Y-4368460D01*
X9410658Y-4368460D02*
X9420182Y-4320841D01*
X9420182Y-4320841D02*
X9420182Y-4282746D01*
X9420182Y-4282746D02*
X9410658Y-4235127D01*
X9410658Y-4235127D02*
X9401134Y-4206555D01*
X9401134Y-4206555D02*
X9391611Y-4187508D01*
X9391611Y-4187508D02*
X9372563Y-4158936D01*
X9372563Y-4158936D02*
X9363039Y-4149412D01*
D15*
X4388713Y-4571713D02*
X4388713Y-4529287D01*
X4346287Y-4529287D01*
X4346287Y-4571713D01*
X4388713Y-4571713D01*
D11*
X4696372Y-4441984D02*
X4715420Y-4441984D01*
X4715420Y-4441984D02*
X4734467Y-4451508D01*
X4734467Y-4451508D02*
X4743991Y-4461031D01*
X4743991Y-4461031D02*
X4753515Y-4480079D01*
X4753515Y-4480079D02*
X4763039Y-4518174D01*
X4763039Y-4518174D02*
X4763039Y-4565793D01*
X4763039Y-4565793D02*
X4753515Y-4603889D01*
X4753515Y-4603889D02*
X4743991Y-4622936D01*
X4743991Y-4622936D02*
X4734467Y-4632460D01*
X4734467Y-4632460D02*
X4715420Y-4641984D01*
X4715420Y-4641984D02*
X4696372Y-4641984D01*
X4696372Y-4641984D02*
X4677324Y-4632460D01*
X4677324Y-4632460D02*
X4667801Y-4622936D01*
X4667801Y-4622936D02*
X4658277Y-4603889D01*
X4658277Y-4603889D02*
X4648753Y-4565793D01*
X4648753Y-4565793D02*
X4648753Y-4518174D01*
X4648753Y-4518174D02*
X4658277Y-4480079D01*
X4658277Y-4480079D02*
X4667801Y-4461031D01*
X4667801Y-4461031D02*
X4677324Y-4451508D01*
X4677324Y-4451508D02*
X4696372Y-4441984D01*
X4848753Y-4622936D02*
X4858277Y-4632460D01*
X4858277Y-4632460D02*
X4848753Y-4641984D01*
X4848753Y-4641984D02*
X4839229Y-4632460D01*
X4839229Y-4632460D02*
X4848753Y-4622936D01*
X4848753Y-4622936D02*
X4848753Y-4641984D01*
X5029705Y-4441984D02*
X4991610Y-4441984D01*
X4991610Y-4441984D02*
X4972563Y-4451508D01*
X4972563Y-4451508D02*
X4963039Y-4461031D01*
X4963039Y-4461031D02*
X4943991Y-4489603D01*
X4943991Y-4489603D02*
X4934467Y-4527698D01*
X4934467Y-4527698D02*
X4934467Y-4603889D01*
X4934467Y-4603889D02*
X4943991Y-4622936D01*
X4943991Y-4622936D02*
X4953515Y-4632460D01*
X4953515Y-4632460D02*
X4972563Y-4641984D01*
X4972563Y-4641984D02*
X5010658Y-4641984D01*
X5010658Y-4641984D02*
X5029705Y-4632460D01*
X5029705Y-4632460D02*
X5039229Y-4622936D01*
X5039229Y-4622936D02*
X5048753Y-4603889D01*
X5048753Y-4603889D02*
X5048753Y-4556270D01*
X5048753Y-4556270D02*
X5039229Y-4537222D01*
X5039229Y-4537222D02*
X5029705Y-4527698D01*
X5029705Y-4527698D02*
X5010658Y-4518174D01*
X5010658Y-4518174D02*
X4972563Y-4518174D01*
X4972563Y-4518174D02*
X4953515Y-4527698D01*
X4953515Y-4527698D02*
X4943991Y-4537222D01*
X4943991Y-4537222D02*
X4934467Y-4556270D01*
X5172563Y-4441984D02*
X5191610Y-4441984D01*
X5191610Y-4441984D02*
X5210658Y-4451508D01*
X5210658Y-4451508D02*
X5220182Y-4461031D01*
X5220182Y-4461031D02*
X5229705Y-4480079D01*
X5229705Y-4480079D02*
X5239229Y-4518174D01*
X5239229Y-4518174D02*
X5239229Y-4565793D01*
X5239229Y-4565793D02*
X5229705Y-4603889D01*
X5229705Y-4603889D02*
X5220182Y-4622936D01*
X5220182Y-4622936D02*
X5210658Y-4632460D01*
X5210658Y-4632460D02*
X5191610Y-4641984D01*
X5191610Y-4641984D02*
X5172563Y-4641984D01*
X5172563Y-4641984D02*
X5153515Y-4632460D01*
X5153515Y-4632460D02*
X5143991Y-4622936D01*
X5143991Y-4622936D02*
X5134467Y-4603889D01*
X5134467Y-4603889D02*
X5124944Y-4565793D01*
X5124944Y-4565793D02*
X5124944Y-4518174D01*
X5124944Y-4518174D02*
X5134467Y-4480079D01*
X5134467Y-4480079D02*
X5143991Y-4461031D01*
X5143991Y-4461031D02*
X5153515Y-4451508D01*
X5153515Y-4451508D02*
X5172563Y-4441984D01*
X5363039Y-4441984D02*
X5382086Y-4441984D01*
X5382086Y-4441984D02*
X5401134Y-4451508D01*
X5401134Y-4451508D02*
X5410658Y-4461031D01*
X5410658Y-4461031D02*
X5420182Y-4480079D01*
X5420182Y-4480079D02*
X5429705Y-4518174D01*
X5429705Y-4518174D02*
X5429705Y-4565793D01*
X5429705Y-4565793D02*
X5420182Y-4603889D01*
X5420182Y-4603889D02*
X5410658Y-4622936D01*
X5410658Y-4622936D02*
X5401134Y-4632460D01*
X5401134Y-4632460D02*
X5382086Y-4641984D01*
X5382086Y-4641984D02*
X5363039Y-4641984D01*
X5363039Y-4641984D02*
X5343991Y-4632460D01*
X5343991Y-4632460D02*
X5334467Y-4622936D01*
X5334467Y-4622936D02*
X5324944Y-4603889D01*
X5324944Y-4603889D02*
X5315420Y-4565793D01*
X5315420Y-4565793D02*
X5315420Y-4518174D01*
X5315420Y-4518174D02*
X5324944Y-4480079D01*
X5324944Y-4480079D02*
X5334467Y-4461031D01*
X5334467Y-4461031D02*
X5343991Y-4451508D01*
X5343991Y-4451508D02*
X5363039Y-4441984D01*
X5515420Y-4641984D02*
X5515420Y-4508650D01*
X5515420Y-4527698D02*
X5524944Y-4518174D01*
X5524944Y-4518174D02*
X5543991Y-4508650D01*
X5543991Y-4508650D02*
X5572563Y-4508650D01*
X5572563Y-4508650D02*
X5591610Y-4518174D01*
X5591610Y-4518174D02*
X5601134Y-4537222D01*
X5601134Y-4537222D02*
X5601134Y-4641984D01*
X5601134Y-4537222D02*
X5610658Y-4518174D01*
X5610658Y-4518174D02*
X5629705Y-4508650D01*
X5629705Y-4508650D02*
X5658277Y-4508650D01*
X5658277Y-4508650D02*
X5677324Y-4518174D01*
X5677324Y-4518174D02*
X5686848Y-4537222D01*
X5686848Y-4537222D02*
X5686848Y-4641984D01*
X5782086Y-4641984D02*
X5782086Y-4508650D01*
X5782086Y-4527698D02*
X5791610Y-4518174D01*
X5791610Y-4518174D02*
X5810658Y-4508650D01*
X5810658Y-4508650D02*
X5839229Y-4508650D01*
X5839229Y-4508650D02*
X5858277Y-4518174D01*
X5858277Y-4518174D02*
X5867801Y-4537222D01*
X5867801Y-4537222D02*
X5867801Y-4641984D01*
X5867801Y-4537222D02*
X5877324Y-4518174D01*
X5877324Y-4518174D02*
X5896372Y-4508650D01*
X5896372Y-4508650D02*
X5924943Y-4508650D01*
X5924943Y-4508650D02*
X5943991Y-4518174D01*
X5943991Y-4518174D02*
X5953515Y-4537222D01*
X5953515Y-4537222D02*
X5953515Y-4641984D01*
X6343991Y-4432460D02*
X6172563Y-4689603D01*
X6601134Y-4441984D02*
X6620182Y-4441984D01*
X6620182Y-4441984D02*
X6639229Y-4451508D01*
X6639229Y-4451508D02*
X6648753Y-4461031D01*
X6648753Y-4461031D02*
X6658277Y-4480079D01*
X6658277Y-4480079D02*
X6667801Y-4518174D01*
X6667801Y-4518174D02*
X6667801Y-4565793D01*
X6667801Y-4565793D02*
X6658277Y-4603889D01*
X6658277Y-4603889D02*
X6648753Y-4622936D01*
X6648753Y-4622936D02*
X6639229Y-4632460D01*
X6639229Y-4632460D02*
X6620182Y-4641984D01*
X6620182Y-4641984D02*
X6601134Y-4641984D01*
X6601134Y-4641984D02*
X6582086Y-4632460D01*
X6582086Y-4632460D02*
X6572563Y-4622936D01*
X6572563Y-4622936D02*
X6563039Y-4603889D01*
X6563039Y-4603889D02*
X6553515Y-4565793D01*
X6553515Y-4565793D02*
X6553515Y-4518174D01*
X6553515Y-4518174D02*
X6563039Y-4480079D01*
X6563039Y-4480079D02*
X6572563Y-4461031D01*
X6572563Y-4461031D02*
X6582086Y-4451508D01*
X6582086Y-4451508D02*
X6601134Y-4441984D01*
X6753515Y-4622936D02*
X6763039Y-4632460D01*
X6763039Y-4632460D02*
X6753515Y-4641984D01*
X6753515Y-4641984D02*
X6743991Y-4632460D01*
X6743991Y-4632460D02*
X6753515Y-4622936D01*
X6753515Y-4622936D02*
X6753515Y-4641984D01*
X6886848Y-4441984D02*
X6905896Y-4441984D01*
X6905896Y-4441984D02*
X6924944Y-4451508D01*
X6924944Y-4451508D02*
X6934467Y-4461031D01*
X6934467Y-4461031D02*
X6943991Y-4480079D01*
X6943991Y-4480079D02*
X6953515Y-4518174D01*
X6953515Y-4518174D02*
X6953515Y-4565793D01*
X6953515Y-4565793D02*
X6943991Y-4603889D01*
X6943991Y-4603889D02*
X6934467Y-4622936D01*
X6934467Y-4622936D02*
X6924944Y-4632460D01*
X6924944Y-4632460D02*
X6905896Y-4641984D01*
X6905896Y-4641984D02*
X6886848Y-4641984D01*
X6886848Y-4641984D02*
X6867801Y-4632460D01*
X6867801Y-4632460D02*
X6858277Y-4622936D01*
X6858277Y-4622936D02*
X6848753Y-4603889D01*
X6848753Y-4603889D02*
X6839229Y-4565793D01*
X6839229Y-4565793D02*
X6839229Y-4518174D01*
X6839229Y-4518174D02*
X6848753Y-4480079D01*
X6848753Y-4480079D02*
X6858277Y-4461031D01*
X6858277Y-4461031D02*
X6867801Y-4451508D01*
X6867801Y-4451508D02*
X6886848Y-4441984D01*
X7029706Y-4461031D02*
X7039229Y-4451508D01*
X7039229Y-4451508D02*
X7058277Y-4441984D01*
X7058277Y-4441984D02*
X7105896Y-4441984D01*
X7105896Y-4441984D02*
X7124944Y-4451508D01*
X7124944Y-4451508D02*
X7134467Y-4461031D01*
X7134467Y-4461031D02*
X7143991Y-4480079D01*
X7143991Y-4480079D02*
X7143991Y-4499127D01*
X7143991Y-4499127D02*
X7134467Y-4527698D01*
X7134467Y-4527698D02*
X7020182Y-4641984D01*
X7020182Y-4641984D02*
X7143991Y-4641984D01*
X7210658Y-4441984D02*
X7334467Y-4441984D01*
X7334467Y-4441984D02*
X7267801Y-4518174D01*
X7267801Y-4518174D02*
X7296372Y-4518174D01*
X7296372Y-4518174D02*
X7315420Y-4527698D01*
X7315420Y-4527698D02*
X7324944Y-4537222D01*
X7324944Y-4537222D02*
X7334467Y-4556270D01*
X7334467Y-4556270D02*
X7334467Y-4603889D01*
X7334467Y-4603889D02*
X7324944Y-4622936D01*
X7324944Y-4622936D02*
X7315420Y-4632460D01*
X7315420Y-4632460D02*
X7296372Y-4641984D01*
X7296372Y-4641984D02*
X7239229Y-4641984D01*
X7239229Y-4641984D02*
X7220182Y-4632460D01*
X7220182Y-4632460D02*
X7210658Y-4622936D01*
X7505896Y-4441984D02*
X7467801Y-4441984D01*
X7467801Y-4441984D02*
X7448753Y-4451508D01*
X7448753Y-4451508D02*
X7439229Y-4461031D01*
X7439229Y-4461031D02*
X7420182Y-4489603D01*
X7420182Y-4489603D02*
X7410658Y-4527698D01*
X7410658Y-4527698D02*
X7410658Y-4603889D01*
X7410658Y-4603889D02*
X7420182Y-4622936D01*
X7420182Y-4622936D02*
X7429706Y-4632460D01*
X7429706Y-4632460D02*
X7448753Y-4641984D01*
X7448753Y-4641984D02*
X7486848Y-4641984D01*
X7486848Y-4641984D02*
X7505896Y-4632460D01*
X7505896Y-4632460D02*
X7515420Y-4622936D01*
X7515420Y-4622936D02*
X7524944Y-4603889D01*
X7524944Y-4603889D02*
X7524944Y-4556270D01*
X7524944Y-4556270D02*
X7515420Y-4537222D01*
X7515420Y-4537222D02*
X7505896Y-4527698D01*
X7505896Y-4527698D02*
X7486848Y-4518174D01*
X7486848Y-4518174D02*
X7448753Y-4518174D01*
X7448753Y-4518174D02*
X7429706Y-4527698D01*
X7429706Y-4527698D02*
X7420182Y-4537222D01*
X7420182Y-4537222D02*
X7410658Y-4556270D01*
X7601134Y-4441984D02*
X7601134Y-4480079D01*
X7677325Y-4441984D02*
X7677325Y-4480079D01*
X7972563Y-4718174D02*
X7963039Y-4708650D01*
X7963039Y-4708650D02*
X7943991Y-4680079D01*
X7943991Y-4680079D02*
X7934468Y-4661031D01*
X7934468Y-4661031D02*
X7924944Y-4632460D01*
X7924944Y-4632460D02*
X7915420Y-4584841D01*
X7915420Y-4584841D02*
X7915420Y-4546746D01*
X7915420Y-4546746D02*
X7924944Y-4499127D01*
X7924944Y-4499127D02*
X7934468Y-4470555D01*
X7934468Y-4470555D02*
X7943991Y-4451508D01*
X7943991Y-4451508D02*
X7963039Y-4422936D01*
X7963039Y-4422936D02*
X7972563Y-4413412D01*
X8086848Y-4441984D02*
X8105896Y-4441984D01*
X8105896Y-4441984D02*
X8124944Y-4451508D01*
X8124944Y-4451508D02*
X8134468Y-4461031D01*
X8134468Y-4461031D02*
X8143991Y-4480079D01*
X8143991Y-4480079D02*
X8153515Y-4518174D01*
X8153515Y-4518174D02*
X8153515Y-4565793D01*
X8153515Y-4565793D02*
X8143991Y-4603889D01*
X8143991Y-4603889D02*
X8134468Y-4622936D01*
X8134468Y-4622936D02*
X8124944Y-4632460D01*
X8124944Y-4632460D02*
X8105896Y-4641984D01*
X8105896Y-4641984D02*
X8086848Y-4641984D01*
X8086848Y-4641984D02*
X8067801Y-4632460D01*
X8067801Y-4632460D02*
X8058277Y-4622936D01*
X8058277Y-4622936D02*
X8048753Y-4603889D01*
X8048753Y-4603889D02*
X8039229Y-4565793D01*
X8039229Y-4565793D02*
X8039229Y-4518174D01*
X8039229Y-4518174D02*
X8048753Y-4480079D01*
X8048753Y-4480079D02*
X8058277Y-4461031D01*
X8058277Y-4461031D02*
X8067801Y-4451508D01*
X8067801Y-4451508D02*
X8086848Y-4441984D01*
X8391611Y-4641984D02*
X8391611Y-4441984D01*
X8477325Y-4641984D02*
X8477325Y-4537222D01*
X8477325Y-4537222D02*
X8467801Y-4518174D01*
X8467801Y-4518174D02*
X8448753Y-4508650D01*
X8448753Y-4508650D02*
X8420182Y-4508650D01*
X8420182Y-4508650D02*
X8401134Y-4518174D01*
X8401134Y-4518174D02*
X8391611Y-4527698D01*
X8601134Y-4641984D02*
X8582087Y-4632460D01*
X8582087Y-4632460D02*
X8572563Y-4622936D01*
X8572563Y-4622936D02*
X8563039Y-4603889D01*
X8563039Y-4603889D02*
X8563039Y-4546746D01*
X8563039Y-4546746D02*
X8572563Y-4527698D01*
X8572563Y-4527698D02*
X8582087Y-4518174D01*
X8582087Y-4518174D02*
X8601134Y-4508650D01*
X8601134Y-4508650D02*
X8629706Y-4508650D01*
X8629706Y-4508650D02*
X8648753Y-4518174D01*
X8648753Y-4518174D02*
X8658277Y-4527698D01*
X8658277Y-4527698D02*
X8667801Y-4546746D01*
X8667801Y-4546746D02*
X8667801Y-4603889D01*
X8667801Y-4603889D02*
X8658277Y-4622936D01*
X8658277Y-4622936D02*
X8648753Y-4632460D01*
X8648753Y-4632460D02*
X8629706Y-4641984D01*
X8629706Y-4641984D02*
X8601134Y-4641984D01*
X8782087Y-4641984D02*
X8763039Y-4632460D01*
X8763039Y-4632460D02*
X8753515Y-4613412D01*
X8753515Y-4613412D02*
X8753515Y-4441984D01*
X8934468Y-4632460D02*
X8915420Y-4641984D01*
X8915420Y-4641984D02*
X8877325Y-4641984D01*
X8877325Y-4641984D02*
X8858277Y-4632460D01*
X8858277Y-4632460D02*
X8848753Y-4613412D01*
X8848753Y-4613412D02*
X8848753Y-4537222D01*
X8848753Y-4537222D02*
X8858277Y-4518174D01*
X8858277Y-4518174D02*
X8877325Y-4508650D01*
X8877325Y-4508650D02*
X8915420Y-4508650D01*
X8915420Y-4508650D02*
X8934468Y-4518174D01*
X8934468Y-4518174D02*
X8943992Y-4537222D01*
X8943992Y-4537222D02*
X8943992Y-4556270D01*
X8943992Y-4556270D02*
X8848753Y-4575317D01*
X9020182Y-4632460D02*
X9039230Y-4641984D01*
X9039230Y-4641984D02*
X9077325Y-4641984D01*
X9077325Y-4641984D02*
X9096373Y-4632460D01*
X9096373Y-4632460D02*
X9105896Y-4613412D01*
X9105896Y-4613412D02*
X9105896Y-4603889D01*
X9105896Y-4603889D02*
X9096373Y-4584841D01*
X9096373Y-4584841D02*
X9077325Y-4575317D01*
X9077325Y-4575317D02*
X9048753Y-4575317D01*
X9048753Y-4575317D02*
X9029706Y-4565793D01*
X9029706Y-4565793D02*
X9020182Y-4546746D01*
X9020182Y-4546746D02*
X9020182Y-4537222D01*
X9020182Y-4537222D02*
X9029706Y-4518174D01*
X9029706Y-4518174D02*
X9048753Y-4508650D01*
X9048753Y-4508650D02*
X9077325Y-4508650D01*
X9077325Y-4508650D02*
X9096373Y-4518174D01*
X9343992Y-4565793D02*
X9496373Y-4565793D01*
X9420182Y-4641984D02*
X9420182Y-4489603D01*
X9829706Y-4508650D02*
X9829706Y-4641984D01*
X9782087Y-4432460D02*
X9734468Y-4575317D01*
X9734468Y-4575317D02*
X9858277Y-4575317D01*
X10077325Y-4632460D02*
X10096373Y-4641984D01*
X10096373Y-4641984D02*
X10134468Y-4641984D01*
X10134468Y-4641984D02*
X10153516Y-4632460D01*
X10153516Y-4632460D02*
X10163039Y-4613412D01*
X10163039Y-4613412D02*
X10163039Y-4603889D01*
X10163039Y-4603889D02*
X10153516Y-4584841D01*
X10153516Y-4584841D02*
X10134468Y-4575317D01*
X10134468Y-4575317D02*
X10105896Y-4575317D01*
X10105896Y-4575317D02*
X10086849Y-4565793D01*
X10086849Y-4565793D02*
X10077325Y-4546746D01*
X10077325Y-4546746D02*
X10077325Y-4537222D01*
X10077325Y-4537222D02*
X10086849Y-4518174D01*
X10086849Y-4518174D02*
X10105896Y-4508650D01*
X10105896Y-4508650D02*
X10134468Y-4508650D01*
X10134468Y-4508650D02*
X10153516Y-4518174D01*
X10277325Y-4641984D02*
X10258277Y-4632460D01*
X10258277Y-4632460D02*
X10248754Y-4613412D01*
X10248754Y-4613412D02*
X10248754Y-4441984D01*
X10382087Y-4641984D02*
X10363039Y-4632460D01*
X10363039Y-4632460D02*
X10353516Y-4622936D01*
X10353516Y-4622936D02*
X10343992Y-4603889D01*
X10343992Y-4603889D02*
X10343992Y-4546746D01*
X10343992Y-4546746D02*
X10353516Y-4527698D01*
X10353516Y-4527698D02*
X10363039Y-4518174D01*
X10363039Y-4518174D02*
X10382087Y-4508650D01*
X10382087Y-4508650D02*
X10410658Y-4508650D01*
X10410658Y-4508650D02*
X10429706Y-4518174D01*
X10429706Y-4518174D02*
X10439230Y-4527698D01*
X10439230Y-4527698D02*
X10448754Y-4546746D01*
X10448754Y-4546746D02*
X10448754Y-4603889D01*
X10448754Y-4603889D02*
X10439230Y-4622936D01*
X10439230Y-4622936D02*
X10429706Y-4632460D01*
X10429706Y-4632460D02*
X10410658Y-4641984D01*
X10410658Y-4641984D02*
X10382087Y-4641984D01*
X10505897Y-4508650D02*
X10582087Y-4508650D01*
X10534468Y-4441984D02*
X10534468Y-4613412D01*
X10534468Y-4613412D02*
X10543992Y-4632460D01*
X10543992Y-4632460D02*
X10563039Y-4641984D01*
X10563039Y-4641984D02*
X10582087Y-4641984D01*
X10639230Y-4632460D02*
X10658277Y-4641984D01*
X10658277Y-4641984D02*
X10696373Y-4641984D01*
X10696373Y-4641984D02*
X10715420Y-4632460D01*
X10715420Y-4632460D02*
X10724944Y-4613412D01*
X10724944Y-4613412D02*
X10724944Y-4603889D01*
X10724944Y-4603889D02*
X10715420Y-4584841D01*
X10715420Y-4584841D02*
X10696373Y-4575317D01*
X10696373Y-4575317D02*
X10667801Y-4575317D01*
X10667801Y-4575317D02*
X10648754Y-4565793D01*
X10648754Y-4565793D02*
X10639230Y-4546746D01*
X10639230Y-4546746D02*
X10639230Y-4537222D01*
X10639230Y-4537222D02*
X10648754Y-4518174D01*
X10648754Y-4518174D02*
X10667801Y-4508650D01*
X10667801Y-4508650D02*
X10696373Y-4508650D01*
X10696373Y-4508650D02*
X10715420Y-4518174D01*
X10791611Y-4718174D02*
X10801135Y-4708650D01*
X10801135Y-4708650D02*
X10820182Y-4680079D01*
X10820182Y-4680079D02*
X10829706Y-4661031D01*
X10829706Y-4661031D02*
X10839230Y-4632460D01*
X10839230Y-4632460D02*
X10848754Y-4584841D01*
X10848754Y-4584841D02*
X10848754Y-4546746D01*
X10848754Y-4546746D02*
X10839230Y-4499127D01*
X10839230Y-4499127D02*
X10829706Y-4470555D01*
X10829706Y-4470555D02*
X10820182Y-4451508D01*
X10820182Y-4451508D02*
X10801135Y-4422936D01*
X10801135Y-4422936D02*
X10791611Y-4413412D01*
D16*
X4357500Y-4854500D02*
X4397500Y-4814500D01*
X4357500Y-4774500D01*
X4317500Y-4814500D01*
X4357500Y-4854500D01*
D11*
X4696372Y-4705984D02*
X4715420Y-4705984D01*
X4715420Y-4705984D02*
X4734467Y-4715508D01*
X4734467Y-4715508D02*
X4743991Y-4725031D01*
X4743991Y-4725031D02*
X4753515Y-4744079D01*
X4753515Y-4744079D02*
X4763039Y-4782174D01*
X4763039Y-4782174D02*
X4763039Y-4829793D01*
X4763039Y-4829793D02*
X4753515Y-4867889D01*
X4753515Y-4867889D02*
X4743991Y-4886936D01*
X4743991Y-4886936D02*
X4734467Y-4896460D01*
X4734467Y-4896460D02*
X4715420Y-4905984D01*
X4715420Y-4905984D02*
X4696372Y-4905984D01*
X4696372Y-4905984D02*
X4677324Y-4896460D01*
X4677324Y-4896460D02*
X4667801Y-4886936D01*
X4667801Y-4886936D02*
X4658277Y-4867889D01*
X4658277Y-4867889D02*
X4648753Y-4829793D01*
X4648753Y-4829793D02*
X4648753Y-4782174D01*
X4648753Y-4782174D02*
X4658277Y-4744079D01*
X4658277Y-4744079D02*
X4667801Y-4725031D01*
X4667801Y-4725031D02*
X4677324Y-4715508D01*
X4677324Y-4715508D02*
X4696372Y-4705984D01*
X4848753Y-4886936D02*
X4858277Y-4896460D01*
X4858277Y-4896460D02*
X4848753Y-4905984D01*
X4848753Y-4905984D02*
X4839229Y-4896460D01*
X4839229Y-4896460D02*
X4848753Y-4886936D01*
X4848753Y-4886936D02*
X4848753Y-4905984D01*
X4972563Y-4791698D02*
X4953515Y-4782174D01*
X4953515Y-4782174D02*
X4943991Y-4772650D01*
X4943991Y-4772650D02*
X4934467Y-4753603D01*
X4934467Y-4753603D02*
X4934467Y-4744079D01*
X4934467Y-4744079D02*
X4943991Y-4725031D01*
X4943991Y-4725031D02*
X4953515Y-4715508D01*
X4953515Y-4715508D02*
X4972563Y-4705984D01*
X4972563Y-4705984D02*
X5010658Y-4705984D01*
X5010658Y-4705984D02*
X5029705Y-4715508D01*
X5029705Y-4715508D02*
X5039229Y-4725031D01*
X5039229Y-4725031D02*
X5048753Y-4744079D01*
X5048753Y-4744079D02*
X5048753Y-4753603D01*
X5048753Y-4753603D02*
X5039229Y-4772650D01*
X5039229Y-4772650D02*
X5029705Y-4782174D01*
X5029705Y-4782174D02*
X5010658Y-4791698D01*
X5010658Y-4791698D02*
X4972563Y-4791698D01*
X4972563Y-4791698D02*
X4953515Y-4801222D01*
X4953515Y-4801222D02*
X4943991Y-4810746D01*
X4943991Y-4810746D02*
X4934467Y-4829793D01*
X4934467Y-4829793D02*
X4934467Y-4867889D01*
X4934467Y-4867889D02*
X4943991Y-4886936D01*
X4943991Y-4886936D02*
X4953515Y-4896460D01*
X4953515Y-4896460D02*
X4972563Y-4905984D01*
X4972563Y-4905984D02*
X5010658Y-4905984D01*
X5010658Y-4905984D02*
X5029705Y-4896460D01*
X5029705Y-4896460D02*
X5039229Y-4886936D01*
X5039229Y-4886936D02*
X5048753Y-4867889D01*
X5048753Y-4867889D02*
X5048753Y-4829793D01*
X5048753Y-4829793D02*
X5039229Y-4810746D01*
X5039229Y-4810746D02*
X5029705Y-4801222D01*
X5029705Y-4801222D02*
X5010658Y-4791698D01*
X5172563Y-4705984D02*
X5191610Y-4705984D01*
X5191610Y-4705984D02*
X5210658Y-4715508D01*
X5210658Y-4715508D02*
X5220182Y-4725031D01*
X5220182Y-4725031D02*
X5229705Y-4744079D01*
X5229705Y-4744079D02*
X5239229Y-4782174D01*
X5239229Y-4782174D02*
X5239229Y-4829793D01*
X5239229Y-4829793D02*
X5229705Y-4867889D01*
X5229705Y-4867889D02*
X5220182Y-4886936D01*
X5220182Y-4886936D02*
X5210658Y-4896460D01*
X5210658Y-4896460D02*
X5191610Y-4905984D01*
X5191610Y-4905984D02*
X5172563Y-4905984D01*
X5172563Y-4905984D02*
X5153515Y-4896460D01*
X5153515Y-4896460D02*
X5143991Y-4886936D01*
X5143991Y-4886936D02*
X5134467Y-4867889D01*
X5134467Y-4867889D02*
X5124944Y-4829793D01*
X5124944Y-4829793D02*
X5124944Y-4782174D01*
X5124944Y-4782174D02*
X5134467Y-4744079D01*
X5134467Y-4744079D02*
X5143991Y-4725031D01*
X5143991Y-4725031D02*
X5153515Y-4715508D01*
X5153515Y-4715508D02*
X5172563Y-4705984D01*
X5363039Y-4705984D02*
X5382086Y-4705984D01*
X5382086Y-4705984D02*
X5401134Y-4715508D01*
X5401134Y-4715508D02*
X5410658Y-4725031D01*
X5410658Y-4725031D02*
X5420182Y-4744079D01*
X5420182Y-4744079D02*
X5429705Y-4782174D01*
X5429705Y-4782174D02*
X5429705Y-4829793D01*
X5429705Y-4829793D02*
X5420182Y-4867889D01*
X5420182Y-4867889D02*
X5410658Y-4886936D01*
X5410658Y-4886936D02*
X5401134Y-4896460D01*
X5401134Y-4896460D02*
X5382086Y-4905984D01*
X5382086Y-4905984D02*
X5363039Y-4905984D01*
X5363039Y-4905984D02*
X5343991Y-4896460D01*
X5343991Y-4896460D02*
X5334467Y-4886936D01*
X5334467Y-4886936D02*
X5324944Y-4867889D01*
X5324944Y-4867889D02*
X5315420Y-4829793D01*
X5315420Y-4829793D02*
X5315420Y-4782174D01*
X5315420Y-4782174D02*
X5324944Y-4744079D01*
X5324944Y-4744079D02*
X5334467Y-4725031D01*
X5334467Y-4725031D02*
X5343991Y-4715508D01*
X5343991Y-4715508D02*
X5363039Y-4705984D01*
X5515420Y-4905984D02*
X5515420Y-4772650D01*
X5515420Y-4791698D02*
X5524944Y-4782174D01*
X5524944Y-4782174D02*
X5543991Y-4772650D01*
X5543991Y-4772650D02*
X5572563Y-4772650D01*
X5572563Y-4772650D02*
X5591610Y-4782174D01*
X5591610Y-4782174D02*
X5601134Y-4801222D01*
X5601134Y-4801222D02*
X5601134Y-4905984D01*
X5601134Y-4801222D02*
X5610658Y-4782174D01*
X5610658Y-4782174D02*
X5629705Y-4772650D01*
X5629705Y-4772650D02*
X5658277Y-4772650D01*
X5658277Y-4772650D02*
X5677324Y-4782174D01*
X5677324Y-4782174D02*
X5686848Y-4801222D01*
X5686848Y-4801222D02*
X5686848Y-4905984D01*
X5782086Y-4905984D02*
X5782086Y-4772650D01*
X5782086Y-4791698D02*
X5791610Y-4782174D01*
X5791610Y-4782174D02*
X5810658Y-4772650D01*
X5810658Y-4772650D02*
X5839229Y-4772650D01*
X5839229Y-4772650D02*
X5858277Y-4782174D01*
X5858277Y-4782174D02*
X5867801Y-4801222D01*
X5867801Y-4801222D02*
X5867801Y-4905984D01*
X5867801Y-4801222D02*
X5877324Y-4782174D01*
X5877324Y-4782174D02*
X5896372Y-4772650D01*
X5896372Y-4772650D02*
X5924943Y-4772650D01*
X5924943Y-4772650D02*
X5943991Y-4782174D01*
X5943991Y-4782174D02*
X5953515Y-4801222D01*
X5953515Y-4801222D02*
X5953515Y-4905984D01*
X6343991Y-4696460D02*
X6172563Y-4953603D01*
X6601134Y-4705984D02*
X6620182Y-4705984D01*
X6620182Y-4705984D02*
X6639229Y-4715508D01*
X6639229Y-4715508D02*
X6648753Y-4725031D01*
X6648753Y-4725031D02*
X6658277Y-4744079D01*
X6658277Y-4744079D02*
X6667801Y-4782174D01*
X6667801Y-4782174D02*
X6667801Y-4829793D01*
X6667801Y-4829793D02*
X6658277Y-4867889D01*
X6658277Y-4867889D02*
X6648753Y-4886936D01*
X6648753Y-4886936D02*
X6639229Y-4896460D01*
X6639229Y-4896460D02*
X6620182Y-4905984D01*
X6620182Y-4905984D02*
X6601134Y-4905984D01*
X6601134Y-4905984D02*
X6582086Y-4896460D01*
X6582086Y-4896460D02*
X6572563Y-4886936D01*
X6572563Y-4886936D02*
X6563039Y-4867889D01*
X6563039Y-4867889D02*
X6553515Y-4829793D01*
X6553515Y-4829793D02*
X6553515Y-4782174D01*
X6553515Y-4782174D02*
X6563039Y-4744079D01*
X6563039Y-4744079D02*
X6572563Y-4725031D01*
X6572563Y-4725031D02*
X6582086Y-4715508D01*
X6582086Y-4715508D02*
X6601134Y-4705984D01*
X6753515Y-4886936D02*
X6763039Y-4896460D01*
X6763039Y-4896460D02*
X6753515Y-4905984D01*
X6753515Y-4905984D02*
X6743991Y-4896460D01*
X6743991Y-4896460D02*
X6753515Y-4886936D01*
X6753515Y-4886936D02*
X6753515Y-4905984D01*
X6886848Y-4705984D02*
X6905896Y-4705984D01*
X6905896Y-4705984D02*
X6924944Y-4715508D01*
X6924944Y-4715508D02*
X6934467Y-4725031D01*
X6934467Y-4725031D02*
X6943991Y-4744079D01*
X6943991Y-4744079D02*
X6953515Y-4782174D01*
X6953515Y-4782174D02*
X6953515Y-4829793D01*
X6953515Y-4829793D02*
X6943991Y-4867889D01*
X6943991Y-4867889D02*
X6934467Y-4886936D01*
X6934467Y-4886936D02*
X6924944Y-4896460D01*
X6924944Y-4896460D02*
X6905896Y-4905984D01*
X6905896Y-4905984D02*
X6886848Y-4905984D01*
X6886848Y-4905984D02*
X6867801Y-4896460D01*
X6867801Y-4896460D02*
X6858277Y-4886936D01*
X6858277Y-4886936D02*
X6848753Y-4867889D01*
X6848753Y-4867889D02*
X6839229Y-4829793D01*
X6839229Y-4829793D02*
X6839229Y-4782174D01*
X6839229Y-4782174D02*
X6848753Y-4744079D01*
X6848753Y-4744079D02*
X6858277Y-4725031D01*
X6858277Y-4725031D02*
X6867801Y-4715508D01*
X6867801Y-4715508D02*
X6886848Y-4705984D01*
X7020182Y-4705984D02*
X7143991Y-4705984D01*
X7143991Y-4705984D02*
X7077325Y-4782174D01*
X7077325Y-4782174D02*
X7105896Y-4782174D01*
X7105896Y-4782174D02*
X7124944Y-4791698D01*
X7124944Y-4791698D02*
X7134467Y-4801222D01*
X7134467Y-4801222D02*
X7143991Y-4820270D01*
X7143991Y-4820270D02*
X7143991Y-4867889D01*
X7143991Y-4867889D02*
X7134467Y-4886936D01*
X7134467Y-4886936D02*
X7124944Y-4896460D01*
X7124944Y-4896460D02*
X7105896Y-4905984D01*
X7105896Y-4905984D02*
X7048753Y-4905984D01*
X7048753Y-4905984D02*
X7029706Y-4896460D01*
X7029706Y-4896460D02*
X7020182Y-4886936D01*
X7334467Y-4905984D02*
X7220182Y-4905984D01*
X7277325Y-4905984D02*
X7277325Y-4705984D01*
X7277325Y-4705984D02*
X7258277Y-4734555D01*
X7258277Y-4734555D02*
X7239229Y-4753603D01*
X7239229Y-4753603D02*
X7220182Y-4763127D01*
X7515420Y-4705984D02*
X7420182Y-4705984D01*
X7420182Y-4705984D02*
X7410658Y-4801222D01*
X7410658Y-4801222D02*
X7420182Y-4791698D01*
X7420182Y-4791698D02*
X7439229Y-4782174D01*
X7439229Y-4782174D02*
X7486848Y-4782174D01*
X7486848Y-4782174D02*
X7505896Y-4791698D01*
X7505896Y-4791698D02*
X7515420Y-4801222D01*
X7515420Y-4801222D02*
X7524944Y-4820270D01*
X7524944Y-4820270D02*
X7524944Y-4867889D01*
X7524944Y-4867889D02*
X7515420Y-4886936D01*
X7515420Y-4886936D02*
X7505896Y-4896460D01*
X7505896Y-4896460D02*
X7486848Y-4905984D01*
X7486848Y-4905984D02*
X7439229Y-4905984D01*
X7439229Y-4905984D02*
X7420182Y-4896460D01*
X7420182Y-4896460D02*
X7410658Y-4886936D01*
X7601134Y-4705984D02*
X7601134Y-4744079D01*
X7677325Y-4705984D02*
X7677325Y-4744079D01*
X7972563Y-4982174D02*
X7963039Y-4972650D01*
X7963039Y-4972650D02*
X7943991Y-4944079D01*
X7943991Y-4944079D02*
X7934468Y-4925031D01*
X7934468Y-4925031D02*
X7924944Y-4896460D01*
X7924944Y-4896460D02*
X7915420Y-4848841D01*
X7915420Y-4848841D02*
X7915420Y-4810746D01*
X7915420Y-4810746D02*
X7924944Y-4763127D01*
X7924944Y-4763127D02*
X7934468Y-4734555D01*
X7934468Y-4734555D02*
X7943991Y-4715508D01*
X7943991Y-4715508D02*
X7963039Y-4686936D01*
X7963039Y-4686936D02*
X7972563Y-4677412D01*
X8153515Y-4905984D02*
X8039229Y-4905984D01*
X8096372Y-4905984D02*
X8096372Y-4705984D01*
X8096372Y-4705984D02*
X8077325Y-4734555D01*
X8077325Y-4734555D02*
X8058277Y-4753603D01*
X8058277Y-4753603D02*
X8039229Y-4763127D01*
X8324944Y-4705984D02*
X8286848Y-4705984D01*
X8286848Y-4705984D02*
X8267801Y-4715508D01*
X8267801Y-4715508D02*
X8258277Y-4725031D01*
X8258277Y-4725031D02*
X8239229Y-4753603D01*
X8239229Y-4753603D02*
X8229706Y-4791698D01*
X8229706Y-4791698D02*
X8229706Y-4867889D01*
X8229706Y-4867889D02*
X8239229Y-4886936D01*
X8239229Y-4886936D02*
X8248753Y-4896460D01*
X8248753Y-4896460D02*
X8267801Y-4905984D01*
X8267801Y-4905984D02*
X8305896Y-4905984D01*
X8305896Y-4905984D02*
X8324944Y-4896460D01*
X8324944Y-4896460D02*
X8334468Y-4886936D01*
X8334468Y-4886936D02*
X8343991Y-4867889D01*
X8343991Y-4867889D02*
X8343991Y-4820270D01*
X8343991Y-4820270D02*
X8334468Y-4801222D01*
X8334468Y-4801222D02*
X8324944Y-4791698D01*
X8324944Y-4791698D02*
X8305896Y-4782174D01*
X8305896Y-4782174D02*
X8267801Y-4782174D01*
X8267801Y-4782174D02*
X8248753Y-4791698D01*
X8248753Y-4791698D02*
X8239229Y-4801222D01*
X8239229Y-4801222D02*
X8229706Y-4820270D01*
X8582087Y-4905984D02*
X8582087Y-4705984D01*
X8667801Y-4905984D02*
X8667801Y-4801222D01*
X8667801Y-4801222D02*
X8658277Y-4782174D01*
X8658277Y-4782174D02*
X8639230Y-4772650D01*
X8639230Y-4772650D02*
X8610658Y-4772650D01*
X8610658Y-4772650D02*
X8591611Y-4782174D01*
X8591611Y-4782174D02*
X8582087Y-4791698D01*
X8791611Y-4905984D02*
X8772563Y-4896460D01*
X8772563Y-4896460D02*
X8763039Y-4886936D01*
X8763039Y-4886936D02*
X8753515Y-4867889D01*
X8753515Y-4867889D02*
X8753515Y-4810746D01*
X8753515Y-4810746D02*
X8763039Y-4791698D01*
X8763039Y-4791698D02*
X8772563Y-4782174D01*
X8772563Y-4782174D02*
X8791611Y-4772650D01*
X8791611Y-4772650D02*
X8820182Y-4772650D01*
X8820182Y-4772650D02*
X8839230Y-4782174D01*
X8839230Y-4782174D02*
X8848753Y-4791698D01*
X8848753Y-4791698D02*
X8858277Y-4810746D01*
X8858277Y-4810746D02*
X8858277Y-4867889D01*
X8858277Y-4867889D02*
X8848753Y-4886936D01*
X8848753Y-4886936D02*
X8839230Y-4896460D01*
X8839230Y-4896460D02*
X8820182Y-4905984D01*
X8820182Y-4905984D02*
X8791611Y-4905984D01*
X8972563Y-4905984D02*
X8953515Y-4896460D01*
X8953515Y-4896460D02*
X8943992Y-4877412D01*
X8943992Y-4877412D02*
X8943992Y-4705984D01*
X9124944Y-4896460D02*
X9105896Y-4905984D01*
X9105896Y-4905984D02*
X9067801Y-4905984D01*
X9067801Y-4905984D02*
X9048753Y-4896460D01*
X9048753Y-4896460D02*
X9039230Y-4877412D01*
X9039230Y-4877412D02*
X9039230Y-4801222D01*
X9039230Y-4801222D02*
X9048753Y-4782174D01*
X9048753Y-4782174D02*
X9067801Y-4772650D01*
X9067801Y-4772650D02*
X9105896Y-4772650D01*
X9105896Y-4772650D02*
X9124944Y-4782174D01*
X9124944Y-4782174D02*
X9134468Y-4801222D01*
X9134468Y-4801222D02*
X9134468Y-4820270D01*
X9134468Y-4820270D02*
X9039230Y-4839317D01*
X9210658Y-4896460D02*
X9229706Y-4905984D01*
X9229706Y-4905984D02*
X9267801Y-4905984D01*
X9267801Y-4905984D02*
X9286849Y-4896460D01*
X9286849Y-4896460D02*
X9296373Y-4877412D01*
X9296373Y-4877412D02*
X9296373Y-4867889D01*
X9296373Y-4867889D02*
X9286849Y-4848841D01*
X9286849Y-4848841D02*
X9267801Y-4839317D01*
X9267801Y-4839317D02*
X9239230Y-4839317D01*
X9239230Y-4839317D02*
X9220182Y-4829793D01*
X9220182Y-4829793D02*
X9210658Y-4810746D01*
X9210658Y-4810746D02*
X9210658Y-4801222D01*
X9210658Y-4801222D02*
X9220182Y-4782174D01*
X9220182Y-4782174D02*
X9239230Y-4772650D01*
X9239230Y-4772650D02*
X9267801Y-4772650D01*
X9267801Y-4772650D02*
X9286849Y-4782174D01*
X9363039Y-4982174D02*
X9372563Y-4972650D01*
X9372563Y-4972650D02*
X9391611Y-4944079D01*
X9391611Y-4944079D02*
X9401134Y-4925031D01*
X9401134Y-4925031D02*
X9410658Y-4896460D01*
X9410658Y-4896460D02*
X9420182Y-4848841D01*
X9420182Y-4848841D02*
X9420182Y-4810746D01*
X9420182Y-4810746D02*
X9410658Y-4763127D01*
X9410658Y-4763127D02*
X9401134Y-4734555D01*
X9401134Y-4734555D02*
X9391611Y-4715508D01*
X9391611Y-4715508D02*
X9372563Y-4686936D01*
X9372563Y-4686936D02*
X9363039Y-4677412D01*
D17*
X4295500Y-5027500D02*
X4397500Y-5129500D01*
X4397500Y-5027500D02*
X4295500Y-5129500D01*
X4397500Y-5078500D02*
G75*
G03*
X4397500Y-5078500I-51000J0D01*
G01*
D11*
X4763039Y-5169984D02*
X4648753Y-5169984D01*
X4705896Y-5169984D02*
X4705896Y-4969984D01*
X4705896Y-4969984D02*
X4686848Y-4998555D01*
X4686848Y-4998555D02*
X4667801Y-5017603D01*
X4667801Y-5017603D02*
X4648753Y-5027127D01*
X4848753Y-5150936D02*
X4858277Y-5160460D01*
X4858277Y-5160460D02*
X4848753Y-5169984D01*
X4848753Y-5169984D02*
X4839229Y-5160460D01*
X4839229Y-5160460D02*
X4848753Y-5150936D01*
X4848753Y-5150936D02*
X4848753Y-5169984D01*
X4982086Y-4969984D02*
X5001134Y-4969984D01*
X5001134Y-4969984D02*
X5020182Y-4979508D01*
X5020182Y-4979508D02*
X5029705Y-4989031D01*
X5029705Y-4989031D02*
X5039229Y-5008079D01*
X5039229Y-5008079D02*
X5048753Y-5046174D01*
X5048753Y-5046174D02*
X5048753Y-5093793D01*
X5048753Y-5093793D02*
X5039229Y-5131889D01*
X5039229Y-5131889D02*
X5029705Y-5150936D01*
X5029705Y-5150936D02*
X5020182Y-5160460D01*
X5020182Y-5160460D02*
X5001134Y-5169984D01*
X5001134Y-5169984D02*
X4982086Y-5169984D01*
X4982086Y-5169984D02*
X4963039Y-5160460D01*
X4963039Y-5160460D02*
X4953515Y-5150936D01*
X4953515Y-5150936D02*
X4943991Y-5131889D01*
X4943991Y-5131889D02*
X4934467Y-5093793D01*
X4934467Y-5093793D02*
X4934467Y-5046174D01*
X4934467Y-5046174D02*
X4943991Y-5008079D01*
X4943991Y-5008079D02*
X4953515Y-4989031D01*
X4953515Y-4989031D02*
X4963039Y-4979508D01*
X4963039Y-4979508D02*
X4982086Y-4969984D01*
X5124944Y-4989031D02*
X5134467Y-4979508D01*
X5134467Y-4979508D02*
X5153515Y-4969984D01*
X5153515Y-4969984D02*
X5201134Y-4969984D01*
X5201134Y-4969984D02*
X5220182Y-4979508D01*
X5220182Y-4979508D02*
X5229705Y-4989031D01*
X5229705Y-4989031D02*
X5239229Y-5008079D01*
X5239229Y-5008079D02*
X5239229Y-5027127D01*
X5239229Y-5027127D02*
X5229705Y-5055698D01*
X5229705Y-5055698D02*
X5115420Y-5169984D01*
X5115420Y-5169984D02*
X5239229Y-5169984D01*
X5363039Y-4969984D02*
X5382086Y-4969984D01*
X5382086Y-4969984D02*
X5401134Y-4979508D01*
X5401134Y-4979508D02*
X5410658Y-4989031D01*
X5410658Y-4989031D02*
X5420182Y-5008079D01*
X5420182Y-5008079D02*
X5429705Y-5046174D01*
X5429705Y-5046174D02*
X5429705Y-5093793D01*
X5429705Y-5093793D02*
X5420182Y-5131889D01*
X5420182Y-5131889D02*
X5410658Y-5150936D01*
X5410658Y-5150936D02*
X5401134Y-5160460D01*
X5401134Y-5160460D02*
X5382086Y-5169984D01*
X5382086Y-5169984D02*
X5363039Y-5169984D01*
X5363039Y-5169984D02*
X5343991Y-5160460D01*
X5343991Y-5160460D02*
X5334467Y-5150936D01*
X5334467Y-5150936D02*
X5324944Y-5131889D01*
X5324944Y-5131889D02*
X5315420Y-5093793D01*
X5315420Y-5093793D02*
X5315420Y-5046174D01*
X5315420Y-5046174D02*
X5324944Y-5008079D01*
X5324944Y-5008079D02*
X5334467Y-4989031D01*
X5334467Y-4989031D02*
X5343991Y-4979508D01*
X5343991Y-4979508D02*
X5363039Y-4969984D01*
X5515420Y-5169984D02*
X5515420Y-5036650D01*
X5515420Y-5055698D02*
X5524944Y-5046174D01*
X5524944Y-5046174D02*
X5543991Y-5036650D01*
X5543991Y-5036650D02*
X5572563Y-5036650D01*
X5572563Y-5036650D02*
X5591610Y-5046174D01*
X5591610Y-5046174D02*
X5601134Y-5065222D01*
X5601134Y-5065222D02*
X5601134Y-5169984D01*
X5601134Y-5065222D02*
X5610658Y-5046174D01*
X5610658Y-5046174D02*
X5629705Y-5036650D01*
X5629705Y-5036650D02*
X5658277Y-5036650D01*
X5658277Y-5036650D02*
X5677324Y-5046174D01*
X5677324Y-5046174D02*
X5686848Y-5065222D01*
X5686848Y-5065222D02*
X5686848Y-5169984D01*
X5782086Y-5169984D02*
X5782086Y-5036650D01*
X5782086Y-5055698D02*
X5791610Y-5046174D01*
X5791610Y-5046174D02*
X5810658Y-5036650D01*
X5810658Y-5036650D02*
X5839229Y-5036650D01*
X5839229Y-5036650D02*
X5858277Y-5046174D01*
X5858277Y-5046174D02*
X5867801Y-5065222D01*
X5867801Y-5065222D02*
X5867801Y-5169984D01*
X5867801Y-5065222D02*
X5877324Y-5046174D01*
X5877324Y-5046174D02*
X5896372Y-5036650D01*
X5896372Y-5036650D02*
X5924943Y-5036650D01*
X5924943Y-5036650D02*
X5943991Y-5046174D01*
X5943991Y-5046174D02*
X5953515Y-5065222D01*
X5953515Y-5065222D02*
X5953515Y-5169984D01*
X6343991Y-4960460D02*
X6172563Y-5217603D01*
X6601134Y-4969984D02*
X6620182Y-4969984D01*
X6620182Y-4969984D02*
X6639229Y-4979508D01*
X6639229Y-4979508D02*
X6648753Y-4989031D01*
X6648753Y-4989031D02*
X6658277Y-5008079D01*
X6658277Y-5008079D02*
X6667801Y-5046174D01*
X6667801Y-5046174D02*
X6667801Y-5093793D01*
X6667801Y-5093793D02*
X6658277Y-5131889D01*
X6658277Y-5131889D02*
X6648753Y-5150936D01*
X6648753Y-5150936D02*
X6639229Y-5160460D01*
X6639229Y-5160460D02*
X6620182Y-5169984D01*
X6620182Y-5169984D02*
X6601134Y-5169984D01*
X6601134Y-5169984D02*
X6582086Y-5160460D01*
X6582086Y-5160460D02*
X6572563Y-5150936D01*
X6572563Y-5150936D02*
X6563039Y-5131889D01*
X6563039Y-5131889D02*
X6553515Y-5093793D01*
X6553515Y-5093793D02*
X6553515Y-5046174D01*
X6553515Y-5046174D02*
X6563039Y-5008079D01*
X6563039Y-5008079D02*
X6572563Y-4989031D01*
X6572563Y-4989031D02*
X6582086Y-4979508D01*
X6582086Y-4979508D02*
X6601134Y-4969984D01*
X6753515Y-5150936D02*
X6763039Y-5160460D01*
X6763039Y-5160460D02*
X6753515Y-5169984D01*
X6753515Y-5169984D02*
X6743991Y-5160460D01*
X6743991Y-5160460D02*
X6753515Y-5150936D01*
X6753515Y-5150936D02*
X6753515Y-5169984D01*
X6886848Y-4969984D02*
X6905896Y-4969984D01*
X6905896Y-4969984D02*
X6924944Y-4979508D01*
X6924944Y-4979508D02*
X6934467Y-4989031D01*
X6934467Y-4989031D02*
X6943991Y-5008079D01*
X6943991Y-5008079D02*
X6953515Y-5046174D01*
X6953515Y-5046174D02*
X6953515Y-5093793D01*
X6953515Y-5093793D02*
X6943991Y-5131889D01*
X6943991Y-5131889D02*
X6934467Y-5150936D01*
X6934467Y-5150936D02*
X6924944Y-5160460D01*
X6924944Y-5160460D02*
X6905896Y-5169984D01*
X6905896Y-5169984D02*
X6886848Y-5169984D01*
X6886848Y-5169984D02*
X6867801Y-5160460D01*
X6867801Y-5160460D02*
X6858277Y-5150936D01*
X6858277Y-5150936D02*
X6848753Y-5131889D01*
X6848753Y-5131889D02*
X6839229Y-5093793D01*
X6839229Y-5093793D02*
X6839229Y-5046174D01*
X6839229Y-5046174D02*
X6848753Y-5008079D01*
X6848753Y-5008079D02*
X6858277Y-4989031D01*
X6858277Y-4989031D02*
X6867801Y-4979508D01*
X6867801Y-4979508D02*
X6886848Y-4969984D01*
X7124944Y-5036650D02*
X7124944Y-5169984D01*
X7077325Y-4960460D02*
X7029706Y-5103317D01*
X7029706Y-5103317D02*
X7153515Y-5103317D01*
X7267801Y-4969984D02*
X7286848Y-4969984D01*
X7286848Y-4969984D02*
X7305896Y-4979508D01*
X7305896Y-4979508D02*
X7315420Y-4989031D01*
X7315420Y-4989031D02*
X7324944Y-5008079D01*
X7324944Y-5008079D02*
X7334467Y-5046174D01*
X7334467Y-5046174D02*
X7334467Y-5093793D01*
X7334467Y-5093793D02*
X7324944Y-5131889D01*
X7324944Y-5131889D02*
X7315420Y-5150936D01*
X7315420Y-5150936D02*
X7305896Y-5160460D01*
X7305896Y-5160460D02*
X7286848Y-5169984D01*
X7286848Y-5169984D02*
X7267801Y-5169984D01*
X7267801Y-5169984D02*
X7248753Y-5160460D01*
X7248753Y-5160460D02*
X7239229Y-5150936D01*
X7239229Y-5150936D02*
X7229706Y-5131889D01*
X7229706Y-5131889D02*
X7220182Y-5093793D01*
X7220182Y-5093793D02*
X7220182Y-5046174D01*
X7220182Y-5046174D02*
X7229706Y-5008079D01*
X7229706Y-5008079D02*
X7239229Y-4989031D01*
X7239229Y-4989031D02*
X7248753Y-4979508D01*
X7248753Y-4979508D02*
X7267801Y-4969984D01*
X7410658Y-4989031D02*
X7420182Y-4979508D01*
X7420182Y-4979508D02*
X7439229Y-4969984D01*
X7439229Y-4969984D02*
X7486848Y-4969984D01*
X7486848Y-4969984D02*
X7505896Y-4979508D01*
X7505896Y-4979508D02*
X7515420Y-4989031D01*
X7515420Y-4989031D02*
X7524944Y-5008079D01*
X7524944Y-5008079D02*
X7524944Y-5027127D01*
X7524944Y-5027127D02*
X7515420Y-5055698D01*
X7515420Y-5055698D02*
X7401134Y-5169984D01*
X7401134Y-5169984D02*
X7524944Y-5169984D01*
X7601134Y-4969984D02*
X7601134Y-5008079D01*
X7677325Y-4969984D02*
X7677325Y-5008079D01*
X7972563Y-5246174D02*
X7963039Y-5236650D01*
X7963039Y-5236650D02*
X7943991Y-5208079D01*
X7943991Y-5208079D02*
X7934468Y-5189031D01*
X7934468Y-5189031D02*
X7924944Y-5160460D01*
X7924944Y-5160460D02*
X7915420Y-5112841D01*
X7915420Y-5112841D02*
X7915420Y-5074746D01*
X7915420Y-5074746D02*
X7924944Y-5027127D01*
X7924944Y-5027127D02*
X7934468Y-4998555D01*
X7934468Y-4998555D02*
X7943991Y-4979508D01*
X7943991Y-4979508D02*
X7963039Y-4950936D01*
X7963039Y-4950936D02*
X7972563Y-4941412D01*
X8134468Y-5036650D02*
X8134468Y-5169984D01*
X8086848Y-4960460D02*
X8039229Y-5103317D01*
X8039229Y-5103317D02*
X8163039Y-5103317D01*
X8277325Y-4969984D02*
X8296372Y-4969984D01*
X8296372Y-4969984D02*
X8315420Y-4979508D01*
X8315420Y-4979508D02*
X8324944Y-4989031D01*
X8324944Y-4989031D02*
X8334468Y-5008079D01*
X8334468Y-5008079D02*
X8343991Y-5046174D01*
X8343991Y-5046174D02*
X8343991Y-5093793D01*
X8343991Y-5093793D02*
X8334468Y-5131889D01*
X8334468Y-5131889D02*
X8324944Y-5150936D01*
X8324944Y-5150936D02*
X8315420Y-5160460D01*
X8315420Y-5160460D02*
X8296372Y-5169984D01*
X8296372Y-5169984D02*
X8277325Y-5169984D01*
X8277325Y-5169984D02*
X8258277Y-5160460D01*
X8258277Y-5160460D02*
X8248753Y-5150936D01*
X8248753Y-5150936D02*
X8239229Y-5131889D01*
X8239229Y-5131889D02*
X8229706Y-5093793D01*
X8229706Y-5093793D02*
X8229706Y-5046174D01*
X8229706Y-5046174D02*
X8239229Y-5008079D01*
X8239229Y-5008079D02*
X8248753Y-4989031D01*
X8248753Y-4989031D02*
X8258277Y-4979508D01*
X8258277Y-4979508D02*
X8277325Y-4969984D01*
X8582087Y-5169984D02*
X8582087Y-4969984D01*
X8667801Y-5169984D02*
X8667801Y-5065222D01*
X8667801Y-5065222D02*
X8658277Y-5046174D01*
X8658277Y-5046174D02*
X8639230Y-5036650D01*
X8639230Y-5036650D02*
X8610658Y-5036650D01*
X8610658Y-5036650D02*
X8591611Y-5046174D01*
X8591611Y-5046174D02*
X8582087Y-5055698D01*
X8791611Y-5169984D02*
X8772563Y-5160460D01*
X8772563Y-5160460D02*
X8763039Y-5150936D01*
X8763039Y-5150936D02*
X8753515Y-5131889D01*
X8753515Y-5131889D02*
X8753515Y-5074746D01*
X8753515Y-5074746D02*
X8763039Y-5055698D01*
X8763039Y-5055698D02*
X8772563Y-5046174D01*
X8772563Y-5046174D02*
X8791611Y-5036650D01*
X8791611Y-5036650D02*
X8820182Y-5036650D01*
X8820182Y-5036650D02*
X8839230Y-5046174D01*
X8839230Y-5046174D02*
X8848753Y-5055698D01*
X8848753Y-5055698D02*
X8858277Y-5074746D01*
X8858277Y-5074746D02*
X8858277Y-5131889D01*
X8858277Y-5131889D02*
X8848753Y-5150936D01*
X8848753Y-5150936D02*
X8839230Y-5160460D01*
X8839230Y-5160460D02*
X8820182Y-5169984D01*
X8820182Y-5169984D02*
X8791611Y-5169984D01*
X8972563Y-5169984D02*
X8953515Y-5160460D01*
X8953515Y-5160460D02*
X8943992Y-5141412D01*
X8943992Y-5141412D02*
X8943992Y-4969984D01*
X9124944Y-5160460D02*
X9105896Y-5169984D01*
X9105896Y-5169984D02*
X9067801Y-5169984D01*
X9067801Y-5169984D02*
X9048753Y-5160460D01*
X9048753Y-5160460D02*
X9039230Y-5141412D01*
X9039230Y-5141412D02*
X9039230Y-5065222D01*
X9039230Y-5065222D02*
X9048753Y-5046174D01*
X9048753Y-5046174D02*
X9067801Y-5036650D01*
X9067801Y-5036650D02*
X9105896Y-5036650D01*
X9105896Y-5036650D02*
X9124944Y-5046174D01*
X9124944Y-5046174D02*
X9134468Y-5065222D01*
X9134468Y-5065222D02*
X9134468Y-5084270D01*
X9134468Y-5084270D02*
X9039230Y-5103317D01*
X9210658Y-5160460D02*
X9229706Y-5169984D01*
X9229706Y-5169984D02*
X9267801Y-5169984D01*
X9267801Y-5169984D02*
X9286849Y-5160460D01*
X9286849Y-5160460D02*
X9296373Y-5141412D01*
X9296373Y-5141412D02*
X9296373Y-5131889D01*
X9296373Y-5131889D02*
X9286849Y-5112841D01*
X9286849Y-5112841D02*
X9267801Y-5103317D01*
X9267801Y-5103317D02*
X9239230Y-5103317D01*
X9239230Y-5103317D02*
X9220182Y-5093793D01*
X9220182Y-5093793D02*
X9210658Y-5074746D01*
X9210658Y-5074746D02*
X9210658Y-5065222D01*
X9210658Y-5065222D02*
X9220182Y-5046174D01*
X9220182Y-5046174D02*
X9239230Y-5036650D01*
X9239230Y-5036650D02*
X9267801Y-5036650D01*
X9267801Y-5036650D02*
X9286849Y-5046174D01*
X9363039Y-5246174D02*
X9372563Y-5236650D01*
X9372563Y-5236650D02*
X9391611Y-5208079D01*
X9391611Y-5208079D02*
X9401134Y-5189031D01*
X9401134Y-5189031D02*
X9410658Y-5160460D01*
X9410658Y-5160460D02*
X9420182Y-5112841D01*
X9420182Y-5112841D02*
X9420182Y-5074746D01*
X9420182Y-5074746D02*
X9410658Y-5027127D01*
X9410658Y-5027127D02*
X9401134Y-4998555D01*
X9401134Y-4998555D02*
X9391611Y-4979508D01*
X9391611Y-4979508D02*
X9372563Y-4950936D01*
X9372563Y-4950936D02*
X9363039Y-4941412D01*
D18*
X4277500Y-5282500D02*
X4397500Y-5402500D01*
X4397500Y-5282500D02*
X4277500Y-5402500D01*
X4337500Y-5282500D02*
X4337500Y-5402500D01*
X4277500Y-5342500D02*
X4397500Y-5342500D01*
D11*
X4763039Y-5433984D02*
X4648753Y-5433984D01*
X4705896Y-5433984D02*
X4705896Y-5233984D01*
X4705896Y-5233984D02*
X4686848Y-5262555D01*
X4686848Y-5262555D02*
X4667801Y-5281603D01*
X4667801Y-5281603D02*
X4648753Y-5291127D01*
X4848753Y-5414936D02*
X4858277Y-5424460D01*
X4858277Y-5424460D02*
X4848753Y-5433984D01*
X4848753Y-5433984D02*
X4839229Y-5424460D01*
X4839229Y-5424460D02*
X4848753Y-5414936D01*
X4848753Y-5414936D02*
X4848753Y-5433984D01*
X4934467Y-5253031D02*
X4943991Y-5243508D01*
X4943991Y-5243508D02*
X4963039Y-5233984D01*
X4963039Y-5233984D02*
X5010658Y-5233984D01*
X5010658Y-5233984D02*
X5029705Y-5243508D01*
X5029705Y-5243508D02*
X5039229Y-5253031D01*
X5039229Y-5253031D02*
X5048753Y-5272079D01*
X5048753Y-5272079D02*
X5048753Y-5291127D01*
X5048753Y-5291127D02*
X5039229Y-5319698D01*
X5039229Y-5319698D02*
X4924944Y-5433984D01*
X4924944Y-5433984D02*
X5048753Y-5433984D01*
X5172563Y-5233984D02*
X5191610Y-5233984D01*
X5191610Y-5233984D02*
X5210658Y-5243508D01*
X5210658Y-5243508D02*
X5220182Y-5253031D01*
X5220182Y-5253031D02*
X5229705Y-5272079D01*
X5229705Y-5272079D02*
X5239229Y-5310174D01*
X5239229Y-5310174D02*
X5239229Y-5357793D01*
X5239229Y-5357793D02*
X5229705Y-5395889D01*
X5229705Y-5395889D02*
X5220182Y-5414936D01*
X5220182Y-5414936D02*
X5210658Y-5424460D01*
X5210658Y-5424460D02*
X5191610Y-5433984D01*
X5191610Y-5433984D02*
X5172563Y-5433984D01*
X5172563Y-5433984D02*
X5153515Y-5424460D01*
X5153515Y-5424460D02*
X5143991Y-5414936D01*
X5143991Y-5414936D02*
X5134467Y-5395889D01*
X5134467Y-5395889D02*
X5124944Y-5357793D01*
X5124944Y-5357793D02*
X5124944Y-5310174D01*
X5124944Y-5310174D02*
X5134467Y-5272079D01*
X5134467Y-5272079D02*
X5143991Y-5253031D01*
X5143991Y-5253031D02*
X5153515Y-5243508D01*
X5153515Y-5243508D02*
X5172563Y-5233984D01*
X5363039Y-5233984D02*
X5382086Y-5233984D01*
X5382086Y-5233984D02*
X5401134Y-5243508D01*
X5401134Y-5243508D02*
X5410658Y-5253031D01*
X5410658Y-5253031D02*
X5420182Y-5272079D01*
X5420182Y-5272079D02*
X5429705Y-5310174D01*
X5429705Y-5310174D02*
X5429705Y-5357793D01*
X5429705Y-5357793D02*
X5420182Y-5395889D01*
X5420182Y-5395889D02*
X5410658Y-5414936D01*
X5410658Y-5414936D02*
X5401134Y-5424460D01*
X5401134Y-5424460D02*
X5382086Y-5433984D01*
X5382086Y-5433984D02*
X5363039Y-5433984D01*
X5363039Y-5433984D02*
X5343991Y-5424460D01*
X5343991Y-5424460D02*
X5334467Y-5414936D01*
X5334467Y-5414936D02*
X5324944Y-5395889D01*
X5324944Y-5395889D02*
X5315420Y-5357793D01*
X5315420Y-5357793D02*
X5315420Y-5310174D01*
X5315420Y-5310174D02*
X5324944Y-5272079D01*
X5324944Y-5272079D02*
X5334467Y-5253031D01*
X5334467Y-5253031D02*
X5343991Y-5243508D01*
X5343991Y-5243508D02*
X5363039Y-5233984D01*
X5515420Y-5433984D02*
X5515420Y-5300650D01*
X5515420Y-5319698D02*
X5524944Y-5310174D01*
X5524944Y-5310174D02*
X5543991Y-5300650D01*
X5543991Y-5300650D02*
X5572563Y-5300650D01*
X5572563Y-5300650D02*
X5591610Y-5310174D01*
X5591610Y-5310174D02*
X5601134Y-5329222D01*
X5601134Y-5329222D02*
X5601134Y-5433984D01*
X5601134Y-5329222D02*
X5610658Y-5310174D01*
X5610658Y-5310174D02*
X5629705Y-5300650D01*
X5629705Y-5300650D02*
X5658277Y-5300650D01*
X5658277Y-5300650D02*
X5677324Y-5310174D01*
X5677324Y-5310174D02*
X5686848Y-5329222D01*
X5686848Y-5329222D02*
X5686848Y-5433984D01*
X5782086Y-5433984D02*
X5782086Y-5300650D01*
X5782086Y-5319698D02*
X5791610Y-5310174D01*
X5791610Y-5310174D02*
X5810658Y-5300650D01*
X5810658Y-5300650D02*
X5839229Y-5300650D01*
X5839229Y-5300650D02*
X5858277Y-5310174D01*
X5858277Y-5310174D02*
X5867801Y-5329222D01*
X5867801Y-5329222D02*
X5867801Y-5433984D01*
X5867801Y-5329222D02*
X5877324Y-5310174D01*
X5877324Y-5310174D02*
X5896372Y-5300650D01*
X5896372Y-5300650D02*
X5924943Y-5300650D01*
X5924943Y-5300650D02*
X5943991Y-5310174D01*
X5943991Y-5310174D02*
X5953515Y-5329222D01*
X5953515Y-5329222D02*
X5953515Y-5433984D01*
X6343991Y-5224460D02*
X6172563Y-5481603D01*
X6601134Y-5233984D02*
X6620182Y-5233984D01*
X6620182Y-5233984D02*
X6639229Y-5243508D01*
X6639229Y-5243508D02*
X6648753Y-5253031D01*
X6648753Y-5253031D02*
X6658277Y-5272079D01*
X6658277Y-5272079D02*
X6667801Y-5310174D01*
X6667801Y-5310174D02*
X6667801Y-5357793D01*
X6667801Y-5357793D02*
X6658277Y-5395889D01*
X6658277Y-5395889D02*
X6648753Y-5414936D01*
X6648753Y-5414936D02*
X6639229Y-5424460D01*
X6639229Y-5424460D02*
X6620182Y-5433984D01*
X6620182Y-5433984D02*
X6601134Y-5433984D01*
X6601134Y-5433984D02*
X6582086Y-5424460D01*
X6582086Y-5424460D02*
X6572563Y-5414936D01*
X6572563Y-5414936D02*
X6563039Y-5395889D01*
X6563039Y-5395889D02*
X6553515Y-5357793D01*
X6553515Y-5357793D02*
X6553515Y-5310174D01*
X6553515Y-5310174D02*
X6563039Y-5272079D01*
X6563039Y-5272079D02*
X6572563Y-5253031D01*
X6572563Y-5253031D02*
X6582086Y-5243508D01*
X6582086Y-5243508D02*
X6601134Y-5233984D01*
X6753515Y-5414936D02*
X6763039Y-5424460D01*
X6763039Y-5424460D02*
X6753515Y-5433984D01*
X6753515Y-5433984D02*
X6743991Y-5424460D01*
X6743991Y-5424460D02*
X6753515Y-5414936D01*
X6753515Y-5414936D02*
X6753515Y-5433984D01*
X6886848Y-5233984D02*
X6905896Y-5233984D01*
X6905896Y-5233984D02*
X6924944Y-5243508D01*
X6924944Y-5243508D02*
X6934467Y-5253031D01*
X6934467Y-5253031D02*
X6943991Y-5272079D01*
X6943991Y-5272079D02*
X6953515Y-5310174D01*
X6953515Y-5310174D02*
X6953515Y-5357793D01*
X6953515Y-5357793D02*
X6943991Y-5395889D01*
X6943991Y-5395889D02*
X6934467Y-5414936D01*
X6934467Y-5414936D02*
X6924944Y-5424460D01*
X6924944Y-5424460D02*
X6905896Y-5433984D01*
X6905896Y-5433984D02*
X6886848Y-5433984D01*
X6886848Y-5433984D02*
X6867801Y-5424460D01*
X6867801Y-5424460D02*
X6858277Y-5414936D01*
X6858277Y-5414936D02*
X6848753Y-5395889D01*
X6848753Y-5395889D02*
X6839229Y-5357793D01*
X6839229Y-5357793D02*
X6839229Y-5310174D01*
X6839229Y-5310174D02*
X6848753Y-5272079D01*
X6848753Y-5272079D02*
X6858277Y-5253031D01*
X6858277Y-5253031D02*
X6867801Y-5243508D01*
X6867801Y-5243508D02*
X6886848Y-5233984D01*
X7124944Y-5300650D02*
X7124944Y-5433984D01*
X7077325Y-5224460D02*
X7029706Y-5367317D01*
X7029706Y-5367317D02*
X7153515Y-5367317D01*
X7210658Y-5233984D02*
X7343991Y-5233984D01*
X7343991Y-5233984D02*
X7258277Y-5433984D01*
X7410658Y-5253031D02*
X7420182Y-5243508D01*
X7420182Y-5243508D02*
X7439229Y-5233984D01*
X7439229Y-5233984D02*
X7486848Y-5233984D01*
X7486848Y-5233984D02*
X7505896Y-5243508D01*
X7505896Y-5243508D02*
X7515420Y-5253031D01*
X7515420Y-5253031D02*
X7524944Y-5272079D01*
X7524944Y-5272079D02*
X7524944Y-5291127D01*
X7524944Y-5291127D02*
X7515420Y-5319698D01*
X7515420Y-5319698D02*
X7401134Y-5433984D01*
X7401134Y-5433984D02*
X7524944Y-5433984D01*
X7601134Y-5233984D02*
X7601134Y-5272079D01*
X7677325Y-5233984D02*
X7677325Y-5272079D01*
X7972563Y-5510174D02*
X7963039Y-5500650D01*
X7963039Y-5500650D02*
X7943991Y-5472079D01*
X7943991Y-5472079D02*
X7934468Y-5453031D01*
X7934468Y-5453031D02*
X7924944Y-5424460D01*
X7924944Y-5424460D02*
X7915420Y-5376841D01*
X7915420Y-5376841D02*
X7915420Y-5338746D01*
X7915420Y-5338746D02*
X7924944Y-5291127D01*
X7924944Y-5291127D02*
X7934468Y-5262555D01*
X7934468Y-5262555D02*
X7943991Y-5243508D01*
X7943991Y-5243508D02*
X7963039Y-5214936D01*
X7963039Y-5214936D02*
X7972563Y-5205412D01*
X8039229Y-5253031D02*
X8048753Y-5243508D01*
X8048753Y-5243508D02*
X8067801Y-5233984D01*
X8067801Y-5233984D02*
X8115420Y-5233984D01*
X8115420Y-5233984D02*
X8134468Y-5243508D01*
X8134468Y-5243508D02*
X8143991Y-5253031D01*
X8143991Y-5253031D02*
X8153515Y-5272079D01*
X8153515Y-5272079D02*
X8153515Y-5291127D01*
X8153515Y-5291127D02*
X8143991Y-5319698D01*
X8143991Y-5319698D02*
X8029706Y-5433984D01*
X8029706Y-5433984D02*
X8153515Y-5433984D01*
X8391611Y-5433984D02*
X8391611Y-5233984D01*
X8477325Y-5433984D02*
X8477325Y-5329222D01*
X8477325Y-5329222D02*
X8467801Y-5310174D01*
X8467801Y-5310174D02*
X8448753Y-5300650D01*
X8448753Y-5300650D02*
X8420182Y-5300650D01*
X8420182Y-5300650D02*
X8401134Y-5310174D01*
X8401134Y-5310174D02*
X8391611Y-5319698D01*
X8601134Y-5433984D02*
X8582087Y-5424460D01*
X8582087Y-5424460D02*
X8572563Y-5414936D01*
X8572563Y-5414936D02*
X8563039Y-5395889D01*
X8563039Y-5395889D02*
X8563039Y-5338746D01*
X8563039Y-5338746D02*
X8572563Y-5319698D01*
X8572563Y-5319698D02*
X8582087Y-5310174D01*
X8582087Y-5310174D02*
X8601134Y-5300650D01*
X8601134Y-5300650D02*
X8629706Y-5300650D01*
X8629706Y-5300650D02*
X8648753Y-5310174D01*
X8648753Y-5310174D02*
X8658277Y-5319698D01*
X8658277Y-5319698D02*
X8667801Y-5338746D01*
X8667801Y-5338746D02*
X8667801Y-5395889D01*
X8667801Y-5395889D02*
X8658277Y-5414936D01*
X8658277Y-5414936D02*
X8648753Y-5424460D01*
X8648753Y-5424460D02*
X8629706Y-5433984D01*
X8629706Y-5433984D02*
X8601134Y-5433984D01*
X8782087Y-5433984D02*
X8763039Y-5424460D01*
X8763039Y-5424460D02*
X8753515Y-5405412D01*
X8753515Y-5405412D02*
X8753515Y-5233984D01*
X8934468Y-5424460D02*
X8915420Y-5433984D01*
X8915420Y-5433984D02*
X8877325Y-5433984D01*
X8877325Y-5433984D02*
X8858277Y-5424460D01*
X8858277Y-5424460D02*
X8848753Y-5405412D01*
X8848753Y-5405412D02*
X8848753Y-5329222D01*
X8848753Y-5329222D02*
X8858277Y-5310174D01*
X8858277Y-5310174D02*
X8877325Y-5300650D01*
X8877325Y-5300650D02*
X8915420Y-5300650D01*
X8915420Y-5300650D02*
X8934468Y-5310174D01*
X8934468Y-5310174D02*
X8943992Y-5329222D01*
X8943992Y-5329222D02*
X8943992Y-5348270D01*
X8943992Y-5348270D02*
X8848753Y-5367317D01*
X9020182Y-5424460D02*
X9039230Y-5433984D01*
X9039230Y-5433984D02*
X9077325Y-5433984D01*
X9077325Y-5433984D02*
X9096373Y-5424460D01*
X9096373Y-5424460D02*
X9105896Y-5405412D01*
X9105896Y-5405412D02*
X9105896Y-5395889D01*
X9105896Y-5395889D02*
X9096373Y-5376841D01*
X9096373Y-5376841D02*
X9077325Y-5367317D01*
X9077325Y-5367317D02*
X9048753Y-5367317D01*
X9048753Y-5367317D02*
X9029706Y-5357793D01*
X9029706Y-5357793D02*
X9020182Y-5338746D01*
X9020182Y-5338746D02*
X9020182Y-5329222D01*
X9020182Y-5329222D02*
X9029706Y-5310174D01*
X9029706Y-5310174D02*
X9048753Y-5300650D01*
X9048753Y-5300650D02*
X9077325Y-5300650D01*
X9077325Y-5300650D02*
X9096373Y-5310174D01*
X9172563Y-5510174D02*
X9182087Y-5500650D01*
X9182087Y-5500650D02*
X9201134Y-5472079D01*
X9201134Y-5472079D02*
X9210658Y-5453031D01*
X9210658Y-5453031D02*
X9220182Y-5424460D01*
X9220182Y-5424460D02*
X9229706Y-5376841D01*
X9229706Y-5376841D02*
X9229706Y-5338746D01*
X9229706Y-5338746D02*
X9220182Y-5291127D01*
X9220182Y-5291127D02*
X9210658Y-5262555D01*
X9210658Y-5262555D02*
X9201134Y-5243508D01*
X9201134Y-5243508D02*
X9182087Y-5214936D01*
X9182087Y-5214936D02*
X9172563Y-5205412D01*
M02*
