%TF.GenerationSoftware,KiCad,Pcbnew,7.0.8-7.0.8~ubuntu22.04.1*%
%TF.CreationDate,2023-10-19T12:27:06+02:00*%
%TF.ProjectId,PD_Micro,50445f4d-6963-4726-9f2e-6b696361645f,rev?*%
%TF.SameCoordinates,Original*%
%TF.FileFunction,Copper,L2,Bot*%
%TF.FilePolarity,Positive*%
%FSLAX46Y46*%
G04 Gerber Fmt 4.6, Leading zero omitted, Abs format (unit mm)*
G04 Created by KiCad (PCBNEW 7.0.8-7.0.8~ubuntu22.04.1) date 2023-10-19 12:27:06*
%MOMM*%
%LPD*%
G01*
G04 APERTURE LIST*
%TA.AperFunction,ComponentPad*%
%ADD10R,0.850000X0.850000*%
%TD*%
%TA.AperFunction,ComponentPad*%
%ADD11O,0.850000X0.850000*%
%TD*%
%TA.AperFunction,ComponentPad*%
%ADD12R,1.600000X1.600000*%
%TD*%
%TA.AperFunction,ComponentPad*%
%ADD13O,1.600000X1.600000*%
%TD*%
%TA.AperFunction,ComponentPad*%
%ADD14C,0.500000*%
%TD*%
%TA.AperFunction,SMDPad,CuDef*%
%ADD15R,2.600000X2.600000*%
%TD*%
%TA.AperFunction,ComponentPad*%
%ADD16O,1.700000X1.700000*%
%TD*%
%TA.AperFunction,ComponentPad*%
%ADD17R,1.700000X1.700000*%
%TD*%
%TA.AperFunction,WasherPad*%
%ADD18C,3.000000*%
%TD*%
%TA.AperFunction,ComponentPad*%
%ADD19C,1.600000*%
%TD*%
%TA.AperFunction,ComponentPad*%
%ADD20R,3.000000X3.000000*%
%TD*%
%TA.AperFunction,ComponentPad*%
%ADD21C,3.000000*%
%TD*%
%TA.AperFunction,SMDPad,CuDef*%
%ADD22R,1.450000X0.575000*%
%TD*%
%TA.AperFunction,SMDPad,CuDef*%
%ADD23R,1.450000X0.300000*%
%TD*%
%TA.AperFunction,ComponentPad*%
%ADD24O,1.600000X1.000000*%
%TD*%
%TA.AperFunction,ComponentPad*%
%ADD25O,2.100000X1.000000*%
%TD*%
%TA.AperFunction,ViaPad*%
%ADD26C,0.500000*%
%TD*%
%TA.AperFunction,ViaPad*%
%ADD27C,1.000000*%
%TD*%
%TA.AperFunction,Conductor*%
%ADD28C,0.600000*%
%TD*%
%TA.AperFunction,Conductor*%
%ADD29C,0.250000*%
%TD*%
%TA.AperFunction,Conductor*%
%ADD30C,0.500000*%
%TD*%
%TA.AperFunction,Conductor*%
%ADD31C,0.200000*%
%TD*%
%TA.AperFunction,Conductor*%
%ADD32C,0.400000*%
%TD*%
%TA.AperFunction,Conductor*%
%ADD33C,0.300000*%
%TD*%
G04 APERTURE END LIST*
D10*
X231915000Y-113970000D03*
X235090000Y-117780000D03*
D11*
X235090000Y-118780000D03*
D12*
X208928000Y-127643500D03*
D13*
X211468000Y-127643500D03*
X214008000Y-127643500D03*
X216548000Y-127643500D03*
X219088000Y-127643500D03*
X221628000Y-127643500D03*
X221628000Y-120023500D03*
X219088000Y-120023500D03*
X216548000Y-120023500D03*
X214008000Y-120023500D03*
X211468000Y-120023500D03*
X208928000Y-120023500D03*
D10*
X227470000Y-117780000D03*
D11*
X227470000Y-118780000D03*
D14*
X189590000Y-99200000D03*
X189590000Y-100250000D03*
X189590000Y-101300000D03*
X190640000Y-99200000D03*
X190640000Y-100250000D03*
D15*
X190640000Y-100250000D03*
D14*
X190640000Y-101300000D03*
X191690000Y-99200000D03*
X191690000Y-100250000D03*
X191690000Y-101300000D03*
D10*
X229375000Y-113970000D03*
D16*
X177940000Y-110160000D03*
X180480000Y-110160000D03*
D17*
X183020000Y-110160000D03*
D16*
X185560000Y-110160000D03*
X188100000Y-110160000D03*
X190640000Y-110160000D03*
X193180000Y-110160000D03*
D17*
X195720000Y-110160000D03*
D16*
X198260000Y-110160000D03*
X200800000Y-110160000D03*
X203340000Y-110160000D03*
X205880000Y-110160000D03*
D17*
X208420000Y-110160000D03*
D16*
X210960000Y-110160000D03*
X213500000Y-110160000D03*
X216040000Y-110160000D03*
X218580000Y-110160000D03*
D17*
X221120000Y-110160000D03*
D16*
X223660000Y-110160000D03*
X226200000Y-110160000D03*
X226200000Y-92380000D03*
X223660000Y-92380000D03*
D17*
X221120000Y-92380000D03*
D16*
X218580000Y-92380000D03*
X216040000Y-92380000D03*
X213500000Y-92380000D03*
X210960000Y-92380000D03*
D17*
X208420000Y-92380000D03*
D16*
X205880000Y-92380000D03*
X203340000Y-92380000D03*
X200800000Y-92380000D03*
X198260000Y-92380000D03*
D17*
X195720000Y-92380000D03*
D16*
X193180000Y-92380000D03*
X190640000Y-92380000D03*
X188100000Y-92380000D03*
X185560000Y-92380000D03*
D17*
X183020000Y-92380000D03*
D16*
X180480000Y-92380000D03*
X177940000Y-92380000D03*
D10*
X232550000Y-117780000D03*
D11*
X232550000Y-118780000D03*
D18*
X180656000Y-114216000D03*
X180656000Y-136216000D03*
X202656000Y-114216000D03*
X202656000Y-136216000D03*
D19*
X187846000Y-113716000D03*
X190386000Y-113716000D03*
X192926000Y-113716000D03*
X195466000Y-113716000D03*
D10*
X230010000Y-117780000D03*
D11*
X230010000Y-118780000D03*
D20*
X232550000Y-98857000D03*
D21*
X232550000Y-103937000D03*
D22*
X181550000Y-104495000D03*
X181550000Y-103720000D03*
D23*
X181550000Y-103020000D03*
X181550000Y-102520000D03*
X181550000Y-102020000D03*
X181550000Y-101520000D03*
X181550000Y-101020000D03*
X181550000Y-100520000D03*
X181550000Y-100020000D03*
X181550000Y-99520000D03*
D22*
X181550000Y-98820000D03*
X181550000Y-98045000D03*
D24*
X176455000Y-105590000D03*
D25*
X180635000Y-105590000D03*
D24*
X176455000Y-96950000D03*
D25*
X180635000Y-96950000D03*
D26*
X185179000Y-98476000D03*
D27*
X177813000Y-95174000D03*
D26*
X207404000Y-104445000D03*
X208293000Y-106858000D03*
X185687000Y-104572000D03*
X187719000Y-99746000D03*
X207531000Y-106223000D03*
X207404000Y-103683000D03*
X207531000Y-106858000D03*
X199530000Y-103683000D03*
X206896000Y-106223000D03*
X199530000Y-104445000D03*
X185179000Y-103302000D03*
X187719000Y-99111000D03*
X206896000Y-106858000D03*
X208293000Y-106223000D03*
X202197000Y-104445000D03*
X182516000Y-101065500D03*
X203327849Y-108036500D03*
X202705000Y-108036500D03*
X202705000Y-107366000D03*
X200941000Y-99746000D03*
X216167000Y-95047000D03*
X200941000Y-98476000D03*
X203986260Y-107412919D03*
X185941000Y-106096000D03*
X202070000Y-107366000D03*
X209563000Y-105334000D03*
X203975000Y-108036500D03*
X200941000Y-99111000D03*
X210706000Y-113462000D03*
X203346061Y-107412263D03*
X196736000Y-97841000D03*
X195734000Y-94765500D03*
X201576000Y-94765500D03*
X183947267Y-97752267D03*
X217056000Y-102542500D03*
X225946500Y-104406733D03*
X205823642Y-94765500D03*
X199925000Y-94765500D03*
X207926000Y-94666000D03*
X220612000Y-101972000D03*
X197766000Y-94765500D03*
X196228000Y-96317000D03*
X203608000Y-94765500D03*
X206896000Y-100254000D03*
X187592000Y-100508000D03*
X188141500Y-102159000D03*
X178575000Y-115494000D03*
X208561000Y-96698000D03*
X192178000Y-94920000D03*
X180603000Y-101520000D03*
X216421000Y-101905000D03*
X215151000Y-100635000D03*
X215786000Y-100000000D03*
X216421000Y-100635000D03*
X215151000Y-101270000D03*
X215786000Y-101905000D03*
X214516000Y-100000000D03*
X214516000Y-101270000D03*
X215151000Y-100000000D03*
X216421000Y-100000000D03*
X215786000Y-101270000D03*
X216421000Y-101270000D03*
X214516000Y-101905000D03*
X214516000Y-100635000D03*
X215151000Y-101905000D03*
X215786000Y-100635000D03*
X204864000Y-132004000D03*
X203086000Y-112065000D03*
X185560000Y-129591000D03*
X186703000Y-130226000D03*
X221374000Y-131369000D03*
X221628000Y-95174000D03*
X224317531Y-102512134D03*
X183655000Y-100889000D03*
X188354000Y-107112000D03*
X193571110Y-99931690D03*
X185633672Y-102488887D03*
X193621409Y-99169522D03*
X188354000Y-105207000D03*
X183655000Y-99111000D03*
X201308000Y-96571000D03*
X203861857Y-99605143D03*
D28*
X177813000Y-95174000D02*
X178321000Y-95682000D01*
X178321000Y-95682000D02*
X178321000Y-98133000D01*
X178321000Y-98133000D02*
X179953000Y-99765000D01*
D29*
X185633672Y-102488887D02*
X185635887Y-102488887D01*
X185635887Y-102488887D02*
X185667000Y-102520000D01*
D30*
X181927000Y-98045000D02*
X182766000Y-97206000D01*
X183147000Y-96825000D02*
X183147000Y-92507000D01*
X182766000Y-97206000D02*
X183147000Y-96825000D01*
X183147000Y-92507000D02*
X183020000Y-92380000D01*
D29*
X183655000Y-99111000D02*
X183655000Y-98857000D01*
X183655000Y-98857000D02*
X185121000Y-97391000D01*
X185121000Y-97391000D02*
X191842887Y-97391000D01*
X191842887Y-97391000D02*
X193621409Y-99169522D01*
X193571110Y-99931690D02*
X191480420Y-97841000D01*
X191480420Y-97841000D02*
X186905827Y-97841000D01*
X186905827Y-97841000D02*
X183782000Y-100964827D01*
X183782000Y-100964827D02*
X183782000Y-101016000D01*
D31*
X183116000Y-99661000D02*
X182275000Y-98820000D01*
X185179000Y-98476000D02*
X183994000Y-99661000D01*
X183994000Y-99661000D02*
X183116000Y-99661000D01*
X182275000Y-98820000D02*
X181550000Y-98820000D01*
D30*
X185687000Y-104572000D02*
X183020000Y-104522360D01*
D31*
X185687000Y-103810000D02*
X185179000Y-103302000D01*
D30*
X183020000Y-110160000D02*
X183020000Y-104522360D01*
X183020000Y-104522360D02*
X181550000Y-104495000D01*
D31*
X185687000Y-104572000D02*
X185687000Y-103810000D01*
X182524000Y-102020000D02*
X181550000Y-102020000D01*
X182639000Y-101143000D02*
X182639000Y-101651000D01*
X182639000Y-101905000D02*
X182524000Y-102020000D01*
X182639000Y-101651000D02*
X182639000Y-101905000D01*
X182516000Y-101020000D02*
X182639000Y-101143000D01*
X181550000Y-101020000D02*
X182516000Y-101020000D01*
D29*
X209563000Y-102667000D02*
X219917000Y-102667000D01*
D32*
X180898000Y-98820000D02*
X181550000Y-98820000D01*
D29*
X230331000Y-104766000D02*
X234455000Y-108890000D01*
X225907733Y-104406733D02*
X224588134Y-103087134D01*
X231026000Y-117018000D02*
X228232000Y-117018000D01*
D32*
X179953000Y-102775000D02*
X179953000Y-99765000D01*
D29*
X219917000Y-102667000D02*
X220612000Y-101972000D01*
D32*
X180898000Y-103720000D02*
X179953000Y-102775000D01*
D29*
X228232000Y-117018000D02*
X227470000Y-117780000D01*
X225946500Y-104406733D02*
X226305767Y-104766000D01*
D32*
X179953000Y-99765000D02*
X180898000Y-98820000D01*
D29*
X234455000Y-113589000D02*
X231026000Y-117018000D01*
X204781248Y-101337000D02*
X208233000Y-101337000D01*
X208233000Y-101337000D02*
X209563000Y-102667000D01*
X225946500Y-104406733D02*
X225907733Y-104406733D01*
X196736000Y-97841000D02*
X201285248Y-97841000D01*
X226305767Y-104766000D02*
X230331000Y-104766000D01*
D32*
X181550000Y-103720000D02*
X180898000Y-103720000D01*
D29*
X201995124Y-98550876D02*
X204781248Y-101337000D01*
D33*
X227470000Y-118780000D02*
X227470000Y-117780000D01*
D29*
X224588134Y-103087134D02*
X221727134Y-103087134D01*
X221727134Y-103087134D02*
X220612000Y-101972000D01*
X201285248Y-97841000D02*
X201995124Y-98550876D01*
X234455000Y-108890000D02*
X234455000Y-113589000D01*
D31*
X206896000Y-100254000D02*
X210579000Y-100254000D01*
X210960000Y-99873000D02*
X210960000Y-92380000D01*
X210579000Y-100254000D02*
X210960000Y-99873000D01*
X187592000Y-102667000D02*
X187592000Y-100508000D01*
X198260000Y-109652000D02*
X197117000Y-108509000D01*
D32*
X198260000Y-112573000D02*
X198260000Y-110160000D01*
X195466000Y-113716000D02*
X197117000Y-113716000D01*
D31*
X198260000Y-110160000D02*
X198260000Y-109652000D01*
X193434000Y-108509000D02*
X187592000Y-102667000D01*
D32*
X197117000Y-113716000D02*
X198260000Y-112573000D01*
D31*
X198260000Y-110160000D02*
X197625000Y-110160000D01*
X197117000Y-108509000D02*
X193434000Y-108509000D01*
D32*
X198387000Y-115748000D02*
X200800000Y-113335000D01*
X200800000Y-113335000D02*
X200800000Y-110160000D01*
X192926000Y-113716000D02*
X194958000Y-115748000D01*
D31*
X200800000Y-110160000D02*
X192799000Y-102159000D01*
D32*
X194958000Y-115748000D02*
X198387000Y-115748000D01*
D31*
X192799000Y-102159000D02*
X188141500Y-102159000D01*
D32*
X178575000Y-110795000D02*
X177940000Y-110160000D01*
X178575000Y-115494000D02*
X178575000Y-110795000D01*
X192178000Y-94920000D02*
X193068000Y-94030000D01*
X193068000Y-94016000D02*
X206134000Y-94016000D01*
X206163239Y-94016000D02*
X208561000Y-96413761D01*
X208561000Y-96413761D02*
X208561000Y-96698000D01*
X193068000Y-94030000D02*
X193068000Y-94016000D01*
D31*
X180603000Y-101520000D02*
X180480000Y-101397000D01*
X180595000Y-100520000D02*
X181550000Y-100520000D01*
X180480000Y-101397000D02*
X180480000Y-100635000D01*
X181550000Y-101520000D02*
X180603000Y-101520000D01*
X180480000Y-100635000D02*
X180595000Y-100520000D01*
D32*
X204864000Y-132004000D02*
X204864000Y-113208000D01*
X203721000Y-112065000D02*
X203086000Y-112065000D01*
X204864000Y-113208000D02*
X203721000Y-112065000D01*
D31*
X185560000Y-129591000D02*
X185560000Y-110160000D01*
X186746480Y-111513520D02*
X188100000Y-110160000D01*
X186746480Y-130182520D02*
X186746480Y-111513520D01*
X186746480Y-130182520D02*
X186703000Y-130226000D01*
D32*
X221374000Y-131369000D02*
X221374000Y-131242000D01*
X221374000Y-131242000D02*
X223660000Y-128956000D01*
X223660000Y-128956000D02*
X223660000Y-110160000D01*
X218580000Y-111176000D02*
X218580000Y-110160000D01*
X221628000Y-114224000D02*
X218580000Y-111176000D01*
X221628000Y-120023500D02*
X221628000Y-114224000D01*
X219088000Y-120023500D02*
X219088000Y-113335000D01*
X219088000Y-113335000D02*
X216040000Y-110287000D01*
X216548000Y-113462000D02*
X213119000Y-110033000D01*
X216548000Y-120023500D02*
X216548000Y-113462000D01*
X214008000Y-120023500D02*
X214008000Y-113462000D01*
X214008000Y-113462000D02*
X210579000Y-110033000D01*
X211468000Y-120023500D02*
X211468000Y-116383000D01*
X211468000Y-116383000D02*
X205880000Y-110795000D01*
X208928000Y-116002000D02*
X203340000Y-110414000D01*
X208928000Y-120023500D02*
X208928000Y-116002000D01*
X221628000Y-95174000D02*
X226200000Y-95174000D01*
X228232000Y-93142000D02*
X228232000Y-91491000D01*
X226200000Y-95174000D02*
X228232000Y-93142000D01*
X202705000Y-90475000D02*
X200800000Y-92380000D01*
X228232000Y-91491000D02*
X227216000Y-90475000D01*
X227216000Y-90475000D02*
X202705000Y-90475000D01*
D29*
X188929000Y-104792678D02*
X185152322Y-101016000D01*
X183782000Y-101016000D02*
X182286000Y-99520000D01*
X219917000Y-103567000D02*
X209190208Y-103567000D01*
X188929000Y-106537000D02*
X188929000Y-104792678D01*
X222827000Y-106477000D02*
X219917000Y-103567000D01*
X185152322Y-101016000D02*
X183782000Y-101016000D01*
X231465000Y-108440000D02*
X229502000Y-106477000D01*
X195925420Y-102286000D02*
X193571110Y-99931690D01*
X231465000Y-111880000D02*
X231465000Y-108440000D01*
X188354000Y-107112000D02*
X188929000Y-106537000D01*
X229375000Y-113970000D02*
X231465000Y-111880000D01*
X229502000Y-106477000D02*
X222827000Y-106477000D01*
X209190208Y-103567000D02*
X207909208Y-102286000D01*
X207909208Y-102286000D02*
X195925420Y-102286000D01*
X182286000Y-99520000D02*
X181550000Y-99520000D01*
X229814000Y-106027000D02*
X223013396Y-106027000D01*
X231915000Y-108128000D02*
X229814000Y-106027000D01*
X220103396Y-103117000D02*
X209376604Y-103117000D01*
X185667000Y-102520000D02*
X181550000Y-102520000D01*
X208095604Y-101836000D02*
X196287887Y-101836000D01*
X231915000Y-113970000D02*
X231915000Y-108128000D01*
X223013396Y-106027000D02*
X220103396Y-103117000D01*
X188354000Y-105207000D02*
X185667000Y-102520000D01*
X209376604Y-103117000D02*
X208095604Y-101836000D01*
X196287887Y-101836000D02*
X193621409Y-99169522D01*
D33*
X201308000Y-96571000D02*
X203721000Y-98984000D01*
X203721000Y-98984000D02*
X203721000Y-99464286D01*
X203721000Y-99464286D02*
X203861857Y-99605143D01*
%TA.AperFunction,Conductor*%
G36*
X177352641Y-94432002D02*
G01*
X177399134Y-94485658D01*
X177409238Y-94555932D01*
X177379744Y-94620512D01*
X177368074Y-94632312D01*
X177284815Y-94706072D01*
X177188181Y-94846070D01*
X177188179Y-94846074D01*
X177127859Y-95005128D01*
X177107355Y-95173997D01*
X177107355Y-95174002D01*
X177127859Y-95342871D01*
X177188179Y-95501925D01*
X177188181Y-95501929D01*
X177284816Y-95641928D01*
X177284818Y-95641930D01*
X177390783Y-95735807D01*
X177412148Y-95754734D01*
X177562775Y-95833790D01*
X177724655Y-95873689D01*
X177786008Y-95909411D01*
X177818309Y-95972633D01*
X177820500Y-95996027D01*
X177820500Y-98065640D01*
X177817621Y-98092420D01*
X177816641Y-98096923D01*
X177816641Y-98096928D01*
X177820339Y-98148634D01*
X177820500Y-98153130D01*
X177820500Y-98168799D01*
X177822729Y-98184311D01*
X177823209Y-98188778D01*
X177826908Y-98240480D01*
X177826910Y-98240488D01*
X177828521Y-98244808D01*
X177835177Y-98270883D01*
X177835834Y-98275455D01*
X177835836Y-98275462D01*
X177857365Y-98322603D01*
X177859086Y-98326757D01*
X177864921Y-98342399D01*
X177877204Y-98375331D01*
X177877205Y-98375332D01*
X177879968Y-98379024D01*
X177893706Y-98402178D01*
X177895619Y-98406367D01*
X177895621Y-98406370D01*
X177895622Y-98406371D01*
X177895623Y-98406373D01*
X177929565Y-98445544D01*
X177932379Y-98449036D01*
X177941779Y-98461593D01*
X177952865Y-98472679D01*
X177955919Y-98475959D01*
X177989872Y-98515143D01*
X177993751Y-98517635D01*
X178014723Y-98534537D01*
X179515595Y-100035409D01*
X179549621Y-100097721D01*
X179552500Y-100124504D01*
X179552500Y-102838434D01*
X179559298Y-102859358D01*
X179563912Y-102878577D01*
X179567353Y-102900300D01*
X179567355Y-102900306D01*
X179577341Y-102919906D01*
X179584906Y-102938169D01*
X179591703Y-102959089D01*
X179591704Y-102959091D01*
X179604631Y-102976883D01*
X179614960Y-102993738D01*
X179624948Y-103013340D01*
X179624949Y-103013341D01*
X179624950Y-103013342D01*
X179645942Y-103034334D01*
X179645955Y-103034348D01*
X179647515Y-103035908D01*
X179647516Y-103035909D01*
X180002554Y-103390947D01*
X180036578Y-103453258D01*
X180031514Y-103524073D01*
X179988967Y-103580909D01*
X179961677Y-103596450D01*
X179954765Y-103599312D01*
X179954764Y-103599313D01*
X179814767Y-103657302D01*
X179814766Y-103657303D01*
X179814760Y-103657306D01*
X179694548Y-103749548D01*
X179602306Y-103869760D01*
X179602301Y-103869768D01*
X179544312Y-104009765D01*
X179524534Y-104159999D01*
X179524534Y-104160000D01*
X179544312Y-104310234D01*
X179602301Y-104450231D01*
X179602306Y-104450239D01*
X179694548Y-104570451D01*
X179814760Y-104662693D01*
X179814767Y-104662698D01*
X179954764Y-104720687D01*
X180067280Y-104735500D01*
X180067287Y-104735500D01*
X180142713Y-104735500D01*
X180142720Y-104735500D01*
X180255236Y-104720687D01*
X180395233Y-104662698D01*
X180515451Y-104570451D01*
X180515453Y-104570448D01*
X180521795Y-104565582D01*
X180588016Y-104539981D01*
X180657564Y-104554245D01*
X180708361Y-104603846D01*
X180724500Y-104665543D01*
X180724500Y-104792396D01*
X180728883Y-104814434D01*
X180730331Y-104821713D01*
X180752543Y-104854957D01*
X180764033Y-104862634D01*
X180785785Y-104877168D01*
X180785787Y-104877169D01*
X180815101Y-104883000D01*
X181278176Y-104882999D01*
X181335153Y-104899729D01*
X181336295Y-104897468D01*
X181344723Y-104901722D01*
X181473726Y-104944158D01*
X182445847Y-104962250D01*
X182513581Y-104983516D01*
X182559068Y-105038028D01*
X182569500Y-105088228D01*
X182569500Y-108256000D01*
X182549498Y-108324121D01*
X182495842Y-108370614D01*
X182443500Y-108382000D01*
X175276500Y-108382000D01*
X175208379Y-108361998D01*
X175161886Y-108308342D01*
X175150500Y-108256000D01*
X175150500Y-94538000D01*
X175170502Y-94469879D01*
X175224158Y-94423386D01*
X175276500Y-94412000D01*
X177284520Y-94412000D01*
X177352641Y-94432002D01*
G37*
%TD.AperFunction*%
%TA.AperFunction,Conductor*%
G36*
X182595121Y-94432002D02*
G01*
X182641614Y-94485658D01*
X182653000Y-94538000D01*
X182653000Y-96629707D01*
X182632998Y-96697828D01*
X182616095Y-96718802D01*
X182495462Y-96839435D01*
X182297014Y-97037883D01*
X181714800Y-97620096D01*
X181652488Y-97654121D01*
X181625705Y-97657000D01*
X180815102Y-97657000D01*
X180785787Y-97662831D01*
X180752542Y-97685044D01*
X180730331Y-97718285D01*
X180724500Y-97747600D01*
X180724500Y-97874455D01*
X180704498Y-97942576D01*
X180650842Y-97989069D01*
X180580568Y-97999173D01*
X180521796Y-97974417D01*
X180395239Y-97877306D01*
X180395231Y-97877301D01*
X180255234Y-97819312D01*
X180142722Y-97804500D01*
X180142720Y-97804500D01*
X180067280Y-97804500D01*
X180067277Y-97804500D01*
X179954765Y-97819312D01*
X179814768Y-97877301D01*
X179814760Y-97877306D01*
X179694548Y-97969548D01*
X179602306Y-98089760D01*
X179602301Y-98089768D01*
X179544312Y-98229765D01*
X179528948Y-98346469D01*
X179500225Y-98411396D01*
X179440960Y-98450487D01*
X179369968Y-98451332D01*
X179314931Y-98419117D01*
X178858405Y-97962591D01*
X178824379Y-97900279D01*
X178821500Y-97873496D01*
X178821500Y-95749354D01*
X178824380Y-95722568D01*
X178825358Y-95718072D01*
X178821661Y-95666374D01*
X178821500Y-95661878D01*
X178821500Y-95646199D01*
X178820886Y-95641929D01*
X178819265Y-95630662D01*
X178818789Y-95626241D01*
X178815091Y-95574517D01*
X178813480Y-95570199D01*
X178806819Y-95544096D01*
X178806165Y-95539543D01*
X178784622Y-95492372D01*
X178782911Y-95488239D01*
X178764796Y-95439671D01*
X178764794Y-95439668D01*
X178762036Y-95435984D01*
X178748289Y-95412816D01*
X178746377Y-95408627D01*
X178712429Y-95369449D01*
X178709608Y-95365948D01*
X178700219Y-95353405D01*
X178689131Y-95342317D01*
X178686078Y-95339038D01*
X178652127Y-95299856D01*
X178648246Y-95297362D01*
X178627275Y-95280461D01*
X178549090Y-95202276D01*
X178515064Y-95139964D01*
X178513104Y-95128368D01*
X178498140Y-95005128D01*
X178437820Y-94846074D01*
X178437818Y-94846070D01*
X178341184Y-94706072D01*
X178257926Y-94632312D01*
X178220201Y-94572168D01*
X178220981Y-94501176D01*
X178260019Y-94441875D01*
X178324920Y-94413093D01*
X178341480Y-94412000D01*
X182527000Y-94412000D01*
X182595121Y-94432002D01*
G37*
%TD.AperFunction*%
%TA.AperFunction,Conductor*%
G36*
X214135000Y-102286000D02*
G01*
X213880999Y-102286000D01*
X213862404Y-102304595D01*
X213800092Y-102338621D01*
X213773309Y-102341500D01*
X211341655Y-102341500D01*
X211273534Y-102321498D01*
X211227041Y-102267842D01*
X211215655Y-102215205D01*
X211220703Y-100062865D01*
X211236940Y-100008045D01*
X211234940Y-100007162D01*
X211239653Y-99996485D01*
X211239656Y-99996481D01*
X211246739Y-99966365D01*
X211249320Y-99958029D01*
X211260500Y-99929173D01*
X211260500Y-99922480D01*
X211263847Y-99893631D01*
X211265379Y-99887119D01*
X211262982Y-99869942D01*
X211261105Y-99856476D01*
X211260500Y-99847761D01*
X211260500Y-97078000D01*
X211280502Y-97009879D01*
X211334158Y-96963386D01*
X211386500Y-96952000D01*
X214135000Y-96952000D01*
X214135000Y-102286000D01*
G37*
%TD.AperFunction*%
%TA.AperFunction,Conductor*%
G36*
X206013277Y-94436502D02*
G01*
X206034251Y-94453405D01*
X206793751Y-95212905D01*
X206827777Y-95275217D01*
X206822712Y-95346032D01*
X206780165Y-95402868D01*
X206713645Y-95427679D01*
X206704656Y-95428000D01*
X198909000Y-95428000D01*
X198895000Y-98476000D01*
X198895000Y-99112000D01*
X198874998Y-99180121D01*
X198821342Y-99226614D01*
X198769000Y-99238000D01*
X197624000Y-99238000D01*
X197555879Y-99217998D01*
X197509386Y-99164342D01*
X197498000Y-99112000D01*
X197498000Y-98603000D01*
X193567403Y-98603000D01*
X193499282Y-98582998D01*
X193478308Y-98566095D01*
X192085052Y-97172839D01*
X192081337Y-97168786D01*
X192055341Y-97137805D01*
X192055338Y-97137803D01*
X192020322Y-97117586D01*
X192015687Y-97114633D01*
X191982570Y-97091445D01*
X191977039Y-97088866D01*
X191961683Y-97082505D01*
X191955934Y-97080412D01*
X191932061Y-97076202D01*
X191916121Y-97073391D01*
X191910759Y-97072203D01*
X191871695Y-97061736D01*
X191871692Y-97061736D01*
X191860014Y-97062757D01*
X191831411Y-97065260D01*
X191825927Y-97065500D01*
X185137960Y-97065500D01*
X185132475Y-97065260D01*
X185103872Y-97062757D01*
X185092195Y-97061736D01*
X185092192Y-97061736D01*
X185053126Y-97072203D01*
X185047761Y-97073392D01*
X185007952Y-97080412D01*
X185002235Y-97082493D01*
X184986832Y-97088873D01*
X184981316Y-97091445D01*
X184948191Y-97114638D01*
X184943558Y-97117589D01*
X184908547Y-97137804D01*
X184908545Y-97137805D01*
X184882547Y-97168787D01*
X184878834Y-97172839D01*
X184006014Y-98045658D01*
X183943702Y-98079683D01*
X183872886Y-98074618D01*
X183816051Y-98032071D01*
X183791240Y-97965551D01*
X183790931Y-97954838D01*
X183796000Y-97587000D01*
X183796000Y-95808000D01*
X183816002Y-95739879D01*
X183869658Y-95693386D01*
X183922000Y-95682000D01*
X194590999Y-95682000D01*
X194591000Y-95682000D01*
X194589555Y-94542660D01*
X194609471Y-94474514D01*
X194663067Y-94427953D01*
X194715555Y-94416500D01*
X205945156Y-94416500D01*
X206013277Y-94436502D01*
G37*
%TD.AperFunction*%
%TA.AperFunction,Conductor*%
G36*
X209124121Y-93670002D02*
G01*
X209170614Y-93723658D01*
X209182000Y-93776000D01*
X209182000Y-95302000D01*
X209161998Y-95370121D01*
X209108342Y-95416614D01*
X209056000Y-95428000D01*
X208193821Y-95428000D01*
X208125700Y-95407998D01*
X208104731Y-95391100D01*
X206579063Y-93865431D01*
X206545038Y-93803119D01*
X206550103Y-93732303D01*
X206592650Y-93675468D01*
X206659170Y-93650657D01*
X206668125Y-93650336D01*
X208191349Y-93650000D01*
X209056000Y-93650000D01*
X209124121Y-93670002D01*
G37*
%TD.AperFunction*%
%TA.AperFunction,Conductor*%
G36*
X188783039Y-98876685D02*
G01*
X188828794Y-98929489D01*
X188840000Y-98981000D01*
X188840000Y-99154395D01*
X188839610Y-99161343D01*
X188835254Y-99199999D01*
X188835254Y-99200000D01*
X188839610Y-99238656D01*
X188840000Y-99245604D01*
X188840000Y-100000000D01*
X188986447Y-100000000D01*
X188986447Y-99999999D01*
X188942290Y-99955842D01*
X188908805Y-99894519D01*
X188913789Y-99824827D01*
X188942290Y-99780479D01*
X188997769Y-99725000D01*
X189418553Y-99725000D01*
X189590000Y-99896447D01*
X189761447Y-99725000D01*
X189590000Y-99553553D01*
X189418553Y-99725000D01*
X188997769Y-99725000D01*
X188997770Y-99724999D01*
X188942290Y-99669519D01*
X188908805Y-99608196D01*
X188913789Y-99538504D01*
X188942290Y-99494157D01*
X189203955Y-99232492D01*
X189490000Y-99232492D01*
X189528197Y-99285065D01*
X189574162Y-99300000D01*
X189605838Y-99300000D01*
X189651803Y-99285065D01*
X189690000Y-99232492D01*
X189690000Y-99167508D01*
X189651803Y-99114935D01*
X189605838Y-99100000D01*
X189574162Y-99100000D01*
X189528197Y-99114935D01*
X189490000Y-99167508D01*
X189490000Y-99232492D01*
X189203955Y-99232492D01*
X189502319Y-98934128D01*
X189563642Y-98900643D01*
X189633334Y-98905627D01*
X189677681Y-98934128D01*
X189878000Y-99134447D01*
X189878000Y-101365552D01*
X189677681Y-101565872D01*
X189616358Y-101599357D01*
X189546667Y-101594373D01*
X189502319Y-101565872D01*
X189268939Y-101332492D01*
X189490000Y-101332492D01*
X189528197Y-101385065D01*
X189574162Y-101400000D01*
X189605838Y-101400000D01*
X189651803Y-101385065D01*
X189690000Y-101332492D01*
X189690000Y-101267508D01*
X189651803Y-101214935D01*
X189605838Y-101200000D01*
X189574162Y-101200000D01*
X189528197Y-101214935D01*
X189490000Y-101267508D01*
X189490000Y-101332492D01*
X189268939Y-101332492D01*
X188942290Y-101005843D01*
X188908805Y-100944520D01*
X188913789Y-100874828D01*
X188942290Y-100830481D01*
X188997771Y-100775000D01*
X189418553Y-100775000D01*
X189590000Y-100946447D01*
X189761447Y-100775000D01*
X189590000Y-100603553D01*
X189418553Y-100775000D01*
X188997771Y-100775000D01*
X188942290Y-100719519D01*
X188908805Y-100658196D01*
X188913789Y-100588504D01*
X188942290Y-100544156D01*
X188986446Y-100500000D01*
X188840000Y-100500000D01*
X188840000Y-101254395D01*
X188839610Y-101261343D01*
X188835254Y-101299999D01*
X188835254Y-101300000D01*
X188839610Y-101338656D01*
X188840000Y-101345604D01*
X188840000Y-101527000D01*
X188820315Y-101594039D01*
X188767511Y-101639794D01*
X188716000Y-101651000D01*
X188016500Y-101651000D01*
X187949461Y-101631315D01*
X187903706Y-101578511D01*
X187892500Y-101527000D01*
X187892500Y-100895386D01*
X187912185Y-100828347D01*
X187922778Y-100814194D01*
X187974882Y-100754063D01*
X188028697Y-100636226D01*
X188047133Y-100508000D01*
X188028697Y-100379774D01*
X187984269Y-100282492D01*
X189490000Y-100282492D01*
X189528197Y-100335065D01*
X189574162Y-100350000D01*
X189605838Y-100350000D01*
X189651803Y-100335065D01*
X189690000Y-100282492D01*
X189690000Y-100217508D01*
X189651803Y-100164935D01*
X189605838Y-100150000D01*
X189574162Y-100150000D01*
X189528197Y-100164935D01*
X189490000Y-100217508D01*
X189490000Y-100282492D01*
X187984269Y-100282492D01*
X187974882Y-100261937D01*
X187890049Y-100164033D01*
X187781069Y-100093996D01*
X187781065Y-100093994D01*
X187781064Y-100093994D01*
X187656774Y-100057500D01*
X187656772Y-100057500D01*
X187527228Y-100057500D01*
X187527226Y-100057500D01*
X187402933Y-100093994D01*
X187402932Y-100093994D01*
X187402102Y-100094528D01*
X187402040Y-100094569D01*
X187402038Y-100094570D01*
X187401018Y-100094869D01*
X187394869Y-100097678D01*
X187394465Y-100096793D01*
X187334998Y-100114254D01*
X187267959Y-100094569D01*
X187222205Y-100041764D01*
X187211000Y-99990254D01*
X187211000Y-98981000D01*
X187230685Y-98913961D01*
X187283489Y-98868206D01*
X187335000Y-98857000D01*
X188716000Y-98857000D01*
X188783039Y-98876685D01*
G37*
%TD.AperFunction*%
%TA.AperFunction,Conductor*%
G36*
X209759121Y-105989002D02*
G01*
X209805614Y-106042658D01*
X209817000Y-106095000D01*
X209817000Y-111177000D01*
X209796998Y-111245121D01*
X209743342Y-111291614D01*
X209691000Y-111303000D01*
X207006582Y-111303000D01*
X206938461Y-111282998D01*
X206917487Y-111266095D01*
X206605183Y-110953791D01*
X206571157Y-110891479D01*
X206576222Y-110820664D01*
X206596879Y-110784762D01*
X206674136Y-110690625D01*
X206762396Y-110525501D01*
X206776978Y-110477433D01*
X206816746Y-110346334D01*
X206816748Y-110346323D01*
X206835099Y-110160003D01*
X206835099Y-110159996D01*
X206816748Y-109973676D01*
X206816746Y-109973665D01*
X206762398Y-109794503D01*
X206762396Y-109794499D01*
X206674135Y-109629374D01*
X206555353Y-109484638D01*
X206551905Y-109481190D01*
X206517879Y-109418878D01*
X206515000Y-109392095D01*
X206515000Y-106095000D01*
X206535002Y-106026879D01*
X206588658Y-105980386D01*
X206641000Y-105969000D01*
X209691000Y-105969000D01*
X209759121Y-105989002D01*
G37*
%TD.AperFunction*%
%TA.AperFunction,Conductor*%
G36*
X234270121Y-96972002D02*
G01*
X234316614Y-97025658D01*
X234328000Y-97078000D01*
X234328000Y-100763000D01*
X234307998Y-100831121D01*
X234254342Y-100877614D01*
X234202000Y-100889000D01*
X230391000Y-100889000D01*
X230391000Y-102160000D01*
X230370998Y-102228121D01*
X230317342Y-102274614D01*
X230265000Y-102286000D01*
X224775225Y-102286000D01*
X224707104Y-102265998D01*
X224680000Y-102242512D01*
X224615580Y-102168166D01*
X224506604Y-102098132D01*
X224506601Y-102098130D01*
X224506600Y-102098130D01*
X224485723Y-102092000D01*
X224382307Y-102061635D01*
X224382305Y-102061634D01*
X224382303Y-102061634D01*
X224252759Y-102061634D01*
X224252756Y-102061634D01*
X224252754Y-102061635D01*
X224128464Y-102098129D01*
X224128457Y-102098132D01*
X224019481Y-102168166D01*
X223955062Y-102242512D01*
X223895336Y-102280896D01*
X223859837Y-102286000D01*
X221438516Y-102286000D01*
X221370395Y-102265998D01*
X221349421Y-102249095D01*
X221095915Y-101995589D01*
X221061889Y-101933277D01*
X221060292Y-101924425D01*
X221060292Y-101924423D01*
X221048697Y-101843774D01*
X220994882Y-101725937D01*
X220910049Y-101628033D01*
X220910048Y-101628032D01*
X220801073Y-101557998D01*
X220801070Y-101557996D01*
X220801069Y-101557996D01*
X220801066Y-101557995D01*
X220676776Y-101521501D01*
X220676774Y-101521500D01*
X220676772Y-101521500D01*
X220547228Y-101521500D01*
X220547225Y-101521500D01*
X220547223Y-101521501D01*
X220422933Y-101557995D01*
X220422926Y-101557998D01*
X220313951Y-101628032D01*
X220229118Y-101725937D01*
X220175303Y-101843774D01*
X220163707Y-101924424D01*
X220134215Y-101989004D01*
X220128085Y-101995587D01*
X219925140Y-102198534D01*
X219874579Y-102249095D01*
X219812266Y-102283120D01*
X219785483Y-102286000D01*
X217487381Y-102286000D01*
X217419260Y-102265998D01*
X217392156Y-102242511D01*
X217354051Y-102198534D01*
X217354046Y-102198531D01*
X217245073Y-102128498D01*
X217245070Y-102128496D01*
X217245069Y-102128496D01*
X217245066Y-102128495D01*
X217120776Y-102092001D01*
X217120774Y-102092000D01*
X217120772Y-102092000D01*
X216991228Y-102092000D01*
X216991225Y-102092000D01*
X216991223Y-102092001D01*
X216866933Y-102128495D01*
X216866926Y-102128498D01*
X216757953Y-102198531D01*
X216757948Y-102198534D01*
X216719844Y-102242511D01*
X216660119Y-102280896D01*
X216624619Y-102286000D01*
X214135000Y-102286000D01*
X214135000Y-96952000D01*
X234202000Y-96952000D01*
X234270121Y-96972002D01*
G37*
%TD.AperFunction*%
%TA.AperFunction,Conductor*%
G36*
X207855039Y-103321685D02*
G01*
X207900794Y-103374489D01*
X207912000Y-103426000D01*
X207912000Y-104702000D01*
X207892315Y-104769039D01*
X207839511Y-104814794D01*
X207788000Y-104826000D01*
X199273000Y-104826000D01*
X199205961Y-104806315D01*
X199160206Y-104753511D01*
X199149000Y-104702000D01*
X199149000Y-103426000D01*
X199168685Y-103358961D01*
X199221489Y-103313206D01*
X199273000Y-103302000D01*
X207788000Y-103302000D01*
X207855039Y-103321685D01*
G37*
%TD.AperFunction*%
%TA.AperFunction,Conductor*%
G36*
X236791621Y-87170502D02*
G01*
X236838114Y-87224158D01*
X236849500Y-87276500D01*
X236849500Y-139723500D01*
X236829498Y-139791621D01*
X236775842Y-139838114D01*
X236723500Y-139849500D01*
X175276500Y-139849500D01*
X175208379Y-139829498D01*
X175161886Y-139775842D01*
X175150500Y-139723500D01*
X175150500Y-138106610D01*
X175849500Y-138106610D01*
X175888679Y-138316198D01*
X175965702Y-138515019D01*
X175965703Y-138515020D01*
X175965705Y-138515025D01*
X176077945Y-138696298D01*
X176077946Y-138696300D01*
X176173228Y-138800818D01*
X176221593Y-138853872D01*
X176391745Y-138982366D01*
X176582611Y-139077405D01*
X176787690Y-139135756D01*
X176946806Y-139150500D01*
X176946813Y-139150500D01*
X177053187Y-139150500D01*
X177053194Y-139150500D01*
X177212310Y-139135756D01*
X177417389Y-139077405D01*
X177608255Y-138982366D01*
X177778407Y-138853872D01*
X177922052Y-138696302D01*
X178034298Y-138515019D01*
X178111321Y-138316198D01*
X178121628Y-138261059D01*
X208505500Y-138261059D01*
X208546208Y-138426221D01*
X208546210Y-138426225D01*
X208625265Y-138576851D01*
X208625270Y-138576857D01*
X208738069Y-138704181D01*
X208738071Y-138704183D01*
X208878070Y-138800818D01*
X208878074Y-138800820D01*
X208965085Y-138833818D01*
X209037128Y-138861140D01*
X209163628Y-138876500D01*
X209163632Y-138876500D01*
X209248368Y-138876500D01*
X209248372Y-138876500D01*
X209374872Y-138861140D01*
X209533930Y-138800818D01*
X209673929Y-138704183D01*
X209786734Y-138576852D01*
X209865790Y-138426225D01*
X209906499Y-138261059D01*
X211505500Y-138261059D01*
X211546208Y-138426221D01*
X211546210Y-138426225D01*
X211625265Y-138576851D01*
X211625270Y-138576857D01*
X211738069Y-138704181D01*
X211738071Y-138704183D01*
X211878070Y-138800818D01*
X211878074Y-138800820D01*
X211965085Y-138833818D01*
X212037128Y-138861140D01*
X212163628Y-138876500D01*
X212163632Y-138876500D01*
X212248368Y-138876500D01*
X212248372Y-138876500D01*
X212374872Y-138861140D01*
X212533930Y-138800818D01*
X212673929Y-138704183D01*
X212786734Y-138576852D01*
X212865790Y-138426225D01*
X212898366Y-138294059D01*
X218284500Y-138294059D01*
X218325208Y-138459221D01*
X218325210Y-138459225D01*
X218404265Y-138609851D01*
X218404270Y-138609857D01*
X218517069Y-138737181D01*
X218517071Y-138737183D01*
X218657070Y-138833818D01*
X218657074Y-138833820D01*
X218729113Y-138861140D01*
X218816128Y-138894140D01*
X218942628Y-138909500D01*
X218942632Y-138909500D01*
X219027368Y-138909500D01*
X219027372Y-138909500D01*
X219153872Y-138894140D01*
X219312930Y-138833818D01*
X219452929Y-138737183D01*
X219565734Y-138609852D01*
X219644790Y-138459225D01*
X219685499Y-138294059D01*
X221284500Y-138294059D01*
X221325208Y-138459221D01*
X221325210Y-138459225D01*
X221404265Y-138609851D01*
X221404270Y-138609857D01*
X221517069Y-138737181D01*
X221517071Y-138737183D01*
X221657070Y-138833818D01*
X221657074Y-138833820D01*
X221729113Y-138861140D01*
X221816128Y-138894140D01*
X221942628Y-138909500D01*
X221942632Y-138909500D01*
X222027368Y-138909500D01*
X222027372Y-138909500D01*
X222153872Y-138894140D01*
X222312930Y-138833818D01*
X222452929Y-138737183D01*
X222565734Y-138609852D01*
X222644790Y-138459225D01*
X222685500Y-138294056D01*
X222685500Y-138123944D01*
X222681228Y-138106610D01*
X233849500Y-138106610D01*
X233888679Y-138316198D01*
X233965702Y-138515019D01*
X233965703Y-138515020D01*
X233965705Y-138515025D01*
X234077945Y-138696298D01*
X234077946Y-138696300D01*
X234173228Y-138800818D01*
X234221593Y-138853872D01*
X234391745Y-138982366D01*
X234582611Y-139077405D01*
X234787690Y-139135756D01*
X234946806Y-139150500D01*
X234946813Y-139150500D01*
X235053187Y-139150500D01*
X235053194Y-139150500D01*
X235212310Y-139135756D01*
X235417389Y-139077405D01*
X235608255Y-138982366D01*
X235778407Y-138853872D01*
X235922052Y-138696302D01*
X236034298Y-138515019D01*
X236111321Y-138316198D01*
X236150500Y-138106610D01*
X236150500Y-137893390D01*
X236111321Y-137683802D01*
X236034298Y-137484981D01*
X235966743Y-137375877D01*
X235922054Y-137303701D01*
X235922053Y-137303699D01*
X235778408Y-137146129D01*
X235778407Y-137146128D01*
X235608255Y-137017634D01*
X235417389Y-136922595D01*
X235417386Y-136922594D01*
X235417384Y-136922593D01*
X235212311Y-136864244D01*
X235192420Y-136862401D01*
X235053194Y-136849500D01*
X234946806Y-136849500D01*
X234823049Y-136860967D01*
X234787688Y-136864244D01*
X234582615Y-136922593D01*
X234582611Y-136922595D01*
X234391745Y-137017634D01*
X234391744Y-137017635D01*
X234221591Y-137146129D01*
X234077946Y-137303699D01*
X234077945Y-137303701D01*
X233965705Y-137484974D01*
X233965703Y-137484979D01*
X233965702Y-137484981D01*
X233956591Y-137508500D01*
X233888679Y-137683800D01*
X233888679Y-137683802D01*
X233849500Y-137893390D01*
X233849500Y-138106610D01*
X222681228Y-138106610D01*
X222644790Y-137958775D01*
X222565734Y-137808148D01*
X222536493Y-137775142D01*
X222452930Y-137680818D01*
X222452928Y-137680816D01*
X222312929Y-137584181D01*
X222312925Y-137584179D01*
X222153870Y-137523859D01*
X222027378Y-137508500D01*
X222027372Y-137508500D01*
X221942628Y-137508500D01*
X221942621Y-137508500D01*
X221816129Y-137523859D01*
X221657074Y-137584179D01*
X221657070Y-137584181D01*
X221517071Y-137680816D01*
X221517069Y-137680818D01*
X221404270Y-137808142D01*
X221404265Y-137808148D01*
X221325210Y-137958774D01*
X221325208Y-137958778D01*
X221284500Y-138123940D01*
X221284500Y-138294059D01*
X219685499Y-138294059D01*
X219685500Y-138294056D01*
X219685500Y-138123944D01*
X219644790Y-137958775D01*
X219565734Y-137808148D01*
X219536493Y-137775142D01*
X219452930Y-137680818D01*
X219452928Y-137680816D01*
X219312929Y-137584181D01*
X219312925Y-137584179D01*
X219153870Y-137523859D01*
X219027378Y-137508500D01*
X219027372Y-137508500D01*
X218942628Y-137508500D01*
X218942621Y-137508500D01*
X218816129Y-137523859D01*
X218657074Y-137584179D01*
X218657070Y-137584181D01*
X218517071Y-137680816D01*
X218517069Y-137680818D01*
X218404270Y-137808142D01*
X218404265Y-137808148D01*
X218325210Y-137958774D01*
X218325208Y-137958778D01*
X218284500Y-138123940D01*
X218284500Y-138294059D01*
X212898366Y-138294059D01*
X212906500Y-138261056D01*
X212906500Y-138090944D01*
X212904409Y-138082461D01*
X212865791Y-137925778D01*
X212865790Y-137925776D01*
X212865790Y-137925775D01*
X212786734Y-137775148D01*
X212713779Y-137692799D01*
X212673930Y-137647818D01*
X212673928Y-137647816D01*
X212533929Y-137551181D01*
X212533925Y-137551179D01*
X212374870Y-137490859D01*
X212248378Y-137475500D01*
X212248372Y-137475500D01*
X212163628Y-137475500D01*
X212163621Y-137475500D01*
X212037129Y-137490859D01*
X211878074Y-137551179D01*
X211878070Y-137551181D01*
X211738071Y-137647816D01*
X211738069Y-137647818D01*
X211625270Y-137775142D01*
X211625265Y-137775148D01*
X211546210Y-137925774D01*
X211546208Y-137925778D01*
X211505500Y-138090940D01*
X211505500Y-138261059D01*
X209906499Y-138261059D01*
X209906500Y-138261056D01*
X209906500Y-138090944D01*
X209904409Y-138082461D01*
X209865791Y-137925778D01*
X209865790Y-137925776D01*
X209865790Y-137925775D01*
X209786734Y-137775148D01*
X209713779Y-137692799D01*
X209673930Y-137647818D01*
X209673928Y-137647816D01*
X209533929Y-137551181D01*
X209533925Y-137551179D01*
X209374870Y-137490859D01*
X209248378Y-137475500D01*
X209248372Y-137475500D01*
X209163628Y-137475500D01*
X209163621Y-137475500D01*
X209037129Y-137490859D01*
X208878074Y-137551179D01*
X208878070Y-137551181D01*
X208738071Y-137647816D01*
X208738069Y-137647818D01*
X208625270Y-137775142D01*
X208625265Y-137775148D01*
X208546210Y-137925774D01*
X208546208Y-137925778D01*
X208505500Y-138090940D01*
X208505500Y-138261059D01*
X178121628Y-138261059D01*
X178150500Y-138106610D01*
X178150500Y-137893390D01*
X178111321Y-137683802D01*
X178034298Y-137484981D01*
X177966743Y-137375877D01*
X177922054Y-137303701D01*
X177922053Y-137303699D01*
X177778408Y-137146129D01*
X177778407Y-137146128D01*
X177608255Y-137017634D01*
X177417389Y-136922595D01*
X177417386Y-136922594D01*
X177417384Y-136922593D01*
X177212311Y-136864244D01*
X177192420Y-136862401D01*
X177053194Y-136849500D01*
X176946806Y-136849500D01*
X176823049Y-136860967D01*
X176787688Y-136864244D01*
X176582615Y-136922593D01*
X176582611Y-136922595D01*
X176391745Y-137017634D01*
X176391744Y-137017635D01*
X176221591Y-137146129D01*
X176077946Y-137303699D01*
X176077945Y-137303701D01*
X175965705Y-137484974D01*
X175965703Y-137484979D01*
X175965702Y-137484981D01*
X175956591Y-137508500D01*
X175888679Y-137683800D01*
X175888679Y-137683802D01*
X175849500Y-137893390D01*
X175849500Y-138106610D01*
X175150500Y-138106610D01*
X175150500Y-136216000D01*
X178950732Y-136216000D01*
X178969778Y-136470160D01*
X179026491Y-136718635D01*
X179119605Y-136955884D01*
X179119608Y-136955892D01*
X179247038Y-137176608D01*
X179405953Y-137375881D01*
X179529873Y-137490860D01*
X179592783Y-137549232D01*
X179592789Y-137549236D01*
X179803356Y-137692799D01*
X179803363Y-137692803D01*
X179803366Y-137692805D01*
X179935748Y-137756557D01*
X180032991Y-137803387D01*
X180033004Y-137803392D01*
X180276531Y-137878510D01*
X180276534Y-137878510D01*
X180276542Y-137878513D01*
X180528565Y-137916500D01*
X180528570Y-137916500D01*
X180783430Y-137916500D01*
X180783435Y-137916500D01*
X181035458Y-137878513D01*
X181263576Y-137808148D01*
X181278995Y-137803392D01*
X181278997Y-137803390D01*
X181279004Y-137803389D01*
X181508634Y-137692805D01*
X181719217Y-137549232D01*
X181906050Y-137375877D01*
X182064959Y-137176612D01*
X182192393Y-136955888D01*
X182285508Y-136718637D01*
X182342222Y-136470157D01*
X182361268Y-136216000D01*
X200950732Y-136216000D01*
X200969778Y-136470160D01*
X201026491Y-136718635D01*
X201119605Y-136955884D01*
X201119608Y-136955892D01*
X201247038Y-137176608D01*
X201405953Y-137375881D01*
X201529873Y-137490860D01*
X201592783Y-137549232D01*
X201592789Y-137549236D01*
X201803356Y-137692799D01*
X201803363Y-137692803D01*
X201803366Y-137692805D01*
X201935748Y-137756557D01*
X202032991Y-137803387D01*
X202033004Y-137803392D01*
X202276531Y-137878510D01*
X202276534Y-137878510D01*
X202276542Y-137878513D01*
X202528565Y-137916500D01*
X202528570Y-137916500D01*
X202783430Y-137916500D01*
X202783435Y-137916500D01*
X203035458Y-137878513D01*
X203263576Y-137808148D01*
X203278995Y-137803392D01*
X203278997Y-137803390D01*
X203279004Y-137803389D01*
X203508634Y-137692805D01*
X203719217Y-137549232D01*
X203906050Y-137375877D01*
X204064959Y-137176612D01*
X204192393Y-136955888D01*
X204285508Y-136718637D01*
X204342222Y-136470157D01*
X204361268Y-136216000D01*
X204342222Y-135961843D01*
X204285508Y-135713363D01*
X204192393Y-135476112D01*
X204192392Y-135476111D01*
X204192391Y-135476107D01*
X204064961Y-135255391D01*
X203906046Y-135056118D01*
X203719222Y-134882773D01*
X203719217Y-134882768D01*
X203719210Y-134882763D01*
X203508643Y-134739200D01*
X203508636Y-134739196D01*
X203279008Y-134628612D01*
X203278995Y-134628607D01*
X203035468Y-134553489D01*
X203035458Y-134553487D01*
X202783435Y-134515500D01*
X202528565Y-134515500D01*
X202318545Y-134547155D01*
X202276541Y-134553487D01*
X202276531Y-134553489D01*
X202033004Y-134628607D01*
X202032991Y-134628612D01*
X201803363Y-134739196D01*
X201803356Y-134739200D01*
X201592789Y-134882763D01*
X201592777Y-134882773D01*
X201405953Y-135056118D01*
X201247038Y-135255391D01*
X201119608Y-135476107D01*
X201119605Y-135476115D01*
X201026491Y-135713364D01*
X200969778Y-135961839D01*
X200950732Y-136216000D01*
X182361268Y-136216000D01*
X182342222Y-135961843D01*
X182285508Y-135713363D01*
X182192393Y-135476112D01*
X182192392Y-135476111D01*
X182192391Y-135476107D01*
X182064961Y-135255391D01*
X181906046Y-135056118D01*
X181719222Y-134882773D01*
X181719217Y-134882768D01*
X181719210Y-134882763D01*
X181508643Y-134739200D01*
X181508636Y-134739196D01*
X181279008Y-134628612D01*
X181278995Y-134628607D01*
X181035468Y-134553489D01*
X181035458Y-134553487D01*
X180783435Y-134515500D01*
X180528565Y-134515500D01*
X180318545Y-134547155D01*
X180276541Y-134553487D01*
X180276531Y-134553489D01*
X180033004Y-134628607D01*
X180032991Y-134628612D01*
X179803363Y-134739196D01*
X179803356Y-134739200D01*
X179592789Y-134882763D01*
X179592777Y-134882773D01*
X179405953Y-135056118D01*
X179247038Y-135255391D01*
X179119608Y-135476107D01*
X179119605Y-135476115D01*
X179026491Y-135713364D01*
X178969778Y-135961839D01*
X178950732Y-136216000D01*
X175150500Y-136216000D01*
X175150500Y-110160003D01*
X176984901Y-110160003D01*
X177003251Y-110346323D01*
X177003253Y-110346334D01*
X177057601Y-110525496D01*
X177057603Y-110525500D01*
X177124199Y-110650092D01*
X177145864Y-110690625D01*
X177264643Y-110835357D01*
X177409375Y-110954136D01*
X177532406Y-111019897D01*
X177574499Y-111042396D01*
X177574503Y-111042398D01*
X177753665Y-111096746D01*
X177753666Y-111096746D01*
X177753669Y-111096747D01*
X177753672Y-111096747D01*
X177753676Y-111096748D01*
X177939997Y-111115099D01*
X177940000Y-111115099D01*
X177940002Y-111115099D01*
X178003325Y-111108862D01*
X178036149Y-111105629D01*
X178105903Y-111118857D01*
X178157431Y-111167697D01*
X178174500Y-111231022D01*
X178174500Y-115259104D01*
X178163114Y-115311445D01*
X178138303Y-115365774D01*
X178119867Y-115494000D01*
X178138303Y-115622226D01*
X178192118Y-115740063D01*
X178246992Y-115803392D01*
X178276951Y-115837967D01*
X178337214Y-115876696D01*
X178385931Y-115908004D01*
X178510228Y-115944500D01*
X178510232Y-115944500D01*
X178639768Y-115944500D01*
X178639772Y-115944500D01*
X178764069Y-115908004D01*
X178873049Y-115837967D01*
X178957882Y-115740063D01*
X179011697Y-115622226D01*
X179030133Y-115494000D01*
X179011697Y-115365774D01*
X178986885Y-115311445D01*
X178975500Y-115259104D01*
X178975500Y-115176527D01*
X178995502Y-115108406D01*
X179049158Y-115061913D01*
X179119432Y-115051809D01*
X179184012Y-115081303D01*
X179210619Y-115113526D01*
X179247041Y-115176612D01*
X179334685Y-115286514D01*
X179405953Y-115375881D01*
X179533257Y-115494000D01*
X179592783Y-115549232D01*
X179592789Y-115549236D01*
X179803356Y-115692799D01*
X179803363Y-115692803D01*
X179803366Y-115692805D01*
X179935748Y-115756557D01*
X180032991Y-115803387D01*
X180033004Y-115803392D01*
X180276531Y-115878510D01*
X180276534Y-115878510D01*
X180276542Y-115878513D01*
X180528565Y-115916500D01*
X180528570Y-115916500D01*
X180783430Y-115916500D01*
X180783435Y-115916500D01*
X181035458Y-115878513D01*
X181041355Y-115876694D01*
X181278995Y-115803392D01*
X181278997Y-115803390D01*
X181279004Y-115803389D01*
X181508634Y-115692805D01*
X181719217Y-115549232D01*
X181906050Y-115375877D01*
X182064959Y-115176612D01*
X182192393Y-114955888D01*
X182285508Y-114718637D01*
X182342222Y-114470157D01*
X182361268Y-114216000D01*
X182342222Y-113961843D01*
X182285508Y-113713363D01*
X182192393Y-113476112D01*
X182192392Y-113476111D01*
X182192391Y-113476107D01*
X182064961Y-113255391D01*
X182062330Y-113252092D01*
X181906050Y-113056123D01*
X181906049Y-113056122D01*
X181906046Y-113056118D01*
X181719222Y-112882773D01*
X181719217Y-112882768D01*
X181715084Y-112879950D01*
X181508643Y-112739200D01*
X181508636Y-112739196D01*
X181279008Y-112628612D01*
X181278995Y-112628607D01*
X181035468Y-112553489D01*
X181035458Y-112553487D01*
X180783435Y-112515500D01*
X180528565Y-112515500D01*
X180318545Y-112547155D01*
X180276541Y-112553487D01*
X180276531Y-112553489D01*
X180033004Y-112628607D01*
X180032991Y-112628612D01*
X179803363Y-112739196D01*
X179803356Y-112739200D01*
X179592789Y-112882763D01*
X179592777Y-112882773D01*
X179405953Y-113056118D01*
X179247038Y-113255391D01*
X179210619Y-113318472D01*
X179159236Y-113367465D01*
X179089523Y-113380901D01*
X179023612Y-113354515D01*
X178982430Y-113296682D01*
X178975500Y-113255472D01*
X178975500Y-110731567D01*
X178968703Y-110710650D01*
X178964086Y-110691417D01*
X178960646Y-110669696D01*
X178960646Y-110669695D01*
X178950658Y-110650092D01*
X178943092Y-110631826D01*
X178936296Y-110610912D01*
X178936295Y-110610909D01*
X178923369Y-110593118D01*
X178913038Y-110576260D01*
X178903050Y-110556658D01*
X178903048Y-110556655D01*
X178887318Y-110540925D01*
X178853292Y-110478613D01*
X178855839Y-110415253D01*
X178876746Y-110346334D01*
X178876747Y-110346331D01*
X178876747Y-110346328D01*
X178876748Y-110346326D01*
X178895099Y-110160003D01*
X179524901Y-110160003D01*
X179543251Y-110346323D01*
X179543253Y-110346334D01*
X179597601Y-110525496D01*
X179597603Y-110525500D01*
X179664199Y-110650092D01*
X179685864Y-110690625D01*
X179804643Y-110835357D01*
X179949375Y-110954136D01*
X180072406Y-111019897D01*
X180114499Y-111042396D01*
X180114503Y-111042398D01*
X180293665Y-111096746D01*
X180293666Y-111096746D01*
X180293669Y-111096747D01*
X180293672Y-111096747D01*
X180293676Y-111096748D01*
X180479997Y-111115099D01*
X180480000Y-111115099D01*
X180480003Y-111115099D01*
X180666323Y-111096748D01*
X180666325Y-111096747D01*
X180666331Y-111096747D01*
X180710083Y-111083475D01*
X180845496Y-111042398D01*
X180845498Y-111042396D01*
X180845501Y-111042396D01*
X181010625Y-110954136D01*
X181155357Y-110835357D01*
X181274136Y-110690625D01*
X181362396Y-110525501D01*
X181362925Y-110523760D01*
X181416746Y-110346334D01*
X181416748Y-110346323D01*
X181435099Y-110160003D01*
X181435099Y-110159996D01*
X181416748Y-109973676D01*
X181416746Y-109973665D01*
X181362398Y-109794503D01*
X181362396Y-109794499D01*
X181330376Y-109734594D01*
X181274136Y-109629375D01*
X181155357Y-109484643D01*
X181010625Y-109365864D01*
X180996451Y-109358288D01*
X180845500Y-109277603D01*
X180845496Y-109277601D01*
X180666334Y-109223253D01*
X180666323Y-109223251D01*
X180480003Y-109204901D01*
X180479997Y-109204901D01*
X180293676Y-109223251D01*
X180293665Y-109223253D01*
X180114503Y-109277601D01*
X180114499Y-109277603D01*
X179949374Y-109365864D01*
X179804643Y-109484643D01*
X179685864Y-109629374D01*
X179597603Y-109794499D01*
X179597601Y-109794503D01*
X179543253Y-109973665D01*
X179543251Y-109973676D01*
X179524901Y-110159996D01*
X179524901Y-110160003D01*
X178895099Y-110160003D01*
X178895099Y-110159996D01*
X178876748Y-109973676D01*
X178876746Y-109973665D01*
X178822398Y-109794503D01*
X178822396Y-109794499D01*
X178790376Y-109734594D01*
X178734136Y-109629375D01*
X178615357Y-109484643D01*
X178470625Y-109365864D01*
X178456451Y-109358288D01*
X178305500Y-109277603D01*
X178305496Y-109277601D01*
X178126334Y-109223253D01*
X178126323Y-109223251D01*
X177940003Y-109204901D01*
X177939997Y-109204901D01*
X177753676Y-109223251D01*
X177753665Y-109223253D01*
X177574503Y-109277601D01*
X177574499Y-109277603D01*
X177409374Y-109365864D01*
X177264643Y-109484643D01*
X177145864Y-109629374D01*
X177057603Y-109794499D01*
X177057601Y-109794503D01*
X177003253Y-109973665D01*
X177003251Y-109973676D01*
X176984901Y-110159996D01*
X176984901Y-110160003D01*
X175150500Y-110160003D01*
X175150500Y-108713500D01*
X175170502Y-108645379D01*
X175224158Y-108598886D01*
X175276500Y-108587500D01*
X182443500Y-108587500D01*
X182511621Y-108607502D01*
X182558114Y-108661158D01*
X182569500Y-108713500D01*
X182569500Y-109083500D01*
X182549498Y-109151621D01*
X182495842Y-109198114D01*
X182443500Y-109209500D01*
X182160103Y-109209500D01*
X182130787Y-109215331D01*
X182097545Y-109237542D01*
X182097542Y-109237544D01*
X182075331Y-109270785D01*
X182069500Y-109300100D01*
X182069500Y-111019897D01*
X182073069Y-111037839D01*
X182075331Y-111049213D01*
X182097543Y-111082457D01*
X182101294Y-111084963D01*
X182130785Y-111104668D01*
X182130787Y-111104669D01*
X182160101Y-111110500D01*
X183879898Y-111110499D01*
X183909213Y-111104669D01*
X183942457Y-111082457D01*
X183964669Y-111049213D01*
X183970500Y-111019899D01*
X183970500Y-110160003D01*
X184604901Y-110160003D01*
X184623251Y-110346323D01*
X184623253Y-110346334D01*
X184677601Y-110525496D01*
X184677603Y-110525500D01*
X184744199Y-110650092D01*
X184765864Y-110690625D01*
X184884643Y-110835357D01*
X184983633Y-110916596D01*
X185029372Y-110954134D01*
X185029373Y-110954134D01*
X185029375Y-110954136D01*
X185192898Y-111041540D01*
X185243544Y-111091289D01*
X185259500Y-111152660D01*
X185259500Y-129202866D01*
X185239498Y-129270987D01*
X185228726Y-129285376D01*
X185177118Y-129344937D01*
X185123303Y-129462774D01*
X185104867Y-129591000D01*
X185123303Y-129719226D01*
X185177118Y-129837063D01*
X185261951Y-129934967D01*
X185370931Y-130005004D01*
X185495228Y-130041500D01*
X185495232Y-130041500D01*
X185624768Y-130041500D01*
X185624772Y-130041500D01*
X185749069Y-130005004D01*
X185858049Y-129934967D01*
X185942882Y-129837063D01*
X185996697Y-129719226D01*
X186015133Y-129591000D01*
X185996697Y-129462774D01*
X185942882Y-129344937D01*
X185891273Y-129285376D01*
X185861782Y-129220796D01*
X185860500Y-129202866D01*
X185860500Y-111152660D01*
X185880502Y-111084539D01*
X185927100Y-111041540D01*
X186090625Y-110954136D01*
X186235357Y-110835357D01*
X186354136Y-110690625D01*
X186442396Y-110525501D01*
X186442925Y-110523760D01*
X186496746Y-110346334D01*
X186496748Y-110346323D01*
X186515099Y-110160003D01*
X186515099Y-110159996D01*
X186496748Y-109973676D01*
X186496746Y-109973665D01*
X186442398Y-109794503D01*
X186442396Y-109794499D01*
X186410376Y-109734594D01*
X186354136Y-109629375D01*
X186235357Y-109484643D01*
X186090625Y-109365864D01*
X186076451Y-109358288D01*
X185925500Y-109277603D01*
X185925496Y-109277601D01*
X185746334Y-109223253D01*
X185746323Y-109223251D01*
X185560003Y-109204901D01*
X185559997Y-109204901D01*
X185373676Y-109223251D01*
X185373665Y-109223253D01*
X185194503Y-109277601D01*
X185194499Y-109277603D01*
X185029374Y-109365864D01*
X184884643Y-109484643D01*
X184765864Y-109629374D01*
X184677603Y-109794499D01*
X184677601Y-109794503D01*
X184623253Y-109973665D01*
X184623251Y-109973676D01*
X184604901Y-110159996D01*
X184604901Y-110160003D01*
X183970500Y-110160003D01*
X183970499Y-109300102D01*
X183964669Y-109270787D01*
X183942457Y-109237543D01*
X183921070Y-109223253D01*
X183909214Y-109215331D01*
X183879899Y-109209500D01*
X183596500Y-109209500D01*
X183528379Y-109189498D01*
X183481886Y-109135842D01*
X183470500Y-109083500D01*
X183470500Y-105109688D01*
X183490502Y-105041567D01*
X183544158Y-104995074D01*
X183598841Y-104983710D01*
X185609301Y-105021130D01*
X185617100Y-105021762D01*
X185622228Y-105022500D01*
X185682823Y-105022500D01*
X185686106Y-105022561D01*
X185712365Y-105023050D01*
X185712366Y-105023049D01*
X185712373Y-105023050D01*
X185712449Y-105023039D01*
X185720683Y-105022500D01*
X185751772Y-105022500D01*
X185771073Y-105016832D01*
X185790102Y-105012809D01*
X185813162Y-105009772D01*
X185836934Y-104998864D01*
X185853975Y-104992491D01*
X185876069Y-104986004D01*
X185900053Y-104970589D01*
X185907843Y-104966327D01*
X185936593Y-104953136D01*
X185953153Y-104938333D01*
X185968993Y-104926284D01*
X185985049Y-104915967D01*
X186006013Y-104891771D01*
X186011634Y-104886061D01*
X186037846Y-104862634D01*
X186047270Y-104846989D01*
X186059968Y-104829503D01*
X186069882Y-104818063D01*
X186084641Y-104785742D01*
X186087980Y-104779414D01*
X186088510Y-104778533D01*
X186107925Y-104746308D01*
X186111368Y-104732414D01*
X186119054Y-104710392D01*
X186122885Y-104702003D01*
X186123697Y-104700226D01*
X186129249Y-104661603D01*
X186130456Y-104655418D01*
X186140603Y-104614495D01*
X186140021Y-104604152D01*
X186141104Y-104579152D01*
X186142133Y-104572000D01*
X186136078Y-104529888D01*
X186135540Y-104524500D01*
X186132976Y-104478905D01*
X186130751Y-104472912D01*
X186124160Y-104446998D01*
X186123697Y-104443774D01*
X186104577Y-104401910D01*
X186102835Y-104397695D01*
X186085723Y-104351588D01*
X186084244Y-104349662D01*
X186071344Y-104328212D01*
X186069882Y-104325937D01*
X186037455Y-104288514D01*
X186035089Y-104285614D01*
X186013545Y-104257543D01*
X185987938Y-104191325D01*
X185987500Y-104180829D01*
X185987500Y-103872905D01*
X185988105Y-103864189D01*
X185989771Y-103852240D01*
X185989773Y-103852235D01*
X185987567Y-103804509D01*
X185987500Y-103801600D01*
X185987500Y-103782161D01*
X185987500Y-103782156D01*
X185987020Y-103779592D01*
X185986013Y-103770926D01*
X185984585Y-103740008D01*
X185981879Y-103733879D01*
X185973290Y-103706143D01*
X185972061Y-103699567D01*
X185955770Y-103673257D01*
X185951710Y-103665553D01*
X185939206Y-103637234D01*
X185934473Y-103632501D01*
X185916442Y-103609738D01*
X185912919Y-103604048D01*
X185912917Y-103604046D01*
X185888234Y-103585406D01*
X185881645Y-103579673D01*
X185668852Y-103366879D01*
X185634826Y-103304567D01*
X185633230Y-103295717D01*
X185628474Y-103262640D01*
X185638577Y-103192366D01*
X185685069Y-103138710D01*
X185753190Y-103118707D01*
X185821311Y-103138709D01*
X185842286Y-103155612D01*
X187870084Y-105183410D01*
X187904110Y-105245722D01*
X187905706Y-105254573D01*
X187917301Y-105335219D01*
X187917302Y-105335223D01*
X187917302Y-105335224D01*
X187917303Y-105335226D01*
X187971118Y-105453063D01*
X188032924Y-105524392D01*
X188055951Y-105550967D01*
X188131488Y-105599512D01*
X188164931Y-105621004D01*
X188289228Y-105657500D01*
X188289232Y-105657500D01*
X188418768Y-105657500D01*
X188418772Y-105657500D01*
X188442003Y-105650679D01*
X188512998Y-105650679D01*
X188572724Y-105689062D01*
X188602217Y-105753643D01*
X188603500Y-105771575D01*
X188603500Y-106349984D01*
X188583498Y-106418105D01*
X188566595Y-106439079D01*
X188381079Y-106624595D01*
X188318767Y-106658621D01*
X188291984Y-106661500D01*
X188289228Y-106661500D01*
X188289225Y-106661500D01*
X188289223Y-106661501D01*
X188164933Y-106697995D01*
X188164926Y-106697998D01*
X188055951Y-106768032D01*
X188008754Y-106822502D01*
X187971118Y-106865937D01*
X187917303Y-106983774D01*
X187898867Y-107112000D01*
X187917303Y-107240226D01*
X187971118Y-107358063D01*
X188055951Y-107455967D01*
X188164931Y-107526004D01*
X188289228Y-107562500D01*
X188289232Y-107562500D01*
X188418768Y-107562500D01*
X188418772Y-107562500D01*
X188543069Y-107526004D01*
X188652049Y-107455967D01*
X188736882Y-107358063D01*
X188790697Y-107240226D01*
X188802292Y-107159571D01*
X188831785Y-107094992D01*
X188837901Y-107088423D01*
X189147186Y-106779138D01*
X189151204Y-106775456D01*
X189182194Y-106749455D01*
X189202415Y-106714428D01*
X189205352Y-106709817D01*
X189228554Y-106676684D01*
X189228555Y-106676681D01*
X189231157Y-106671101D01*
X189237479Y-106655838D01*
X189239587Y-106650046D01*
X189239588Y-106650045D01*
X189246607Y-106610231D01*
X189247798Y-106604863D01*
X189258264Y-106565808D01*
X189254740Y-106525518D01*
X189254500Y-106520026D01*
X189254500Y-105058662D01*
X189274502Y-104990541D01*
X189328158Y-104944048D01*
X189398432Y-104933944D01*
X189463012Y-104963438D01*
X189469595Y-104969567D01*
X193177036Y-108677008D01*
X193182765Y-108683592D01*
X193190042Y-108693229D01*
X193225347Y-108725413D01*
X193227430Y-108727402D01*
X193241203Y-108741175D01*
X193243360Y-108742653D01*
X193250202Y-108748071D01*
X193273067Y-108768916D01*
X193279307Y-108771333D01*
X193304996Y-108784873D01*
X193310520Y-108788657D01*
X193310521Y-108788657D01*
X193310523Y-108788658D01*
X193340633Y-108795740D01*
X193348967Y-108798320D01*
X193377827Y-108809500D01*
X193384520Y-108809500D01*
X193413367Y-108812847D01*
X193419881Y-108814379D01*
X193442435Y-108811232D01*
X193450522Y-108810105D01*
X193459236Y-108809500D01*
X196940339Y-108809500D01*
X197008460Y-108829502D01*
X197029434Y-108846405D01*
X197541317Y-109358288D01*
X197575343Y-109420600D01*
X197570278Y-109491415D01*
X197549621Y-109527317D01*
X197465864Y-109629374D01*
X197377603Y-109794499D01*
X197377601Y-109794503D01*
X197323253Y-109973665D01*
X197323251Y-109973676D01*
X197304901Y-110159996D01*
X197304901Y-110160003D01*
X197323251Y-110346323D01*
X197323253Y-110346334D01*
X197377601Y-110525496D01*
X197377603Y-110525500D01*
X197444199Y-110650092D01*
X197465864Y-110690625D01*
X197584643Y-110835357D01*
X197707369Y-110936076D01*
X197729376Y-110954137D01*
X197792895Y-110988088D01*
X197843544Y-111037839D01*
X197859500Y-111099210D01*
X197859500Y-112354917D01*
X197839498Y-112423038D01*
X197822595Y-112444012D01*
X196988012Y-113278595D01*
X196925700Y-113312621D01*
X196898917Y-113315500D01*
X196461904Y-113315500D01*
X196393783Y-113295498D01*
X196350782Y-113248896D01*
X196346926Y-113241681D01*
X196301910Y-113157462D01*
X196176883Y-113005117D01*
X196024538Y-112880090D01*
X195895920Y-112811342D01*
X195850728Y-112787186D01*
X195662125Y-112729974D01*
X195466003Y-112710659D01*
X195465997Y-112710659D01*
X195269875Y-112729974D01*
X195269873Y-112729974D01*
X195081271Y-112787186D01*
X194907461Y-112880090D01*
X194755117Y-113005117D01*
X194630090Y-113157461D01*
X194537186Y-113331271D01*
X194479974Y-113519873D01*
X194479974Y-113519875D01*
X194460659Y-113715996D01*
X194460659Y-113716003D01*
X194479974Y-113912124D01*
X194479974Y-113912126D01*
X194537186Y-114100728D01*
X194598800Y-114215999D01*
X194630090Y-114274538D01*
X194755117Y-114426883D01*
X194907462Y-114551910D01*
X195081273Y-114644814D01*
X195269868Y-114702024D01*
X195269872Y-114702024D01*
X195269874Y-114702025D01*
X195465997Y-114721341D01*
X195466000Y-114721341D01*
X195466003Y-114721341D01*
X195662124Y-114702025D01*
X195662126Y-114702025D01*
X195662127Y-114702024D01*
X195662132Y-114702024D01*
X195850727Y-114644814D01*
X196024538Y-114551910D01*
X196176883Y-114426883D01*
X196301910Y-114274538D01*
X196350782Y-114183102D01*
X196400534Y-114132456D01*
X196461904Y-114116500D01*
X197180431Y-114116500D01*
X197180433Y-114116500D01*
X197201360Y-114109700D01*
X197220569Y-114105088D01*
X197242304Y-114101646D01*
X197261910Y-114091655D01*
X197280161Y-114084095D01*
X197301090Y-114077296D01*
X197318891Y-114064362D01*
X197335741Y-114054036D01*
X197355342Y-114044050D01*
X197370717Y-114028673D01*
X197370726Y-114028667D01*
X197637591Y-113761802D01*
X198565483Y-112833909D01*
X198588050Y-112811342D01*
X198598035Y-112791743D01*
X198608366Y-112774884D01*
X198621296Y-112757090D01*
X198628094Y-112736163D01*
X198635659Y-112717902D01*
X198645646Y-112698304D01*
X198649088Y-112676569D01*
X198653700Y-112657360D01*
X198660500Y-112636433D01*
X198660500Y-112509567D01*
X198660500Y-111099210D01*
X198680502Y-111031089D01*
X198727105Y-110988088D01*
X198790623Y-110954137D01*
X198790622Y-110954137D01*
X198790625Y-110954136D01*
X198935357Y-110835357D01*
X199054136Y-110690625D01*
X199142396Y-110525501D01*
X199142925Y-110523760D01*
X199196746Y-110346334D01*
X199196748Y-110346323D01*
X199215099Y-110160003D01*
X199215099Y-110159996D01*
X199196748Y-109973676D01*
X199196746Y-109973665D01*
X199142398Y-109794503D01*
X199142396Y-109794499D01*
X199110376Y-109734594D01*
X199054136Y-109629375D01*
X198935357Y-109484643D01*
X198790625Y-109365864D01*
X198776451Y-109358288D01*
X198625500Y-109277603D01*
X198625496Y-109277601D01*
X198446334Y-109223253D01*
X198446323Y-109223251D01*
X198280318Y-109206901D01*
X198214486Y-109180318D01*
X198203574Y-109170603D01*
X197788841Y-108755870D01*
X197373961Y-108340990D01*
X197368233Y-108334407D01*
X197360957Y-108324771D01*
X197325640Y-108292575D01*
X197323556Y-108290585D01*
X197309797Y-108276826D01*
X197309796Y-108276825D01*
X197309795Y-108276824D01*
X197307642Y-108275349D01*
X197300799Y-108269929D01*
X197277934Y-108249084D01*
X197277931Y-108249083D01*
X197271685Y-108246663D01*
X197245998Y-108233123D01*
X197240480Y-108229343D01*
X197240479Y-108229342D01*
X197210367Y-108222259D01*
X197202027Y-108219677D01*
X197173174Y-108208500D01*
X197173173Y-108208500D01*
X197166480Y-108208500D01*
X197137633Y-108205153D01*
X197131119Y-108203621D01*
X197131118Y-108203621D01*
X197100478Y-108207895D01*
X197091764Y-108208500D01*
X193610661Y-108208500D01*
X193542540Y-108188498D01*
X193521566Y-108171595D01*
X188165651Y-102815680D01*
X188131625Y-102753368D01*
X188136690Y-102682553D01*
X188179237Y-102625717D01*
X188219240Y-102605692D01*
X188330569Y-102573004D01*
X188439549Y-102502967D01*
X188439551Y-102502964D01*
X188446358Y-102497067D01*
X188447210Y-102498051D01*
X188499262Y-102464603D01*
X188534756Y-102459500D01*
X192622339Y-102459500D01*
X192690460Y-102479502D01*
X192711434Y-102496405D01*
X199885596Y-109670567D01*
X199919622Y-109732879D01*
X199917076Y-109796237D01*
X199863252Y-109973671D01*
X199863251Y-109973676D01*
X199844901Y-110159996D01*
X199844901Y-110160003D01*
X199863251Y-110346323D01*
X199863253Y-110346334D01*
X199917601Y-110525496D01*
X199917603Y-110525500D01*
X199984199Y-110650092D01*
X200005864Y-110690625D01*
X200124643Y-110835357D01*
X200247369Y-110936076D01*
X200269376Y-110954137D01*
X200332895Y-110988088D01*
X200383544Y-111037839D01*
X200399500Y-111099210D01*
X200399500Y-113116917D01*
X200379498Y-113185038D01*
X200362595Y-113206012D01*
X198258012Y-115310595D01*
X198195700Y-115344621D01*
X198168917Y-115347500D01*
X195176083Y-115347500D01*
X195107962Y-115327498D01*
X195086988Y-115310595D01*
X193913407Y-114137014D01*
X193879381Y-114074702D01*
X193881928Y-114011342D01*
X193889719Y-113985659D01*
X193912024Y-113912132D01*
X193917143Y-113860161D01*
X193931341Y-113716003D01*
X193931341Y-113715996D01*
X193912025Y-113519875D01*
X193912025Y-113519873D01*
X193912024Y-113519870D01*
X193912024Y-113519868D01*
X193854814Y-113331273D01*
X193761910Y-113157462D01*
X193636883Y-113005117D01*
X193484538Y-112880090D01*
X193355920Y-112811342D01*
X193310728Y-112787186D01*
X193122125Y-112729974D01*
X192926003Y-112710659D01*
X192925997Y-112710659D01*
X192729875Y-112729974D01*
X192729873Y-112729974D01*
X192541271Y-112787186D01*
X192367461Y-112880090D01*
X192215117Y-113005117D01*
X192090090Y-113157461D01*
X191997186Y-113331271D01*
X191939974Y-113519873D01*
X191939974Y-113519874D01*
X191936085Y-113559362D01*
X191909501Y-113625194D01*
X191851546Y-113666203D01*
X191780620Y-113669369D01*
X191719242Y-113633687D01*
X191686898Y-113570486D01*
X191685171Y-113557990D01*
X191679048Y-113487997D01*
X191619813Y-113266931D01*
X191619811Y-113266926D01*
X191523086Y-113059498D01*
X191473100Y-112988110D01*
X191473098Y-112988110D01*
X190784727Y-113676481D01*
X190771165Y-113590852D01*
X190713641Y-113477955D01*
X190624045Y-113388359D01*
X190511148Y-113330835D01*
X190425517Y-113317272D01*
X191113888Y-112628899D01*
X191113888Y-112628898D01*
X191042501Y-112578913D01*
X190835073Y-112482188D01*
X190835068Y-112482186D01*
X190614000Y-112422951D01*
X190614004Y-112422951D01*
X190386000Y-112403004D01*
X190157997Y-112422951D01*
X189936931Y-112482186D01*
X189936926Y-112482188D01*
X189729500Y-112578913D01*
X189658109Y-112628900D01*
X190346481Y-113317272D01*
X190260852Y-113330835D01*
X190147955Y-113388359D01*
X190058359Y-113477955D01*
X190000835Y-113590852D01*
X189987272Y-113676481D01*
X189298900Y-112988109D01*
X189248913Y-113059500D01*
X189152188Y-113266926D01*
X189152186Y-113266931D01*
X189092951Y-113487997D01*
X189086828Y-113557992D01*
X189060964Y-113624110D01*
X189003461Y-113665750D01*
X188932573Y-113669690D01*
X188870809Y-113634680D01*
X188837777Y-113571836D01*
X188835914Y-113559359D01*
X188832025Y-113519876D01*
X188832025Y-113519873D01*
X188832024Y-113519870D01*
X188832024Y-113519868D01*
X188774814Y-113331273D01*
X188681910Y-113157462D01*
X188556883Y-113005117D01*
X188404538Y-112880090D01*
X188275920Y-112811342D01*
X188230728Y-112787186D01*
X188042125Y-112729974D01*
X187846003Y-112710659D01*
X187845997Y-112710659D01*
X187649875Y-112729974D01*
X187649873Y-112729974D01*
X187461271Y-112787186D01*
X187287458Y-112880091D01*
X187252912Y-112908443D01*
X187187565Y-112936196D01*
X187117587Y-112924214D01*
X187065196Y-112876300D01*
X187046980Y-112811043D01*
X187046980Y-111690181D01*
X187066982Y-111622060D01*
X187083880Y-111601090D01*
X187610568Y-111074401D01*
X187672879Y-111040378D01*
X187736238Y-111042924D01*
X187913665Y-111096746D01*
X187913666Y-111096746D01*
X187913669Y-111096747D01*
X187913672Y-111096747D01*
X187913676Y-111096748D01*
X188099997Y-111115099D01*
X188100000Y-111115099D01*
X188100003Y-111115099D01*
X188286323Y-111096748D01*
X188286325Y-111096747D01*
X188286331Y-111096747D01*
X188330083Y-111083475D01*
X188465496Y-111042398D01*
X188465498Y-111042396D01*
X188465501Y-111042396D01*
X188630625Y-110954136D01*
X188775357Y-110835357D01*
X188894136Y-110690625D01*
X188982396Y-110525501D01*
X188982925Y-110523760D01*
X189036746Y-110346334D01*
X189036748Y-110346323D01*
X189055099Y-110160003D01*
X189684901Y-110160003D01*
X189703251Y-110346323D01*
X189703253Y-110346334D01*
X189757601Y-110525496D01*
X189757603Y-110525500D01*
X189824199Y-110650092D01*
X189845864Y-110690625D01*
X189964643Y-110835357D01*
X190109375Y-110954136D01*
X190232406Y-111019897D01*
X190274499Y-111042396D01*
X190274503Y-111042398D01*
X190453665Y-111096746D01*
X190453666Y-111096746D01*
X190453669Y-111096747D01*
X190453672Y-111096747D01*
X190453676Y-111096748D01*
X190639997Y-111115099D01*
X190640000Y-111115099D01*
X190640003Y-111115099D01*
X190826323Y-111096748D01*
X190826325Y-111096747D01*
X190826331Y-111096747D01*
X190870083Y-111083475D01*
X191005496Y-111042398D01*
X191005498Y-111042396D01*
X191005501Y-111042396D01*
X191170625Y-110954136D01*
X191315357Y-110835357D01*
X191434136Y-110690625D01*
X191522396Y-110525501D01*
X191522925Y-110523760D01*
X191576746Y-110346334D01*
X191576748Y-110346323D01*
X191595099Y-110160003D01*
X192224901Y-110160003D01*
X192243251Y-110346323D01*
X192243253Y-110346334D01*
X192297601Y-110525496D01*
X192297603Y-110525500D01*
X192364199Y-110650092D01*
X192385864Y-110690625D01*
X192504643Y-110835357D01*
X192649375Y-110954136D01*
X192772406Y-111019897D01*
X192814499Y-111042396D01*
X192814503Y-111042398D01*
X192993665Y-111096746D01*
X192993666Y-111096746D01*
X192993669Y-111096747D01*
X192993672Y-111096747D01*
X192993676Y-111096748D01*
X193179997Y-111115099D01*
X193180000Y-111115099D01*
X193180003Y-111115099D01*
X193366323Y-111096748D01*
X193366325Y-111096747D01*
X193366331Y-111096747D01*
X193410083Y-111083475D01*
X193545496Y-111042398D01*
X193545498Y-111042396D01*
X193545501Y-111042396D01*
X193587594Y-111019897D01*
X194769500Y-111019897D01*
X194773069Y-111037839D01*
X194775331Y-111049213D01*
X194797543Y-111082457D01*
X194801294Y-111084963D01*
X194830785Y-111104668D01*
X194830787Y-111104669D01*
X194860101Y-111110500D01*
X196579898Y-111110499D01*
X196609213Y-111104669D01*
X196642457Y-111082457D01*
X196664669Y-111049213D01*
X196670500Y-111019899D01*
X196670499Y-109300102D01*
X196664669Y-109270787D01*
X196642457Y-109237543D01*
X196621070Y-109223253D01*
X196609214Y-109215331D01*
X196579899Y-109209500D01*
X194860102Y-109209500D01*
X194830787Y-109215331D01*
X194797545Y-109237542D01*
X194797542Y-109237544D01*
X194775331Y-109270785D01*
X194769500Y-109300100D01*
X194769500Y-111019897D01*
X193587594Y-111019897D01*
X193710625Y-110954136D01*
X193855357Y-110835357D01*
X193974136Y-110690625D01*
X194062396Y-110525501D01*
X194062925Y-110523760D01*
X194116746Y-110346334D01*
X194116748Y-110346323D01*
X194135099Y-110160003D01*
X194135099Y-110159996D01*
X194116748Y-109973676D01*
X194116746Y-109973665D01*
X194062398Y-109794503D01*
X194062396Y-109794499D01*
X194030376Y-109734594D01*
X193974136Y-109629375D01*
X193855357Y-109484643D01*
X193710625Y-109365864D01*
X193696451Y-109358288D01*
X193545500Y-109277603D01*
X193545496Y-109277601D01*
X193366334Y-109223253D01*
X193366323Y-109223251D01*
X193180003Y-109204901D01*
X193179997Y-109204901D01*
X192993676Y-109223251D01*
X192993665Y-109223253D01*
X192814503Y-109277601D01*
X192814499Y-109277603D01*
X192649374Y-109365864D01*
X192504643Y-109484643D01*
X192385864Y-109629374D01*
X192297603Y-109794499D01*
X192297601Y-109794503D01*
X192243253Y-109973665D01*
X192243251Y-109973676D01*
X192224901Y-110159996D01*
X192224901Y-110160003D01*
X191595099Y-110160003D01*
X191595099Y-110159996D01*
X191576748Y-109973676D01*
X191576746Y-109973665D01*
X191522398Y-109794503D01*
X191522396Y-109794499D01*
X191490376Y-109734594D01*
X191434136Y-109629375D01*
X191315357Y-109484643D01*
X191170625Y-109365864D01*
X191156451Y-109358288D01*
X191005500Y-109277603D01*
X191005496Y-109277601D01*
X190826334Y-109223253D01*
X190826323Y-109223251D01*
X190640003Y-109204901D01*
X190639997Y-109204901D01*
X190453676Y-109223251D01*
X190453665Y-109223253D01*
X190274503Y-109277601D01*
X190274499Y-109277603D01*
X190109374Y-109365864D01*
X189964643Y-109484643D01*
X189845864Y-109629374D01*
X189757603Y-109794499D01*
X189757601Y-109794503D01*
X189703253Y-109973665D01*
X189703251Y-109973676D01*
X189684901Y-110159996D01*
X189684901Y-110160003D01*
X189055099Y-110160003D01*
X189055099Y-110159996D01*
X189036748Y-109973676D01*
X189036746Y-109973665D01*
X188982398Y-109794503D01*
X188982396Y-109794499D01*
X188950376Y-109734594D01*
X188894136Y-109629375D01*
X188775357Y-109484643D01*
X188630625Y-109365864D01*
X188616451Y-109358288D01*
X188465500Y-109277603D01*
X188465496Y-109277601D01*
X188286334Y-109223253D01*
X188286323Y-109223251D01*
X188100003Y-109204901D01*
X188099997Y-109204901D01*
X187913676Y-109223251D01*
X187913665Y-109223253D01*
X187734503Y-109277601D01*
X187734499Y-109277603D01*
X187569374Y-109365864D01*
X187424643Y-109484643D01*
X187305864Y-109629374D01*
X187217603Y-109794499D01*
X187217601Y-109794503D01*
X187163253Y-109973665D01*
X187163251Y-109973676D01*
X187144901Y-110159996D01*
X187144901Y-110160003D01*
X187163251Y-110346323D01*
X187163251Y-110346325D01*
X187217076Y-110523760D01*
X187217709Y-110594754D01*
X187185596Y-110649431D01*
X186578482Y-111256546D01*
X186571896Y-111262277D01*
X186562253Y-111269559D01*
X186530055Y-111304878D01*
X186528049Y-111306979D01*
X186514306Y-111320723D01*
X186514295Y-111320736D01*
X186512819Y-111322890D01*
X186507406Y-111329722D01*
X186486563Y-111352586D01*
X186484141Y-111358839D01*
X186470608Y-111384513D01*
X186466824Y-111390037D01*
X186466822Y-111390040D01*
X186459739Y-111420153D01*
X186457156Y-111428494D01*
X186445980Y-111457344D01*
X186445980Y-111464039D01*
X186442634Y-111492885D01*
X186441101Y-111499402D01*
X186445375Y-111530042D01*
X186445980Y-111538756D01*
X186445980Y-129788939D01*
X186425978Y-129857060D01*
X186410502Y-129874919D01*
X186410852Y-129875222D01*
X186320119Y-129979934D01*
X186320119Y-129979935D01*
X186320118Y-129979936D01*
X186320118Y-129979937D01*
X186266303Y-130097774D01*
X186247867Y-130226000D01*
X186266303Y-130354226D01*
X186320118Y-130472063D01*
X186404951Y-130569967D01*
X186513931Y-130640004D01*
X186638228Y-130676500D01*
X186638232Y-130676500D01*
X186767768Y-130676500D01*
X186767772Y-130676500D01*
X186892069Y-130640004D01*
X187001049Y-130569967D01*
X187085882Y-130472063D01*
X187139697Y-130354226D01*
X187158133Y-130226000D01*
X187139697Y-130097774D01*
X187085882Y-129979937D01*
X187077752Y-129970554D01*
X187048262Y-129905975D01*
X187046980Y-129888046D01*
X187046980Y-114620956D01*
X187066982Y-114552835D01*
X187120638Y-114506342D01*
X187190912Y-114496238D01*
X187252913Y-114523556D01*
X187287462Y-114551910D01*
X187461273Y-114644814D01*
X187649868Y-114702024D01*
X187649872Y-114702024D01*
X187649874Y-114702025D01*
X187845997Y-114721341D01*
X187846000Y-114721341D01*
X187846003Y-114721341D01*
X188042124Y-114702025D01*
X188042126Y-114702025D01*
X188042127Y-114702024D01*
X188042132Y-114702024D01*
X188230727Y-114644814D01*
X188404538Y-114551910D01*
X188556883Y-114426883D01*
X188681910Y-114274538D01*
X188774814Y-114100727D01*
X188832024Y-113912132D01*
X188835914Y-113872640D01*
X188862496Y-113806808D01*
X188920450Y-113765797D01*
X188991376Y-113762629D01*
X189052755Y-113798310D01*
X189085100Y-113861510D01*
X189086828Y-113874007D01*
X189092951Y-113944002D01*
X189152186Y-114165068D01*
X189152188Y-114165073D01*
X189248913Y-114372501D01*
X189298899Y-114443888D01*
X189987272Y-113755516D01*
X190000835Y-113841148D01*
X190058359Y-113954045D01*
X190147955Y-114043641D01*
X190260852Y-114101165D01*
X190346482Y-114114727D01*
X189658110Y-114803098D01*
X189658110Y-114803100D01*
X189729498Y-114853086D01*
X189936926Y-114949811D01*
X189936931Y-114949813D01*
X190157999Y-115009048D01*
X190157995Y-115009048D01*
X190386000Y-115028995D01*
X190614002Y-115009048D01*
X190835068Y-114949813D01*
X190835073Y-114949811D01*
X191042497Y-114853088D01*
X191113888Y-114803099D01*
X191113888Y-114803097D01*
X190425518Y-114114727D01*
X190511148Y-114101165D01*
X190624045Y-114043641D01*
X190713641Y-113954045D01*
X190771165Y-113841148D01*
X190784727Y-113755518D01*
X191473097Y-114443888D01*
X191473099Y-114443888D01*
X191523088Y-114372497D01*
X191619811Y-114165073D01*
X191619813Y-114165068D01*
X191679048Y-113944002D01*
X191685171Y-113874009D01*
X191711034Y-113807890D01*
X191768537Y-113766250D01*
X191839424Y-113762309D01*
X191901189Y-113797317D01*
X191934222Y-113860161D01*
X191936085Y-113872637D01*
X191939974Y-113912125D01*
X191939974Y-113912126D01*
X191997186Y-114100728D01*
X192058800Y-114215999D01*
X192090090Y-114274538D01*
X192215117Y-114426883D01*
X192367462Y-114551910D01*
X192541273Y-114644814D01*
X192729868Y-114702024D01*
X192729872Y-114702024D01*
X192729874Y-114702025D01*
X192925997Y-114721341D01*
X192926000Y-114721341D01*
X192926003Y-114721341D01*
X193122124Y-114702025D01*
X193122125Y-114702024D01*
X193122132Y-114702024D01*
X193221343Y-114671927D01*
X193292336Y-114671294D01*
X193347014Y-114703407D01*
X194699008Y-116055402D01*
X194699027Y-116055419D01*
X194719654Y-116076046D01*
X194719659Y-116076051D01*
X194739254Y-116086035D01*
X194756113Y-116096366D01*
X194773908Y-116109295D01*
X194773910Y-116109296D01*
X194794827Y-116116092D01*
X194813097Y-116123659D01*
X194832696Y-116133646D01*
X194854431Y-116137088D01*
X194873636Y-116141699D01*
X194894567Y-116148500D01*
X194894569Y-116148500D01*
X198450431Y-116148500D01*
X198450433Y-116148500D01*
X198471360Y-116141700D01*
X198490569Y-116137088D01*
X198512304Y-116133646D01*
X198531910Y-116123655D01*
X198550161Y-116116095D01*
X198571090Y-116109296D01*
X198588891Y-116096362D01*
X198605741Y-116086036D01*
X198625342Y-116076050D01*
X198640717Y-116060673D01*
X198640726Y-116060667D01*
X198901277Y-115800116D01*
X200748312Y-113953078D01*
X200810621Y-113919056D01*
X200881436Y-113924120D01*
X200938272Y-113966667D01*
X200963083Y-114033187D01*
X200963052Y-114051591D01*
X200950732Y-114215999D01*
X200969778Y-114470160D01*
X201026491Y-114718635D01*
X201119605Y-114955884D01*
X201119608Y-114955892D01*
X201247038Y-115176608D01*
X201405953Y-115375881D01*
X201533257Y-115494000D01*
X201592783Y-115549232D01*
X201592789Y-115549236D01*
X201803356Y-115692799D01*
X201803363Y-115692803D01*
X201803366Y-115692805D01*
X201935748Y-115756557D01*
X202032991Y-115803387D01*
X202033004Y-115803392D01*
X202276531Y-115878510D01*
X202276534Y-115878510D01*
X202276542Y-115878513D01*
X202528565Y-115916500D01*
X202528570Y-115916500D01*
X202783430Y-115916500D01*
X202783435Y-115916500D01*
X203035458Y-115878513D01*
X203041355Y-115876694D01*
X203278995Y-115803392D01*
X203278997Y-115803390D01*
X203279004Y-115803389D01*
X203508634Y-115692805D01*
X203719217Y-115549232D01*
X203906050Y-115375877D01*
X204064959Y-115176612D01*
X204192393Y-114955888D01*
X204220210Y-114885011D01*
X204263716Y-114828908D01*
X204330649Y-114805231D01*
X204399756Y-114821500D01*
X204449098Y-114872548D01*
X204463500Y-114931045D01*
X204463500Y-131769104D01*
X204452114Y-131821445D01*
X204427303Y-131875774D01*
X204408867Y-132004000D01*
X204427303Y-132132226D01*
X204481118Y-132250063D01*
X204565951Y-132347967D01*
X204674931Y-132418004D01*
X204799228Y-132454500D01*
X204799232Y-132454500D01*
X204928768Y-132454500D01*
X204928772Y-132454500D01*
X205053069Y-132418004D01*
X205162049Y-132347967D01*
X205246882Y-132250063D01*
X205300697Y-132132226D01*
X205319133Y-132004000D01*
X205300697Y-131875774D01*
X205275885Y-131821445D01*
X205264500Y-131769104D01*
X205264500Y-131369000D01*
X220918867Y-131369000D01*
X220937303Y-131497226D01*
X220991118Y-131615063D01*
X221075951Y-131712967D01*
X221184931Y-131783004D01*
X221309228Y-131819500D01*
X221309232Y-131819500D01*
X221438768Y-131819500D01*
X221438772Y-131819500D01*
X221563069Y-131783004D01*
X221672049Y-131712967D01*
X221756882Y-131615063D01*
X221810697Y-131497226D01*
X221825808Y-131392121D01*
X221855300Y-131327544D01*
X221861416Y-131320975D01*
X223965483Y-129216909D01*
X223988050Y-129194342D01*
X223998035Y-129174743D01*
X224008366Y-129157884D01*
X224021296Y-129140090D01*
X224028094Y-129119165D01*
X224035661Y-129100899D01*
X224045645Y-129081306D01*
X224045645Y-129081305D01*
X224045646Y-129081304D01*
X224049087Y-129059570D01*
X224053701Y-129040352D01*
X224060499Y-129019433D01*
X224060499Y-128990117D01*
X224060500Y-128990092D01*
X224060500Y-111099210D01*
X224080502Y-111031089D01*
X224127105Y-110988088D01*
X224190623Y-110954137D01*
X224190622Y-110954137D01*
X224190625Y-110954136D01*
X224335357Y-110835357D01*
X224454136Y-110690625D01*
X224542396Y-110525501D01*
X224542925Y-110523760D01*
X224596746Y-110346334D01*
X224596748Y-110346323D01*
X224615099Y-110160003D01*
X225244901Y-110160003D01*
X225263251Y-110346323D01*
X225263253Y-110346334D01*
X225317601Y-110525496D01*
X225317603Y-110525500D01*
X225384199Y-110650092D01*
X225405864Y-110690625D01*
X225524643Y-110835357D01*
X225669375Y-110954136D01*
X225792406Y-111019897D01*
X225834499Y-111042396D01*
X225834503Y-111042398D01*
X226013665Y-111096746D01*
X226013666Y-111096746D01*
X226013669Y-111096747D01*
X226013672Y-111096747D01*
X226013676Y-111096748D01*
X226199997Y-111115099D01*
X226200000Y-111115099D01*
X226200003Y-111115099D01*
X226386323Y-111096748D01*
X226386325Y-111096747D01*
X226386331Y-111096747D01*
X226430083Y-111083475D01*
X226565496Y-111042398D01*
X226565498Y-111042396D01*
X226565501Y-111042396D01*
X226730625Y-110954136D01*
X226875357Y-110835357D01*
X226994136Y-110690625D01*
X227082396Y-110525501D01*
X227082925Y-110523760D01*
X227136746Y-110346334D01*
X227136748Y-110346323D01*
X227155099Y-110160003D01*
X227155099Y-110159996D01*
X227136748Y-109973676D01*
X227136746Y-109973665D01*
X227082398Y-109794503D01*
X227082396Y-109794499D01*
X227050376Y-109734594D01*
X226994136Y-109629375D01*
X226875357Y-109484643D01*
X226730625Y-109365864D01*
X226716451Y-109358288D01*
X226565500Y-109277603D01*
X226565496Y-109277601D01*
X226386334Y-109223253D01*
X226386323Y-109223251D01*
X226200003Y-109204901D01*
X226199997Y-109204901D01*
X226013676Y-109223251D01*
X226013665Y-109223253D01*
X225834503Y-109277601D01*
X225834499Y-109277603D01*
X225669374Y-109365864D01*
X225524643Y-109484643D01*
X225405864Y-109629374D01*
X225317603Y-109794499D01*
X225317601Y-109794503D01*
X225263253Y-109973665D01*
X225263251Y-109973676D01*
X225244901Y-110159996D01*
X225244901Y-110160003D01*
X224615099Y-110160003D01*
X224615099Y-110159996D01*
X224596748Y-109973676D01*
X224596746Y-109973665D01*
X224542398Y-109794503D01*
X224542396Y-109794499D01*
X224510376Y-109734594D01*
X224454136Y-109629375D01*
X224335357Y-109484643D01*
X224190625Y-109365864D01*
X224176451Y-109358288D01*
X224025500Y-109277603D01*
X224025496Y-109277601D01*
X223846334Y-109223253D01*
X223846323Y-109223251D01*
X223660003Y-109204901D01*
X223659997Y-109204901D01*
X223473676Y-109223251D01*
X223473665Y-109223253D01*
X223294503Y-109277601D01*
X223294499Y-109277603D01*
X223129374Y-109365864D01*
X222984643Y-109484643D01*
X222865864Y-109629374D01*
X222777603Y-109794499D01*
X222777601Y-109794503D01*
X222723253Y-109973665D01*
X222723251Y-109973676D01*
X222704901Y-110159996D01*
X222704901Y-110160003D01*
X222723251Y-110346323D01*
X222723253Y-110346334D01*
X222777601Y-110525496D01*
X222777603Y-110525500D01*
X222844199Y-110650092D01*
X222865864Y-110690625D01*
X222984643Y-110835357D01*
X223107369Y-110936076D01*
X223129376Y-110954137D01*
X223192895Y-110988088D01*
X223243544Y-111037839D01*
X223259500Y-111099210D01*
X223259500Y-128737917D01*
X223239498Y-128806038D01*
X223222595Y-128827012D01*
X221045953Y-131003653D01*
X221045950Y-131003658D01*
X221035962Y-131023258D01*
X221025640Y-131040102D01*
X221012704Y-131057909D01*
X221012703Y-131057910D01*
X221005904Y-131078835D01*
X220998340Y-131097095D01*
X220988355Y-131116691D01*
X220988352Y-131116701D01*
X220988062Y-131118534D01*
X220978229Y-131151156D01*
X220937304Y-131240770D01*
X220937303Y-131240773D01*
X220937303Y-131240774D01*
X220918867Y-131369000D01*
X205264500Y-131369000D01*
X205264500Y-128463250D01*
X207927500Y-128463250D01*
X207930714Y-128479410D01*
X207939133Y-128521731D01*
X207983448Y-128588052D01*
X208049769Y-128632367D01*
X208108252Y-128644000D01*
X208108253Y-128644000D01*
X209747747Y-128644000D01*
X209747748Y-128644000D01*
X209806231Y-128632367D01*
X209872552Y-128588052D01*
X209916867Y-128521731D01*
X209928500Y-128463248D01*
X209928500Y-127643503D01*
X210462659Y-127643503D01*
X210481974Y-127839624D01*
X210481974Y-127839626D01*
X210539186Y-128028228D01*
X210632090Y-128202038D01*
X210757117Y-128354383D01*
X210909462Y-128479410D01*
X211083273Y-128572314D01*
X211271868Y-128629524D01*
X211271872Y-128629524D01*
X211271874Y-128629525D01*
X211467997Y-128648841D01*
X211468000Y-128648841D01*
X211468003Y-128648841D01*
X211664124Y-128629525D01*
X211664126Y-128629525D01*
X211664127Y-128629524D01*
X211664132Y-128629524D01*
X211852727Y-128572314D01*
X212026538Y-128479410D01*
X212178883Y-128354383D01*
X212303910Y-128202038D01*
X212396814Y-128028227D01*
X212454024Y-127839632D01*
X212473341Y-127643503D01*
X213002659Y-127643503D01*
X213021974Y-127839624D01*
X213021974Y-127839626D01*
X213079186Y-128028228D01*
X213172090Y-128202038D01*
X213297117Y-128354383D01*
X213449462Y-128479410D01*
X213623273Y-128572314D01*
X213811868Y-128629524D01*
X213811872Y-128629524D01*
X213811874Y-128629525D01*
X214007997Y-128648841D01*
X214008000Y-128648841D01*
X214008003Y-128648841D01*
X214204124Y-128629525D01*
X214204126Y-128629525D01*
X214204127Y-128629524D01*
X214204132Y-128629524D01*
X214392727Y-128572314D01*
X214566538Y-128479410D01*
X214718883Y-128354383D01*
X214843910Y-128202038D01*
X214936814Y-128028227D01*
X214994024Y-127839632D01*
X215013341Y-127643503D01*
X215542659Y-127643503D01*
X215561974Y-127839624D01*
X215561974Y-127839626D01*
X215619186Y-128028228D01*
X215712090Y-128202038D01*
X215837117Y-128354383D01*
X215989462Y-128479410D01*
X216163273Y-128572314D01*
X216351868Y-128629524D01*
X216351872Y-128629524D01*
X216351874Y-128629525D01*
X216547997Y-128648841D01*
X216548000Y-128648841D01*
X216548003Y-128648841D01*
X216744124Y-128629525D01*
X216744126Y-128629525D01*
X216744127Y-128629524D01*
X216744132Y-128629524D01*
X216932727Y-128572314D01*
X217106538Y-128479410D01*
X217258883Y-128354383D01*
X217383910Y-128202038D01*
X217476814Y-128028227D01*
X217534024Y-127839632D01*
X217553341Y-127643503D01*
X218082659Y-127643503D01*
X218101974Y-127839624D01*
X218101974Y-127839626D01*
X218159186Y-128028228D01*
X218252090Y-128202038D01*
X218377117Y-128354383D01*
X218529462Y-128479410D01*
X218703273Y-128572314D01*
X218891868Y-128629524D01*
X218891872Y-128629524D01*
X218891874Y-128629525D01*
X219087997Y-128648841D01*
X219088000Y-128648841D01*
X219088003Y-128648841D01*
X219284124Y-128629525D01*
X219284126Y-128629525D01*
X219284127Y-128629524D01*
X219284132Y-128629524D01*
X219472727Y-128572314D01*
X219646538Y-128479410D01*
X219798883Y-128354383D01*
X219923910Y-128202038D01*
X220016814Y-128028227D01*
X220074024Y-127839632D01*
X220093341Y-127643503D01*
X220622659Y-127643503D01*
X220641974Y-127839624D01*
X220641974Y-127839626D01*
X220699186Y-128028228D01*
X220792090Y-128202038D01*
X220917117Y-128354383D01*
X221069462Y-128479410D01*
X221243273Y-128572314D01*
X221431868Y-128629524D01*
X221431872Y-128629524D01*
X221431874Y-128629525D01*
X221627997Y-128648841D01*
X221628000Y-128648841D01*
X221628003Y-128648841D01*
X221824124Y-128629525D01*
X221824126Y-128629525D01*
X221824127Y-128629524D01*
X221824132Y-128629524D01*
X222012727Y-128572314D01*
X222186538Y-128479410D01*
X222338883Y-128354383D01*
X222463910Y-128202038D01*
X222556814Y-128028227D01*
X222614024Y-127839632D01*
X222633341Y-127643500D01*
X222614025Y-127447375D01*
X222614025Y-127447373D01*
X222614024Y-127447370D01*
X222614024Y-127447368D01*
X222556814Y-127258773D01*
X222463910Y-127084962D01*
X222338883Y-126932617D01*
X222186538Y-126807590D01*
X222107365Y-126765271D01*
X222012728Y-126714686D01*
X221824125Y-126657474D01*
X221628003Y-126638159D01*
X221627997Y-126638159D01*
X221431875Y-126657474D01*
X221431873Y-126657474D01*
X221243271Y-126714686D01*
X221069461Y-126807590D01*
X220917117Y-126932617D01*
X220792090Y-127084961D01*
X220699186Y-127258771D01*
X220641974Y-127447373D01*
X220641974Y-127447375D01*
X220622659Y-127643496D01*
X220622659Y-127643503D01*
X220093341Y-127643503D01*
X220093341Y-127643500D01*
X220074025Y-127447375D01*
X220074025Y-127447373D01*
X220074024Y-127447370D01*
X220074024Y-127447368D01*
X220016814Y-127258773D01*
X219923910Y-127084962D01*
X219798883Y-126932617D01*
X219646538Y-126807590D01*
X219567365Y-126765271D01*
X219472728Y-126714686D01*
X219284125Y-126657474D01*
X219088003Y-126638159D01*
X219087997Y-126638159D01*
X218891875Y-126657474D01*
X218891873Y-126657474D01*
X218703271Y-126714686D01*
X218529461Y-126807590D01*
X218377117Y-126932617D01*
X218252090Y-127084961D01*
X218159186Y-127258771D01*
X218101974Y-127447373D01*
X218101974Y-127447375D01*
X218082659Y-127643496D01*
X218082659Y-127643503D01*
X217553341Y-127643503D01*
X217553341Y-127643500D01*
X217534025Y-127447375D01*
X217534025Y-127447373D01*
X217534024Y-127447370D01*
X217534024Y-127447368D01*
X217476814Y-127258773D01*
X217383910Y-127084962D01*
X217258883Y-126932617D01*
X217106538Y-126807590D01*
X217027365Y-126765271D01*
X216932728Y-126714686D01*
X216744125Y-126657474D01*
X216548003Y-126638159D01*
X216547997Y-126638159D01*
X216351875Y-126657474D01*
X216351873Y-126657474D01*
X216163271Y-126714686D01*
X215989461Y-126807590D01*
X215837117Y-126932617D01*
X215712090Y-127084961D01*
X215619186Y-127258771D01*
X215561974Y-127447373D01*
X215561974Y-127447375D01*
X215542659Y-127643496D01*
X215542659Y-127643503D01*
X215013341Y-127643503D01*
X215013341Y-127643500D01*
X214994025Y-127447375D01*
X214994025Y-127447373D01*
X214994024Y-127447370D01*
X214994024Y-127447368D01*
X214936814Y-127258773D01*
X214843910Y-127084962D01*
X214718883Y-126932617D01*
X214566538Y-126807590D01*
X214487365Y-126765271D01*
X214392728Y-126714686D01*
X214204125Y-126657474D01*
X214008003Y-126638159D01*
X214007997Y-126638159D01*
X213811875Y-126657474D01*
X213811873Y-126657474D01*
X213623271Y-126714686D01*
X213449461Y-126807590D01*
X213297117Y-126932617D01*
X213172090Y-127084961D01*
X213079186Y-127258771D01*
X213021974Y-127447373D01*
X213021974Y-127447375D01*
X213002659Y-127643496D01*
X213002659Y-127643503D01*
X212473341Y-127643503D01*
X212473341Y-127643500D01*
X212454025Y-127447375D01*
X212454025Y-127447373D01*
X212454024Y-127447370D01*
X212454024Y-127447368D01*
X212396814Y-127258773D01*
X212303910Y-127084962D01*
X212178883Y-126932617D01*
X212026538Y-126807590D01*
X211947365Y-126765271D01*
X211852728Y-126714686D01*
X211664125Y-126657474D01*
X211468003Y-126638159D01*
X211467997Y-126638159D01*
X211271875Y-126657474D01*
X211271873Y-126657474D01*
X211083271Y-126714686D01*
X210909461Y-126807590D01*
X210757117Y-126932617D01*
X210632090Y-127084961D01*
X210539186Y-127258771D01*
X210481974Y-127447373D01*
X210481974Y-127447375D01*
X210462659Y-127643496D01*
X210462659Y-127643503D01*
X209928500Y-127643503D01*
X209928500Y-126823752D01*
X209916867Y-126765269D01*
X209872552Y-126698948D01*
X209806231Y-126654633D01*
X209806228Y-126654632D01*
X209747750Y-126643000D01*
X209747748Y-126643000D01*
X208108252Y-126643000D01*
X208108249Y-126643000D01*
X208049771Y-126654632D01*
X208049768Y-126654633D01*
X207983448Y-126698948D01*
X207939133Y-126765268D01*
X207939132Y-126765271D01*
X207927500Y-126823749D01*
X207927500Y-128463250D01*
X205264500Y-128463250D01*
X205264500Y-113209082D01*
X205284502Y-113140961D01*
X205338158Y-113094468D01*
X205408432Y-113084364D01*
X205473012Y-113113858D01*
X205479586Y-113119978D01*
X206009660Y-113650052D01*
X208490595Y-116130987D01*
X208524621Y-116193299D01*
X208527500Y-116220082D01*
X208527500Y-119027594D01*
X208507498Y-119095715D01*
X208460897Y-119138716D01*
X208369461Y-119187590D01*
X208217117Y-119312617D01*
X208092090Y-119464961D01*
X207999186Y-119638771D01*
X207941974Y-119827373D01*
X207941974Y-119827375D01*
X207922659Y-120023496D01*
X207922659Y-120023503D01*
X207941974Y-120219624D01*
X207941974Y-120219626D01*
X207999186Y-120408228D01*
X208092090Y-120582038D01*
X208217117Y-120734383D01*
X208369462Y-120859410D01*
X208543273Y-120952314D01*
X208731868Y-121009524D01*
X208731872Y-121009524D01*
X208731874Y-121009525D01*
X208927997Y-121028841D01*
X208928000Y-121028841D01*
X208928003Y-121028841D01*
X209124124Y-121009525D01*
X209124126Y-121009525D01*
X209124127Y-121009524D01*
X209124132Y-121009524D01*
X209312727Y-120952314D01*
X209486538Y-120859410D01*
X209638883Y-120734383D01*
X209763910Y-120582038D01*
X209856814Y-120408227D01*
X209914024Y-120219632D01*
X209933341Y-120023500D01*
X209914025Y-119827375D01*
X209914025Y-119827373D01*
X209914024Y-119827370D01*
X209914024Y-119827368D01*
X209856814Y-119638773D01*
X209763910Y-119464962D01*
X209638883Y-119312617D01*
X209486538Y-119187590D01*
X209395103Y-119138716D01*
X209344455Y-119088963D01*
X209328500Y-119027594D01*
X209328500Y-115968120D01*
X209328499Y-115968091D01*
X209328499Y-115938567D01*
X209321703Y-115917654D01*
X209317087Y-115898430D01*
X209313646Y-115876696D01*
X209303656Y-115857090D01*
X209296092Y-115838827D01*
X209289296Y-115817910D01*
X209276366Y-115800114D01*
X209266035Y-115783256D01*
X209256050Y-115763658D01*
X209166342Y-115673950D01*
X204217240Y-110724847D01*
X204183214Y-110662535D01*
X204188279Y-110591720D01*
X204195209Y-110576363D01*
X204222396Y-110525501D01*
X204276747Y-110346331D01*
X204276747Y-110346326D01*
X204276748Y-110346325D01*
X204276748Y-110346323D01*
X204295099Y-110160003D01*
X204924901Y-110160003D01*
X204943251Y-110346323D01*
X204943253Y-110346334D01*
X204997601Y-110525496D01*
X204997603Y-110525500D01*
X205064199Y-110650092D01*
X205085864Y-110690625D01*
X205204643Y-110835357D01*
X205349375Y-110954136D01*
X205514499Y-111042396D01*
X205551049Y-111053483D01*
X205603570Y-111084963D01*
X208323433Y-113804826D01*
X211030595Y-116511987D01*
X211064621Y-116574299D01*
X211067500Y-116601082D01*
X211067500Y-119027594D01*
X211047498Y-119095715D01*
X211000897Y-119138716D01*
X210909461Y-119187590D01*
X210757117Y-119312617D01*
X210632090Y-119464961D01*
X210539186Y-119638771D01*
X210481974Y-119827373D01*
X210481974Y-119827375D01*
X210462659Y-120023496D01*
X210462659Y-120023503D01*
X210481974Y-120219624D01*
X210481974Y-120219626D01*
X210539186Y-120408228D01*
X210632090Y-120582038D01*
X210757117Y-120734383D01*
X210909462Y-120859410D01*
X211083273Y-120952314D01*
X211271868Y-121009524D01*
X211271872Y-121009524D01*
X211271874Y-121009525D01*
X211467997Y-121028841D01*
X211468000Y-121028841D01*
X211468003Y-121028841D01*
X211664124Y-121009525D01*
X211664126Y-121009525D01*
X211664127Y-121009524D01*
X211664132Y-121009524D01*
X211852727Y-120952314D01*
X212026538Y-120859410D01*
X212178883Y-120734383D01*
X212303910Y-120582038D01*
X212396814Y-120408227D01*
X212454024Y-120219632D01*
X212473341Y-120023500D01*
X212454025Y-119827375D01*
X212454025Y-119827373D01*
X212454024Y-119827370D01*
X212454024Y-119827368D01*
X212396814Y-119638773D01*
X212303910Y-119464962D01*
X212178883Y-119312617D01*
X212026538Y-119187590D01*
X211935103Y-119138716D01*
X211884455Y-119088963D01*
X211868500Y-119027594D01*
X211868500Y-116349120D01*
X211868499Y-116349091D01*
X211868499Y-116319567D01*
X211861703Y-116298654D01*
X211857087Y-116279430D01*
X211853646Y-116257696D01*
X211843656Y-116238090D01*
X211836092Y-116219827D01*
X211829296Y-116198910D01*
X211816366Y-116181114D01*
X211806035Y-116164256D01*
X211796050Y-116144658D01*
X211706342Y-116054950D01*
X207374988Y-111723595D01*
X207340962Y-111661283D01*
X207346027Y-111590467D01*
X207388574Y-111533632D01*
X207455094Y-111508821D01*
X207464083Y-111508500D01*
X209690994Y-111508500D01*
X209691000Y-111508500D01*
X209734681Y-111503804D01*
X209787023Y-111492418D01*
X209797203Y-111489930D01*
X209877916Y-111446921D01*
X209919638Y-111410768D01*
X209931569Y-111400431D01*
X209931568Y-111400432D01*
X209937379Y-111394738D01*
X209949527Y-111382835D01*
X209994174Y-111303017D01*
X209994174Y-111303016D01*
X209994176Y-111303013D01*
X210007819Y-111256546D01*
X210014176Y-111234896D01*
X210022500Y-111177000D01*
X210022500Y-110868081D01*
X210042502Y-110799960D01*
X210096158Y-110753467D01*
X210166432Y-110743363D01*
X210231012Y-110772857D01*
X210245899Y-110788148D01*
X210284640Y-110835355D01*
X210324517Y-110868081D01*
X210429375Y-110954136D01*
X210552406Y-111019897D01*
X210594499Y-111042396D01*
X210594503Y-111042398D01*
X210773665Y-111096746D01*
X210773666Y-111096746D01*
X210773669Y-111096747D01*
X210773672Y-111096747D01*
X210773676Y-111096748D01*
X210959997Y-111115099D01*
X210960000Y-111115099D01*
X210960001Y-111115099D01*
X210985707Y-111112567D01*
X211023322Y-111108862D01*
X211093074Y-111122090D01*
X211124767Y-111145160D01*
X213570595Y-113590987D01*
X213604620Y-113653299D01*
X213607500Y-113680082D01*
X213607500Y-119027594D01*
X213587498Y-119095715D01*
X213540897Y-119138716D01*
X213449461Y-119187590D01*
X213297117Y-119312617D01*
X213172090Y-119464961D01*
X213079186Y-119638771D01*
X213021974Y-119827373D01*
X213021974Y-119827375D01*
X213002659Y-120023496D01*
X213002659Y-120023503D01*
X213021974Y-120219624D01*
X213021974Y-120219626D01*
X213079186Y-120408228D01*
X213172090Y-120582038D01*
X213297117Y-120734383D01*
X213449462Y-120859410D01*
X213623273Y-120952314D01*
X213811868Y-121009524D01*
X213811872Y-121009524D01*
X213811874Y-121009525D01*
X214007997Y-121028841D01*
X214008000Y-121028841D01*
X214008003Y-121028841D01*
X214204124Y-121009525D01*
X214204126Y-121009525D01*
X214204127Y-121009524D01*
X214204132Y-121009524D01*
X214392727Y-120952314D01*
X214566538Y-120859410D01*
X214718883Y-120734383D01*
X214843910Y-120582038D01*
X214936814Y-120408227D01*
X214994024Y-120219632D01*
X215013341Y-120023500D01*
X214994025Y-119827375D01*
X214994025Y-119827373D01*
X214994024Y-119827370D01*
X214994024Y-119827368D01*
X214936814Y-119638773D01*
X214843910Y-119464962D01*
X214718883Y-119312617D01*
X214566538Y-119187590D01*
X214475103Y-119138716D01*
X214424455Y-119088963D01*
X214408500Y-119027594D01*
X214408500Y-113428120D01*
X214408499Y-113428091D01*
X214408499Y-113398567D01*
X214405182Y-113388359D01*
X214401701Y-113377648D01*
X214397087Y-113358430D01*
X214393646Y-113336696D01*
X214383656Y-113317090D01*
X214376092Y-113298827D01*
X214369296Y-113277910D01*
X214356366Y-113260114D01*
X214346035Y-113243256D01*
X214336050Y-113223658D01*
X214246342Y-113133950D01*
X211837239Y-110724847D01*
X211803213Y-110662535D01*
X211808278Y-110591720D01*
X211815205Y-110576371D01*
X211842396Y-110525501D01*
X211896747Y-110346331D01*
X211896747Y-110346326D01*
X211896748Y-110346325D01*
X211896748Y-110346323D01*
X211915099Y-110160003D01*
X212544901Y-110160003D01*
X212563251Y-110346323D01*
X212563253Y-110346334D01*
X212617601Y-110525496D01*
X212617603Y-110525500D01*
X212684199Y-110650092D01*
X212705864Y-110690625D01*
X212824643Y-110835357D01*
X212969375Y-110954136D01*
X213092406Y-111019897D01*
X213134499Y-111042396D01*
X213134503Y-111042398D01*
X213313665Y-111096746D01*
X213313666Y-111096746D01*
X213313669Y-111096747D01*
X213313672Y-111096747D01*
X213313676Y-111096748D01*
X213499997Y-111115099D01*
X213500000Y-111115099D01*
X213500001Y-111115099D01*
X213525707Y-111112567D01*
X213563322Y-111108862D01*
X213633074Y-111122090D01*
X213664767Y-111145160D01*
X216110595Y-113590987D01*
X216144620Y-113653299D01*
X216147500Y-113680082D01*
X216147500Y-119027594D01*
X216127498Y-119095715D01*
X216080897Y-119138716D01*
X215989461Y-119187590D01*
X215837117Y-119312617D01*
X215712090Y-119464961D01*
X215619186Y-119638771D01*
X215561974Y-119827373D01*
X215561974Y-119827375D01*
X215542659Y-120023496D01*
X215542659Y-120023503D01*
X215561974Y-120219624D01*
X215561974Y-120219626D01*
X215619186Y-120408228D01*
X215712090Y-120582038D01*
X215837117Y-120734383D01*
X215989462Y-120859410D01*
X216163273Y-120952314D01*
X216351868Y-121009524D01*
X216351872Y-121009524D01*
X216351874Y-121009525D01*
X216547997Y-121028841D01*
X216548000Y-121028841D01*
X216548003Y-121028841D01*
X216744124Y-121009525D01*
X216744126Y-121009525D01*
X216744127Y-121009524D01*
X216744132Y-121009524D01*
X216932727Y-120952314D01*
X217106538Y-120859410D01*
X217258883Y-120734383D01*
X217383910Y-120582038D01*
X217476814Y-120408227D01*
X217534024Y-120219632D01*
X217553341Y-120023500D01*
X217534025Y-119827375D01*
X217534025Y-119827373D01*
X217534024Y-119827370D01*
X217534024Y-119827368D01*
X217476814Y-119638773D01*
X217383910Y-119464962D01*
X217258883Y-119312617D01*
X217106538Y-119187590D01*
X217015103Y-119138716D01*
X216964455Y-119088963D01*
X216948500Y-119027594D01*
X216948500Y-113428120D01*
X216948499Y-113428091D01*
X216948499Y-113398567D01*
X216945182Y-113388359D01*
X216941701Y-113377648D01*
X216937087Y-113358430D01*
X216933646Y-113336696D01*
X216923656Y-113317090D01*
X216916092Y-113298827D01*
X216909296Y-113277910D01*
X216896366Y-113260114D01*
X216886035Y-113243256D01*
X216876050Y-113223658D01*
X216786342Y-113133950D01*
X214377239Y-110724847D01*
X214343213Y-110662535D01*
X214348278Y-110591720D01*
X214355205Y-110576371D01*
X214382396Y-110525501D01*
X214436747Y-110346331D01*
X214436747Y-110346326D01*
X214436748Y-110346325D01*
X214436748Y-110346323D01*
X214455099Y-110160003D01*
X215084901Y-110160003D01*
X215103251Y-110346323D01*
X215103253Y-110346334D01*
X215157601Y-110525496D01*
X215157603Y-110525500D01*
X215224199Y-110650092D01*
X215245864Y-110690625D01*
X215364643Y-110835357D01*
X215509375Y-110954136D01*
X215632406Y-111019897D01*
X215674499Y-111042396D01*
X215674503Y-111042398D01*
X215853665Y-111096746D01*
X215853666Y-111096746D01*
X215853669Y-111096747D01*
X215853672Y-111096747D01*
X215853676Y-111096748D01*
X216039997Y-111115099D01*
X216040000Y-111115099D01*
X216040003Y-111115099D01*
X216218936Y-111097476D01*
X216288689Y-111110705D01*
X216320381Y-111133774D01*
X218650595Y-113463988D01*
X218684621Y-113526300D01*
X218687500Y-113553083D01*
X218687500Y-119027594D01*
X218667498Y-119095715D01*
X218620897Y-119138716D01*
X218529461Y-119187590D01*
X218377117Y-119312617D01*
X218252090Y-119464961D01*
X218159186Y-119638771D01*
X218101974Y-119827373D01*
X218101974Y-119827375D01*
X218082659Y-120023496D01*
X218082659Y-120023503D01*
X218101974Y-120219624D01*
X218101974Y-120219626D01*
X218159186Y-120408228D01*
X218252090Y-120582038D01*
X218377117Y-120734383D01*
X218529462Y-120859410D01*
X218703273Y-120952314D01*
X218891868Y-121009524D01*
X218891872Y-121009524D01*
X218891874Y-121009525D01*
X219087997Y-121028841D01*
X219088000Y-121028841D01*
X219088003Y-121028841D01*
X219284124Y-121009525D01*
X219284126Y-121009525D01*
X219284127Y-121009524D01*
X219284132Y-121009524D01*
X219472727Y-120952314D01*
X219646538Y-120859410D01*
X219798883Y-120734383D01*
X219923910Y-120582038D01*
X220016814Y-120408227D01*
X220074024Y-120219632D01*
X220093341Y-120023500D01*
X220074025Y-119827375D01*
X220074025Y-119827373D01*
X220074024Y-119827370D01*
X220074024Y-119827368D01*
X220016814Y-119638773D01*
X219923910Y-119464962D01*
X219798883Y-119312617D01*
X219646538Y-119187590D01*
X219555103Y-119138716D01*
X219504455Y-119088963D01*
X219488500Y-119027594D01*
X219488500Y-113271569D01*
X219488500Y-113271567D01*
X219481699Y-113250636D01*
X219477088Y-113231431D01*
X219473646Y-113209696D01*
X219463659Y-113190096D01*
X219456092Y-113171827D01*
X219449296Y-113150910D01*
X219449295Y-113150908D01*
X219436366Y-113133113D01*
X219426035Y-113116254D01*
X219416051Y-113096659D01*
X219413860Y-113094468D01*
X219395419Y-113076027D01*
X219395402Y-113076008D01*
X216957760Y-110638367D01*
X216923735Y-110576055D01*
X216926281Y-110512696D01*
X216976746Y-110346334D01*
X216976748Y-110346323D01*
X216995099Y-110160003D01*
X217624901Y-110160003D01*
X217643251Y-110346323D01*
X217643253Y-110346334D01*
X217697601Y-110525496D01*
X217697603Y-110525500D01*
X217764199Y-110650092D01*
X217785864Y-110690625D01*
X217904643Y-110835357D01*
X218027369Y-110936076D01*
X218049376Y-110954137D01*
X218112895Y-110988088D01*
X218163544Y-111037839D01*
X218179500Y-111099210D01*
X218179500Y-111239434D01*
X218186298Y-111260358D01*
X218190912Y-111279577D01*
X218194353Y-111301300D01*
X218194355Y-111301306D01*
X218204341Y-111320906D01*
X218211906Y-111339169D01*
X218218703Y-111360089D01*
X218218704Y-111360091D01*
X218231631Y-111377883D01*
X218241960Y-111394738D01*
X218251948Y-111414340D01*
X218251949Y-111414341D01*
X218251950Y-111414342D01*
X218272942Y-111435334D01*
X218272969Y-111435363D01*
X221190595Y-114352988D01*
X221224621Y-114415300D01*
X221227500Y-114442083D01*
X221227500Y-119027594D01*
X221207498Y-119095715D01*
X221160897Y-119138716D01*
X221069461Y-119187590D01*
X220917117Y-119312617D01*
X220792090Y-119464961D01*
X220699186Y-119638771D01*
X220641974Y-119827373D01*
X220641974Y-119827375D01*
X220622659Y-120023496D01*
X220622659Y-120023503D01*
X220641974Y-120219624D01*
X220641974Y-120219626D01*
X220699186Y-120408228D01*
X220792090Y-120582038D01*
X220917117Y-120734383D01*
X221069462Y-120859410D01*
X221243273Y-120952314D01*
X221431868Y-121009524D01*
X221431872Y-121009524D01*
X221431874Y-121009525D01*
X221627997Y-121028841D01*
X221628000Y-121028841D01*
X221628003Y-121028841D01*
X221824124Y-121009525D01*
X221824126Y-121009525D01*
X221824127Y-121009524D01*
X221824132Y-121009524D01*
X222012727Y-120952314D01*
X222186538Y-120859410D01*
X222338883Y-120734383D01*
X222463910Y-120582038D01*
X222556814Y-120408227D01*
X222614024Y-120219632D01*
X222633341Y-120023500D01*
X222614025Y-119827375D01*
X222614025Y-119827373D01*
X222614024Y-119827370D01*
X222614024Y-119827368D01*
X222556814Y-119638773D01*
X222463910Y-119464962D01*
X222338883Y-119312617D01*
X222186538Y-119187590D01*
X222095103Y-119138716D01*
X222044455Y-119088963D01*
X222028500Y-119027594D01*
X222028500Y-114160569D01*
X222028500Y-114160567D01*
X222021699Y-114139636D01*
X222017088Y-114120431D01*
X222013646Y-114098696D01*
X222003659Y-114079096D01*
X221996092Y-114060827D01*
X221989296Y-114039910D01*
X221989295Y-114039908D01*
X221976366Y-114022113D01*
X221966035Y-114005254D01*
X221956051Y-113985659D01*
X221956050Y-113985658D01*
X221935419Y-113965027D01*
X221935402Y-113965008D01*
X219106714Y-111136321D01*
X219072688Y-111074009D01*
X219076558Y-111019897D01*
X220169500Y-111019897D01*
X220173069Y-111037839D01*
X220175331Y-111049213D01*
X220197543Y-111082457D01*
X220201294Y-111084963D01*
X220230785Y-111104668D01*
X220230787Y-111104669D01*
X220260101Y-111110500D01*
X221979898Y-111110499D01*
X222009213Y-111104669D01*
X222042457Y-111082457D01*
X222064669Y-111049213D01*
X222070500Y-111019899D01*
X222070499Y-109300102D01*
X222064669Y-109270787D01*
X222042457Y-109237543D01*
X222021070Y-109223253D01*
X222009214Y-109215331D01*
X221979899Y-109209500D01*
X220260102Y-109209500D01*
X220230787Y-109215331D01*
X220197545Y-109237542D01*
X220197542Y-109237544D01*
X220175331Y-109270785D01*
X220169500Y-109300100D01*
X220169500Y-111019897D01*
X219076558Y-111019897D01*
X219077753Y-111003194D01*
X219115874Y-110949828D01*
X219255357Y-110835357D01*
X219374136Y-110690625D01*
X219462396Y-110525501D01*
X219462925Y-110523760D01*
X219516746Y-110346334D01*
X219516748Y-110346323D01*
X219535099Y-110160003D01*
X219535099Y-110159996D01*
X219516748Y-109973676D01*
X219516746Y-109973665D01*
X219462398Y-109794503D01*
X219462396Y-109794499D01*
X219430376Y-109734594D01*
X219374136Y-109629375D01*
X219255357Y-109484643D01*
X219110625Y-109365864D01*
X219096451Y-109358288D01*
X218945500Y-109277603D01*
X218945496Y-109277601D01*
X218766334Y-109223253D01*
X218766323Y-109223251D01*
X218580003Y-109204901D01*
X218579997Y-109204901D01*
X218393676Y-109223251D01*
X218393665Y-109223253D01*
X218214503Y-109277601D01*
X218214499Y-109277603D01*
X218049374Y-109365864D01*
X217904643Y-109484643D01*
X217785864Y-109629374D01*
X217697603Y-109794499D01*
X217697601Y-109794503D01*
X217643253Y-109973665D01*
X217643251Y-109973676D01*
X217624901Y-110159996D01*
X217624901Y-110160003D01*
X216995099Y-110160003D01*
X216995099Y-110159996D01*
X216976748Y-109973676D01*
X216976746Y-109973665D01*
X216922398Y-109794503D01*
X216922396Y-109794499D01*
X216890376Y-109734594D01*
X216834136Y-109629375D01*
X216715357Y-109484643D01*
X216570625Y-109365864D01*
X216556451Y-109358288D01*
X216405500Y-109277603D01*
X216405496Y-109277601D01*
X216226334Y-109223253D01*
X216226323Y-109223251D01*
X216040003Y-109204901D01*
X216039997Y-109204901D01*
X215853676Y-109223251D01*
X215853665Y-109223253D01*
X215674503Y-109277601D01*
X215674499Y-109277603D01*
X215509374Y-109365864D01*
X215364643Y-109484643D01*
X215245864Y-109629374D01*
X215157603Y-109794499D01*
X215157601Y-109794503D01*
X215103253Y-109973665D01*
X215103251Y-109973676D01*
X215084901Y-110159996D01*
X215084901Y-110160003D01*
X214455099Y-110160003D01*
X214455099Y-110159996D01*
X214436748Y-109973676D01*
X214436746Y-109973665D01*
X214382398Y-109794503D01*
X214382396Y-109794499D01*
X214350376Y-109734594D01*
X214294136Y-109629375D01*
X214175357Y-109484643D01*
X214030625Y-109365864D01*
X214016451Y-109358288D01*
X213865500Y-109277603D01*
X213865496Y-109277601D01*
X213686334Y-109223253D01*
X213686323Y-109223251D01*
X213500003Y-109204901D01*
X213499997Y-109204901D01*
X213313676Y-109223251D01*
X213313665Y-109223253D01*
X213134503Y-109277601D01*
X213134499Y-109277603D01*
X212969374Y-109365864D01*
X212824643Y-109484643D01*
X212705864Y-109629374D01*
X212617603Y-109794499D01*
X212617601Y-109794503D01*
X212563253Y-109973665D01*
X212563251Y-109973676D01*
X212544901Y-110159996D01*
X212544901Y-110160003D01*
X211915099Y-110160003D01*
X211915099Y-110159996D01*
X211896748Y-109973676D01*
X211896746Y-109973665D01*
X211842398Y-109794503D01*
X211842396Y-109794499D01*
X211810376Y-109734594D01*
X211754136Y-109629375D01*
X211635357Y-109484643D01*
X211490625Y-109365864D01*
X211476451Y-109358288D01*
X211325500Y-109277603D01*
X211325496Y-109277601D01*
X211146334Y-109223253D01*
X211146323Y-109223251D01*
X210960003Y-109204901D01*
X210959997Y-109204901D01*
X210773676Y-109223251D01*
X210773665Y-109223253D01*
X210594503Y-109277601D01*
X210594499Y-109277603D01*
X210429374Y-109365864D01*
X210284642Y-109484643D01*
X210245899Y-109531852D01*
X210187221Y-109571821D01*
X210116250Y-109573721D01*
X210055518Y-109536950D01*
X210024307Y-109473181D01*
X210022500Y-109451918D01*
X210022500Y-106095005D01*
X210022499Y-106094993D01*
X210017804Y-106051319D01*
X210006418Y-105998977D01*
X210003930Y-105988797D01*
X209960921Y-105908084D01*
X209929280Y-105871568D01*
X209914431Y-105854431D01*
X209914432Y-105854432D01*
X209896833Y-105836471D01*
X209817013Y-105791823D01*
X209748908Y-105771827D01*
X209748899Y-105771825D01*
X209748896Y-105771824D01*
X209691000Y-105763500D01*
X206641000Y-105763500D01*
X206640993Y-105763500D01*
X206597318Y-105768196D01*
X206580641Y-105771824D01*
X206544977Y-105779582D01*
X206539887Y-105780826D01*
X206534796Y-105782070D01*
X206516494Y-105791823D01*
X206454084Y-105825079D01*
X206454081Y-105825081D01*
X206454080Y-105825082D01*
X206400431Y-105871569D01*
X206400432Y-105871568D01*
X206382471Y-105889166D01*
X206337823Y-105968986D01*
X206317827Y-106037091D01*
X206317824Y-106037104D01*
X206309500Y-106095002D01*
X206309500Y-109127126D01*
X206289498Y-109195247D01*
X206235842Y-109241740D01*
X206165568Y-109251844D01*
X206146925Y-109247701D01*
X206066328Y-109223252D01*
X206066323Y-109223251D01*
X205880003Y-109204901D01*
X205879997Y-109204901D01*
X205693676Y-109223251D01*
X205693665Y-109223253D01*
X205514503Y-109277601D01*
X205514499Y-109277603D01*
X205349374Y-109365864D01*
X205204643Y-109484643D01*
X205085864Y-109629374D01*
X204997603Y-109794499D01*
X204997601Y-109794503D01*
X204943253Y-109973665D01*
X204943251Y-109973676D01*
X204924901Y-110159996D01*
X204924901Y-110160003D01*
X204295099Y-110160003D01*
X204295099Y-110159996D01*
X204276748Y-109973676D01*
X204276746Y-109973665D01*
X204222398Y-109794503D01*
X204222396Y-109794499D01*
X204190376Y-109734594D01*
X204134136Y-109629375D01*
X204015357Y-109484643D01*
X203870625Y-109365864D01*
X203856451Y-109358288D01*
X203705500Y-109277603D01*
X203705496Y-109277601D01*
X203526334Y-109223253D01*
X203526323Y-109223251D01*
X203340003Y-109204901D01*
X203339997Y-109204901D01*
X203153676Y-109223251D01*
X203153665Y-109223253D01*
X202974503Y-109277601D01*
X202974499Y-109277603D01*
X202809374Y-109365864D01*
X202664643Y-109484643D01*
X202545864Y-109629374D01*
X202457603Y-109794499D01*
X202457601Y-109794503D01*
X202403253Y-109973665D01*
X202403251Y-109973676D01*
X202384901Y-110159996D01*
X202384901Y-110160003D01*
X202403251Y-110346323D01*
X202403253Y-110346334D01*
X202457601Y-110525496D01*
X202457603Y-110525500D01*
X202524199Y-110650092D01*
X202545864Y-110690625D01*
X202664643Y-110835357D01*
X202809375Y-110954136D01*
X202932406Y-111019897D01*
X202974499Y-111042396D01*
X202974503Y-111042398D01*
X203153665Y-111096746D01*
X203153666Y-111096746D01*
X203153669Y-111096747D01*
X203153672Y-111096747D01*
X203153676Y-111096748D01*
X203339997Y-111115099D01*
X203340000Y-111115099D01*
X203340001Y-111115099D01*
X203365707Y-111112567D01*
X203403322Y-111108862D01*
X203473074Y-111122090D01*
X203504767Y-111145160D01*
X203809012Y-111449405D01*
X203843038Y-111511717D01*
X203837973Y-111582532D01*
X203795426Y-111639368D01*
X203728906Y-111664179D01*
X203719917Y-111664500D01*
X203332048Y-111664500D01*
X203279702Y-111653112D01*
X203275063Y-111650993D01*
X203150778Y-111614501D01*
X203150774Y-111614500D01*
X203150772Y-111614500D01*
X203021228Y-111614500D01*
X203021225Y-111614500D01*
X203021223Y-111614501D01*
X202896933Y-111650995D01*
X202896926Y-111650998D01*
X202787951Y-111721032D01*
X202735056Y-111782078D01*
X202703118Y-111818937D01*
X202649303Y-111936774D01*
X202630867Y-112065000D01*
X202649303Y-112193226D01*
X202703118Y-112311063D01*
X202703119Y-112311064D01*
X202707988Y-112318640D01*
X202705606Y-112320170D01*
X202729080Y-112371562D01*
X202718979Y-112441836D01*
X202672489Y-112495494D01*
X202604369Y-112515500D01*
X202528565Y-112515500D01*
X202318545Y-112547155D01*
X202276541Y-112553487D01*
X202276531Y-112553489D01*
X202033004Y-112628607D01*
X202032991Y-112628612D01*
X201803363Y-112739196D01*
X201803356Y-112739200D01*
X201592789Y-112882763D01*
X201592777Y-112882773D01*
X201412201Y-113050322D01*
X201348660Y-113081993D01*
X201278084Y-113074283D01*
X201222879Y-113029641D01*
X201200573Y-112962240D01*
X201200500Y-112957957D01*
X201200500Y-111099210D01*
X201220502Y-111031089D01*
X201267105Y-110988088D01*
X201330623Y-110954137D01*
X201330622Y-110954137D01*
X201330625Y-110954136D01*
X201475357Y-110835357D01*
X201594136Y-110690625D01*
X201682396Y-110525501D01*
X201682925Y-110523760D01*
X201736746Y-110346334D01*
X201736748Y-110346323D01*
X201755099Y-110160003D01*
X201755099Y-110159996D01*
X201736748Y-109973676D01*
X201736746Y-109973665D01*
X201682398Y-109794503D01*
X201682396Y-109794499D01*
X201650376Y-109734594D01*
X201594136Y-109629375D01*
X201475357Y-109484643D01*
X201330625Y-109365864D01*
X201316451Y-109358288D01*
X201165500Y-109277603D01*
X201165496Y-109277601D01*
X200986334Y-109223253D01*
X200986323Y-109223251D01*
X200800003Y-109204901D01*
X200799997Y-109204901D01*
X200613676Y-109223251D01*
X200613671Y-109223252D01*
X200436237Y-109277076D01*
X200365244Y-109277709D01*
X200310567Y-109245596D01*
X196685972Y-105621001D01*
X195766976Y-104702005D01*
X198943500Y-104702005D01*
X198948197Y-104745689D01*
X198955535Y-104779414D01*
X198959403Y-104797195D01*
X198961771Y-104806884D01*
X198961890Y-104807373D01*
X198961890Y-104807375D01*
X199004897Y-104888082D01*
X199010145Y-104894138D01*
X199050655Y-104940889D01*
X199050660Y-104940894D01*
X199068245Y-104958842D01*
X199068249Y-104958845D01*
X199148055Y-105003486D01*
X199148057Y-105003487D01*
X199148063Y-105003490D01*
X199215102Y-105023175D01*
X199272997Y-105031499D01*
X199272998Y-105031500D01*
X199273000Y-105031500D01*
X207787997Y-105031500D01*
X207788000Y-105031500D01*
X207831684Y-105026803D01*
X207883195Y-105015597D01*
X207893373Y-105013110D01*
X207893375Y-105013109D01*
X207974082Y-104970102D01*
X207974083Y-104970100D01*
X207974085Y-104970100D01*
X208026889Y-104924345D01*
X208044843Y-104906754D01*
X208089490Y-104826937D01*
X208109175Y-104759898D01*
X208117500Y-104702000D01*
X208117500Y-103426000D01*
X208112803Y-103382316D01*
X208101597Y-103330805D01*
X208099110Y-103320627D01*
X208099109Y-103320625D01*
X208099109Y-103320624D01*
X208058320Y-103244080D01*
X208043936Y-103174556D01*
X208045933Y-103169363D01*
X208039693Y-103171691D01*
X207970319Y-103156600D01*
X207969193Y-103155977D01*
X207912944Y-103124513D01*
X207912939Y-103124511D01*
X207912938Y-103124510D01*
X207912937Y-103124510D01*
X207845898Y-103104825D01*
X207845888Y-103104823D01*
X207788003Y-103096500D01*
X207788000Y-103096500D01*
X199273000Y-103096500D01*
X199272994Y-103096500D01*
X199229310Y-103101197D01*
X199193361Y-103109018D01*
X199177805Y-103112403D01*
X199170916Y-103114086D01*
X199167626Y-103114890D01*
X199167624Y-103114890D01*
X199086917Y-103157897D01*
X199053204Y-103187111D01*
X199034111Y-103203655D01*
X199034106Y-103203660D01*
X199016157Y-103221245D01*
X199016154Y-103221249D01*
X198971513Y-103301055D01*
X198971511Y-103301060D01*
X198971510Y-103301062D01*
X198971510Y-103301063D01*
X198969078Y-103309347D01*
X198951825Y-103368101D01*
X198951823Y-103368111D01*
X198943500Y-103425996D01*
X198943500Y-104702005D01*
X195766976Y-104702005D01*
X193055961Y-101990990D01*
X193050233Y-101984407D01*
X193042957Y-101974771D01*
X193007640Y-101942575D01*
X193005556Y-101940585D01*
X192991797Y-101926826D01*
X192991796Y-101926825D01*
X192991795Y-101926824D01*
X192989642Y-101925349D01*
X192982799Y-101919929D01*
X192981909Y-101919118D01*
X192979677Y-101917083D01*
X192959934Y-101899084D01*
X192959931Y-101899083D01*
X192953685Y-101896663D01*
X192927998Y-101883123D01*
X192922480Y-101879343D01*
X192922479Y-101879342D01*
X192892367Y-101872259D01*
X192884027Y-101869677D01*
X192855174Y-101858500D01*
X192855173Y-101858500D01*
X192848480Y-101858500D01*
X192819633Y-101855153D01*
X192813119Y-101853621D01*
X192813118Y-101853621D01*
X192782478Y-101857895D01*
X192773764Y-101858500D01*
X192074559Y-101858500D01*
X192006438Y-101838498D01*
X191959945Y-101784842D01*
X191949841Y-101714568D01*
X191979335Y-101649988D01*
X192004554Y-101627736D01*
X192012457Y-101622457D01*
X192034669Y-101589213D01*
X192040500Y-101559899D01*
X192040499Y-101337502D01*
X192042051Y-101317786D01*
X192044393Y-101303004D01*
X192044869Y-101300000D01*
X192044869Y-101299998D01*
X192044869Y-101293916D01*
X192044043Y-101271727D01*
X192044132Y-101270656D01*
X192044130Y-101270650D01*
X192043904Y-101267920D01*
X192040499Y-101240603D01*
X192040499Y-100287503D01*
X192042051Y-100267789D01*
X192044869Y-100250000D01*
X192044869Y-100243916D01*
X192044043Y-100221727D01*
X192044132Y-100220656D01*
X192044131Y-100220651D01*
X192043907Y-100217945D01*
X192040499Y-100190601D01*
X192040499Y-99237503D01*
X192042051Y-99217789D01*
X192044869Y-99199999D01*
X192044869Y-99193917D01*
X192044043Y-99171726D01*
X192044132Y-99170656D01*
X192044131Y-99170654D01*
X192044996Y-99160239D01*
X192048904Y-99160563D01*
X192059184Y-99110486D01*
X192108793Y-99059698D01*
X192177986Y-99043793D01*
X192244792Y-99067821D01*
X192259568Y-99080474D01*
X193087194Y-99908100D01*
X193121220Y-99970412D01*
X193122816Y-99979263D01*
X193134411Y-100059909D01*
X193134412Y-100059913D01*
X193134412Y-100059914D01*
X193134413Y-100059916D01*
X193188228Y-100177753D01*
X193268158Y-100269999D01*
X193273061Y-100275657D01*
X193322712Y-100307566D01*
X193382041Y-100345694D01*
X193506338Y-100382190D01*
X193509094Y-100382190D01*
X193511734Y-100382965D01*
X193515259Y-100383472D01*
X193515186Y-100383978D01*
X193577215Y-100402192D01*
X193598189Y-100419095D01*
X195683264Y-102504170D01*
X195686968Y-102508212D01*
X195712965Y-102539194D01*
X195739197Y-102554339D01*
X195747978Y-102559409D01*
X195752613Y-102562361D01*
X195767810Y-102573002D01*
X195785736Y-102585554D01*
X195791290Y-102588144D01*
X195806601Y-102594485D01*
X195812369Y-102596585D01*
X195812375Y-102596588D01*
X195852204Y-102603610D01*
X195857551Y-102604796D01*
X195896613Y-102615263D01*
X195921959Y-102613045D01*
X195936890Y-102611740D01*
X195942382Y-102611500D01*
X207722192Y-102611500D01*
X207790313Y-102631502D01*
X207811287Y-102648405D01*
X208119799Y-102956917D01*
X208153825Y-103019229D01*
X208150560Y-103064864D01*
X208197554Y-103061984D01*
X208258612Y-103095730D01*
X208948052Y-103785170D01*
X208951756Y-103789212D01*
X208977753Y-103820194D01*
X209003985Y-103835339D01*
X209012766Y-103840409D01*
X209017404Y-103843363D01*
X209050524Y-103866554D01*
X209056078Y-103869144D01*
X209071389Y-103875485D01*
X209077157Y-103877585D01*
X209077163Y-103877588D01*
X209116990Y-103884610D01*
X209122322Y-103885792D01*
X209161401Y-103896264D01*
X209192194Y-103893570D01*
X209201690Y-103892740D01*
X209207182Y-103892500D01*
X219729984Y-103892500D01*
X219798105Y-103912502D01*
X219819078Y-103929404D01*
X222584849Y-106695176D01*
X222588554Y-106699219D01*
X222614544Y-106730193D01*
X222614546Y-106730195D01*
X222649561Y-106750410D01*
X222654198Y-106753364D01*
X222687316Y-106776553D01*
X222692876Y-106779146D01*
X222708196Y-106785492D01*
X222713955Y-106787588D01*
X222753779Y-106794610D01*
X222759126Y-106795794D01*
X222798193Y-106806263D01*
X222829012Y-106803566D01*
X222838470Y-106802740D01*
X222843962Y-106802500D01*
X229314984Y-106802500D01*
X229383105Y-106822502D01*
X229404079Y-106839405D01*
X231102595Y-108537921D01*
X231136621Y-108600233D01*
X231139500Y-108627016D01*
X231139500Y-111692983D01*
X231119498Y-111761104D01*
X231102595Y-111782078D01*
X229577079Y-113307595D01*
X229514767Y-113341620D01*
X229487984Y-113344500D01*
X228930249Y-113344500D01*
X228871771Y-113356132D01*
X228871768Y-113356133D01*
X228805448Y-113400448D01*
X228761133Y-113466768D01*
X228761132Y-113466771D01*
X228749500Y-113525249D01*
X228749500Y-114414750D01*
X228760521Y-114470157D01*
X228761133Y-114473231D01*
X228805448Y-114539552D01*
X228871769Y-114583867D01*
X228930252Y-114595500D01*
X228930253Y-114595500D01*
X229819747Y-114595500D01*
X229819748Y-114595500D01*
X229878231Y-114583867D01*
X229944552Y-114539552D01*
X229988867Y-114473231D01*
X230000500Y-114414748D01*
X230000500Y-113857016D01*
X230020502Y-113788895D01*
X230037405Y-113767921D01*
X231374405Y-112430921D01*
X231436717Y-112396895D01*
X231507532Y-112401960D01*
X231564368Y-112444507D01*
X231589179Y-112511027D01*
X231589500Y-112520016D01*
X231589500Y-113218555D01*
X231569498Y-113286676D01*
X231515842Y-113333169D01*
X231475850Y-113343948D01*
X231470256Y-113344498D01*
X231411771Y-113356132D01*
X231411768Y-113356133D01*
X231345448Y-113400448D01*
X231301133Y-113466768D01*
X231301132Y-113466771D01*
X231289500Y-113525249D01*
X231289500Y-114414750D01*
X231300521Y-114470157D01*
X231301133Y-114473231D01*
X231345448Y-114539552D01*
X231411769Y-114583867D01*
X231470252Y-114595500D01*
X231470253Y-114595500D01*
X232359747Y-114595500D01*
X232359748Y-114595500D01*
X232418231Y-114583867D01*
X232484552Y-114539552D01*
X232528867Y-114473231D01*
X232540500Y-114414748D01*
X232540500Y-113525252D01*
X232528867Y-113466769D01*
X232484552Y-113400448D01*
X232418231Y-113356133D01*
X232418228Y-113356132D01*
X232359743Y-113344498D01*
X232354150Y-113343948D01*
X232288318Y-113317366D01*
X232247308Y-113259412D01*
X232240500Y-113218555D01*
X232240500Y-108144959D01*
X232240740Y-108139465D01*
X232244264Y-108099193D01*
X232233792Y-108060114D01*
X232232610Y-108054782D01*
X232225588Y-108014955D01*
X232225585Y-108014949D01*
X232223485Y-108009181D01*
X232217144Y-107993870D01*
X232214554Y-107988316D01*
X232191363Y-107955196D01*
X232188409Y-107950558D01*
X232168193Y-107915544D01*
X232137212Y-107889547D01*
X232133169Y-107885843D01*
X230056165Y-105808839D01*
X230052450Y-105804786D01*
X230033389Y-105782070D01*
X230026455Y-105773806D01*
X230026454Y-105773805D01*
X230026451Y-105773803D01*
X229991435Y-105753586D01*
X229986800Y-105750633D01*
X229953683Y-105727445D01*
X229948152Y-105724866D01*
X229932796Y-105718505D01*
X229927047Y-105716412D01*
X229903174Y-105712202D01*
X229887234Y-105709391D01*
X229881872Y-105708203D01*
X229842808Y-105697736D01*
X229842805Y-105697736D01*
X229836326Y-105698303D01*
X229802524Y-105701260D01*
X229797040Y-105701500D01*
X223200413Y-105701500D01*
X223132292Y-105681498D01*
X223111318Y-105664595D01*
X222428045Y-104981322D01*
X220345549Y-102898827D01*
X220341845Y-102894785D01*
X220336148Y-102887996D01*
X220328318Y-102878664D01*
X220299855Y-102813624D01*
X220311073Y-102743519D01*
X220335742Y-102708582D01*
X220522906Y-102521419D01*
X220585217Y-102487395D01*
X220656033Y-102492460D01*
X220701095Y-102521421D01*
X221484978Y-103305304D01*
X221488682Y-103309346D01*
X221514679Y-103340328D01*
X221540911Y-103355473D01*
X221549692Y-103360543D01*
X221554327Y-103363495D01*
X221560919Y-103368111D01*
X221587450Y-103386688D01*
X221593004Y-103389278D01*
X221608315Y-103395619D01*
X221614083Y-103397719D01*
X221614089Y-103397722D01*
X221653916Y-103404744D01*
X221659248Y-103405926D01*
X221698327Y-103416398D01*
X221729120Y-103413704D01*
X221738616Y-103412874D01*
X221744108Y-103412634D01*
X224401118Y-103412634D01*
X224469239Y-103432636D01*
X224490213Y-103449539D01*
X225469094Y-104428420D01*
X225503120Y-104490732D01*
X225504716Y-104499583D01*
X225509802Y-104534957D01*
X225509803Y-104534960D01*
X225563615Y-104652792D01*
X225563616Y-104652793D01*
X225563617Y-104652794D01*
X225563618Y-104652796D01*
X225622760Y-104721050D01*
X225648451Y-104750700D01*
X225668945Y-104763871D01*
X225757431Y-104820737D01*
X225881728Y-104857233D01*
X225884483Y-104857233D01*
X225887122Y-104858007D01*
X225890649Y-104858515D01*
X225890576Y-104859022D01*
X225952604Y-104877235D01*
X225973578Y-104894138D01*
X226063616Y-104984176D01*
X226067321Y-104988219D01*
X226093311Y-105019193D01*
X226093313Y-105019195D01*
X226106491Y-105026803D01*
X226128333Y-105039413D01*
X226132950Y-105042354D01*
X226166083Y-105065554D01*
X226166087Y-105065555D01*
X226171643Y-105068146D01*
X226186949Y-105074486D01*
X226192716Y-105076585D01*
X226192722Y-105076588D01*
X226232551Y-105083610D01*
X226237898Y-105084796D01*
X226276960Y-105095263D01*
X226302306Y-105093045D01*
X226317237Y-105091740D01*
X226322729Y-105091500D01*
X230143984Y-105091500D01*
X230212105Y-105111502D01*
X230233079Y-105128405D01*
X234092595Y-108987921D01*
X234126621Y-109050233D01*
X234129500Y-109077016D01*
X234129500Y-113401983D01*
X234109498Y-113470104D01*
X234092595Y-113491078D01*
X230928079Y-116655595D01*
X230865767Y-116689621D01*
X230838984Y-116692500D01*
X228248960Y-116692500D01*
X228243475Y-116692260D01*
X228213308Y-116689621D01*
X228203195Y-116688736D01*
X228203192Y-116688736D01*
X228164126Y-116699203D01*
X228158761Y-116700392D01*
X228118952Y-116707412D01*
X228113235Y-116709493D01*
X228097832Y-116715873D01*
X228092316Y-116718445D01*
X228059191Y-116741638D01*
X228054558Y-116744589D01*
X228019547Y-116764804D01*
X228019545Y-116764805D01*
X227993552Y-116795781D01*
X227989839Y-116799833D01*
X227672079Y-117117595D01*
X227609767Y-117151620D01*
X227582983Y-117154500D01*
X227025249Y-117154500D01*
X226966771Y-117166132D01*
X226966768Y-117166133D01*
X226900448Y-117210448D01*
X226856133Y-117276768D01*
X226856132Y-117276771D01*
X226844500Y-117335249D01*
X226844500Y-118224750D01*
X226856132Y-118283228D01*
X226856133Y-118283231D01*
X226905819Y-118357590D01*
X226927034Y-118425342D01*
X226914126Y-118479807D01*
X226914782Y-118480056D01*
X226912876Y-118485079D01*
X226912626Y-118486138D01*
X226912082Y-118487173D01*
X226858214Y-118629209D01*
X226858213Y-118629213D01*
X226839906Y-118779997D01*
X226839906Y-118780002D01*
X226858213Y-118930786D01*
X226858214Y-118930790D01*
X226890339Y-119015495D01*
X226912079Y-119072819D01*
X226998368Y-119197830D01*
X227112066Y-119298557D01*
X227246566Y-119369148D01*
X227394051Y-119405500D01*
X227394052Y-119405500D01*
X227545948Y-119405500D01*
X227545949Y-119405500D01*
X227693434Y-119369148D01*
X227827934Y-119298557D01*
X227941632Y-119197830D01*
X228027921Y-119072819D01*
X228042643Y-119034000D01*
X229111515Y-119034000D01*
X229152965Y-119161573D01*
X229251031Y-119331424D01*
X229251035Y-119331431D01*
X229382259Y-119477170D01*
X229382264Y-119477175D01*
X229540925Y-119592449D01*
X229720098Y-119672222D01*
X229756000Y-119679853D01*
X229756000Y-119034000D01*
X230264000Y-119034000D01*
X230264000Y-119679853D01*
X230299901Y-119672222D01*
X230479074Y-119592449D01*
X230637735Y-119477175D01*
X230637740Y-119477170D01*
X230768964Y-119331431D01*
X230768968Y-119331424D01*
X230867034Y-119161573D01*
X230908484Y-119034000D01*
X230264000Y-119034000D01*
X229756000Y-119034000D01*
X229111515Y-119034000D01*
X228042643Y-119034000D01*
X228081785Y-118930791D01*
X228100094Y-118780000D01*
X229755102Y-118780000D01*
X229774505Y-118877545D01*
X229829760Y-118960240D01*
X229912455Y-119015495D01*
X229985376Y-119030000D01*
X230034624Y-119030000D01*
X230107545Y-119015495D01*
X230190240Y-118960240D01*
X230245495Y-118877545D01*
X230264898Y-118780002D01*
X231919906Y-118780002D01*
X231938213Y-118930786D01*
X231938214Y-118930790D01*
X231970339Y-119015495D01*
X231992079Y-119072819D01*
X232078368Y-119197830D01*
X232192066Y-119298557D01*
X232326566Y-119369148D01*
X232474051Y-119405500D01*
X232474052Y-119405500D01*
X232625948Y-119405500D01*
X232625949Y-119405500D01*
X232773434Y-119369148D01*
X232907934Y-119298557D01*
X233021632Y-119197830D01*
X233107921Y-119072819D01*
X233161785Y-118930791D01*
X233180094Y-118780002D01*
X234459906Y-118780002D01*
X234478213Y-118930786D01*
X234478214Y-118930790D01*
X234510339Y-119015495D01*
X234532079Y-119072819D01*
X234618368Y-119197830D01*
X234732066Y-119298557D01*
X234866566Y-119369148D01*
X235014051Y-119405500D01*
X235014052Y-119405500D01*
X235165948Y-119405500D01*
X235165949Y-119405500D01*
X235313434Y-119369148D01*
X235447934Y-119298557D01*
X235561632Y-119197830D01*
X235647921Y-119072819D01*
X235701785Y-118930791D01*
X235720094Y-118780000D01*
X235720094Y-118779997D01*
X235701786Y-118629213D01*
X235701785Y-118629209D01*
X235662643Y-118526000D01*
X235647921Y-118487181D01*
X235647919Y-118487178D01*
X235647382Y-118486155D01*
X235647214Y-118485319D01*
X235645218Y-118480055D01*
X235646092Y-118479723D01*
X235633430Y-118416543D01*
X235654181Y-118357589D01*
X235659550Y-118349552D01*
X235659552Y-118349552D01*
X235703867Y-118283231D01*
X235715500Y-118224748D01*
X235715500Y-117335252D01*
X235703867Y-117276769D01*
X235659552Y-117210448D01*
X235593231Y-117166133D01*
X235593228Y-117166132D01*
X235534750Y-117154500D01*
X235534748Y-117154500D01*
X234645252Y-117154500D01*
X234645249Y-117154500D01*
X234586771Y-117166132D01*
X234586768Y-117166133D01*
X234520448Y-117210448D01*
X234476133Y-117276768D01*
X234476132Y-117276771D01*
X234464500Y-117335249D01*
X234464500Y-118224750D01*
X234476132Y-118283228D01*
X234476133Y-118283231D01*
X234525819Y-118357590D01*
X234547034Y-118425342D01*
X234534126Y-118479807D01*
X234534782Y-118480056D01*
X234532876Y-118485079D01*
X234532626Y-118486138D01*
X234532082Y-118487173D01*
X234478214Y-118629209D01*
X234478213Y-118629213D01*
X234459906Y-118779997D01*
X234459906Y-118780002D01*
X233180094Y-118780002D01*
X233180094Y-118780000D01*
X233180094Y-118779997D01*
X233161786Y-118629213D01*
X233161785Y-118629209D01*
X233122643Y-118526000D01*
X233107921Y-118487181D01*
X233107919Y-118487178D01*
X233107382Y-118486155D01*
X233107214Y-118485319D01*
X233105218Y-118480055D01*
X233106092Y-118479723D01*
X233093430Y-118416543D01*
X233114181Y-118357589D01*
X233119550Y-118349552D01*
X233119552Y-118349552D01*
X233163867Y-118283231D01*
X233175500Y-118224748D01*
X233175500Y-117335252D01*
X233163867Y-117276769D01*
X233119552Y-117210448D01*
X233053231Y-117166133D01*
X233053228Y-117166132D01*
X232994750Y-117154500D01*
X232994748Y-117154500D01*
X232105252Y-117154500D01*
X232105249Y-117154500D01*
X232046771Y-117166132D01*
X232046768Y-117166133D01*
X231980448Y-117210448D01*
X231936133Y-117276768D01*
X231936132Y-117276771D01*
X231924500Y-117335249D01*
X231924500Y-118224750D01*
X231936132Y-118283228D01*
X231936133Y-118283231D01*
X231985819Y-118357590D01*
X232007034Y-118425342D01*
X231994126Y-118479807D01*
X231994782Y-118480056D01*
X231992876Y-118485079D01*
X231992626Y-118486138D01*
X231992082Y-118487173D01*
X231938214Y-118629209D01*
X231938213Y-118629213D01*
X231919906Y-118779997D01*
X231919906Y-118780002D01*
X230264898Y-118780002D01*
X230264898Y-118780000D01*
X230245495Y-118682455D01*
X230190240Y-118599760D01*
X230107545Y-118544505D01*
X230034624Y-118530000D01*
X229985376Y-118530000D01*
X229912455Y-118544505D01*
X229829760Y-118599760D01*
X229774505Y-118682455D01*
X229755102Y-118780000D01*
X228100094Y-118780000D01*
X228100094Y-118779997D01*
X228081786Y-118629213D01*
X228081785Y-118629209D01*
X228042643Y-118526000D01*
X228027921Y-118487181D01*
X228027919Y-118487178D01*
X228027382Y-118486155D01*
X228027214Y-118485319D01*
X228025218Y-118480055D01*
X228026092Y-118479723D01*
X228013430Y-118416543D01*
X228034181Y-118357589D01*
X228039550Y-118349552D01*
X228039552Y-118349552D01*
X228083867Y-118283231D01*
X228095500Y-118224748D01*
X228095500Y-118034000D01*
X229077000Y-118034000D01*
X229077000Y-118253597D01*
X229083505Y-118314094D01*
X229119914Y-118411711D01*
X229124978Y-118482527D01*
X229121691Y-118494678D01*
X229111514Y-118525999D01*
X229111515Y-118526000D01*
X229756000Y-118526000D01*
X229756000Y-118034000D01*
X230264000Y-118034000D01*
X230264000Y-118526000D01*
X230908483Y-118526000D01*
X230898307Y-118494681D01*
X230896279Y-118423713D01*
X230900085Y-118411711D01*
X230936494Y-118314096D01*
X230942999Y-118253597D01*
X230943000Y-118253585D01*
X230943000Y-118034000D01*
X230264000Y-118034000D01*
X229756000Y-118034000D01*
X229077000Y-118034000D01*
X228095500Y-118034000D01*
X228095500Y-117780000D01*
X229755102Y-117780000D01*
X229774505Y-117877545D01*
X229829760Y-117960240D01*
X229912455Y-118015495D01*
X229985376Y-118030000D01*
X230034624Y-118030000D01*
X230107545Y-118015495D01*
X230190240Y-117960240D01*
X230245495Y-117877545D01*
X230264898Y-117780000D01*
X230245495Y-117682455D01*
X230190240Y-117599760D01*
X230107545Y-117544505D01*
X230034624Y-117530000D01*
X229985376Y-117530000D01*
X229912455Y-117544505D01*
X229829760Y-117599760D01*
X229774505Y-117682455D01*
X229755102Y-117780000D01*
X228095500Y-117780000D01*
X228095500Y-117667016D01*
X228115502Y-117598895D01*
X228132405Y-117577921D01*
X228329921Y-117380405D01*
X228392233Y-117346379D01*
X228419016Y-117343500D01*
X228951000Y-117343500D01*
X229019121Y-117363502D01*
X229065614Y-117417158D01*
X229077000Y-117469500D01*
X229077000Y-117526000D01*
X230943000Y-117526000D01*
X230943000Y-117472503D01*
X230963002Y-117404382D01*
X231016658Y-117357889D01*
X231044286Y-117350605D01*
X231044156Y-117350119D01*
X231080623Y-117340346D01*
X231093870Y-117336796D01*
X231099231Y-117335607D01*
X231139045Y-117328588D01*
X231139047Y-117328586D01*
X231144838Y-117326479D01*
X231160101Y-117320157D01*
X231165681Y-117317555D01*
X231165681Y-117317554D01*
X231165684Y-117317554D01*
X231198817Y-117294352D01*
X231203428Y-117291415D01*
X231238455Y-117271194D01*
X231264453Y-117240209D01*
X231268146Y-117236178D01*
X234673192Y-113831133D01*
X234677210Y-113827451D01*
X234708194Y-113801455D01*
X234728421Y-113766418D01*
X234731352Y-113761817D01*
X234754554Y-113728684D01*
X234754555Y-113728681D01*
X234757147Y-113723122D01*
X234763480Y-113707833D01*
X234765585Y-113702049D01*
X234765588Y-113702045D01*
X234772611Y-113662206D01*
X234773791Y-113656884D01*
X234784263Y-113617807D01*
X234781905Y-113590852D01*
X234780740Y-113577529D01*
X234780500Y-113572037D01*
X234780500Y-108906959D01*
X234780740Y-108901465D01*
X234784264Y-108861193D01*
X234773792Y-108822114D01*
X234772610Y-108816782D01*
X234765588Y-108776955D01*
X234765585Y-108776949D01*
X234763485Y-108771181D01*
X234757144Y-108755870D01*
X234754554Y-108750316D01*
X234731363Y-108717196D01*
X234728409Y-108712558D01*
X234717249Y-108693229D01*
X234708194Y-108677545D01*
X234707546Y-108677001D01*
X234677212Y-108651547D01*
X234673169Y-108647843D01*
X231723629Y-105698303D01*
X231689603Y-105635991D01*
X231694668Y-105565176D01*
X231737215Y-105508340D01*
X231803735Y-105483529D01*
X231867393Y-105495685D01*
X231926996Y-105524389D01*
X231926999Y-105524389D01*
X231927004Y-105524392D01*
X232170531Y-105599510D01*
X232170534Y-105599510D01*
X232170542Y-105599513D01*
X232422565Y-105637500D01*
X232422570Y-105637500D01*
X232677430Y-105637500D01*
X232677435Y-105637500D01*
X232929458Y-105599513D01*
X232929468Y-105599510D01*
X233172995Y-105524392D01*
X233172997Y-105524390D01*
X233173004Y-105524389D01*
X233402634Y-105413805D01*
X233613217Y-105270232D01*
X233800050Y-105096877D01*
X233958959Y-104897612D01*
X234072919Y-104700226D01*
X234086391Y-104676892D01*
X234086393Y-104676888D01*
X234179508Y-104439637D01*
X234236222Y-104191157D01*
X234255268Y-103937000D01*
X234236222Y-103682843D01*
X234179508Y-103434363D01*
X234086393Y-103197112D01*
X234086392Y-103197111D01*
X234086391Y-103197107D01*
X233958961Y-102976391D01*
X233929451Y-102939387D01*
X233800050Y-102777123D01*
X233800049Y-102777122D01*
X233800046Y-102777118D01*
X233628236Y-102617704D01*
X233613217Y-102603768D01*
X233613210Y-102603763D01*
X233402643Y-102460200D01*
X233402636Y-102460196D01*
X233173008Y-102349612D01*
X233172995Y-102349607D01*
X232929468Y-102274489D01*
X232929458Y-102274487D01*
X232677435Y-102236500D01*
X232422565Y-102236500D01*
X232212545Y-102268155D01*
X232170541Y-102274487D01*
X232170531Y-102274489D01*
X231927004Y-102349607D01*
X231926991Y-102349612D01*
X231697363Y-102460196D01*
X231697356Y-102460200D01*
X231486789Y-102603763D01*
X231486777Y-102603773D01*
X231299953Y-102777118D01*
X231141038Y-102976391D01*
X231013608Y-103197107D01*
X231013605Y-103197115D01*
X230920491Y-103434364D01*
X230863778Y-103682839D01*
X230844732Y-103937000D01*
X230863778Y-104191160D01*
X230920491Y-104439635D01*
X230994148Y-104627309D01*
X231000416Y-104698028D01*
X230967455Y-104760910D01*
X230905730Y-104795989D01*
X230834839Y-104792129D01*
X230787763Y-104762437D01*
X230573165Y-104547839D01*
X230569450Y-104543786D01*
X230543454Y-104512805D01*
X230543451Y-104512803D01*
X230508435Y-104492586D01*
X230503800Y-104489633D01*
X230470683Y-104466445D01*
X230465152Y-104463866D01*
X230449796Y-104457505D01*
X230444047Y-104455412D01*
X230420174Y-104451202D01*
X230404234Y-104448391D01*
X230398872Y-104447203D01*
X230359808Y-104436736D01*
X230359805Y-104436736D01*
X230348127Y-104437757D01*
X230319524Y-104440260D01*
X230314040Y-104440500D01*
X226515667Y-104440500D01*
X226447546Y-104420498D01*
X226401053Y-104366842D01*
X226390950Y-104332433D01*
X226383197Y-104278507D01*
X226329382Y-104160670D01*
X226244549Y-104062766D01*
X226244548Y-104062765D01*
X226135573Y-103992731D01*
X226135570Y-103992729D01*
X226135569Y-103992729D01*
X226114903Y-103986661D01*
X226011276Y-103956234D01*
X226011274Y-103956233D01*
X226011272Y-103956233D01*
X226011268Y-103956233D01*
X225969749Y-103956233D01*
X225901628Y-103936231D01*
X225880654Y-103919328D01*
X224830299Y-102868973D01*
X224826584Y-102864920D01*
X224800588Y-102833939D01*
X224800585Y-102833937D01*
X224793137Y-102829637D01*
X224744144Y-102778254D01*
X224730708Y-102708541D01*
X224741522Y-102668180D01*
X224754228Y-102640360D01*
X224760092Y-102599567D01*
X224789585Y-102534988D01*
X224849310Y-102496604D01*
X224884810Y-102491500D01*
X230264994Y-102491500D01*
X230265000Y-102491500D01*
X230308681Y-102486804D01*
X230361023Y-102475418D01*
X230371203Y-102472930D01*
X230451916Y-102429921D01*
X230493638Y-102393768D01*
X230505569Y-102383431D01*
X230505568Y-102383432D01*
X230506883Y-102382142D01*
X230523527Y-102365835D01*
X230568174Y-102286017D01*
X230568174Y-102286016D01*
X230568176Y-102286013D01*
X230588172Y-102217908D01*
X230588176Y-102217896D01*
X230596500Y-102160000D01*
X230596500Y-101220500D01*
X230616502Y-101152379D01*
X230670158Y-101105886D01*
X230722500Y-101094500D01*
X234201994Y-101094500D01*
X234202000Y-101094500D01*
X234245681Y-101089804D01*
X234298023Y-101078418D01*
X234308203Y-101075930D01*
X234388916Y-101032921D01*
X234436721Y-100991498D01*
X234442569Y-100986431D01*
X234442568Y-100986432D01*
X234454647Y-100974596D01*
X234460527Y-100968835D01*
X234505174Y-100889017D01*
X234505174Y-100889016D01*
X234505176Y-100889013D01*
X234525172Y-100820908D01*
X234525176Y-100820896D01*
X234533500Y-100763000D01*
X234533500Y-97078000D01*
X234528804Y-97034319D01*
X234517418Y-96981977D01*
X234514930Y-96971797D01*
X234471921Y-96891084D01*
X234445353Y-96860423D01*
X234425431Y-96837431D01*
X234425432Y-96837432D01*
X234407833Y-96819471D01*
X234328013Y-96774823D01*
X234259908Y-96754827D01*
X234259899Y-96754825D01*
X234259896Y-96754824D01*
X234202000Y-96746500D01*
X214135000Y-96746500D01*
X211386500Y-96746500D01*
X211318379Y-96726498D01*
X211271886Y-96672842D01*
X211260500Y-96620500D01*
X211260500Y-93372660D01*
X211280502Y-93304539D01*
X211327100Y-93261540D01*
X211490625Y-93174136D01*
X211635357Y-93055357D01*
X211754136Y-92910625D01*
X211842396Y-92745501D01*
X211850917Y-92717413D01*
X211896746Y-92566334D01*
X211896748Y-92566323D01*
X211915099Y-92380003D01*
X212544901Y-92380003D01*
X212563251Y-92566323D01*
X212563253Y-92566334D01*
X212617601Y-92745496D01*
X212617603Y-92745500D01*
X212617604Y-92745501D01*
X212705864Y-92910625D01*
X212824643Y-93055357D01*
X212969375Y-93174136D01*
X213084711Y-93235784D01*
X213134499Y-93262396D01*
X213134503Y-93262398D01*
X213313665Y-93316746D01*
X213313666Y-93316746D01*
X213313669Y-93316747D01*
X213313672Y-93316747D01*
X213313676Y-93316748D01*
X213499997Y-93335099D01*
X213500000Y-93335099D01*
X213500003Y-93335099D01*
X213686323Y-93316748D01*
X213686325Y-93316747D01*
X213686331Y-93316747D01*
X213726575Y-93304539D01*
X213865496Y-93262398D01*
X213865498Y-93262396D01*
X213865501Y-93262396D01*
X214030625Y-93174136D01*
X214175357Y-93055357D01*
X214294136Y-92910625D01*
X214382396Y-92745501D01*
X214390917Y-92717413D01*
X214436746Y-92566334D01*
X214436748Y-92566323D01*
X214455099Y-92380003D01*
X215084901Y-92380003D01*
X215103251Y-92566323D01*
X215103253Y-92566334D01*
X215157601Y-92745496D01*
X215157603Y-92745500D01*
X215157604Y-92745501D01*
X215245864Y-92910625D01*
X215364643Y-93055357D01*
X215509375Y-93174136D01*
X215624711Y-93235784D01*
X215674499Y-93262396D01*
X215674503Y-93262398D01*
X215853665Y-93316746D01*
X215853666Y-93316746D01*
X215853669Y-93316747D01*
X215853672Y-93316747D01*
X215853676Y-93316748D01*
X216039997Y-93335099D01*
X216040000Y-93335099D01*
X216040003Y-93335099D01*
X216226323Y-93316748D01*
X216226325Y-93316747D01*
X216226331Y-93316747D01*
X216266575Y-93304539D01*
X216405496Y-93262398D01*
X216405498Y-93262396D01*
X216405501Y-93262396D01*
X216570625Y-93174136D01*
X216715357Y-93055357D01*
X216834136Y-92910625D01*
X216922396Y-92745501D01*
X216930917Y-92717413D01*
X216976746Y-92566334D01*
X216976748Y-92566323D01*
X216995099Y-92380003D01*
X217624901Y-92380003D01*
X217643251Y-92566323D01*
X217643253Y-92566334D01*
X217697601Y-92745496D01*
X217697603Y-92745500D01*
X217697604Y-92745501D01*
X217785864Y-92910625D01*
X217904643Y-93055357D01*
X218049375Y-93174136D01*
X218164711Y-93235784D01*
X218214499Y-93262396D01*
X218214503Y-93262398D01*
X218393665Y-93316746D01*
X218393666Y-93316746D01*
X218393669Y-93316747D01*
X218393672Y-93316747D01*
X218393676Y-93316748D01*
X218579997Y-93335099D01*
X218580000Y-93335099D01*
X218580003Y-93335099D01*
X218766323Y-93316748D01*
X218766325Y-93316747D01*
X218766331Y-93316747D01*
X218806575Y-93304539D01*
X218945496Y-93262398D01*
X218945498Y-93262396D01*
X218945501Y-93262396D01*
X218987594Y-93239897D01*
X220169500Y-93239897D01*
X220173804Y-93261537D01*
X220175331Y-93269213D01*
X220197543Y-93302457D01*
X220210762Y-93311289D01*
X220230785Y-93324668D01*
X220230787Y-93324669D01*
X220260101Y-93330500D01*
X221979898Y-93330499D01*
X222009213Y-93324669D01*
X222042457Y-93302457D01*
X222064669Y-93269213D01*
X222070500Y-93239899D01*
X222070500Y-92380003D01*
X222704901Y-92380003D01*
X222723251Y-92566323D01*
X222723253Y-92566334D01*
X222777601Y-92745496D01*
X222777603Y-92745500D01*
X222777604Y-92745501D01*
X222865864Y-92910625D01*
X222984643Y-93055357D01*
X223129375Y-93174136D01*
X223244711Y-93235784D01*
X223294499Y-93262396D01*
X223294503Y-93262398D01*
X223473665Y-93316746D01*
X223473666Y-93316746D01*
X223473669Y-93316747D01*
X223473672Y-93316747D01*
X223473676Y-93316748D01*
X223659997Y-93335099D01*
X223660000Y-93335099D01*
X223660003Y-93335099D01*
X223846323Y-93316748D01*
X223846325Y-93316747D01*
X223846331Y-93316747D01*
X223886575Y-93304539D01*
X224025496Y-93262398D01*
X224025498Y-93262396D01*
X224025501Y-93262396D01*
X224190625Y-93174136D01*
X224335357Y-93055357D01*
X224454136Y-92910625D01*
X224542396Y-92745501D01*
X224550917Y-92717413D01*
X224596746Y-92566334D01*
X224596748Y-92566323D01*
X224615099Y-92380003D01*
X225244901Y-92380003D01*
X225263251Y-92566323D01*
X225263253Y-92566334D01*
X225317601Y-92745496D01*
X225317603Y-92745500D01*
X225317604Y-92745501D01*
X225405864Y-92910625D01*
X225524643Y-93055357D01*
X225669375Y-93174136D01*
X225784711Y-93235784D01*
X225834499Y-93262396D01*
X225834503Y-93262398D01*
X226013665Y-93316746D01*
X226013666Y-93316746D01*
X226013669Y-93316747D01*
X226013672Y-93316747D01*
X226013676Y-93316748D01*
X226199997Y-93335099D01*
X226200000Y-93335099D01*
X226200003Y-93335099D01*
X226386323Y-93316748D01*
X226386325Y-93316747D01*
X226386331Y-93316747D01*
X226426575Y-93304539D01*
X226565496Y-93262398D01*
X226565498Y-93262396D01*
X226565501Y-93262396D01*
X226730625Y-93174136D01*
X226875357Y-93055357D01*
X226994136Y-92910625D01*
X227082396Y-92745501D01*
X227090917Y-92717413D01*
X227136746Y-92566334D01*
X227136748Y-92566323D01*
X227155099Y-92380003D01*
X227155099Y-92379996D01*
X227136748Y-92193676D01*
X227136746Y-92193665D01*
X227082398Y-92014503D01*
X227082396Y-92014499D01*
X226994135Y-91849374D01*
X226875357Y-91704643D01*
X226730625Y-91585864D01*
X226565500Y-91497603D01*
X226565496Y-91497601D01*
X226386334Y-91443253D01*
X226386323Y-91443251D01*
X226200003Y-91424901D01*
X226199997Y-91424901D01*
X226013676Y-91443251D01*
X226013665Y-91443253D01*
X225834503Y-91497601D01*
X225834499Y-91497603D01*
X225669374Y-91585864D01*
X225524643Y-91704643D01*
X225405864Y-91849374D01*
X225317603Y-92014499D01*
X225317601Y-92014503D01*
X225263253Y-92193665D01*
X225263251Y-92193676D01*
X225244901Y-92379996D01*
X225244901Y-92380003D01*
X224615099Y-92380003D01*
X224615099Y-92379996D01*
X224596748Y-92193676D01*
X224596746Y-92193665D01*
X224542398Y-92014503D01*
X224542396Y-92014499D01*
X224454135Y-91849374D01*
X224335357Y-91704643D01*
X224190625Y-91585864D01*
X224025500Y-91497603D01*
X224025496Y-91497601D01*
X223846334Y-91443253D01*
X223846323Y-91443251D01*
X223660003Y-91424901D01*
X223659997Y-91424901D01*
X223473676Y-91443251D01*
X223473665Y-91443253D01*
X223294503Y-91497601D01*
X223294499Y-91497603D01*
X223129374Y-91585864D01*
X222984643Y-91704643D01*
X222865864Y-91849374D01*
X222777603Y-92014499D01*
X222777601Y-92014503D01*
X222723253Y-92193665D01*
X222723251Y-92193676D01*
X222704901Y-92379996D01*
X222704901Y-92380003D01*
X222070500Y-92380003D01*
X222070499Y-91520102D01*
X222064669Y-91490787D01*
X222042457Y-91457543D01*
X222021067Y-91443251D01*
X222009214Y-91435331D01*
X221979899Y-91429500D01*
X220260102Y-91429500D01*
X220230787Y-91435331D01*
X220197545Y-91457542D01*
X220197542Y-91457544D01*
X220175331Y-91490785D01*
X220169500Y-91520100D01*
X220169500Y-93239897D01*
X218987594Y-93239897D01*
X219110625Y-93174136D01*
X219255357Y-93055357D01*
X219374136Y-92910625D01*
X219462396Y-92745501D01*
X219470917Y-92717413D01*
X219516746Y-92566334D01*
X219516748Y-92566323D01*
X219535099Y-92380003D01*
X219535099Y-92379996D01*
X219516748Y-92193676D01*
X219516746Y-92193665D01*
X219462398Y-92014503D01*
X219462396Y-92014499D01*
X219374135Y-91849374D01*
X219255357Y-91704643D01*
X219110625Y-91585864D01*
X218945500Y-91497603D01*
X218945496Y-91497601D01*
X218766334Y-91443253D01*
X218766323Y-91443251D01*
X218580003Y-91424901D01*
X218579997Y-91424901D01*
X218393676Y-91443251D01*
X218393665Y-91443253D01*
X218214503Y-91497601D01*
X218214499Y-91497603D01*
X218049374Y-91585864D01*
X217904643Y-91704643D01*
X217785864Y-91849374D01*
X217697603Y-92014499D01*
X217697601Y-92014503D01*
X217643253Y-92193665D01*
X217643251Y-92193676D01*
X217624901Y-92379996D01*
X217624901Y-92380003D01*
X216995099Y-92380003D01*
X216995099Y-92379996D01*
X216976748Y-92193676D01*
X216976746Y-92193665D01*
X216922398Y-92014503D01*
X216922396Y-92014499D01*
X216834135Y-91849374D01*
X216715357Y-91704643D01*
X216570625Y-91585864D01*
X216405500Y-91497603D01*
X216405496Y-91497601D01*
X216226334Y-91443253D01*
X216226323Y-91443251D01*
X216040003Y-91424901D01*
X216039997Y-91424901D01*
X215853676Y-91443251D01*
X215853665Y-91443253D01*
X215674503Y-91497601D01*
X215674499Y-91497603D01*
X215509374Y-91585864D01*
X215364643Y-91704643D01*
X215245864Y-91849374D01*
X215157603Y-92014499D01*
X215157601Y-92014503D01*
X215103253Y-92193665D01*
X215103251Y-92193676D01*
X215084901Y-92379996D01*
X215084901Y-92380003D01*
X214455099Y-92380003D01*
X214455099Y-92379996D01*
X214436748Y-92193676D01*
X214436746Y-92193665D01*
X214382398Y-92014503D01*
X214382396Y-92014499D01*
X214294135Y-91849374D01*
X214175357Y-91704643D01*
X214030625Y-91585864D01*
X213865500Y-91497603D01*
X213865496Y-91497601D01*
X213686334Y-91443253D01*
X213686323Y-91443251D01*
X213500003Y-91424901D01*
X213499997Y-91424901D01*
X213313676Y-91443251D01*
X213313665Y-91443253D01*
X213134503Y-91497601D01*
X213134499Y-91497603D01*
X212969374Y-91585864D01*
X212824643Y-91704643D01*
X212705864Y-91849374D01*
X212617603Y-92014499D01*
X212617601Y-92014503D01*
X212563253Y-92193665D01*
X212563251Y-92193676D01*
X212544901Y-92379996D01*
X212544901Y-92380003D01*
X211915099Y-92380003D01*
X211915099Y-92379996D01*
X211896748Y-92193676D01*
X211896746Y-92193665D01*
X211842398Y-92014503D01*
X211842396Y-92014499D01*
X211754135Y-91849374D01*
X211635357Y-91704643D01*
X211490625Y-91585864D01*
X211325500Y-91497603D01*
X211325496Y-91497601D01*
X211146334Y-91443253D01*
X211146323Y-91443251D01*
X210960003Y-91424901D01*
X210959997Y-91424901D01*
X210773676Y-91443251D01*
X210773665Y-91443253D01*
X210594503Y-91497601D01*
X210594499Y-91497603D01*
X210429374Y-91585864D01*
X210284643Y-91704643D01*
X210165864Y-91849374D01*
X210077603Y-92014499D01*
X210077601Y-92014503D01*
X210023253Y-92193665D01*
X210023251Y-92193676D01*
X210004901Y-92379996D01*
X210004901Y-92380003D01*
X210023251Y-92566323D01*
X210023253Y-92566334D01*
X210077601Y-92745496D01*
X210077603Y-92745500D01*
X210077604Y-92745501D01*
X210165864Y-92910625D01*
X210284643Y-93055357D01*
X210383633Y-93136596D01*
X210429372Y-93174134D01*
X210429373Y-93174134D01*
X210429375Y-93174136D01*
X210592898Y-93261540D01*
X210643544Y-93311289D01*
X210659500Y-93372660D01*
X210659500Y-99696337D01*
X210639498Y-99764458D01*
X210622596Y-99785432D01*
X210491434Y-99916595D01*
X210429122Y-99950620D01*
X210402338Y-99953500D01*
X207289256Y-99953500D01*
X207221135Y-99933498D01*
X207200860Y-99915930D01*
X207200858Y-99915933D01*
X207194047Y-99910031D01*
X207085073Y-99839998D01*
X207085070Y-99839996D01*
X207085069Y-99839996D01*
X207085066Y-99839995D01*
X206960776Y-99803501D01*
X206960774Y-99803500D01*
X206960772Y-99803500D01*
X206831228Y-99803500D01*
X206831225Y-99803500D01*
X206831223Y-99803501D01*
X206706933Y-99839995D01*
X206706926Y-99839998D01*
X206597951Y-99910032D01*
X206529085Y-99989510D01*
X206513118Y-100007937D01*
X206459303Y-100125774D01*
X206440867Y-100254000D01*
X206459303Y-100382226D01*
X206513118Y-100500063D01*
X206597951Y-100597967D01*
X206706931Y-100668004D01*
X206831228Y-100704500D01*
X206831232Y-100704500D01*
X206960768Y-100704500D01*
X206960772Y-100704500D01*
X207085069Y-100668004D01*
X207194049Y-100597967D01*
X207194051Y-100597964D01*
X207200858Y-100592067D01*
X207201710Y-100593051D01*
X207253762Y-100559603D01*
X207289256Y-100554500D01*
X210516091Y-100554500D01*
X210524805Y-100555105D01*
X210536760Y-100556771D01*
X210536765Y-100556773D01*
X210578323Y-100554851D01*
X210584489Y-100554567D01*
X210587399Y-100554500D01*
X210606841Y-100554500D01*
X210606844Y-100554500D01*
X210609404Y-100554021D01*
X210618085Y-100553013D01*
X210623409Y-100552767D01*
X210648992Y-100551585D01*
X210655115Y-100548881D01*
X210682861Y-100540289D01*
X210689433Y-100539061D01*
X210715734Y-100522776D01*
X210723464Y-100518702D01*
X210729284Y-100516131D01*
X210751765Y-100506206D01*
X210756492Y-100501478D01*
X210779264Y-100483441D01*
X210781610Y-100481988D01*
X210784952Y-100479919D01*
X210787501Y-100476543D01*
X210844512Y-100434234D01*
X210915348Y-100429464D01*
X210977518Y-100463748D01*
X211011284Y-100526201D01*
X211014053Y-100552767D01*
X211010153Y-102215795D01*
X210989991Y-102283869D01*
X210936226Y-102330236D01*
X210884153Y-102341500D01*
X209750016Y-102341500D01*
X209681895Y-102321498D01*
X209660921Y-102304595D01*
X208475165Y-101118839D01*
X208471450Y-101114786D01*
X208445454Y-101083805D01*
X208445451Y-101083803D01*
X208410435Y-101063586D01*
X208405800Y-101060633D01*
X208372683Y-101037445D01*
X208367152Y-101034866D01*
X208351796Y-101028505D01*
X208346047Y-101026412D01*
X208322174Y-101022202D01*
X208306234Y-101019391D01*
X208300872Y-101018203D01*
X208261808Y-101007736D01*
X208261805Y-101007736D01*
X208250127Y-101008757D01*
X208221524Y-101011260D01*
X208216040Y-101011500D01*
X204968266Y-101011500D01*
X204900145Y-100991498D01*
X204879171Y-100974596D01*
X204496642Y-100592067D01*
X204084047Y-100179473D01*
X204050023Y-100117161D01*
X204055087Y-100046346D01*
X204097634Y-99989510D01*
X204104996Y-99984398D01*
X204159906Y-99949110D01*
X204244739Y-99851206D01*
X204298554Y-99733369D01*
X204316990Y-99605143D01*
X204298554Y-99476917D01*
X204244739Y-99359080D01*
X204192610Y-99298919D01*
X204159906Y-99261175D01*
X204129378Y-99241556D01*
X204082886Y-99187900D01*
X204071500Y-99135559D01*
X204071500Y-99033413D01*
X204074181Y-99007557D01*
X204076042Y-98998685D01*
X204071983Y-98966123D01*
X204071500Y-98958334D01*
X204071500Y-98954966D01*
X204071500Y-98954960D01*
X204067910Y-98933449D01*
X204061573Y-98882607D01*
X204061571Y-98882604D01*
X204059475Y-98875565D01*
X204059471Y-98875551D01*
X204059465Y-98875533D01*
X204057093Y-98868620D01*
X204032704Y-98823555D01*
X204010199Y-98777517D01*
X204005932Y-98771541D01*
X204001419Y-98765743D01*
X203963724Y-98731042D01*
X201785978Y-96553296D01*
X201751953Y-96490984D01*
X201750355Y-96482132D01*
X201744697Y-96442774D01*
X201690882Y-96324937D01*
X201606049Y-96227033D01*
X201606048Y-96227032D01*
X201497073Y-96156998D01*
X201497070Y-96156996D01*
X201497069Y-96156996D01*
X201497066Y-96156995D01*
X201372776Y-96120501D01*
X201372774Y-96120500D01*
X201372772Y-96120500D01*
X201243228Y-96120500D01*
X201243225Y-96120500D01*
X201243223Y-96120501D01*
X201118933Y-96156995D01*
X201118926Y-96156998D01*
X201009951Y-96227032D01*
X200937903Y-96310182D01*
X200925118Y-96324937D01*
X200871303Y-96442774D01*
X200852867Y-96571000D01*
X200871303Y-96699226D01*
X200925118Y-96817063D01*
X201009951Y-96914967D01*
X201118931Y-96985004D01*
X201240105Y-97020583D01*
X201293702Y-97052384D01*
X201600167Y-97358849D01*
X201634193Y-97421161D01*
X201629128Y-97491976D01*
X201586581Y-97548812D01*
X201520061Y-97573623D01*
X201450687Y-97558532D01*
X201438804Y-97551159D01*
X201424931Y-97541445D01*
X201419400Y-97538866D01*
X201404044Y-97532505D01*
X201398295Y-97530412D01*
X201374422Y-97526202D01*
X201358482Y-97523391D01*
X201353120Y-97522203D01*
X201314056Y-97511736D01*
X201314053Y-97511736D01*
X201302375Y-97512757D01*
X201273772Y-97515260D01*
X201268288Y-97515500D01*
X199231494Y-97515500D01*
X199163373Y-97495498D01*
X199116880Y-97441842D01*
X199105495Y-97388921D01*
X199106365Y-97199674D01*
X199112982Y-95758921D01*
X199133297Y-95690893D01*
X199187166Y-95644647D01*
X199238981Y-95633500D01*
X206708324Y-95633500D01*
X206720979Y-95633048D01*
X206785461Y-95620222D01*
X206833910Y-95602150D01*
X206851982Y-95595411D01*
X206851981Y-95595411D01*
X206874951Y-95585203D01*
X206943878Y-95526696D01*
X207008754Y-95497864D01*
X207078921Y-95508684D01*
X207114509Y-95533663D01*
X208083012Y-96502166D01*
X208117038Y-96564478D01*
X208118635Y-96609191D01*
X208109484Y-96672842D01*
X208105867Y-96698000D01*
X208124303Y-96826226D01*
X208178118Y-96944063D01*
X208244422Y-97020583D01*
X208262951Y-97041967D01*
X208319019Y-97078000D01*
X208371931Y-97112004D01*
X208496228Y-97148500D01*
X208496232Y-97148500D01*
X208625768Y-97148500D01*
X208625772Y-97148500D01*
X208750069Y-97112004D01*
X208859049Y-97041967D01*
X208943882Y-96944063D01*
X208997697Y-96826226D01*
X209016133Y-96698000D01*
X208997697Y-96569774D01*
X208972885Y-96515445D01*
X208961500Y-96463104D01*
X208961500Y-96350330D01*
X208961500Y-96350328D01*
X208954699Y-96329397D01*
X208950088Y-96310192D01*
X208946646Y-96288457D01*
X208936657Y-96268854D01*
X208929093Y-96250593D01*
X208922296Y-96229671D01*
X208909366Y-96211875D01*
X208899035Y-96195017D01*
X208889050Y-96175419D01*
X208799342Y-96085711D01*
X208562226Y-95848595D01*
X208528200Y-95786283D01*
X208533265Y-95715468D01*
X208575812Y-95658632D01*
X208642332Y-95633821D01*
X208651321Y-95633500D01*
X209055994Y-95633500D01*
X209056000Y-95633500D01*
X209099681Y-95628804D01*
X209152023Y-95617418D01*
X209162203Y-95614930D01*
X209242916Y-95571921D01*
X209294689Y-95527060D01*
X209296569Y-95525431D01*
X209296568Y-95525432D01*
X209299695Y-95522368D01*
X209314527Y-95507835D01*
X209359174Y-95428017D01*
X209359174Y-95428016D01*
X209359176Y-95428013D01*
X209379172Y-95359908D01*
X209379176Y-95359896D01*
X209387500Y-95302000D01*
X209387500Y-93776000D01*
X209382804Y-93732319D01*
X209371418Y-93679977D01*
X209368930Y-93669797D01*
X209325921Y-93589084D01*
X209305257Y-93565236D01*
X209279433Y-93535433D01*
X209278374Y-93534353D01*
X209271668Y-93527508D01*
X209238279Y-93464855D01*
X209244063Y-93394095D01*
X209287184Y-93337694D01*
X209303241Y-93328658D01*
X209309210Y-93324669D01*
X209309213Y-93324669D01*
X209342457Y-93302457D01*
X209364669Y-93269213D01*
X209370500Y-93239899D01*
X209370499Y-91520102D01*
X209364669Y-91490787D01*
X209342457Y-91457543D01*
X209321067Y-91443251D01*
X209309214Y-91435331D01*
X209279899Y-91429500D01*
X207560102Y-91429500D01*
X207530787Y-91435331D01*
X207497545Y-91457542D01*
X207497542Y-91457544D01*
X207475331Y-91490785D01*
X207469500Y-91520100D01*
X207469500Y-93239897D01*
X207475331Y-93269215D01*
X207475853Y-93270474D01*
X207476171Y-93273436D01*
X207477752Y-93281385D01*
X207477040Y-93281526D01*
X207483436Y-93341065D01*
X207451652Y-93404549D01*
X207390591Y-93440772D01*
X207359468Y-93444683D01*
X206664677Y-93444836D01*
X206664420Y-93444837D01*
X206663893Y-93444855D01*
X206651813Y-93445288D01*
X206587350Y-93458114D01*
X206520821Y-93482930D01*
X206520822Y-93482930D01*
X206497868Y-93493131D01*
X206497865Y-93493133D01*
X206428138Y-93552317D01*
X206404717Y-93583603D01*
X206347880Y-93626148D01*
X206277064Y-93631212D01*
X206264916Y-93627926D01*
X206253372Y-93624175D01*
X206226672Y-93615500D01*
X206226670Y-93615500D01*
X193109436Y-93615500D01*
X193089726Y-93613949D01*
X193068000Y-93610508D01*
X193036481Y-93615500D01*
X193005219Y-93620451D01*
X192942694Y-93630354D01*
X192829657Y-93687949D01*
X192739950Y-93777656D01*
X192734463Y-93788425D01*
X192711294Y-93820311D01*
X192063597Y-94468008D01*
X192010003Y-94499808D01*
X191988934Y-94505994D01*
X191988929Y-94505997D01*
X191879949Y-94576033D01*
X191795118Y-94673937D01*
X191741303Y-94791774D01*
X191722867Y-94920000D01*
X191741303Y-95048226D01*
X191795118Y-95166063D01*
X191795119Y-95166064D01*
X191795119Y-95166065D01*
X191883435Y-95267989D01*
X191912928Y-95332570D01*
X191902823Y-95402844D01*
X191856329Y-95456499D01*
X191788210Y-95476500D01*
X183921993Y-95476500D01*
X183878318Y-95481196D01*
X183853182Y-95486664D01*
X183825977Y-95492582D01*
X183820887Y-95493826D01*
X183815796Y-95495070D01*
X183815789Y-95495073D01*
X183782753Y-95512677D01*
X183713229Y-95527060D01*
X183646965Y-95501571D01*
X183605001Y-95444304D01*
X183597500Y-95401479D01*
X183597500Y-93456499D01*
X183617502Y-93388378D01*
X183671158Y-93341885D01*
X183723500Y-93330499D01*
X183879897Y-93330499D01*
X183879898Y-93330499D01*
X183909213Y-93324669D01*
X183942457Y-93302457D01*
X183964669Y-93269213D01*
X183970500Y-93239899D01*
X183970500Y-92380003D01*
X184604901Y-92380003D01*
X184623251Y-92566323D01*
X184623253Y-92566334D01*
X184677601Y-92745496D01*
X184677603Y-92745500D01*
X184677604Y-92745501D01*
X184765864Y-92910625D01*
X184884643Y-93055357D01*
X185029375Y-93174136D01*
X185144711Y-93235784D01*
X185194499Y-93262396D01*
X185194503Y-93262398D01*
X185373665Y-93316746D01*
X185373666Y-93316746D01*
X185373669Y-93316747D01*
X185373672Y-93316747D01*
X185373676Y-93316748D01*
X185559997Y-93335099D01*
X185560000Y-93335099D01*
X185560003Y-93335099D01*
X185746323Y-93316748D01*
X185746325Y-93316747D01*
X185746331Y-93316747D01*
X185786575Y-93304539D01*
X185925496Y-93262398D01*
X185925498Y-93262396D01*
X185925501Y-93262396D01*
X186090625Y-93174136D01*
X186235357Y-93055357D01*
X186354136Y-92910625D01*
X186442396Y-92745501D01*
X186450917Y-92717413D01*
X186496746Y-92566334D01*
X186496748Y-92566323D01*
X186515099Y-92380003D01*
X187144901Y-92380003D01*
X187163251Y-92566323D01*
X187163253Y-92566334D01*
X187217601Y-92745496D01*
X187217603Y-92745500D01*
X187217604Y-92745501D01*
X187305864Y-92910625D01*
X187424643Y-93055357D01*
X187569375Y-93174136D01*
X187684711Y-93235784D01*
X187734499Y-93262396D01*
X187734503Y-93262398D01*
X187913665Y-93316746D01*
X187913666Y-93316746D01*
X187913669Y-93316747D01*
X187913672Y-93316747D01*
X187913676Y-93316748D01*
X188099997Y-93335099D01*
X188100000Y-93335099D01*
X188100003Y-93335099D01*
X188286323Y-93316748D01*
X188286325Y-93316747D01*
X188286331Y-93316747D01*
X188326575Y-93304539D01*
X188465496Y-93262398D01*
X188465498Y-93262396D01*
X188465501Y-93262396D01*
X188630625Y-93174136D01*
X188775357Y-93055357D01*
X188894136Y-92910625D01*
X188982396Y-92745501D01*
X188990917Y-92717413D01*
X189036746Y-92566334D01*
X189036748Y-92566323D01*
X189055099Y-92380003D01*
X189684901Y-92380003D01*
X189703251Y-92566323D01*
X189703253Y-92566334D01*
X189757601Y-92745496D01*
X189757603Y-92745500D01*
X189757604Y-92745501D01*
X189845864Y-92910625D01*
X189964643Y-93055357D01*
X190109375Y-93174136D01*
X190224711Y-93235784D01*
X190274499Y-93262396D01*
X190274503Y-93262398D01*
X190453665Y-93316746D01*
X190453666Y-93316746D01*
X190453669Y-93316747D01*
X190453672Y-93316747D01*
X190453676Y-93316748D01*
X190639997Y-93335099D01*
X190640000Y-93335099D01*
X190640003Y-93335099D01*
X190826323Y-93316748D01*
X190826325Y-93316747D01*
X190826331Y-93316747D01*
X190866575Y-93304539D01*
X191005496Y-93262398D01*
X191005498Y-93262396D01*
X191005501Y-93262396D01*
X191170625Y-93174136D01*
X191315357Y-93055357D01*
X191434136Y-92910625D01*
X191522396Y-92745501D01*
X191530917Y-92717413D01*
X191576746Y-92566334D01*
X191576748Y-92566323D01*
X191595099Y-92380003D01*
X192224901Y-92380003D01*
X192243251Y-92566323D01*
X192243253Y-92566334D01*
X192297601Y-92745496D01*
X192297603Y-92745500D01*
X192297604Y-92745501D01*
X192385864Y-92910625D01*
X192504643Y-93055357D01*
X192649375Y-93174136D01*
X192764711Y-93235784D01*
X192814499Y-93262396D01*
X192814503Y-93262398D01*
X192993665Y-93316746D01*
X192993666Y-93316746D01*
X192993669Y-93316747D01*
X192993672Y-93316747D01*
X192993676Y-93316748D01*
X193179997Y-93335099D01*
X193180000Y-93335099D01*
X193180003Y-93335099D01*
X193366323Y-93316748D01*
X193366325Y-93316747D01*
X193366331Y-93316747D01*
X193406575Y-93304539D01*
X193545496Y-93262398D01*
X193545498Y-93262396D01*
X193545501Y-93262396D01*
X193587594Y-93239897D01*
X194769500Y-93239897D01*
X194773804Y-93261537D01*
X194775331Y-93269213D01*
X194797543Y-93302457D01*
X194810762Y-93311289D01*
X194830785Y-93324668D01*
X194830787Y-93324669D01*
X194860101Y-93330500D01*
X196579898Y-93330499D01*
X196609213Y-93324669D01*
X196642457Y-93302457D01*
X196664669Y-93269213D01*
X196670500Y-93239899D01*
X196670500Y-92380003D01*
X197304901Y-92380003D01*
X197323251Y-92566323D01*
X197323253Y-92566334D01*
X197377601Y-92745496D01*
X197377603Y-92745500D01*
X197377604Y-92745501D01*
X197465864Y-92910625D01*
X197584643Y-93055357D01*
X197729375Y-93174136D01*
X197844711Y-93235784D01*
X197894499Y-93262396D01*
X197894503Y-93262398D01*
X198073665Y-93316746D01*
X198073666Y-93316746D01*
X198073669Y-93316747D01*
X198073672Y-93316747D01*
X198073676Y-93316748D01*
X198259997Y-93335099D01*
X198260000Y-93335099D01*
X198260003Y-93335099D01*
X198446323Y-93316748D01*
X198446325Y-93316747D01*
X198446331Y-93316747D01*
X198486575Y-93304539D01*
X198625496Y-93262398D01*
X198625498Y-93262396D01*
X198625501Y-93262396D01*
X198790625Y-93174136D01*
X198935357Y-93055357D01*
X199054136Y-92910625D01*
X199142396Y-92745501D01*
X199150917Y-92717413D01*
X199196746Y-92566334D01*
X199196748Y-92566323D01*
X199215099Y-92380003D01*
X199844901Y-92380003D01*
X199863251Y-92566323D01*
X199863253Y-92566334D01*
X199917601Y-92745496D01*
X199917603Y-92745500D01*
X199917604Y-92745501D01*
X200005864Y-92910625D01*
X200124643Y-93055357D01*
X200269375Y-93174136D01*
X200384711Y-93235784D01*
X200434499Y-93262396D01*
X200434503Y-93262398D01*
X200613665Y-93316746D01*
X200613666Y-93316746D01*
X200613669Y-93316747D01*
X200613672Y-93316747D01*
X200613676Y-93316748D01*
X200799997Y-93335099D01*
X200800000Y-93335099D01*
X200800003Y-93335099D01*
X200986323Y-93316748D01*
X200986325Y-93316747D01*
X200986331Y-93316747D01*
X201026575Y-93304539D01*
X201165496Y-93262398D01*
X201165498Y-93262396D01*
X201165501Y-93262396D01*
X201330625Y-93174136D01*
X201475357Y-93055357D01*
X201594136Y-92910625D01*
X201682396Y-92745501D01*
X201690917Y-92717413D01*
X201736746Y-92566334D01*
X201736748Y-92566323D01*
X201755099Y-92380003D01*
X202384901Y-92380003D01*
X202403251Y-92566323D01*
X202403253Y-92566334D01*
X202457601Y-92745496D01*
X202457603Y-92745500D01*
X202457604Y-92745501D01*
X202545864Y-92910625D01*
X202664643Y-93055357D01*
X202809375Y-93174136D01*
X202924711Y-93235784D01*
X202974499Y-93262396D01*
X202974503Y-93262398D01*
X203153665Y-93316746D01*
X203153666Y-93316746D01*
X203153669Y-93316747D01*
X203153672Y-93316747D01*
X203153676Y-93316748D01*
X203339997Y-93335099D01*
X203340000Y-93335099D01*
X203340003Y-93335099D01*
X203526323Y-93316748D01*
X203526325Y-93316747D01*
X203526331Y-93316747D01*
X203566575Y-93304539D01*
X203705496Y-93262398D01*
X203705498Y-93262396D01*
X203705501Y-93262396D01*
X203870625Y-93174136D01*
X204015357Y-93055357D01*
X204134136Y-92910625D01*
X204222396Y-92745501D01*
X204230917Y-92717413D01*
X204276746Y-92566334D01*
X204276748Y-92566323D01*
X204295099Y-92380003D01*
X204924901Y-92380003D01*
X204943251Y-92566323D01*
X204943253Y-92566334D01*
X204997601Y-92745496D01*
X204997603Y-92745500D01*
X204997604Y-92745501D01*
X205085864Y-92910625D01*
X205204643Y-93055357D01*
X205349375Y-93174136D01*
X205464711Y-93235784D01*
X205514499Y-93262396D01*
X205514503Y-93262398D01*
X205693665Y-93316746D01*
X205693666Y-93316746D01*
X205693669Y-93316747D01*
X205693672Y-93316747D01*
X205693676Y-93316748D01*
X205879997Y-93335099D01*
X205880000Y-93335099D01*
X205880003Y-93335099D01*
X206066323Y-93316748D01*
X206066325Y-93316747D01*
X206066331Y-93316747D01*
X206106575Y-93304539D01*
X206245496Y-93262398D01*
X206245498Y-93262396D01*
X206245501Y-93262396D01*
X206410625Y-93174136D01*
X206555357Y-93055357D01*
X206674136Y-92910625D01*
X206762396Y-92745501D01*
X206770917Y-92717413D01*
X206816746Y-92566334D01*
X206816748Y-92566323D01*
X206835099Y-92380003D01*
X206835099Y-92379996D01*
X206816748Y-92193676D01*
X206816746Y-92193665D01*
X206762398Y-92014503D01*
X206762396Y-92014499D01*
X206674135Y-91849374D01*
X206555357Y-91704643D01*
X206410625Y-91585864D01*
X206245500Y-91497603D01*
X206245496Y-91497601D01*
X206066334Y-91443253D01*
X206066323Y-91443251D01*
X205880003Y-91424901D01*
X205879997Y-91424901D01*
X205693676Y-91443251D01*
X205693665Y-91443253D01*
X205514503Y-91497601D01*
X205514499Y-91497603D01*
X205349374Y-91585864D01*
X205204643Y-91704643D01*
X205085864Y-91849374D01*
X204997603Y-92014499D01*
X204997601Y-92014503D01*
X204943253Y-92193665D01*
X204943251Y-92193676D01*
X204924901Y-92379996D01*
X204924901Y-92380003D01*
X204295099Y-92380003D01*
X204295099Y-92379996D01*
X204276748Y-92193676D01*
X204276746Y-92193665D01*
X204222398Y-92014503D01*
X204222396Y-92014499D01*
X204134135Y-91849374D01*
X204015357Y-91704643D01*
X203870625Y-91585864D01*
X203705500Y-91497603D01*
X203705496Y-91497601D01*
X203526334Y-91443253D01*
X203526323Y-91443251D01*
X203340003Y-91424901D01*
X203339997Y-91424901D01*
X203153676Y-91443251D01*
X203153665Y-91443253D01*
X202974503Y-91497601D01*
X202974499Y-91497603D01*
X202809374Y-91585864D01*
X202664643Y-91704643D01*
X202545864Y-91849374D01*
X202457603Y-92014499D01*
X202457601Y-92014503D01*
X202403253Y-92193665D01*
X202403251Y-92193676D01*
X202384901Y-92379996D01*
X202384901Y-92380003D01*
X201755099Y-92380003D01*
X201755099Y-92379996D01*
X201736748Y-92193676D01*
X201736747Y-92193672D01*
X201736747Y-92193669D01*
X201715837Y-92124742D01*
X201715203Y-92053753D01*
X201747314Y-91999077D01*
X202833990Y-90912402D01*
X202896300Y-90878379D01*
X202923083Y-90875500D01*
X226997917Y-90875500D01*
X227066038Y-90895502D01*
X227087012Y-90912405D01*
X227794595Y-91619988D01*
X227828621Y-91682300D01*
X227831500Y-91709083D01*
X227831500Y-92923917D01*
X227811498Y-92992038D01*
X227794595Y-93013012D01*
X226071012Y-94736595D01*
X226008700Y-94770621D01*
X225981917Y-94773500D01*
X221874048Y-94773500D01*
X221821702Y-94762112D01*
X221817063Y-94759993D01*
X221692778Y-94723501D01*
X221692774Y-94723500D01*
X221692772Y-94723500D01*
X221563228Y-94723500D01*
X221563225Y-94723500D01*
X221563223Y-94723501D01*
X221438933Y-94759995D01*
X221438926Y-94759998D01*
X221329951Y-94830032D01*
X221251995Y-94920000D01*
X221245118Y-94927937D01*
X221191303Y-95045774D01*
X221172867Y-95174000D01*
X221191303Y-95302226D01*
X221245118Y-95420063D01*
X221302827Y-95486664D01*
X221329951Y-95517967D01*
X221434572Y-95585203D01*
X221438931Y-95588004D01*
X221563228Y-95624500D01*
X221563232Y-95624500D01*
X221692768Y-95624500D01*
X221692772Y-95624500D01*
X221768840Y-95602165D01*
X221817063Y-95588006D01*
X221817064Y-95588005D01*
X221817069Y-95588004D01*
X221817072Y-95588001D01*
X221821702Y-95585888D01*
X221874048Y-95574500D01*
X226263431Y-95574500D01*
X226263433Y-95574500D01*
X226284360Y-95567700D01*
X226303569Y-95563088D01*
X226325304Y-95559646D01*
X226344910Y-95549655D01*
X226363161Y-95542095D01*
X226384090Y-95535296D01*
X226401891Y-95522362D01*
X226418741Y-95512036D01*
X226438342Y-95502050D01*
X226453718Y-95486672D01*
X226453729Y-95486664D01*
X228544667Y-93395727D01*
X228544675Y-93395716D01*
X228560050Y-93380342D01*
X228570036Y-93360741D01*
X228580362Y-93343891D01*
X228593296Y-93326090D01*
X228600095Y-93305161D01*
X228607655Y-93286910D01*
X228617646Y-93267304D01*
X228621088Y-93245569D01*
X228625700Y-93226360D01*
X228632500Y-93205433D01*
X228632500Y-93078567D01*
X228632500Y-91459481D01*
X228632500Y-91427567D01*
X228625699Y-91406636D01*
X228621088Y-91387431D01*
X228617646Y-91365696D01*
X228607659Y-91346096D01*
X228600092Y-91327827D01*
X228593296Y-91306910D01*
X228593295Y-91306908D01*
X228580366Y-91289113D01*
X228570035Y-91272254D01*
X228560051Y-91252659D01*
X228560050Y-91252658D01*
X228539419Y-91232027D01*
X228539402Y-91232008D01*
X227475363Y-90167969D01*
X227475334Y-90167942D01*
X227454342Y-90146950D01*
X227454341Y-90146949D01*
X227454340Y-90146948D01*
X227434738Y-90136960D01*
X227417883Y-90126631D01*
X227400091Y-90113704D01*
X227400089Y-90113703D01*
X227379169Y-90106906D01*
X227360906Y-90099341D01*
X227341306Y-90089355D01*
X227341305Y-90089354D01*
X227341304Y-90089354D01*
X227341302Y-90089353D01*
X227341300Y-90089353D01*
X227319577Y-90085912D01*
X227300358Y-90081298D01*
X227279434Y-90074500D01*
X227279433Y-90074500D01*
X227247519Y-90074500D01*
X202768433Y-90074500D01*
X202641567Y-90074500D01*
X202632626Y-90077405D01*
X202620640Y-90081299D01*
X202601423Y-90085912D01*
X202579696Y-90089353D01*
X202560091Y-90099342D01*
X202541837Y-90106903D01*
X202520912Y-90113703D01*
X202503110Y-90126636D01*
X202486260Y-90136961D01*
X202466658Y-90146949D01*
X202466655Y-90146951D01*
X202444091Y-90169516D01*
X201180925Y-91432681D01*
X201118613Y-91466707D01*
X201055255Y-91464161D01*
X200986331Y-91443253D01*
X200986330Y-91443252D01*
X200986324Y-91443251D01*
X200800003Y-91424901D01*
X200799997Y-91424901D01*
X200613676Y-91443251D01*
X200613665Y-91443253D01*
X200434503Y-91497601D01*
X200434499Y-91497603D01*
X200269374Y-91585864D01*
X200124643Y-91704643D01*
X200005864Y-91849374D01*
X199917603Y-92014499D01*
X199917601Y-92014503D01*
X199863253Y-92193665D01*
X199863251Y-92193676D01*
X199844901Y-92379996D01*
X199844901Y-92380003D01*
X199215099Y-92380003D01*
X199215099Y-92379996D01*
X199196748Y-92193676D01*
X199196746Y-92193665D01*
X199142398Y-92014503D01*
X199142396Y-92014499D01*
X199054135Y-91849374D01*
X198935357Y-91704643D01*
X198790625Y-91585864D01*
X198625500Y-91497603D01*
X198625496Y-91497601D01*
X198446334Y-91443253D01*
X198446323Y-91443251D01*
X198260003Y-91424901D01*
X198259997Y-91424901D01*
X198073676Y-91443251D01*
X198073665Y-91443253D01*
X197894503Y-91497601D01*
X197894499Y-91497603D01*
X197729374Y-91585864D01*
X197584643Y-91704643D01*
X197465864Y-91849374D01*
X197377603Y-92014499D01*
X197377601Y-92014503D01*
X197323253Y-92193665D01*
X197323251Y-92193676D01*
X197304901Y-92379996D01*
X197304901Y-92380003D01*
X196670500Y-92380003D01*
X196670499Y-91520102D01*
X196664669Y-91490787D01*
X196642457Y-91457543D01*
X196621067Y-91443251D01*
X196609214Y-91435331D01*
X196579899Y-91429500D01*
X194860102Y-91429500D01*
X194830787Y-91435331D01*
X194797545Y-91457542D01*
X194797542Y-91457544D01*
X194775331Y-91490785D01*
X194769500Y-91520100D01*
X194769500Y-93239897D01*
X193587594Y-93239897D01*
X193710625Y-93174136D01*
X193855357Y-93055357D01*
X193974136Y-92910625D01*
X194062396Y-92745501D01*
X194070917Y-92717413D01*
X194116746Y-92566334D01*
X194116748Y-92566323D01*
X194135099Y-92380003D01*
X194135099Y-92379996D01*
X194116748Y-92193676D01*
X194116746Y-92193665D01*
X194062398Y-92014503D01*
X194062396Y-92014499D01*
X193974135Y-91849374D01*
X193855357Y-91704643D01*
X193710625Y-91585864D01*
X193545500Y-91497603D01*
X193545496Y-91497601D01*
X193366334Y-91443253D01*
X193366323Y-91443251D01*
X193180003Y-91424901D01*
X193179997Y-91424901D01*
X192993676Y-91443251D01*
X192993665Y-91443253D01*
X192814503Y-91497601D01*
X192814499Y-91497603D01*
X192649374Y-91585864D01*
X192504643Y-91704643D01*
X192385864Y-91849374D01*
X192297603Y-92014499D01*
X192297601Y-92014503D01*
X192243253Y-92193665D01*
X192243251Y-92193676D01*
X192224901Y-92379996D01*
X192224901Y-92380003D01*
X191595099Y-92380003D01*
X191595099Y-92379996D01*
X191576748Y-92193676D01*
X191576746Y-92193665D01*
X191522398Y-92014503D01*
X191522396Y-92014499D01*
X191434135Y-91849374D01*
X191315357Y-91704643D01*
X191170625Y-91585864D01*
X191005500Y-91497603D01*
X191005496Y-91497601D01*
X190826334Y-91443253D01*
X190826323Y-91443251D01*
X190640003Y-91424901D01*
X190639997Y-91424901D01*
X190453676Y-91443251D01*
X190453665Y-91443253D01*
X190274503Y-91497601D01*
X190274499Y-91497603D01*
X190109374Y-91585864D01*
X189964643Y-91704643D01*
X189845864Y-91849374D01*
X189757603Y-92014499D01*
X189757601Y-92014503D01*
X189703253Y-92193665D01*
X189703251Y-92193676D01*
X189684901Y-92379996D01*
X189684901Y-92380003D01*
X189055099Y-92380003D01*
X189055099Y-92379996D01*
X189036748Y-92193676D01*
X189036746Y-92193665D01*
X188982398Y-92014503D01*
X188982396Y-92014499D01*
X188894135Y-91849374D01*
X188775357Y-91704643D01*
X188630625Y-91585864D01*
X188465500Y-91497603D01*
X188465496Y-91497601D01*
X188286334Y-91443253D01*
X188286323Y-91443251D01*
X188100003Y-91424901D01*
X188099997Y-91424901D01*
X187913676Y-91443251D01*
X187913665Y-91443253D01*
X187734503Y-91497601D01*
X187734499Y-91497603D01*
X187569374Y-91585864D01*
X187424643Y-91704643D01*
X187305864Y-91849374D01*
X187217603Y-92014499D01*
X187217601Y-92014503D01*
X187163253Y-92193665D01*
X187163251Y-92193676D01*
X187144901Y-92379996D01*
X187144901Y-92380003D01*
X186515099Y-92380003D01*
X186515099Y-92379996D01*
X186496748Y-92193676D01*
X186496746Y-92193665D01*
X186442398Y-92014503D01*
X186442396Y-92014499D01*
X186354135Y-91849374D01*
X186235357Y-91704643D01*
X186090625Y-91585864D01*
X185925500Y-91497603D01*
X185925496Y-91497601D01*
X185746334Y-91443253D01*
X185746323Y-91443251D01*
X185560003Y-91424901D01*
X185559997Y-91424901D01*
X185373676Y-91443251D01*
X185373665Y-91443253D01*
X185194503Y-91497601D01*
X185194499Y-91497603D01*
X185029374Y-91585864D01*
X184884643Y-91704643D01*
X184765864Y-91849374D01*
X184677603Y-92014499D01*
X184677601Y-92014503D01*
X184623253Y-92193665D01*
X184623251Y-92193676D01*
X184604901Y-92379996D01*
X184604901Y-92380003D01*
X183970500Y-92380003D01*
X183970499Y-91520102D01*
X183964669Y-91490787D01*
X183942457Y-91457543D01*
X183921067Y-91443251D01*
X183909214Y-91435331D01*
X183879899Y-91429500D01*
X182160102Y-91429500D01*
X182130787Y-91435331D01*
X182097545Y-91457542D01*
X182097542Y-91457544D01*
X182075331Y-91490785D01*
X182069500Y-91520100D01*
X182069500Y-93239897D01*
X182073804Y-93261537D01*
X182075331Y-93269213D01*
X182097543Y-93302457D01*
X182110762Y-93311289D01*
X182130785Y-93324668D01*
X182130787Y-93324669D01*
X182160101Y-93330500D01*
X182570500Y-93330499D01*
X182638620Y-93350501D01*
X182685114Y-93404156D01*
X182696500Y-93456499D01*
X182696500Y-94085458D01*
X182676498Y-94153579D01*
X182622842Y-94200072D01*
X182552571Y-94210176D01*
X182527000Y-94206500D01*
X178338094Y-94206500D01*
X178331325Y-94206723D01*
X178311391Y-94208038D01*
X178311386Y-94208039D01*
X178241617Y-94225235D01*
X178241608Y-94225238D01*
X178218200Y-94235619D01*
X178176710Y-94254019D01*
X178168395Y-94258333D01*
X178154398Y-94265595D01*
X178088373Y-94328879D01*
X178073758Y-94351081D01*
X178049335Y-94388181D01*
X178049332Y-94388186D01*
X178049332Y-94388185D01*
X178034950Y-94413248D01*
X177983696Y-94462375D01*
X177914018Y-94475994D01*
X177902246Y-94474009D01*
X177898057Y-94473500D01*
X177898056Y-94473500D01*
X177727944Y-94473500D01*
X177727943Y-94473500D01*
X177727930Y-94473501D01*
X177727455Y-94473619D01*
X177727096Y-94473603D01*
X177720376Y-94474419D01*
X177720240Y-94473300D01*
X177656527Y-94470492D01*
X177598550Y-94429515D01*
X177586118Y-94410531D01*
X177574211Y-94388185D01*
X177554441Y-94351084D01*
X177554439Y-94351082D01*
X177554439Y-94351081D01*
X177507951Y-94297431D01*
X177507952Y-94297432D01*
X177490353Y-94279471D01*
X177410533Y-94234823D01*
X177342428Y-94214827D01*
X177342419Y-94214825D01*
X177342416Y-94214824D01*
X177284520Y-94206500D01*
X175276500Y-94206500D01*
X175208379Y-94186498D01*
X175161886Y-94132842D01*
X175150500Y-94080500D01*
X175150500Y-92634000D01*
X176603455Y-92634000D01*
X176651176Y-92822449D01*
X176651179Y-92822456D01*
X176741580Y-93028548D01*
X176864674Y-93216958D01*
X177017097Y-93382534D01*
X177194698Y-93520767D01*
X177194699Y-93520768D01*
X177392628Y-93627882D01*
X177392630Y-93627883D01*
X177605483Y-93700955D01*
X177605492Y-93700957D01*
X177686000Y-93714391D01*
X177686000Y-92824668D01*
X177794839Y-92874373D01*
X177903527Y-92890000D01*
X177976473Y-92890000D01*
X178085161Y-92874373D01*
X178194000Y-92824668D01*
X178194000Y-93714390D01*
X178274507Y-93700957D01*
X178274516Y-93700955D01*
X178487369Y-93627883D01*
X178487371Y-93627882D01*
X178685300Y-93520768D01*
X178685301Y-93520767D01*
X178862902Y-93382534D01*
X179015325Y-93216958D01*
X179138419Y-93028548D01*
X179228820Y-92822456D01*
X179228823Y-92822449D01*
X179284067Y-92604292D01*
X179289445Y-92539398D01*
X179315004Y-92473162D01*
X179372316Y-92431258D01*
X179443184Y-92426992D01*
X179505109Y-92461718D01*
X179538430Y-92524409D01*
X179540408Y-92537453D01*
X179543251Y-92566322D01*
X179543253Y-92566334D01*
X179597601Y-92745496D01*
X179597603Y-92745500D01*
X179597604Y-92745501D01*
X179685864Y-92910625D01*
X179804643Y-93055357D01*
X179949375Y-93174136D01*
X180064711Y-93235784D01*
X180114499Y-93262396D01*
X180114503Y-93262398D01*
X180293665Y-93316746D01*
X180293666Y-93316746D01*
X180293669Y-93316747D01*
X180293672Y-93316747D01*
X180293676Y-93316748D01*
X180479997Y-93335099D01*
X180480000Y-93335099D01*
X180480003Y-93335099D01*
X180666323Y-93316748D01*
X180666325Y-93316747D01*
X180666331Y-93316747D01*
X180706575Y-93304539D01*
X180845496Y-93262398D01*
X180845498Y-93262396D01*
X180845501Y-93262396D01*
X181010625Y-93174136D01*
X181155357Y-93055357D01*
X181274136Y-92910625D01*
X181362396Y-92745501D01*
X181370917Y-92717413D01*
X181416746Y-92566334D01*
X181416748Y-92566323D01*
X181435099Y-92380003D01*
X181435099Y-92379996D01*
X181416748Y-92193676D01*
X181416746Y-92193665D01*
X181362398Y-92014503D01*
X181362396Y-92014499D01*
X181274135Y-91849374D01*
X181155357Y-91704643D01*
X181010625Y-91585864D01*
X180845500Y-91497603D01*
X180845496Y-91497601D01*
X180666334Y-91443253D01*
X180666323Y-91443251D01*
X180480003Y-91424901D01*
X180479997Y-91424901D01*
X180293676Y-91443251D01*
X180293665Y-91443253D01*
X180114503Y-91497601D01*
X180114499Y-91497603D01*
X179949374Y-91585864D01*
X179804643Y-91704643D01*
X179685864Y-91849374D01*
X179597603Y-92014499D01*
X179597601Y-92014503D01*
X179543253Y-92193665D01*
X179543251Y-92193676D01*
X179540408Y-92222547D01*
X179513825Y-92288379D01*
X179455871Y-92329388D01*
X179384945Y-92332555D01*
X179323566Y-92296874D01*
X179291221Y-92233673D01*
X179289445Y-92220601D01*
X179284067Y-92155707D01*
X179228823Y-91937550D01*
X179228820Y-91937543D01*
X179138419Y-91731451D01*
X179015325Y-91543041D01*
X178862902Y-91377465D01*
X178685301Y-91239232D01*
X178685300Y-91239231D01*
X178487371Y-91132117D01*
X178487369Y-91132116D01*
X178274512Y-91059043D01*
X178274501Y-91059040D01*
X178194000Y-91045606D01*
X178194000Y-91935331D01*
X178085161Y-91885627D01*
X177976473Y-91870000D01*
X177903527Y-91870000D01*
X177794839Y-91885627D01*
X177686000Y-91935331D01*
X177686000Y-91045607D01*
X177685999Y-91045606D01*
X177605498Y-91059040D01*
X177605487Y-91059043D01*
X177392630Y-91132116D01*
X177392628Y-91132117D01*
X177194699Y-91239231D01*
X177194698Y-91239232D01*
X177017097Y-91377465D01*
X176864674Y-91543041D01*
X176741580Y-91731451D01*
X176651179Y-91937543D01*
X176651176Y-91937550D01*
X176603455Y-92125999D01*
X176603456Y-92126000D01*
X177496999Y-92126000D01*
X177471318Y-92165960D01*
X177430000Y-92306673D01*
X177430000Y-92453327D01*
X177471318Y-92594040D01*
X177496999Y-92634000D01*
X176603455Y-92634000D01*
X175150500Y-92634000D01*
X175150500Y-89106610D01*
X175849500Y-89106610D01*
X175888679Y-89316198D01*
X175965702Y-89515019D01*
X175965703Y-89515020D01*
X175965705Y-89515025D01*
X176077945Y-89696298D01*
X176077946Y-89696300D01*
X176077948Y-89696302D01*
X176221593Y-89853872D01*
X176391745Y-89982366D01*
X176582611Y-90077405D01*
X176787690Y-90135756D01*
X176946806Y-90150500D01*
X176946813Y-90150500D01*
X177053187Y-90150500D01*
X177053194Y-90150500D01*
X177212310Y-90135756D01*
X177417389Y-90077405D01*
X177608255Y-89982366D01*
X177778407Y-89853872D01*
X177922052Y-89696302D01*
X178034298Y-89515019D01*
X178111321Y-89316198D01*
X178150500Y-89106610D01*
X233849500Y-89106610D01*
X233888679Y-89316198D01*
X233965702Y-89515019D01*
X233965703Y-89515020D01*
X233965705Y-89515025D01*
X234077945Y-89696298D01*
X234077946Y-89696300D01*
X234077948Y-89696302D01*
X234221593Y-89853872D01*
X234391745Y-89982366D01*
X234582611Y-90077405D01*
X234787690Y-90135756D01*
X234946806Y-90150500D01*
X234946813Y-90150500D01*
X235053187Y-90150500D01*
X235053194Y-90150500D01*
X235212310Y-90135756D01*
X235417389Y-90077405D01*
X235608255Y-89982366D01*
X235778407Y-89853872D01*
X235922052Y-89696302D01*
X236034298Y-89515019D01*
X236111321Y-89316198D01*
X236150500Y-89106610D01*
X236150500Y-88893390D01*
X236111321Y-88683802D01*
X236034298Y-88484981D01*
X235922052Y-88303698D01*
X235778407Y-88146128D01*
X235608255Y-88017634D01*
X235417389Y-87922595D01*
X235417386Y-87922594D01*
X235417384Y-87922593D01*
X235212311Y-87864244D01*
X235192420Y-87862401D01*
X235053194Y-87849500D01*
X234946806Y-87849500D01*
X234823049Y-87860967D01*
X234787688Y-87864244D01*
X234582615Y-87922593D01*
X234582611Y-87922595D01*
X234391745Y-88017634D01*
X234391744Y-88017635D01*
X234221591Y-88146129D01*
X234077946Y-88303699D01*
X234077945Y-88303701D01*
X233965705Y-88484974D01*
X233965703Y-88484979D01*
X233888679Y-88683800D01*
X233888679Y-88683802D01*
X233849500Y-88893390D01*
X233849500Y-89106610D01*
X178150500Y-89106610D01*
X178150500Y-88893390D01*
X178111321Y-88683802D01*
X178034298Y-88484981D01*
X177922052Y-88303698D01*
X177778407Y-88146128D01*
X177608255Y-88017634D01*
X177417389Y-87922595D01*
X177417386Y-87922594D01*
X177417384Y-87922593D01*
X177212311Y-87864244D01*
X177192420Y-87862401D01*
X177053194Y-87849500D01*
X176946806Y-87849500D01*
X176823049Y-87860967D01*
X176787688Y-87864244D01*
X176582615Y-87922593D01*
X176582611Y-87922595D01*
X176391745Y-88017634D01*
X176391744Y-88017635D01*
X176221591Y-88146129D01*
X176077946Y-88303699D01*
X176077945Y-88303701D01*
X175965705Y-88484974D01*
X175965703Y-88484979D01*
X175888679Y-88683800D01*
X175888679Y-88683802D01*
X175849500Y-88893390D01*
X175849500Y-89106610D01*
X175150500Y-89106610D01*
X175150500Y-87276500D01*
X175170502Y-87208379D01*
X175224158Y-87161886D01*
X175276500Y-87150500D01*
X236723500Y-87150500D01*
X236791621Y-87170502D01*
G37*
%TD.AperFunction*%
%TA.AperFunction,Conductor*%
G36*
X201166352Y-98186502D02*
G01*
X201187326Y-98203404D01*
X201514419Y-98530498D01*
X201787265Y-98803344D01*
X201787275Y-98803353D01*
X203670657Y-100686736D01*
X204279326Y-101295405D01*
X204313352Y-101357717D01*
X204308287Y-101428533D01*
X204265740Y-101485368D01*
X204199220Y-101510179D01*
X204190231Y-101510500D01*
X196474904Y-101510500D01*
X196406783Y-101490498D01*
X196385809Y-101473595D01*
X194105324Y-99193111D01*
X194071299Y-99130799D01*
X194069701Y-99121947D01*
X194068271Y-99112000D01*
X194058106Y-99041296D01*
X194033238Y-98986843D01*
X194023133Y-98916569D01*
X194052626Y-98851988D01*
X194112352Y-98813604D01*
X194147851Y-98808500D01*
X197166500Y-98808500D01*
X197234621Y-98828502D01*
X197281114Y-98882158D01*
X197292500Y-98934500D01*
X197292500Y-99112006D01*
X197296311Y-99147447D01*
X197297196Y-99155681D01*
X197308582Y-99208023D01*
X197311070Y-99218203D01*
X197354079Y-99298916D01*
X197354082Y-99298919D01*
X197400568Y-99352568D01*
X197418166Y-99370528D01*
X197497986Y-99415176D01*
X197556524Y-99432363D01*
X197566104Y-99435176D01*
X197624000Y-99443500D01*
X197624003Y-99443500D01*
X198768994Y-99443500D01*
X198769000Y-99443500D01*
X198812681Y-99438804D01*
X198865023Y-99427418D01*
X198875203Y-99424930D01*
X198955916Y-99381921D01*
X198997638Y-99345768D01*
X199009569Y-99335431D01*
X199009568Y-99335432D01*
X199010883Y-99334142D01*
X199027527Y-99317835D01*
X199072174Y-99238017D01*
X199072174Y-99238016D01*
X199072176Y-99238013D01*
X199085123Y-99193917D01*
X199092176Y-99169896D01*
X199100500Y-99112000D01*
X199100500Y-98476472D01*
X199100627Y-98448842D01*
X199101348Y-98291921D01*
X199121663Y-98223893D01*
X199175532Y-98177647D01*
X199227347Y-98166500D01*
X201098231Y-98166500D01*
X201166352Y-98186502D01*
G37*
%TD.AperFunction*%
M02*
