G04 #@! TF.GenerationSoftware,KiCad,Pcbnew,7.0.8-7.0.8~ubuntu22.04.1*
G04 #@! TF.CreationDate,2023-10-11T18:06:27+02:00*
G04 #@! TF.ProjectId,PD_Micro,50445f4d-6963-4726-9f2e-6b696361645f,rev?*
G04 #@! TF.SameCoordinates,PX7ce2370PY67d8790*
G04 #@! TF.FileFunction,AssemblyDrawing,Bot*
%FSLAX46Y46*%
G04 Gerber Fmt 4.6, Leading zero omitted, Abs format (unit mm)*
G04 Created by KiCad (PCBNEW 7.0.8-7.0.8~ubuntu22.04.1) date 2023-10-11 18:06:27*
%MOMM*%
%LPD*%
G01*
G04 APERTURE LIST*
%ADD10C,0.080000*%
G04 APERTURE END LIST*
D10*
X43785887Y11277142D02*
X43385887Y11277142D01*
X43576363Y11277142D02*
X43576363Y11048571D01*
X43785887Y11048571D02*
X43385887Y11048571D01*
X43785887Y10629523D02*
X43595411Y10762856D01*
X43785887Y10858094D02*
X43385887Y10858094D01*
X43385887Y10858094D02*
X43385887Y10705713D01*
X43385887Y10705713D02*
X43404935Y10667618D01*
X43404935Y10667618D02*
X43423982Y10648571D01*
X43423982Y10648571D02*
X43462078Y10629523D01*
X43462078Y10629523D02*
X43519220Y10629523D01*
X43519220Y10629523D02*
X43557316Y10648571D01*
X43557316Y10648571D02*
X43576363Y10667618D01*
X43576363Y10667618D02*
X43595411Y10705713D01*
X43595411Y10705713D02*
X43595411Y10858094D01*
X43385887Y10381904D02*
X43385887Y10305713D01*
X43385887Y10305713D02*
X43404935Y10267618D01*
X43404935Y10267618D02*
X43443030Y10229523D01*
X43443030Y10229523D02*
X43519220Y10210475D01*
X43519220Y10210475D02*
X43652554Y10210475D01*
X43652554Y10210475D02*
X43728744Y10229523D01*
X43728744Y10229523D02*
X43766840Y10267618D01*
X43766840Y10267618D02*
X43785887Y10305713D01*
X43785887Y10305713D02*
X43785887Y10381904D01*
X43785887Y10381904D02*
X43766840Y10419999D01*
X43766840Y10419999D02*
X43728744Y10458094D01*
X43728744Y10458094D02*
X43652554Y10477142D01*
X43652554Y10477142D02*
X43519220Y10477142D01*
X43519220Y10477142D02*
X43443030Y10458094D01*
X43443030Y10458094D02*
X43404935Y10419999D01*
X43404935Y10419999D02*
X43385887Y10381904D01*
X43633506Y10039046D02*
X43633506Y9734284D01*
X43385887Y9600951D02*
X43385887Y9372380D01*
X43785887Y9486666D02*
X43385887Y9486666D01*
X43595411Y9162856D02*
X43785887Y9162856D01*
X43385887Y9296189D02*
X43595411Y9162856D01*
X43595411Y9162856D02*
X43385887Y9029523D01*
X43785887Y8896189D02*
X43385887Y8896189D01*
X43385887Y8896189D02*
X43385887Y8743808D01*
X43385887Y8743808D02*
X43404935Y8705713D01*
X43404935Y8705713D02*
X43423982Y8686666D01*
X43423982Y8686666D02*
X43462078Y8667618D01*
X43462078Y8667618D02*
X43519220Y8667618D01*
X43519220Y8667618D02*
X43557316Y8686666D01*
X43557316Y8686666D02*
X43576363Y8705713D01*
X43576363Y8705713D02*
X43595411Y8743808D01*
X43595411Y8743808D02*
X43595411Y8896189D01*
X43576363Y8496189D02*
X43576363Y8362856D01*
X43785887Y8305713D02*
X43785887Y8496189D01*
X43785887Y8496189D02*
X43385887Y8496189D01*
X43385887Y8496189D02*
X43385887Y8305713D01*
X43633506Y8134284D02*
X43633506Y7829522D01*
X43747792Y7410475D02*
X43766840Y7429523D01*
X43766840Y7429523D02*
X43785887Y7486665D01*
X43785887Y7486665D02*
X43785887Y7524761D01*
X43785887Y7524761D02*
X43766840Y7581904D01*
X43766840Y7581904D02*
X43728744Y7619999D01*
X43728744Y7619999D02*
X43690649Y7639046D01*
X43690649Y7639046D02*
X43614459Y7658094D01*
X43614459Y7658094D02*
X43557316Y7658094D01*
X43557316Y7658094D02*
X43481125Y7639046D01*
X43481125Y7639046D02*
X43443030Y7619999D01*
X43443030Y7619999D02*
X43404935Y7581904D01*
X43404935Y7581904D02*
X43385887Y7524761D01*
X43385887Y7524761D02*
X43385887Y7486665D01*
X43385887Y7486665D02*
X43404935Y7429523D01*
X43404935Y7429523D02*
X43423982Y7410475D01*
X43633506Y7239046D02*
X43633506Y6934284D01*
X43385887Y6781904D02*
X43385887Y6534285D01*
X43385887Y6534285D02*
X43538268Y6667618D01*
X43538268Y6667618D02*
X43538268Y6610475D01*
X43538268Y6610475D02*
X43557316Y6572380D01*
X43557316Y6572380D02*
X43576363Y6553332D01*
X43576363Y6553332D02*
X43614459Y6534285D01*
X43614459Y6534285D02*
X43709697Y6534285D01*
X43709697Y6534285D02*
X43747792Y6553332D01*
X43747792Y6553332D02*
X43766840Y6572380D01*
X43766840Y6572380D02*
X43785887Y6610475D01*
X43785887Y6610475D02*
X43785887Y6724761D01*
X43785887Y6724761D02*
X43766840Y6762856D01*
X43766840Y6762856D02*
X43747792Y6781904D01*
X43785887Y6153333D02*
X43785887Y6381904D01*
X43785887Y6267618D02*
X43385887Y6267618D01*
X43385887Y6267618D02*
X43443030Y6305714D01*
X43443030Y6305714D02*
X43481125Y6343809D01*
X43481125Y6343809D02*
X43500173Y6381904D01*
X43633506Y5981904D02*
X43633506Y5677142D01*
X43785887Y5486666D02*
X43385887Y5486666D01*
X43385887Y5486666D02*
X43671601Y5353333D01*
X43671601Y5353333D02*
X43385887Y5220000D01*
X43385887Y5220000D02*
X43785887Y5220000D01*
X43633506Y5029523D02*
X43633506Y4724761D01*
X43785887Y4324762D02*
X43785887Y4553333D01*
X43785887Y4439047D02*
X43385887Y4439047D01*
X43385887Y4439047D02*
X43443030Y4477143D01*
X43443030Y4477143D02*
X43481125Y4515238D01*
X43481125Y4515238D02*
X43500173Y4553333D01*
X43423982Y4172381D02*
X43404935Y4153333D01*
X43404935Y4153333D02*
X43385887Y4115238D01*
X43385887Y4115238D02*
X43385887Y4020000D01*
X43385887Y4020000D02*
X43404935Y3981905D01*
X43404935Y3981905D02*
X43423982Y3962857D01*
X43423982Y3962857D02*
X43462078Y3943810D01*
X43462078Y3943810D02*
X43500173Y3943810D01*
X43500173Y3943810D02*
X43557316Y3962857D01*
X43557316Y3962857D02*
X43785887Y4191429D01*
X43785887Y4191429D02*
X43785887Y3943810D01*
M02*
