%TF.GenerationSoftware,KiCad,Pcbnew,7.0.8-7.0.8~ubuntu22.04.1*%
%TF.CreationDate,2023-10-13T08:32:03+02:00*%
%TF.ProjectId,PD_Micro,50445f4d-6963-4726-9f2e-6b696361645f,rev?*%
%TF.SameCoordinates,PX7ce2370PY67d8790*%
%TF.FileFunction,Legend,Bot*%
%TF.FilePolarity,Positive*%
%FSLAX46Y46*%
G04 Gerber Fmt 4.6, Leading zero omitted, Abs format (unit mm)*
G04 Created by KiCad (PCBNEW 7.0.8-7.0.8~ubuntu22.04.1) date 2023-10-13 08:32:03*
%MOMM*%
%LPD*%
G01*
G04 APERTURE LIST*
G04 Aperture macros list*
%AMRoundRect*
0 Rectangle with rounded corners*
0 $1 Rounding radius*
0 $2 $3 $4 $5 $6 $7 $8 $9 X,Y pos of 4 corners*
0 Add a 4 corners polygon primitive as box body*
4,1,4,$2,$3,$4,$5,$6,$7,$8,$9,$2,$3,0*
0 Add four circle primitives for the rounded corners*
1,1,$1+$1,$2,$3*
1,1,$1+$1,$4,$5*
1,1,$1+$1,$6,$7*
1,1,$1+$1,$8,$9*
0 Add four rect primitives between the rounded corners*
20,1,$1+$1,$2,$3,$4,$5,0*
20,1,$1+$1,$4,$5,$6,$7,0*
20,1,$1+$1,$6,$7,$8,$9,0*
20,1,$1+$1,$8,$9,$2,$3,0*%
G04 Aperture macros list end*
%ADD10C,0.100000*%
%ADD11C,0.150000*%
%ADD12RoundRect,0.070000X-0.425000X-0.425000X0.425000X-0.425000X0.425000X0.425000X-0.425000X0.425000X0*%
%ADD13O,0.990000X0.990000*%
%ADD14RoundRect,0.070000X0.800000X-0.800000X0.800000X0.800000X-0.800000X0.800000X-0.800000X-0.800000X0*%
%ADD15O,1.740000X1.740000*%
%ADD16C,1.940000*%
%ADD17C,1.040000*%
%ADD18O,1.840000X1.840000*%
%ADD19RoundRect,0.070000X0.850000X-0.850000X0.850000X0.850000X-0.850000X0.850000X-0.850000X-0.850000X0*%
%ADD20C,3.140000*%
%ADD21C,1.740000*%
%ADD22RoundRect,0.670000X-0.600000X0.600000X-0.600000X-0.600000X0.600000X-0.600000X0.600000X0.600000X0*%
%ADD23C,2.540000*%
%ADD24C,0.790000*%
%ADD25RoundRect,0.070000X0.725000X-0.287500X0.725000X0.287500X-0.725000X0.287500X-0.725000X-0.287500X0*%
%ADD26RoundRect,0.070000X0.725000X-0.150000X0.725000X0.150000X-0.725000X0.150000X-0.725000X-0.150000X0*%
%ADD27O,1.740000X1.140000*%
%ADD28O,2.240000X1.140000*%
G04 APERTURE END LIST*
D10*
X70863734Y-9984895D02*
X70863734Y-9184895D01*
X70863734Y-9565847D02*
X70406591Y-9565847D01*
X70406591Y-9984895D02*
X70406591Y-9184895D01*
X70139925Y-9184895D02*
X69682782Y-9184895D01*
X69911354Y-9984895D02*
X69911354Y-9184895D01*
X69035163Y-9984895D02*
X69416115Y-9984895D01*
X69416115Y-9984895D02*
X69416115Y-9184895D01*
X68768496Y-9680133D02*
X68158973Y-9680133D01*
X67320877Y-9984895D02*
X67587544Y-9603942D01*
X67778020Y-9984895D02*
X67778020Y-9184895D01*
X67778020Y-9184895D02*
X67473258Y-9184895D01*
X67473258Y-9184895D02*
X67397068Y-9222990D01*
X67397068Y-9222990D02*
X67358973Y-9261085D01*
X67358973Y-9261085D02*
X67320877Y-9337276D01*
X67320877Y-9337276D02*
X67320877Y-9451561D01*
X67320877Y-9451561D02*
X67358973Y-9527752D01*
X67358973Y-9527752D02*
X67397068Y-9565847D01*
X67397068Y-9565847D02*
X67473258Y-9603942D01*
X67473258Y-9603942D02*
X67778020Y-9603942D01*
X66635163Y-9984895D02*
X66635163Y-9565847D01*
X66635163Y-9565847D02*
X66673258Y-9489657D01*
X66673258Y-9489657D02*
X66749449Y-9451561D01*
X66749449Y-9451561D02*
X66901830Y-9451561D01*
X66901830Y-9451561D02*
X66978020Y-9489657D01*
X66635163Y-9946800D02*
X66711354Y-9984895D01*
X66711354Y-9984895D02*
X66901830Y-9984895D01*
X66901830Y-9984895D02*
X66978020Y-9946800D01*
X66978020Y-9946800D02*
X67016116Y-9870609D01*
X67016116Y-9870609D02*
X67016116Y-9794419D01*
X67016116Y-9794419D02*
X66978020Y-9718228D01*
X66978020Y-9718228D02*
X66901830Y-9680133D01*
X66901830Y-9680133D02*
X66711354Y-9680133D01*
X66711354Y-9680133D02*
X66635163Y-9642038D01*
X66254210Y-9451561D02*
X66254210Y-9984895D01*
X66254210Y-9527752D02*
X66216115Y-9489657D01*
X66216115Y-9489657D02*
X66139925Y-9451561D01*
X66139925Y-9451561D02*
X66025639Y-9451561D01*
X66025639Y-9451561D02*
X65949448Y-9489657D01*
X65949448Y-9489657D02*
X65911353Y-9565847D01*
X65911353Y-9565847D02*
X65911353Y-9984895D01*
X65530400Y-9984895D02*
X65530400Y-9184895D01*
X65454210Y-9680133D02*
X65225638Y-9984895D01*
X65225638Y-9451561D02*
X65530400Y-9756323D01*
X64958972Y-9451561D02*
X64806591Y-9984895D01*
X64806591Y-9984895D02*
X64654210Y-9603942D01*
X64654210Y-9603942D02*
X64501829Y-9984895D01*
X64501829Y-9984895D02*
X64349448Y-9451561D01*
X63739924Y-9946800D02*
X63816115Y-9984895D01*
X63816115Y-9984895D02*
X63968496Y-9984895D01*
X63968496Y-9984895D02*
X64044686Y-9946800D01*
X64044686Y-9946800D02*
X64082782Y-9870609D01*
X64082782Y-9870609D02*
X64082782Y-9565847D01*
X64082782Y-9565847D02*
X64044686Y-9489657D01*
X64044686Y-9489657D02*
X63968496Y-9451561D01*
X63968496Y-9451561D02*
X63816115Y-9451561D01*
X63816115Y-9451561D02*
X63739924Y-9489657D01*
X63739924Y-9489657D02*
X63701829Y-9565847D01*
X63701829Y-9565847D02*
X63701829Y-9642038D01*
X63701829Y-9642038D02*
X64082782Y-9718228D01*
X63358972Y-9984895D02*
X63358972Y-9451561D01*
X63358972Y-9184895D02*
X63397068Y-9222990D01*
X63397068Y-9222990D02*
X63358972Y-9261085D01*
X63358972Y-9261085D02*
X63320877Y-9222990D01*
X63320877Y-9222990D02*
X63358972Y-9184895D01*
X63358972Y-9184895D02*
X63358972Y-9261085D01*
X62863735Y-9984895D02*
X62939925Y-9946800D01*
X62939925Y-9946800D02*
X62978020Y-9870609D01*
X62978020Y-9870609D02*
X62978020Y-9184895D01*
X61606591Y-9451561D02*
X61606591Y-9984895D01*
X61797067Y-9146800D02*
X61987544Y-9718228D01*
X61987544Y-9718228D02*
X61492305Y-9718228D01*
X61225639Y-9756323D02*
X60844686Y-9756323D01*
X61301829Y-9984895D02*
X61035162Y-9184895D01*
X61035162Y-9184895D02*
X60768496Y-9984895D01*
X60501829Y-9984895D02*
X60501829Y-9184895D01*
X60501829Y-9565847D02*
X60044686Y-9565847D01*
X60044686Y-9984895D02*
X60044686Y-9184895D01*
X59663734Y-9565847D02*
X59397068Y-9565847D01*
X59282782Y-9984895D02*
X59663734Y-9984895D01*
X59663734Y-9984895D02*
X59663734Y-9184895D01*
X59663734Y-9184895D02*
X59282782Y-9184895D01*
X58558972Y-9984895D02*
X58939924Y-9984895D01*
X58939924Y-9984895D02*
X58939924Y-9184895D01*
X70863734Y-11272895D02*
X70863734Y-10472895D01*
X70863734Y-10472895D02*
X70597068Y-11044323D01*
X70597068Y-11044323D02*
X70330401Y-10472895D01*
X70330401Y-10472895D02*
X70330401Y-11272895D01*
X69606591Y-11272895D02*
X69606591Y-10853847D01*
X69606591Y-10853847D02*
X69644686Y-10777657D01*
X69644686Y-10777657D02*
X69720877Y-10739561D01*
X69720877Y-10739561D02*
X69873258Y-10739561D01*
X69873258Y-10739561D02*
X69949448Y-10777657D01*
X69606591Y-11234800D02*
X69682782Y-11272895D01*
X69682782Y-11272895D02*
X69873258Y-11272895D01*
X69873258Y-11272895D02*
X69949448Y-11234800D01*
X69949448Y-11234800D02*
X69987544Y-11158609D01*
X69987544Y-11158609D02*
X69987544Y-11082419D01*
X69987544Y-11082419D02*
X69949448Y-11006228D01*
X69949448Y-11006228D02*
X69873258Y-10968133D01*
X69873258Y-10968133D02*
X69682782Y-10968133D01*
X69682782Y-10968133D02*
X69606591Y-10930038D01*
X69225638Y-10739561D02*
X69225638Y-11272895D01*
X69225638Y-10815752D02*
X69187543Y-10777657D01*
X69187543Y-10777657D02*
X69111353Y-10739561D01*
X69111353Y-10739561D02*
X68997067Y-10739561D01*
X68997067Y-10739561D02*
X68920876Y-10777657D01*
X68920876Y-10777657D02*
X68882781Y-10853847D01*
X68882781Y-10853847D02*
X68882781Y-11272895D01*
X68158971Y-10739561D02*
X68158971Y-11272895D01*
X68501828Y-10739561D02*
X68501828Y-11158609D01*
X68501828Y-11158609D02*
X68463733Y-11234800D01*
X68463733Y-11234800D02*
X68387543Y-11272895D01*
X68387543Y-11272895D02*
X68273257Y-11272895D01*
X68273257Y-11272895D02*
X68197066Y-11234800D01*
X68197066Y-11234800D02*
X68158971Y-11196704D01*
X67473256Y-11234800D02*
X67549447Y-11272895D01*
X67549447Y-11272895D02*
X67701828Y-11272895D01*
X67701828Y-11272895D02*
X67778018Y-11234800D01*
X67778018Y-11234800D02*
X67816114Y-11158609D01*
X67816114Y-11158609D02*
X67816114Y-10853847D01*
X67816114Y-10853847D02*
X67778018Y-10777657D01*
X67778018Y-10777657D02*
X67701828Y-10739561D01*
X67701828Y-10739561D02*
X67549447Y-10739561D01*
X67549447Y-10739561D02*
X67473256Y-10777657D01*
X67473256Y-10777657D02*
X67435161Y-10853847D01*
X67435161Y-10853847D02*
X67435161Y-10930038D01*
X67435161Y-10930038D02*
X67816114Y-11006228D01*
X66978019Y-11272895D02*
X67054209Y-11234800D01*
X67054209Y-11234800D02*
X67092304Y-11158609D01*
X67092304Y-11158609D02*
X67092304Y-10472895D01*
X66063732Y-11272895D02*
X66063732Y-10472895D01*
X66063732Y-10472895D02*
X65797066Y-11044323D01*
X65797066Y-11044323D02*
X65530399Y-10472895D01*
X65530399Y-10472895D02*
X65530399Y-11272895D01*
X64806589Y-11272895D02*
X64806589Y-10853847D01*
X64806589Y-10853847D02*
X64844684Y-10777657D01*
X64844684Y-10777657D02*
X64920875Y-10739561D01*
X64920875Y-10739561D02*
X65073256Y-10739561D01*
X65073256Y-10739561D02*
X65149446Y-10777657D01*
X64806589Y-11234800D02*
X64882780Y-11272895D01*
X64882780Y-11272895D02*
X65073256Y-11272895D01*
X65073256Y-11272895D02*
X65149446Y-11234800D01*
X65149446Y-11234800D02*
X65187542Y-11158609D01*
X65187542Y-11158609D02*
X65187542Y-11082419D01*
X65187542Y-11082419D02*
X65149446Y-11006228D01*
X65149446Y-11006228D02*
X65073256Y-10968133D01*
X65073256Y-10968133D02*
X64882780Y-10968133D01*
X64882780Y-10968133D02*
X64806589Y-10930038D01*
X64501827Y-10739561D02*
X64311351Y-11272895D01*
X64120874Y-10739561D02*
X64311351Y-11272895D01*
X64311351Y-11272895D02*
X64387541Y-11463371D01*
X64387541Y-11463371D02*
X64425636Y-11501466D01*
X64425636Y-11501466D02*
X64501827Y-11539561D01*
X63816112Y-11272895D02*
X63816112Y-10739561D01*
X63816112Y-10891942D02*
X63778017Y-10815752D01*
X63778017Y-10815752D02*
X63739922Y-10777657D01*
X63739922Y-10777657D02*
X63663731Y-10739561D01*
X63663731Y-10739561D02*
X63587541Y-10739561D01*
X63320874Y-11272895D02*
X63320874Y-10472895D01*
X62978017Y-11272895D02*
X62978017Y-10853847D01*
X62978017Y-10853847D02*
X63016112Y-10777657D01*
X63016112Y-10777657D02*
X63092303Y-10739561D01*
X63092303Y-10739561D02*
X63206589Y-10739561D01*
X63206589Y-10739561D02*
X63282779Y-10777657D01*
X63282779Y-10777657D02*
X63320874Y-10815752D01*
X62482779Y-11272895D02*
X62558969Y-11234800D01*
X62558969Y-11234800D02*
X62597064Y-11196704D01*
X62597064Y-11196704D02*
X62635160Y-11120514D01*
X62635160Y-11120514D02*
X62635160Y-10891942D01*
X62635160Y-10891942D02*
X62597064Y-10815752D01*
X62597064Y-10815752D02*
X62558969Y-10777657D01*
X62558969Y-10777657D02*
X62482779Y-10739561D01*
X62482779Y-10739561D02*
X62368493Y-10739561D01*
X62368493Y-10739561D02*
X62292302Y-10777657D01*
X62292302Y-10777657D02*
X62254207Y-10815752D01*
X62254207Y-10815752D02*
X62216112Y-10891942D01*
X62216112Y-10891942D02*
X62216112Y-11120514D01*
X62216112Y-11120514D02*
X62254207Y-11196704D01*
X62254207Y-11196704D02*
X62292302Y-11234800D01*
X62292302Y-11234800D02*
X62368493Y-11272895D01*
X62368493Y-11272895D02*
X62482779Y-11272895D01*
X61987540Y-10739561D02*
X61682778Y-10739561D01*
X61873254Y-11272895D02*
X61873254Y-10587180D01*
X61873254Y-10587180D02*
X61835159Y-10510990D01*
X61835159Y-10510990D02*
X61758969Y-10472895D01*
X61758969Y-10472895D02*
X61682778Y-10472895D01*
X61111349Y-11234800D02*
X61187540Y-11272895D01*
X61187540Y-11272895D02*
X61339921Y-11272895D01*
X61339921Y-11272895D02*
X61416111Y-11234800D01*
X61416111Y-11234800D02*
X61454207Y-11158609D01*
X61454207Y-11158609D02*
X61454207Y-10853847D01*
X61454207Y-10853847D02*
X61416111Y-10777657D01*
X61416111Y-10777657D02*
X61339921Y-10739561D01*
X61339921Y-10739561D02*
X61187540Y-10739561D01*
X61187540Y-10739561D02*
X61111349Y-10777657D01*
X61111349Y-10777657D02*
X61073254Y-10853847D01*
X61073254Y-10853847D02*
X61073254Y-10930038D01*
X61073254Y-10930038D02*
X61454207Y-11006228D01*
X60730397Y-11272895D02*
X60730397Y-10739561D01*
X60730397Y-10891942D02*
X60692302Y-10815752D01*
X60692302Y-10815752D02*
X60654207Y-10777657D01*
X60654207Y-10777657D02*
X60578016Y-10739561D01*
X60578016Y-10739561D02*
X60501826Y-10739561D01*
X70635163Y-11760895D02*
X70635163Y-12332323D01*
X70635163Y-12332323D02*
X70673258Y-12446609D01*
X70673258Y-12446609D02*
X70749449Y-12522800D01*
X70749449Y-12522800D02*
X70863734Y-12560895D01*
X70863734Y-12560895D02*
X70939925Y-12560895D01*
X70139925Y-12560895D02*
X70216115Y-12522800D01*
X70216115Y-12522800D02*
X70254210Y-12484704D01*
X70254210Y-12484704D02*
X70292306Y-12408514D01*
X70292306Y-12408514D02*
X70292306Y-12179942D01*
X70292306Y-12179942D02*
X70254210Y-12103752D01*
X70254210Y-12103752D02*
X70216115Y-12065657D01*
X70216115Y-12065657D02*
X70139925Y-12027561D01*
X70139925Y-12027561D02*
X70025639Y-12027561D01*
X70025639Y-12027561D02*
X69949448Y-12065657D01*
X69949448Y-12065657D02*
X69911353Y-12103752D01*
X69911353Y-12103752D02*
X69873258Y-12179942D01*
X69873258Y-12179942D02*
X69873258Y-12408514D01*
X69873258Y-12408514D02*
X69911353Y-12484704D01*
X69911353Y-12484704D02*
X69949448Y-12522800D01*
X69949448Y-12522800D02*
X70025639Y-12560895D01*
X70025639Y-12560895D02*
X70139925Y-12560895D01*
X69530400Y-12560895D02*
X69530400Y-11760895D01*
X69187543Y-12560895D02*
X69187543Y-12141847D01*
X69187543Y-12141847D02*
X69225638Y-12065657D01*
X69225638Y-12065657D02*
X69301829Y-12027561D01*
X69301829Y-12027561D02*
X69416115Y-12027561D01*
X69416115Y-12027561D02*
X69492305Y-12065657D01*
X69492305Y-12065657D02*
X69530400Y-12103752D01*
X68463733Y-12560895D02*
X68463733Y-12141847D01*
X68463733Y-12141847D02*
X68501828Y-12065657D01*
X68501828Y-12065657D02*
X68578019Y-12027561D01*
X68578019Y-12027561D02*
X68730400Y-12027561D01*
X68730400Y-12027561D02*
X68806590Y-12065657D01*
X68463733Y-12522800D02*
X68539924Y-12560895D01*
X68539924Y-12560895D02*
X68730400Y-12560895D01*
X68730400Y-12560895D02*
X68806590Y-12522800D01*
X68806590Y-12522800D02*
X68844686Y-12446609D01*
X68844686Y-12446609D02*
X68844686Y-12370419D01*
X68844686Y-12370419D02*
X68806590Y-12294228D01*
X68806590Y-12294228D02*
X68730400Y-12256133D01*
X68730400Y-12256133D02*
X68539924Y-12256133D01*
X68539924Y-12256133D02*
X68463733Y-12218038D01*
X68082780Y-12027561D02*
X68082780Y-12560895D01*
X68082780Y-12103752D02*
X68044685Y-12065657D01*
X68044685Y-12065657D02*
X67968495Y-12027561D01*
X67968495Y-12027561D02*
X67854209Y-12027561D01*
X67854209Y-12027561D02*
X67778018Y-12065657D01*
X67778018Y-12065657D02*
X67739923Y-12141847D01*
X67739923Y-12141847D02*
X67739923Y-12560895D01*
X67358970Y-12027561D02*
X67358970Y-12560895D01*
X67358970Y-12103752D02*
X67320875Y-12065657D01*
X67320875Y-12065657D02*
X67244685Y-12027561D01*
X67244685Y-12027561D02*
X67130399Y-12027561D01*
X67130399Y-12027561D02*
X67054208Y-12065657D01*
X67054208Y-12065657D02*
X67016113Y-12141847D01*
X67016113Y-12141847D02*
X67016113Y-12560895D01*
X66330398Y-12522800D02*
X66406589Y-12560895D01*
X66406589Y-12560895D02*
X66558970Y-12560895D01*
X66558970Y-12560895D02*
X66635160Y-12522800D01*
X66635160Y-12522800D02*
X66673256Y-12446609D01*
X66673256Y-12446609D02*
X66673256Y-12141847D01*
X66673256Y-12141847D02*
X66635160Y-12065657D01*
X66635160Y-12065657D02*
X66558970Y-12027561D01*
X66558970Y-12027561D02*
X66406589Y-12027561D01*
X66406589Y-12027561D02*
X66330398Y-12065657D01*
X66330398Y-12065657D02*
X66292303Y-12141847D01*
X66292303Y-12141847D02*
X66292303Y-12218038D01*
X66292303Y-12218038D02*
X66673256Y-12294228D01*
X65987542Y-12522800D02*
X65911351Y-12560895D01*
X65911351Y-12560895D02*
X65758970Y-12560895D01*
X65758970Y-12560895D02*
X65682780Y-12522800D01*
X65682780Y-12522800D02*
X65644684Y-12446609D01*
X65644684Y-12446609D02*
X65644684Y-12408514D01*
X65644684Y-12408514D02*
X65682780Y-12332323D01*
X65682780Y-12332323D02*
X65758970Y-12294228D01*
X65758970Y-12294228D02*
X65873256Y-12294228D01*
X65873256Y-12294228D02*
X65949446Y-12256133D01*
X65949446Y-12256133D02*
X65987542Y-12179942D01*
X65987542Y-12179942D02*
X65987542Y-12141847D01*
X65987542Y-12141847D02*
X65949446Y-12065657D01*
X65949446Y-12065657D02*
X65873256Y-12027561D01*
X65873256Y-12027561D02*
X65758970Y-12027561D01*
X65758970Y-12027561D02*
X65682780Y-12065657D01*
X64692303Y-12560895D02*
X64692303Y-11760895D01*
X64692303Y-11760895D02*
X64425637Y-12332323D01*
X64425637Y-12332323D02*
X64158970Y-11760895D01*
X64158970Y-11760895D02*
X64158970Y-12560895D01*
X63473255Y-12522800D02*
X63549446Y-12560895D01*
X63549446Y-12560895D02*
X63701827Y-12560895D01*
X63701827Y-12560895D02*
X63778017Y-12522800D01*
X63778017Y-12522800D02*
X63816113Y-12446609D01*
X63816113Y-12446609D02*
X63816113Y-12141847D01*
X63816113Y-12141847D02*
X63778017Y-12065657D01*
X63778017Y-12065657D02*
X63701827Y-12027561D01*
X63701827Y-12027561D02*
X63549446Y-12027561D01*
X63549446Y-12027561D02*
X63473255Y-12065657D01*
X63473255Y-12065657D02*
X63435160Y-12141847D01*
X63435160Y-12141847D02*
X63435160Y-12218038D01*
X63435160Y-12218038D02*
X63816113Y-12294228D01*
X62978018Y-12560895D02*
X63054208Y-12522800D01*
X63054208Y-12522800D02*
X63092303Y-12446609D01*
X63092303Y-12446609D02*
X63092303Y-11760895D01*
X62330398Y-12522800D02*
X62406589Y-12560895D01*
X62406589Y-12560895D02*
X62558970Y-12560895D01*
X62558970Y-12560895D02*
X62635160Y-12522800D01*
X62635160Y-12522800D02*
X62673255Y-12484704D01*
X62673255Y-12484704D02*
X62711351Y-12408514D01*
X62711351Y-12408514D02*
X62711351Y-12179942D01*
X62711351Y-12179942D02*
X62673255Y-12103752D01*
X62673255Y-12103752D02*
X62635160Y-12065657D01*
X62635160Y-12065657D02*
X62558970Y-12027561D01*
X62558970Y-12027561D02*
X62406589Y-12027561D01*
X62406589Y-12027561D02*
X62330398Y-12065657D01*
X61987541Y-12560895D02*
X61987541Y-11760895D01*
X61644684Y-12560895D02*
X61644684Y-12141847D01*
X61644684Y-12141847D02*
X61682779Y-12065657D01*
X61682779Y-12065657D02*
X61758970Y-12027561D01*
X61758970Y-12027561D02*
X61873256Y-12027561D01*
X61873256Y-12027561D02*
X61949446Y-12065657D01*
X61949446Y-12065657D02*
X61987541Y-12103752D01*
X60958969Y-12522800D02*
X61035160Y-12560895D01*
X61035160Y-12560895D02*
X61187541Y-12560895D01*
X61187541Y-12560895D02*
X61263731Y-12522800D01*
X61263731Y-12522800D02*
X61301827Y-12446609D01*
X61301827Y-12446609D02*
X61301827Y-12141847D01*
X61301827Y-12141847D02*
X61263731Y-12065657D01*
X61263731Y-12065657D02*
X61187541Y-12027561D01*
X61187541Y-12027561D02*
X61035160Y-12027561D01*
X61035160Y-12027561D02*
X60958969Y-12065657D01*
X60958969Y-12065657D02*
X60920874Y-12141847D01*
X60920874Y-12141847D02*
X60920874Y-12218038D01*
X60920874Y-12218038D02*
X61301827Y-12294228D01*
X60578017Y-12560895D02*
X60578017Y-12027561D01*
X60578017Y-12179942D02*
X60539922Y-12103752D01*
X60539922Y-12103752D02*
X60501827Y-12065657D01*
X60501827Y-12065657D02*
X60425636Y-12027561D01*
X60425636Y-12027561D02*
X60349446Y-12027561D01*
X60082779Y-12256133D02*
X59473256Y-12256133D01*
X59092303Y-12560895D02*
X59092303Y-11760895D01*
X59092303Y-11760895D02*
X58825637Y-12332323D01*
X58825637Y-12332323D02*
X58558970Y-11760895D01*
X58558970Y-11760895D02*
X58558970Y-12560895D01*
X58178017Y-12560895D02*
X58178017Y-12027561D01*
X58178017Y-11760895D02*
X58216113Y-11798990D01*
X58216113Y-11798990D02*
X58178017Y-11837085D01*
X58178017Y-11837085D02*
X58139922Y-11798990D01*
X58139922Y-11798990D02*
X58178017Y-11760895D01*
X58178017Y-11760895D02*
X58178017Y-11837085D01*
X57682780Y-12560895D02*
X57758970Y-12522800D01*
X57758970Y-12522800D02*
X57797065Y-12446609D01*
X57797065Y-12446609D02*
X57797065Y-11760895D01*
X57263732Y-12560895D02*
X57339922Y-12522800D01*
X57339922Y-12522800D02*
X57378017Y-12446609D01*
X57378017Y-12446609D02*
X57378017Y-11760895D01*
X56958969Y-12027561D02*
X56958969Y-12560895D01*
X56958969Y-12103752D02*
X56920874Y-12065657D01*
X56920874Y-12065657D02*
X56844684Y-12027561D01*
X56844684Y-12027561D02*
X56730398Y-12027561D01*
X56730398Y-12027561D02*
X56654207Y-12065657D01*
X56654207Y-12065657D02*
X56616112Y-12141847D01*
X56616112Y-12141847D02*
X56616112Y-12560895D01*
X55930397Y-12522800D02*
X56006588Y-12560895D01*
X56006588Y-12560895D02*
X56158969Y-12560895D01*
X56158969Y-12560895D02*
X56235159Y-12522800D01*
X56235159Y-12522800D02*
X56273255Y-12446609D01*
X56273255Y-12446609D02*
X56273255Y-12141847D01*
X56273255Y-12141847D02*
X56235159Y-12065657D01*
X56235159Y-12065657D02*
X56158969Y-12027561D01*
X56158969Y-12027561D02*
X56006588Y-12027561D01*
X56006588Y-12027561D02*
X55930397Y-12065657D01*
X55930397Y-12065657D02*
X55892302Y-12141847D01*
X55892302Y-12141847D02*
X55892302Y-12218038D01*
X55892302Y-12218038D02*
X56273255Y-12294228D01*
X55549445Y-12560895D02*
X55549445Y-12027561D01*
X55549445Y-12179942D02*
X55511350Y-12103752D01*
X55511350Y-12103752D02*
X55473255Y-12065657D01*
X55473255Y-12065657D02*
X55397064Y-12027561D01*
X55397064Y-12027561D02*
X55320874Y-12027561D01*
X70863734Y-13048895D02*
X70863734Y-13696514D01*
X70863734Y-13696514D02*
X70825639Y-13772704D01*
X70825639Y-13772704D02*
X70787544Y-13810800D01*
X70787544Y-13810800D02*
X70711353Y-13848895D01*
X70711353Y-13848895D02*
X70558972Y-13848895D01*
X70558972Y-13848895D02*
X70482782Y-13810800D01*
X70482782Y-13810800D02*
X70444687Y-13772704D01*
X70444687Y-13772704D02*
X70406591Y-13696514D01*
X70406591Y-13696514D02*
X70406591Y-13048895D01*
X70063735Y-13810800D02*
X69949449Y-13848895D01*
X69949449Y-13848895D02*
X69758973Y-13848895D01*
X69758973Y-13848895D02*
X69682782Y-13810800D01*
X69682782Y-13810800D02*
X69644687Y-13772704D01*
X69644687Y-13772704D02*
X69606592Y-13696514D01*
X69606592Y-13696514D02*
X69606592Y-13620323D01*
X69606592Y-13620323D02*
X69644687Y-13544133D01*
X69644687Y-13544133D02*
X69682782Y-13506038D01*
X69682782Y-13506038D02*
X69758973Y-13467942D01*
X69758973Y-13467942D02*
X69911354Y-13429847D01*
X69911354Y-13429847D02*
X69987544Y-13391752D01*
X69987544Y-13391752D02*
X70025639Y-13353657D01*
X70025639Y-13353657D02*
X70063735Y-13277466D01*
X70063735Y-13277466D02*
X70063735Y-13201276D01*
X70063735Y-13201276D02*
X70025639Y-13125085D01*
X70025639Y-13125085D02*
X69987544Y-13086990D01*
X69987544Y-13086990D02*
X69911354Y-13048895D01*
X69911354Y-13048895D02*
X69720877Y-13048895D01*
X69720877Y-13048895D02*
X69606592Y-13086990D01*
X68997068Y-13429847D02*
X68882782Y-13467942D01*
X68882782Y-13467942D02*
X68844687Y-13506038D01*
X68844687Y-13506038D02*
X68806591Y-13582228D01*
X68806591Y-13582228D02*
X68806591Y-13696514D01*
X68806591Y-13696514D02*
X68844687Y-13772704D01*
X68844687Y-13772704D02*
X68882782Y-13810800D01*
X68882782Y-13810800D02*
X68958972Y-13848895D01*
X68958972Y-13848895D02*
X69263734Y-13848895D01*
X69263734Y-13848895D02*
X69263734Y-13048895D01*
X69263734Y-13048895D02*
X68997068Y-13048895D01*
X68997068Y-13048895D02*
X68920877Y-13086990D01*
X68920877Y-13086990D02*
X68882782Y-13125085D01*
X68882782Y-13125085D02*
X68844687Y-13201276D01*
X68844687Y-13201276D02*
X68844687Y-13277466D01*
X68844687Y-13277466D02*
X68882782Y-13353657D01*
X68882782Y-13353657D02*
X68920877Y-13391752D01*
X68920877Y-13391752D02*
X68997068Y-13429847D01*
X68997068Y-13429847D02*
X69263734Y-13429847D01*
X68006591Y-13772704D02*
X68044687Y-13810800D01*
X68044687Y-13810800D02*
X68158972Y-13848895D01*
X68158972Y-13848895D02*
X68235163Y-13848895D01*
X68235163Y-13848895D02*
X68349449Y-13810800D01*
X68349449Y-13810800D02*
X68425639Y-13734609D01*
X68425639Y-13734609D02*
X68463734Y-13658419D01*
X68463734Y-13658419D02*
X68501830Y-13506038D01*
X68501830Y-13506038D02*
X68501830Y-13391752D01*
X68501830Y-13391752D02*
X68463734Y-13239371D01*
X68463734Y-13239371D02*
X68425639Y-13163180D01*
X68425639Y-13163180D02*
X68349449Y-13086990D01*
X68349449Y-13086990D02*
X68235163Y-13048895D01*
X68235163Y-13048895D02*
X68158972Y-13048895D01*
X68158972Y-13048895D02*
X68044687Y-13086990D01*
X68044687Y-13086990D02*
X68006591Y-13125085D01*
X67854211Y-13925085D02*
X67244687Y-13925085D01*
X67054210Y-13848895D02*
X67054210Y-13048895D01*
X67054210Y-13048895D02*
X66749448Y-13048895D01*
X66749448Y-13048895D02*
X66673258Y-13086990D01*
X66673258Y-13086990D02*
X66635163Y-13125085D01*
X66635163Y-13125085D02*
X66597067Y-13201276D01*
X66597067Y-13201276D02*
X66597067Y-13315561D01*
X66597067Y-13315561D02*
X66635163Y-13391752D01*
X66635163Y-13391752D02*
X66673258Y-13429847D01*
X66673258Y-13429847D02*
X66749448Y-13467942D01*
X66749448Y-13467942D02*
X67054210Y-13467942D01*
X66254210Y-13848895D02*
X66254210Y-13048895D01*
X66254210Y-13048895D02*
X66063734Y-13048895D01*
X66063734Y-13048895D02*
X65949448Y-13086990D01*
X65949448Y-13086990D02*
X65873258Y-13163180D01*
X65873258Y-13163180D02*
X65835163Y-13239371D01*
X65835163Y-13239371D02*
X65797067Y-13391752D01*
X65797067Y-13391752D02*
X65797067Y-13506038D01*
X65797067Y-13506038D02*
X65835163Y-13658419D01*
X65835163Y-13658419D02*
X65873258Y-13734609D01*
X65873258Y-13734609D02*
X65949448Y-13810800D01*
X65949448Y-13810800D02*
X66063734Y-13848895D01*
X66063734Y-13848895D02*
X66254210Y-13848895D01*
X65454210Y-13544133D02*
X64844687Y-13544133D01*
X64578020Y-13048895D02*
X64120877Y-13048895D01*
X64349449Y-13848895D02*
X64349449Y-13048895D01*
X63854210Y-13848895D02*
X63854210Y-13315561D01*
X63854210Y-13467942D02*
X63816115Y-13391752D01*
X63816115Y-13391752D02*
X63778020Y-13353657D01*
X63778020Y-13353657D02*
X63701829Y-13315561D01*
X63701829Y-13315561D02*
X63625639Y-13315561D01*
X63358972Y-13848895D02*
X63358972Y-13315561D01*
X63358972Y-13048895D02*
X63397068Y-13086990D01*
X63397068Y-13086990D02*
X63358972Y-13125085D01*
X63358972Y-13125085D02*
X63320877Y-13086990D01*
X63320877Y-13086990D02*
X63358972Y-13048895D01*
X63358972Y-13048895D02*
X63358972Y-13125085D01*
X62635163Y-13315561D02*
X62635163Y-13963180D01*
X62635163Y-13963180D02*
X62673258Y-14039371D01*
X62673258Y-14039371D02*
X62711354Y-14077466D01*
X62711354Y-14077466D02*
X62787544Y-14115561D01*
X62787544Y-14115561D02*
X62901830Y-14115561D01*
X62901830Y-14115561D02*
X62978020Y-14077466D01*
X62635163Y-13810800D02*
X62711354Y-13848895D01*
X62711354Y-13848895D02*
X62863735Y-13848895D01*
X62863735Y-13848895D02*
X62939925Y-13810800D01*
X62939925Y-13810800D02*
X62978020Y-13772704D01*
X62978020Y-13772704D02*
X63016116Y-13696514D01*
X63016116Y-13696514D02*
X63016116Y-13467942D01*
X63016116Y-13467942D02*
X62978020Y-13391752D01*
X62978020Y-13391752D02*
X62939925Y-13353657D01*
X62939925Y-13353657D02*
X62863735Y-13315561D01*
X62863735Y-13315561D02*
X62711354Y-13315561D01*
X62711354Y-13315561D02*
X62635163Y-13353657D01*
X61911353Y-13315561D02*
X61911353Y-13963180D01*
X61911353Y-13963180D02*
X61949448Y-14039371D01*
X61949448Y-14039371D02*
X61987544Y-14077466D01*
X61987544Y-14077466D02*
X62063734Y-14115561D01*
X62063734Y-14115561D02*
X62178020Y-14115561D01*
X62178020Y-14115561D02*
X62254210Y-14077466D01*
X61911353Y-13810800D02*
X61987544Y-13848895D01*
X61987544Y-13848895D02*
X62139925Y-13848895D01*
X62139925Y-13848895D02*
X62216115Y-13810800D01*
X62216115Y-13810800D02*
X62254210Y-13772704D01*
X62254210Y-13772704D02*
X62292306Y-13696514D01*
X62292306Y-13696514D02*
X62292306Y-13467942D01*
X62292306Y-13467942D02*
X62254210Y-13391752D01*
X62254210Y-13391752D02*
X62216115Y-13353657D01*
X62216115Y-13353657D02*
X62139925Y-13315561D01*
X62139925Y-13315561D02*
X61987544Y-13315561D01*
X61987544Y-13315561D02*
X61911353Y-13353657D01*
X61225638Y-13810800D02*
X61301829Y-13848895D01*
X61301829Y-13848895D02*
X61454210Y-13848895D01*
X61454210Y-13848895D02*
X61530400Y-13810800D01*
X61530400Y-13810800D02*
X61568496Y-13734609D01*
X61568496Y-13734609D02*
X61568496Y-13429847D01*
X61568496Y-13429847D02*
X61530400Y-13353657D01*
X61530400Y-13353657D02*
X61454210Y-13315561D01*
X61454210Y-13315561D02*
X61301829Y-13315561D01*
X61301829Y-13315561D02*
X61225638Y-13353657D01*
X61225638Y-13353657D02*
X61187543Y-13429847D01*
X61187543Y-13429847D02*
X61187543Y-13506038D01*
X61187543Y-13506038D02*
X61568496Y-13582228D01*
X60844686Y-13848895D02*
X60844686Y-13315561D01*
X60844686Y-13467942D02*
X60806591Y-13391752D01*
X60806591Y-13391752D02*
X60768496Y-13353657D01*
X60768496Y-13353657D02*
X60692305Y-13315561D01*
X60692305Y-13315561D02*
X60616115Y-13315561D01*
X59816115Y-13315561D02*
X59625639Y-13848895D01*
X59625639Y-13848895D02*
X59435162Y-13315561D01*
X59168496Y-13125085D02*
X59130400Y-13086990D01*
X59130400Y-13086990D02*
X59054210Y-13048895D01*
X59054210Y-13048895D02*
X58863734Y-13048895D01*
X58863734Y-13048895D02*
X58787543Y-13086990D01*
X58787543Y-13086990D02*
X58749448Y-13125085D01*
X58749448Y-13125085D02*
X58711353Y-13201276D01*
X58711353Y-13201276D02*
X58711353Y-13277466D01*
X58711353Y-13277466D02*
X58749448Y-13391752D01*
X58749448Y-13391752D02*
X59206591Y-13848895D01*
X59206591Y-13848895D02*
X58711353Y-13848895D01*
X58368495Y-13772704D02*
X58330400Y-13810800D01*
X58330400Y-13810800D02*
X58368495Y-13848895D01*
X58368495Y-13848895D02*
X58406591Y-13810800D01*
X58406591Y-13810800D02*
X58368495Y-13772704D01*
X58368495Y-13772704D02*
X58368495Y-13848895D01*
X57568496Y-13848895D02*
X58025639Y-13848895D01*
X57797067Y-13848895D02*
X57797067Y-13048895D01*
X57797067Y-13048895D02*
X57873258Y-13163180D01*
X57873258Y-13163180D02*
X57949448Y-13239371D01*
X57949448Y-13239371D02*
X58025639Y-13277466D01*
D11*
X45028295Y9010476D02*
X45675914Y9010476D01*
X45675914Y9010476D02*
X45752104Y8972381D01*
X45752104Y8972381D02*
X45790200Y8934286D01*
X45790200Y8934286D02*
X45828295Y8858095D01*
X45828295Y8858095D02*
X45828295Y8705714D01*
X45828295Y8705714D02*
X45790200Y8629524D01*
X45790200Y8629524D02*
X45752104Y8591429D01*
X45752104Y8591429D02*
X45675914Y8553333D01*
X45675914Y8553333D02*
X45028295Y8553333D01*
X45790200Y8210477D02*
X45828295Y8096191D01*
X45828295Y8096191D02*
X45828295Y7905715D01*
X45828295Y7905715D02*
X45790200Y7829524D01*
X45790200Y7829524D02*
X45752104Y7791429D01*
X45752104Y7791429D02*
X45675914Y7753334D01*
X45675914Y7753334D02*
X45599723Y7753334D01*
X45599723Y7753334D02*
X45523533Y7791429D01*
X45523533Y7791429D02*
X45485438Y7829524D01*
X45485438Y7829524D02*
X45447342Y7905715D01*
X45447342Y7905715D02*
X45409247Y8058096D01*
X45409247Y8058096D02*
X45371152Y8134286D01*
X45371152Y8134286D02*
X45333057Y8172381D01*
X45333057Y8172381D02*
X45256866Y8210477D01*
X45256866Y8210477D02*
X45180676Y8210477D01*
X45180676Y8210477D02*
X45104485Y8172381D01*
X45104485Y8172381D02*
X45066390Y8134286D01*
X45066390Y8134286D02*
X45028295Y8058096D01*
X45028295Y8058096D02*
X45028295Y7867619D01*
X45028295Y7867619D02*
X45066390Y7753334D01*
X45409247Y7143810D02*
X45447342Y7029524D01*
X45447342Y7029524D02*
X45485438Y6991429D01*
X45485438Y6991429D02*
X45561628Y6953333D01*
X45561628Y6953333D02*
X45675914Y6953333D01*
X45675914Y6953333D02*
X45752104Y6991429D01*
X45752104Y6991429D02*
X45790200Y7029524D01*
X45790200Y7029524D02*
X45828295Y7105714D01*
X45828295Y7105714D02*
X45828295Y7410476D01*
X45828295Y7410476D02*
X45028295Y7410476D01*
X45028295Y7410476D02*
X45028295Y7143810D01*
X45028295Y7143810D02*
X45066390Y7067619D01*
X45066390Y7067619D02*
X45104485Y7029524D01*
X45104485Y7029524D02*
X45180676Y6991429D01*
X45180676Y6991429D02*
X45256866Y6991429D01*
X45256866Y6991429D02*
X45333057Y7029524D01*
X45333057Y7029524D02*
X45371152Y7067619D01*
X45371152Y7067619D02*
X45409247Y7143810D01*
X45409247Y7143810D02*
X45409247Y7410476D01*
X45828295Y6191429D02*
X45828295Y6648572D01*
X45828295Y6420000D02*
X45028295Y6420000D01*
X45028295Y6420000D02*
X45142580Y6496191D01*
X45142580Y6496191D02*
X45218771Y6572381D01*
X45218771Y6572381D02*
X45256866Y6648572D01*
%LPC*%
D12*
X100965000Y-5080000D03*
X104140000Y-8890000D03*
D13*
X104140000Y-9890000D03*
D14*
X77978000Y-18753500D03*
D15*
X80518000Y-18753500D03*
X83058000Y-18753500D03*
X85598000Y-18753500D03*
X88138000Y-18753500D03*
X90678000Y-18753500D03*
X90678000Y-11133500D03*
X88138000Y-11133500D03*
X85598000Y-11133500D03*
X83058000Y-11133500D03*
X80518000Y-11133500D03*
X77978000Y-11133500D03*
D16*
X104050000Y-29110000D03*
D12*
X96520000Y-8890000D03*
D13*
X96520000Y-9890000D03*
D16*
X104050000Y19890000D03*
D17*
X88035000Y-29319000D03*
X91035000Y-29319000D03*
D12*
X98425000Y-5080000D03*
D16*
X46050000Y19890000D03*
X46050000Y-29110000D03*
D18*
X46990000Y-1270000D03*
X49530000Y-1270000D03*
D19*
X52070000Y-1270000D03*
D18*
X54610000Y-1270000D03*
X57150000Y-1270000D03*
X59690000Y-1270000D03*
X62230000Y-1270000D03*
D19*
X64770000Y-1270000D03*
D18*
X67310000Y-1270000D03*
X69850000Y-1270000D03*
X72390000Y-1270000D03*
X74930000Y-1270000D03*
D19*
X77470000Y-1270000D03*
D18*
X80010000Y-1270000D03*
X82550000Y-1270000D03*
X85090000Y-1270000D03*
X87630000Y-1270000D03*
D19*
X90170000Y-1270000D03*
D18*
X92710000Y-1270000D03*
X95250000Y-1270000D03*
X95250000Y16510000D03*
X92710000Y16510000D03*
D19*
X90170000Y16510000D03*
D18*
X87630000Y16510000D03*
X85090000Y16510000D03*
X82550000Y16510000D03*
X80010000Y16510000D03*
D19*
X77470000Y16510000D03*
D18*
X74930000Y16510000D03*
X72390000Y16510000D03*
X69850000Y16510000D03*
X67310000Y16510000D03*
D19*
X64770000Y16510000D03*
D18*
X62230000Y16510000D03*
X59690000Y16510000D03*
X57150000Y16510000D03*
X54610000Y16510000D03*
D19*
X52070000Y16510000D03*
D18*
X49530000Y16510000D03*
X46990000Y16510000D03*
D17*
X78256000Y-29286000D03*
X81256000Y-29286000D03*
D12*
X101600000Y-8890000D03*
D13*
X101600000Y-9890000D03*
D20*
X49706000Y-5326000D03*
X49706000Y-27326000D03*
X71706000Y-5326000D03*
X71706000Y-27326000D03*
D21*
X56896000Y-4826000D03*
X59436000Y-4826000D03*
X61976000Y-4826000D03*
X64516000Y-4826000D03*
D12*
X99060000Y-8890000D03*
D13*
X99060000Y-9890000D03*
D22*
X101219000Y9624000D03*
D23*
X101219000Y6124000D03*
D24*
X49155000Y4730000D03*
X49155000Y10510000D03*
D25*
X50600000Y4395000D03*
X50600000Y5170000D03*
D26*
X50600000Y5870000D03*
X50600000Y6370000D03*
X50600000Y6870000D03*
X50600000Y7370000D03*
X50600000Y7870000D03*
X50600000Y8370000D03*
X50600000Y8870000D03*
X50600000Y9370000D03*
D25*
X50600000Y10070000D03*
X50600000Y10845000D03*
D27*
X45505000Y3300000D03*
D28*
X49685000Y3300000D03*
D27*
X45505000Y11940000D03*
D28*
X49685000Y11940000D03*
%LPD*%
M02*
