%TF.GenerationSoftware,KiCad,Pcbnew,7.0.8-7.0.8~ubuntu22.04.1*%
%TF.CreationDate,2023-10-19T12:27:00+02:00*%
%TF.ProjectId,PD_Micro,50445f4d-6963-4726-9f2e-6b696361645f,rev?*%
%TF.SameCoordinates,Original*%
%TF.FileFunction,Drillmap*%
%TF.FilePolarity,Positive*%
%FSLAX45Y45*%
G04 Gerber Fmt 4.5, Leading zero omitted, Abs format (unit mm)*
G04 Created by KiCad (PCBNEW 7.0.8-7.0.8~ubuntu22.04.1) date 2023-10-19 12:27:00*
%MOMM*%
%LPD*%
G01*
G04 APERTURE LIST*
%ADD10C,0.150000*%
%ADD11C,0.200000*%
%ADD12C,0.065000*%
%ADD13C,0.090000*%
%ADD14C,0.180000*%
%ADD15C,0.250000*%
G04 APERTURE END LIST*
D10*
X23700000Y-14000000D02*
X17500000Y-14000000D01*
X17500000Y-11000000D01*
X17500000Y-10950400D01*
X17500000Y-9426400D01*
X17500000Y-9326400D01*
X17500000Y-8700000D01*
X23700000Y-8700000D01*
X23700000Y-14000000D01*
D11*
D12*
X17978000Y-9805500D02*
X18043000Y-9870500D01*
X18043000Y-9805500D02*
X17978000Y-9870500D01*
X17978000Y-10383500D02*
X18043000Y-10448500D01*
X18043000Y-10383500D02*
X17978000Y-10448500D01*
D13*
X20965600Y-13817600D02*
G75*
G03*
X20965600Y-13817600I-45000J0D01*
G01*
X21265600Y-13817600D02*
G75*
G03*
X21265600Y-13817600I-45000J0D01*
G01*
X21943500Y-13820900D02*
G75*
G03*
X21943500Y-13820900I-45000J0D01*
G01*
X22243500Y-13820900D02*
G75*
G03*
X22243500Y-13820900I-45000J0D01*
G01*
D14*
X17700000Y-8810000D02*
X17700000Y-8990000D01*
X17610000Y-8900000D02*
X17790000Y-8900000D01*
X17700000Y-13710000D02*
X17700000Y-13890000D01*
X17610000Y-13800000D02*
X17790000Y-13800000D01*
X23500000Y-8810000D02*
X23500000Y-8990000D01*
X23410000Y-8900000D02*
X23590000Y-8900000D01*
X23500000Y-13710000D02*
X23500000Y-13890000D01*
X23410000Y-13800000D02*
X23590000Y-13800000D01*
D15*
X18153989Y-11509989D02*
X18153989Y-11333211D01*
X17977211Y-11333211D01*
X17977211Y-11509989D01*
X18153989Y-11509989D01*
X18153989Y-13709989D02*
X18153989Y-13533211D01*
X17977211Y-13533211D01*
X17977211Y-13709989D01*
X18153989Y-13709989D01*
X20353989Y-11509989D02*
X20353989Y-11333211D01*
X20177211Y-11333211D01*
X20177211Y-11509989D01*
X20353989Y-11509989D01*
X20353989Y-13709989D02*
X20353989Y-13533211D01*
X20177211Y-13533211D01*
X20177211Y-13709989D01*
X20353989Y-13709989D01*
D11*
X17753277Y-14318984D02*
X17753277Y-14118984D01*
X17753277Y-14118984D02*
X17800896Y-14118984D01*
X17800896Y-14118984D02*
X17829467Y-14128508D01*
X17829467Y-14128508D02*
X17848515Y-14147555D01*
X17848515Y-14147555D02*
X17858039Y-14166603D01*
X17858039Y-14166603D02*
X17867563Y-14204698D01*
X17867563Y-14204698D02*
X17867563Y-14233269D01*
X17867563Y-14233269D02*
X17858039Y-14271365D01*
X17858039Y-14271365D02*
X17848515Y-14290412D01*
X17848515Y-14290412D02*
X17829467Y-14309460D01*
X17829467Y-14309460D02*
X17800896Y-14318984D01*
X17800896Y-14318984D02*
X17753277Y-14318984D01*
X17953277Y-14318984D02*
X17953277Y-14185650D01*
X17953277Y-14223746D02*
X17962801Y-14204698D01*
X17962801Y-14204698D02*
X17972324Y-14195174D01*
X17972324Y-14195174D02*
X17991372Y-14185650D01*
X17991372Y-14185650D02*
X18010420Y-14185650D01*
X18077086Y-14318984D02*
X18077086Y-14185650D01*
X18077086Y-14118984D02*
X18067563Y-14128508D01*
X18067563Y-14128508D02*
X18077086Y-14138031D01*
X18077086Y-14138031D02*
X18086610Y-14128508D01*
X18086610Y-14128508D02*
X18077086Y-14118984D01*
X18077086Y-14118984D02*
X18077086Y-14138031D01*
X18200896Y-14318984D02*
X18181848Y-14309460D01*
X18181848Y-14309460D02*
X18172324Y-14290412D01*
X18172324Y-14290412D02*
X18172324Y-14118984D01*
X18305658Y-14318984D02*
X18286610Y-14309460D01*
X18286610Y-14309460D02*
X18277086Y-14290412D01*
X18277086Y-14290412D02*
X18277086Y-14118984D01*
X18534229Y-14318984D02*
X18534229Y-14118984D01*
X18534229Y-14118984D02*
X18600896Y-14261841D01*
X18600896Y-14261841D02*
X18667563Y-14118984D01*
X18667563Y-14118984D02*
X18667563Y-14318984D01*
X18848515Y-14318984D02*
X18848515Y-14214222D01*
X18848515Y-14214222D02*
X18838991Y-14195174D01*
X18838991Y-14195174D02*
X18819944Y-14185650D01*
X18819944Y-14185650D02*
X18781848Y-14185650D01*
X18781848Y-14185650D02*
X18762801Y-14195174D01*
X18848515Y-14309460D02*
X18829467Y-14318984D01*
X18829467Y-14318984D02*
X18781848Y-14318984D01*
X18781848Y-14318984D02*
X18762801Y-14309460D01*
X18762801Y-14309460D02*
X18753277Y-14290412D01*
X18753277Y-14290412D02*
X18753277Y-14271365D01*
X18753277Y-14271365D02*
X18762801Y-14252317D01*
X18762801Y-14252317D02*
X18781848Y-14242793D01*
X18781848Y-14242793D02*
X18829467Y-14242793D01*
X18829467Y-14242793D02*
X18848515Y-14233269D01*
X18943753Y-14185650D02*
X18943753Y-14385650D01*
X18943753Y-14195174D02*
X18962801Y-14185650D01*
X18962801Y-14185650D02*
X19000896Y-14185650D01*
X19000896Y-14185650D02*
X19019944Y-14195174D01*
X19019944Y-14195174D02*
X19029467Y-14204698D01*
X19029467Y-14204698D02*
X19038991Y-14223746D01*
X19038991Y-14223746D02*
X19038991Y-14280888D01*
X19038991Y-14280888D02*
X19029467Y-14299936D01*
X19029467Y-14299936D02*
X19019944Y-14309460D01*
X19019944Y-14309460D02*
X19000896Y-14318984D01*
X19000896Y-14318984D02*
X18962801Y-14318984D01*
X18962801Y-14318984D02*
X18943753Y-14309460D01*
X19124705Y-14299936D02*
X19134229Y-14309460D01*
X19134229Y-14309460D02*
X19124705Y-14318984D01*
X19124705Y-14318984D02*
X19115182Y-14309460D01*
X19115182Y-14309460D02*
X19124705Y-14299936D01*
X19124705Y-14299936D02*
X19124705Y-14318984D01*
X19124705Y-14195174D02*
X19134229Y-14204698D01*
X19134229Y-14204698D02*
X19124705Y-14214222D01*
X19124705Y-14214222D02*
X19115182Y-14204698D01*
X19115182Y-14204698D02*
X19124705Y-14195174D01*
X19124705Y-14195174D02*
X19124705Y-14214222D01*
D12*
X17427500Y-14615000D02*
X17492500Y-14680000D01*
X17492500Y-14615000D02*
X17427500Y-14680000D01*
D11*
X17791372Y-14538984D02*
X17810420Y-14538984D01*
X17810420Y-14538984D02*
X17829467Y-14548508D01*
X17829467Y-14548508D02*
X17838991Y-14558031D01*
X17838991Y-14558031D02*
X17848515Y-14577079D01*
X17848515Y-14577079D02*
X17858039Y-14615174D01*
X17858039Y-14615174D02*
X17858039Y-14662793D01*
X17858039Y-14662793D02*
X17848515Y-14700888D01*
X17848515Y-14700888D02*
X17838991Y-14719936D01*
X17838991Y-14719936D02*
X17829467Y-14729460D01*
X17829467Y-14729460D02*
X17810420Y-14738984D01*
X17810420Y-14738984D02*
X17791372Y-14738984D01*
X17791372Y-14738984D02*
X17772324Y-14729460D01*
X17772324Y-14729460D02*
X17762801Y-14719936D01*
X17762801Y-14719936D02*
X17753277Y-14700888D01*
X17753277Y-14700888D02*
X17743753Y-14662793D01*
X17743753Y-14662793D02*
X17743753Y-14615174D01*
X17743753Y-14615174D02*
X17753277Y-14577079D01*
X17753277Y-14577079D02*
X17762801Y-14558031D01*
X17762801Y-14558031D02*
X17772324Y-14548508D01*
X17772324Y-14548508D02*
X17791372Y-14538984D01*
X17943753Y-14719936D02*
X17953277Y-14729460D01*
X17953277Y-14729460D02*
X17943753Y-14738984D01*
X17943753Y-14738984D02*
X17934229Y-14729460D01*
X17934229Y-14729460D02*
X17943753Y-14719936D01*
X17943753Y-14719936D02*
X17943753Y-14738984D01*
X18124705Y-14538984D02*
X18086610Y-14538984D01*
X18086610Y-14538984D02*
X18067563Y-14548508D01*
X18067563Y-14548508D02*
X18058039Y-14558031D01*
X18058039Y-14558031D02*
X18038991Y-14586603D01*
X18038991Y-14586603D02*
X18029467Y-14624698D01*
X18029467Y-14624698D02*
X18029467Y-14700888D01*
X18029467Y-14700888D02*
X18038991Y-14719936D01*
X18038991Y-14719936D02*
X18048515Y-14729460D01*
X18048515Y-14729460D02*
X18067563Y-14738984D01*
X18067563Y-14738984D02*
X18105658Y-14738984D01*
X18105658Y-14738984D02*
X18124705Y-14729460D01*
X18124705Y-14729460D02*
X18134229Y-14719936D01*
X18134229Y-14719936D02*
X18143753Y-14700888D01*
X18143753Y-14700888D02*
X18143753Y-14653269D01*
X18143753Y-14653269D02*
X18134229Y-14634222D01*
X18134229Y-14634222D02*
X18124705Y-14624698D01*
X18124705Y-14624698D02*
X18105658Y-14615174D01*
X18105658Y-14615174D02*
X18067563Y-14615174D01*
X18067563Y-14615174D02*
X18048515Y-14624698D01*
X18048515Y-14624698D02*
X18038991Y-14634222D01*
X18038991Y-14634222D02*
X18029467Y-14653269D01*
X18324705Y-14538984D02*
X18229467Y-14538984D01*
X18229467Y-14538984D02*
X18219944Y-14634222D01*
X18219944Y-14634222D02*
X18229467Y-14624698D01*
X18229467Y-14624698D02*
X18248515Y-14615174D01*
X18248515Y-14615174D02*
X18296134Y-14615174D01*
X18296134Y-14615174D02*
X18315182Y-14624698D01*
X18315182Y-14624698D02*
X18324705Y-14634222D01*
X18324705Y-14634222D02*
X18334229Y-14653269D01*
X18334229Y-14653269D02*
X18334229Y-14700888D01*
X18334229Y-14700888D02*
X18324705Y-14719936D01*
X18324705Y-14719936D02*
X18315182Y-14729460D01*
X18315182Y-14729460D02*
X18296134Y-14738984D01*
X18296134Y-14738984D02*
X18248515Y-14738984D01*
X18248515Y-14738984D02*
X18229467Y-14729460D01*
X18229467Y-14729460D02*
X18219944Y-14719936D01*
X18458039Y-14538984D02*
X18477086Y-14538984D01*
X18477086Y-14538984D02*
X18496134Y-14548508D01*
X18496134Y-14548508D02*
X18505658Y-14558031D01*
X18505658Y-14558031D02*
X18515182Y-14577079D01*
X18515182Y-14577079D02*
X18524705Y-14615174D01*
X18524705Y-14615174D02*
X18524705Y-14662793D01*
X18524705Y-14662793D02*
X18515182Y-14700888D01*
X18515182Y-14700888D02*
X18505658Y-14719936D01*
X18505658Y-14719936D02*
X18496134Y-14729460D01*
X18496134Y-14729460D02*
X18477086Y-14738984D01*
X18477086Y-14738984D02*
X18458039Y-14738984D01*
X18458039Y-14738984D02*
X18438991Y-14729460D01*
X18438991Y-14729460D02*
X18429467Y-14719936D01*
X18429467Y-14719936D02*
X18419944Y-14700888D01*
X18419944Y-14700888D02*
X18410420Y-14662793D01*
X18410420Y-14662793D02*
X18410420Y-14615174D01*
X18410420Y-14615174D02*
X18419944Y-14577079D01*
X18419944Y-14577079D02*
X18429467Y-14558031D01*
X18429467Y-14558031D02*
X18438991Y-14548508D01*
X18438991Y-14548508D02*
X18458039Y-14538984D01*
X18610420Y-14738984D02*
X18610420Y-14605650D01*
X18610420Y-14624698D02*
X18619944Y-14615174D01*
X18619944Y-14615174D02*
X18638991Y-14605650D01*
X18638991Y-14605650D02*
X18667563Y-14605650D01*
X18667563Y-14605650D02*
X18686610Y-14615174D01*
X18686610Y-14615174D02*
X18696134Y-14634222D01*
X18696134Y-14634222D02*
X18696134Y-14738984D01*
X18696134Y-14634222D02*
X18705658Y-14615174D01*
X18705658Y-14615174D02*
X18724705Y-14605650D01*
X18724705Y-14605650D02*
X18753277Y-14605650D01*
X18753277Y-14605650D02*
X18772325Y-14615174D01*
X18772325Y-14615174D02*
X18781848Y-14634222D01*
X18781848Y-14634222D02*
X18781848Y-14738984D01*
X18877086Y-14738984D02*
X18877086Y-14605650D01*
X18877086Y-14624698D02*
X18886610Y-14615174D01*
X18886610Y-14615174D02*
X18905658Y-14605650D01*
X18905658Y-14605650D02*
X18934229Y-14605650D01*
X18934229Y-14605650D02*
X18953277Y-14615174D01*
X18953277Y-14615174D02*
X18962801Y-14634222D01*
X18962801Y-14634222D02*
X18962801Y-14738984D01*
X18962801Y-14634222D02*
X18972325Y-14615174D01*
X18972325Y-14615174D02*
X18991372Y-14605650D01*
X18991372Y-14605650D02*
X19019944Y-14605650D01*
X19019944Y-14605650D02*
X19038991Y-14615174D01*
X19038991Y-14615174D02*
X19048515Y-14634222D01*
X19048515Y-14634222D02*
X19048515Y-14738984D01*
X19438991Y-14529460D02*
X19267563Y-14786603D01*
X19696134Y-14538984D02*
X19715182Y-14538984D01*
X19715182Y-14538984D02*
X19734229Y-14548508D01*
X19734229Y-14548508D02*
X19743753Y-14558031D01*
X19743753Y-14558031D02*
X19753277Y-14577079D01*
X19753277Y-14577079D02*
X19762801Y-14615174D01*
X19762801Y-14615174D02*
X19762801Y-14662793D01*
X19762801Y-14662793D02*
X19753277Y-14700888D01*
X19753277Y-14700888D02*
X19743753Y-14719936D01*
X19743753Y-14719936D02*
X19734229Y-14729460D01*
X19734229Y-14729460D02*
X19715182Y-14738984D01*
X19715182Y-14738984D02*
X19696134Y-14738984D01*
X19696134Y-14738984D02*
X19677087Y-14729460D01*
X19677087Y-14729460D02*
X19667563Y-14719936D01*
X19667563Y-14719936D02*
X19658039Y-14700888D01*
X19658039Y-14700888D02*
X19648515Y-14662793D01*
X19648515Y-14662793D02*
X19648515Y-14615174D01*
X19648515Y-14615174D02*
X19658039Y-14577079D01*
X19658039Y-14577079D02*
X19667563Y-14558031D01*
X19667563Y-14558031D02*
X19677087Y-14548508D01*
X19677087Y-14548508D02*
X19696134Y-14538984D01*
X19848515Y-14719936D02*
X19858039Y-14729460D01*
X19858039Y-14729460D02*
X19848515Y-14738984D01*
X19848515Y-14738984D02*
X19838991Y-14729460D01*
X19838991Y-14729460D02*
X19848515Y-14719936D01*
X19848515Y-14719936D02*
X19848515Y-14738984D01*
X19981848Y-14538984D02*
X20000896Y-14538984D01*
X20000896Y-14538984D02*
X20019944Y-14548508D01*
X20019944Y-14548508D02*
X20029468Y-14558031D01*
X20029468Y-14558031D02*
X20038991Y-14577079D01*
X20038991Y-14577079D02*
X20048515Y-14615174D01*
X20048515Y-14615174D02*
X20048515Y-14662793D01*
X20048515Y-14662793D02*
X20038991Y-14700888D01*
X20038991Y-14700888D02*
X20029468Y-14719936D01*
X20029468Y-14719936D02*
X20019944Y-14729460D01*
X20019944Y-14729460D02*
X20000896Y-14738984D01*
X20000896Y-14738984D02*
X19981848Y-14738984D01*
X19981848Y-14738984D02*
X19962801Y-14729460D01*
X19962801Y-14729460D02*
X19953277Y-14719936D01*
X19953277Y-14719936D02*
X19943753Y-14700888D01*
X19943753Y-14700888D02*
X19934229Y-14662793D01*
X19934229Y-14662793D02*
X19934229Y-14615174D01*
X19934229Y-14615174D02*
X19943753Y-14577079D01*
X19943753Y-14577079D02*
X19953277Y-14558031D01*
X19953277Y-14558031D02*
X19962801Y-14548508D01*
X19962801Y-14548508D02*
X19981848Y-14538984D01*
X20124706Y-14558031D02*
X20134229Y-14548508D01*
X20134229Y-14548508D02*
X20153277Y-14538984D01*
X20153277Y-14538984D02*
X20200896Y-14538984D01*
X20200896Y-14538984D02*
X20219944Y-14548508D01*
X20219944Y-14548508D02*
X20229468Y-14558031D01*
X20229468Y-14558031D02*
X20238991Y-14577079D01*
X20238991Y-14577079D02*
X20238991Y-14596127D01*
X20238991Y-14596127D02*
X20229468Y-14624698D01*
X20229468Y-14624698D02*
X20115182Y-14738984D01*
X20115182Y-14738984D02*
X20238991Y-14738984D01*
X20419944Y-14538984D02*
X20324706Y-14538984D01*
X20324706Y-14538984D02*
X20315182Y-14634222D01*
X20315182Y-14634222D02*
X20324706Y-14624698D01*
X20324706Y-14624698D02*
X20343753Y-14615174D01*
X20343753Y-14615174D02*
X20391372Y-14615174D01*
X20391372Y-14615174D02*
X20410420Y-14624698D01*
X20410420Y-14624698D02*
X20419944Y-14634222D01*
X20419944Y-14634222D02*
X20429468Y-14653269D01*
X20429468Y-14653269D02*
X20429468Y-14700888D01*
X20429468Y-14700888D02*
X20419944Y-14719936D01*
X20419944Y-14719936D02*
X20410420Y-14729460D01*
X20410420Y-14729460D02*
X20391372Y-14738984D01*
X20391372Y-14738984D02*
X20343753Y-14738984D01*
X20343753Y-14738984D02*
X20324706Y-14729460D01*
X20324706Y-14729460D02*
X20315182Y-14719936D01*
X20600896Y-14538984D02*
X20562801Y-14538984D01*
X20562801Y-14538984D02*
X20543753Y-14548508D01*
X20543753Y-14548508D02*
X20534229Y-14558031D01*
X20534229Y-14558031D02*
X20515182Y-14586603D01*
X20515182Y-14586603D02*
X20505658Y-14624698D01*
X20505658Y-14624698D02*
X20505658Y-14700888D01*
X20505658Y-14700888D02*
X20515182Y-14719936D01*
X20515182Y-14719936D02*
X20524706Y-14729460D01*
X20524706Y-14729460D02*
X20543753Y-14738984D01*
X20543753Y-14738984D02*
X20581849Y-14738984D01*
X20581849Y-14738984D02*
X20600896Y-14729460D01*
X20600896Y-14729460D02*
X20610420Y-14719936D01*
X20610420Y-14719936D02*
X20619944Y-14700888D01*
X20619944Y-14700888D02*
X20619944Y-14653269D01*
X20619944Y-14653269D02*
X20610420Y-14634222D01*
X20610420Y-14634222D02*
X20600896Y-14624698D01*
X20600896Y-14624698D02*
X20581849Y-14615174D01*
X20581849Y-14615174D02*
X20543753Y-14615174D01*
X20543753Y-14615174D02*
X20524706Y-14624698D01*
X20524706Y-14624698D02*
X20515182Y-14634222D01*
X20515182Y-14634222D02*
X20505658Y-14653269D01*
X20696134Y-14538984D02*
X20696134Y-14577079D01*
X20772325Y-14538984D02*
X20772325Y-14577079D01*
X21067563Y-14815174D02*
X21058039Y-14805650D01*
X21058039Y-14805650D02*
X21038991Y-14777079D01*
X21038991Y-14777079D02*
X21029468Y-14758031D01*
X21029468Y-14758031D02*
X21019944Y-14729460D01*
X21019944Y-14729460D02*
X21010420Y-14681841D01*
X21010420Y-14681841D02*
X21010420Y-14643746D01*
X21010420Y-14643746D02*
X21019944Y-14596127D01*
X21019944Y-14596127D02*
X21029468Y-14567555D01*
X21029468Y-14567555D02*
X21038991Y-14548508D01*
X21038991Y-14548508D02*
X21058039Y-14519936D01*
X21058039Y-14519936D02*
X21067563Y-14510412D01*
X21134230Y-14558031D02*
X21143753Y-14548508D01*
X21143753Y-14548508D02*
X21162801Y-14538984D01*
X21162801Y-14538984D02*
X21210420Y-14538984D01*
X21210420Y-14538984D02*
X21229468Y-14548508D01*
X21229468Y-14548508D02*
X21238991Y-14558031D01*
X21238991Y-14558031D02*
X21248515Y-14577079D01*
X21248515Y-14577079D02*
X21248515Y-14596127D01*
X21248515Y-14596127D02*
X21238991Y-14624698D01*
X21238991Y-14624698D02*
X21124706Y-14738984D01*
X21124706Y-14738984D02*
X21248515Y-14738984D01*
X21486611Y-14738984D02*
X21486611Y-14538984D01*
X21572325Y-14738984D02*
X21572325Y-14634222D01*
X21572325Y-14634222D02*
X21562801Y-14615174D01*
X21562801Y-14615174D02*
X21543753Y-14605650D01*
X21543753Y-14605650D02*
X21515182Y-14605650D01*
X21515182Y-14605650D02*
X21496134Y-14615174D01*
X21496134Y-14615174D02*
X21486611Y-14624698D01*
X21696134Y-14738984D02*
X21677087Y-14729460D01*
X21677087Y-14729460D02*
X21667563Y-14719936D01*
X21667563Y-14719936D02*
X21658039Y-14700888D01*
X21658039Y-14700888D02*
X21658039Y-14643746D01*
X21658039Y-14643746D02*
X21667563Y-14624698D01*
X21667563Y-14624698D02*
X21677087Y-14615174D01*
X21677087Y-14615174D02*
X21696134Y-14605650D01*
X21696134Y-14605650D02*
X21724706Y-14605650D01*
X21724706Y-14605650D02*
X21743753Y-14615174D01*
X21743753Y-14615174D02*
X21753277Y-14624698D01*
X21753277Y-14624698D02*
X21762801Y-14643746D01*
X21762801Y-14643746D02*
X21762801Y-14700888D01*
X21762801Y-14700888D02*
X21753277Y-14719936D01*
X21753277Y-14719936D02*
X21743753Y-14729460D01*
X21743753Y-14729460D02*
X21724706Y-14738984D01*
X21724706Y-14738984D02*
X21696134Y-14738984D01*
X21877087Y-14738984D02*
X21858039Y-14729460D01*
X21858039Y-14729460D02*
X21848515Y-14710412D01*
X21848515Y-14710412D02*
X21848515Y-14538984D01*
X22029468Y-14729460D02*
X22010420Y-14738984D01*
X22010420Y-14738984D02*
X21972325Y-14738984D01*
X21972325Y-14738984D02*
X21953277Y-14729460D01*
X21953277Y-14729460D02*
X21943753Y-14710412D01*
X21943753Y-14710412D02*
X21943753Y-14634222D01*
X21943753Y-14634222D02*
X21953277Y-14615174D01*
X21953277Y-14615174D02*
X21972325Y-14605650D01*
X21972325Y-14605650D02*
X22010420Y-14605650D01*
X22010420Y-14605650D02*
X22029468Y-14615174D01*
X22029468Y-14615174D02*
X22038992Y-14634222D01*
X22038992Y-14634222D02*
X22038992Y-14653269D01*
X22038992Y-14653269D02*
X21943753Y-14672317D01*
X22115182Y-14729460D02*
X22134230Y-14738984D01*
X22134230Y-14738984D02*
X22172325Y-14738984D01*
X22172325Y-14738984D02*
X22191373Y-14729460D01*
X22191373Y-14729460D02*
X22200896Y-14710412D01*
X22200896Y-14710412D02*
X22200896Y-14700888D01*
X22200896Y-14700888D02*
X22191373Y-14681841D01*
X22191373Y-14681841D02*
X22172325Y-14672317D01*
X22172325Y-14672317D02*
X22143753Y-14672317D01*
X22143753Y-14672317D02*
X22124706Y-14662793D01*
X22124706Y-14662793D02*
X22115182Y-14643746D01*
X22115182Y-14643746D02*
X22115182Y-14634222D01*
X22115182Y-14634222D02*
X22124706Y-14615174D01*
X22124706Y-14615174D02*
X22143753Y-14605650D01*
X22143753Y-14605650D02*
X22172325Y-14605650D01*
X22172325Y-14605650D02*
X22191373Y-14615174D01*
X22267563Y-14815174D02*
X22277087Y-14805650D01*
X22277087Y-14805650D02*
X22296134Y-14777079D01*
X22296134Y-14777079D02*
X22305658Y-14758031D01*
X22305658Y-14758031D02*
X22315182Y-14729460D01*
X22315182Y-14729460D02*
X22324706Y-14681841D01*
X22324706Y-14681841D02*
X22324706Y-14643746D01*
X22324706Y-14643746D02*
X22315182Y-14596127D01*
X22315182Y-14596127D02*
X22305658Y-14567555D01*
X22305658Y-14567555D02*
X22296134Y-14548508D01*
X22296134Y-14548508D02*
X22277087Y-14519936D01*
X22277087Y-14519936D02*
X22267563Y-14510412D01*
X22629468Y-14815174D02*
X22619944Y-14805650D01*
X22619944Y-14805650D02*
X22600896Y-14777079D01*
X22600896Y-14777079D02*
X22591372Y-14758031D01*
X22591372Y-14758031D02*
X22581849Y-14729460D01*
X22581849Y-14729460D02*
X22572325Y-14681841D01*
X22572325Y-14681841D02*
X22572325Y-14643746D01*
X22572325Y-14643746D02*
X22581849Y-14596127D01*
X22581849Y-14596127D02*
X22591372Y-14567555D01*
X22591372Y-14567555D02*
X22600896Y-14548508D01*
X22600896Y-14548508D02*
X22619944Y-14519936D01*
X22619944Y-14519936D02*
X22629468Y-14510412D01*
X22705658Y-14605650D02*
X22705658Y-14738984D01*
X22705658Y-14624698D02*
X22715182Y-14615174D01*
X22715182Y-14615174D02*
X22734230Y-14605650D01*
X22734230Y-14605650D02*
X22762801Y-14605650D01*
X22762801Y-14605650D02*
X22781849Y-14615174D01*
X22781849Y-14615174D02*
X22791372Y-14634222D01*
X22791372Y-14634222D02*
X22791372Y-14738984D01*
X22915182Y-14738984D02*
X22896134Y-14729460D01*
X22896134Y-14729460D02*
X22886611Y-14719936D01*
X22886611Y-14719936D02*
X22877087Y-14700888D01*
X22877087Y-14700888D02*
X22877087Y-14643746D01*
X22877087Y-14643746D02*
X22886611Y-14624698D01*
X22886611Y-14624698D02*
X22896134Y-14615174D01*
X22896134Y-14615174D02*
X22915182Y-14605650D01*
X22915182Y-14605650D02*
X22943753Y-14605650D01*
X22943753Y-14605650D02*
X22962801Y-14615174D01*
X22962801Y-14615174D02*
X22972325Y-14624698D01*
X22972325Y-14624698D02*
X22981849Y-14643746D01*
X22981849Y-14643746D02*
X22981849Y-14700888D01*
X22981849Y-14700888D02*
X22972325Y-14719936D01*
X22972325Y-14719936D02*
X22962801Y-14729460D01*
X22962801Y-14729460D02*
X22943753Y-14738984D01*
X22943753Y-14738984D02*
X22915182Y-14738984D01*
X23038992Y-14605650D02*
X23115182Y-14605650D01*
X23067563Y-14538984D02*
X23067563Y-14710412D01*
X23067563Y-14710412D02*
X23077087Y-14729460D01*
X23077087Y-14729460D02*
X23096134Y-14738984D01*
X23096134Y-14738984D02*
X23115182Y-14738984D01*
X23334230Y-14605650D02*
X23334230Y-14805650D01*
X23334230Y-14615174D02*
X23353277Y-14605650D01*
X23353277Y-14605650D02*
X23391373Y-14605650D01*
X23391373Y-14605650D02*
X23410420Y-14615174D01*
X23410420Y-14615174D02*
X23419944Y-14624698D01*
X23419944Y-14624698D02*
X23429468Y-14643746D01*
X23429468Y-14643746D02*
X23429468Y-14700888D01*
X23429468Y-14700888D02*
X23419944Y-14719936D01*
X23419944Y-14719936D02*
X23410420Y-14729460D01*
X23410420Y-14729460D02*
X23391373Y-14738984D01*
X23391373Y-14738984D02*
X23353277Y-14738984D01*
X23353277Y-14738984D02*
X23334230Y-14729460D01*
X23543753Y-14738984D02*
X23524706Y-14729460D01*
X23524706Y-14729460D02*
X23515182Y-14710412D01*
X23515182Y-14710412D02*
X23515182Y-14538984D01*
X23705658Y-14738984D02*
X23705658Y-14634222D01*
X23705658Y-14634222D02*
X23696134Y-14615174D01*
X23696134Y-14615174D02*
X23677087Y-14605650D01*
X23677087Y-14605650D02*
X23638992Y-14605650D01*
X23638992Y-14605650D02*
X23619944Y-14615174D01*
X23705658Y-14729460D02*
X23686611Y-14738984D01*
X23686611Y-14738984D02*
X23638992Y-14738984D01*
X23638992Y-14738984D02*
X23619944Y-14729460D01*
X23619944Y-14729460D02*
X23610420Y-14710412D01*
X23610420Y-14710412D02*
X23610420Y-14691365D01*
X23610420Y-14691365D02*
X23619944Y-14672317D01*
X23619944Y-14672317D02*
X23638992Y-14662793D01*
X23638992Y-14662793D02*
X23686611Y-14662793D01*
X23686611Y-14662793D02*
X23705658Y-14653269D01*
X23772325Y-14605650D02*
X23848515Y-14605650D01*
X23800896Y-14538984D02*
X23800896Y-14710412D01*
X23800896Y-14710412D02*
X23810420Y-14729460D01*
X23810420Y-14729460D02*
X23829468Y-14738984D01*
X23829468Y-14738984D02*
X23848515Y-14738984D01*
X23991373Y-14729460D02*
X23972325Y-14738984D01*
X23972325Y-14738984D02*
X23934230Y-14738984D01*
X23934230Y-14738984D02*
X23915182Y-14729460D01*
X23915182Y-14729460D02*
X23905658Y-14710412D01*
X23905658Y-14710412D02*
X23905658Y-14634222D01*
X23905658Y-14634222D02*
X23915182Y-14615174D01*
X23915182Y-14615174D02*
X23934230Y-14605650D01*
X23934230Y-14605650D02*
X23972325Y-14605650D01*
X23972325Y-14605650D02*
X23991373Y-14615174D01*
X23991373Y-14615174D02*
X24000896Y-14634222D01*
X24000896Y-14634222D02*
X24000896Y-14653269D01*
X24000896Y-14653269D02*
X23905658Y-14672317D01*
X24172325Y-14738984D02*
X24172325Y-14538984D01*
X24172325Y-14729460D02*
X24153277Y-14738984D01*
X24153277Y-14738984D02*
X24115182Y-14738984D01*
X24115182Y-14738984D02*
X24096134Y-14729460D01*
X24096134Y-14729460D02*
X24086611Y-14719936D01*
X24086611Y-14719936D02*
X24077087Y-14700888D01*
X24077087Y-14700888D02*
X24077087Y-14643746D01*
X24077087Y-14643746D02*
X24086611Y-14624698D01*
X24086611Y-14624698D02*
X24096134Y-14615174D01*
X24096134Y-14615174D02*
X24115182Y-14605650D01*
X24115182Y-14605650D02*
X24153277Y-14605650D01*
X24153277Y-14605650D02*
X24172325Y-14615174D01*
X24248515Y-14815174D02*
X24258039Y-14805650D01*
X24258039Y-14805650D02*
X24277087Y-14777079D01*
X24277087Y-14777079D02*
X24286611Y-14758031D01*
X24286611Y-14758031D02*
X24296134Y-14729460D01*
X24296134Y-14729460D02*
X24305658Y-14681841D01*
X24305658Y-14681841D02*
X24305658Y-14643746D01*
X24305658Y-14643746D02*
X24296134Y-14596127D01*
X24296134Y-14596127D02*
X24286611Y-14567555D01*
X24286611Y-14567555D02*
X24277087Y-14548508D01*
X24277087Y-14548508D02*
X24258039Y-14519936D01*
X24258039Y-14519936D02*
X24248515Y-14510412D01*
D13*
X17492500Y-14911500D02*
G75*
G03*
X17492500Y-14911500I-45000J0D01*
G01*
D11*
X17791372Y-14802984D02*
X17810420Y-14802984D01*
X17810420Y-14802984D02*
X17829467Y-14812508D01*
X17829467Y-14812508D02*
X17838991Y-14822031D01*
X17838991Y-14822031D02*
X17848515Y-14841079D01*
X17848515Y-14841079D02*
X17858039Y-14879174D01*
X17858039Y-14879174D02*
X17858039Y-14926793D01*
X17858039Y-14926793D02*
X17848515Y-14964888D01*
X17848515Y-14964888D02*
X17838991Y-14983936D01*
X17838991Y-14983936D02*
X17829467Y-14993460D01*
X17829467Y-14993460D02*
X17810420Y-15002984D01*
X17810420Y-15002984D02*
X17791372Y-15002984D01*
X17791372Y-15002984D02*
X17772324Y-14993460D01*
X17772324Y-14993460D02*
X17762801Y-14983936D01*
X17762801Y-14983936D02*
X17753277Y-14964888D01*
X17753277Y-14964888D02*
X17743753Y-14926793D01*
X17743753Y-14926793D02*
X17743753Y-14879174D01*
X17743753Y-14879174D02*
X17753277Y-14841079D01*
X17753277Y-14841079D02*
X17762801Y-14822031D01*
X17762801Y-14822031D02*
X17772324Y-14812508D01*
X17772324Y-14812508D02*
X17791372Y-14802984D01*
X17943753Y-14983936D02*
X17953277Y-14993460D01*
X17953277Y-14993460D02*
X17943753Y-15002984D01*
X17943753Y-15002984D02*
X17934229Y-14993460D01*
X17934229Y-14993460D02*
X17943753Y-14983936D01*
X17943753Y-14983936D02*
X17943753Y-15002984D01*
X18048515Y-15002984D02*
X18086610Y-15002984D01*
X18086610Y-15002984D02*
X18105658Y-14993460D01*
X18105658Y-14993460D02*
X18115182Y-14983936D01*
X18115182Y-14983936D02*
X18134229Y-14955365D01*
X18134229Y-14955365D02*
X18143753Y-14917269D01*
X18143753Y-14917269D02*
X18143753Y-14841079D01*
X18143753Y-14841079D02*
X18134229Y-14822031D01*
X18134229Y-14822031D02*
X18124705Y-14812508D01*
X18124705Y-14812508D02*
X18105658Y-14802984D01*
X18105658Y-14802984D02*
X18067563Y-14802984D01*
X18067563Y-14802984D02*
X18048515Y-14812508D01*
X18048515Y-14812508D02*
X18038991Y-14822031D01*
X18038991Y-14822031D02*
X18029467Y-14841079D01*
X18029467Y-14841079D02*
X18029467Y-14888698D01*
X18029467Y-14888698D02*
X18038991Y-14907746D01*
X18038991Y-14907746D02*
X18048515Y-14917269D01*
X18048515Y-14917269D02*
X18067563Y-14926793D01*
X18067563Y-14926793D02*
X18105658Y-14926793D01*
X18105658Y-14926793D02*
X18124705Y-14917269D01*
X18124705Y-14917269D02*
X18134229Y-14907746D01*
X18134229Y-14907746D02*
X18143753Y-14888698D01*
X18267563Y-14802984D02*
X18286610Y-14802984D01*
X18286610Y-14802984D02*
X18305658Y-14812508D01*
X18305658Y-14812508D02*
X18315182Y-14822031D01*
X18315182Y-14822031D02*
X18324705Y-14841079D01*
X18324705Y-14841079D02*
X18334229Y-14879174D01*
X18334229Y-14879174D02*
X18334229Y-14926793D01*
X18334229Y-14926793D02*
X18324705Y-14964888D01*
X18324705Y-14964888D02*
X18315182Y-14983936D01*
X18315182Y-14983936D02*
X18305658Y-14993460D01*
X18305658Y-14993460D02*
X18286610Y-15002984D01*
X18286610Y-15002984D02*
X18267563Y-15002984D01*
X18267563Y-15002984D02*
X18248515Y-14993460D01*
X18248515Y-14993460D02*
X18238991Y-14983936D01*
X18238991Y-14983936D02*
X18229467Y-14964888D01*
X18229467Y-14964888D02*
X18219944Y-14926793D01*
X18219944Y-14926793D02*
X18219944Y-14879174D01*
X18219944Y-14879174D02*
X18229467Y-14841079D01*
X18229467Y-14841079D02*
X18238991Y-14822031D01*
X18238991Y-14822031D02*
X18248515Y-14812508D01*
X18248515Y-14812508D02*
X18267563Y-14802984D01*
X18458039Y-14802984D02*
X18477086Y-14802984D01*
X18477086Y-14802984D02*
X18496134Y-14812508D01*
X18496134Y-14812508D02*
X18505658Y-14822031D01*
X18505658Y-14822031D02*
X18515182Y-14841079D01*
X18515182Y-14841079D02*
X18524705Y-14879174D01*
X18524705Y-14879174D02*
X18524705Y-14926793D01*
X18524705Y-14926793D02*
X18515182Y-14964888D01*
X18515182Y-14964888D02*
X18505658Y-14983936D01*
X18505658Y-14983936D02*
X18496134Y-14993460D01*
X18496134Y-14993460D02*
X18477086Y-15002984D01*
X18477086Y-15002984D02*
X18458039Y-15002984D01*
X18458039Y-15002984D02*
X18438991Y-14993460D01*
X18438991Y-14993460D02*
X18429467Y-14983936D01*
X18429467Y-14983936D02*
X18419944Y-14964888D01*
X18419944Y-14964888D02*
X18410420Y-14926793D01*
X18410420Y-14926793D02*
X18410420Y-14879174D01*
X18410420Y-14879174D02*
X18419944Y-14841079D01*
X18419944Y-14841079D02*
X18429467Y-14822031D01*
X18429467Y-14822031D02*
X18438991Y-14812508D01*
X18438991Y-14812508D02*
X18458039Y-14802984D01*
X18610420Y-15002984D02*
X18610420Y-14869650D01*
X18610420Y-14888698D02*
X18619944Y-14879174D01*
X18619944Y-14879174D02*
X18638991Y-14869650D01*
X18638991Y-14869650D02*
X18667563Y-14869650D01*
X18667563Y-14869650D02*
X18686610Y-14879174D01*
X18686610Y-14879174D02*
X18696134Y-14898222D01*
X18696134Y-14898222D02*
X18696134Y-15002984D01*
X18696134Y-14898222D02*
X18705658Y-14879174D01*
X18705658Y-14879174D02*
X18724705Y-14869650D01*
X18724705Y-14869650D02*
X18753277Y-14869650D01*
X18753277Y-14869650D02*
X18772325Y-14879174D01*
X18772325Y-14879174D02*
X18781848Y-14898222D01*
X18781848Y-14898222D02*
X18781848Y-15002984D01*
X18877086Y-15002984D02*
X18877086Y-14869650D01*
X18877086Y-14888698D02*
X18886610Y-14879174D01*
X18886610Y-14879174D02*
X18905658Y-14869650D01*
X18905658Y-14869650D02*
X18934229Y-14869650D01*
X18934229Y-14869650D02*
X18953277Y-14879174D01*
X18953277Y-14879174D02*
X18962801Y-14898222D01*
X18962801Y-14898222D02*
X18962801Y-15002984D01*
X18962801Y-14898222D02*
X18972325Y-14879174D01*
X18972325Y-14879174D02*
X18991372Y-14869650D01*
X18991372Y-14869650D02*
X19019944Y-14869650D01*
X19019944Y-14869650D02*
X19038991Y-14879174D01*
X19038991Y-14879174D02*
X19048515Y-14898222D01*
X19048515Y-14898222D02*
X19048515Y-15002984D01*
X19438991Y-14793460D02*
X19267563Y-15050603D01*
X19696134Y-14802984D02*
X19715182Y-14802984D01*
X19715182Y-14802984D02*
X19734229Y-14812508D01*
X19734229Y-14812508D02*
X19743753Y-14822031D01*
X19743753Y-14822031D02*
X19753277Y-14841079D01*
X19753277Y-14841079D02*
X19762801Y-14879174D01*
X19762801Y-14879174D02*
X19762801Y-14926793D01*
X19762801Y-14926793D02*
X19753277Y-14964888D01*
X19753277Y-14964888D02*
X19743753Y-14983936D01*
X19743753Y-14983936D02*
X19734229Y-14993460D01*
X19734229Y-14993460D02*
X19715182Y-15002984D01*
X19715182Y-15002984D02*
X19696134Y-15002984D01*
X19696134Y-15002984D02*
X19677087Y-14993460D01*
X19677087Y-14993460D02*
X19667563Y-14983936D01*
X19667563Y-14983936D02*
X19658039Y-14964888D01*
X19658039Y-14964888D02*
X19648515Y-14926793D01*
X19648515Y-14926793D02*
X19648515Y-14879174D01*
X19648515Y-14879174D02*
X19658039Y-14841079D01*
X19658039Y-14841079D02*
X19667563Y-14822031D01*
X19667563Y-14822031D02*
X19677087Y-14812508D01*
X19677087Y-14812508D02*
X19696134Y-14802984D01*
X19848515Y-14983936D02*
X19858039Y-14993460D01*
X19858039Y-14993460D02*
X19848515Y-15002984D01*
X19848515Y-15002984D02*
X19838991Y-14993460D01*
X19838991Y-14993460D02*
X19848515Y-14983936D01*
X19848515Y-14983936D02*
X19848515Y-15002984D01*
X19981848Y-14802984D02*
X20000896Y-14802984D01*
X20000896Y-14802984D02*
X20019944Y-14812508D01*
X20019944Y-14812508D02*
X20029468Y-14822031D01*
X20029468Y-14822031D02*
X20038991Y-14841079D01*
X20038991Y-14841079D02*
X20048515Y-14879174D01*
X20048515Y-14879174D02*
X20048515Y-14926793D01*
X20048515Y-14926793D02*
X20038991Y-14964888D01*
X20038991Y-14964888D02*
X20029468Y-14983936D01*
X20029468Y-14983936D02*
X20019944Y-14993460D01*
X20019944Y-14993460D02*
X20000896Y-15002984D01*
X20000896Y-15002984D02*
X19981848Y-15002984D01*
X19981848Y-15002984D02*
X19962801Y-14993460D01*
X19962801Y-14993460D02*
X19953277Y-14983936D01*
X19953277Y-14983936D02*
X19943753Y-14964888D01*
X19943753Y-14964888D02*
X19934229Y-14926793D01*
X19934229Y-14926793D02*
X19934229Y-14879174D01*
X19934229Y-14879174D02*
X19943753Y-14841079D01*
X19943753Y-14841079D02*
X19953277Y-14822031D01*
X19953277Y-14822031D02*
X19962801Y-14812508D01*
X19962801Y-14812508D02*
X19981848Y-14802984D01*
X20115182Y-14802984D02*
X20238991Y-14802984D01*
X20238991Y-14802984D02*
X20172325Y-14879174D01*
X20172325Y-14879174D02*
X20200896Y-14879174D01*
X20200896Y-14879174D02*
X20219944Y-14888698D01*
X20219944Y-14888698D02*
X20229468Y-14898222D01*
X20229468Y-14898222D02*
X20238991Y-14917269D01*
X20238991Y-14917269D02*
X20238991Y-14964888D01*
X20238991Y-14964888D02*
X20229468Y-14983936D01*
X20229468Y-14983936D02*
X20219944Y-14993460D01*
X20219944Y-14993460D02*
X20200896Y-15002984D01*
X20200896Y-15002984D02*
X20143753Y-15002984D01*
X20143753Y-15002984D02*
X20124706Y-14993460D01*
X20124706Y-14993460D02*
X20115182Y-14983936D01*
X20419944Y-14802984D02*
X20324706Y-14802984D01*
X20324706Y-14802984D02*
X20315182Y-14898222D01*
X20315182Y-14898222D02*
X20324706Y-14888698D01*
X20324706Y-14888698D02*
X20343753Y-14879174D01*
X20343753Y-14879174D02*
X20391372Y-14879174D01*
X20391372Y-14879174D02*
X20410420Y-14888698D01*
X20410420Y-14888698D02*
X20419944Y-14898222D01*
X20419944Y-14898222D02*
X20429468Y-14917269D01*
X20429468Y-14917269D02*
X20429468Y-14964888D01*
X20429468Y-14964888D02*
X20419944Y-14983936D01*
X20419944Y-14983936D02*
X20410420Y-14993460D01*
X20410420Y-14993460D02*
X20391372Y-15002984D01*
X20391372Y-15002984D02*
X20343753Y-15002984D01*
X20343753Y-15002984D02*
X20324706Y-14993460D01*
X20324706Y-14993460D02*
X20315182Y-14983936D01*
X20600896Y-14869650D02*
X20600896Y-15002984D01*
X20553277Y-14793460D02*
X20505658Y-14936317D01*
X20505658Y-14936317D02*
X20629468Y-14936317D01*
X20696134Y-14802984D02*
X20696134Y-14841079D01*
X20772325Y-14802984D02*
X20772325Y-14841079D01*
X21067563Y-15079174D02*
X21058039Y-15069650D01*
X21058039Y-15069650D02*
X21038991Y-15041079D01*
X21038991Y-15041079D02*
X21029468Y-15022031D01*
X21029468Y-15022031D02*
X21019944Y-14993460D01*
X21019944Y-14993460D02*
X21010420Y-14945841D01*
X21010420Y-14945841D02*
X21010420Y-14907746D01*
X21010420Y-14907746D02*
X21019944Y-14860127D01*
X21019944Y-14860127D02*
X21029468Y-14831555D01*
X21029468Y-14831555D02*
X21038991Y-14812508D01*
X21038991Y-14812508D02*
X21058039Y-14783936D01*
X21058039Y-14783936D02*
X21067563Y-14774412D01*
X21229468Y-14869650D02*
X21229468Y-15002984D01*
X21181849Y-14793460D02*
X21134230Y-14936317D01*
X21134230Y-14936317D02*
X21258039Y-14936317D01*
X21486611Y-15002984D02*
X21486611Y-14802984D01*
X21572325Y-15002984D02*
X21572325Y-14898222D01*
X21572325Y-14898222D02*
X21562801Y-14879174D01*
X21562801Y-14879174D02*
X21543753Y-14869650D01*
X21543753Y-14869650D02*
X21515182Y-14869650D01*
X21515182Y-14869650D02*
X21496134Y-14879174D01*
X21496134Y-14879174D02*
X21486611Y-14888698D01*
X21696134Y-15002984D02*
X21677087Y-14993460D01*
X21677087Y-14993460D02*
X21667563Y-14983936D01*
X21667563Y-14983936D02*
X21658039Y-14964888D01*
X21658039Y-14964888D02*
X21658039Y-14907746D01*
X21658039Y-14907746D02*
X21667563Y-14888698D01*
X21667563Y-14888698D02*
X21677087Y-14879174D01*
X21677087Y-14879174D02*
X21696134Y-14869650D01*
X21696134Y-14869650D02*
X21724706Y-14869650D01*
X21724706Y-14869650D02*
X21743753Y-14879174D01*
X21743753Y-14879174D02*
X21753277Y-14888698D01*
X21753277Y-14888698D02*
X21762801Y-14907746D01*
X21762801Y-14907746D02*
X21762801Y-14964888D01*
X21762801Y-14964888D02*
X21753277Y-14983936D01*
X21753277Y-14983936D02*
X21743753Y-14993460D01*
X21743753Y-14993460D02*
X21724706Y-15002984D01*
X21724706Y-15002984D02*
X21696134Y-15002984D01*
X21877087Y-15002984D02*
X21858039Y-14993460D01*
X21858039Y-14993460D02*
X21848515Y-14974412D01*
X21848515Y-14974412D02*
X21848515Y-14802984D01*
X22029468Y-14993460D02*
X22010420Y-15002984D01*
X22010420Y-15002984D02*
X21972325Y-15002984D01*
X21972325Y-15002984D02*
X21953277Y-14993460D01*
X21953277Y-14993460D02*
X21943753Y-14974412D01*
X21943753Y-14974412D02*
X21943753Y-14898222D01*
X21943753Y-14898222D02*
X21953277Y-14879174D01*
X21953277Y-14879174D02*
X21972325Y-14869650D01*
X21972325Y-14869650D02*
X22010420Y-14869650D01*
X22010420Y-14869650D02*
X22029468Y-14879174D01*
X22029468Y-14879174D02*
X22038992Y-14898222D01*
X22038992Y-14898222D02*
X22038992Y-14917269D01*
X22038992Y-14917269D02*
X21943753Y-14936317D01*
X22115182Y-14993460D02*
X22134230Y-15002984D01*
X22134230Y-15002984D02*
X22172325Y-15002984D01*
X22172325Y-15002984D02*
X22191373Y-14993460D01*
X22191373Y-14993460D02*
X22200896Y-14974412D01*
X22200896Y-14974412D02*
X22200896Y-14964888D01*
X22200896Y-14964888D02*
X22191373Y-14945841D01*
X22191373Y-14945841D02*
X22172325Y-14936317D01*
X22172325Y-14936317D02*
X22143753Y-14936317D01*
X22143753Y-14936317D02*
X22124706Y-14926793D01*
X22124706Y-14926793D02*
X22115182Y-14907746D01*
X22115182Y-14907746D02*
X22115182Y-14898222D01*
X22115182Y-14898222D02*
X22124706Y-14879174D01*
X22124706Y-14879174D02*
X22143753Y-14869650D01*
X22143753Y-14869650D02*
X22172325Y-14869650D01*
X22172325Y-14869650D02*
X22191373Y-14879174D01*
X22267563Y-15079174D02*
X22277087Y-15069650D01*
X22277087Y-15069650D02*
X22296134Y-15041079D01*
X22296134Y-15041079D02*
X22305658Y-15022031D01*
X22305658Y-15022031D02*
X22315182Y-14993460D01*
X22315182Y-14993460D02*
X22324706Y-14945841D01*
X22324706Y-14945841D02*
X22324706Y-14907746D01*
X22324706Y-14907746D02*
X22315182Y-14860127D01*
X22315182Y-14860127D02*
X22305658Y-14831555D01*
X22305658Y-14831555D02*
X22296134Y-14812508D01*
X22296134Y-14812508D02*
X22277087Y-14783936D01*
X22277087Y-14783936D02*
X22267563Y-14774412D01*
X22629468Y-15079174D02*
X22619944Y-15069650D01*
X22619944Y-15069650D02*
X22600896Y-15041079D01*
X22600896Y-15041079D02*
X22591372Y-15022031D01*
X22591372Y-15022031D02*
X22581849Y-14993460D01*
X22581849Y-14993460D02*
X22572325Y-14945841D01*
X22572325Y-14945841D02*
X22572325Y-14907746D01*
X22572325Y-14907746D02*
X22581849Y-14860127D01*
X22581849Y-14860127D02*
X22591372Y-14831555D01*
X22591372Y-14831555D02*
X22600896Y-14812508D01*
X22600896Y-14812508D02*
X22619944Y-14783936D01*
X22619944Y-14783936D02*
X22629468Y-14774412D01*
X22705658Y-14869650D02*
X22705658Y-15002984D01*
X22705658Y-14888698D02*
X22715182Y-14879174D01*
X22715182Y-14879174D02*
X22734230Y-14869650D01*
X22734230Y-14869650D02*
X22762801Y-14869650D01*
X22762801Y-14869650D02*
X22781849Y-14879174D01*
X22781849Y-14879174D02*
X22791372Y-14898222D01*
X22791372Y-14898222D02*
X22791372Y-15002984D01*
X22915182Y-15002984D02*
X22896134Y-14993460D01*
X22896134Y-14993460D02*
X22886611Y-14983936D01*
X22886611Y-14983936D02*
X22877087Y-14964888D01*
X22877087Y-14964888D02*
X22877087Y-14907746D01*
X22877087Y-14907746D02*
X22886611Y-14888698D01*
X22886611Y-14888698D02*
X22896134Y-14879174D01*
X22896134Y-14879174D02*
X22915182Y-14869650D01*
X22915182Y-14869650D02*
X22943753Y-14869650D01*
X22943753Y-14869650D02*
X22962801Y-14879174D01*
X22962801Y-14879174D02*
X22972325Y-14888698D01*
X22972325Y-14888698D02*
X22981849Y-14907746D01*
X22981849Y-14907746D02*
X22981849Y-14964888D01*
X22981849Y-14964888D02*
X22972325Y-14983936D01*
X22972325Y-14983936D02*
X22962801Y-14993460D01*
X22962801Y-14993460D02*
X22943753Y-15002984D01*
X22943753Y-15002984D02*
X22915182Y-15002984D01*
X23038992Y-14869650D02*
X23115182Y-14869650D01*
X23067563Y-14802984D02*
X23067563Y-14974412D01*
X23067563Y-14974412D02*
X23077087Y-14993460D01*
X23077087Y-14993460D02*
X23096134Y-15002984D01*
X23096134Y-15002984D02*
X23115182Y-15002984D01*
X23334230Y-14869650D02*
X23334230Y-15069650D01*
X23334230Y-14879174D02*
X23353277Y-14869650D01*
X23353277Y-14869650D02*
X23391373Y-14869650D01*
X23391373Y-14869650D02*
X23410420Y-14879174D01*
X23410420Y-14879174D02*
X23419944Y-14888698D01*
X23419944Y-14888698D02*
X23429468Y-14907746D01*
X23429468Y-14907746D02*
X23429468Y-14964888D01*
X23429468Y-14964888D02*
X23419944Y-14983936D01*
X23419944Y-14983936D02*
X23410420Y-14993460D01*
X23410420Y-14993460D02*
X23391373Y-15002984D01*
X23391373Y-15002984D02*
X23353277Y-15002984D01*
X23353277Y-15002984D02*
X23334230Y-14993460D01*
X23543753Y-15002984D02*
X23524706Y-14993460D01*
X23524706Y-14993460D02*
X23515182Y-14974412D01*
X23515182Y-14974412D02*
X23515182Y-14802984D01*
X23705658Y-15002984D02*
X23705658Y-14898222D01*
X23705658Y-14898222D02*
X23696134Y-14879174D01*
X23696134Y-14879174D02*
X23677087Y-14869650D01*
X23677087Y-14869650D02*
X23638992Y-14869650D01*
X23638992Y-14869650D02*
X23619944Y-14879174D01*
X23705658Y-14993460D02*
X23686611Y-15002984D01*
X23686611Y-15002984D02*
X23638992Y-15002984D01*
X23638992Y-15002984D02*
X23619944Y-14993460D01*
X23619944Y-14993460D02*
X23610420Y-14974412D01*
X23610420Y-14974412D02*
X23610420Y-14955365D01*
X23610420Y-14955365D02*
X23619944Y-14936317D01*
X23619944Y-14936317D02*
X23638992Y-14926793D01*
X23638992Y-14926793D02*
X23686611Y-14926793D01*
X23686611Y-14926793D02*
X23705658Y-14917269D01*
X23772325Y-14869650D02*
X23848515Y-14869650D01*
X23800896Y-14802984D02*
X23800896Y-14974412D01*
X23800896Y-14974412D02*
X23810420Y-14993460D01*
X23810420Y-14993460D02*
X23829468Y-15002984D01*
X23829468Y-15002984D02*
X23848515Y-15002984D01*
X23991373Y-14993460D02*
X23972325Y-15002984D01*
X23972325Y-15002984D02*
X23934230Y-15002984D01*
X23934230Y-15002984D02*
X23915182Y-14993460D01*
X23915182Y-14993460D02*
X23905658Y-14974412D01*
X23905658Y-14974412D02*
X23905658Y-14898222D01*
X23905658Y-14898222D02*
X23915182Y-14879174D01*
X23915182Y-14879174D02*
X23934230Y-14869650D01*
X23934230Y-14869650D02*
X23972325Y-14869650D01*
X23972325Y-14869650D02*
X23991373Y-14879174D01*
X23991373Y-14879174D02*
X24000896Y-14898222D01*
X24000896Y-14898222D02*
X24000896Y-14917269D01*
X24000896Y-14917269D02*
X23905658Y-14936317D01*
X24172325Y-15002984D02*
X24172325Y-14802984D01*
X24172325Y-14993460D02*
X24153277Y-15002984D01*
X24153277Y-15002984D02*
X24115182Y-15002984D01*
X24115182Y-15002984D02*
X24096134Y-14993460D01*
X24096134Y-14993460D02*
X24086611Y-14983936D01*
X24086611Y-14983936D02*
X24077087Y-14964888D01*
X24077087Y-14964888D02*
X24077087Y-14907746D01*
X24077087Y-14907746D02*
X24086611Y-14888698D01*
X24086611Y-14888698D02*
X24096134Y-14879174D01*
X24096134Y-14879174D02*
X24115182Y-14869650D01*
X24115182Y-14869650D02*
X24153277Y-14869650D01*
X24153277Y-14869650D02*
X24172325Y-14879174D01*
X24248515Y-15079174D02*
X24258039Y-15069650D01*
X24258039Y-15069650D02*
X24277087Y-15041079D01*
X24277087Y-15041079D02*
X24286611Y-15022031D01*
X24286611Y-15022031D02*
X24296134Y-14993460D01*
X24296134Y-14993460D02*
X24305658Y-14945841D01*
X24305658Y-14945841D02*
X24305658Y-14907746D01*
X24305658Y-14907746D02*
X24296134Y-14860127D01*
X24296134Y-14860127D02*
X24286611Y-14831555D01*
X24286611Y-14831555D02*
X24277087Y-14812508D01*
X24277087Y-14812508D02*
X24258039Y-14783936D01*
X24258039Y-14783936D02*
X24248515Y-14774412D01*
D14*
X17402500Y-15085500D02*
X17402500Y-15265500D01*
X17312500Y-15175500D02*
X17492500Y-15175500D01*
D11*
X17858039Y-15266984D02*
X17743753Y-15266984D01*
X17800896Y-15266984D02*
X17800896Y-15066984D01*
X17800896Y-15066984D02*
X17781848Y-15095555D01*
X17781848Y-15095555D02*
X17762801Y-15114603D01*
X17762801Y-15114603D02*
X17743753Y-15124127D01*
X17943753Y-15247936D02*
X17953277Y-15257460D01*
X17953277Y-15257460D02*
X17943753Y-15266984D01*
X17943753Y-15266984D02*
X17934229Y-15257460D01*
X17934229Y-15257460D02*
X17943753Y-15247936D01*
X17943753Y-15247936D02*
X17943753Y-15266984D01*
X18067563Y-15152698D02*
X18048515Y-15143174D01*
X18048515Y-15143174D02*
X18038991Y-15133650D01*
X18038991Y-15133650D02*
X18029467Y-15114603D01*
X18029467Y-15114603D02*
X18029467Y-15105079D01*
X18029467Y-15105079D02*
X18038991Y-15086031D01*
X18038991Y-15086031D02*
X18048515Y-15076508D01*
X18048515Y-15076508D02*
X18067563Y-15066984D01*
X18067563Y-15066984D02*
X18105658Y-15066984D01*
X18105658Y-15066984D02*
X18124705Y-15076508D01*
X18124705Y-15076508D02*
X18134229Y-15086031D01*
X18134229Y-15086031D02*
X18143753Y-15105079D01*
X18143753Y-15105079D02*
X18143753Y-15114603D01*
X18143753Y-15114603D02*
X18134229Y-15133650D01*
X18134229Y-15133650D02*
X18124705Y-15143174D01*
X18124705Y-15143174D02*
X18105658Y-15152698D01*
X18105658Y-15152698D02*
X18067563Y-15152698D01*
X18067563Y-15152698D02*
X18048515Y-15162222D01*
X18048515Y-15162222D02*
X18038991Y-15171746D01*
X18038991Y-15171746D02*
X18029467Y-15190793D01*
X18029467Y-15190793D02*
X18029467Y-15228888D01*
X18029467Y-15228888D02*
X18038991Y-15247936D01*
X18038991Y-15247936D02*
X18048515Y-15257460D01*
X18048515Y-15257460D02*
X18067563Y-15266984D01*
X18067563Y-15266984D02*
X18105658Y-15266984D01*
X18105658Y-15266984D02*
X18124705Y-15257460D01*
X18124705Y-15257460D02*
X18134229Y-15247936D01*
X18134229Y-15247936D02*
X18143753Y-15228888D01*
X18143753Y-15228888D02*
X18143753Y-15190793D01*
X18143753Y-15190793D02*
X18134229Y-15171746D01*
X18134229Y-15171746D02*
X18124705Y-15162222D01*
X18124705Y-15162222D02*
X18105658Y-15152698D01*
X18267563Y-15066984D02*
X18286610Y-15066984D01*
X18286610Y-15066984D02*
X18305658Y-15076508D01*
X18305658Y-15076508D02*
X18315182Y-15086031D01*
X18315182Y-15086031D02*
X18324705Y-15105079D01*
X18324705Y-15105079D02*
X18334229Y-15143174D01*
X18334229Y-15143174D02*
X18334229Y-15190793D01*
X18334229Y-15190793D02*
X18324705Y-15228888D01*
X18324705Y-15228888D02*
X18315182Y-15247936D01*
X18315182Y-15247936D02*
X18305658Y-15257460D01*
X18305658Y-15257460D02*
X18286610Y-15266984D01*
X18286610Y-15266984D02*
X18267563Y-15266984D01*
X18267563Y-15266984D02*
X18248515Y-15257460D01*
X18248515Y-15257460D02*
X18238991Y-15247936D01*
X18238991Y-15247936D02*
X18229467Y-15228888D01*
X18229467Y-15228888D02*
X18219944Y-15190793D01*
X18219944Y-15190793D02*
X18219944Y-15143174D01*
X18219944Y-15143174D02*
X18229467Y-15105079D01*
X18229467Y-15105079D02*
X18238991Y-15086031D01*
X18238991Y-15086031D02*
X18248515Y-15076508D01*
X18248515Y-15076508D02*
X18267563Y-15066984D01*
X18458039Y-15066984D02*
X18477086Y-15066984D01*
X18477086Y-15066984D02*
X18496134Y-15076508D01*
X18496134Y-15076508D02*
X18505658Y-15086031D01*
X18505658Y-15086031D02*
X18515182Y-15105079D01*
X18515182Y-15105079D02*
X18524705Y-15143174D01*
X18524705Y-15143174D02*
X18524705Y-15190793D01*
X18524705Y-15190793D02*
X18515182Y-15228888D01*
X18515182Y-15228888D02*
X18505658Y-15247936D01*
X18505658Y-15247936D02*
X18496134Y-15257460D01*
X18496134Y-15257460D02*
X18477086Y-15266984D01*
X18477086Y-15266984D02*
X18458039Y-15266984D01*
X18458039Y-15266984D02*
X18438991Y-15257460D01*
X18438991Y-15257460D02*
X18429467Y-15247936D01*
X18429467Y-15247936D02*
X18419944Y-15228888D01*
X18419944Y-15228888D02*
X18410420Y-15190793D01*
X18410420Y-15190793D02*
X18410420Y-15143174D01*
X18410420Y-15143174D02*
X18419944Y-15105079D01*
X18419944Y-15105079D02*
X18429467Y-15086031D01*
X18429467Y-15086031D02*
X18438991Y-15076508D01*
X18438991Y-15076508D02*
X18458039Y-15066984D01*
X18610420Y-15266984D02*
X18610420Y-15133650D01*
X18610420Y-15152698D02*
X18619944Y-15143174D01*
X18619944Y-15143174D02*
X18638991Y-15133650D01*
X18638991Y-15133650D02*
X18667563Y-15133650D01*
X18667563Y-15133650D02*
X18686610Y-15143174D01*
X18686610Y-15143174D02*
X18696134Y-15162222D01*
X18696134Y-15162222D02*
X18696134Y-15266984D01*
X18696134Y-15162222D02*
X18705658Y-15143174D01*
X18705658Y-15143174D02*
X18724705Y-15133650D01*
X18724705Y-15133650D02*
X18753277Y-15133650D01*
X18753277Y-15133650D02*
X18772325Y-15143174D01*
X18772325Y-15143174D02*
X18781848Y-15162222D01*
X18781848Y-15162222D02*
X18781848Y-15266984D01*
X18877086Y-15266984D02*
X18877086Y-15133650D01*
X18877086Y-15152698D02*
X18886610Y-15143174D01*
X18886610Y-15143174D02*
X18905658Y-15133650D01*
X18905658Y-15133650D02*
X18934229Y-15133650D01*
X18934229Y-15133650D02*
X18953277Y-15143174D01*
X18953277Y-15143174D02*
X18962801Y-15162222D01*
X18962801Y-15162222D02*
X18962801Y-15266984D01*
X18962801Y-15162222D02*
X18972325Y-15143174D01*
X18972325Y-15143174D02*
X18991372Y-15133650D01*
X18991372Y-15133650D02*
X19019944Y-15133650D01*
X19019944Y-15133650D02*
X19038991Y-15143174D01*
X19038991Y-15143174D02*
X19048515Y-15162222D01*
X19048515Y-15162222D02*
X19048515Y-15266984D01*
X19438991Y-15057460D02*
X19267563Y-15314603D01*
X19696134Y-15066984D02*
X19715182Y-15066984D01*
X19715182Y-15066984D02*
X19734229Y-15076508D01*
X19734229Y-15076508D02*
X19743753Y-15086031D01*
X19743753Y-15086031D02*
X19753277Y-15105079D01*
X19753277Y-15105079D02*
X19762801Y-15143174D01*
X19762801Y-15143174D02*
X19762801Y-15190793D01*
X19762801Y-15190793D02*
X19753277Y-15228888D01*
X19753277Y-15228888D02*
X19743753Y-15247936D01*
X19743753Y-15247936D02*
X19734229Y-15257460D01*
X19734229Y-15257460D02*
X19715182Y-15266984D01*
X19715182Y-15266984D02*
X19696134Y-15266984D01*
X19696134Y-15266984D02*
X19677087Y-15257460D01*
X19677087Y-15257460D02*
X19667563Y-15247936D01*
X19667563Y-15247936D02*
X19658039Y-15228888D01*
X19658039Y-15228888D02*
X19648515Y-15190793D01*
X19648515Y-15190793D02*
X19648515Y-15143174D01*
X19648515Y-15143174D02*
X19658039Y-15105079D01*
X19658039Y-15105079D02*
X19667563Y-15086031D01*
X19667563Y-15086031D02*
X19677087Y-15076508D01*
X19677087Y-15076508D02*
X19696134Y-15066984D01*
X19848515Y-15247936D02*
X19858039Y-15257460D01*
X19858039Y-15257460D02*
X19848515Y-15266984D01*
X19848515Y-15266984D02*
X19838991Y-15257460D01*
X19838991Y-15257460D02*
X19848515Y-15247936D01*
X19848515Y-15247936D02*
X19848515Y-15266984D01*
X19981848Y-15066984D02*
X20000896Y-15066984D01*
X20000896Y-15066984D02*
X20019944Y-15076508D01*
X20019944Y-15076508D02*
X20029468Y-15086031D01*
X20029468Y-15086031D02*
X20038991Y-15105079D01*
X20038991Y-15105079D02*
X20048515Y-15143174D01*
X20048515Y-15143174D02*
X20048515Y-15190793D01*
X20048515Y-15190793D02*
X20038991Y-15228888D01*
X20038991Y-15228888D02*
X20029468Y-15247936D01*
X20029468Y-15247936D02*
X20019944Y-15257460D01*
X20019944Y-15257460D02*
X20000896Y-15266984D01*
X20000896Y-15266984D02*
X19981848Y-15266984D01*
X19981848Y-15266984D02*
X19962801Y-15257460D01*
X19962801Y-15257460D02*
X19953277Y-15247936D01*
X19953277Y-15247936D02*
X19943753Y-15228888D01*
X19943753Y-15228888D02*
X19934229Y-15190793D01*
X19934229Y-15190793D02*
X19934229Y-15143174D01*
X19934229Y-15143174D02*
X19943753Y-15105079D01*
X19943753Y-15105079D02*
X19953277Y-15086031D01*
X19953277Y-15086031D02*
X19962801Y-15076508D01*
X19962801Y-15076508D02*
X19981848Y-15066984D01*
X20115182Y-15066984D02*
X20248515Y-15066984D01*
X20248515Y-15066984D02*
X20162801Y-15266984D01*
X20362801Y-15066984D02*
X20381849Y-15066984D01*
X20381849Y-15066984D02*
X20400896Y-15076508D01*
X20400896Y-15076508D02*
X20410420Y-15086031D01*
X20410420Y-15086031D02*
X20419944Y-15105079D01*
X20419944Y-15105079D02*
X20429468Y-15143174D01*
X20429468Y-15143174D02*
X20429468Y-15190793D01*
X20429468Y-15190793D02*
X20419944Y-15228888D01*
X20419944Y-15228888D02*
X20410420Y-15247936D01*
X20410420Y-15247936D02*
X20400896Y-15257460D01*
X20400896Y-15257460D02*
X20381849Y-15266984D01*
X20381849Y-15266984D02*
X20362801Y-15266984D01*
X20362801Y-15266984D02*
X20343753Y-15257460D01*
X20343753Y-15257460D02*
X20334229Y-15247936D01*
X20334229Y-15247936D02*
X20324706Y-15228888D01*
X20324706Y-15228888D02*
X20315182Y-15190793D01*
X20315182Y-15190793D02*
X20315182Y-15143174D01*
X20315182Y-15143174D02*
X20324706Y-15105079D01*
X20324706Y-15105079D02*
X20334229Y-15086031D01*
X20334229Y-15086031D02*
X20343753Y-15076508D01*
X20343753Y-15076508D02*
X20362801Y-15066984D01*
X20524706Y-15266984D02*
X20562801Y-15266984D01*
X20562801Y-15266984D02*
X20581849Y-15257460D01*
X20581849Y-15257460D02*
X20591372Y-15247936D01*
X20591372Y-15247936D02*
X20610420Y-15219365D01*
X20610420Y-15219365D02*
X20619944Y-15181269D01*
X20619944Y-15181269D02*
X20619944Y-15105079D01*
X20619944Y-15105079D02*
X20610420Y-15086031D01*
X20610420Y-15086031D02*
X20600896Y-15076508D01*
X20600896Y-15076508D02*
X20581849Y-15066984D01*
X20581849Y-15066984D02*
X20543753Y-15066984D01*
X20543753Y-15066984D02*
X20524706Y-15076508D01*
X20524706Y-15076508D02*
X20515182Y-15086031D01*
X20515182Y-15086031D02*
X20505658Y-15105079D01*
X20505658Y-15105079D02*
X20505658Y-15152698D01*
X20505658Y-15152698D02*
X20515182Y-15171746D01*
X20515182Y-15171746D02*
X20524706Y-15181269D01*
X20524706Y-15181269D02*
X20543753Y-15190793D01*
X20543753Y-15190793D02*
X20581849Y-15190793D01*
X20581849Y-15190793D02*
X20600896Y-15181269D01*
X20600896Y-15181269D02*
X20610420Y-15171746D01*
X20610420Y-15171746D02*
X20619944Y-15152698D01*
X20696134Y-15066984D02*
X20696134Y-15105079D01*
X20772325Y-15066984D02*
X20772325Y-15105079D01*
X21067563Y-15343174D02*
X21058039Y-15333650D01*
X21058039Y-15333650D02*
X21038991Y-15305079D01*
X21038991Y-15305079D02*
X21029468Y-15286031D01*
X21029468Y-15286031D02*
X21019944Y-15257460D01*
X21019944Y-15257460D02*
X21010420Y-15209841D01*
X21010420Y-15209841D02*
X21010420Y-15171746D01*
X21010420Y-15171746D02*
X21019944Y-15124127D01*
X21019944Y-15124127D02*
X21029468Y-15095555D01*
X21029468Y-15095555D02*
X21038991Y-15076508D01*
X21038991Y-15076508D02*
X21058039Y-15047936D01*
X21058039Y-15047936D02*
X21067563Y-15038412D01*
X21229468Y-15133650D02*
X21229468Y-15266984D01*
X21181849Y-15057460D02*
X21134230Y-15200317D01*
X21134230Y-15200317D02*
X21258039Y-15200317D01*
X21486611Y-15266984D02*
X21486611Y-15066984D01*
X21572325Y-15266984D02*
X21572325Y-15162222D01*
X21572325Y-15162222D02*
X21562801Y-15143174D01*
X21562801Y-15143174D02*
X21543753Y-15133650D01*
X21543753Y-15133650D02*
X21515182Y-15133650D01*
X21515182Y-15133650D02*
X21496134Y-15143174D01*
X21496134Y-15143174D02*
X21486611Y-15152698D01*
X21696134Y-15266984D02*
X21677087Y-15257460D01*
X21677087Y-15257460D02*
X21667563Y-15247936D01*
X21667563Y-15247936D02*
X21658039Y-15228888D01*
X21658039Y-15228888D02*
X21658039Y-15171746D01*
X21658039Y-15171746D02*
X21667563Y-15152698D01*
X21667563Y-15152698D02*
X21677087Y-15143174D01*
X21677087Y-15143174D02*
X21696134Y-15133650D01*
X21696134Y-15133650D02*
X21724706Y-15133650D01*
X21724706Y-15133650D02*
X21743753Y-15143174D01*
X21743753Y-15143174D02*
X21753277Y-15152698D01*
X21753277Y-15152698D02*
X21762801Y-15171746D01*
X21762801Y-15171746D02*
X21762801Y-15228888D01*
X21762801Y-15228888D02*
X21753277Y-15247936D01*
X21753277Y-15247936D02*
X21743753Y-15257460D01*
X21743753Y-15257460D02*
X21724706Y-15266984D01*
X21724706Y-15266984D02*
X21696134Y-15266984D01*
X21877087Y-15266984D02*
X21858039Y-15257460D01*
X21858039Y-15257460D02*
X21848515Y-15238412D01*
X21848515Y-15238412D02*
X21848515Y-15066984D01*
X22029468Y-15257460D02*
X22010420Y-15266984D01*
X22010420Y-15266984D02*
X21972325Y-15266984D01*
X21972325Y-15266984D02*
X21953277Y-15257460D01*
X21953277Y-15257460D02*
X21943753Y-15238412D01*
X21943753Y-15238412D02*
X21943753Y-15162222D01*
X21943753Y-15162222D02*
X21953277Y-15143174D01*
X21953277Y-15143174D02*
X21972325Y-15133650D01*
X21972325Y-15133650D02*
X22010420Y-15133650D01*
X22010420Y-15133650D02*
X22029468Y-15143174D01*
X22029468Y-15143174D02*
X22038992Y-15162222D01*
X22038992Y-15162222D02*
X22038992Y-15181269D01*
X22038992Y-15181269D02*
X21943753Y-15200317D01*
X22115182Y-15257460D02*
X22134230Y-15266984D01*
X22134230Y-15266984D02*
X22172325Y-15266984D01*
X22172325Y-15266984D02*
X22191373Y-15257460D01*
X22191373Y-15257460D02*
X22200896Y-15238412D01*
X22200896Y-15238412D02*
X22200896Y-15228888D01*
X22200896Y-15228888D02*
X22191373Y-15209841D01*
X22191373Y-15209841D02*
X22172325Y-15200317D01*
X22172325Y-15200317D02*
X22143753Y-15200317D01*
X22143753Y-15200317D02*
X22124706Y-15190793D01*
X22124706Y-15190793D02*
X22115182Y-15171746D01*
X22115182Y-15171746D02*
X22115182Y-15162222D01*
X22115182Y-15162222D02*
X22124706Y-15143174D01*
X22124706Y-15143174D02*
X22143753Y-15133650D01*
X22143753Y-15133650D02*
X22172325Y-15133650D01*
X22172325Y-15133650D02*
X22191373Y-15143174D01*
X22267563Y-15343174D02*
X22277087Y-15333650D01*
X22277087Y-15333650D02*
X22296134Y-15305079D01*
X22296134Y-15305079D02*
X22305658Y-15286031D01*
X22305658Y-15286031D02*
X22315182Y-15257460D01*
X22315182Y-15257460D02*
X22324706Y-15209841D01*
X22324706Y-15209841D02*
X22324706Y-15171746D01*
X22324706Y-15171746D02*
X22315182Y-15124127D01*
X22315182Y-15124127D02*
X22305658Y-15095555D01*
X22305658Y-15095555D02*
X22296134Y-15076508D01*
X22296134Y-15076508D02*
X22277087Y-15047936D01*
X22277087Y-15047936D02*
X22267563Y-15038412D01*
X22629468Y-15343174D02*
X22619944Y-15333650D01*
X22619944Y-15333650D02*
X22600896Y-15305079D01*
X22600896Y-15305079D02*
X22591372Y-15286031D01*
X22591372Y-15286031D02*
X22581849Y-15257460D01*
X22581849Y-15257460D02*
X22572325Y-15209841D01*
X22572325Y-15209841D02*
X22572325Y-15171746D01*
X22572325Y-15171746D02*
X22581849Y-15124127D01*
X22581849Y-15124127D02*
X22591372Y-15095555D01*
X22591372Y-15095555D02*
X22600896Y-15076508D01*
X22600896Y-15076508D02*
X22619944Y-15047936D01*
X22619944Y-15047936D02*
X22629468Y-15038412D01*
X22705658Y-15133650D02*
X22705658Y-15266984D01*
X22705658Y-15152698D02*
X22715182Y-15143174D01*
X22715182Y-15143174D02*
X22734230Y-15133650D01*
X22734230Y-15133650D02*
X22762801Y-15133650D01*
X22762801Y-15133650D02*
X22781849Y-15143174D01*
X22781849Y-15143174D02*
X22791372Y-15162222D01*
X22791372Y-15162222D02*
X22791372Y-15266984D01*
X22915182Y-15266984D02*
X22896134Y-15257460D01*
X22896134Y-15257460D02*
X22886611Y-15247936D01*
X22886611Y-15247936D02*
X22877087Y-15228888D01*
X22877087Y-15228888D02*
X22877087Y-15171746D01*
X22877087Y-15171746D02*
X22886611Y-15152698D01*
X22886611Y-15152698D02*
X22896134Y-15143174D01*
X22896134Y-15143174D02*
X22915182Y-15133650D01*
X22915182Y-15133650D02*
X22943753Y-15133650D01*
X22943753Y-15133650D02*
X22962801Y-15143174D01*
X22962801Y-15143174D02*
X22972325Y-15152698D01*
X22972325Y-15152698D02*
X22981849Y-15171746D01*
X22981849Y-15171746D02*
X22981849Y-15228888D01*
X22981849Y-15228888D02*
X22972325Y-15247936D01*
X22972325Y-15247936D02*
X22962801Y-15257460D01*
X22962801Y-15257460D02*
X22943753Y-15266984D01*
X22943753Y-15266984D02*
X22915182Y-15266984D01*
X23038992Y-15133650D02*
X23115182Y-15133650D01*
X23067563Y-15066984D02*
X23067563Y-15238412D01*
X23067563Y-15238412D02*
X23077087Y-15257460D01*
X23077087Y-15257460D02*
X23096134Y-15266984D01*
X23096134Y-15266984D02*
X23115182Y-15266984D01*
X23334230Y-15133650D02*
X23334230Y-15333650D01*
X23334230Y-15143174D02*
X23353277Y-15133650D01*
X23353277Y-15133650D02*
X23391373Y-15133650D01*
X23391373Y-15133650D02*
X23410420Y-15143174D01*
X23410420Y-15143174D02*
X23419944Y-15152698D01*
X23419944Y-15152698D02*
X23429468Y-15171746D01*
X23429468Y-15171746D02*
X23429468Y-15228888D01*
X23429468Y-15228888D02*
X23419944Y-15247936D01*
X23419944Y-15247936D02*
X23410420Y-15257460D01*
X23410420Y-15257460D02*
X23391373Y-15266984D01*
X23391373Y-15266984D02*
X23353277Y-15266984D01*
X23353277Y-15266984D02*
X23334230Y-15257460D01*
X23543753Y-15266984D02*
X23524706Y-15257460D01*
X23524706Y-15257460D02*
X23515182Y-15238412D01*
X23515182Y-15238412D02*
X23515182Y-15066984D01*
X23705658Y-15266984D02*
X23705658Y-15162222D01*
X23705658Y-15162222D02*
X23696134Y-15143174D01*
X23696134Y-15143174D02*
X23677087Y-15133650D01*
X23677087Y-15133650D02*
X23638992Y-15133650D01*
X23638992Y-15133650D02*
X23619944Y-15143174D01*
X23705658Y-15257460D02*
X23686611Y-15266984D01*
X23686611Y-15266984D02*
X23638992Y-15266984D01*
X23638992Y-15266984D02*
X23619944Y-15257460D01*
X23619944Y-15257460D02*
X23610420Y-15238412D01*
X23610420Y-15238412D02*
X23610420Y-15219365D01*
X23610420Y-15219365D02*
X23619944Y-15200317D01*
X23619944Y-15200317D02*
X23638992Y-15190793D01*
X23638992Y-15190793D02*
X23686611Y-15190793D01*
X23686611Y-15190793D02*
X23705658Y-15181269D01*
X23772325Y-15133650D02*
X23848515Y-15133650D01*
X23800896Y-15066984D02*
X23800896Y-15238412D01*
X23800896Y-15238412D02*
X23810420Y-15257460D01*
X23810420Y-15257460D02*
X23829468Y-15266984D01*
X23829468Y-15266984D02*
X23848515Y-15266984D01*
X23991373Y-15257460D02*
X23972325Y-15266984D01*
X23972325Y-15266984D02*
X23934230Y-15266984D01*
X23934230Y-15266984D02*
X23915182Y-15257460D01*
X23915182Y-15257460D02*
X23905658Y-15238412D01*
X23905658Y-15238412D02*
X23905658Y-15162222D01*
X23905658Y-15162222D02*
X23915182Y-15143174D01*
X23915182Y-15143174D02*
X23934230Y-15133650D01*
X23934230Y-15133650D02*
X23972325Y-15133650D01*
X23972325Y-15133650D02*
X23991373Y-15143174D01*
X23991373Y-15143174D02*
X24000896Y-15162222D01*
X24000896Y-15162222D02*
X24000896Y-15181269D01*
X24000896Y-15181269D02*
X23905658Y-15200317D01*
X24172325Y-15266984D02*
X24172325Y-15066984D01*
X24172325Y-15257460D02*
X24153277Y-15266984D01*
X24153277Y-15266984D02*
X24115182Y-15266984D01*
X24115182Y-15266984D02*
X24096134Y-15257460D01*
X24096134Y-15257460D02*
X24086611Y-15247936D01*
X24086611Y-15247936D02*
X24077087Y-15228888D01*
X24077087Y-15228888D02*
X24077087Y-15171746D01*
X24077087Y-15171746D02*
X24086611Y-15152698D01*
X24086611Y-15152698D02*
X24096134Y-15143174D01*
X24096134Y-15143174D02*
X24115182Y-15133650D01*
X24115182Y-15133650D02*
X24153277Y-15133650D01*
X24153277Y-15133650D02*
X24172325Y-15143174D01*
X24248515Y-15343174D02*
X24258039Y-15333650D01*
X24258039Y-15333650D02*
X24277087Y-15305079D01*
X24277087Y-15305079D02*
X24286611Y-15286031D01*
X24286611Y-15286031D02*
X24296134Y-15257460D01*
X24296134Y-15257460D02*
X24305658Y-15209841D01*
X24305658Y-15209841D02*
X24305658Y-15171746D01*
X24305658Y-15171746D02*
X24296134Y-15124127D01*
X24296134Y-15124127D02*
X24286611Y-15095555D01*
X24286611Y-15095555D02*
X24277087Y-15076508D01*
X24277087Y-15076508D02*
X24258039Y-15047936D01*
X24258039Y-15047936D02*
X24248515Y-15038412D01*
X17463211Y-15546211D02*
X17463211Y-15404789D01*
X17321789Y-15404789D01*
X17321789Y-15546211D01*
X17463211Y-15546211D01*
X17743753Y-15386031D02*
X17753277Y-15376508D01*
X17753277Y-15376508D02*
X17772324Y-15366984D01*
X17772324Y-15366984D02*
X17819944Y-15366984D01*
X17819944Y-15366984D02*
X17838991Y-15376508D01*
X17838991Y-15376508D02*
X17848515Y-15386031D01*
X17848515Y-15386031D02*
X17858039Y-15405079D01*
X17858039Y-15405079D02*
X17858039Y-15424127D01*
X17858039Y-15424127D02*
X17848515Y-15452698D01*
X17848515Y-15452698D02*
X17734229Y-15566984D01*
X17734229Y-15566984D02*
X17858039Y-15566984D01*
X17943753Y-15547936D02*
X17953277Y-15557460D01*
X17953277Y-15557460D02*
X17943753Y-15566984D01*
X17943753Y-15566984D02*
X17934229Y-15557460D01*
X17934229Y-15557460D02*
X17943753Y-15547936D01*
X17943753Y-15547936D02*
X17943753Y-15566984D01*
X18134229Y-15366984D02*
X18038991Y-15366984D01*
X18038991Y-15366984D02*
X18029467Y-15462222D01*
X18029467Y-15462222D02*
X18038991Y-15452698D01*
X18038991Y-15452698D02*
X18058039Y-15443174D01*
X18058039Y-15443174D02*
X18105658Y-15443174D01*
X18105658Y-15443174D02*
X18124705Y-15452698D01*
X18124705Y-15452698D02*
X18134229Y-15462222D01*
X18134229Y-15462222D02*
X18143753Y-15481269D01*
X18143753Y-15481269D02*
X18143753Y-15528888D01*
X18143753Y-15528888D02*
X18134229Y-15547936D01*
X18134229Y-15547936D02*
X18124705Y-15557460D01*
X18124705Y-15557460D02*
X18105658Y-15566984D01*
X18105658Y-15566984D02*
X18058039Y-15566984D01*
X18058039Y-15566984D02*
X18038991Y-15557460D01*
X18038991Y-15557460D02*
X18029467Y-15547936D01*
X18267563Y-15366984D02*
X18286610Y-15366984D01*
X18286610Y-15366984D02*
X18305658Y-15376508D01*
X18305658Y-15376508D02*
X18315182Y-15386031D01*
X18315182Y-15386031D02*
X18324705Y-15405079D01*
X18324705Y-15405079D02*
X18334229Y-15443174D01*
X18334229Y-15443174D02*
X18334229Y-15490793D01*
X18334229Y-15490793D02*
X18324705Y-15528888D01*
X18324705Y-15528888D02*
X18315182Y-15547936D01*
X18315182Y-15547936D02*
X18305658Y-15557460D01*
X18305658Y-15557460D02*
X18286610Y-15566984D01*
X18286610Y-15566984D02*
X18267563Y-15566984D01*
X18267563Y-15566984D02*
X18248515Y-15557460D01*
X18248515Y-15557460D02*
X18238991Y-15547936D01*
X18238991Y-15547936D02*
X18229467Y-15528888D01*
X18229467Y-15528888D02*
X18219944Y-15490793D01*
X18219944Y-15490793D02*
X18219944Y-15443174D01*
X18219944Y-15443174D02*
X18229467Y-15405079D01*
X18229467Y-15405079D02*
X18238991Y-15386031D01*
X18238991Y-15386031D02*
X18248515Y-15376508D01*
X18248515Y-15376508D02*
X18267563Y-15366984D01*
X18458039Y-15366984D02*
X18477086Y-15366984D01*
X18477086Y-15366984D02*
X18496134Y-15376508D01*
X18496134Y-15376508D02*
X18505658Y-15386031D01*
X18505658Y-15386031D02*
X18515182Y-15405079D01*
X18515182Y-15405079D02*
X18524705Y-15443174D01*
X18524705Y-15443174D02*
X18524705Y-15490793D01*
X18524705Y-15490793D02*
X18515182Y-15528888D01*
X18515182Y-15528888D02*
X18505658Y-15547936D01*
X18505658Y-15547936D02*
X18496134Y-15557460D01*
X18496134Y-15557460D02*
X18477086Y-15566984D01*
X18477086Y-15566984D02*
X18458039Y-15566984D01*
X18458039Y-15566984D02*
X18438991Y-15557460D01*
X18438991Y-15557460D02*
X18429467Y-15547936D01*
X18429467Y-15547936D02*
X18419944Y-15528888D01*
X18419944Y-15528888D02*
X18410420Y-15490793D01*
X18410420Y-15490793D02*
X18410420Y-15443174D01*
X18410420Y-15443174D02*
X18419944Y-15405079D01*
X18419944Y-15405079D02*
X18429467Y-15386031D01*
X18429467Y-15386031D02*
X18438991Y-15376508D01*
X18438991Y-15376508D02*
X18458039Y-15366984D01*
X18610420Y-15566984D02*
X18610420Y-15433650D01*
X18610420Y-15452698D02*
X18619944Y-15443174D01*
X18619944Y-15443174D02*
X18638991Y-15433650D01*
X18638991Y-15433650D02*
X18667563Y-15433650D01*
X18667563Y-15433650D02*
X18686610Y-15443174D01*
X18686610Y-15443174D02*
X18696134Y-15462222D01*
X18696134Y-15462222D02*
X18696134Y-15566984D01*
X18696134Y-15462222D02*
X18705658Y-15443174D01*
X18705658Y-15443174D02*
X18724705Y-15433650D01*
X18724705Y-15433650D02*
X18753277Y-15433650D01*
X18753277Y-15433650D02*
X18772325Y-15443174D01*
X18772325Y-15443174D02*
X18781848Y-15462222D01*
X18781848Y-15462222D02*
X18781848Y-15566984D01*
X18877086Y-15566984D02*
X18877086Y-15433650D01*
X18877086Y-15452698D02*
X18886610Y-15443174D01*
X18886610Y-15443174D02*
X18905658Y-15433650D01*
X18905658Y-15433650D02*
X18934229Y-15433650D01*
X18934229Y-15433650D02*
X18953277Y-15443174D01*
X18953277Y-15443174D02*
X18962801Y-15462222D01*
X18962801Y-15462222D02*
X18962801Y-15566984D01*
X18962801Y-15462222D02*
X18972325Y-15443174D01*
X18972325Y-15443174D02*
X18991372Y-15433650D01*
X18991372Y-15433650D02*
X19019944Y-15433650D01*
X19019944Y-15433650D02*
X19038991Y-15443174D01*
X19038991Y-15443174D02*
X19048515Y-15462222D01*
X19048515Y-15462222D02*
X19048515Y-15566984D01*
X19438991Y-15357460D02*
X19267563Y-15614603D01*
X19696134Y-15366984D02*
X19715182Y-15366984D01*
X19715182Y-15366984D02*
X19734229Y-15376508D01*
X19734229Y-15376508D02*
X19743753Y-15386031D01*
X19743753Y-15386031D02*
X19753277Y-15405079D01*
X19753277Y-15405079D02*
X19762801Y-15443174D01*
X19762801Y-15443174D02*
X19762801Y-15490793D01*
X19762801Y-15490793D02*
X19753277Y-15528888D01*
X19753277Y-15528888D02*
X19743753Y-15547936D01*
X19743753Y-15547936D02*
X19734229Y-15557460D01*
X19734229Y-15557460D02*
X19715182Y-15566984D01*
X19715182Y-15566984D02*
X19696134Y-15566984D01*
X19696134Y-15566984D02*
X19677087Y-15557460D01*
X19677087Y-15557460D02*
X19667563Y-15547936D01*
X19667563Y-15547936D02*
X19658039Y-15528888D01*
X19658039Y-15528888D02*
X19648515Y-15490793D01*
X19648515Y-15490793D02*
X19648515Y-15443174D01*
X19648515Y-15443174D02*
X19658039Y-15405079D01*
X19658039Y-15405079D02*
X19667563Y-15386031D01*
X19667563Y-15386031D02*
X19677087Y-15376508D01*
X19677087Y-15376508D02*
X19696134Y-15366984D01*
X19848515Y-15547936D02*
X19858039Y-15557460D01*
X19858039Y-15557460D02*
X19848515Y-15566984D01*
X19848515Y-15566984D02*
X19838991Y-15557460D01*
X19838991Y-15557460D02*
X19848515Y-15547936D01*
X19848515Y-15547936D02*
X19848515Y-15566984D01*
X19981848Y-15366984D02*
X20000896Y-15366984D01*
X20000896Y-15366984D02*
X20019944Y-15376508D01*
X20019944Y-15376508D02*
X20029468Y-15386031D01*
X20029468Y-15386031D02*
X20038991Y-15405079D01*
X20038991Y-15405079D02*
X20048515Y-15443174D01*
X20048515Y-15443174D02*
X20048515Y-15490793D01*
X20048515Y-15490793D02*
X20038991Y-15528888D01*
X20038991Y-15528888D02*
X20029468Y-15547936D01*
X20029468Y-15547936D02*
X20019944Y-15557460D01*
X20019944Y-15557460D02*
X20000896Y-15566984D01*
X20000896Y-15566984D02*
X19981848Y-15566984D01*
X19981848Y-15566984D02*
X19962801Y-15557460D01*
X19962801Y-15557460D02*
X19953277Y-15547936D01*
X19953277Y-15547936D02*
X19943753Y-15528888D01*
X19943753Y-15528888D02*
X19934229Y-15490793D01*
X19934229Y-15490793D02*
X19934229Y-15443174D01*
X19934229Y-15443174D02*
X19943753Y-15405079D01*
X19943753Y-15405079D02*
X19953277Y-15386031D01*
X19953277Y-15386031D02*
X19962801Y-15376508D01*
X19962801Y-15376508D02*
X19981848Y-15366984D01*
X20143753Y-15566984D02*
X20181848Y-15566984D01*
X20181848Y-15566984D02*
X20200896Y-15557460D01*
X20200896Y-15557460D02*
X20210420Y-15547936D01*
X20210420Y-15547936D02*
X20229468Y-15519365D01*
X20229468Y-15519365D02*
X20238991Y-15481269D01*
X20238991Y-15481269D02*
X20238991Y-15405079D01*
X20238991Y-15405079D02*
X20229468Y-15386031D01*
X20229468Y-15386031D02*
X20219944Y-15376508D01*
X20219944Y-15376508D02*
X20200896Y-15366984D01*
X20200896Y-15366984D02*
X20162801Y-15366984D01*
X20162801Y-15366984D02*
X20143753Y-15376508D01*
X20143753Y-15376508D02*
X20134229Y-15386031D01*
X20134229Y-15386031D02*
X20124706Y-15405079D01*
X20124706Y-15405079D02*
X20124706Y-15452698D01*
X20124706Y-15452698D02*
X20134229Y-15471746D01*
X20134229Y-15471746D02*
X20143753Y-15481269D01*
X20143753Y-15481269D02*
X20162801Y-15490793D01*
X20162801Y-15490793D02*
X20200896Y-15490793D01*
X20200896Y-15490793D02*
X20219944Y-15481269D01*
X20219944Y-15481269D02*
X20229468Y-15471746D01*
X20229468Y-15471746D02*
X20238991Y-15452698D01*
X20353277Y-15452698D02*
X20334229Y-15443174D01*
X20334229Y-15443174D02*
X20324706Y-15433650D01*
X20324706Y-15433650D02*
X20315182Y-15414603D01*
X20315182Y-15414603D02*
X20315182Y-15405079D01*
X20315182Y-15405079D02*
X20324706Y-15386031D01*
X20324706Y-15386031D02*
X20334229Y-15376508D01*
X20334229Y-15376508D02*
X20353277Y-15366984D01*
X20353277Y-15366984D02*
X20391372Y-15366984D01*
X20391372Y-15366984D02*
X20410420Y-15376508D01*
X20410420Y-15376508D02*
X20419944Y-15386031D01*
X20419944Y-15386031D02*
X20429468Y-15405079D01*
X20429468Y-15405079D02*
X20429468Y-15414603D01*
X20429468Y-15414603D02*
X20419944Y-15433650D01*
X20419944Y-15433650D02*
X20410420Y-15443174D01*
X20410420Y-15443174D02*
X20391372Y-15452698D01*
X20391372Y-15452698D02*
X20353277Y-15452698D01*
X20353277Y-15452698D02*
X20334229Y-15462222D01*
X20334229Y-15462222D02*
X20324706Y-15471746D01*
X20324706Y-15471746D02*
X20315182Y-15490793D01*
X20315182Y-15490793D02*
X20315182Y-15528888D01*
X20315182Y-15528888D02*
X20324706Y-15547936D01*
X20324706Y-15547936D02*
X20334229Y-15557460D01*
X20334229Y-15557460D02*
X20353277Y-15566984D01*
X20353277Y-15566984D02*
X20391372Y-15566984D01*
X20391372Y-15566984D02*
X20410420Y-15557460D01*
X20410420Y-15557460D02*
X20419944Y-15547936D01*
X20419944Y-15547936D02*
X20429468Y-15528888D01*
X20429468Y-15528888D02*
X20429468Y-15490793D01*
X20429468Y-15490793D02*
X20419944Y-15471746D01*
X20419944Y-15471746D02*
X20410420Y-15462222D01*
X20410420Y-15462222D02*
X20391372Y-15452698D01*
X20600896Y-15433650D02*
X20600896Y-15566984D01*
X20553277Y-15357460D02*
X20505658Y-15500317D01*
X20505658Y-15500317D02*
X20629468Y-15500317D01*
X20696134Y-15366984D02*
X20696134Y-15405079D01*
X20772325Y-15366984D02*
X20772325Y-15405079D01*
X21067563Y-15643174D02*
X21058039Y-15633650D01*
X21058039Y-15633650D02*
X21038991Y-15605079D01*
X21038991Y-15605079D02*
X21029468Y-15586031D01*
X21029468Y-15586031D02*
X21019944Y-15557460D01*
X21019944Y-15557460D02*
X21010420Y-15509841D01*
X21010420Y-15509841D02*
X21010420Y-15471746D01*
X21010420Y-15471746D02*
X21019944Y-15424127D01*
X21019944Y-15424127D02*
X21029468Y-15395555D01*
X21029468Y-15395555D02*
X21038991Y-15376508D01*
X21038991Y-15376508D02*
X21058039Y-15347936D01*
X21058039Y-15347936D02*
X21067563Y-15338412D01*
X21229468Y-15433650D02*
X21229468Y-15566984D01*
X21181849Y-15357460D02*
X21134230Y-15500317D01*
X21134230Y-15500317D02*
X21258039Y-15500317D01*
X21486611Y-15566984D02*
X21486611Y-15366984D01*
X21572325Y-15566984D02*
X21572325Y-15462222D01*
X21572325Y-15462222D02*
X21562801Y-15443174D01*
X21562801Y-15443174D02*
X21543753Y-15433650D01*
X21543753Y-15433650D02*
X21515182Y-15433650D01*
X21515182Y-15433650D02*
X21496134Y-15443174D01*
X21496134Y-15443174D02*
X21486611Y-15452698D01*
X21696134Y-15566984D02*
X21677087Y-15557460D01*
X21677087Y-15557460D02*
X21667563Y-15547936D01*
X21667563Y-15547936D02*
X21658039Y-15528888D01*
X21658039Y-15528888D02*
X21658039Y-15471746D01*
X21658039Y-15471746D02*
X21667563Y-15452698D01*
X21667563Y-15452698D02*
X21677087Y-15443174D01*
X21677087Y-15443174D02*
X21696134Y-15433650D01*
X21696134Y-15433650D02*
X21724706Y-15433650D01*
X21724706Y-15433650D02*
X21743753Y-15443174D01*
X21743753Y-15443174D02*
X21753277Y-15452698D01*
X21753277Y-15452698D02*
X21762801Y-15471746D01*
X21762801Y-15471746D02*
X21762801Y-15528888D01*
X21762801Y-15528888D02*
X21753277Y-15547936D01*
X21753277Y-15547936D02*
X21743753Y-15557460D01*
X21743753Y-15557460D02*
X21724706Y-15566984D01*
X21724706Y-15566984D02*
X21696134Y-15566984D01*
X21877087Y-15566984D02*
X21858039Y-15557460D01*
X21858039Y-15557460D02*
X21848515Y-15538412D01*
X21848515Y-15538412D02*
X21848515Y-15366984D01*
X22029468Y-15557460D02*
X22010420Y-15566984D01*
X22010420Y-15566984D02*
X21972325Y-15566984D01*
X21972325Y-15566984D02*
X21953277Y-15557460D01*
X21953277Y-15557460D02*
X21943753Y-15538412D01*
X21943753Y-15538412D02*
X21943753Y-15462222D01*
X21943753Y-15462222D02*
X21953277Y-15443174D01*
X21953277Y-15443174D02*
X21972325Y-15433650D01*
X21972325Y-15433650D02*
X22010420Y-15433650D01*
X22010420Y-15433650D02*
X22029468Y-15443174D01*
X22029468Y-15443174D02*
X22038992Y-15462222D01*
X22038992Y-15462222D02*
X22038992Y-15481269D01*
X22038992Y-15481269D02*
X21943753Y-15500317D01*
X22115182Y-15557460D02*
X22134230Y-15566984D01*
X22134230Y-15566984D02*
X22172325Y-15566984D01*
X22172325Y-15566984D02*
X22191373Y-15557460D01*
X22191373Y-15557460D02*
X22200896Y-15538412D01*
X22200896Y-15538412D02*
X22200896Y-15528888D01*
X22200896Y-15528888D02*
X22191373Y-15509841D01*
X22191373Y-15509841D02*
X22172325Y-15500317D01*
X22172325Y-15500317D02*
X22143753Y-15500317D01*
X22143753Y-15500317D02*
X22124706Y-15490793D01*
X22124706Y-15490793D02*
X22115182Y-15471746D01*
X22115182Y-15471746D02*
X22115182Y-15462222D01*
X22115182Y-15462222D02*
X22124706Y-15443174D01*
X22124706Y-15443174D02*
X22143753Y-15433650D01*
X22143753Y-15433650D02*
X22172325Y-15433650D01*
X22172325Y-15433650D02*
X22191373Y-15443174D01*
X22267563Y-15643174D02*
X22277087Y-15633650D01*
X22277087Y-15633650D02*
X22296134Y-15605079D01*
X22296134Y-15605079D02*
X22305658Y-15586031D01*
X22305658Y-15586031D02*
X22315182Y-15557460D01*
X22315182Y-15557460D02*
X22324706Y-15509841D01*
X22324706Y-15509841D02*
X22324706Y-15471746D01*
X22324706Y-15471746D02*
X22315182Y-15424127D01*
X22315182Y-15424127D02*
X22305658Y-15395555D01*
X22305658Y-15395555D02*
X22296134Y-15376508D01*
X22296134Y-15376508D02*
X22277087Y-15347936D01*
X22277087Y-15347936D02*
X22267563Y-15338412D01*
X22629468Y-15643174D02*
X22619944Y-15633650D01*
X22619944Y-15633650D02*
X22600896Y-15605079D01*
X22600896Y-15605079D02*
X22591372Y-15586031D01*
X22591372Y-15586031D02*
X22581849Y-15557460D01*
X22581849Y-15557460D02*
X22572325Y-15509841D01*
X22572325Y-15509841D02*
X22572325Y-15471746D01*
X22572325Y-15471746D02*
X22581849Y-15424127D01*
X22581849Y-15424127D02*
X22591372Y-15395555D01*
X22591372Y-15395555D02*
X22600896Y-15376508D01*
X22600896Y-15376508D02*
X22619944Y-15347936D01*
X22619944Y-15347936D02*
X22629468Y-15338412D01*
X22705658Y-15433650D02*
X22705658Y-15566984D01*
X22705658Y-15452698D02*
X22715182Y-15443174D01*
X22715182Y-15443174D02*
X22734230Y-15433650D01*
X22734230Y-15433650D02*
X22762801Y-15433650D01*
X22762801Y-15433650D02*
X22781849Y-15443174D01*
X22781849Y-15443174D02*
X22791372Y-15462222D01*
X22791372Y-15462222D02*
X22791372Y-15566984D01*
X22915182Y-15566984D02*
X22896134Y-15557460D01*
X22896134Y-15557460D02*
X22886611Y-15547936D01*
X22886611Y-15547936D02*
X22877087Y-15528888D01*
X22877087Y-15528888D02*
X22877087Y-15471746D01*
X22877087Y-15471746D02*
X22886611Y-15452698D01*
X22886611Y-15452698D02*
X22896134Y-15443174D01*
X22896134Y-15443174D02*
X22915182Y-15433650D01*
X22915182Y-15433650D02*
X22943753Y-15433650D01*
X22943753Y-15433650D02*
X22962801Y-15443174D01*
X22962801Y-15443174D02*
X22972325Y-15452698D01*
X22972325Y-15452698D02*
X22981849Y-15471746D01*
X22981849Y-15471746D02*
X22981849Y-15528888D01*
X22981849Y-15528888D02*
X22972325Y-15547936D01*
X22972325Y-15547936D02*
X22962801Y-15557460D01*
X22962801Y-15557460D02*
X22943753Y-15566984D01*
X22943753Y-15566984D02*
X22915182Y-15566984D01*
X23038992Y-15433650D02*
X23115182Y-15433650D01*
X23067563Y-15366984D02*
X23067563Y-15538412D01*
X23067563Y-15538412D02*
X23077087Y-15557460D01*
X23077087Y-15557460D02*
X23096134Y-15566984D01*
X23096134Y-15566984D02*
X23115182Y-15566984D01*
X23334230Y-15433650D02*
X23334230Y-15633650D01*
X23334230Y-15443174D02*
X23353277Y-15433650D01*
X23353277Y-15433650D02*
X23391373Y-15433650D01*
X23391373Y-15433650D02*
X23410420Y-15443174D01*
X23410420Y-15443174D02*
X23419944Y-15452698D01*
X23419944Y-15452698D02*
X23429468Y-15471746D01*
X23429468Y-15471746D02*
X23429468Y-15528888D01*
X23429468Y-15528888D02*
X23419944Y-15547936D01*
X23419944Y-15547936D02*
X23410420Y-15557460D01*
X23410420Y-15557460D02*
X23391373Y-15566984D01*
X23391373Y-15566984D02*
X23353277Y-15566984D01*
X23353277Y-15566984D02*
X23334230Y-15557460D01*
X23543753Y-15566984D02*
X23524706Y-15557460D01*
X23524706Y-15557460D02*
X23515182Y-15538412D01*
X23515182Y-15538412D02*
X23515182Y-15366984D01*
X23705658Y-15566984D02*
X23705658Y-15462222D01*
X23705658Y-15462222D02*
X23696134Y-15443174D01*
X23696134Y-15443174D02*
X23677087Y-15433650D01*
X23677087Y-15433650D02*
X23638992Y-15433650D01*
X23638992Y-15433650D02*
X23619944Y-15443174D01*
X23705658Y-15557460D02*
X23686611Y-15566984D01*
X23686611Y-15566984D02*
X23638992Y-15566984D01*
X23638992Y-15566984D02*
X23619944Y-15557460D01*
X23619944Y-15557460D02*
X23610420Y-15538412D01*
X23610420Y-15538412D02*
X23610420Y-15519365D01*
X23610420Y-15519365D02*
X23619944Y-15500317D01*
X23619944Y-15500317D02*
X23638992Y-15490793D01*
X23638992Y-15490793D02*
X23686611Y-15490793D01*
X23686611Y-15490793D02*
X23705658Y-15481269D01*
X23772325Y-15433650D02*
X23848515Y-15433650D01*
X23800896Y-15366984D02*
X23800896Y-15538412D01*
X23800896Y-15538412D02*
X23810420Y-15557460D01*
X23810420Y-15557460D02*
X23829468Y-15566984D01*
X23829468Y-15566984D02*
X23848515Y-15566984D01*
X23991373Y-15557460D02*
X23972325Y-15566984D01*
X23972325Y-15566984D02*
X23934230Y-15566984D01*
X23934230Y-15566984D02*
X23915182Y-15557460D01*
X23915182Y-15557460D02*
X23905658Y-15538412D01*
X23905658Y-15538412D02*
X23905658Y-15462222D01*
X23905658Y-15462222D02*
X23915182Y-15443174D01*
X23915182Y-15443174D02*
X23934230Y-15433650D01*
X23934230Y-15433650D02*
X23972325Y-15433650D01*
X23972325Y-15433650D02*
X23991373Y-15443174D01*
X23991373Y-15443174D02*
X24000896Y-15462222D01*
X24000896Y-15462222D02*
X24000896Y-15481269D01*
X24000896Y-15481269D02*
X23905658Y-15500317D01*
X24172325Y-15566984D02*
X24172325Y-15366984D01*
X24172325Y-15557460D02*
X24153277Y-15566984D01*
X24153277Y-15566984D02*
X24115182Y-15566984D01*
X24115182Y-15566984D02*
X24096134Y-15557460D01*
X24096134Y-15557460D02*
X24086611Y-15547936D01*
X24086611Y-15547936D02*
X24077087Y-15528888D01*
X24077087Y-15528888D02*
X24077087Y-15471746D01*
X24077087Y-15471746D02*
X24086611Y-15452698D01*
X24086611Y-15452698D02*
X24096134Y-15443174D01*
X24096134Y-15443174D02*
X24115182Y-15433650D01*
X24115182Y-15433650D02*
X24153277Y-15433650D01*
X24153277Y-15433650D02*
X24172325Y-15443174D01*
X24248515Y-15643174D02*
X24258039Y-15633650D01*
X24258039Y-15633650D02*
X24277087Y-15605079D01*
X24277087Y-15605079D02*
X24286611Y-15586031D01*
X24286611Y-15586031D02*
X24296134Y-15557460D01*
X24296134Y-15557460D02*
X24305658Y-15509841D01*
X24305658Y-15509841D02*
X24305658Y-15471746D01*
X24305658Y-15471746D02*
X24296134Y-15424127D01*
X24296134Y-15424127D02*
X24286611Y-15395555D01*
X24286611Y-15395555D02*
X24277087Y-15376508D01*
X24277087Y-15376508D02*
X24258039Y-15347936D01*
X24258039Y-15347936D02*
X24248515Y-15338412D01*
M02*
