M48
; DRILL file {KiCad 7.0.7-7.0.7~ubuntu22.04.1} date Wed 11 Oct 2023 01:43:15 PM CEST
; FORMAT={-:-/ absolute / inch / decimal}
; #@! TF.CreationDate,2023-10-11T13:43:15+02:00
; #@! TF.GenerationSoftware,Kicad,Pcbnew,7.0.7-7.0.7~ubuntu22.04.1
; #@! TF.FileFunction,Plated,1,2,PTH
FMAT,2
INCH
; #@! TA.AperFunction,Plated,PTH,ViaDrill
T1C0.0098
; #@! TA.AperFunction,Plated,PTH,ComponentDrill
T2C0.0236
; #@! TA.AperFunction,Plated,PTH,ComponentDrill
T3C0.0315
; #@! TA.AperFunction,Plated,PTH,ComponentDrill
T4C0.0402
; #@! TA.AperFunction,Plated,PTH,ComponentDrill
T5C0.0472
%
G90
G05
T1
X1.875Y-0.26
X1.9548Y0.2902
X2.0302Y0.3081
X2.055Y0.475
X2.075Y0.325
X2.0753Y0.275
X2.1156Y0.425
X2.15Y-0.815
X2.155Y0.173
X2.195Y-0.84
X2.21Y0.422
X2.22Y0.24
X2.295Y0.425
X2.2976Y0.3374
X2.2976Y0.2636
X2.31Y0.3
X2.38Y0.422
X2.4Y0.3
X2.4106Y0.55
X2.445Y0.35
X2.445Y0.25
X2.485Y0.225
X2.49Y0.065
X2.51Y0.425
X2.525Y0.25
X2.5506Y0.5561
X2.5586Y0.2536
X2.56Y0.335
X2.56Y0.305
X2.57Y0.495
X2.605Y0.435
X2.6306Y0.5561
X2.7Y0.205
X2.7Y0.175
X2.7156Y0.5561
X2.7556Y0.41
X2.7556Y0.385
X2.7556Y0.36
X2.7606Y0.47
X2.7806Y0.5561
X2.84Y-0.125
X2.8606Y0.5561
X2.8706Y0.435
X2.91Y0.205
X2.91Y0.175
X2.91Y-0.91
X2.9478Y0.5561
X2.975Y0.215
X3.0306Y0.56
X3.0556Y0.48
X3.14Y-0.18
X3.2856Y0.145
X3.2856Y0.12
X3.2856Y0.095
X3.2856Y0.07
X3.3106Y0.145
X3.3106Y0.12
X3.3106Y0.095
X3.3106Y0.07
X3.3356Y0.145
X3.3356Y0.12
X3.3356Y0.095
X3.3356Y0.07
X3.3606Y0.145
X3.3606Y0.12
X3.3606Y0.095
X3.3606Y0.07
X3.5475Y0.4625
X3.56Y-0.885
X3.7578Y0.4372
T3
X2.24Y-0.19
X2.34Y-0.19
X2.44Y-0.19
X2.54Y-0.19
X3.07Y-0.4383
X3.07Y-0.7383
X3.17Y-0.4383
X3.17Y-0.7383
X3.27Y-0.4383
X3.27Y-0.7383
X3.37Y-0.4383
X3.37Y-0.7383
X3.47Y-0.4383
X3.47Y-0.7383
X3.57Y-0.4383
X3.57Y-0.7383
T4
X1.85Y0.65
X1.85Y-0.05
X1.95Y0.65
X1.95Y-0.05
X2.05Y0.65
X2.05Y-0.05
X2.15Y0.65
X2.15Y-0.05
X2.25Y0.65
X2.25Y-0.05
X2.35Y0.65
X2.35Y-0.05
X2.45Y0.65
X2.45Y-0.05
X2.55Y0.65
X2.55Y-0.05
X2.65Y0.65
X2.65Y-0.05
X2.75Y0.65
X2.75Y-0.05
X2.85Y0.65
X2.85Y-0.05
X2.95Y0.65
X2.95Y-0.05
X3.05Y0.65
X3.05Y-0.05
X3.15Y0.65
X3.15Y-0.05
X3.25Y0.65
X3.25Y-0.05
X3.35Y0.65
X3.35Y-0.05
X3.45Y0.65
X3.45Y-0.05
X3.55Y0.65
X3.55Y-0.05
X3.65Y0.65
X3.65Y-0.05
X3.75Y0.65
X3.75Y-0.05
T5
X3.98Y0.3789
X3.98Y0.2411
T2
G00X1.7797Y0.4701
M15
G01X1.8033Y0.4701
M16
G05
G00X1.7797Y0.1299
M15
G01X1.8033Y0.1299
M16
G05
G00X1.9344Y0.4701
M15
G01X1.9778Y0.4701
M16
G05
G00X1.9344Y0.1299
M15
G01X1.9778Y0.1299
M16
G05
T0
M30
