%TF.GenerationSoftware,KiCad,Pcbnew,7.0.8-7.0.8~ubuntu22.04.1*%
%TF.CreationDate,2023-10-19T12:27:06+02:00*%
%TF.ProjectId,PD_Micro,50445f4d-6963-4726-9f2e-6b696361645f,rev?*%
%TF.SameCoordinates,Original*%
%TF.FileFunction,Paste,Top*%
%TF.FilePolarity,Positive*%
%FSLAX46Y46*%
G04 Gerber Fmt 4.6, Leading zero omitted, Abs format (unit mm)*
G04 Created by KiCad (PCBNEW 7.0.8-7.0.8~ubuntu22.04.1) date 2023-10-19 12:27:06*
%MOMM*%
%LPD*%
G01*
G04 APERTURE LIST*
G04 Aperture macros list*
%AMRoundRect*
0 Rectangle with rounded corners*
0 $1 Rounding radius*
0 $2 $3 $4 $5 $6 $7 $8 $9 X,Y pos of 4 corners*
0 Add a 4 corners polygon primitive as box body*
4,1,4,$2,$3,$4,$5,$6,$7,$8,$9,$2,$3,0*
0 Add four circle primitives for the rounded corners*
1,1,$1+$1,$2,$3*
1,1,$1+$1,$4,$5*
1,1,$1+$1,$6,$7*
1,1,$1+$1,$8,$9*
0 Add four rect primitives between the rounded corners*
20,1,$1+$1,$2,$3,$4,$5,0*
20,1,$1+$1,$4,$5,$6,$7,0*
20,1,$1+$1,$6,$7,$8,$9,0*
20,1,$1+$1,$8,$9,$2,$3,0*%
G04 Aperture macros list end*
%ADD10RoundRect,0.250000X0.325000X0.650000X-0.325000X0.650000X-0.325000X-0.650000X0.325000X-0.650000X0*%
%ADD11RoundRect,0.140000X-0.560000X-1.810000X0.560000X-1.810000X0.560000X1.810000X-0.560000X1.810000X0*%
%ADD12RoundRect,0.250000X-0.475000X0.250000X-0.475000X-0.250000X0.475000X-0.250000X0.475000X0.250000X0*%
%ADD13RoundRect,0.250000X-0.250000X-0.475000X0.250000X-0.475000X0.250000X0.475000X-0.250000X0.475000X0*%
%ADD14R,0.650000X0.610000*%
%ADD15R,0.500000X0.250000*%
%ADD16RoundRect,0.250000X0.250000X0.475000X-0.250000X0.475000X-0.250000X-0.475000X0.250000X-0.475000X0*%
%ADD17R,1.500000X1.000000*%
%ADD18R,0.900000X1.200000*%
%ADD19RoundRect,0.250000X0.475000X-0.250000X0.475000X0.250000X-0.475000X0.250000X-0.475000X-0.250000X0*%
%ADD20RoundRect,0.130000X0.470000X0.195000X-0.470000X0.195000X-0.470000X-0.195000X0.470000X-0.195000X0*%
%ADD21RoundRect,0.250000X0.262500X0.450000X-0.262500X0.450000X-0.262500X-0.450000X0.262500X-0.450000X0*%
%ADD22RoundRect,0.125000X-0.125000X-0.275000X0.125000X-0.275000X0.125000X0.275000X-0.125000X0.275000X0*%
%ADD23RoundRect,0.250000X-0.450000X0.262500X-0.450000X-0.262500X0.450000X-0.262500X0.450000X0.262500X0*%
%ADD24RoundRect,0.250000X-0.315000X-0.315000X0.315000X-0.315000X0.315000X0.315000X-0.315000X0.315000X0*%
%ADD25RoundRect,0.062500X-0.375000X-0.062500X0.375000X-0.062500X0.375000X0.062500X-0.375000X0.062500X0*%
%ADD26RoundRect,0.062500X-0.062500X-0.375000X0.062500X-0.375000X0.062500X0.375000X-0.062500X0.375000X0*%
%ADD27RoundRect,0.250000X-0.262500X-0.450000X0.262500X-0.450000X0.262500X0.450000X-0.262500X0.450000X0*%
%ADD28R,1.000000X0.800000*%
%ADD29R,0.700000X1.500000*%
%ADD30RoundRect,0.250000X0.450000X-0.262500X0.450000X0.262500X-0.450000X0.262500X-0.450000X-0.262500X0*%
%ADD31RoundRect,0.150000X-0.825000X-0.150000X0.825000X-0.150000X0.825000X0.150000X-0.825000X0.150000X0*%
%ADD32R,1.600000X1.400000*%
%ADD33C,1.900000*%
%ADD34RoundRect,0.140000X1.810000X-0.560000X1.810000X0.560000X-1.810000X0.560000X-1.810000X-0.560000X0*%
%ADD35R,0.700000X0.380000*%
%ADD36RoundRect,0.000000X-0.414000X-0.510000X0.414000X-0.510000X0.414000X0.510000X-0.414000X0.510000X0*%
G04 APERTURE END LIST*
D10*
X179005000Y-95174000D03*
X181955000Y-95174000D03*
D11*
X202348000Y-101651000D03*
X205348000Y-101651000D03*
D12*
X191275000Y-103876000D03*
X191275000Y-105776000D03*
D13*
X210899000Y-107366000D03*
X212799000Y-107366000D03*
D14*
X222517000Y-101613000D03*
X222517000Y-102413000D03*
X222517000Y-103213000D03*
D15*
X221567000Y-101413000D03*
X221567000Y-101913000D03*
X221567000Y-102413000D03*
X221567000Y-102913000D03*
X221567000Y-103413000D03*
X223467000Y-103413000D03*
X223467000Y-102913000D03*
X223467000Y-102413000D03*
X223467000Y-101913000D03*
X223467000Y-101413000D03*
D16*
X216355000Y-106858000D03*
X214455000Y-106858000D03*
D17*
X212574000Y-113640000D03*
X212574000Y-116840000D03*
X217474000Y-116840000D03*
X217474000Y-113640000D03*
D18*
X213245000Y-102032000D03*
X209945000Y-102032000D03*
D19*
X184685000Y-96759000D03*
X184685000Y-94859000D03*
D20*
X189484000Y-107107000D03*
X189484000Y-106157000D03*
X189484000Y-105207000D03*
X187084000Y-105207000D03*
X187084000Y-106157000D03*
X187084000Y-107107000D03*
D19*
X186717000Y-96759000D03*
X186717000Y-94859000D03*
D21*
X219873500Y-104699000D03*
X218048500Y-104699000D03*
D19*
X190781000Y-96759000D03*
X190781000Y-94859000D03*
D22*
X206881000Y-101635000D03*
X208181000Y-101635000D03*
X207531000Y-99635000D03*
D23*
X180480000Y-100484500D03*
X180480000Y-102309500D03*
D12*
X195847000Y-101971000D03*
X195847000Y-103871000D03*
D24*
X189990000Y-99600000D03*
X189990000Y-100900000D03*
X191290000Y-99600000D03*
X191290000Y-100900000D03*
D25*
X188702500Y-99000000D03*
X188702500Y-99500000D03*
X188702500Y-100000000D03*
X188702500Y-100500000D03*
X188702500Y-101000000D03*
X188702500Y-101500000D03*
D26*
X189390000Y-102187500D03*
X189890000Y-102187500D03*
X190390000Y-102187500D03*
X190890000Y-102187500D03*
X191390000Y-102187500D03*
X191890000Y-102187500D03*
D25*
X192577500Y-101500000D03*
X192577500Y-101000000D03*
X192577500Y-100500000D03*
X192577500Y-100000000D03*
X192577500Y-99500000D03*
X192577500Y-99000000D03*
D26*
X191890000Y-98312500D03*
X191390000Y-98312500D03*
X190890000Y-98312500D03*
X190390000Y-98312500D03*
X189890000Y-98312500D03*
X189390000Y-98312500D03*
D27*
X195315500Y-107239000D03*
X197140500Y-107239000D03*
D19*
X188749000Y-96759000D03*
X188749000Y-94859000D03*
D13*
X182705000Y-107112000D03*
X184605000Y-107112000D03*
D14*
X199163000Y-96533000D03*
X199163000Y-97333000D03*
X199163000Y-98133000D03*
D15*
X198213000Y-96333000D03*
X198213000Y-96833000D03*
X198213000Y-97333000D03*
X198213000Y-97833000D03*
X198213000Y-98333000D03*
X200113000Y-98333000D03*
X200113000Y-97833000D03*
X200113000Y-97333000D03*
X200113000Y-96833000D03*
X200113000Y-96333000D03*
D27*
X218048500Y-106858000D03*
X219873500Y-106858000D03*
D16*
X224229000Y-105207000D03*
X222329000Y-105207000D03*
D12*
X209958000Y-97780000D03*
X209958000Y-99680000D03*
D23*
X199530000Y-105818500D03*
X199530000Y-107643500D03*
D13*
X210899000Y-105334000D03*
X212799000Y-105334000D03*
D23*
X182512000Y-100103500D03*
X182512000Y-101928500D03*
D27*
X197742500Y-102159000D03*
X199567500Y-102159000D03*
D28*
X216835000Y-137099000D03*
X216835000Y-139309000D03*
X224135000Y-137099000D03*
X224135000Y-139309000D03*
D29*
X218235000Y-136449000D03*
X221235000Y-136449000D03*
X222735000Y-136449000D03*
D30*
X193448000Y-96721500D03*
X193448000Y-94896500D03*
D31*
X213438000Y-95047000D03*
X213438000Y-96317000D03*
X213438000Y-97587000D03*
X213438000Y-98857000D03*
X218388000Y-98857000D03*
X218388000Y-97587000D03*
X218388000Y-96317000D03*
X218388000Y-95047000D03*
D27*
X202935500Y-98222000D03*
X204760500Y-98222000D03*
X182733000Y-105080000D03*
X184558000Y-105080000D03*
D32*
X227299000Y-124916000D03*
X234499000Y-124916000D03*
X227299000Y-127916000D03*
X234499000Y-127916000D03*
D27*
X184647500Y-99619000D03*
X186472500Y-99619000D03*
D23*
X193434000Y-103913500D03*
X193434000Y-105738500D03*
D16*
X216355000Y-104699000D03*
X214455000Y-104699000D03*
D21*
X199567500Y-100127000D03*
X197742500Y-100127000D03*
D23*
X207164000Y-96293500D03*
X207164000Y-98118500D03*
D33*
X177990000Y-102286000D03*
X177990000Y-100254000D03*
D28*
X207056000Y-137066000D03*
X207056000Y-139276000D03*
X214356000Y-137066000D03*
X214356000Y-139276000D03*
D29*
X208456000Y-136416000D03*
X211456000Y-136416000D03*
X212956000Y-136416000D03*
D16*
X205306000Y-105207000D03*
X203406000Y-105207000D03*
D34*
X226200000Y-101373000D03*
X226200000Y-98373000D03*
D27*
X222366500Y-107366000D03*
X224191500Y-107366000D03*
D12*
X194958000Y-98415000D03*
X194958000Y-100315000D03*
D27*
X184647500Y-101651000D03*
X186472500Y-101651000D03*
D32*
X227299000Y-131500000D03*
X234499000Y-131500000D03*
X227299000Y-134500000D03*
X234499000Y-134500000D03*
D35*
X208775000Y-94778000D03*
X208775000Y-95428000D03*
X208775000Y-96078000D03*
X210975000Y-96078000D03*
X210975000Y-95428000D03*
D36*
X210085000Y-95428000D03*
D35*
X210975000Y-94778000D03*
M02*
