%TF.GenerationSoftware,KiCad,Pcbnew,7.0.7*%
%TF.CreationDate,2023-10-12T19:56:55+02:00*%
%TF.ProjectId,PD_Micro,50445f4d-6963-4726-9f2e-6b696361645f,rev?*%
%TF.SameCoordinates,PX7ce2370PY67d8790*%
%TF.FileFunction,Legend,Bot*%
%TF.FilePolarity,Positive*%
%FSLAX46Y46*%
G04 Gerber Fmt 4.6, Leading zero omitted, Abs format (unit mm)*
G04 Created by KiCad (PCBNEW 7.0.7) date 2023-10-12 19:56:55*
%MOMM*%
%LPD*%
G01*
G04 APERTURE LIST*
G04 Aperture macros list*
%AMRoundRect*
0 Rectangle with rounded corners*
0 $1 Rounding radius*
0 $2 $3 $4 $5 $6 $7 $8 $9 X,Y pos of 4 corners*
0 Add a 4 corners polygon primitive as box body*
4,1,4,$2,$3,$4,$5,$6,$7,$8,$9,$2,$3,0*
0 Add four circle primitives for the rounded corners*
1,1,$1+$1,$2,$3*
1,1,$1+$1,$4,$5*
1,1,$1+$1,$6,$7*
1,1,$1+$1,$8,$9*
0 Add four rect primitives between the rounded corners*
20,1,$1+$1,$2,$3,$4,$5,0*
20,1,$1+$1,$4,$5,$6,$7,0*
20,1,$1+$1,$6,$7,$8,$9,0*
20,1,$1+$1,$8,$9,$2,$3,0*%
G04 Aperture macros list end*
%ADD10C,0.100000*%
%ADD11C,0.150000*%
%ADD12RoundRect,0.070000X-0.425000X-0.425000X0.425000X-0.425000X0.425000X0.425000X-0.425000X0.425000X0*%
%ADD13O,0.990000X0.990000*%
%ADD14RoundRect,0.070000X0.800000X-0.800000X0.800000X0.800000X-0.800000X0.800000X-0.800000X-0.800000X0*%
%ADD15O,1.740000X1.740000*%
%ADD16C,1.940000*%
%ADD17C,1.040000*%
%ADD18O,1.840000X1.840000*%
%ADD19RoundRect,0.070000X0.850000X-0.850000X0.850000X0.850000X-0.850000X0.850000X-0.850000X-0.850000X0*%
%ADD20C,3.140000*%
%ADD21C,1.740000*%
%ADD22RoundRect,0.670000X-0.600000X0.600000X-0.600000X-0.600000X0.600000X-0.600000X0.600000X0.600000X0*%
%ADD23C,2.540000*%
%ADD24C,0.790000*%
%ADD25RoundRect,0.070000X0.725000X-0.287500X0.725000X0.287500X-0.725000X0.287500X-0.725000X-0.287500X0*%
%ADD26RoundRect,0.070000X0.725000X-0.150000X0.725000X0.150000X-0.725000X0.150000X-0.725000X-0.150000X0*%
%ADD27O,1.740000X1.140000*%
%ADD28O,2.240000X1.140000*%
G04 APERTURE END LIST*
D10*
X70863734Y-11272895D02*
X70863734Y-10472895D01*
X70863734Y-10853847D02*
X70406591Y-10853847D01*
X70406591Y-11272895D02*
X70406591Y-10472895D01*
X70139925Y-10472895D02*
X69682782Y-10472895D01*
X69911354Y-11272895D02*
X69911354Y-10472895D01*
X69035163Y-11272895D02*
X69416115Y-11272895D01*
X69416115Y-11272895D02*
X69416115Y-10472895D01*
X68768496Y-10968133D02*
X68158973Y-10968133D01*
X67320877Y-11272895D02*
X67587544Y-10891942D01*
X67778020Y-11272895D02*
X67778020Y-10472895D01*
X67778020Y-10472895D02*
X67473258Y-10472895D01*
X67473258Y-10472895D02*
X67397068Y-10510990D01*
X67397068Y-10510990D02*
X67358973Y-10549085D01*
X67358973Y-10549085D02*
X67320877Y-10625276D01*
X67320877Y-10625276D02*
X67320877Y-10739561D01*
X67320877Y-10739561D02*
X67358973Y-10815752D01*
X67358973Y-10815752D02*
X67397068Y-10853847D01*
X67397068Y-10853847D02*
X67473258Y-10891942D01*
X67473258Y-10891942D02*
X67778020Y-10891942D01*
X66635163Y-11272895D02*
X66635163Y-10853847D01*
X66635163Y-10853847D02*
X66673258Y-10777657D01*
X66673258Y-10777657D02*
X66749449Y-10739561D01*
X66749449Y-10739561D02*
X66901830Y-10739561D01*
X66901830Y-10739561D02*
X66978020Y-10777657D01*
X66635163Y-11234800D02*
X66711354Y-11272895D01*
X66711354Y-11272895D02*
X66901830Y-11272895D01*
X66901830Y-11272895D02*
X66978020Y-11234800D01*
X66978020Y-11234800D02*
X67016116Y-11158609D01*
X67016116Y-11158609D02*
X67016116Y-11082419D01*
X67016116Y-11082419D02*
X66978020Y-11006228D01*
X66978020Y-11006228D02*
X66901830Y-10968133D01*
X66901830Y-10968133D02*
X66711354Y-10968133D01*
X66711354Y-10968133D02*
X66635163Y-10930038D01*
X66254210Y-10739561D02*
X66254210Y-11272895D01*
X66254210Y-10815752D02*
X66216115Y-10777657D01*
X66216115Y-10777657D02*
X66139925Y-10739561D01*
X66139925Y-10739561D02*
X66025639Y-10739561D01*
X66025639Y-10739561D02*
X65949448Y-10777657D01*
X65949448Y-10777657D02*
X65911353Y-10853847D01*
X65911353Y-10853847D02*
X65911353Y-11272895D01*
X65530400Y-11272895D02*
X65530400Y-10472895D01*
X65454210Y-10968133D02*
X65225638Y-11272895D01*
X65225638Y-10739561D02*
X65530400Y-11044323D01*
X64958972Y-10739561D02*
X64806591Y-11272895D01*
X64806591Y-11272895D02*
X64654210Y-10891942D01*
X64654210Y-10891942D02*
X64501829Y-11272895D01*
X64501829Y-11272895D02*
X64349448Y-10739561D01*
X63739924Y-11234800D02*
X63816115Y-11272895D01*
X63816115Y-11272895D02*
X63968496Y-11272895D01*
X63968496Y-11272895D02*
X64044686Y-11234800D01*
X64044686Y-11234800D02*
X64082782Y-11158609D01*
X64082782Y-11158609D02*
X64082782Y-10853847D01*
X64082782Y-10853847D02*
X64044686Y-10777657D01*
X64044686Y-10777657D02*
X63968496Y-10739561D01*
X63968496Y-10739561D02*
X63816115Y-10739561D01*
X63816115Y-10739561D02*
X63739924Y-10777657D01*
X63739924Y-10777657D02*
X63701829Y-10853847D01*
X63701829Y-10853847D02*
X63701829Y-10930038D01*
X63701829Y-10930038D02*
X64082782Y-11006228D01*
X63358972Y-11272895D02*
X63358972Y-10739561D01*
X63358972Y-10472895D02*
X63397068Y-10510990D01*
X63397068Y-10510990D02*
X63358972Y-10549085D01*
X63358972Y-10549085D02*
X63320877Y-10510990D01*
X63320877Y-10510990D02*
X63358972Y-10472895D01*
X63358972Y-10472895D02*
X63358972Y-10549085D01*
X62863735Y-11272895D02*
X62939925Y-11234800D01*
X62939925Y-11234800D02*
X62978020Y-11158609D01*
X62978020Y-11158609D02*
X62978020Y-10472895D01*
X61606591Y-10739561D02*
X61606591Y-11272895D01*
X61797067Y-10434800D02*
X61987544Y-11006228D01*
X61987544Y-11006228D02*
X61492305Y-11006228D01*
X61225639Y-11044323D02*
X60844686Y-11044323D01*
X61301829Y-11272895D02*
X61035162Y-10472895D01*
X61035162Y-10472895D02*
X60768496Y-11272895D01*
X60501829Y-11272895D02*
X60501829Y-10472895D01*
X60501829Y-10853847D02*
X60044686Y-10853847D01*
X60044686Y-11272895D02*
X60044686Y-10472895D01*
X59663734Y-10853847D02*
X59397068Y-10853847D01*
X59282782Y-11272895D02*
X59663734Y-11272895D01*
X59663734Y-11272895D02*
X59663734Y-10472895D01*
X59663734Y-10472895D02*
X59282782Y-10472895D01*
X58558972Y-11272895D02*
X58939924Y-11272895D01*
X58939924Y-11272895D02*
X58939924Y-10472895D01*
X70863734Y-12560895D02*
X70863734Y-11760895D01*
X70863734Y-11760895D02*
X70597068Y-12332323D01*
X70597068Y-12332323D02*
X70330401Y-11760895D01*
X70330401Y-11760895D02*
X70330401Y-12560895D01*
X69606591Y-12560895D02*
X69606591Y-12141847D01*
X69606591Y-12141847D02*
X69644686Y-12065657D01*
X69644686Y-12065657D02*
X69720877Y-12027561D01*
X69720877Y-12027561D02*
X69873258Y-12027561D01*
X69873258Y-12027561D02*
X69949448Y-12065657D01*
X69606591Y-12522800D02*
X69682782Y-12560895D01*
X69682782Y-12560895D02*
X69873258Y-12560895D01*
X69873258Y-12560895D02*
X69949448Y-12522800D01*
X69949448Y-12522800D02*
X69987544Y-12446609D01*
X69987544Y-12446609D02*
X69987544Y-12370419D01*
X69987544Y-12370419D02*
X69949448Y-12294228D01*
X69949448Y-12294228D02*
X69873258Y-12256133D01*
X69873258Y-12256133D02*
X69682782Y-12256133D01*
X69682782Y-12256133D02*
X69606591Y-12218038D01*
X69225638Y-12027561D02*
X69225638Y-12560895D01*
X69225638Y-12103752D02*
X69187543Y-12065657D01*
X69187543Y-12065657D02*
X69111353Y-12027561D01*
X69111353Y-12027561D02*
X68997067Y-12027561D01*
X68997067Y-12027561D02*
X68920876Y-12065657D01*
X68920876Y-12065657D02*
X68882781Y-12141847D01*
X68882781Y-12141847D02*
X68882781Y-12560895D01*
X68158971Y-12027561D02*
X68158971Y-12560895D01*
X68501828Y-12027561D02*
X68501828Y-12446609D01*
X68501828Y-12446609D02*
X68463733Y-12522800D01*
X68463733Y-12522800D02*
X68387543Y-12560895D01*
X68387543Y-12560895D02*
X68273257Y-12560895D01*
X68273257Y-12560895D02*
X68197066Y-12522800D01*
X68197066Y-12522800D02*
X68158971Y-12484704D01*
X67473256Y-12522800D02*
X67549447Y-12560895D01*
X67549447Y-12560895D02*
X67701828Y-12560895D01*
X67701828Y-12560895D02*
X67778018Y-12522800D01*
X67778018Y-12522800D02*
X67816114Y-12446609D01*
X67816114Y-12446609D02*
X67816114Y-12141847D01*
X67816114Y-12141847D02*
X67778018Y-12065657D01*
X67778018Y-12065657D02*
X67701828Y-12027561D01*
X67701828Y-12027561D02*
X67549447Y-12027561D01*
X67549447Y-12027561D02*
X67473256Y-12065657D01*
X67473256Y-12065657D02*
X67435161Y-12141847D01*
X67435161Y-12141847D02*
X67435161Y-12218038D01*
X67435161Y-12218038D02*
X67816114Y-12294228D01*
X66978019Y-12560895D02*
X67054209Y-12522800D01*
X67054209Y-12522800D02*
X67092304Y-12446609D01*
X67092304Y-12446609D02*
X67092304Y-11760895D01*
X66063732Y-12560895D02*
X66063732Y-11760895D01*
X66063732Y-11760895D02*
X65797066Y-12332323D01*
X65797066Y-12332323D02*
X65530399Y-11760895D01*
X65530399Y-11760895D02*
X65530399Y-12560895D01*
X64806589Y-12560895D02*
X64806589Y-12141847D01*
X64806589Y-12141847D02*
X64844684Y-12065657D01*
X64844684Y-12065657D02*
X64920875Y-12027561D01*
X64920875Y-12027561D02*
X65073256Y-12027561D01*
X65073256Y-12027561D02*
X65149446Y-12065657D01*
X64806589Y-12522800D02*
X64882780Y-12560895D01*
X64882780Y-12560895D02*
X65073256Y-12560895D01*
X65073256Y-12560895D02*
X65149446Y-12522800D01*
X65149446Y-12522800D02*
X65187542Y-12446609D01*
X65187542Y-12446609D02*
X65187542Y-12370419D01*
X65187542Y-12370419D02*
X65149446Y-12294228D01*
X65149446Y-12294228D02*
X65073256Y-12256133D01*
X65073256Y-12256133D02*
X64882780Y-12256133D01*
X64882780Y-12256133D02*
X64806589Y-12218038D01*
X64501827Y-12027561D02*
X64311351Y-12560895D01*
X64120874Y-12027561D02*
X64311351Y-12560895D01*
X64311351Y-12560895D02*
X64387541Y-12751371D01*
X64387541Y-12751371D02*
X64425636Y-12789466D01*
X64425636Y-12789466D02*
X64501827Y-12827561D01*
X63816112Y-12560895D02*
X63816112Y-12027561D01*
X63816112Y-12179942D02*
X63778017Y-12103752D01*
X63778017Y-12103752D02*
X63739922Y-12065657D01*
X63739922Y-12065657D02*
X63663731Y-12027561D01*
X63663731Y-12027561D02*
X63587541Y-12027561D01*
X63320874Y-12560895D02*
X63320874Y-11760895D01*
X62978017Y-12560895D02*
X62978017Y-12141847D01*
X62978017Y-12141847D02*
X63016112Y-12065657D01*
X63016112Y-12065657D02*
X63092303Y-12027561D01*
X63092303Y-12027561D02*
X63206589Y-12027561D01*
X63206589Y-12027561D02*
X63282779Y-12065657D01*
X63282779Y-12065657D02*
X63320874Y-12103752D01*
X62482779Y-12560895D02*
X62558969Y-12522800D01*
X62558969Y-12522800D02*
X62597064Y-12484704D01*
X62597064Y-12484704D02*
X62635160Y-12408514D01*
X62635160Y-12408514D02*
X62635160Y-12179942D01*
X62635160Y-12179942D02*
X62597064Y-12103752D01*
X62597064Y-12103752D02*
X62558969Y-12065657D01*
X62558969Y-12065657D02*
X62482779Y-12027561D01*
X62482779Y-12027561D02*
X62368493Y-12027561D01*
X62368493Y-12027561D02*
X62292302Y-12065657D01*
X62292302Y-12065657D02*
X62254207Y-12103752D01*
X62254207Y-12103752D02*
X62216112Y-12179942D01*
X62216112Y-12179942D02*
X62216112Y-12408514D01*
X62216112Y-12408514D02*
X62254207Y-12484704D01*
X62254207Y-12484704D02*
X62292302Y-12522800D01*
X62292302Y-12522800D02*
X62368493Y-12560895D01*
X62368493Y-12560895D02*
X62482779Y-12560895D01*
X61987540Y-12027561D02*
X61682778Y-12027561D01*
X61873254Y-12560895D02*
X61873254Y-11875180D01*
X61873254Y-11875180D02*
X61835159Y-11798990D01*
X61835159Y-11798990D02*
X61758969Y-11760895D01*
X61758969Y-11760895D02*
X61682778Y-11760895D01*
X61111349Y-12522800D02*
X61187540Y-12560895D01*
X61187540Y-12560895D02*
X61339921Y-12560895D01*
X61339921Y-12560895D02*
X61416111Y-12522800D01*
X61416111Y-12522800D02*
X61454207Y-12446609D01*
X61454207Y-12446609D02*
X61454207Y-12141847D01*
X61454207Y-12141847D02*
X61416111Y-12065657D01*
X61416111Y-12065657D02*
X61339921Y-12027561D01*
X61339921Y-12027561D02*
X61187540Y-12027561D01*
X61187540Y-12027561D02*
X61111349Y-12065657D01*
X61111349Y-12065657D02*
X61073254Y-12141847D01*
X61073254Y-12141847D02*
X61073254Y-12218038D01*
X61073254Y-12218038D02*
X61454207Y-12294228D01*
X60730397Y-12560895D02*
X60730397Y-12027561D01*
X60730397Y-12179942D02*
X60692302Y-12103752D01*
X60692302Y-12103752D02*
X60654207Y-12065657D01*
X60654207Y-12065657D02*
X60578016Y-12027561D01*
X60578016Y-12027561D02*
X60501826Y-12027561D01*
X70635163Y-13048895D02*
X70635163Y-13620323D01*
X70635163Y-13620323D02*
X70673258Y-13734609D01*
X70673258Y-13734609D02*
X70749449Y-13810800D01*
X70749449Y-13810800D02*
X70863734Y-13848895D01*
X70863734Y-13848895D02*
X70939925Y-13848895D01*
X70139925Y-13848895D02*
X70216115Y-13810800D01*
X70216115Y-13810800D02*
X70254210Y-13772704D01*
X70254210Y-13772704D02*
X70292306Y-13696514D01*
X70292306Y-13696514D02*
X70292306Y-13467942D01*
X70292306Y-13467942D02*
X70254210Y-13391752D01*
X70254210Y-13391752D02*
X70216115Y-13353657D01*
X70216115Y-13353657D02*
X70139925Y-13315561D01*
X70139925Y-13315561D02*
X70025639Y-13315561D01*
X70025639Y-13315561D02*
X69949448Y-13353657D01*
X69949448Y-13353657D02*
X69911353Y-13391752D01*
X69911353Y-13391752D02*
X69873258Y-13467942D01*
X69873258Y-13467942D02*
X69873258Y-13696514D01*
X69873258Y-13696514D02*
X69911353Y-13772704D01*
X69911353Y-13772704D02*
X69949448Y-13810800D01*
X69949448Y-13810800D02*
X70025639Y-13848895D01*
X70025639Y-13848895D02*
X70139925Y-13848895D01*
X69530400Y-13848895D02*
X69530400Y-13048895D01*
X69187543Y-13848895D02*
X69187543Y-13429847D01*
X69187543Y-13429847D02*
X69225638Y-13353657D01*
X69225638Y-13353657D02*
X69301829Y-13315561D01*
X69301829Y-13315561D02*
X69416115Y-13315561D01*
X69416115Y-13315561D02*
X69492305Y-13353657D01*
X69492305Y-13353657D02*
X69530400Y-13391752D01*
X68463733Y-13848895D02*
X68463733Y-13429847D01*
X68463733Y-13429847D02*
X68501828Y-13353657D01*
X68501828Y-13353657D02*
X68578019Y-13315561D01*
X68578019Y-13315561D02*
X68730400Y-13315561D01*
X68730400Y-13315561D02*
X68806590Y-13353657D01*
X68463733Y-13810800D02*
X68539924Y-13848895D01*
X68539924Y-13848895D02*
X68730400Y-13848895D01*
X68730400Y-13848895D02*
X68806590Y-13810800D01*
X68806590Y-13810800D02*
X68844686Y-13734609D01*
X68844686Y-13734609D02*
X68844686Y-13658419D01*
X68844686Y-13658419D02*
X68806590Y-13582228D01*
X68806590Y-13582228D02*
X68730400Y-13544133D01*
X68730400Y-13544133D02*
X68539924Y-13544133D01*
X68539924Y-13544133D02*
X68463733Y-13506038D01*
X68082780Y-13315561D02*
X68082780Y-13848895D01*
X68082780Y-13391752D02*
X68044685Y-13353657D01*
X68044685Y-13353657D02*
X67968495Y-13315561D01*
X67968495Y-13315561D02*
X67854209Y-13315561D01*
X67854209Y-13315561D02*
X67778018Y-13353657D01*
X67778018Y-13353657D02*
X67739923Y-13429847D01*
X67739923Y-13429847D02*
X67739923Y-13848895D01*
X67358970Y-13315561D02*
X67358970Y-13848895D01*
X67358970Y-13391752D02*
X67320875Y-13353657D01*
X67320875Y-13353657D02*
X67244685Y-13315561D01*
X67244685Y-13315561D02*
X67130399Y-13315561D01*
X67130399Y-13315561D02*
X67054208Y-13353657D01*
X67054208Y-13353657D02*
X67016113Y-13429847D01*
X67016113Y-13429847D02*
X67016113Y-13848895D01*
X66330398Y-13810800D02*
X66406589Y-13848895D01*
X66406589Y-13848895D02*
X66558970Y-13848895D01*
X66558970Y-13848895D02*
X66635160Y-13810800D01*
X66635160Y-13810800D02*
X66673256Y-13734609D01*
X66673256Y-13734609D02*
X66673256Y-13429847D01*
X66673256Y-13429847D02*
X66635160Y-13353657D01*
X66635160Y-13353657D02*
X66558970Y-13315561D01*
X66558970Y-13315561D02*
X66406589Y-13315561D01*
X66406589Y-13315561D02*
X66330398Y-13353657D01*
X66330398Y-13353657D02*
X66292303Y-13429847D01*
X66292303Y-13429847D02*
X66292303Y-13506038D01*
X66292303Y-13506038D02*
X66673256Y-13582228D01*
X65987542Y-13810800D02*
X65911351Y-13848895D01*
X65911351Y-13848895D02*
X65758970Y-13848895D01*
X65758970Y-13848895D02*
X65682780Y-13810800D01*
X65682780Y-13810800D02*
X65644684Y-13734609D01*
X65644684Y-13734609D02*
X65644684Y-13696514D01*
X65644684Y-13696514D02*
X65682780Y-13620323D01*
X65682780Y-13620323D02*
X65758970Y-13582228D01*
X65758970Y-13582228D02*
X65873256Y-13582228D01*
X65873256Y-13582228D02*
X65949446Y-13544133D01*
X65949446Y-13544133D02*
X65987542Y-13467942D01*
X65987542Y-13467942D02*
X65987542Y-13429847D01*
X65987542Y-13429847D02*
X65949446Y-13353657D01*
X65949446Y-13353657D02*
X65873256Y-13315561D01*
X65873256Y-13315561D02*
X65758970Y-13315561D01*
X65758970Y-13315561D02*
X65682780Y-13353657D01*
X64692303Y-13848895D02*
X64692303Y-13048895D01*
X64692303Y-13048895D02*
X64425637Y-13620323D01*
X64425637Y-13620323D02*
X64158970Y-13048895D01*
X64158970Y-13048895D02*
X64158970Y-13848895D01*
X63473255Y-13810800D02*
X63549446Y-13848895D01*
X63549446Y-13848895D02*
X63701827Y-13848895D01*
X63701827Y-13848895D02*
X63778017Y-13810800D01*
X63778017Y-13810800D02*
X63816113Y-13734609D01*
X63816113Y-13734609D02*
X63816113Y-13429847D01*
X63816113Y-13429847D02*
X63778017Y-13353657D01*
X63778017Y-13353657D02*
X63701827Y-13315561D01*
X63701827Y-13315561D02*
X63549446Y-13315561D01*
X63549446Y-13315561D02*
X63473255Y-13353657D01*
X63473255Y-13353657D02*
X63435160Y-13429847D01*
X63435160Y-13429847D02*
X63435160Y-13506038D01*
X63435160Y-13506038D02*
X63816113Y-13582228D01*
X62978018Y-13848895D02*
X63054208Y-13810800D01*
X63054208Y-13810800D02*
X63092303Y-13734609D01*
X63092303Y-13734609D02*
X63092303Y-13048895D01*
X62330398Y-13810800D02*
X62406589Y-13848895D01*
X62406589Y-13848895D02*
X62558970Y-13848895D01*
X62558970Y-13848895D02*
X62635160Y-13810800D01*
X62635160Y-13810800D02*
X62673255Y-13772704D01*
X62673255Y-13772704D02*
X62711351Y-13696514D01*
X62711351Y-13696514D02*
X62711351Y-13467942D01*
X62711351Y-13467942D02*
X62673255Y-13391752D01*
X62673255Y-13391752D02*
X62635160Y-13353657D01*
X62635160Y-13353657D02*
X62558970Y-13315561D01*
X62558970Y-13315561D02*
X62406589Y-13315561D01*
X62406589Y-13315561D02*
X62330398Y-13353657D01*
X61987541Y-13848895D02*
X61987541Y-13048895D01*
X61644684Y-13848895D02*
X61644684Y-13429847D01*
X61644684Y-13429847D02*
X61682779Y-13353657D01*
X61682779Y-13353657D02*
X61758970Y-13315561D01*
X61758970Y-13315561D02*
X61873256Y-13315561D01*
X61873256Y-13315561D02*
X61949446Y-13353657D01*
X61949446Y-13353657D02*
X61987541Y-13391752D01*
X60958969Y-13810800D02*
X61035160Y-13848895D01*
X61035160Y-13848895D02*
X61187541Y-13848895D01*
X61187541Y-13848895D02*
X61263731Y-13810800D01*
X61263731Y-13810800D02*
X61301827Y-13734609D01*
X61301827Y-13734609D02*
X61301827Y-13429847D01*
X61301827Y-13429847D02*
X61263731Y-13353657D01*
X61263731Y-13353657D02*
X61187541Y-13315561D01*
X61187541Y-13315561D02*
X61035160Y-13315561D01*
X61035160Y-13315561D02*
X60958969Y-13353657D01*
X60958969Y-13353657D02*
X60920874Y-13429847D01*
X60920874Y-13429847D02*
X60920874Y-13506038D01*
X60920874Y-13506038D02*
X61301827Y-13582228D01*
X60578017Y-13848895D02*
X60578017Y-13315561D01*
X60578017Y-13467942D02*
X60539922Y-13391752D01*
X60539922Y-13391752D02*
X60501827Y-13353657D01*
X60501827Y-13353657D02*
X60425636Y-13315561D01*
X60425636Y-13315561D02*
X60349446Y-13315561D01*
X60082779Y-13544133D02*
X59473256Y-13544133D01*
X59092303Y-13848895D02*
X59092303Y-13048895D01*
X59092303Y-13048895D02*
X58825637Y-13620323D01*
X58825637Y-13620323D02*
X58558970Y-13048895D01*
X58558970Y-13048895D02*
X58558970Y-13848895D01*
X58178017Y-13848895D02*
X58178017Y-13315561D01*
X58178017Y-13048895D02*
X58216113Y-13086990D01*
X58216113Y-13086990D02*
X58178017Y-13125085D01*
X58178017Y-13125085D02*
X58139922Y-13086990D01*
X58139922Y-13086990D02*
X58178017Y-13048895D01*
X58178017Y-13048895D02*
X58178017Y-13125085D01*
X57682780Y-13848895D02*
X57758970Y-13810800D01*
X57758970Y-13810800D02*
X57797065Y-13734609D01*
X57797065Y-13734609D02*
X57797065Y-13048895D01*
X57263732Y-13848895D02*
X57339922Y-13810800D01*
X57339922Y-13810800D02*
X57378017Y-13734609D01*
X57378017Y-13734609D02*
X57378017Y-13048895D01*
X56958969Y-13315561D02*
X56958969Y-13848895D01*
X56958969Y-13391752D02*
X56920874Y-13353657D01*
X56920874Y-13353657D02*
X56844684Y-13315561D01*
X56844684Y-13315561D02*
X56730398Y-13315561D01*
X56730398Y-13315561D02*
X56654207Y-13353657D01*
X56654207Y-13353657D02*
X56616112Y-13429847D01*
X56616112Y-13429847D02*
X56616112Y-13848895D01*
X55930397Y-13810800D02*
X56006588Y-13848895D01*
X56006588Y-13848895D02*
X56158969Y-13848895D01*
X56158969Y-13848895D02*
X56235159Y-13810800D01*
X56235159Y-13810800D02*
X56273255Y-13734609D01*
X56273255Y-13734609D02*
X56273255Y-13429847D01*
X56273255Y-13429847D02*
X56235159Y-13353657D01*
X56235159Y-13353657D02*
X56158969Y-13315561D01*
X56158969Y-13315561D02*
X56006588Y-13315561D01*
X56006588Y-13315561D02*
X55930397Y-13353657D01*
X55930397Y-13353657D02*
X55892302Y-13429847D01*
X55892302Y-13429847D02*
X55892302Y-13506038D01*
X55892302Y-13506038D02*
X56273255Y-13582228D01*
X55549445Y-13848895D02*
X55549445Y-13315561D01*
X55549445Y-13467942D02*
X55511350Y-13391752D01*
X55511350Y-13391752D02*
X55473255Y-13353657D01*
X55473255Y-13353657D02*
X55397064Y-13315561D01*
X55397064Y-13315561D02*
X55320874Y-13315561D01*
X70863734Y-14336895D02*
X70863734Y-14984514D01*
X70863734Y-14984514D02*
X70825639Y-15060704D01*
X70825639Y-15060704D02*
X70787544Y-15098800D01*
X70787544Y-15098800D02*
X70711353Y-15136895D01*
X70711353Y-15136895D02*
X70558972Y-15136895D01*
X70558972Y-15136895D02*
X70482782Y-15098800D01*
X70482782Y-15098800D02*
X70444687Y-15060704D01*
X70444687Y-15060704D02*
X70406591Y-14984514D01*
X70406591Y-14984514D02*
X70406591Y-14336895D01*
X70063735Y-15098800D02*
X69949449Y-15136895D01*
X69949449Y-15136895D02*
X69758973Y-15136895D01*
X69758973Y-15136895D02*
X69682782Y-15098800D01*
X69682782Y-15098800D02*
X69644687Y-15060704D01*
X69644687Y-15060704D02*
X69606592Y-14984514D01*
X69606592Y-14984514D02*
X69606592Y-14908323D01*
X69606592Y-14908323D02*
X69644687Y-14832133D01*
X69644687Y-14832133D02*
X69682782Y-14794038D01*
X69682782Y-14794038D02*
X69758973Y-14755942D01*
X69758973Y-14755942D02*
X69911354Y-14717847D01*
X69911354Y-14717847D02*
X69987544Y-14679752D01*
X69987544Y-14679752D02*
X70025639Y-14641657D01*
X70025639Y-14641657D02*
X70063735Y-14565466D01*
X70063735Y-14565466D02*
X70063735Y-14489276D01*
X70063735Y-14489276D02*
X70025639Y-14413085D01*
X70025639Y-14413085D02*
X69987544Y-14374990D01*
X69987544Y-14374990D02*
X69911354Y-14336895D01*
X69911354Y-14336895D02*
X69720877Y-14336895D01*
X69720877Y-14336895D02*
X69606592Y-14374990D01*
X68997068Y-14717847D02*
X68882782Y-14755942D01*
X68882782Y-14755942D02*
X68844687Y-14794038D01*
X68844687Y-14794038D02*
X68806591Y-14870228D01*
X68806591Y-14870228D02*
X68806591Y-14984514D01*
X68806591Y-14984514D02*
X68844687Y-15060704D01*
X68844687Y-15060704D02*
X68882782Y-15098800D01*
X68882782Y-15098800D02*
X68958972Y-15136895D01*
X68958972Y-15136895D02*
X69263734Y-15136895D01*
X69263734Y-15136895D02*
X69263734Y-14336895D01*
X69263734Y-14336895D02*
X68997068Y-14336895D01*
X68997068Y-14336895D02*
X68920877Y-14374990D01*
X68920877Y-14374990D02*
X68882782Y-14413085D01*
X68882782Y-14413085D02*
X68844687Y-14489276D01*
X68844687Y-14489276D02*
X68844687Y-14565466D01*
X68844687Y-14565466D02*
X68882782Y-14641657D01*
X68882782Y-14641657D02*
X68920877Y-14679752D01*
X68920877Y-14679752D02*
X68997068Y-14717847D01*
X68997068Y-14717847D02*
X69263734Y-14717847D01*
X68006591Y-15060704D02*
X68044687Y-15098800D01*
X68044687Y-15098800D02*
X68158972Y-15136895D01*
X68158972Y-15136895D02*
X68235163Y-15136895D01*
X68235163Y-15136895D02*
X68349449Y-15098800D01*
X68349449Y-15098800D02*
X68425639Y-15022609D01*
X68425639Y-15022609D02*
X68463734Y-14946419D01*
X68463734Y-14946419D02*
X68501830Y-14794038D01*
X68501830Y-14794038D02*
X68501830Y-14679752D01*
X68501830Y-14679752D02*
X68463734Y-14527371D01*
X68463734Y-14527371D02*
X68425639Y-14451180D01*
X68425639Y-14451180D02*
X68349449Y-14374990D01*
X68349449Y-14374990D02*
X68235163Y-14336895D01*
X68235163Y-14336895D02*
X68158972Y-14336895D01*
X68158972Y-14336895D02*
X68044687Y-14374990D01*
X68044687Y-14374990D02*
X68006591Y-14413085D01*
X67854211Y-15213085D02*
X67244687Y-15213085D01*
X67054210Y-15136895D02*
X67054210Y-14336895D01*
X67054210Y-14336895D02*
X66749448Y-14336895D01*
X66749448Y-14336895D02*
X66673258Y-14374990D01*
X66673258Y-14374990D02*
X66635163Y-14413085D01*
X66635163Y-14413085D02*
X66597067Y-14489276D01*
X66597067Y-14489276D02*
X66597067Y-14603561D01*
X66597067Y-14603561D02*
X66635163Y-14679752D01*
X66635163Y-14679752D02*
X66673258Y-14717847D01*
X66673258Y-14717847D02*
X66749448Y-14755942D01*
X66749448Y-14755942D02*
X67054210Y-14755942D01*
X66254210Y-15136895D02*
X66254210Y-14336895D01*
X66254210Y-14336895D02*
X66063734Y-14336895D01*
X66063734Y-14336895D02*
X65949448Y-14374990D01*
X65949448Y-14374990D02*
X65873258Y-14451180D01*
X65873258Y-14451180D02*
X65835163Y-14527371D01*
X65835163Y-14527371D02*
X65797067Y-14679752D01*
X65797067Y-14679752D02*
X65797067Y-14794038D01*
X65797067Y-14794038D02*
X65835163Y-14946419D01*
X65835163Y-14946419D02*
X65873258Y-15022609D01*
X65873258Y-15022609D02*
X65949448Y-15098800D01*
X65949448Y-15098800D02*
X66063734Y-15136895D01*
X66063734Y-15136895D02*
X66254210Y-15136895D01*
X65454210Y-14832133D02*
X64844687Y-14832133D01*
X64578020Y-14336895D02*
X64120877Y-14336895D01*
X64349449Y-15136895D02*
X64349449Y-14336895D01*
X63854210Y-15136895D02*
X63854210Y-14603561D01*
X63854210Y-14755942D02*
X63816115Y-14679752D01*
X63816115Y-14679752D02*
X63778020Y-14641657D01*
X63778020Y-14641657D02*
X63701829Y-14603561D01*
X63701829Y-14603561D02*
X63625639Y-14603561D01*
X63358972Y-15136895D02*
X63358972Y-14603561D01*
X63358972Y-14336895D02*
X63397068Y-14374990D01*
X63397068Y-14374990D02*
X63358972Y-14413085D01*
X63358972Y-14413085D02*
X63320877Y-14374990D01*
X63320877Y-14374990D02*
X63358972Y-14336895D01*
X63358972Y-14336895D02*
X63358972Y-14413085D01*
X62635163Y-14603561D02*
X62635163Y-15251180D01*
X62635163Y-15251180D02*
X62673258Y-15327371D01*
X62673258Y-15327371D02*
X62711354Y-15365466D01*
X62711354Y-15365466D02*
X62787544Y-15403561D01*
X62787544Y-15403561D02*
X62901830Y-15403561D01*
X62901830Y-15403561D02*
X62978020Y-15365466D01*
X62635163Y-15098800D02*
X62711354Y-15136895D01*
X62711354Y-15136895D02*
X62863735Y-15136895D01*
X62863735Y-15136895D02*
X62939925Y-15098800D01*
X62939925Y-15098800D02*
X62978020Y-15060704D01*
X62978020Y-15060704D02*
X63016116Y-14984514D01*
X63016116Y-14984514D02*
X63016116Y-14755942D01*
X63016116Y-14755942D02*
X62978020Y-14679752D01*
X62978020Y-14679752D02*
X62939925Y-14641657D01*
X62939925Y-14641657D02*
X62863735Y-14603561D01*
X62863735Y-14603561D02*
X62711354Y-14603561D01*
X62711354Y-14603561D02*
X62635163Y-14641657D01*
X61911353Y-14603561D02*
X61911353Y-15251180D01*
X61911353Y-15251180D02*
X61949448Y-15327371D01*
X61949448Y-15327371D02*
X61987544Y-15365466D01*
X61987544Y-15365466D02*
X62063734Y-15403561D01*
X62063734Y-15403561D02*
X62178020Y-15403561D01*
X62178020Y-15403561D02*
X62254210Y-15365466D01*
X61911353Y-15098800D02*
X61987544Y-15136895D01*
X61987544Y-15136895D02*
X62139925Y-15136895D01*
X62139925Y-15136895D02*
X62216115Y-15098800D01*
X62216115Y-15098800D02*
X62254210Y-15060704D01*
X62254210Y-15060704D02*
X62292306Y-14984514D01*
X62292306Y-14984514D02*
X62292306Y-14755942D01*
X62292306Y-14755942D02*
X62254210Y-14679752D01*
X62254210Y-14679752D02*
X62216115Y-14641657D01*
X62216115Y-14641657D02*
X62139925Y-14603561D01*
X62139925Y-14603561D02*
X61987544Y-14603561D01*
X61987544Y-14603561D02*
X61911353Y-14641657D01*
X61225638Y-15098800D02*
X61301829Y-15136895D01*
X61301829Y-15136895D02*
X61454210Y-15136895D01*
X61454210Y-15136895D02*
X61530400Y-15098800D01*
X61530400Y-15098800D02*
X61568496Y-15022609D01*
X61568496Y-15022609D02*
X61568496Y-14717847D01*
X61568496Y-14717847D02*
X61530400Y-14641657D01*
X61530400Y-14641657D02*
X61454210Y-14603561D01*
X61454210Y-14603561D02*
X61301829Y-14603561D01*
X61301829Y-14603561D02*
X61225638Y-14641657D01*
X61225638Y-14641657D02*
X61187543Y-14717847D01*
X61187543Y-14717847D02*
X61187543Y-14794038D01*
X61187543Y-14794038D02*
X61568496Y-14870228D01*
X60844686Y-15136895D02*
X60844686Y-14603561D01*
X60844686Y-14755942D02*
X60806591Y-14679752D01*
X60806591Y-14679752D02*
X60768496Y-14641657D01*
X60768496Y-14641657D02*
X60692305Y-14603561D01*
X60692305Y-14603561D02*
X60616115Y-14603561D01*
X59816115Y-14603561D02*
X59625639Y-15136895D01*
X59625639Y-15136895D02*
X59435162Y-14603561D01*
X58711353Y-15136895D02*
X59168496Y-15136895D01*
X58939924Y-15136895D02*
X58939924Y-14336895D01*
X58939924Y-14336895D02*
X59016115Y-14451180D01*
X59016115Y-14451180D02*
X59092305Y-14527371D01*
X59092305Y-14527371D02*
X59168496Y-14565466D01*
X58368495Y-15060704D02*
X58330400Y-15098800D01*
X58330400Y-15098800D02*
X58368495Y-15136895D01*
X58368495Y-15136895D02*
X58406591Y-15098800D01*
X58406591Y-15098800D02*
X58368495Y-15060704D01*
X58368495Y-15060704D02*
X58368495Y-15136895D01*
X57835162Y-14336895D02*
X57758972Y-14336895D01*
X57758972Y-14336895D02*
X57682781Y-14374990D01*
X57682781Y-14374990D02*
X57644686Y-14413085D01*
X57644686Y-14413085D02*
X57606591Y-14489276D01*
X57606591Y-14489276D02*
X57568496Y-14641657D01*
X57568496Y-14641657D02*
X57568496Y-14832133D01*
X57568496Y-14832133D02*
X57606591Y-14984514D01*
X57606591Y-14984514D02*
X57644686Y-15060704D01*
X57644686Y-15060704D02*
X57682781Y-15098800D01*
X57682781Y-15098800D02*
X57758972Y-15136895D01*
X57758972Y-15136895D02*
X57835162Y-15136895D01*
X57835162Y-15136895D02*
X57911353Y-15098800D01*
X57911353Y-15098800D02*
X57949448Y-15060704D01*
X57949448Y-15060704D02*
X57987543Y-14984514D01*
X57987543Y-14984514D02*
X58025639Y-14832133D01*
X58025639Y-14832133D02*
X58025639Y-14641657D01*
X58025639Y-14641657D02*
X57987543Y-14489276D01*
X57987543Y-14489276D02*
X57949448Y-14413085D01*
X57949448Y-14413085D02*
X57911353Y-14374990D01*
X57911353Y-14374990D02*
X57835162Y-14336895D01*
D11*
X45028295Y9010476D02*
X45675914Y9010476D01*
X45675914Y9010476D02*
X45752104Y8972381D01*
X45752104Y8972381D02*
X45790200Y8934286D01*
X45790200Y8934286D02*
X45828295Y8858095D01*
X45828295Y8858095D02*
X45828295Y8705714D01*
X45828295Y8705714D02*
X45790200Y8629524D01*
X45790200Y8629524D02*
X45752104Y8591429D01*
X45752104Y8591429D02*
X45675914Y8553333D01*
X45675914Y8553333D02*
X45028295Y8553333D01*
X45790200Y8210477D02*
X45828295Y8096191D01*
X45828295Y8096191D02*
X45828295Y7905715D01*
X45828295Y7905715D02*
X45790200Y7829524D01*
X45790200Y7829524D02*
X45752104Y7791429D01*
X45752104Y7791429D02*
X45675914Y7753334D01*
X45675914Y7753334D02*
X45599723Y7753334D01*
X45599723Y7753334D02*
X45523533Y7791429D01*
X45523533Y7791429D02*
X45485438Y7829524D01*
X45485438Y7829524D02*
X45447342Y7905715D01*
X45447342Y7905715D02*
X45409247Y8058096D01*
X45409247Y8058096D02*
X45371152Y8134286D01*
X45371152Y8134286D02*
X45333057Y8172381D01*
X45333057Y8172381D02*
X45256866Y8210477D01*
X45256866Y8210477D02*
X45180676Y8210477D01*
X45180676Y8210477D02*
X45104485Y8172381D01*
X45104485Y8172381D02*
X45066390Y8134286D01*
X45066390Y8134286D02*
X45028295Y8058096D01*
X45028295Y8058096D02*
X45028295Y7867619D01*
X45028295Y7867619D02*
X45066390Y7753334D01*
X45409247Y7143810D02*
X45447342Y7029524D01*
X45447342Y7029524D02*
X45485438Y6991429D01*
X45485438Y6991429D02*
X45561628Y6953333D01*
X45561628Y6953333D02*
X45675914Y6953333D01*
X45675914Y6953333D02*
X45752104Y6991429D01*
X45752104Y6991429D02*
X45790200Y7029524D01*
X45790200Y7029524D02*
X45828295Y7105714D01*
X45828295Y7105714D02*
X45828295Y7410476D01*
X45828295Y7410476D02*
X45028295Y7410476D01*
X45028295Y7410476D02*
X45028295Y7143810D01*
X45028295Y7143810D02*
X45066390Y7067619D01*
X45066390Y7067619D02*
X45104485Y7029524D01*
X45104485Y7029524D02*
X45180676Y6991429D01*
X45180676Y6991429D02*
X45256866Y6991429D01*
X45256866Y6991429D02*
X45333057Y7029524D01*
X45333057Y7029524D02*
X45371152Y7067619D01*
X45371152Y7067619D02*
X45409247Y7143810D01*
X45409247Y7143810D02*
X45409247Y7410476D01*
X45828295Y6191429D02*
X45828295Y6648572D01*
X45828295Y6420000D02*
X45028295Y6420000D01*
X45028295Y6420000D02*
X45142580Y6496191D01*
X45142580Y6496191D02*
X45218771Y6572381D01*
X45218771Y6572381D02*
X45256866Y6648572D01*
%LPC*%
D12*
X100965000Y-5080000D03*
X104140000Y-8890000D03*
D13*
X104140000Y-9890000D03*
D14*
X77978000Y-18753500D03*
D15*
X80518000Y-18753500D03*
X83058000Y-18753500D03*
X85598000Y-18753500D03*
X88138000Y-18753500D03*
X90678000Y-18753500D03*
X90678000Y-11133500D03*
X88138000Y-11133500D03*
X85598000Y-11133500D03*
X83058000Y-11133500D03*
X80518000Y-11133500D03*
X77978000Y-11133500D03*
D16*
X104050000Y-29110000D03*
D12*
X96520000Y-8890000D03*
D13*
X96520000Y-9890000D03*
D16*
X104050000Y19890000D03*
D17*
X88035000Y-29319000D03*
X91035000Y-29319000D03*
D12*
X98425000Y-5080000D03*
D16*
X46050000Y19890000D03*
X46050000Y-29110000D03*
D18*
X46990000Y-1270000D03*
X49530000Y-1270000D03*
D19*
X52070000Y-1270000D03*
D18*
X54610000Y-1270000D03*
X57150000Y-1270000D03*
X59690000Y-1270000D03*
X62230000Y-1270000D03*
D19*
X64770000Y-1270000D03*
D18*
X67310000Y-1270000D03*
X69850000Y-1270000D03*
X72390000Y-1270000D03*
X74930000Y-1270000D03*
D19*
X77470000Y-1270000D03*
D18*
X80010000Y-1270000D03*
X82550000Y-1270000D03*
X85090000Y-1270000D03*
X87630000Y-1270000D03*
D19*
X90170000Y-1270000D03*
D18*
X92710000Y-1270000D03*
X95250000Y-1270000D03*
X95250000Y16510000D03*
X92710000Y16510000D03*
D19*
X90170000Y16510000D03*
D18*
X87630000Y16510000D03*
X85090000Y16510000D03*
X82550000Y16510000D03*
X80010000Y16510000D03*
D19*
X77470000Y16510000D03*
D18*
X74930000Y16510000D03*
X72390000Y16510000D03*
X69850000Y16510000D03*
X67310000Y16510000D03*
D19*
X64770000Y16510000D03*
D18*
X62230000Y16510000D03*
X59690000Y16510000D03*
X57150000Y16510000D03*
X54610000Y16510000D03*
D19*
X52070000Y16510000D03*
D18*
X49530000Y16510000D03*
X46990000Y16510000D03*
D17*
X78256000Y-29286000D03*
X81256000Y-29286000D03*
D12*
X101600000Y-8890000D03*
D13*
X101600000Y-9890000D03*
D20*
X49706000Y-5326000D03*
X49706000Y-27326000D03*
X71706000Y-5326000D03*
X71706000Y-27326000D03*
D21*
X56896000Y-4826000D03*
X59436000Y-4826000D03*
X61976000Y-4826000D03*
X64516000Y-4826000D03*
D12*
X99060000Y-8890000D03*
D13*
X99060000Y-9890000D03*
D22*
X101219000Y9624000D03*
D23*
X101219000Y6124000D03*
D24*
X49155000Y4730000D03*
X49155000Y10510000D03*
D25*
X50600000Y4395000D03*
X50600000Y5170000D03*
D26*
X50600000Y5870000D03*
X50600000Y6370000D03*
X50600000Y6870000D03*
X50600000Y7370000D03*
X50600000Y7870000D03*
X50600000Y8370000D03*
X50600000Y8870000D03*
X50600000Y9370000D03*
D25*
X50600000Y10070000D03*
X50600000Y10845000D03*
D27*
X45505000Y3300000D03*
D28*
X49685000Y3300000D03*
D27*
X45505000Y11940000D03*
D28*
X49685000Y11940000D03*
%LPD*%
M02*
